<?xml version="1.0" encoding="UTF-8"?>
<svg width="256px" height="679px" viewBox="0 0 256 679" version="1.1" xmlns="http://www.w3.org/2000/svg" xmlns:xlink="http://www.w3.org/1999/xlink">
    <!-- Generator: Sketch 62 (91390) - https://sketch.com -->
    <title>peep-standing-13</title>
    <desc>Created with Sketch.</desc>
    <g id="Introduction" stroke="none" stroke-width="1" fill="none" fill-rule="evenodd">
        <g id="variations-standing" transform="translate(-1668.000000, -108.000000)">
            <g id="a-person/standing" transform="translate(1677.000000, 50.000000)">
                <g id="pose/standing/easing-1" transform="translate(-28.736217, 150.264357)">
                    <path d="M270.006275,238.344632 C276.260885,238.484945 273.578924,180.126498 269.402345,169.372598 C268.817484,167.193216 268.334485,164.2153 268.43176,161.541027 C273.597511,162.057467 273.041373,158.521727 272.77465,154.25822 C272.86227,150.872833 273.097615,143.887793 267.916416,146.607612 C252.3832,115.509308 269.178345,35.1204981 228.279826,27.5489842 C223.351593,26.3520386 218.258015,25.1134643 214.108711,21.6964881 C209.71827,13.5806186 207.482136,12.5440656 200.206975,12.0190551 C198.85984,4.70857721 196.341775,-3.10119938 188.837787,-5.94590432 C181.967419,-8.63805256 173.971501,-8.85280734 166.807616,-7.41612972 C160.878143,-5.48211237 160.335765,5.53943576 159.01856,10.9734417 C151.032538,8.85576864 141.190554,4.40174969 136.891113,14.4986524 C134.808737,13.8761819 132.879154,14.2802245 130.762985,14.9729739 C113.027669,17.8306572 95.8202493,25.8539642 89.2421911,42.5950418 C85.1788184,52.6410106 88.0625723,63.5768527 89.5863974,73.9813176 C91.0076365,85.3106727 87.2599874,95.8067206 85.5227834,106.704117 C82.9361669,121.71026 82.4683746,133.746813 84.1563373,144.900103 C79.6946895,145.915107 79.36569,149.973409 81.1707215,154.22002 C81.7007896,155.656942 82.2347198,157.17198 83.4068558,157.984228 C85.7911967,159.485307 88.8728814,157.755515 91.464084,157.490806 C92.0030831,163.483125 93.0468056,169.363047 94.7736303,176.045423 C94.2734932,178.045801 93.6999769,180.279544 93.1848743,182.288248 L93.0110815,182.09945 C87.0951256,206.879507 69.5005337,230.949918 74.9689731,257.285661 C75.2904898,258.163045 75.9006957,257.980124 76.3692121,257.964942 C79.0837594,258.997087 81.5772036,258.342048 84.3146819,258.447344 C90.8077748,258.451997 97.0809714,259.28359 102.900376,260.007439 C103.964133,266.956727 107.42261,278.333588 113.590324,280.983128 C113.694117,281.018635 115.522321,280.637365 115.675113,280.626346 C99.2560368,347.20253 69.7136713,408.764423 57.9787939,476.682274 C57.9092768,477.511174 59.2578608,477.072359 59.7003084,477.173247 C59.6397222,479.058045 60.8574789,479.511062 62.5625795,480.181283 C60.3653073,484.774881 58.3860002,489.362601 56.1986244,493.967952 C55.1843502,496.247487 53.5313874,498.499107 53.2301465,500.936096 C50.8086332,502.483701 49.1776359,505.508879 49.2208427,508.332524 C42.6908189,511.092503 44.4656781,524.724901 42.9758874,531.477065 C41.4694416,541.536013 34.3041085,548.560477 29.391082,556.807599 C28.3898423,558.463195 27.3236716,560.632536 27.2763613,562.711764 C24.2306422,564.139626 23.0949544,567.258835 23.2965058,572.508696 C23.2856437,578.651368 25.0182616,580.990163 29.6901505,581.138801 C42.3799229,582.40676 57.1877952,581.890321 69.9511881,580.448256 C79.4991725,579.234169 87.9599863,580.241582 85.8252312,568.76873 C85.3859215,565.991121 86.2297822,562.251645 84.5859918,560.003944 C83.5724418,553.312753 84.1621304,546.56818 86.3475751,539.957798 C87.6761968,534.391883 89.9208193,522.894636 88.990722,515.424615 C88.5605583,511.969781 81.5080377,510.068805 80.2666259,509.900576 C80.6615218,507.300011 80.4877016,502.755512 79.088428,500.948095 C81.6579066,500.589843 82.3037542,499.910562 82.8388912,497.056797 C84.1177167,492.435039 84.2878889,487.41683 87.4547802,483.522838 C93.1505985,483.596056 98.8273479,482.150563 104.520028,481.974743 L104.803407,481.320928 C108.170402,481.27783 111.518568,480.683031 114.714425,479.516694 C115.423114,479.851682 116.329733,480.13941 116.728008,479.06686 L118.629109,473.121802 C140.759452,402.695213 165.289825,332.098682 189.208062,262.188289 C190.604198,258.789189 192.28323,255.177048 194.466743,252.147953 C195.206328,294.923333 204.167038,337.653167 204.936554,380.407977 C205.976414,409.820321 205.708725,438.923879 208.47541,468.441029 C209.187478,474.688018 209.944442,474.480119 210.876889,474.096891 C211.250543,474.155171 212.129887,474.34299 212.511507,474.423064 C211.887784,480.630873 211.170164,490.707451 208.507996,497.056797 C202.623661,497.964791 203.677521,502.480028 204.982657,506.222443 C203.578797,507.421592 203.778418,510.216493 204.195038,511.763364 C198.65853,511.769241 197.451394,516.272479 197.83229,519.114491 C198.358978,523.867011 198.064255,531.263045 201.235491,535.321592 C203.10304,540.497501 206.142966,545.382498 207.330308,550.958531 C208.076652,555.061401 207.788446,561.037822 208.507996,565.107633 C206.697413,565.943879 207.464619,567.255181 207.159275,569.792078 C205.592002,581.404753 211.108854,579.430803 220.863459,580.230318 C226.710139,581.52154 271.221135,584.090761 269.297587,576.364487 C269.62562,573.218097 268.162381,571.836779 267.535762,568.738874 C267.254314,567.916586 261.708875,558.401938 258.401259,554.799347 C247.307726,544.376272 247.792173,530.382496 248.143621,514.263399 C247.491174,509.894596 244.130455,505.711163 239.842117,506.181322 C241.073391,501.515242 238.791154,497.458381 234.021989,496.109123 C234.498471,490.826205 235.000056,483.648214 236.744019,479.078124 L235.101435,477.405878 L237.300156,477.668628 L238.030086,475.830601 L238.826154,477.844693 C242.600837,477.844693 246.859727,477.007467 250.475583,476.613954 C251.053203,476.646523 250.79541,475.8617 250.890272,475.559036 C254.304818,474.851839 254.678714,473.037565 254.075267,468.714309 C254.87061,398.519372 254.525438,328.983391 253.438268,258.658426 C258.774673,258.896444 263.978319,256.949938 269.222518,255.652839 C271.085722,256.822114 271.613617,252.658271 271.395652,251.759337 C271.099963,247.106725 270.524274,242.568469 270.006275,238.344632 Z" id="ðŸŽ¨-Background" fill="#FFFFFF"></path>
                    <path d="M160.415989,1.18514494 C161.209176,1.81132052 161.126222,3.54717767 161.204531,4.51891872 L161.210002,4.58254887 C161.459465,7.51781006 161.121603,10.4665888 160.406115,13.3164111 L160.295489,13.75094 C159.953606,15.1129539 159.61385,16.7455298 158.543813,17.6797872 C157.328566,18.7408605 155.397953,18.053994 155.354125,16.3429826 C155.331968,15.5477932 155.597613,14.7821463 155.933382,14.0361946 C153.578857,14.9446309 151.224332,15.8432196 148.860068,16.7196513 C147.349714,29.2083112 164.796817,44.4983523 174.898387,49.851233 C189.60869,57.9934315 201.985894,45.5220048 203.869027,30.8607297 C204.185318,28.9133772 204.397396,26.9118631 204.438788,24.9374298 L204.441138,24.7479939 C204.449344,23.1155091 204.178578,20.9328688 205.242297,19.5754401 C204.459241,19.556976 203.763841,19.6670223 202.997342,19.7871624 L203.034082,19.8508168 C203.468436,20.627287 204.082471,22.5599993 202.707105,22.7069603 C199.738017,22.3945468 198.356955,17.1896255 197.633067,14.6932722 L197.604631,14.5849735 C197.137284,12.7141787 196.542238,5.92366177 197.949844,5.10939267 C198.382765,6.78470671 198.212324,8.60404114 198.738744,10.284279 C199.936703,10.7668088 202.217938,10.8972888 202.746306,10.9861629 C208.916525,11.0575576 212.414955,15.4864922 214.915816,20.6709798 C222.247227,26.6878314 232.785614,25.6538389 240.702126,30.6091249 C264.927436,48.1682871 257.015794,116.525778 269.082065,145.606817 C271.497949,144.607291 273.960339,146.608558 274.28296,149.050996 C274.616538,150.929416 274.516708,152.940778 274.543492,154.843816 L274.554919,155.081476 C274.752155,158.973765 275.425248,163.348415 270.16802,163.43334 C270.176298,165.606201 270.585358,167.709637 271.110317,169.807165 C274.021454,182.503608 275.291973,195.581151 275.578558,208.596655 L275.593003,209.552976 C275.687616,216.393977 275.771363,237.55812 271.838345,240.062032 L272.021525,241.552795 C272.476915,245.280975 272.905866,249.018695 273.14563,252.765614 C273.523035,254.710505 272.238638,259.370857 269.617738,258.137205 C264.811293,259.325804 260.071076,261.079653 255.076659,261.089008 C256.286792,301.344552 255.685135,341.641455 255.864098,381.913493 C255.478414,411.599418 257.083484,441.530547 255.680508,471.102732 L255.731253,471.519993 C256.127772,474.840777 256.246656,477.728025 252.408279,478.865062 C252.353007,479.677484 251.727731,480.111515 250.986311,480.20679 C248.882335,480.489907 246.778602,480.758253 244.672434,481.016751 C242.710411,481.162495 240.611061,481.650687 238.655856,481.418039 C238.844802,481.609327 238.331531,481.638624 238.276015,481.499281 C236.493199,485.972529 235.975788,490.848789 235.534345,495.620664 C239.861607,497.269882 242.223193,500.979453 241.516835,505.630696 C245.883055,505.807214 249.071525,510.658362 249.683409,514.747063 C250.075424,517.568386 249.761325,520.370013 249.634955,523.196259 C249.030619,532.854734 250.450395,543.260145 256.686112,550.963882 C260.73385,555.800012 266.003408,560.174047 267.769667,566.471307 C268.249338,566.695339 268.643788,567.128631 268.816664,567.80565 L269.937176,572.20258 L269.937176,572.20258 L270.494293,574.401045 C270.902363,576.003734 271.26496,577.643389 271.046156,579.302776 L271.023148,579.463423 C269.931593,589.973218 226.841838,584.907394 218.431777,584.152579 C215.051195,583.622535 211.341662,583.91156 208.297823,582.121522 C204.563941,579.657666 204.097175,574.659297 204.738035,570.565425 L204.791315,570.181702 C205.050829,568.351159 205.430917,566.431703 207.168041,565.407772 C206.583184,561.614497 206.809627,557.733332 206.113983,553.955074 C205.063334,548.608595 201.885091,543.969415 200.262733,538.836627 C197.896033,536.205362 197.816169,532.10312 197.321403,528.737967 C196.946432,525.473505 196.639637,522.186886 196.513267,518.902729 C196.169706,514.561437 198.054057,510.981361 202.619693,510.414143 C202.407858,509.591626 202.987846,508.880387 203.564668,508.353543 C202.203329,503.519628 201.827628,496.883366 207.732932,495.234148 C209.969609,489.688748 210.619721,483.679282 211.215048,477.764598 C211.144193,477.749827 211.073825,477.737518 211.00297,477.725208 C208.297171,478.851561 207.562808,474.030291 207.309429,471.483592 L207.253262,470.876239 C204.468737,441.44118 204.72513,411.832805 203.679351,382.307395 L203.577076,380.172908 C202.660254,360.71884 202.114808,341.094088 198.750188,321.900076 C195.363762,300.507018 194.478685,278.76511 193.321145,257.147527 C191.957858,259.265488 191.224717,261.698079 190.121475,263.954644 C175.805378,306.011304 161.116502,347.941177 146.963299,390.054953 C136.705167,420.545423 126.904792,451.198377 117.075198,481.831636 C116.573613,483.399857 114.993379,483.724827 113.836813,483.222602 C110.892804,484.243792 107.80319,484.823567 104.693854,484.923765 C104.506612,485.354596 104.121901,485.669717 103.559202,485.60817 C101.896181,485.42599 99.9826123,485.945449 98.3195921,486.139938 C94.5143681,486.515868 90.8201743,487.099335 86.9801316,487.154235 C84.6012578,490.161676 84.4517564,494.239792 83.3548448,497.819129 C82.7234815,499.643633 82.822581,503.735782 80.6421496,504.249578 C81.4237448,505.45344 81.5260095,506.898568 81.399396,508.38801 C82.0775089,508.542124 82.7653614,508.833365 83.4032989,509.131499 C84.0246792,509.446129 84.8454759,509.419048 85.273527,510.052245 C97.4520458,512.259573 88.5520874,535.383584 86.4352063,543.031682 C84.3575267,549.284383 83.7069279,555.81503 84.6550686,562.342723 C86.1043067,564.344237 85.6190359,567.321397 85.8408531,569.693917 C85.9574837,571.81114 86.1717528,573.960367 86.1525172,576.080052 C85.9158473,584.885483 75.0443699,583.453157 68.9109175,584.595719 C65.0811012,585.04132 61.2337538,585.351518 57.3866499,585.592783 C47.6296152,586.199146 37.8177957,586.245429 28.080727,585.302034 C21.7938775,585.102868 20.4420344,581.002103 20.4520173,575.392939 L20.4424192,575.160871 C20.3007567,571.353837 20.9146584,566.757108 24.5304345,564.777529 C24.7106153,562.766168 25.7310718,560.735111 26.7729552,558.977324 C31.6178712,550.832171 38.892063,543.694422 40.3227961,533.919993 C41.7262585,527.521056 40.1362846,513.43537 46.6415425,510.099021 C46.7925048,507.218121 48.5624161,504.280597 50.7540479,502.723208 C51.1769859,500.323114 52.7703686,498.116771 53.7562499,495.911167 C55.7669704,491.700109 57.6269721,487.422334 59.6269792,483.20783 C58.5797391,482.764691 57.4670008,481.949806 57.3209082,480.792719 C56.315548,480.805029 55.3221186,480.155091 55.4438624,478.931533 C55.7989257,475.379325 56.576082,471.886109 57.3100192,468.395252 L57.4015026,467.958903 C70.460716,404.83563 97.4284275,345.808937 113.20618,283.494641 C111.083212,283.878695 109.098544,281.451274 107.924934,279.870743 C104.133832,274.766759 101.89472,268.59087 100.910057,262.324875 L99.1281233,262.103994 C93.1853678,261.374394 87.2131388,260.735465 81.2206709,260.907189 L79.7764443,260.955492 C78.1719891,261.004492 76.5647064,260.991728 75.0395001,260.414451 C73.9754594,260.512926 72.8675908,259.941768 72.6046242,258.747753 C68.1663325,236.629423 79.0757939,215.638636 86.8900411,195.652054 C88.7308073,190.738127 90.041014,185.752806 91.2901054,180.664086 C91.3312548,180.49914 91.5893516,180.533606 91.5822905,180.703476 C91.3388029,186.360893 89.9360709,192.065084 88.511425,197.518164 C83.8337849,216.008166 74.0886811,234.140209 76.4712072,253.715656 C83.8773692,247.882954 92.6736019,243.831919 101.913225,242.117707 C102.446463,239.801072 103.035703,237.501669 103.478851,235.170262 C103.043008,231.585755 102.745953,227.984014 102.366112,224.382274 C101.23146,213.609057 99.498072,202.86292 97.1873748,192.279022 C93.6027505,181.629638 90.4732045,170.835987 89.3541356,159.607567 L89.1504496,159.647634 C86.665169,160.152109 83.9269335,161.247145 81.6212132,159.664191 C80.1578528,158.649893 79.5245415,156.968425 78.9333537,155.353427 C77.2442803,151.438042 76.9318857,146.291221 81.7110601,144.654066 C79.9294614,132.205043 81.0870014,119.208988 83.2404057,106.876412 C84.9645413,96.0665126 88.747121,85.4163898 87.3312407,74.349962 C85.7592848,63.7158415 82.8281812,52.5780189 87.0653522,42.1684225 C94.0290973,24.7958713 111.663443,16.553474 129.00609,13.9007908 L129.287065,13.8182355 C131.43257,13.1830696 133.386228,12.5135175 135.621647,12.9948164 C140.894371,3.21103168 149.445655,7.19042568 157.796062,9.37091891 C158.359979,7.71185332 158.829667,6.01462849 159.271597,4.31888079 C159.546738,3.45500467 159.455917,1.46186103 160.415989,1.18514494 Z M208.748275,570.15429 L208.726583,570.581097 C208.505726,575.16188 208.754462,579.086562 214.433954,579.056473 C218.342092,579.47379 222.250807,579.88002 226.16523,580.233665 L227.633416,580.363735 C239.251257,581.399832 251.008609,581.906656 262.60434,580.350973 L263.087401,580.284955 C264.056481,580.147089 265.850985,580.17417 266.618214,579.457761 C267.54298,578.213277 266.472365,575.84051 266.24787,574.396121 C248.154794,574.18563 230.0381,573.518213 211.933093,573.748645 C210.02902,573.758493 209.169509,572.131185 209.34482,570.649129 C209.130551,570.503878 208.928456,570.33647 208.748275,570.15429 Z M25.0493065,567.85735 C24.1596029,570.985423 24.3787417,573.942149 24.8813001,577.074408 C25.1325793,580.354872 26.6930912,580.564871 29.5170603,580.641928 C40.5414479,581.658934 51.645456,581.445981 62.6727654,580.592937 C68.5831832,579.955554 74.6567376,579.979681 80.457099,578.672419 C83.2243355,577.446153 81.6268134,573.589853 81.7210431,571.225211 C68.694457,579.619753 48.9936326,578.554248 34.7885666,573.697192 L34.5609519,573.600091 C31.2007655,572.188366 26.9053529,571.299615 25.0493065,567.85735 Z M46.6269333,511.374278 C45.1293265,513.06358 45.0981891,517.874794 45.0353607,519.51236 L45.0274633,519.695456 C44.8592134,523.134712 44.885997,526.581354 44.7369826,530.020364 C44.8467955,544.503644 36.4832403,551.727313 30.2721153,563.371792 C28.5733024,566.197792 31.0447015,566.598587 33.054935,567.515147 C46.072025,573.572866 61.4694498,574.499028 75.0684752,569.861079 C81.9041458,567.874583 80.4118103,563.274547 79.8313359,557.647905 C79.2598705,546.149662 85.3100502,535.79078 87.099684,524.668222 L87.1478826,524.380341 C87.6814487,521.114919 88.6035023,512.745751 83.400864,514.535341 C82.2688902,515.232055 81.2046059,514.358085 81.0709312,513.289626 C80.9360391,513.311783 80.7977382,513.324339 80.664307,513.326555 C80.0626491,517.044004 79.4393209,520.756529 78.8405849,524.473979 C79.3443607,524.794024 79.8167267,525.155921 80.2355253,525.569518 C80.7444144,526.074205 80.3889225,527.132817 79.6219366,527.068807 C79.2277302,527.034341 78.83815,526.975256 78.4507613,526.901399 C78.1437234,530.132872 73.011492,528.319692 74.4940879,525.729541 C67.114953,523.179765 58.9853894,523.383117 51.4918153,525.338101 L51.4608621,525.351442 C50.8807371,525.581829 46.7093489,526.418357 48.0513357,527.068807 C48.6106267,527.136509 47.3371866,527.86769 47.1139084,526.736207 C47.0418361,525.315452 50.2841169,524.617999 51.2775462,524.028377 C48.7720589,520.442393 47.0600977,515.794843 46.6269333,511.374278 Z M235.670698,500.020056 C228.719371,496.255831 220.176609,497.652952 212.637016,498.318892 L212.320362,498.354872 C210.401558,498.561266 207.72714,498.688733 206.846394,500.66507 C205.571006,503.831303 207.684965,510.91489 208.348956,514.436866 L208.575069,515.360516 C209.125809,517.615063 209.648137,519.85085 209.836908,522.181962 C209.841535,522.255819 209.770923,522.307518 209.705182,522.307518 C207.064072,519.485703 205.87707,515.690705 204.643318,512.070992 C204.117141,512.371343 203.603383,512.696312 203.119086,513.053285 C201.226083,519.558363 200.5923,526.48407 202.091106,533.11992 L202.144892,533.354005 C203.996371,541.55455 209.76094,548.26073 210.309031,556.830558 C210.675236,560.295172 210.593181,563.845459 211.589775,567.209873 C212.156615,567.334937 212.650894,567.752966 212.872955,568.278332 L216.122645,568.282347 C231.829802,568.309107 247.541221,568.451443 263.238363,569.098141 C262.732152,564.683978 258.836351,560.767115 256.092246,557.74121 C247.672201,549.117713 244.030358,536.730483 245.417506,524.791562 C246.147239,518.818778 249.480097,509.434804 241.327158,507.228461 C240.731588,512.096104 239.926618,516.947744 239.481522,521.834836 C241.02012,522.577341 240.92516,524.534295 239.045436,524.496136 C238.201752,527.335184 235.372669,526.187452 235.678246,523.508919 C225.330511,519.68684 219.393796,518.405674 209.312923,524.163781 C209.030721,524.122421 210.087701,522.990938 210.221375,522.789802 C213.407167,519.354731 218.299806,517.739979 222.890035,517.681633 C227.440331,517.680894 231.719625,519.396091 236.011824,520.722063 C236.657001,516.110686 237.091346,511.470787 237.602898,506.843597 L237.713802,505.852266 C237.981639,503.422384 237.884,501.415946 235.670698,500.020056 Z M69.378438,559.570589 C70.8929308,559.233311 72.2859233,558.721238 73.8245214,559.068364 C79.2396854,563.136386 57.1132377,564.283379 55.2293742,563.9946 C50.4334157,563.853372 45.6353643,563.244714 41.0197557,561.889442 L40.6980348,561.793673 C40.2434435,561.667132 35.6427455,560.385966 36.5151615,559.81407 C42.7579398,560.367256 48.8697218,561.51351 55.2293742,561.21513 C58.4020175,561.148659 61.5868351,560.924627 64.7253902,560.447021 C66.2861456,560.208218 67.8395965,559.917715 69.378438,559.570589 Z M215.665831,554.531156 C214.674593,553.045161 219.507578,555.018363 220.136263,555.035843 C224.138712,556.022813 228.211529,556.770981 232.322817,557.081671 C235.079096,557.290931 237.864594,557.335245 240.625744,557.199841 C242.670552,557.128939 244.693204,556.826865 246.724864,556.618836 L246.797966,556.615235 C248.005484,556.573335 250.424356,557.321784 248.93354,558.758462 C246.615051,560.556378 243.184798,560.008608 240.406361,560.272522 C231.968542,560.245195 223.033522,558.88648 215.665831,554.531156 Z M57.0314502,543.730833 C59.4638912,543.290156 72.8535173,543.146381 71.5187183,547.256255 C71.1948798,548.036674 70.4546775,548.295172 69.6755172,548.172324 C61.3889041,546.156531 52.4499877,545.102104 44.1896712,547.881575 C44.055753,547.928351 43.9632277,547.709243 44.094711,547.650404 C48.156084,545.614915 52.5018505,544.191699 57.0314502,543.730833 Z M230.827681,539.713059 C233.013822,539.547004 235.212929,539.605357 237.399949,539.769915 L238.295593,539.840017 C239.21811,539.914304 240.160859,540.00967 241.04213,540.277536 L241.21754,540.333454 C242.418421,540.720709 245.125029,542.784509 243.070481,543.777634 C240.864483,544.491581 238.999125,543.64223 236.871043,543.095445 C230.939199,541.689954 224.703481,542.165837 218.826421,543.60284 L219.654036,543.868724 L219.654036,543.868724 C219.705168,543.831795 219.771153,543.917961 219.722212,543.959814 C219.128346,544.479272 218.312419,544.29463 217.891429,543.649616 C217.818139,543.538831 217.864645,543.361575 217.981276,543.300028 C221.964733,541.209886 226.357249,540.052799 230.827681,539.713059 Z M46.0718546,539.188627 C52.7712084,536.22268 60.5330577,535.895205 67.7176556,536.755212 L68.229511,536.817616 C70.4709415,537.080573 73.3944559,537.201485 74.6767767,539.289565 C75.1199241,540.01336 74.6621674,540.843015 73.9463139,541.103975 C71.8379549,541.874546 69.3590077,540.330943 67.3334345,539.757323 C61.3431528,538.116968 54.9460033,537.94439 48.8549178,539.077843 C48.8975281,539.303351 47.888759,539.20463 47.6691332,539.284641 C47.3937487,539.269131 45.5666179,539.873524 46.0718546,539.188627 Z M215.013308,534.557843 C220.857741,531.715102 227.615252,531.037098 233.92499,532.504629 L234.187293,532.579448 C236.983106,533.364742 241.484376,534.290913 242.486013,537.251147 C242.702717,537.918318 242.232786,538.819369 241.529107,538.954773 C239.14512,539.410222 236.980759,537.669668 234.823459,536.832626 C228.476468,534.446812 221.291636,533.876146 214.728428,535.631225 C214.6846,535.889724 214.640772,536.14576 214.594266,536.404258 C214.706514,536.330401 214.823388,536.495348 214.733298,536.586684 C213.686058,537.320326 212.596207,535.468249 215.013308,534.557843 Z M61.1315134,529.560237 C65.8604243,529.245743 70.6291208,529.847239 75.1943924,531.094691 L76.0528801,531.331339 C77.3006298,531.681328 78.9168904,532.232088 79.0984626,533.580498 C79.169074,534.11719 79.0351558,534.486473 78.5993131,534.819074 C77.0100696,536.007919 73.5535197,533.516489 71.5773744,533.223525 C64.4034531,531.068018 56.7029724,531.098435 49.4360149,532.748138 L49.1884471,532.805004 L49.3637581,534.053181 C49.5359039,534.649696 47.9388687,533.242974 48.5456398,532.602883 C52.3817868,530.648883 56.8580627,529.912041 61.1315134,529.560237 Z M219.471469,527.329694 C223.266953,526.644624 227.182069,526.514239 231.019456,526.859173 L231.472812,526.901332 C233.764272,527.103903 241.189052,527.398922 239.432825,531.273636 C239.138205,531.921113 238.283563,532.004817 237.730603,531.724162 C235.875228,530.783721 233.846976,530.443981 231.799245,530.133783 C224.569125,529.12761 217.182442,529.539976 210.12398,531.487821 C210.277377,531.729086 209.960844,532.014664 209.661354,532.071288 C208.916282,532.209153 208.916282,531.320412 209.23525,530.84773 C209.615335,530.288882 210.372338,530.084545 210.956708,529.838356 C213.675003,528.65345 216.557409,527.852845 219.471469,527.329694 Z M75.7237003,505.770778 L75.2914721,505.668222 C68.0486264,503.963559 51.9908723,500.907143 50.3279446,510.886825 C49.7377307,515.282278 51.6846575,519.569654 51.5407563,523.922516 C59.051131,520.867068 67.3562492,520.898826 75.1590525,522.918066 C75.8503138,518.400504 76.5101652,513.878017 77.2162792,509.362917 L77.3304269,508.823188 C77.6447786,507.300008 77.7514817,506.109143 75.7237003,505.770778 Z M59.5926231,507.587896 C61.1709096,506.233859 63.8030105,506.253307 65.3511046,507.730686 C66.7669849,508.028082 67.7655275,509.53131 67.7884154,510.820354 C69.9410891,514.604766 67.3452679,519.83406 63.2354409,520.778686 C53.9551549,522.735148 49.8066134,509.984297 59.5926231,507.587896 Z M220.377072,501.548789 C228.141891,500.16127 230.962695,510.014972 224.589651,514.011107 C215.587184,518.528423 209.588624,504.326044 220.377072,501.548789 Z M63.4348816,479.662713 C63.5493208,480.416051 63.1787327,480.952249 62.7360722,481.459891 C61.1441504,487.98783 58.7482325,494.062782 56.3859159,500.320406 C64.0711147,499.046134 71.3321581,500.158168 78.132036,502.245602 C78.2133609,500.336162 79.083342,498.356559 79.6876782,496.556181 C80.8643661,493.137979 82.2869944,489.807356 83.9277735,486.590666 L84.1340051,486.189175 C84.7232451,485.044398 85.2905712,483.847921 85.9867022,482.752381 C78.465127,481.725036 70.9435519,480.799366 63.4348816,479.662713 Z M214.918251,478.271747 L214.717995,479.180272 C213.85462,483.120431 213.035379,487.097647 211.750477,490.925846 L211.732941,491.005078 C211.536209,491.971038 211.093945,496.44401 210.815485,493.286795 C210.601216,493.761939 210.372338,494.23216 210.12885,494.694995 L211.991237,494.47303 C218.937628,493.657438 226.184651,493.007108 232.997204,494.751618 C232.29036,489.272935 233.331026,484.038225 234.850145,478.857676 C228.19149,478.704547 221.591515,478.753784 214.918251,478.271747 Z M88.8184629,485.081326 C88.5749753,485.310282 88.3366009,485.544161 88.109914,485.787888 C88.4169518,485.709107 88.7237462,485.632789 89.0083832,485.566318 C88.9966958,485.386354 88.8695953,485.251196 88.8184629,485.081326 Z M238.874995,480.056615 L238.658291,480.566226 L238.658291,480.566226 C238.770539,480.499755 238.894717,480.435746 239.028392,480.379122 C238.96752,480.280647 238.916388,480.174786 238.874995,480.056615 Z M59.3201848,478.938918 C59.2415383,479.231144 59.1813969,479.552421 59.0399306,479.817812 C59.1519349,479.837507 59.2663741,479.859664 59.3810567,479.884283 C59.5196012,479.603628 59.6659372,479.330358 59.8239606,479.062013 C59.6559542,479.022623 59.4879478,478.983232 59.3201848,478.938918 Z M117.238334,155.848266 C116.556569,156.178159 115.845585,156.261863 114.905967,156.301253 C107.269465,156.618098 99.6575564,157.5029 92.1591126,159.011791 C92.5730415,165.080342 94.4186774,170.959328 96.1749534,176.744762 L96.5391744,178.012746 C102.473479,198.742291 107.653338,220.403948 106.610101,242.085703 C106.668538,242.10786 106.72454,242.137402 106.778351,242.164483 C106.683391,242.430162 106.615485,242.702337 106.520102,242.96548 L106.459139,243.122157 L106.102867,244.007398 C105.905965,244.498967 105.714675,244.992268 105.548495,245.497878 C105.257041,245.603001 104.89887,245.680058 104.557501,245.729295 C102.825086,257.208335 104.47228,270.07908 112.278736,279.055858 C109.495767,273.451747 108.52504,267.085438 108.647559,260.859547 L108.669527,259.907997 C108.70149,258.731751 108.771865,257.559893 109.130198,256.443427 C109.144807,256.384342 109.222723,256.394189 109.242445,256.443427 C110.895239,261.549873 111.002861,267.097243 112.626679,272.241355 L112.750915,272.636087 C114.035175,276.667013 116.179728,281.856985 119.904523,283.940242 C120.590306,284.144506 121.645139,283.902737 122.001579,284.69335 L122.0253,284.750203 L122.047214,284.742817 C120.384486,279.293928 119.313966,273.659569 118.947185,267.971378 L118.923268,267.583465 C118.806394,265.599185 118.548541,263.472114 119.042821,261.534363 C119.985118,263.306183 119.750883,266.200377 120.189404,268.344188 L120.206838,268.466493 C120.553146,270.783208 123.887381,288.492965 126.077177,286.126398 C126.529593,285.4736 126.411928,284.21212 126.425713,283.435266 L126.427556,283.359237 C126.461888,282.236616 126.44947,281.113996 126.410755,279.991375 C126.174329,273.378009 125.146811,266.590833 127.160454,260.148567 C127.49671,259.062875 129.322867,258.858538 129.544441,260.148567 C130.430735,265.308682 131.277829,270.473721 132.125166,275.638759 C132.742894,278.793421 132.717084,282.351833 134.59413,285.07271 C134.616044,279.132423 134.286848,273.209123 134.002211,267.27573 L133.926047,267.028648 C133.701063,266.279985 133.479238,265.307577 133.99515,264.671053 C134.202115,263.317015 136.179477,263.472114 136.34724,264.890161 C136.384007,265.185588 136.410547,265.485938 136.439766,265.783826 C137.094991,266.606096 137.70371,267.4456 138.477757,268.152161 C143.647729,257.59042 126.732402,239.349808 124.397113,227.422704 C117.519319,204.196032 121.473558,179.843047 123.474052,156.190468 C121.405381,155.945511 119.319666,155.880025 117.238334,155.848266 Z M215.670627,22.1702689 C219.286418,29.4328353 221.940433,37.1188463 223.778764,45.0288889 C224.345238,47.4710315 221.071959,48.969732 219.749556,46.830223 L219.710087,46.764273 C218.083833,44.0493041 215.660401,41.6580733 212.592944,40.7230487 C210.502847,49.4915513 211.521355,58.7578474 212.60731,67.6117775 C214.532759,79.9471266 216.06502,92.3349912 216.294365,104.835136 L216.3054,105.504895 C216.976451,148.193275 223.245526,190.689382 230.111876,232.484344 C241.088784,234.24927 251.138004,239.226467 261.256374,243.602225 C263.014354,244.289091 264.811293,244.88733 266.652303,245.300927 C261.568525,197.916251 242.234393,153.477469 236.260182,106.265864 C234.681165,93.9869567 234.606901,81.5182381 236.788306,69.3104795 C236.825073,69.0766002 237.155972,69.1553806 237.170582,69.3621791 C237.410173,74.3767965 238.267006,79.3259278 238.775165,84.3132183 C239.120917,81.4648151 239.919557,78.5794837 240.564799,75.8492511 C241.353698,73.17835 241.645153,68.8902354 243.956824,67.1489428 L244.102673,66.6442559 L244.102673,66.6442559 C244.163545,66.4276099 244.484949,66.5186997 244.43406,66.7353458 C244.409711,66.838745 244.385119,66.9396824 244.363205,67.0430816 C245.847992,67.4382145 244.461087,69.2004331 244.092934,70.0441218 C241.709921,76.4433044 241.000885,83.3700694 239.374144,89.9657106 C241.727939,110.555948 245.967301,130.884979 251.188406,150.897412 C255.985355,149.630525 260.798374,148.411152 265.607497,147.172577 C254.880408,112.172423 261.152892,73.111879 245.08125,39.6917643 C239.059802,28.4761461 224.230921,29.9998079 215.670627,22.1702689 Z M134.170705,15.7718249 C131.92088,15.6511924 129.570981,16.8747502 127.411246,17.2957329 C124.547832,17.8521193 121.699027,18.2927971 118.89892,19.147318 C104.566023,23.0848599 90.738119,33.8373972 88.1415674,49.3298053 C86.3568033,59.9676187 90.7761031,70.3321625 90.620758,80.9404332 C90.1544793,91.4502284 86.696225,101.55135 85.3487647,111.955284 C83.7278678,122.594083 83.1697943,133.729689 84.5601084,144.420187 C97.4174706,140.765024 110.845081,140.536068 124.029447,142.423597 C122.929857,126.220196 124.372764,109.936783 125.17116,93.744707 C125.745791,83.3456967 126.729481,72.8999106 126.381537,62.4812052 C126.373989,62.2497878 126.74896,62.1931644 126.784996,62.4245818 C130.738991,83.7039013 128.420015,105.305482 128.020208,126.765996 C127.766738,132.188056 128.436572,137.661815 128.166301,143.05384 C134.160235,144.347069 133.943531,151.35163 132.110556,155.968652 C131.785744,157.079702 130.682989,156.886936 129.790363,156.751779 C128.822987,157.770507 126.515455,156.441335 125.200379,156.441581 C124.170913,183.079443 117.916934,211.531963 130.732417,236.429009 C136.090339,236.458517 141.247918,234.605798 146.455206,233.555138 L146.739291,233.498641 L146.746595,233.496179 C147.51212,232.497392 147.886361,230.892241 147.988626,229.717183 C148.71641,209.203018 146.438827,188.642077 147.771191,168.125696 C149.403288,145.353488 154.472213,122.720131 152.127915,99.7935632 C150.506485,79.3030364 146.056705,59.1836556 143.911697,38.7543574 L143.80283,37.6973897 C143.669399,36.4378883 143.618754,35.0461837 142.99713,34.0858016 C139.378417,37.3901462 136.342127,41.3193177 134.168026,45.740128 C132.964467,47.8755687 129.740205,46.9252804 129.690533,44.5143545 C129.226933,40.2095694 129.158312,35.8885218 129.62797,31.5828074 L129.670811,31.202932 C130.25299,25.813123 131.878026,20.6687641 134.170705,15.7718249 Z M268.69492,163.610596 C264.034567,163.857523 259.368128,164.37575 254.699497,164.314695 L255.169562,166.082132 C260.821245,187.290171 266.839242,208.460373 270.387159,230.160323 L270.51604,228.125458 C270.644419,226.090362 270.767182,224.054228 270.84735,222.013939 C271.853928,202.512102 270.316791,183.035622 268.69492,163.610596 Z M147.372358,28.2585153 C147.391838,29.1398708 147.435665,30.0187644 147.504085,30.8951962 C149.657977,34.1335622 149.466595,38.4379253 149.948701,42.1632525 C152.6519,62.2815462 156.632679,82.3171204 157.973808,102.644428 C159.221682,118.905684 157.183934,135.109823 155.101142,151.207609 C152.532591,169.643696 152.801888,188.270824 153.398676,206.831482 C163.268202,197.877353 177.296009,196.306177 189.748939,193.524737 L190.341232,193.404264 C199.916433,191.438676 209.471645,188.589947 217.606597,182.993031 C211.756078,141.047648 213.133,98.5623735 207.150997,56.6539189 C206.966677,53.3537595 206.928936,50.0348897 207.202129,46.7374384 C206.939406,43.1674562 206.861003,39.5780251 206.854185,35.9986877 C204.232798,46.5727382 195.44947,56.7885841 183.941516,56.4547522 C171.697012,55.7344041 161.303988,45.6830122 153.32076,37.0671466 C151.156399,34.4969367 149.003969,31.4958966 147.372358,28.2585153 Z M255.059615,163.630291 L254.506898,163.60321 L254.540986,163.723842 L254.540986,163.723842 C254.654614,163.700865 254.770406,163.680076 254.886198,163.660016 L255.059615,163.630291 Z M270.248371,149.307033 C270.160959,149.279952 270.012188,149.279952 269.846616,149.287338 C269.607998,149.8388 269.126136,150.294249 268.566115,150.444424 L263.894263,151.709863 C260.000371,152.763924 256.10442,153.813517 252.203749,154.833969 C252.858487,157.364789 253.523452,159.895608 254.195234,162.423966 C259.515438,160.701876 265.406133,161.092578 270.83055,159.984236 C270.763834,157.062961 270.604837,154.126669 270.555165,151.200224 C270.542991,150.722618 270.640386,149.954509 270.396898,149.526141 C270.243745,149.252871 270.396898,149.353809 270.248371,149.307033 Z M91.533593,159.139809 L91.3872569,159.171814 L91.3872569,159.171814 C91.4359545,159.304755 91.4800257,159.437697 91.5214186,159.573101 C91.5238535,159.42785 91.5260449,159.28506 91.533593,159.139809 Z M126.169703,145.082435 C116.146293,143.616381 105.952441,142.750043 95.8430798,143.747846 C91.2703829,144.369965 86.6285355,145.033689 82.1471464,145.882548 C80.5885823,148.287565 82.3127179,154.139717 84.2530705,155.991056 C84.8350059,156.212625 85.8357399,155.781795 86.3933265,155.656239 C90.5771737,154.706689 94.8016834,153.941781 99.04762,153.344527 C99.1739901,153.50455 99.3590406,153.607949 99.587919,153.585792 L100.563405,153.495178 C106.419291,152.958836 112.326946,152.565534 118.195484,152.901388 L118.239068,152.935854 L118.239068,152.935854 C122.19842,153.226357 126.144136,153.853399 130.087174,154.307125 C131.643791,150.215469 131.375467,145.520897 126.169703,145.082435 Z M199.10154,11.6407786 C199.488686,12.9593653 199.954234,14.2407774 200.533004,15.486246 C201.13734,15.3180991 201.970798,15.4530105 202.415163,15.8358339 L202.604076,15.8014587 C203.123853,15.7022538 203.748095,15.5505286 203.91042,15.5330218 C211.072121,14.53645 210.526465,24.1703059 210.552518,29.0118527 C210.596346,31.4392732 210.645044,33.8691555 210.71809,36.296576 C212.767768,35.5946921 215.508221,36.8564091 217.299559,37.973121 C215.897071,33.2783027 214.24866,28.6598028 212.410329,24.1225453 L212.062261,23.2384587 C210.613928,19.5779089 209.010486,15.8712851 205.933559,13.3222474 C203.59413,12.7070219 201.327748,12.5952522 199.10154,11.6407786 Z M147.175377,9.22369807 C140.51867,6.83640634 137.881699,12.2616665 136.035576,17.6724016 C133.858797,23.6646343 133.264688,30.2624912 133.627484,36.710173 L133.851601,36.4119587 C136.300605,33.1291169 139.832079,27.7101078 144.297354,28.5810225 C144.253282,26.0900853 144.342886,23.353698 144.818174,20.7669934 C144.540841,19.0978341 144.469986,17.4114416 144.662585,15.725049 C144.764363,13.6105344 147.055094,13.9313182 148.563013,13.6324451 C149.868106,12.7584753 151.448341,12.4064255 153.03588,13.0218972 C154.233839,12.8618745 155.431798,12.7092376 156.629757,12.5566006 C156.81359,12.1503892 156.962117,11.7422084 157.116732,11.3256571 C153.801405,10.636575 150.486808,9.9263206 147.175377,9.22369807 Z" id="ðŸ–-Ink" fill="#000000"></path>
                </g>
                <g id="Head" stroke-width="1" transform="translate(95.945717, 42.661805)">
                    <g id="head/No-Hair-1">
                        <path d="M95.4864707,53.1425095 C93.3370639,44.0997535 88.6378106,35.6844282 81.1144563,28.8833692 C58.475067,6.54612215 16.8994606,18.6703701 17.0877897,52.3310082 C16.2758134,56.2625305 15.9461781,60.3049736 16.2150161,64.3144722 C16.3261612,66.0252106 17.068078,68.4126126 16.071335,69.9522297 C13.8230229,72.8326126 12.5163562,74.9557484 13.2815471,78.7872525 C13.9208685,82.132649 16.2021917,84.5027493 19.2810042,85.7626946 C21.1274843,86.291464 22.8794436,87.4433327 23.5634131,89.199103 C27.6734046,96.7085287 30.7182561,102.954691 37.1976794,108.072448 C38.8696047,109.389987 56.0177337,117.292376 61.6678745,117.292376 C78.2093036,117.292376 99.0574928,111.312613 99.4035148,92.8732325 C99.4633622,88.8232051 98.7511315,84.7260128 98.3044139,80.7079818 C97.2169884,71.5385244 97.6006368,62.0370043 95.4864707,53.1425095 Z" id="ðŸŽ¨-Background" fill="#FFFFFF"></path>
                        <path d="M95.1142663,48.6195023 C95.1194911,48.5076335 95.2800339,48.4825105 95.311145,48.5929572 C95.9260051,50.7698943 96.274402,52.9875971 96.7553181,55.1984266 C97.2184224,57.3279617 97.6556404,59.4636591 98.0194741,61.611918 C98.7060742,65.6663209 99.2846153,69.7312252 99.8227159,73.8068172 L99.9564377,74.825938 C100.891671,81.9971504 102.436302,89.4679435 101.0857,96.6811067 C99.9331637,102.83602 96.0689737,107.79664 91.0890585,111.433559 C86.3737065,114.877077 80.6566243,117.086959 74.9801527,118.343349 C68.8875997,119.692173 61.6660221,120.094616 56.7089059,115.635984 C54.7244444,113.850587 57.4296862,110.308235 59.5825276,111.919429 C64.6377245,115.701825 71.0685529,114.586776 76.7727476,113.081706 L76.9453774,113.035984 C81.9518914,111.705172 86.9916539,109.68798 90.9662765,106.28499 C95.3605428,102.522456 97.5333333,97.3006509 97.7843596,91.5735406 C97.9251993,88.3558501 97.6246023,85.1419062 97.3003608,81.9431844 L97.2642578,81.5878341 C96.892112,77.9298213 96.5016794,74.2734676 96.141408,70.6140328 C95.812691,67.2770896 95.5290738,63.920739 95.3791835,60.5688755 L95.3092374,58.8783064 C95.1635734,55.469847 94.9674669,52.0115795 95.1142663,48.6195023 Z M35.8268193,20.2987238 C44.0529771,16.024722 53.506955,14.4950593 62.6616964,15.9294439 C71.4625785,17.3083683 79.5395929,21.840474 85.5768109,28.339052 C88.5242918,31.5119052 91.140475,35.1820055 92.8124003,39.1915041 C93.6429008,41.1833364 94.2931467,43.2612033 94.6394063,45.3952416 C94.8175233,46.492361 94.992553,47.6290611 95.026039,48.7413491 C95.0569126,49.7711577 94.7538762,50.7369736 94.7897371,51.7838469 C94.7951993,51.9476208 94.543698,51.9791431 94.5054623,51.8222425 C94.219525,50.6549681 93.5305683,49.7723428 93.0983376,48.6636098 C92.7752728,47.8357338 92.4088208,47.0275004 92.0357442,46.2217362 L91.7151993,45.5312853 C90.7847159,43.5245214 89.672553,41.600237 88.5722646,39.6828259 C86.356726,35.8209845 83.5139779,32.31134 80.1853265,29.3498997 C74.34095,24.1503737 66.8431722,20.7940747 59.017659,20.1896992 C50.8952841,19.5620966 42.6567769,21.4942024 35.7201866,25.7741294 C28.7840712,30.0538195 23.5393554,36.706691 20.816302,44.366618 C19.4424258,48.2320146 18.6836472,52.259526 18.5071925,56.3545852 C18.4178965,58.4274749 18.5012553,60.5176664 18.6468363,62.5865269 L18.7191487,63.5730958 C18.8038828,64.7562152 18.8619604,65.9347779 18.6848346,67.0892434 C19.9359288,66.6998359 21.2473452,66.5384321 22.5635115,66.7311212 C24.5192366,67.0174294 25.6876845,67.8175752 26.5649703,69.561495 C26.6108058,69.6525068 26.5188974,69.7435187 26.4279389,69.6982498 C25.2906022,69.1317958 23.4505344,69.4299544 22.2459881,69.726928 C20.9925191,70.0359891 19.8634945,70.5735278 18.7983545,71.3002005 C16.827905,72.6438104 15.283274,74.7259435 14.9042409,77.1147675 C14.5377947,79.4222972 15.4870399,81.758742 17.0815437,83.412598 C17.902307,84.264412 18.8833757,85.0008022 19.9817642,85.4596536 C21.3147922,86.0168642 22.6342833,85.9995624 23.8136556,86.9193984 C24.5427481,87.4879854 24.366531,88.4609116 23.872078,89.0923063 C26.3602545,91.8150775 28.5667684,94.7938195 31.0547074,97.5272562 C32.2079559,98.7942591 33.3520098,100.06276 34.4570124,101.370546 L34.8694996,101.862881 C35.9728753,103.191796 37.7283969,104.595606 38.2325869,106.267001 C38.5463104,107.306764 37.4305852,108.666727 36.3027481,108.192944 C34.5727237,107.465959 33.3377197,105.574528 32.1686881,104.123832 L32.092536,104.029863 C30.8666158,102.526509 29.7782019,100.93949 28.7831213,99.2763902 L28.4559313,98.7285068 C26.6565637,95.7084433 24.8726684,92.5762589 23.7253096,89.2584503 C23.6495505,89.3361896 23.5692791,89.4070556 23.4847328,89.4670191 C21.8318066,90.6399818 19.4288889,89.7381586 17.7781001,88.9764084 C16.2196947,88.257557 14.7909584,87.1758432 13.6773707,85.872051 C11.2554538,83.0369371 10.1390161,79.3651778 10.947905,75.6855971 C11.6330619,72.5686782 13.7977778,69.5368459 16.6357761,67.9602552 C15.3257846,66.4552416 14.7833588,64.4264357 14.4223749,62.4428988 C13.9616455,59.9109207 13.8697371,57.3161349 13.994894,54.7486053 C14.2444953,49.6346399 15.563274,44.5936737 17.601883,39.9108295 C21.2492451,31.531814 27.6975573,24.5229535 35.8268193,20.2987238 Z M18.5135335,76.2119964 C20.2400814,75.8891887 21.8490721,75.8112124 23.5143478,76.5402552 C25.3206921,77.3316317 26.5919729,78.638031 27.7737201,80.1686418 C29.1183399,81.90967 25.6722243,83.8116777 24.8033252,81.5003941 L24.7777913,81.4290611 C24.5450517,80.7448131 24.1282578,80.0833181 23.6003189,79.4744394 C23.4419135,79.7166636 23.2300729,79.9299727 22.9811841,80.0520328 C22.67981,80.1999271 22.2195556,80.0975387 22.1471213,79.7133455 C22.0668499,79.2869644 22.1556709,78.7702826 22.4021849,78.4093163 L22.4359084,78.3600182 L22.4359084,78.3600182 C21.2380119,77.3979945 19.7971637,76.6952598 18.5135335,76.4691522 C18.3852892,76.4463993 18.3867142,76.2356974 18.5135335,76.2119964 Z" id="ðŸ–-Ink" fill="#000000"></path>
                    </g>
                    <g id="face/Smile" transform="translate(37.760814, 44.083865)" fill="#000000">
                        <path d="M34.8127554,57.1020091 C33.2162863,56.4520445 31.7918322,55.3678606 30.7504188,53.982886 C30.3883575,53.5014119 30.2944812,52.9929828 30.3704337,52.5279595 C30.455837,52.0050735 30.76581,51.5311704 31.1885437,51.2132909 C31.6125868,50.8944267 32.1430108,50.7371707 32.6558203,50.8173353 C33.1014216,50.8869936 33.5449965,51.1304783 33.8960529,51.6354567 L33.9693973,51.7364404 C34.5885356,52.5723634 35.3953297,53.2582283 36.3146153,53.7003078 C37.2006572,54.1264007 38.1916054,54.3252746 39.2170751,54.2096253 C41.1701484,53.9894475 42.5163047,52.9353366 43.947122,51.5038717 C44.124476,51.3231456 44.3019435,51.136754 44.4802714,50.9473621 C44.592889,50.7756793 44.7491739,50.6653386 44.9226927,50.6074447 C45.1153544,50.5431638 45.3332998,50.5468008 45.5329212,50.6163236 C45.7254569,50.6833787 45.8975743,50.8104452 46.0129836,50.9795623 C46.1226707,51.1402944 46.1848601,51.3388571 46.1646812,51.5672535 C46.033716,53.0507326 45.2565672,54.3746744 44.1526598,55.4142485 C42.9266296,56.5688282 41.301437,57.3675742 39.7713893,57.6477194 C38.0857258,57.9563102 36.3680798,57.7352226 34.8127554,57.1020091 L34.8127554,57.1020091 Z M40.5665861,34.2164632 C42.3599585,35.3043501 45.0925072,37.84109 43.1632513,40.538094 C40.8923326,42.9161315 37.6227224,40.1895491 36.0115152,38.956422 C34.5175283,38.0007416 32.8389503,40.45868 34.2250722,41.574598 C45.8676895,50.1769329 50.5925102,34.5009305 41.4736488,32.937375 C40.4696294,32.7650779 40.0967341,33.8799135 40.5665861,34.2164632 Z M19.7029042,24.2097211 C19.9010483,21.7551799 23.6468906,21.1977976 24.0195115,23.6266764 C24.3531841,25.8024284 23.9603766,27.801134 22.9783579,29.7600219 C22.0400373,31.6314531 19.6816447,30.7583423 19.5032902,29.0542402 C19.2642133,26.7699622 19.5796472,25.7365862 19.7029042,24.2097211 Z M48.21676,23.1230538 C48.7389992,22.4404649 49.493028,21.9745032 50.3964377,22.2378213 C53.2189992,23.0609572 52.3870738,27.0600273 51.395793,29.0065907 C50.8571671,30.0636554 49.1161323,30.3317138 48.3293299,29.4009754 C47.0468872,27.8831632 46.4327396,24.8520419 48.0631043,23.3569827 C48.1072774,23.2797174 48.1564377,23.2017411 48.21676,23.1230538 Z M22.9386022,13.4693984 L23.3844579,13.391518 C24.7637486,13.1534545 26.4787379,12.9247019 27.4544631,14.0313491 C27.9719525,14.618186 28.1500696,15.7089061 27.4544631,16.2706199 C26.2309177,17.2589517 24.8781781,16.8759435 23.4119186,16.959608 C22.2035725,17.0288149 21.0422494,17.2283774 19.8783138,17.5604284 C17.3248278,18.2887603 15.2441832,19.6183865 13.0633181,21.0783683 C12.7771433,21.2698724 12.4850314,20.9046399 12.6215878,20.6375296 C13.8805191,18.1766545 16.3202477,16.155196 18.7640136,14.9229809 C20.0683053,14.265278 21.4956166,13.7196809 22.9386022,13.4693984 Z M45.6437704,12.3670381 L45.985026,12.4367382 C49.6987038,13.2114312 54.5236407,14.7589441 56.2822463,18.3992889 C56.3492573,18.9140465 56.2784539,19.0243694 56.220878,19.0964481 L56.2017082,19.1204334 C56.1542656,19.1819844 56.11641,19.266832 55.8928405,19.3368914 C55.8308,19.3221394 55.7681419,19.3065151 55.7048201,19.2899543 C54.8987061,19.0791278 54.2609139,18.7886846 53.6434635,18.4873151 L52.9739907,18.1581557 C52.1972684,17.7780821 51.4136883,17.4118413 50.5832732,17.1414685 C48.8110962,16.5645992 46.9882598,16.1582307 45.137182,15.9412392 C44.7359752,15.8942481 44.3496381,15.7591142 44.044846,15.5275167 C43.7555371,15.3076842 43.5345237,15.003321 43.433754,14.598756 C43.3031565,14.0751843 43.3406874,13.6787976 43.6221743,13.2064592 C43.8338352,12.8517432 44.1366879,12.6058787 44.4844395,12.4646949 C44.8389572,12.3207642 45.2425721,12.2868326 45.6437704,12.3670381 Z" id="ðŸ–-Ink"></path>
                    </g>
                    <g id="facial-hair/*-None" transform="translate(29.211196, 80.109389)"></g>
                    <g id="accessories/*-None" transform="translate(11.162002, 57.119417)"></g>
                </g>
            </g>
        </g>
    </g>
</svg>