<?xml version="1.0" encoding="UTF-8"?>
<svg width="213px" height="733px" viewBox="0 0 213 733" version="1.1" xmlns="http://www.w3.org/2000/svg" xmlns:xlink="http://www.w3.org/1999/xlink">
    <!-- Generator: Sketch 62 (91390) - https://sketch.com -->
    <title>peep-standing-2</title>
    <desc>Created with Sketch.</desc>
    <g id="Introduction" stroke="none" stroke-width="1" fill="none" fill-rule="evenodd">
        <g id="variations-standing" transform="translate(-316.000000, -868.000000)">
            <g id="a-person/standing" transform="translate(269.000000, 854.000000)">
                <g id="pose/standing/shirt-2" transform="translate(-28.736217, 150.264357)">
                    <path d="M234.845996,367.564286 C234.095991,374.13035 231.679315,387.71169 230.492718,394.382953 C230.14785,396.321867 229.906305,397.680682 229.836786,398.126404 C223.122239,433.157368 220.373963,468.753581 219.099443,504.344358 C218.724812,508.975447 218.91067,513.594482 219.717518,518.170659 C219.758994,518.405902 219.802052,518.640692 219.846729,518.874894 C220.072322,518.828851 220.301219,518.786937 220.533499,518.749262 C229.976893,517.217585 236.337637,524.100163 242.484838,530.589529 C244.888165,533.126629 247.258314,535.625103 249.745017,537.618918 C255.714642,542.934956 262.176096,547.665153 268.94627,551.911666 C271.713951,553.537982 274.853796,555.460261 276.973505,558.009207 C278.416827,559.744799 279.379788,561.777189 279.354613,564.219159 L279.345975,565.056962 L280.175697,564.929187 C280.424262,564.890909 280.631052,564.904551 280.798709,564.984452 C280.976587,565.069223 281.099121,565.223474 281.197645,565.403789 C281.639197,566.211896 281.637602,567.495152 281.662238,568.467405 C281.668542,568.71622 281.674516,568.947947 281.685086,569.153279 C281.759762,572.070829 280.437864,573.996228 278.447891,575.31312 C275.349904,577.363256 270.728178,578.00887 266.98151,578.554547 C266.288285,578.65551 265.62367,578.752337 264.997597,578.852493 C241.951832,581.317837 218.61965,575.091953 197.296117,566.658441 C197.236223,566.634752 197.176329,566.611041 197.116209,566.587434 C197.058259,566.597694 196.999681,566.606735 196.940468,566.614529 C195.241445,566.838152 193.779842,565.934134 192.623896,564.626782 C191.026349,562.819986 189.986358,560.208361 189.737655,558.181613 C189.520486,557.20047 189.657344,556.287557 189.778299,555.383125 C189.939134,554.180496 190.074602,552.992034 189.699252,551.826788 C186.757763,545.151959 186.371309,537.892921 186.792317,530.7815 C186.67666,521.977616 188.702931,519.493786 190.351766,517.524987 C191.735894,515.872263 192.854017,514.530665 192.494395,510.777854 C192.44938,510.223892 192.273855,506.658183 192.350151,504.887348 L192.901977,504.80864 C192.02707,492.218439 188.853778,479.749397 185.678959,467.290336 C180.508093,446.998115 175.314567,426.729119 180.296673,405.987421 C181.869151,399.59307 184.979597,393.932189 188.100235,388.236321 C190.080413,384.622048 192.066543,380.994417 193.685947,377.165504 C193.715006,377.096797 193.743936,377.02805 193.772518,376.959069 C193.756879,376.891245 193.742398,376.823014 193.72913,376.754356 C193.422513,375.167772 193.801696,373.55243 194.162158,371.925417 C194.491486,370.438936 194.813895,368.942399 194.736922,367.447791 C194.709358,364.637082 194.15468,361.947242 193.571953,359.223149 C193.542127,359.083721 193.512271,358.944404 193.481864,358.805124 C193.345562,358.766763 193.209373,358.727919 193.073293,358.688607 C190.4064,357.91817 187.79998,356.97346 185.296795,355.738402 L184.626438,355.407652 L184.327835,356.091872 C184.233123,356.308895 184.094225,356.475171 183.927202,356.589267 C183.7432,356.714962 183.528074,356.77749 183.311999,356.786087 C183.076979,356.795438 182.839425,356.74152 182.633826,356.627697 C182.471831,356.538015 182.329729,356.410183 182.228507,356.244918 C181.942996,355.078872 182.261538,353.84752 182.54674,352.628016 C182.73494,351.82328 182.919356,351.021406 182.98065,350.239778 C183.073405,349.79251 183.152598,349.270566 183.23663,348.713288 C183.471104,347.158323 183.716048,345.280569 184.558427,344.163542 C184.797557,343.846447 185.090132,343.598749 185.466931,343.476215 C185.828234,343.358719 186.256854,343.356345 186.765685,343.473674 C187.065101,343.542715 187.321339,343.636844 187.537396,343.755013 C187.5704,343.455317 187.602798,343.15555 187.634589,342.855715 C188.9805,330.161937 189.237193,317.360227 188.489914,304.618657 C188.431989,303.630998 188.368031,302.643683 188.297597,301.657281 C187.89714,302.565137 187.504639,303.474319 187.121691,304.38508 C184.827649,309.840985 182.814305,315.501364 180.802063,321.15979 C177.985977,329.078623 175.172806,336.993973 171.582875,344.331834 C171.524591,344.450966 171.466061,344.570032 171.4076,344.689042 C171.477073,344.764425 171.533834,344.853928 171.580925,344.951736 C171.665935,345.1283 171.710082,345.312504 171.67542,345.496915 C171.641974,345.674862 171.537019,345.844151 171.370734,346.008096 C170.037794,347.297385 169.343635,349.022963 168.672105,350.75259 C168.638182,350.839964 168.60427,350.92731 168.570273,351.014561 C168.065261,352.605284 167.237222,354.047834 166.113003,355.153295 C165.114406,356.135231 163.88061,356.84969 162.444043,357.120507 C162.293319,357.148921 162.142889,357.171976 161.992901,357.189865 C161.955712,357.347012 161.918978,357.502562 161.882724,357.656478 C161.703816,358.416044 161.517638,359.21645 161.323216,360.052302 C159.047969,369.833972 155.645734,384.505026 149.512925,395.30313 C145.587848,402.214057 140.548446,407.558701 133.886153,408.812592 C133.401038,408.903894 132.916022,408.971869 132.431693,409.017532 C132.836313,409.221428 133.175057,409.49747 133.410031,409.881711 C134.176776,411.135527 133.411653,412.843228 132.832868,414.409086 C132.491125,415.333645 132.165506,416.231979 132.037213,417.027058 C131.414939,418.802784 130.894088,420.626316 130.373097,422.451898 C129.417855,425.799124 128.465509,429.15504 126.847416,432.219584 C126.786678,432.334616 126.725071,432.449109 126.662942,432.562856 C126.727905,432.639418 126.778221,432.720609 126.816506,432.815832 C126.881093,432.97647 126.893281,433.131871 126.875257,433.323313 C126.859145,433.494436 126.824692,433.632779 126.750903,433.764394 C126.907437,433.826833 127.061403,433.90364 127.211938,433.995837 C127.932885,434.437393 128.374088,435.108833 128.593065,435.874843 C128.858622,436.803797 128.80592,437.867491 128.521835,438.874896 C128.225645,439.925227 127.675667,440.91942 126.937453,441.641219 C126.318374,442.246532 125.564168,442.660717 124.714532,442.710274 C124.657229,442.713617 124.600164,442.715261 124.543393,442.715285 C124.497665,442.746378 124.451631,442.775085 124.405475,442.801126 C124.029805,443.013074 123.50664,443.127053 123.017046,443.135795 L122.848592,444.534361 C122.955091,444.652215 122.970851,444.713806 122.963306,444.777036 C122.242493,453.429854 120.181473,461.867099 118.131612,470.270811 C117.751076,471.830874 117.370827,473.389776 116.999303,474.948316 C116.276484,477.432161 115.742086,479.991117 115.208033,482.551974 C114.331395,486.755578 113.459234,490.965893 111.70958,494.84122 C111.666223,494.937251 111.622355,495.033016 111.57826,495.128801 C111.621261,495.220495 111.662394,495.313214 111.701571,495.406974 C112.574876,497.496972 112.396473,499.912394 111.962756,502.089079 C111.256709,502.894675 109.930562,502.826474 108.828578,502.859466 C108.405487,502.872133 107.998826,502.885047 107.633245,502.922883 C107.399736,502.947051 107.151915,502.984602 106.89478,503.028117 C106.932378,503.26184 106.967955,503.495889 107.001374,503.730283 C107.536077,507.480577 107.515616,511.300042 107.497779,515.105357 C107.487698,517.256028 107.477886,519.402311 107.564836,521.529655 C107.5751,521.780771 107.586729,522.032041 107.599886,522.283176 C107.82969,522.24849 108.068119,522.224125 108.315537,522.21065 C110.727021,522.079311 112.402333,523.069052 113.621522,524.619347 C115.505783,527.015333 116.356117,530.662943 117.10362,533.771648 C117.307236,534.618445 117.501978,535.427785 117.704049,536.166801 C119.240329,541.302826 121.206419,546.251185 123.172568,551.19724 C125.793299,557.789965 128.415421,564.378278 129.981387,571.373304 L130.220222,572.440159 L131.100615,571.789755 C131.179564,571.73143 131.272367,571.690276 131.375221,571.686383 C131.477191,571.682523 131.584112,571.715503 131.694434,571.779927 C134.841012,573.665775 134.875369,577.555124 135.007765,580.830858 C135.019446,581.11987 135.030984,581.405209 135.04407,581.685556 C135.013135,582.377126 135.063921,583.122526 135.117324,583.879256 C135.245317,585.692903 135.511364,587.675506 133.973731,588.835888 C123.110188,596.225057 108.420474,596.012594 95.8640903,594.072234 C90.8583868,593.161156 85.9716335,591.639361 81.331806,589.55646 C79.5779547,588.962582 78.2661362,588.334727 77.4637731,587.303492 C76.7823508,586.427696 76.5005093,585.264102 76.611071,583.648109 C76.3019334,580.710303 76.567056,577.913656 76.8277159,575.113463 C77.0536259,572.686577 77.2773805,570.256971 77.1570822,567.811466 C77.5252966,558.418296 79.6788112,549.133389 81.7957828,539.987513 C81.8806171,539.621006 81.9653999,539.254722 82.0500316,538.888717 C82.1737943,538.501526 82.2985728,538.105881 82.4253919,537.70376 C84.0560455,532.533241 85.9801955,526.197304 90.6634894,523.301353 C90.7932628,523.272068 91.002619,523.265727 91.2345494,523.246468 C91.8525514,523.195151 92.5826799,523.111602 93.016921,522.902465 C93.0286304,522.896826 93.0401871,522.891101 93.051592,522.885293 L92.7848886,523.7848 L94.1789453,523.188808 C94.5008519,523.051186 94.837611,522.947895 95.1828895,522.883311 C95.296774,522.86201 95.4113227,522.844968 95.5265928,522.831474 C95.5828202,522.71945 95.6383143,522.606958 95.6930536,522.493985 C97.5891389,518.580796 98.4699129,514.317149 99.3432173,510.053086 C99.8828334,507.418315 100.421122,504.784119 101.21264,502.23867 C101.280709,502.019765 101.350694,501.801377 101.422387,501.583378 C101.207902,501.517537 100.996256,501.444389 100.788321,501.36444 C98.5846973,500.517174 96.5854398,498.82442 95.9659934,496.535498 C96.1152776,495.8888 96.4241601,495.181653 96.8911194,494.652306 C97.2372007,494.259987 97.6755804,493.962044 98.2187134,493.927893 L99.1973464,493.866359 L98.8363401,492.956498 C98.4784421,492.054471 98.4270379,491.027328 98.5365522,490.059808 C100.381341,478.711967 102.838812,467.461303 105.486214,456.270387 C106.493713,452.108309 107.571713,447.960818 108.788777,443.854923 C108.967147,443.360508 109.108325,442.802883 109.251928,442.229738 C109.549456,441.04224 109.821043,439.742704 110.687614,438.995309 C110.89352,438.81772 111.125464,438.677819 111.375642,438.565835 C111.152728,438.365918 110.934743,438.160328 110.721895,437.950953 C108.871874,436.131107 107.302811,433.919815 107.258005,431.435683 C107.171256,430.391479 107.666297,429.315845 108.431003,428.647595 C108.682419,428.427892 108.964966,428.251835 109.269651,428.144369 L110.442179,428.864182 C110.722945,429.036545 110.991396,429.232967 111.260077,429.428631 C111.486476,429.593505 111.712905,429.758083 111.944861,429.911123 L114.747677,431.760378 L112.938092,428.935055 C111.514711,426.712716 112.220654,424.006547 112.7935,421.520175 C112.948167,420.848863 113.09963,420.19017 113.214698,419.55517 C113.365699,418.877757 113.514101,418.197387 113.662812,417.51559 C114.561926,413.393422 115.469155,409.217328 117.049435,405.334965 C117.113769,405.176913 117.179243,405.019287 117.24493,404.861142 C117.115121,404.752611 116.985622,404.642388 116.856438,404.530457 C110.703629,399.199388 108.295926,392.62021 107.984747,385.564311 C107.536247,375.394676 111.396166,364.247839 114.815013,354.323395 C115.684145,351.800423 116.526246,349.35568 117.265708,347.024671 C117.316392,346.864898 117.366991,346.704411 117.417309,346.54325 C117.278695,346.435562 117.140447,346.331878 117.002506,346.232855 C116.164839,345.631519 115.160331,345.074143 114.12406,344.501396 C111.55197,343.079801 108.630542,341.602013 108.242406,338.713182 C108.285355,337.160865 108.894681,335.66312 109.47757,334.190055 C109.714354,333.591658 109.949225,332.997283 110.150095,332.405753 C110.305645,331.710345 110.780751,330.807419 111.385615,330.398314 C111.516623,330.309706 111.654525,330.238075 111.802192,330.25441 C111.933391,330.268924 112.05425,330.35611 112.178714,330.487468 L113.015468,331.370579 L113.376781,330.209891 C113.561541,329.616367 113.747065,329.022301 113.932768,328.427659 C117.474649,317.086156 121.068203,305.535661 120.744647,293.556322 C120.739908,293.380843 120.734334,293.205501 120.727823,293.032172 C120.553122,292.975303 120.375423,292.925207 120.194285,292.883039 C118.961307,292.596013 117.708415,292.708819 116.471878,292.832802 C114.918074,292.988597 113.373368,293.202525 111.979228,292.161455 C99.2788896,282.465724 100.661048,257.752071 101.748496,243.325573 C101.762636,243.137987 101.776988,242.948674 101.791318,242.759212 C101.615176,242.710482 101.439355,242.656464 101.264091,242.597944 C100.674337,242.401027 100.110275,242.1596 99.5971732,241.855205 L99.1760911,241.6054 L98.7916181,241.908343 C98.6054471,241.916245 98.4963885,241.806042 98.3751831,241.677572 C97.8791357,241.151792 97.3885647,240.195896 96.9002774,239.023497 C95.1718545,234.873481 93.6253559,228.080729 93.1687573,226.079776 C93.1572874,226.029512 93.1465003,225.98224 93.1347179,225.930499 C83.8925509,184.127696 87.428431,141.023157 90.8922803,98.6682561 C91.1397952,95.6417198 91.3869978,92.6189977 91.62934,89.601263 C92.3750956,84.0222497 92.660776,78.3109665 92.9462215,72.5875932 C93.5302864,60.8767015 94.1018223,49.1105655 98.7314547,38.3497146 C101.823232,30.4888513 110.539004,28.663636 117.940911,27.0102082 C118.144089,26.9648225 118.346395,26.9196317 118.547698,26.8745275 C122.402678,25.7285091 126.278659,24.8439213 130.149654,23.9599585 C136.081826,22.6053149 142.001843,21.2506843 147.652468,19.0280503 C147.958382,18.907721 148.263135,18.7849941 148.566764,18.6598384 C148.349955,18.4383062 148.15011,18.2022371 147.969945,17.9518324 C146.977731,16.5727972 146.589102,14.7683164 146.691097,12.9779213 C146.796897,11.1207349 147.431856,9.26833985 148.520551,7.89587153 C148.947561,7.58265786 149.449434,7.54964765 149.958228,7.63255507 C150.955789,7.79510658 151.996423,8.38517641 152.84288,8.85098508 C152.926585,8.89704846 153.008506,8.9421287 153.08844,8.98580065 L153.723924,9.33299979 L154.061151,8.69308121 C155.392418,6.16687755 156.316238,3.38269595 157.219489,0.650108509 C157.741084,-0.927862217 158.256289,-2.48791884 158.845379,-3.96665538 C160.649255,-7.77226159 163.743823,-9.59693863 167.313982,-10.2993784 C172.694854,-11.3580817 179.130616,-9.92845749 184.108388,-8.68867832 C184.287004,-8.64308952 184.466742,-8.59757277 184.647336,-8.55183955 C187.158313,-7.91596682 189.851247,-7.25407142 191.938897,-5.68966018 C195.414529,-2.9190615 196.15289,1.38885993 196.938317,5.61504351 C197.335905,7.75436456 197.73493,9.8831824 198.435341,11.8255086 C198.513958,12.0435224 198.597001,12.2609323 198.684344,12.4775138 C198.882209,12.3883474 199.076034,12.3209005 199.264544,12.2778802 C202.017254,11.6496761 208.059114,15.2207109 210.141477,17.1229369 C210.685782,17.4828533 210.935024,17.8413825 211.064507,18.2451198 C211.280135,18.9174651 211.210872,19.6877024 211.161039,20.4479377 C211.138442,20.7926589 211.116262,21.1362775 211.112052,21.4717166 C211.10959,21.6679148 211.113203,21.8670642 211.119641,22.0676996 C211.30982,22.1049824 211.49951,22.1419696 211.688688,22.1786207 C212.914753,22.4161573 214.166036,22.6486286 215.432883,22.8839841 C224.499425,24.5683701 234.385838,26.379043 241.438854,31.3603369 C246.370414,34.8433215 249.885901,39.8985946 250.70788,47.5821753 C253.31424,58.6872651 254.697131,69.9069984 255.978468,81.1324705 C256.15045,82.6154068 256.320528,84.0995651 256.490688,85.5844354 C258.55413,103.590719 260.634138,121.700263 266.240987,139.010748 C266.79133,140.356086 267.325131,141.651241 267.859394,142.947516 C276.242914,163.28832 284.751126,183.903586 286.763601,206.021676 C287.855439,216.591546 287.689053,227.269972 285.876897,237.747561 C285.77115,238.312342 285.322881,238.708137 284.811515,238.91617 C284.250392,239.144444 283.577251,239.164884 283.073845,238.847916 L280.391152,237.158772 L282.092339,239.830598 C285.672873,245.454063 282.674057,255.343943 280.644848,262.327011 C280.344263,263.361406 280.061345,264.335137 279.817832,265.2266 C278.259532,270.383238 275.738622,275.998568 271.779191,278.97745 C270.280694,280.104845 268.57323,280.845158 266.629116,281.009937 C264.84341,281.16129 262.864264,280.828246 260.670996,279.892961 C260.396034,279.775708 260.130253,279.654339 259.872705,279.531319 C259.812973,279.822053 259.753137,280.112782 259.693197,280.403505 C255.385987,301.29477 250.579371,322.001814 244.873443,342.565305 L244.078366,345.430672 L246.086387,343.234303 C246.406964,342.883656 246.774046,342.677471 247.157341,342.601564 C247.586602,342.516553 248.029184,342.592102 248.43582,342.775434 C248.900452,342.984914 249.3199,343.335216 249.63257,343.774452 C249.918309,344.175856 250.115115,344.652955 250.17037,345.17062 C250.00624,347.97993 249.09741,350.680531 248.199303,353.375752 C247.720172,354.813626 247.242209,356.249839 246.869168,357.698144 C246.452164,359.192604 245.572241,360.110993 244.443711,360.690107 C242.71733,361.576012 240.460207,361.719312 238.331122,361.875714 C237.220021,361.957336 236.139637,362.037949 235.169817,362.203364 C235.024675,362.228119 234.87783,362.255487 234.729481,362.285234 C234.687449,362.425665 234.646023,362.566276 234.605305,362.707096 C234.318862,363.697733 234.067561,364.698226 233.816409,365.698739 C233.615423,366.499407 233.414503,367.300078 233.194896,368.095483 L234.563568,368.490726 C234.663874,368.160667 234.757848,367.85198 234.845996,367.564286 L234.845996,367.564286 Z M128.561847,243.142745 C128.609241,237.143007 130.751965,231.485656 132.875404,225.837231 C133.760302,223.483369 134.644125,221.131224 135.382569,218.75823 C135.426424,218.617305 135.469813,218.47615 135.512767,218.33478 C135.401449,218.223214 135.289079,218.116673 135.175484,218.015908 C134.633824,217.535427 133.964735,217.097957 133.282272,216.655471 C132.329753,216.03789 131.336401,215.417769 130.745449,214.579668 C130.381879,214.064045 130.193418,213.457747 130.319389,212.630585 C130.662348,206.447299 131.084972,200.266143 131.591059,194.094686 C131.709585,192.777032 131.829284,191.45943 131.949062,190.140964 C134.060523,166.898809 136.187534,143.390135 132.005589,120.262847 C131.821303,119.209786 131.606572,118.167509 131.391677,117.124964 C131.247258,116.424329 131.10279,115.723567 130.968007,115.020486 C130.94853,114.917167 130.926897,114.780019 130.901554,114.620405 C130.781009,113.861167 130.579739,112.652853 130.173117,111.771364 C129.80571,110.974884 129.267903,110.465373 128.6236,110.353343 C128.396261,110.313815 128.16463,110.325331 127.932994,110.384271 C127.89131,110.54884 127.849996,110.717384 127.808959,110.886047 C120.805311,139.671237 122.562867,169.036442 124.327566,198.345093 C125.139453,211.829146 125.951085,225.300862 125.900806,238.697649 C125.900312,238.829294 125.899734,238.960947 125.899074,239.092605 C125.982633,239.118363 126.062769,239.16198 126.134751,239.227102 C126.31661,239.39163 126.366674,239.621281 126.330285,239.835377 C126.286085,240.095425 126.122867,240.342815 125.872347,240.474711 C125.784886,240.520758 125.691789,240.550093 125.597438,240.564075 C125.569483,240.689864 125.540739,240.81551 125.511203,240.940974 C125.376408,241.513564 125.225148,242.082221 125.05648,242.647402 C125.015086,242.78611 124.972698,242.924421 124.929327,243.062348 C125.035604,243.163638 125.142002,243.264759 125.248505,243.365768 C125.963943,244.044299 126.684154,244.717828 127.411515,245.384222 L128.709174,246.57311 L128.604547,244.818208 C128.571067,244.256648 128.55746,243.698083 128.561847,243.142745 Z" id="ðŸŽ¨-Background" fill="#FFFFFF"></path>
                    <path d="M281.404109,246.596277 C278.744702,255.520416 276.304024,268.73491 269.532014,275.305302 C267.149282,277.226505 264.349045,276.053779 261.614117,275.819613 C263.376763,265.495931 264.592947,255.086924 265.57544,244.662275 C271.146941,243.59573 276.518952,241.656751 281.494355,238.940616 C282.786297,241.102148 281.978833,244.389477 281.404109,246.596277 M259.196475,273.089021 C256.629452,287.83697 253.129333,302.39934 249.74226,316.940853 C247.948502,325.805265 244.12706,334.946505 243.303684,343.694545 C226.018256,350.578738 207.316679,347.903132 189.438714,345.092904 C189.713964,344.861345 189.92438,344.50583 189.954066,344.071391 C190.398171,343.869933 190.76153,343.469149 190.828027,342.869513 C191.83427,329.72944 193.674575,315.436551 190.564414,302.722622 C192.619172,300.873706 194.456865,298.725211 196.169164,296.557991 C197.727094,294.505484 194.485364,291.791482 192.66382,293.284645 C195.185245,286.998665 197.787179,280.74563 200.51522,274.5445 C201.244312,272.882822 198.788672,271.434928 198.052455,273.107982 C187.892896,296.311974 179.322141,320.060616 170.460936,343.794089 C169.967671,342.816186 167.984634,342.933269 168.703515,344.322622 C150.549588,345.837116 131.600546,341.214472 114.897917,333.694855 C118.889401,320.901765 123.436373,307.869057 123.169673,294.33223 C127.079223,294.513542 132.361937,292.292521 134.43142,288.933378 C136.499953,290.537699 139.036339,288.568383 140.126416,286.698137 C142.645228,281.793451 141.251165,275.805867 139.79393,270.778173 C144.936288,271.585192 151.374863,266.826031 147.856458,261.508711 C142.420088,256.749076 136.215678,252.694782 130.885703,247.679176 C130.429961,238.274618 134.08136,229.497663 137.397662,220.67449 C154.154677,232.460525 170.583718,245.142458 188.179545,255.54625 C191.20516,255.853889 193.648689,253.569112 195.9198,251.900562 C202.400885,247.101108 208.941344,242.365411 215.327433,237.43584 C216.028027,237.693943 216.833116,237.630188 217.429215,237.231774 C221.507383,241.590862 225.817578,245.616478 229.852285,249.997371 C232.275864,252.232613 234.026399,255.722111 237.409198,256.579139 C238.990877,256.868292 239.997832,256.214144 241.011912,255.119158 C247.165737,248.620343 253.786466,242.585593 260.163057,236.310042 C260.983108,237.374691 262.564075,237.015384 263.352539,235.994819 C262.712031,248.415566 261.080003,260.797918 259.196475,273.089021 M247.799359,345.182968 C247.604617,345.348638 247.834982,345.206669 248.020224,345.483734 C248.207366,347.266523 247.158137,349.078465 246.806891,350.82831 C245.64058,353.402002 245.753388,359.354983 242.311216,359.446232 C223.297103,362.747781 204.08516,359.934946 185.479766,355.689623 C185.721768,351.922822 186.891165,348.040835 186.128112,344.310534 C186.439223,344.031099 186.769333,343.836514 187.137442,343.760908 C187.033897,344.288492 187.105143,344.935293 187.5103,345.197189 C203.429452,352.175001 226.49181,353.61697 243.013947,347.131191 C244.751657,347.679869 246.049774,345.445575 244.688248,344.21336 C244.918612,344.182549 245.139478,344.101965 245.327094,343.959996 C245.056356,345.137936 246.785279,346.047818 247.799359,345.182968 M194.862972,360.216514 C195.34745,360.3445 195.834304,360.463005 196.321157,360.579139 C195.947586,361.469586 196.486687,362.756077 196.340156,363.757444 C195.998171,362.515511 195.516068,361.316004 194.862972,360.216514 M166.45449,349.998775 C165.697374,352.166706 164.495203,354.577335 161.956441,354.92171 C161.362718,354.68233 160.678748,354.724992 160.232268,355.132412 C143.683532,354.909386 123.434948,349.930516 110.833998,339.056733 C110.68248,337.568784 111.391623,336.071829 111.539817,334.59099 C111.747858,334.004864 111.986297,330.310115 112.774762,330.995548 C112.173676,332.465247 111.654524,334.62109 113.947959,334.403515 C130.172997,343.744554 149.346229,347.302312 167.936424,346.718556 C167.345075,347.754527 166.898595,348.877954 166.45449,349.998775 M132.075525,411.747234 C130.652014,416.838447 129.128994,421.90501 127.501479,426.934837 C125.935712,434.394016 122.166517,435.395621 116.564855,430.508474 C112.511386,428.058975 114.220835,423.660306 114.834032,419.869331 C115.591386,415.209951 116.574592,410.583278 117.28231,405.916788 C121.747111,409.218337 127.368485,410.839249 132.892489,410.116605 C132.450758,410.542986 132.258392,411.093087 132.075525,411.747234 M124.613608,435.633105 C124.563735,435.618647 124.511488,435.602294 124.461615,435.585703 C124.518612,435.566742 124.573235,435.545411 124.627858,435.52645 C124.623108,435.562002 124.618358,435.597316 124.613608,435.633105 M121.694863,445.234381 C119.928655,460.916149 114.826195,475.981929 111.331301,491.330461 C110.936594,494.510662 108.501852,495.672011 105.566721,494.664718 C104.360512,494.352339 102.51522,493.90676 101.631759,492.96109 C100.624804,491.880088 101.308774,489.773305 101.532014,488.512175 C102.918952,480.714782 104.476882,472.950334 106.072811,465.190625 C107.973201,456.760653 109.517832,448.163114 111.594439,439.828182 C114.603905,442.375803 118.437221,444.166414 122.457204,444.241072 C122.067722,444.383515 121.742361,444.715092 121.694863,445.234381 M110.637357,501.279905 C110.399868,501.332284 110.162378,501.374946 109.922514,501.412868 C110.283498,500.270479 110.628807,498.68109 109.986636,497.61573 C110.13388,497.563825 110.276373,497.506706 110.414117,497.44295 C110.625483,498.729914 110.772726,499.964737 110.637357,501.279905 M108.590198,533.612813 C112.41734,536.091938 114.651403,540.265448 116.610215,544.247453 C117.868909,546.802658 118.894863,549.885922 120.820902,552.064281 C121.618867,554.209222 122.421581,556.351792 123.186297,558.508346 C125.474745,565.605138 128.330317,573.134235 128.05483,580.619012 C128.057204,580.612139 128.057204,580.602658 128.061954,580.590571 C128.036068,580.77852 127.972421,580.959358 127.92896,581.142804 C128.102327,581.02264 128.302768,580.906505 128.031081,581.104882 C128.006144,581.084263 127.92991,581.153469 127.926585,581.147781 C127.926585,581.152284 127.92421,581.157262 127.92421,581.161765 C127.940835,581.147781 127.957459,581.135931 127.978833,581.121473 C127.960784,581.134509 127.938222,581.157262 127.919461,581.173615 C127.919461,581.178593 127.917086,581.185703 127.914711,581.192576 C127.900461,581.205375 127.795254,581.282877 127.81734,581.254436 C127.567976,581.367964 127.363735,581.524627 127.173744,581.713998 C112.509486,584.887325 96.3198338,585.451646 82.7608516,578.182786 C77.5508092,567.600525 82.8955081,549.917681 85.0336251,538.521291 C91.8597829,534.637881 100.798171,529.709495 108.590198,533.612813 M114.494185,529.410862 C115.047535,531.847325 115.420394,534.30749 115.930996,536.743716 C114.431488,535.126596 113.659172,533.096605 112.350131,531.387289 C111.543854,529.699778 110.678918,527.272795 108.67332,526.960179 C108.61846,525.590735 108.580699,524.220343 108.5617,522.850425 C111.972047,523.272066 113.769842,526.20388 114.494185,529.410862 M133.07298,582.844773 C133.032607,582.176405 132.681123,581.512777 132.106399,581.147781 C132.238205,578.789531 131.834473,576.499541 131.465177,574.174946 C133.947654,576.821163 132.890589,581.060088 133.296458,584.377991 C133.264159,585.698137 133.905618,587.379723 132.367637,588.061127 C127.565601,591.374527 121.744736,592.920069 116.006992,593.58583 C103.489164,595.016897 90.4754572,592.719559 79.2911315,586.911628 C77.7944733,584.888273 78.3186124,579.968182 78.1179338,577.376952 C78.8256522,579.689222 80.0672468,581.746469 82.5235997,582.469823 C97.7393079,589.780871 115.646721,588.901327 131.652794,584.785885 C132.701547,584.504317 133.123328,583.688766 133.07298,582.844773 M92.9016489,531.681418 C92.9895199,531.574764 93.0726412,531.467872 93.1581374,531.358848 C93.6924885,531.332777 94.2268397,531.285612 94.7611908,531.226359 C93.9618015,531.544901 93.1749992,531.890935 92.4076709,532.278447 C92.5739135,532.081728 92.7401561,531.88264 92.9016489,531.681418 M99.3827345,519.537025 C100.687264,514.04408 101.156543,508.394235 101.819376,502.794636 C103.739003,503.474381 105.663142,503.942476 107.680614,503.99604 C105.208824,511.471099 105.336119,519.655056 105.403091,527.460033 C102.369639,527.974108 99.1027345,528.261364 96.1291298,527.249331 C97.6205632,524.86501 98.6916404,522.27212 99.3827345,519.537025 M119.847196,288.888109 C118.182395,288.722202 116.527094,288.838337 114.878918,289.075347 C105.123803,282.459212 103.585822,255.325356 102.05449,243.870662 C109.035254,245.650844 116.429011,245.171136 123.205296,242.827818 C123.333065,244.076387 124.761089,244.719632 125.630063,243.877535 C130.225245,252.041108 137.101276,258.578082 144.194609,264.421801 C144.111488,264.14924 144.052115,264.649331 144.156611,264.459486 C143.253201,266.526213 139.935712,265.454217 138.366619,266.894053 C137.359664,267.642768 137.148299,268.953433 137.78952,269.828 C136.092183,274.508948 138.790538,280.223971 136.250589,284.664591 C135.679902,285.325849 134.937272,285.801765 134.445669,286.544317 C131.065245,284.232521 127.98477,289.122038 124.56136,289.336295 C124.585109,289.336295 124.608858,289.336295 124.634982,289.333688 C124.107993,289.39223 123.262293,289.363314 122.799189,289.298374 C121.81717,289.146213 120.837764,288.986706 119.847196,288.888109 M126.135915,125.325356 C126.853133,120.658629 127.689096,116.020106 128.774422,111.426851 C130.082989,111.654381 130.375101,114.645685 130.541344,115.527125 C136.143481,140.825338 133.717764,166.859942 131.317696,192.394454 C130.736085,199.241437 130.256356,206.100744 129.881123,212.964554 C129.396645,216.121054 133.034032,217.192102 134.975271,218.920379 C132.275016,227.597553 127.615474,235.992448 128.16645,245.233469 C127.442107,244.569604 126.724889,243.898866 126.012421,243.223624 C126.192913,242.642713 126.347281,242.062038 126.4779,241.476624 C127.364685,241.01635 127.64611,239.74408 126.886382,239.073579 C127.178256,201.234928 120.063549,163.073469 126.135915,125.325356 M196.936254,51.6695132 C198.282819,49.2787931 201.848485,52.3838614 199.60801,54.1201969 C198.04913,55.3801422 195.888451,53.3110447 196.936254,51.6695132 M202.343888,76.8496955 C203.435389,74.8474348 206.980394,75.8412179 206.317086,78.2146363 C206.326585,78.112959 206.33371,78.0323756 206.340835,77.970516 C206.435118,79.9038067 202.680411,81.4723391 202.419885,79.0017466 C202.011403,78.3594494 201.914032,77.5178268 202.343888,76.8496955 M207.350165,104.048729 C210.052794,102.986924 211.048824,106.973196 208.758477,108.035475 C206.295474,108.908383 204.938935,104.92851 207.350165,104.048729 M210.504024,133.250972 C211.171369,130.995584 214.582192,131.591428 214.557968,133.90986 C214.471759,137.040288 209.828604,136.095329 210.504024,133.250972 M216.094524,161.57841 C217.042819,158.745192 220.686144,160.211573 220.38097,162.955438 C220.778528,164.540088 217.700665,167.738064 217.07773,165.147781 C216.246517,164.147599 215.85466,162.863005 216.094524,161.57841 M221.818019,194.250242 C221.825143,194.240762 221.832268,194.231282 221.839393,194.221801 C223.866365,195.173634 222.112031,199.50831 220.157968,197.916788 C218.26209,196.761601 219.574219,193.099322 221.818019,194.250242 M224.485025,220.774035 C226.849707,223.094126 223.193082,226.765885 220.860699,224.390571 C218.493642,222.07522 222.148129,218.402749 224.485025,220.774035 M281.952709,238.691756 C281.983583,238.760489 282.016831,238.829222 282.05483,238.893451 C281.993082,238.841072 281.931335,238.789167 281.869588,238.737025 C281.895712,238.722567 281.92421,238.708583 281.952709,238.691756 M193.314541,515.074126 C193.403837,516.791974 193.531606,518.524992 193.946263,520.188802 C195.17717,526.95212 203.882344,535.071136 211.0455,530.211956 C214.332353,527.903242 215.771539,523.43584 219.690114,521.987471 C223.796305,520.468237 228.29198,521.964007 231.74745,524.312777 C235.746772,527.031282 238.862633,530.904026 242.268231,534.286159 C249.51142,541.48202 257.543786,547.888638 266.14304,553.398647 C270.643464,556.187781 280.067281,560.369586 276.33656,566.898975 C273.481937,571.032667 266.298358,569.061929 265.062463,571.394582 C249.127874,572.049203 233.536221,567.699595 218.388672,563.246651 C210.699003,560.738374 202.652862,559.275785 195.197832,556.088711 C188.053439,549.843734 188.029452,536.102129 189.013371,527.2946 C189.334219,525.36913 190.130996,516.211063 193.136424,517.841929 C194.028909,517.93934 192.732692,516.954089 192.414456,517.07449 C192.83315,516.481254 193.176797,515.796295 193.314541,515.074126 M280.02192,566.46264 C280.124041,566.512412 280.230911,566.535876 280.340156,566.538246 C280.653642,567.339577 280.499274,570.603205 280.439902,571.164919 C279.474032,576.07553 271.725941,576.891081 267.618087,577.63316 C253.185381,579.903242 238.506161,578.316459 224.425652,574.696131 C217.552709,572.996769 210.717764,571.031956 204.046687,568.664463 C198.116339,566.863661 190.792879,563.874253 191.521496,556.370753 C194.834236,560.821564 205.385177,562.136022 210.693778,563.976879 C227.354134,569.027325 244.257204,574.460543 261.839732,574.634509 C264.503413,574.52027 268.184499,575.263059 270.182735,573.260088 C274.419545,572.655712 278.815474,570.314053 280.02192,566.46264 M283.854999,184.769841 C279.995796,169.592667 273.786161,155.147617 267.741344,140.747362 C261.208485,121.627526 259.293608,101.376441 256.959325,81.4237521 C255.675457,70.1667238 254.287332,58.9248642 251.689435,47.8797229 C249.481496,27.2901878 228.528757,25.0452288 212.097578,21.8538888 C212.120852,20.0957484 212.662327,18.0958578 210.895644,16.9714822 C209.273829,15.3273437 200.615203,10.2176445 198.905042,12.380598 C198.233422,10.750443 197.904974,8.9415825 197.586975,7.20169189 C197.373235,6.51507384 197.285126,4.14686964 196.53751,4.16559344 C196.377679,8.80103555 194.406755,15.5873437 198.361191,19.069021 C195.987722,22.6793947 194.008723,27.0538888 190.880275,29.9288204 C190.88265,29.9262133 190.885025,29.9238432 190.887399,29.9217101 C190.730656,30.0233874 190.571539,30.1158213 190.407671,30.203515 C190.445669,30.1727037 190.220054,30.2558943 190.034813,30.3151468 C189.609707,30.3959672 188.9065,30.2404886 188.472132,30.0447183 L188.476882,30.0447183 C177.704126,23.9345998 167.164584,17.390753 156.736424,10.6881094 C158.227145,8.48747129 160.156034,-2.29814403 158.306466,-3.79320328 C157.013099,0.461837739 155.666534,4.73109936 153.703684,8.73514676 C152.00326,7.80891158 149.251708,6.1432051 147.818697,8.32037922 C146.011403,11.3453382 145.495338,15.7316828 147.664329,18.73934 C138.342158,22.4054111 128.289469,23.6890574 118.664499,26.5540346 C114.470436,27.627216 110.029384,28.4259398 106.094185,30.2867056 C94.3676709,36.7798323 94.3581713,52.7775351 93.0719288,64.5602516 C89.7717761,121.913597 79.3039559,181.203552 95.6964241,237.466651 C96.326246,239.194454 97.2572044,240.853524 97.9815471,242.552649 C98.2689092,243.225758 99.014626,243.204427 99.506229,242.839431 C100.061954,243.169112 100.672302,243.431956 101.311148,243.645502 C100.238171,258.273524 98.7833113,284.996168 112.930792,293.718848 C115.404244,294.605502 117.73829,293.343424 120.30555,293.94851 C120.647535,306.47449 116.662463,318.504882 112.969503,330.372211 C110.253099,328.271592 109.211946,334.593123 108.390707,336.221145 C105.632031,342.053488 112.997052,344.662731 116.859579,347.183096 C111.101174,365.279522 99.1782561,390.340726 116.662463,405.44016 C114.807433,409.998574 113.855338,414.982658 112.789011,419.788747 C112.216424,422.926523 110.713354,426.779832 112.610894,429.691026 C112.097442,429.352339 111.612489,428.952977 111.088587,428.631829 C113.36896,428.597936 109.996373,426.936733 108.635559,428.177006 C104.835729,431.001218 107.650453,436.176332 110.494863,438.83037 C109.388163,439.655165 109.005805,441.935201 108.67807,443.018337 C107.33388,447.464645 106.155932,451.965466 105.065856,456.480507 C102.412862,467.694873 99.9508092,478.969677 98.1024292,490.342129 C97.9767973,491.45584 98.050419,492.588747 98.4470263,493.591537 C97.0166277,493.654108 96.157391,495.017389 95.7018863,496.208128 C95.0563902,498.874964 98.4790874,501.497954 100.805296,502.4012 C98.353693,510.5214 98.1335403,519.557881 92.9396472,526.607034 C92.3815471,526.066414 91.4268397,525.96924 90.949486,526.867508 C90.4281968,528.356879 87.2239898,532.405247 88.4249737,533.61779 C88.4653469,533.909076 88.6149652,534.195858 88.8382053,534.378593 C87.6911315,535.151245 86.5963053,535.972959 85.506229,536.834016 C86.9639389,532.669039 88.1739474,527.807964 91.3078575,524.599085 C92.1345581,524.127909 93.1913859,524.286706 93.8516064,523.502202 C94.3337099,522.928401 94.3574589,522.243679 93.8753554,521.681728 C93.6473656,521.414144 93.122514,521.698556 93.2626327,522.037243 C93.6616149,522.994764 91.2059746,522.826487 90.6407498,523.021072 C85.1271959,526.439942 83.1484343,534.210315 81.361564,540.101911 C79.2156098,550.450716 76.2116064,560.998611 76.8753893,571.643442 C76.1619712,575.366396 75.1348295,585.598356 77.2981204,588.412139 C88.7151858,595.201528 102.879766,597.195019 116.006992,595.887672 C121.858731,595.041783 137.222395,593.190261 136.124957,585.084755 C135.757086,580.507854 136.817001,574.395129 132.327501,571.539158 C131.811912,571.238155 131.315559,571.321345 130.949825,571.5913 C128.205398,559.33243 122.242514,548.313123 118.664499,536.352886 C117.164041,530.865156 116.078239,521.463679 108.549825,521.873943 C108.307824,515.960306 108.820326,509.89759 108.001225,504.041309 C108.001225,504.043442 108.001225,504.043442 107.99885,504.043442 C107.9941,504.029459 107.986975,504.015001 107.979851,504.003387 C109.526382,503.816149 112.126653,504.22831 112.945992,502.614746 C113.365398,500.34419 113.571064,497.677353 112.632268,495.506578 C115.453642,489.285539 116.045466,482.068583 117.962005,475.500562 C120.343549,465.505849 123.088926,455.504026 123.943888,445.234381 C123.989011,444.686888 123.694524,444.347727 123.302667,444.219741 C123.913489,444.208839 124.562073,444.056915 125.029215,443.793123 C129.244889,443.551136 131.650656,436.077025 127.857713,433.762859 C127.890962,433.440762 127.848214,433.158483 127.750843,432.923843 C130.315966,428.033141 131.202039,422.689039 133.004584,417.573178 C133.345143,415.296459 135.588468,411.931628 134.291301,409.884098 C153.760207,404.837207 158.405262,375.041728 162.849401,358.192448 C169.268027,356.941036 168.660054,350.842057 172.144261,346.886596 C172.755084,346.296678 172.783583,345.588255 172.496221,345.017061 C178.65717,332.424007 182.542022,318.137043 188.051776,305.033469 C188.79583,317.735785 188.544329,330.499249 187.199189,343.153925 C183.130283,342.212284 183.114372,347.82089 182.546772,350.513087 C182.252285,352.186614 181.957798,353.857535 181.663311,355.530589 C181.231081,357.99336 184.403939,358.697043 185.254151,356.749057 C187.795288,358.00284 190.440919,358.962731 193.148299,359.744627 C193.720648,362.427818 194.276373,365.07285 194.297747,367.84326 C194.467315,371.015165 192.709181,374.192521 193.302667,377.262275 C189.383142,386.592412 183.235729,394.596952 180.402243,404.31934 C171.037323,438.341181 190.14572,471.472102 192.464329,505.230862 C191.487298,500.974399 192.056797,511.370607 192.096458,512.230005 C192.201428,519.160416 186.1217,515.94893 186.354439,531.112594 C185.925059,538.330261 186.336628,545.721892 189.294083,552.417189 C189.949316,554.477043 188.825042,556.527891 189.303583,558.641309 C189.773099,562.470206 192.913184,568.2715 197.306738,567.692485 C222.375406,577.165302 251.417272,585.756204 277.78477,576.934928 C279.618188,576.023624 281.529978,574.845685 282.187824,572.800288 C282.749723,570.975074 283.50779,564.064809 280.340156,564.599504 C280.408078,558.313761 274.424058,554.516861 269.598511,551.682695 C262.852149,547.451355 256.413574,542.737225 250.466365,537.438392 C241.449605,530.215037 234.019036,516.262494 220.692319,518.420707 C218.956746,508.927508 220.774728,499.246122 220.760953,489.664281 C221.629215,447.407526 229.958205,405.980069 236.260936,364.349969 C236.316746,363.989714 235.822768,363.838027 235.701649,364.198046 C222.129367,403.265356 218.684821,445.181054 216.133947,486.215548 C215.29086,497.246943 216.242718,508.226669 218.507416,519.046177 C212.545245,520.682731 211.622599,529.949349 204.659647,529.057954 C200.96075,528.283406 197.647773,525.369367 196.162039,521.937699 C197.744193,519.37017 196.624906,515.78089 196.561496,512.862822 C196.316407,510.032923 196.029045,507.205156 195.694185,504.382366 C193.385788,471.957736 175.584058,440.588985 182.605194,407.803387 C185.961394,391.677699 201.890758,378.150352 196.872132,360.709495 C211.175881,363.992795 226.081903,364.644098 240.629554,362.71223 C245.909656,362.548456 247.596543,360.322932 248.703956,355.411847 C249.501208,352.139923 251.131098,348.92583 251.157696,345.529003 C250.922344,342.888474 247.737612,341.044773 245.832947,343.128091 C251.542667,322.551829 256.355152,301.82151 260.664159,280.919832 C274.583888,286.879449 280.066806,269.7313 282.626941,259.404062 C283.861411,253.219048 286.518205,245.607471 282.966789,239.822531 C293.35315,243.954563 286.448146,190.382713 283.854999,184.769841" id="ðŸ–-Ink" fill="#000000"></path>
                </g>
                <g id="Head" stroke-width="1" transform="translate(95.945717, 42.661805)">
                    <g id="head/Long-Afro">
                        <path d="M97.0176489,65.1645798 C95.3875216,45.3327657 90.4239932,27.7679526 67.1013469,27.0190009 C56.5762918,27.1128569 45.8325089,29.3443063 36.153866,33.473021 C12.6291162,45.244361 5.16506192,88.2571778 25.8909992,105.571708 C25.7677422,105.641626 25.738056,105.843796 25.883637,105.941444 C30.1655708,108.816376 34.9250958,111.181736 39.691983,113.169302 C52.3895912,118.526676 67.3374114,120.853641 80.2869958,115.042392 C100.049201,106.650341 100.345588,83.298928 97.0176489,65.1645798 L97.0176489,65.1645798 Z" id="ðŸŽ¨-Background" fill="#FFFFFF"></path>
                        <path d="M135.91656,55.9209754 C136.728774,55.1909845 137.334372,54.233464 137.640733,53.1598086 C137.92097,52.1809572 137.939969,51.1120419 137.643108,50.1355606 C137.324872,49.0879763 136.638528,48.253701 136.792896,47.1634549 C136.80952,47.0568004 136.830894,46.9454057 136.864142,46.8340109 C137.457866,44.7815041 138.918426,43.3001914 138.395949,41.0248952 C138.248706,40.382598 137.970843,39.8042935 137.583735,39.3492343 C137.626483,38.8562534 137.664482,38.3585324 137.695355,37.8608113 C138.552692,35.8580766 138.521818,33.4784959 137.607484,31.5065725 C137.495864,30.4969098 137.327247,29.4967274 137.089757,28.5131358 C137.199003,27.643309 137.047009,26.6857885 136.766772,25.9249863 C136.274456,24.5863537 135.666008,23.2671559 135.005788,21.969763 C135.083447,21.614959 135.048536,21.2400091 134.85237,20.906536 C134.495661,20.3005014 134.024244,19.7677028 133.542378,19.2469918 C133.201581,18.6395351 132.858409,18.0370556 132.518087,17.4423974 C132.360394,17.1691249 132.186314,16.8659891 131.994422,16.5448405 C132.517374,15.5764175 132.796662,14.6326436 132.243549,13.4938104 C132.035746,13.0660073 131.464346,12.7505469 130.99388,12.7785141 C130.479715,12.8090884 129.960801,12.8320784 129.439036,12.8517502 C128.463905,11.6766545 127.358867,10.6217229 126.174745,10.0145032 C124.975423,9.00010027 123.759478,8.00465816 122.57678,6.98788514 C122.24192,6.69873291 121.904685,6.40958067 121.569825,6.12042844 C121.56745,6.11331814 121.565075,6.10383774 121.562701,6.09672744 C121.315712,5.19845943 121.037849,4.31204193 120.759986,3.42088423 C120.586619,2.86865087 120.534372,2.2903464 119.995271,1.98934366 C118.869571,1.36126709 117.138273,1.26172288 115.846331,1.15506837 C115.718087,1.04130356 115.589842,0.929908842 115.461598,0.816144029 C116.048197,-0.743381951 115.943701,-2.40008204 115.205109,-3.96197812 C114.953371,-4.49288058 114.07941,-4.73226071 113.599681,-4.38148587 C112.49298,-3.57091158 111.179664,-3.28412944 109.880597,-3.40263446 C107.971182,-4.86735643 100.269401,-11.4908387 99.0793418,-12.1900182 C99.0646175,-12.2151413 99.052743,-12.2402644 99.0370687,-12.2651504 C98.3680611,-13.3312215 97.5556098,-14.1873017 96.6422256,-14.8736828 C96.5118439,-15.0094895 96.3814623,-15.1455333 96.2510806,-15.281577 C96.365788,-16.0942844 96.667637,-16.8790246 97.1535403,-17.5355424 C97.205788,-17.6113856 97.2651603,-17.6848587 97.3245327,-17.7559617 C98.1747447,-18.7656244 97.136916,-20.0644394 95.949469,-19.535907 C95.8639729,-19.4979854 95.7784767,-19.4600638 95.6929805,-19.4197721 C94.7800712,-19.0135369 93.7700288,-18.5719872 92.7181883,-18.1994075 C92.333218,-18.3432726 91.9408855,-18.4736281 91.582989,-18.6172562 L87.7508601,-20.1547402 C87.1200882,-20.4078669 86.453218,-20.622361 85.8431077,-20.9198086 C85.6303172,-22.3321513 84.2120305,-23.2583865 82.7391213,-23.2100365 C82.8241425,-23.4811759 82.9509618,-23.7444941 83.1297913,-23.9940656 C83.182039,-24.0675387 83.2390365,-24.1386418 83.2984088,-24.2073747 C84.056,-25.0866819 83.0442952,-26.7173108 81.9613435,-25.9351778 C81.8853469,-25.8806655 81.8069754,-25.8261531 81.7309788,-25.7716408 C81.4300797,-25.5609389 81.122056,-25.3632726 80.8107074,-25.1717685 C80.3122171,-25.3888696 79.7507922,-25.4384047 79.1632434,-25.208742 C77.8622765,-24.7003555 76.662955,-24.1834366 75.5175437,-23.3866089 C75.4709958,-23.3541386 75.4227854,-23.3268824 75.3757625,-23.2963081 C74.8072129,-23.9817411 73.9045157,-24.4401185 73.0915895,-24.4351413 C73.0749652,-24.4351413 73.0621408,-24.4353783 73.0474165,-24.4356153 C72.4396811,-25.3597174 71.3256183,-25.8967821 70.2497913,-25.7661896 C70.3224631,-27.0922607 68.992285,-28.2756518 67.7813265,-28.4195169 C66.3663647,-28.58732 65.0910466,-27.7675023 64.6664156,-26.39 C64.5481459,-26.0065178 64.4301137,-25.6227985 64.3118439,-25.2390793 C63.213218,-25.7924977 62.0537947,-26.2165087 60.8425988,-26.4281586 C58.0846344,-26.910237 55.3879423,-26.3968733 52.7301985,-25.632753 C52.4646853,-25.5564357 52.1994097,-25.4779854 51.934134,-25.3997721 C51.5551009,-25.8380036 51.1995793,-26.2866636 50.859732,-26.7054603 C50.2731332,-27.4283409 48.864821,-26.8500365 48.9598168,-25.9209572 C49.0258388,-25.279845 48.764838,-24.8186235 48.3447193,-24.4908387 C47.8832774,-24.4235278 47.4372723,-24.4031449 46.7647023,-24.4166545 C45.8757795,-24.4346673 45.471335,-24.4623974 44.5418015,-24.8240747 C44.1086209,-24.9923519 43.5692824,-25.4348496 43.3168312,-25.8320784 C42.3490619,-27.3553418 39.8908092,-27.7656062 38.7199864,-26.3132088 C37.4878914,-26.8514585 35.9323359,-26.1091431 35.2483664,-25.0625068 C34.8904699,-24.5152507 34.1438032,-24.2092707 33.2038202,-23.9461896 C32.4982392,-23.7489973 31.7767464,-23.5996809 31.0519288,-23.4690884 C30.7289432,-23.9063719 30.0487735,-24.1995533 29.5498083,-23.8328988 C29.2118609,-23.5838013 28.8836506,-23.3280675 28.5599525,-23.0659344 C26.0639389,-22.7227438 23.5809873,-22.7104193 21.201106,-23.6816864 C19.186246,-24.5041112 17.3362036,-22.2579672 17.6686887,-20.3723154 C17.0851773,-20.0691796 16.4520305,-19.867484 15.8756438,-19.5498906 C14.6181374,-18.8563993 13.5855335,-17.7602279 12.9561866,-16.4723154 C12.8433791,-16.2417046 12.7414962,-16.0075387 12.644363,-15.7721878 C12.1743715,-15.3903646 11.7096047,-14.99835 11.256,-14.5847675 C10.5007837,-14.9710939 9.74794232,-15.3574202 8.99272604,-15.7437466 C8.42750127,-16.0328988 7.47516879,-15.8314403 7.36354877,-15.0824886 C7.18068193,-13.8500365 6.73657676,-12.8285232 6.10248007,-11.972917 C4.04107209,-10.8921513 2.05803562,-9.67865998 0.160495335,-8.33007293 C-2.02203223,-7.64748405 -4.34230365,-7.2493072 -6.24934351,-6.80135825 C-6.90243936,-6.64730173 -7.25867345,-5.79643573 -6.89056489,-5.22998177 C-6.50108227,-4.6303464 -6.11159966,-4.03071103 -5.72449194,-3.43107566 C-6.80981849,-2.37401094 -7.82864801,-1.26954421 -8.79048007,-0.12715588 C-11.4669856,3.04877849 -13.7065106,6.53045579 -15.7109211,10.2183318 C-16.5041357,10.5382954 -17.2973503,10.8558888 -18.0905649,11.1758523 C-18.8552807,11.4839654 -19.1996404,12.3703829 -18.579793,13.0221604 C-18.2853062,13.3326436 -18.021693,13.6597174 -17.796078,14.003382 C-18.9194029,15.8591705 -20.2422188,17.5514221 -22.0922612,18.660629 C-22.6551111,18.9971832 -23.0778422,19.5257156 -23.3034572,20.125351 C-23.4958236,20.2533364 -23.6858151,20.3908022 -23.8734317,20.5306381 C-24.3959084,20.9240747 -24.7117693,21.782051 -24.0990466,22.2916226 C-23.6691908,22.6518778 -23.2654589,23.0784959 -22.9234741,23.5501459 C-22.8498524,23.8179672 -22.7738558,24.0881586 -22.6978592,24.3559799 C-24.4172824,25.9344667 -25.8469686,27.7689243 -26.9204207,29.8261714 C-27.1745344,29.7858797 -27.4357727,29.8119508 -27.6471383,29.9683774 C-29.5660526,31.3833273 -29.62305,33.6372926 -28.8512095,35.6518778 C-29.3166887,38.6879763 -29.0174521,41.799918 -28.1197422,44.7412124 C-29.3000645,45.9167821 -30.0101578,47.6137739 -30.2998948,49.2491431 C-30.810497,52.1217046 -30.8461204,56.5395716 -30.9791145,59.4713856 C-32.266307,60.710948 -33.1830161,62.3155059 -33.6936183,64.0409389 C-34.1234741,64.2542479 -34.5533299,64.467557 -34.9831858,64.680866 C-35.3655437,64.870474 -35.6457812,65.3705652 -35.623436,65.792443 C-35.5127871,67.8330994 -34.6696997,69.4447675 -33.5511247,70.9047493 C-33.1545174,72.0305469 -32.5679186,73.0686509 -31.7984529,74.064093 C-31.2664767,74.7466819 -30.7463749,75.4008295 -30.2880204,76.1379307 C-30.2405225,76.2114038 -30.2120237,76.2801367 -30.1906497,76.3275387 C-30.3711416,76.521887 -30.52076,76.8442206 -30.6513791,77.0741203 C-31.7485802,79.003382 -31.7652044,81.2644576 -30.207274,82.9448587 C-30.7938728,83.423619 -30.8128719,84.3906199 -30.295145,84.9831449 C-26.9251705,88.8250775 -24.1156709,93.4965451 -19.4395047,95.5372015 C-19.4181306,95.572753 -19.3991315,95.6083045 -19.3825072,95.643856 C-20.3300899,97.9191522 -20.4583342,99.1018323 -19.6841187,101.452972 C-19.679369,101.474303 -19.6722443,101.493263 -19.6651196,101.514594 C-19.251888,102.747046 -18.491922,104.72134 -17.1216081,105.105296 C-16.6893774,105.226171 -16.2642714,105.280684 -15.8439152,105.278314 C-14.7562137,106.323528 -13.6708872,107.371112 -12.5855606,108.418696 C-12.4905649,108.937748 -12.4311925,109.461541 -12.4121934,109.990073 C-12.3813198,110.87412 -11.547732,111.589891 -10.6500221,111.32918 C-10.3341612,111.236746 -8.58623919,109.542124 -8.2656285,109.551604 C-8.10413571,109.712771 -7.94739271,109.873938 -7.7906497,110.037475 C-7.21355047,110.641851 -6.4132112,111.594631 -6.34671416,112.227448 C-6.21846989,113.419608 -5.43475488,114.784786 -4.16893639,115.026536 C-3.69395759,115.507666 -2.93399152,115.652242 -2.35214249,115.024166 C-2.31414419,114.983874 -2.27614589,114.943582 -2.23577269,114.908031 C-2.17402545,114.900921 -2.1146531,114.89381 -2.05290585,114.8867 C-1.77266836,115.720975 -1.49243087,116.555251 -1.20981849,117.387156 C-0.656468193,119.027265 1.45718745,120.08196 2.95812044,119.124439 C3.20035963,119.269015 3.43784902,119.423072 3.67533842,119.577129 C4.03632231,119.807028 4.40205598,120.041668 4.77728923,120.262088 C4.79866327,120.32371 4.82003732,120.385333 4.83903647,120.444585 C5.08127566,121.181686 6.0882307,121.577493 6.70807803,121.153245 C6.90044444,121.214868 7.09756064,121.26464 7.29705174,121.304932 C8.34437998,121.51113 9.39883291,121.454248 10.4105377,121.105843 C11.1348804,120.859353 11.8259746,120.387703 12.6049398,120.32371 C12.6536251,120.319681 12.7037354,120.322999 12.7531332,120.321577 C13.3886548,121.620866 14.8409025,122.740501 15.9853639,123.120902 C17.4843969,123.619335 19.0185785,123.441103 20.3836675,122.830802 C20.7520136,123.56577 21.2146429,124.261632 21.7672807,124.905114 C22.0736421,125.260629 22.6269924,125.184786 22.9428533,124.905114 C23.5427515,124.374448 24.1388499,123.841176 24.7339983,123.307192 C25.1648041,123.141522 25.5996472,122.942671 26.0532519,122.757803 C27.4720136,122.179499 29.0273316,121.939881 30.3394606,121.104184 C30.9623953,120.707429 31.5482816,120.201176 32.0308601,119.614576 C32.9399695,119.090784 33.7752197,118.438295 34.5275861,117.690529 C34.9028193,117.692899 35.2946768,117.605205 35.6746599,117.413227 C37.263464,116.607393 38.0994266,114.967284 38.1730483,113.289253 C39.4602409,110.267375 40.220207,107.044038 40.4291976,103.744859 C40.4956947,102.661723 40.5075691,101.569107 40.4244478,100.485971 C40.3674504,99.7227985 40.175084,99.213227 39.8853469,98.5235278 C39.7879763,98.2983683 39.7001052,98.0921696 39.6312332,97.8646399 C39.6478575,97.134649 39.6573571,96.4046582 39.6668567,95.6770374 C39.8639729,95.0631814 40.2154572,94.4919872 40.7046853,94.0108569 C41.4622765,93.2666454 41.809011,91.72134 41.1202918,90.8017411 C40.6714368,90.2068459 40.2249567,89.6119508 39.7761018,89.0170556 C39.9019712,86.4644576 40.5146938,82.4021057 39.1562545,81.9754877 C39.210877,81.5962716 39.3272468,81.2217958 39.3937439,80.8449499 C39.7119796,79.0341933 39.5219881,77.4154148 38.5577812,75.8321878 C38.3559152,75.5027438 38.1849228,75.2112215 38.0448041,74.9268095 C37.956933,74.4053874 37.8690619,73.8839654 37.7811908,73.3625433 C37.6458219,72.5590793 37.5128278,71.748505 37.3988329,70.9331905 C37.3394606,69.8950866 37.284838,68.8569827 37.2254656,67.8165087 C37.1708431,66.8589881 37.1090958,65.9014676 37.0449737,64.941577 C37.0710975,64.5125889 37.1090958,64.0836007 37.1637184,63.6546126 C37.4890789,61.0972744 38.5364071,60.1516044 40.3508261,58.3740292 C40.6358134,58.3289973 40.9184258,58.2792252 41.1962884,58.2223428 C42.4906056,57.9545214 43.8442952,57.5397539 45.1766107,57.6890702 C46.6229211,57.850237 47.9172383,58.4735734 49.3231756,57.6772197 C49.7364071,57.4402097 50.6459915,56.786062 50.724363,56.26701 C50.7291128,56.2338286 50.7362375,56.2053874 50.7457371,56.1840565 C50.8431077,56.1698359 50.9689771,56.1579854 51.0473486,56.1556153 C52.1635488,56.1176937 53.2298762,56.5561623 54.3555759,56.4352871 C55.6878914,56.2930811 56.8800882,55.7029262 57.6638032,54.8283592 C58.6683834,55.0748496 59.6943376,55.1862443 60.736916,55.0487785 C61.610877,54.9350137 62.394592,54.6506016 63.1688075,54.2287238 C63.7316573,53.925351 63.5535403,53.8376572 64.1662629,54.0841477 C65.5603257,54.6482315 66.8213944,55.392443 68.3911993,55.0061167 C69.205788,54.8070283 69.9087566,54.3685597 70.5001052,53.7784047 C70.6402239,53.6409389 70.8777133,53.4347402 71.0368312,53.240392 C71.7825479,53.6172379 73.6587142,54.4681039 73.9674504,54.5439471 C74.8414114,54.7572562 75.76762,54.7240747 76.6178321,54.4396627 C77.2424292,54.2310939 78.007145,53.6622698 78.5557455,53.5461349 C79.2658388,53.3944485 80.8427684,54.3804102 81.6906056,54.7193345 C83.1772892,55.3142297 84.7518439,55.4611759 86.2575267,54.84732 C86.7752536,54.636381 87.7822087,53.7949954 88.1693164,53.8021057 C88.7986633,54.5771285 90.5560848,58.8172379 91.0833113,60.3649134 C93.218341,66.6219781 93.7716913,86.1587147 92.7861103,91.1430356 C92.748112,91.2899818 92.7077388,91.4345579 92.6673656,91.5815041 C91.4561696,95.9164175 90.1951009,100.324804 88.1693164,104.363455 C86.2575267,108.169836 83.6142697,111.597001 79.821564,113.675579 C75.8887396,115.83237 71.2719457,116.398824 66.8498931,116.107302 C64.0023953,115.922434 61.2023953,115.35124 58.4475182,114.635469 C57.0083325,114.263364 55.5810212,113.848596 54.1608346,113.417238 C53.5409873,113.23 52.9116404,113.054613 52.3036675,112.836563 C51.2302154,112.450237 50.6673656,112.419426 49.6390365,112.914777 C48.7033282,113.365096 48.463464,114.694722 48.9503172,115.531367 C49.7435318,116.896545 51.1969669,116.991349 52.6005293,117.389526 C54.0302154,117.794813 55.4646514,118.18351 56.9085869,118.531914 C59.6753384,119.195542 62.4872129,119.705114 65.3228363,119.939754 C70.4003596,120.364002 75.6322511,119.709854 80.2537947,117.498551 C80.7762714,117.24732 81.2797489,116.979499 81.7666022,116.690346 C81.5861103,116.941577 81.4032434,117.192808 81.2180017,117.441668 C80.7050246,118.131367 81.0850076,119.304567 81.8046005,119.681413 C82.0325903,119.799918 82.2605802,119.913683 82.4909449,120.025077 C82.5218185,120.098551 82.555067,120.172024 82.5930653,120.245497 C83.2509109,121.563273 84.6283494,122.340665 86.0319118,122.67722 C87.6990874,123.075397 89.565754,122.793355 91.2614283,122.743582 C92.8336081,122.69618 94.405788,122.648778 95.9755929,122.601376 C96.3460763,122.591896 96.7165598,122.580046 97.0870433,122.568195 C98.9537099,122.511313 100.818002,122.4568 102.682293,122.399918 C104.344719,122.350146 104.266348,122.478131 105.826653,121.814503 C106.522497,121.515871 107.092472,121.093993 107.5722,120.532279 C107.871437,120.399553 108.161174,120.247867 108.439036,120.07485 C109.331997,119.520246 110.125211,118.776035 110.856679,117.95598 C112.098748,118.347046 113.839545,117.984421 114.081785,116.427265 C114.471267,113.93629 117.715372,112.872115 119.230555,111.070839 C120.453625,109.617967 121.327586,107.714777 121.282463,105.887429 C124.365075,104.399006 126.041751,100.47649 126.433608,97.1488696 C126.616475,95.6059344 126.587976,93.9539745 126.851589,92.3849681 C126.967959,92.2593528 127.072455,92.1266272 127.160326,91.9844211 C127.934541,90.7353783 128.609011,89.4484139 129.202735,88.1306381 C130.010198,87.5499635 130.98153,87.1920784 131.997985,87.1328259 C134.496373,86.9882498 134.966602,83.6250775 132.584584,82.8145032 C132.572709,82.809763 132.563209,82.8073929 132.551335,82.8026527 C133.197306,81.1909845 133.142684,79.2830538 132.358969,77.7567092 C132.392217,77.5908022 132.423091,77.4272653 132.453964,77.2613582 C133.79103,75.8274476 134.55812,73.8341933 134.472624,71.8930811 C135.082972,71.464093 135.766941,71.1322789 136.515033,70.9260802 C137.671606,70.6084868 137.678731,69.2006472 136.823769,68.5702005 C136.47941,68.3165998 136.194422,68.0203373 135.956933,67.6932634 C136.548282,65.9204284 136.315542,63.8702917 135.106721,62.4150501 C135.873812,61.4338286 136.640902,60.4526071 137.407993,59.4713856 C137.916221,58.8219781 138.184584,57.7198815 137.407993,57.1036554 C136.91164,56.7078487 136.415288,56.314412 135.91656,55.9209754 Z" id="ðŸ–-Ink" fill="#000000"></path>
                    </g>
                    <g id="face/Loving-Grin-1" transform="translate(37.760814, 44.083865)" fill="#000000">
                        <path d="M22.866476,51.8743847 C22.8914843,49.2630082 25.1590331,48.8126892 27.3130619,49.1608569 C30.9597116,49.7495898 34.6198982,50.1638833 38.3159457,50.2385415 L38.9528923,50.2496809 L38.9528923,50.2496809 C39.0554877,50.1003646 39.226955,49.9870738 39.4596947,49.9621878 C41.5085157,49.7412944 43.6015098,49.777083 45.6614928,49.7164084 C47.4585751,49.6637922 49.3052926,49.4843756 51.1021374,49.6251595 L51.2451619,49.6377191 C53.4412687,49.8499167 55.7587638,50.9685122 55.4935539,53.5405652 C55.2496522,55.9222789 52.9683291,58.0307201 51.1465479,59.3541841 C50.7782019,59.6193984 50.4015437,59.8680219 50.013961,60.0946035 C49.8923664,60.249371 49.7149618,60.3572106 49.5100085,60.3792525 C47.7160136,61.3462534 45.7365394,61.9183956 43.6874809,62.1089517 C39.3433249,62.5123428 34.2931128,62.0757703 30.1206616,60.1969918 C28.7641221,59.586217 27.4987786,58.8235187 26.3802036,57.8868551 C24.6553181,56.4418049 22.8473113,54.2506472 22.866476,51.8743847 Z M39.9828838,57.0523428 C38.241374,56.9999635 36.5027142,57.2431358 34.8440882,57.7792525 C33.7200509,58.1411668 32.6955216,58.8372653 31.6185072,59.3210027 C35.2482952,60.7025342 39.4651569,61.0037739 43.1889907,60.7523063 C44.8226802,60.6418596 46.406497,60.2659617 47.8822561,59.6193984 C47.6523664,59.4537284 47.4196268,59.2852142 47.1759627,59.138505 C46.4397455,58.6936372 45.6698049,58.3151322 44.8668533,58.0138924 C43.3027481,57.4282407 41.6524343,57.104959 39.9828838,57.0523428 Z M40.5665861,34.2164632 C40.0967341,33.8799135 40.4696294,32.7650779 41.4736488,32.937375 C50.5925102,34.5009305 45.8676895,50.1769329 34.2250722,41.574598 C32.8389503,40.45868 34.5175283,38.0007416 36.0115152,38.956422 L36.5419723,39.3645657 C38.2666575,40.6838193 41.1194245,42.6783277 43.1632513,40.538094 C45.0925072,37.84109 42.3599585,35.3043501 40.5665861,34.2164632 Z M46.7399321,22.3522498 C48.6783762,20.7016842 51.1096425,21.9181015 52.5367241,23.5898714 L52.7882836,23.8887535 C53.0737269,24.2298053 53.3898728,24.627072 53.5798643,25.051794 C55.1613062,23.7079471 57.3058355,22.7622771 59.3579813,23.3761331 C61.3481425,23.9736354 62.4831043,25.8697156 62.1413571,27.9053947 C61.7535875,30.2203222 59.9984764,31.776257 58.1126958,32.9794037 L57.5779009,33.3183213 C55.3117288,34.7600607 53.1911733,36.2124669 51.3260899,38.194237 C51.021866,38.5163336 50.3642578,38.4736718 50.1647668,38.0449207 L50.0041645,37.6998637 L50.0041645,37.6998637 L49.8417812,37.3549845 C48.5187277,34.5395424 47.1011535,31.7425871 45.937218,28.8607821 C45.0751315,26.7250848 44.7951315,24.0065798 46.7399321,22.3522498 Z M24.6431972,23.8473831 L24.9385004,23.5066071 C26.358687,21.8570173 28.7644546,20.7525506 30.6622324,22.3523683 C32.6830297,24.0564704 32.2864224,26.8745196 31.3863376,29.0479015 C30.302436,31.6692325 29.0364803,34.232754 27.8201757,36.8039834 L27.5603834,37.355103 C27.4511383,37.5850027 27.344268,37.8149025 27.2376353,38.0448022 C27.0379067,38.4737903 26.3779237,38.5164521 26.0760746,38.1941185 C24.2689962,36.2743373 22.2244284,34.8538441 20.0406857,33.4577286 L19.381486,33.0391504 C17.4647091,31.8256591 15.652665,30.2590228 15.2584326,27.9055132 C14.9211976,25.8743373 16.0492723,23.9664066 18.0418083,23.3760146 C20.0984665,22.7671358 22.238246,23.7056955 23.8223003,25.0519125 C24.0111043,24.6164066 24.3361679,24.2062311 24.6431972,23.8473831 L24.6431972,23.8473831 Z M27.2417913,12.0129717 C27.9354979,12.9117138 27.1947684,14.3804649 26.1818762,14.6127347 C24.9274572,14.9007019 23.6602137,14.7255515 22.4285937,15.0827256 C21.3000441,15.4100365 20.2189924,16.0658432 19.251698,16.7195169 C18.1485598,17.4646764 17.1325802,18.2965816 16.1990093,19.2443847 C15.6437591,19.8082315 14.9441154,21.1440201 14.0877286,21.1689061 C13.2363291,21.1937922 14.3791281,18.5366727 14.4736489,18.306773 C15.1450314,16.6702188 16.0881018,15.1642571 17.2677116,13.8450593 C19.5953452,11.2419781 24.5249126,8.49526892 27.2417913,12.0129717 Z M53.2353945,11.2936311 L53.8164512,11.4547183 C55.254212,11.8536062 56.789106,12.3437429 58.022626,13.2038523 L58.1194891,13.2723086 L58.2688009,13.3813122 C59.8174154,14.533477 62.0077029,16.8324514 60.910972,18.8380547 C60.8352129,18.9762315 60.6746701,18.9899781 60.5454758,18.9335697 C59.086341,18.2957758 58.0045768,17.0220839 56.4525835,16.4892853 L56.1662783,16.3919787 C54.6632071,15.8867116 52.8036741,15.3554653 51.1857812,15.4037794 C50.0482673,15.7727777 48.5119162,15.4671414 48.2157931,14.0852167 L48.2024394,14.0175077 L48.1767905,13.8743537 C48.0062731,12.9301057 48.2599118,11.7263318 49.2381306,11.2712726 C50.5784614,10.6478769 51.8860632,10.9252527 53.2353945,11.2936311 Z" id="ðŸ–-Ink"></path>
                    </g>
                    <g id="facial-hair/*-None" transform="translate(29.211196, 80.109389)"></g>
                    <g id="accessories/Glasses-5" transform="translate(11.162002, 57.119417)" fill="#000000">
                        <path d="M87.1798643,17.6412015 C86.5082443,19.4652306 85.4860899,21.364155 84.2361832,22.8992689 C79.179084,27.1730337 74.2651908,24.8067256 71.7701272,19.0144376 C70.8220696,14.9210374 73.3392197,10.5117028 76.0064631,7.50049043 C79.8585411,3.64741841 86.145123,5.66958797 87.9163189,10.2500438 C88.0239016,10.8435169 88.0889737,11.4355679 88.1200848,12.0257229 C88.083274,13.943371 87.8517218,15.5822954 87.1798643,17.4041914 M38.5705344,13.9625688 C45.2325869,6.05425524 57.6960305,5.63142935 57.3780322,17.8030793 C55.9469211,33.2096791 31.8486344,29.4281841 38.5705344,13.9625688 Z M89.2752332,7.36539471 C89.0417812,6.97077302 88.7826802,6.58894986 88.4998304,6.22371741 C88.395335,6.16162078 88.3352502,5.61080948 87.9509924,5.57004376 C82.8148092,-0.0847784868 73.7918745,3.12362625 70.53162,8.75830264 C69.9362341,9.47075479 69.4505683,10.3047931 69.0924343,11.1859964 C65.8801527,10.5979745 62.1351824,10.7122133 59.1475657,11.9230975 C56.185123,4.20320693 47.2163359,3.51398177 41.3059372,6.81245032 C37.6298388,8.61680766 35.2461578,12.3954585 31.6709924,14.4711923 C23.2664801,15.0748569 14.2463953,13.1956044 5.99363868,15.2995424 C-0.514995759,16.6500255 4.92588634,19.9390137 6.01738762,17.7440638 C13.7982528,15.4498067 23.0164037,17.3885488 31.0950806,16.8716299 C31.9350806,18.2896609 33.5459712,19.450062 35.1513995,19.4005269 C36.8853096,34.7400529 59.3005089,32.1964613 60.0737744,18.5605634 C60.9508227,17.1766618 62.0416115,15.8522498 63.6028668,14.9900073 C64.2006277,14.8665251 64.7779644,14.7060693 65.3056658,14.4576828 C66.2076506,14.3306454 67.5974385,14.7122315 68.4272265,15.4616572 C71.2697371,32.4827694 87.6458185,30.5004175 90.5724003,15.5891686 C90.6305852,15.5299161 90.7932655,15.3076007 90.9181849,14.9509006 C91.9199152,13.6290957 94.3722307,13.1377739 93.9803732,10.9063245 C93.6315013,8.67440109 90.8072774,8.70094622 89.2752332,7.36539471 Z" id="ðŸ–-Ink"></path>
                    </g>
                </g>
            </g>
        </g>
    </g>
</svg>