<?xml version="1.0" encoding="UTF-8"?>
<svg width="249px" height="672px" viewBox="0 0 249 672" version="1.1" xmlns="http://www.w3.org/2000/svg" xmlns:xlink="http://www.w3.org/1999/xlink">
    <!-- Generator: Sketch 62 (91390) - https://sketch.com -->
    <title>peep-standing-9</title>
    <desc>Created with Sketch.</desc>
    <g id="Introduction" stroke="none" stroke-width="1" fill="none" fill-rule="evenodd">
        <g id="variations-standing" transform="translate(-992.000000, -1708.000000)">
            <g id="a-person/standing" transform="translate(973.000000, 1658.000000)">
                <g id="pose/standing/blazer-3" transform="translate(-28.736217, 150.264357)">
                    <path d="M91.1530144,120.906139 C84.7913859,128.344935 85.3537608,130.413559 88.7432095,137.92417 C96.2314877,155.351043 106.968858,173.06612 119.157527,189.225701 C118.352913,152.971225 117.660869,116.519794 116.470809,79.9346892 C109.223345,94.0706782 101.505177,106.839356 91.1530144,120.906139 M89.952743,568.984024 C85.9484343,568.596749 57.7662799,569.637934 65.3084682,561.422693 C62.9803596,556.369402 69.4844818,552.106066 73.4923528,548.262237 C77.2423104,544.685519 80.937883,540.711098 84.788536,536.11334 C88.3743885,531.850478 92.4166955,526.811407 95.0300288,520.931189 C95.608553,520.009694 96.1961018,519.364315 96.7779508,519.011881 L97.1135233,518.808527 L97.322514,518.476476 C99.528078,514.957114 101.349147,511.320669 103.35332,507.735655 C98.4517761,505.965428 93.9983749,504.187141 88.4465852,501.730058 C96.2804105,455.60767 108.021174,410.671754 115.612522,364.413085 C120.233116,324.159302 122.713693,283.527014 133.287196,243.88282 L134.639936,243.986868 L135.393727,241.389001 C134.283226,241.360323 132.033489,241.285191 130.919664,241.241818 L131.180427,242.57097 C126.139953,241.987451 121.200648,240.551407 116.300529,239.333176 C113.799766,238.991407 111.29259,237.203167 112.192438,234.22324 C112.481937,229.89994 113.37656,225.682109 113.797628,221.359995 C112.202887,220.271407 110.557798,219.029001 108.982056,217.755309 C104.815067,219.719885 99.7786293,226.063222 95.2221578,224.44942 C84.5738456,210.159849 75.6373571,192.98231 67.5503681,179.259429 C48.0180526,147.52355 41.8186293,127.686047 61.9636675,94.5949444 C79.3804275,66.8730665 98.1677388,22.8121914 133.082955,15.8549991 C137.002955,15.1233491 141.110572,15.0925378 144.877866,13.3069043 C145.071182,10.746485 146.350775,9.27560073 147.287433,9.25474385 C149.562582,8.75536372 152.060733,7.95189973 154.282446,7.93151686 C155.065686,7.60444303 156.021818,7.8732124 156.774185,8.02086964 C159.013472,3.52739654 158.813269,-2.20919417 161.267009,-6.42157338 C161.356068,-9.61315041 162.329062,-13.1393856 172.167298,-13.7809717 C178.864261,-14.3398414 188.34935,-14.8783282 193.702599,-11.9526764 C197.448282,-8.93767183 197.486992,-2.18336007 197.017238,2.57580128 C196.501174,6.07098815 196.732014,10.1359471 199.469791,14.2409608 C207.272506,11.8327019 212.713625,16.9232033 217.59807,26.4199581 C238.045194,29.2031668 242.454185,30.7837867 250.387518,51.0334494 C254.170962,59.8149079 258.110198,69.1967129 261.059342,78.8100766 C265.009028,90.5624558 265.356,102.864224 269.195966,114.699557 C279.624601,140.78417 290.22969,157.617807 293.569265,187.985191 C295.199155,201.393085 294.262735,208.041927 292.713354,210.055801 C288.306025,208.781872 282.620292,207.806102 277.991861,207.263349 L282.944702,211.029912 C278.74779,230.055892 290.835763,284.314124 258.061038,280.146066 C257.769876,279.43788 258.304227,275.54262 258.445059,273.926686 C257.549011,273.989493 255.89181,274.048035 255.009537,273.937114 C253.446619,278.44623 251.099986,282.497916 249.618765,287.084534 C248.88611,289.879356 247.960377,292.692428 247.055304,295.410459 C226.415101,364.910095 222.327671,431.817552 231.53846,501.590933 L231.122141,501.741909 L230.953523,502.041727 L230.700597,502.136531 C230.050351,503.004461 229.12913,503.041672 227.659308,503.044042 C218.631148,503.361161 210.698765,503.768582 203.342531,503.973358 C204.123159,507.879284 203.623243,511.990696 203.279121,515.963459 C207.56058,515.66293 211.488655,517.399976 215.402005,519.486376 C222.879596,523.156476 230.326789,527.011444 237.567128,531.225956 C244.75522,535.824899 256.379851,539.757606 250.608621,548.023331 L252.277221,548.678427 C252.333269,548.700469 252.36913,548.719903 252.390266,548.732939 C252.587383,549.4352 250.326958,552.34118 249.657238,552.309657 C233.849944,553.047469 220.368621,549.356986 200.148774,545.490168 C195.51963,543.811426 172.203159,540.955929 172.10555,536.547779 C172.179647,535.173832 173.599834,535.267214 174.59064,535.095145 C171.620122,520.097624 181.661649,518.88674 183.099172,505.277861 C181.111148,505.656603 178.961632,505.980833 176.925398,505.422438 C175.138528,476.380651 178.009299,446.651772 174.835016,417.32581 L171.607773,416.968873 C160.759732,448.879429 149.511522,481.529694 140.872845,514.675783 C140.708265,515.396057 139.901038,514.903787 139.53198,514.640469 C133.885669,514.506558 128.237696,513.903841 122.701106,512.953194 C122.568112,516.213504 122.428231,519.534015 122.290962,522.791006 L123.144261,523.24891 C123.694524,524.014926 123.462972,527.59994 123.363226,529.142875 C123.262768,530.720888 123.179647,531.862091 123.319291,532.932428 C125.099986,536.44231 119.011233,544.04891 115.790877,548.278591 C108.77449,557.357734 102.962412,570.803787 89.952743,568.984024" id="ðŸŽ¨-Background" fill="#FFFFFF"></path>
                    <path d="M159.609143,-6.32077302 C161.520458,-7.61437375 158.79883,3.61089517 158.79408,4.69094986 L158.746061,4.92607934 C158.269672,7.21250218 157.430819,9.87254208 155.500339,11.3388441 C156.390687,18.615763 157.498813,25.8694549 158.862952,33.0705305 L159.665293,33.1757929 C171.568435,34.7511144 183.549776,36.9172007 195.652197,35.7885615 C202.172706,35.8399927 206.48955,31.3844412 209.118321,25.8580784 C208.940204,25.2063008 208.762087,24.5571304 208.57922,23.9053528 C200.298439,18.8411595 194.028007,8.56393072 197.758965,-1.13712671 C197.918083,-1.55189426 198.412061,-1.58033546 198.666412,-1.36465634 C198.707498,-1.36086418 198.745259,-1.32720875 198.742171,-1.28193984 L198.609815,0.769940754 C198.356699,4.85078313 198.271905,9.06897012 200.482969,12.7398104 C209.492841,10.6880146 215.095454,18.189856 218.862511,25.2894913 L221.568768,25.6893356 C231.922077,27.2252258 241.907038,29.0435121 247.019491,39.6354713 L247.719796,41.1230703 C254.86341,56.3435625 261.520604,71.9944329 265.41732,88.3839307 C267.37922,97.1035296 268.089075,106.08858 270.966972,114.592737 C276.942443,130.384004 285.362867,145.224149 289.928601,161.572627 C292.761612,167.471333 300.734368,211.87445 292.868957,212.21219 C290.040458,211.366064 287.159712,210.681105 284.247854,210.194997 C284.696947,210.536529 284.860577,211.117203 284.775318,211.709728 C283.758863,218.827139 283.682629,226.036985 283.687379,233.214122 C284.22458,250.59549 283.742952,287.989984 257.530059,281.987942 C255.616607,281.284496 256.859152,278.220193 256.782443,276.079282 C256.632824,276.086392 256.480594,276.083785 256.328838,276.074304 C254.823868,280.129546 252.713774,283.872171 251.391433,287.993539 C250.270483,291.534706 249.486768,295.343457 247.924088,298.734833 C231.373927,357.511898 224.541832,419.332882 231.012468,480.168379 C231.375589,483.811223 231.784309,487.449564 232.240526,491.080558 C232.175929,493.406337 234.890433,502.769181 232.458779,503.494906 C232.364495,503.678589 232.038185,503.889291 231.843681,503.954943 C230.375047,505.537696 227.933181,504.950859 225.99408,505.161087 C219.142748,505.465407 212.292129,505.746975 205.437235,505.974031 C205.847617,508.878589 205.516081,511.826757 205.27313,514.727048 C210.272044,514.768288 214.866277,517.806994 219.287617,519.870166 C225.853961,523.105116 232.313673,526.563092 238.650365,530.229637 C244.500916,534.318534 257.572095,538.267121 253.074996,547.538479 C256.428346,548.897495 251.768329,554.580995 249.220543,554.644988 C232.635708,554.561324 216.156081,550.804241 199.948617,547.506246 C190.739729,545.075945 180.691315,544.152554 172.171858,539.961269 C169.753503,538.869127 170.260068,534.514541 172.920187,534.109728 C170.944987,519.592627 178.960492,519.79219 181.218066,507.697331 C179.9057,507.911825 178.456064,507.790713 177.140136,507.524077 C174.093147,510.338808 175.212672,488.186191 174.79849,486.022527 C174.715844,463.307249 175.794521,440.543858 173.371416,417.906082 L169.253437,430.014407 C159.653227,458.274237 150.196934,486.606697 142.670925,515.497331 C142.219695,517.241488 140.386277,517.450294 139.215691,516.689491 C134.273299,516.544915 129.350382,516.080376 124.474487,515.293265 C124.379729,517.604113 124.282358,519.914961 124.184987,522.225809 C126.287956,523.357057 124.863969,530.488926 125.13257,532.90074 C127.422205,538.112354 118.152519,548.262071 115.148516,552.539628 C109.739942,560.085413 104.367679,570.647066 93.907758,570.997826 L93.5892282,571.005316 C85.7810517,571.195635 77.9025785,570.739154 70.1701612,569.625681 L69.2291375,569.472119 C67.0241137,569.103707 64.5830391,568.565909 63.3138422,566.605936 C62.2263783,564.927905 62.3593723,562.761871 63.6795759,561.479646 C61.9359288,555.159774 68.7233757,551.332536 72.514419,547.484204 C79.5961154,540.659974 86.0327905,533.154341 91.599067,525.048835 L91.9187756,524.292122 C92.9505411,521.861003 94.1832683,519.161969 96.1040034,517.997787 C97.9355216,515.092518 99.5017642,512.035088 101.15564,509.03146 C96.6383545,507.37476 92.1904156,505.523949 87.7918745,503.575727 C86.916668,503.186166 86.6381531,502.049301 86.7911573,501.203574 L86.8022561,501.146374 C95.3891603,456.602709 105.684088,412.377112 113.691281,367.731296 C118.805615,326.585881 120.902171,284.916438 131.654029,244.675453 C126.437812,244.133885 121.246293,242.636693 116.127209,241.357076 C112.023155,240.484405 109.947973,238.402035 110.757337,234.059774 C111.035674,230.20054 111.809177,226.403639 112.227396,222.560047 C111.134707,221.796638 110.06838,220.993411 109.030551,220.168379 C107.106887,221.602527 105.121476,222.953247 103.081679,224.213903 C98.1969975,227.728051 94.4266158,228.275307 91.4090755,222.515015 C82.6694656,208.722691 74.2412044,194.728908 66.2872095,180.469437 C58.9091264,166.790166 49.7653096,153.139573 47.8924682,137.389783 C45.1720271,109.045991 78.4625785,63.6872489 95.1397964,40.6520073 C104.336573,29.5566199 115.537286,18.1372397 130.103223,14.9108222 C134.583698,14.2474312 139.307125,14.1571304 143.578372,12.5336117 C143.925344,10.4592999 144.900237,8.54947311 147.102714,8.04179763 C149.419423,7.52985597 151.903087,6.73919052 154.236896,6.68159708 C154.76436,6.5329918 155.386819,6.43913582 155.944207,6.54176117 C157.541323,2.39811486 157.7762,-2.27074567 159.609143,-6.32077302 Z M70.3767769,564.755125 C70.7759966,564.951843 71.1889907,565.12249 71.6119593,565.27394 C72.1320611,565.345043 72.649788,565.411406 73.1672774,565.470658 C72.2291942,565.259956 71.2982358,565.022946 70.3767769,564.755125 Z M122.206701,524.472901 C114.555742,527.247814 112.453249,514.22198 97.4056828,519.493083 C91.5249703,530.401232 83.9115352,540.308726 75.2094487,549.116966 C72.1163868,552.958188 62.961408,557.320357 67.8950127,562.953612 L68.6506506,563.091779 C77.2183734,564.648734 85.9152875,565.885805 94.6458185,565.181506 C101.243274,563.363402 106.191128,558.080211 110.189737,552.752937 C113.082595,547.629728 116.466819,542.807996 119.921578,538.053575 C121.821018,535.689637 122.013622,532.680795 122.004835,529.772208 C122.068719,528.004113 122.135454,526.238388 122.206701,524.472901 Z M208.151501,518.078133 C204.903121,516.888106 201.571145,518.007741 198.616302,519.467723 C193.56894,521.724058 182.636828,524.427869 177.966836,520.830057 C175.676964,524.614159 174.90916,528.820376 175.53732,533.185152 L175.542181,533.388292 C175.5912,535.181708 175.817263,536.635541 177.987973,536.761871 L184.074666,538.291734 C204.6084,543.442071 225.344071,548.421764 246.480153,549.854304 C252.121238,546.334943 252.279406,541.708744 246.283274,538.48683 L244.749271,537.547647 C232.976924,530.351522 220.929767,523.279061 208.151501,518.078133 Z M252.823494,548.007996 C252.766497,548.10517 252.711637,548.202345 252.654877,548.296912 C252.742748,548.339573 252.823494,548.401433 252.899254,548.467559 C252.899254,548.308762 252.875742,548.152572 252.823494,548.007996 Z M102.295589,509.444095 C102.373961,511.043912 101.587634,512.849929 101.034283,514.285973 C100.70916,515.134469 100.3743,516.345827 99.8563359,517.317331 C112.720626,513.52508 116.636561,524.636783 121.274838,522.32627 L121.415623,522.252117 L121.415623,522.249747 C120.468753,520.088452 121.501357,517.045717 122.137829,514.890348 C115.382205,513.66951 108.749126,511.770111 102.295589,509.444095 Z M203.952926,506.02404 L200.243978,506.138235 C194.474387,506.313187 188.704067,506.465729 182.930365,506.457531 C183.534538,510.603548 182.352316,517.442472 179.66726,520.664149 C179.662273,520.666283 179.657761,520.666283 179.655386,520.668653 C187.255047,521.818388 194.452638,518.339792 201.221798,515.41414 C201.507023,512.237021 202.755267,508.994724 203.952926,506.02404 Z M179.135284,518.654067 C178.904919,519.085426 178.671942,519.517021 178.43944,519.948379 C178.541561,520.059774 178.655556,520.161451 178.776675,520.249382 C178.706141,519.711132 178.898032,519.178571 179.135284,518.654067 Z M189.817557,166.042636 C194.054131,187.434213 197.398456,209.091005 198.559542,230.902563 L198.569861,231.118784 C198.682607,233.325661 199.012242,235.786366 197.535963,237.628908 C196.004156,239.541579 193.617388,239.783566 191.354114,240.131971 C172.371349,243.017805 153.121408,243.993101 133.931552,243.41219 C126.847956,278.451989 122.515437,313.926939 119.872892,349.55713 C114.131349,400.467358 101.098643,450.234724 91.3375912,500.463548 C106.475165,507.081105 122.175827,511.776273 138.766836,512.428051 C162.2505,425.700157 206.215963,334.169491 208.557608,247.410549 C208.683478,247.270713 208.985327,247.303657 209.018575,247.514596 C209.792553,252.261907 209.46268,257.215654 209.291688,262.000649 C208.642154,276.726082 207.00229,291.444168 204.584648,305.97549 C198.446497,342.06548 187.108753,376.98322 175.494097,411.622709 C175.105089,413.177258 175.693588,414.907905 175.713062,416.495872 C178.139016,442.986246 178.38743,469.613138 179.16877,496.185754 C179.003953,499.123256 179.928974,502.449455 178.909432,505.208726 C187.681578,504.03363 196.497422,503.400102 205.31374,502.665371 L205.379507,502.622349 C205.744462,502.39118 206.326954,502.1465 206.66268,502.558954 C214.11106,501.973302 221.56704,501.437422 229.019695,500.937568 C218.450704,425.316675 225.75564,346.487851 254.350314,275.446465 C252.539457,273.78858 253.328634,270.094304 252.91374,267.786064 C252.53162,258.364441 252.552282,248.727613 254.405174,239.451752 L253.933794,239.479756 C248.240744,239.80448 223.190401,240.80854 222.503223,236.559993 C221.550653,229.361998 223.852163,222.225863 224.322392,215.079774 C225.166667,198.933466 224.962663,182.724113 224.851993,166.556948 C219.894165,167.219391 215.140577,166.309984 210.239033,166.12322 C203.424275,166.063256 196.623291,166.237459 189.817557,166.042636 Z M101.466514,509.147832 C101.33827,509.704569 101.188889,510.261779 101.029771,510.818753 C101.249773,510.321032 101.497448,509.842898 101.792248,509.421747 L101.88212,509.297149 L101.466514,509.147832 Z M182.531145,506.460139 L182.125038,506.464642 L182.125038,506.464642 L182.122901,506.697149 L182.122901,506.697149 C182.217897,506.855945 182.234283,507.050057 182.115539,507.206483 C182.101527,507.92249 182.070653,508.640394 182.015793,509.358534 C182.172774,508.391533 182.329517,507.424532 182.531145,506.460139 Z M177.370738,506.223129 L177.392112,506.583147 L177.392112,506.583147 C177.911976,506.564186 178.436828,506.585517 178.954792,506.559683 C179.227668,506.545225 179.508142,506.49806 179.790517,506.448051 C178.976166,506.422217 178.163953,506.357987 177.370738,506.223129 Z M269.798999,209.175854 C269.542511,209.477094 269.262511,209.659355 268.977286,209.752026 C268.979661,216.594268 267.59771,223.32322 263.809992,229.24847 C262.234249,231.336529 261.343902,233.713265 260.582511,236.190494 C256.576539,247.527869 255.832723,259.706155 257.292807,271.578224 C261.228957,265.808452 262.793299,258.923311 263.892638,252.133922 C263.95201,251.792864 264.517472,251.797367 264.578982,252.133922 C265.90916,259.400649 263.622612,266.537969 260.888634,273.254122 C259.180848,274.474013 259.587668,277.669145 259.382952,279.548871 C288.401781,283.77476 278.310382,228.100157 282.027566,210.953429 C282.096438,210.481779 282.497795,210.138352 282.953774,209.993776 C278.601069,209.329911 274.190653,209.281324 269.798999,209.175854 Z M133.14285,243.379008 C133.178711,243.561269 133.209584,243.744004 133.233096,243.926264 C133.285581,243.748507 133.337829,243.568616 133.389839,243.388489 C133.30933,243.385881 133.226209,243.383511 133.14285,243.379008 Z M152.754724,7.88323792 L152.246748,8.01622942 C146.884762,9.39833839 145.14948,9.20842972 144.84609,15.6784977 C143.528024,24.4587712 138.662341,32.1172762 136.475301,40.6074494 C135.600153,43.6053892 136.525886,49.131278 140.673639,48.3197557 C142.017829,47.9073582 143.065394,49.7178778 142.048702,50.6780055 C139.044699,53.5171486 136.128329,56.4442224 133.195098,59.3525725 C144.972909,99.0754531 160.272451,137.766629 178.909432,174.783566 C179.648261,176.252791 177.432485,177.544496 176.698643,176.075034 C158.17068,138.939746 142.76128,100.261564 130.801349,60.5280264 L130.439983,59.3236572 C129.911569,57.8613054 136.665768,52.6186436 137.895013,50.9079052 C125.563138,44.970093 142.78017,24.1755442 143.248024,14.1618706 C139.718456,15.7123902 135.717472,15.1558906 131.988651,15.780412 C124.835708,17.0341951 118.557439,21.1631468 112.976675,25.6203573 C90.3085496,45.6218706 75.8226463,73.3134111 61.3322307,99.4143774 C51.4638338,116.444022 46.7062087,137.262509 56.6092791,155.377422 C68.0999661,178.603457 81.4295335,200.990713 95.5221544,222.723584 C97.0696353,224.735088 99.4514165,222.422582 101.081781,221.578589 C110.454775,215.950312 118.582375,208.293229 124.833096,199.339938 C109.679372,180.760011 96.4794741,160.454651 87.1442409,138.331187 L87.0154952,138.074747 C84.9209393,133.867942 83.2646758,128.778469 86.7587956,124.816875 C99.1657167,108.936966 110.200187,92.078917 120.584411,74.8269572 C120.691518,74.6537028 120.931145,74.8056263 120.852774,74.9857539 C119.786446,77.3982789 118.663359,79.7923172 117.492536,82.1647876 C119.857455,117.242035 119.457761,153.004952 120.480153,188.304988 C123.237167,191.952335 126.075403,195.538297 128.979661,199.067613 C138.401578,192.579464 149.48497,188.347887 160.867837,187.036747 L161.603563,186.96303 C166.438662,186.465946 174.424076,185.529091 175.057829,191.80136 C174.274114,199.517459 158.315539,195.179464 153.213079,199.555617 C161.577218,202.924004 171.161578,203.873229 178.84056,208.950932 C181.3038,210.386975 186.132434,214.962217 181.414945,216.71301 C179.356624,216.888871 177.230619,216.090148 175.173961,215.914286 C177.48877,216.693575 179.617625,218.013958 180.973452,220.083293 C181.949296,221.502746 182.661764,224.449017 180.329856,225.056 C175.013181,225.206027 169.718592,223.473721 164.481951,222.61219 L164.947182,222.800959 C168.764825,224.362857 174.69827,227.167788 169.557099,231.303821 C164.409992,233.966155 158.178507,229.43713 153.051824,228.228379 C139.24229,225.017841 129.026921,233.816839 114.870653,224.290221 C114.468821,227.473976 113.865598,230.635453 113.624071,233.836747 L113.592917,234.017994 C113.1024,236.940054 113.522416,237.995107 116.675573,238.553484 C120.477303,239.700613 124.459288,240.060631 128.409924,240.27394 C147.4219,241.278151 166.560221,240.565462 185.443003,238.13208 C188.160119,237.403274 194.542646,238.090366 195.678558,235.102618 C193.550178,158.200686 161.482697,85.838917 152.652841,9.93598177 C152.507735,9.20575387 152.498236,8.4617794 152.754724,7.88323792 Z M206.353944,14.455763 C204.837574,14.5178596 203.4257,14.8463555 201.917405,14.998516 C202.752655,16.7741951 207.161408,19.2860273 206.760051,20.1674676 C207.078287,20.4141951 207.401272,20.6512051 207.729008,20.8808678 C207.273028,19.27868 206.812299,17.6788624 206.350382,16.0764376 C223.103359,56.8722625 225.404869,105.140066 227.630857,149.643912 C228.363986,172.083548 228.762969,194.592864 227.678117,217.018516 C227.074894,222.974815 225.478728,228.994633 225.913333,235.009947 C235.745632,236.425134 245.720187,236.546009 255.592621,235.498425 C255.884495,234.732645 256.214606,233.979191 256.588889,233.239245 C271.367617,215.226246 263.530229,192.652463 256.414334,173.14085 C252.111501,173.322873 247.782782,173.050075 243.475674,173.103165 C244.806565,177.22074 245.1495,181.577459 245.85793,185.835344 C246.340182,188.869442 246.955605,191.879794 247.662712,194.867765 L247.852674,195.664385 C248.119271,196.766203 248.472736,197.955678 248.085581,199.048653 C247.705598,200.127048 246.394419,200.56291 245.52497,199.723894 C243.958253,197.937787 244.126395,195.276401 243.620543,193.061779 L243.527142,192.364858 C242.664809,186.006189 241.528711,179.409558 243.105428,173.100558 C241.557947,172.76827 237.327786,173.98816 237.105734,171.908397 C237.171043,168.473411 234.67883,161.031296 237.452943,158.768799 C239.103494,157.510275 241.941493,157.908452 243.877269,157.830239 C246.114419,157.740175 248.349194,157.656985 250.583732,157.671442 C232.62404,114.278542 237.618773,100.921659 239.441358,57.7362297 L239.495589,56.4183883 C239.490602,56.1337393 239.949194,56.0628733 239.999067,56.3496554 C242.744919,74.0386618 239.084733,91.9483245 240.81888,109.693265 C243.898405,143.40889 265.267464,172.356346 268.839542,205.910093 C276.544173,205.016328 284.339288,206.1125 291.807142,208.045553 C291.963885,206.682746 292.085004,205.314961 292.1705,203.94765 C293.588075,178.902563 284.798355,154.579172 274.542612,132.116547 C268.396387,120.193521 264.597269,107.467978 263.00704,94.1622352 C259.919678,76.831825 252.991162,60.5065743 246.085208,44.4074312 C241.719678,32.3699289 232.282324,29.5314968 220.579321,28.1336117 C224.526395,34.6748514 228.449958,41.2307858 232.366158,47.7912233 C233.239881,49.7749973 230.561238,51.1913692 229.392791,52.4126819 C243.769211,60.2513145 235.374911,84.4571486 235.67201,98.0207584 C234.604733,110.483931 234.202188,123.018206 232.321035,135.39487 C232.183291,136.252846 230.8676,136.001615 230.85525,135.197914 C231.028855,116.653302 233.240594,98.1833473 234.211213,79.668598 L234.329181,78.3188213 C235.085884,69.5529816 235.826758,56.9070319 225.284224,54.5009772 C223.861662,54.2684704 223.752417,52.1543409 224.894504,51.5193911 C226.414673,50.6730283 227.746989,49.6396645 228.938948,48.4098195 C224.911366,41.6526636 220.89067,34.8907675 216.905598,28.1049335 L216.718647,27.7895384 C213.888057,22.9882227 211.258833,17.4010586 206.353944,14.455763 Z M172.143596,191.331132 C170.980611,187.906337 159.693215,190.136839 156.680662,190.509181 C145.57067,192.606483 134.389669,197.522071 125.927922,205.092408 C125.405445,205.559318 124.78821,205.551971 124.301357,205.298607 C120.511264,210.1393 116.134334,214.526356 111.334198,218.381324 C112.212909,219.073393 113.115369,219.744131 114.043953,220.386428 C114.488295,220.43383 114.889652,220.663967 115.070144,221.076128 C128.277167,230.643748 137.992621,223.180777 151.712383,224.904314 C156.834792,225.936966 161.551807,229.194432 166.830721,229.331424 C170.704411,228.450695 167.293588,226.831679 165.484394,226.205262 C161.387514,224.249929 157.211,222.467282 153.025667,220.709561 L149.676862,219.3059 C148.031298,218.615964 148.596522,216.129728 150.43469,216.563457 C153.652672,217.321889 156.880153,218.042399 160.109771,218.751533 C166.321069,220.018115 172.68056,221.643056 178.957167,222.259045 C177.561679,218.381798 162.75849,214.194304 158.454232,212.653265 C156.828855,211.88559 152.192587,212.031588 152.721713,209.512408 C153.149194,207.167905 158.082324,209.852518 159.727651,210.043311 C166.441951,211.746465 173.295657,212.778407 180.137252,213.81651 C172.788617,206.445262 161.396964,205.809127 152.01162,202.357076 L151.806292,202.31062 C150.132973,201.925199 147.783957,201.197414 149.15486,199.28116 C153.97732,192.172992 172.950823,195.77033 172.143596,191.331132 Z M158.257425,151.753278 C161.680597,148.945183 163.514253,154.712585 163.29695,157.394117 C163.458443,159.619641 163.63181,161.845165 163.776916,164.070689 C163.564838,165.810817 165.41963,172.154153 162.938341,172.211984 C152.093625,171.661409 141.267196,171.800534 130.418918,171.147809 C130.404668,173.335411 130.298036,175.520407 130.409656,177.710616 C130.350521,180.44903 131.302378,183.184363 130.746653,185.892202 C130.407281,187.136505 128.713981,187.304782 128.052811,186.242977 C126.071437,181.582175 127.433676,175.570179 128.837238,170.856286 C123.525075,169.874828 122.792421,164.882448 124.191946,160.427845 L124.177442,160.18649 C124.099581,158.812404 124.1055,157.338511 124.719172,156.228027 C126.359749,154.29687 129.76226,155.551364 132.021971,155.40584 C138.949299,154.691728 146.003684,154.494299 152.850029,153.222503 C154.622175,152.764126 156.429469,151.839787 158.257425,151.753278 Z M115.196014,86.6774585 C109.802867,96.969856 103.597981,106.76311 96.9924512,116.298735 C95.5770144,118.334888 94.1235793,120.344733 92.6468702,122.34012 L92.373544,122.689694 C89.4222807,126.436773 86.357467,129.545194 89.1458015,134.517696 C96.4519254,152.259081 106.234589,168.919938 117.568295,184.382472 C116.850602,151.813265 116.216743,119.235763 115.196014,86.6774585 Z M250.783461,158.192864 C237.233265,161.031533 236.979627,155.715398 239.241238,170.761269 C244.675708,170.798479 250.107091,170.676182 255.542748,170.763876 C253.989567,166.561688 252.379389,162.378461 250.783461,158.192864 Z M159.829605,153.943014 C152.752658,156.401756 145.238731,156.050981 137.847824,156.353406 C137.862785,157.942084 130.300411,156.467644 128.84935,156.685694 L128.291108,156.63778 C127.090895,156.541154 125.58244,156.52542 125.569384,157.996122 C125.954355,160.569814 124.505432,163.3881 125.403142,165.916997 C126.614338,169.322831 131.796356,168.972057 134.655729,169.038419 C139.369893,169.145074 144.084058,169.258602 148.798222,169.382084 C153.032658,169.493479 157.281581,169.70418 161.520529,169.734992 C161.138171,166.720461 161.033913,163.629613 160.803549,160.617453 C160.513574,158.451418 160.931793,155.884126 159.829605,153.943014 Z M189.586955,164.895271 C189.594317,164.933192 189.601442,164.971351 189.610941,165.011406 C189.693113,164.987942 189.786921,164.974669 189.86743,164.952153 C189.774572,164.935562 189.679813,164.916839 189.586955,164.895271 Z" id="ðŸ–-Ink" fill="#000000"></path>
                </g>
                <g id="Head" stroke-width="1" transform="translate(95.945717, 42.661805)">
                    <g id="head/Long">
                        <path d="M102.571813,64.0052689 C101.671729,49.2627712 96.8782426,32.5485871 82.7704224,25.3103008 C51.6690483,12.8535278 10.7771739,44.223227 8.61222053,76.2698268 C7.85747922,87.2395989 13.9604818,99.226381 25.1132214,102.276226 C27.5928482,105.554786 31.3428058,107.557046 35.044078,109.294804 C79.1285225,132.120529 107.605164,113.565725 102.571813,64.0052689 L102.571813,64.0052689 Z" id="ðŸŽ¨-Background" fill="#FFFFFF"></path>
                        <path d="M112.614884,54.8346636 C111.056953,50.5163409 109.411152,46.2311996 107.679854,41.9792397 C105.993679,37.8410447 104.470642,33.6134051 102.376716,29.671309 C89.8705242,6.12673291 67.1285394,6.12673291 55.3728142,9.20312306 C49.2764614,6.58179216 37.8578098,7.3212028 31.5098796,9.68662352 C21.2332383,13.5159945 8.70591009,28.5798778 4.4227888,35.3479362 C-5.03380153,50.2911814 -10.9354131,70.1803519 -4.65381849,87.4479544 C-3.83281764,89.7047639 -2.78572689,91.7949553 -1.60682952,93.8093036 C-2.34945886,94.8137521 -3.20418321,95.7651103 -4.15105344,96.6998778 C-6.96482782,99.4781094 -9.77860221,102.164855 -12.2093062,105.298365 C-14.6248109,108.412439 -16.6273215,111.723943 -18.1180424,115.375083 C-20.9289669,122.260698 -21.0643359,130.05738 -17.3481018,136.627535 C-14.1149211,142.344217 -8.38738931,146.601154 -1.93456489,147.007152 C-1.60326718,147.053132 -1.27149449,147.09532 -0.938296862,147.128738 C-0.0833350297,148.534208 0.959243427,149.828283 2.14906531,150.95645 C5.79452757,154.416797 14.4842646,156.192002 19.4406684,156.305767 C19.694782,156.509595 19.9512706,156.713424 20.2077591,156.914882 C23.2404987,159.296833 26.4228567,161.700115 29.9044512,163.394737 C32.2627209,164.544235 35.3548329,165.504126 37.8152231,164.674591 C38.9314232,165.418802 40.7624665,165.262376 41.8691671,164.65326 C43.6883359,163.653077 45.1678948,161.851801 46.0679796,160.007863 C48.2505072,155.530744 47.7256556,150.631747 47.1651807,145.848884 C46.5477082,140.565931 45.9539847,135.280607 45.3507617,129.997654 C44.8781578,125.866569 44.3841798,121.666751 43.125486,117.687353 C42.4747651,115.625366 41.6221781,113.643962 40.5202273,111.781063 C40.548726,111.624636 40.5439763,111.46821 40.4988533,111.321263 C40.1378694,110.150434 39.3921527,109.536578 38.5086921,108.740224 C38.3946972,108.63831 38.2807023,108.534026 38.1690823,108.427371 C37.727352,107.92491 37.2547481,107.458 36.7488957,107.062193 C36.5541544,106.865475 36.361788,106.666387 36.1694215,106.467298 C34.5711179,104.796377 33.0606853,103.040133 31.7188702,101.158273 C30.4174283,99.3332963 29.2418558,97.4277356 28.1232807,95.4866235 C26.9857065,93.51233 26.2328651,91.3342078 25.0976658,89.3741349 C25.0002952,89.2058578 24.7533062,89.1726764 24.6155623,89.3125123 C24.264078,89.6751376 24.0384631,90.0780547 24.0812112,90.5023026 L23.905469,90.5283737 C23.838972,89.8884467 23.2476234,89.3670246 22.4449092,89.5068605 C21.2432129,89.7154294 20.255257,89.7936427 19.2150534,89.3954658 C19.3979203,88.1843446 19.5665377,86.9708532 19.7327803,85.7549918 C20.0367668,83.5176171 20.3193791,81.2731322 20.5616183,79.0286472 C21.1482171,79.1684831 21.7300662,79.3699417 22.3000407,79.6259125 C23.1122545,79.9885378 23.8793452,80.4767785 24.5348159,81.0764139 C25.1807871,81.6689389 25.6272672,82.4676627 26.415732,82.8800602 C27.3229415,83.3517101 28.4177676,82.5719471 28.1517795,81.5480638 C27.6126785,79.4789663 24.5609398,78.2939161 22.6728991,77.9028496 C22.024553,77.7677539 21.3619576,77.7108715 20.6993622,77.7250921 C20.8489805,76.2840711 20.9819746,74.8430501 21.0912197,73.3996591 C21.1434673,72.7170702 21.1909652,72.0344813 21.2360882,71.3495223 C22.7037727,70.9063136 24.2759525,70.773588 25.8030093,70.9821568 C26.3064869,71.3827037 26.8099644,71.7785105 27.2968176,72.1790574 C28.8428736,73.4541714 30.3818049,74.7363956 31.9017371,76.0423209 C32.0394809,76.1584558 32.1748499,76.2745907 32.3125937,76.3930957 C33.2150534,77.1681185 34.3407532,76.400206 34.18876,75.3028496 C32.9490653,66.3106892 38.4683189,59.1577265 44.9304054,53.6164321 C52.0835861,47.4802425 65.0885055,46.7657273 73.5953757,36.1369426 C77.5132621,36.9327253 86.2606853,39.2962862 89.8705242,45.0366691 C94.9242986,53.0807894 94.264078,60.2882644 94.6488109,69.4131504 C95.0335437,78.5451468 96.012,88.0705798 93.9339678,97.0745907 C92.0174283,105.377052 86.828285,112.470762 78.7773944,115.73202 C78.5779033,115.812603 78.3760373,115.890817 78.1741713,115.96666 C74.0109822,117.533296 69.46781,117.976505 65.0885055,117.15171 C60.2413469,116.236851 56.1945276,114.023178 52.1619576,111.299933 C51.929218,111.145876 51.5896081,111.463469 51.7653503,111.695739 C57.080363,118.725457 67.5203969,121.074226 75.8016522,119.218438 C76.18876,119.130744 76.5734928,119.03594 76.9558507,118.931655 C75.1034334,124.24779 75.4762918,130.082977 77.8891841,135.259276 C79.3402443,138.373588 81.5536455,141.068392 84.2491501,143.194372 C87.2201425,145.536031 90.9059779,147.427371 92.9673859,150.7147 C94.8554266,153.727098 94.2949517,157.111601 91.0627209,158.851254 C90.2481323,159.292093 89.9346463,160.716523 90.7421103,161.34223 C91.0508465,161.57924 91.3595827,161.82099 91.6754436,162.058 C93.4851128,163.420808 98.4557659,165.980516 99.260855,166.07532 C106.409286,166.921446 111.216071,161.683524 114.296309,155.504673 C117.913272,148.252166 116.972814,139.414062 112.987742,132.50759 C109.791135,126.966295 103.495291,121.505584 105.998429,114.492458 C106.891389,111.987262 108.717683,109.851801 110.491729,107.92254 C112.515138,105.725457 114.690541,103.66821 116.63083,101.392913 C118.559243,99.1342078 120.269167,96.6764139 121.223874,93.8417739 C122.617937,89.6988387 121.924468,85.2193491 120.87714,81.0835242 C118.632865,72.2051285 115.71887,63.4452379 112.614884,54.8346636 Z" id="ðŸ–-Ink" fill="#000000"></path>
                    </g>
                    <g id="face/Smile" transform="translate(37.760814, 44.083865)" fill="#000000">
                        <path d="M34.8127554,57.1020091 C33.2162863,56.4520445 31.7918322,55.3678606 30.7504188,53.982886 C30.3883575,53.5014119 30.2944812,52.9929828 30.3704337,52.5279595 C30.455837,52.0050735 30.76581,51.5311704 31.1885437,51.2132909 C31.6125868,50.8944267 32.1430108,50.7371707 32.6558203,50.8173353 C33.1014216,50.8869936 33.5449965,51.1304783 33.8960529,51.6354567 L33.9693973,51.7364404 C34.5885356,52.5723634 35.3953297,53.2582283 36.3146153,53.7003078 C37.2006572,54.1264007 38.1916054,54.3252746 39.2170751,54.2096253 C41.1701484,53.9894475 42.5163047,52.9353366 43.947122,51.5038717 C44.124476,51.3231456 44.3019435,51.136754 44.4802714,50.9473621 C44.592889,50.7756793 44.7491739,50.6653386 44.9226927,50.6074447 C45.1153544,50.5431638 45.3332998,50.5468008 45.5329212,50.6163236 C45.7254569,50.6833787 45.8975743,50.8104452 46.0129836,50.9795623 C46.1226707,51.1402944 46.1848601,51.3388571 46.1646812,51.5672535 C46.033716,53.0507326 45.2565672,54.3746744 44.1526598,55.4142485 C42.9266296,56.5688282 41.301437,57.3675742 39.7713893,57.6477194 C38.0857258,57.9563102 36.3680798,57.7352226 34.8127554,57.1020091 L34.8127554,57.1020091 Z M40.5665861,34.2164632 C42.3599585,35.3043501 45.0925072,37.84109 43.1632513,40.538094 C40.8923326,42.9161315 37.6227224,40.1895491 36.0115152,38.956422 C34.5175283,38.0007416 32.8389503,40.45868 34.2250722,41.574598 C45.8676895,50.1769329 50.5925102,34.5009305 41.4736488,32.937375 C40.4696294,32.7650779 40.0967341,33.8799135 40.5665861,34.2164632 Z M19.7029042,24.2097211 C19.9010483,21.7551799 23.6468906,21.1977976 24.0195115,23.6266764 C24.3531841,25.8024284 23.9603766,27.801134 22.9783579,29.7600219 C22.0400373,31.6314531 19.6816447,30.7583423 19.5032902,29.0542402 C19.2642133,26.7699622 19.5796472,25.7365862 19.7029042,24.2097211 Z M48.21676,23.1230538 C48.7389992,22.4404649 49.493028,21.9745032 50.3964377,22.2378213 C53.2189992,23.0609572 52.3870738,27.0600273 51.395793,29.0065907 C50.8571671,30.0636554 49.1161323,30.3317138 48.3293299,29.4009754 C47.0468872,27.8831632 46.4327396,24.8520419 48.0631043,23.3569827 C48.1072774,23.2797174 48.1564377,23.2017411 48.21676,23.1230538 Z M22.9386022,13.4693984 L23.3844579,13.391518 C24.7637486,13.1534545 26.4787379,12.9247019 27.4544631,14.0313491 C27.9719525,14.618186 28.1500696,15.7089061 27.4544631,16.2706199 C26.2309177,17.2589517 24.8781781,16.8759435 23.4119186,16.959608 C22.2035725,17.0288149 21.0422494,17.2283774 19.8783138,17.5604284 C17.3248278,18.2887603 15.2441832,19.6183865 13.0633181,21.0783683 C12.7771433,21.2698724 12.4850314,20.9046399 12.6215878,20.6375296 C13.8805191,18.1766545 16.3202477,16.155196 18.7640136,14.9229809 C20.0683053,14.265278 21.4956166,13.7196809 22.9386022,13.4693984 Z M45.6437704,12.3670381 L45.985026,12.4367382 C49.6987038,13.2114312 54.5236407,14.7589441 56.2822463,18.3992889 C56.3492573,18.9140465 56.2784539,19.0243694 56.220878,19.0964481 L56.2017082,19.1204334 C56.1542656,19.1819844 56.11641,19.266832 55.8928405,19.3368914 C55.8308,19.3221394 55.7681419,19.3065151 55.7048201,19.2899543 C54.8987061,19.0791278 54.2609139,18.7886846 53.6434635,18.4873151 L52.9739907,18.1581557 C52.1972684,17.7780821 51.4136883,17.4118413 50.5832732,17.1414685 C48.8110962,16.5645992 46.9882598,16.1582307 45.137182,15.9412392 C44.7359752,15.8942481 44.3496381,15.7591142 44.044846,15.5275167 C43.7555371,15.3076842 43.5345237,15.003321 43.433754,14.598756 C43.3031565,14.0751843 43.3406874,13.6787976 43.6221743,13.2064592 C43.8338352,12.8517432 44.1366879,12.6058787 44.4844395,12.4646949 C44.8389572,12.3207642 45.2425721,12.2868326 45.6437704,12.3670381 Z" id="ðŸ–-Ink"></path>
                    </g>
                    <g id="facial-hair/*-None" transform="translate(29.211196, 80.109389)"></g>
                    <g id="accessories/*-None" transform="translate(11.162002, 57.119417)"></g>
                </g>
            </g>
        </g>
    </g>
</svg>