<?xml version="1.0" encoding="UTF-8"?>
<svg width="304px" height="681px" viewBox="0 0 304 681" version="1.1" xmlns="http://www.w3.org/2000/svg" xmlns:xlink="http://www.w3.org/1999/xlink">
    <!-- Generator: Sketch 62 (91390) - https://sketch.com -->
    <title>peep-standing-4</title>
    <desc>Created with Sketch.</desc>
    <g id="Introduction" stroke="none" stroke-width="1" fill="none" fill-rule="evenodd">
        <g id="variations-standing" transform="translate(-661.000000, -100.000000)">
            <g id="a-person/standing" transform="translate(621.000000, 50.000000)">
                <g id="pose/standing/resting-2" transform="translate(-28.736217, 150.264357)">
                    <path d="M124.919624,125.506028 L124.583577,129.507468 L124.332788,129.038662 C124.297164,137.110513 123.09903,145.270768 121.777639,153.324369 C118.323594,150.489018 115.48417,147.989273 116.304221,143.149291 C118.381304,136.251588 121.045222,129.523111 123.198776,122.662855 L123.55976,124.461761 L124.981371,124.747595 L124.919624,125.506028 Z M371.602237,550.734013 C370.96624,547.929473 370.272058,544.959975 369.621812,542.147851 C369.55769,541.910367 368.962304,541.856802 368.770413,541.79281 C365.332041,533.388197 362.323288,531.472682 355.663848,530.329346 C344.92529,528.39013 334.328276,524.186283 324.183916,517.955763 C324.420693,517.02858 325.068089,515.427814 325.656588,513.718024 C325.579879,513.744332 325.502457,513.767322 325.422661,513.782728 C325.286579,513.809036 325.158572,513.815198 325.036503,513.806666 C324.348496,515.419282 323.599692,516.835891 323.20356,517.358024 C321.936554,516.542472 320.526579,515.645152 319.284985,514.77817 L319.290209,514.763001 C318.185171,513.998407 316.81937,513.053922 315.737368,512.464952 C315.534552,511.346976 313.8935,511.000467 313.036164,510.262181 C311.371838,509.075234 310.448717,508.463275 308.922135,509.978717 C305.629344,505.709929 302.9773,501.195836 300.370142,495.360412 C298.738589,491.949601 297.937063,488.172846 295.743373,485.127267 C295.785409,485.103566 297.179946,484.670075 297.214145,484.630968 C272.284883,429.50291 268.290786,368.160449 262.973161,309.233357 C261.800201,296.055836 260.573093,282.756729 258.286545,269.965535 C257.972822,268.028452 257.691159,266.120759 256.523424,264.576164 C270.532924,253.053448 270.66948,230.718808 263.883695,214.153229 C279.485799,172.140595 248.903102,127.519191 251.159963,84.6421807 C252.425069,55.5579692 247.180354,21.8586985 214.267885,14.8804123 C210.186393,12.535435 205.293399,12.1853712 201.39881,12.1220896 C197.892516,10.3539948 197.339879,6.45020259 196.091634,3.24108682 L194.871889,3.24867114 C194.513992,1.7962737 194.159658,0.203803324 193.851872,-1.25949659 C193.389005,-2.18739084 193.663305,-3.396616 192.20512,-3.13946012 C188.900218,-7.91568619 162.451261,-10.3168348 162.150837,-2.62633341 C161.19613,-2.06438264 161.007563,-0.967500231 160.785273,0.364496122 C159.318539,9.80981973 149.21384,17.3422354 140.109209,15.8232381 L139.961728,15.6902755 C101.200608,14.2563649 85.9416768,41.7817614 78.3674274,79.2947605 C72.4494291,108.44178 68.6878345,140.029291 73.3222026,169.224423 C77.849938,182.455271 91.5642383,188.82136 102.174315,196.972135 C100.951244,200.048762 100.837012,203.442983 100.799726,206.772026 C100.659845,210.614906 100.379845,214.489072 100.039285,218.280759 C99.3415411,223.086137 98.2120415,231.357076 104.764849,231.918079 C107.303373,289.349163 112.605561,346.62951 104.503611,404.228161 C97.7776734,436.081834 100.352533,474.624405 108.6687,505.79075 C109.148428,507.330604 110.380761,508.716164 111.95484,508.223894 C112.75423,508.739628 113.378589,509.063147 114.039522,508.576091 C114.429005,509.296128 114.855773,509.98796 115.317215,510.658698 C115.49177,519.221397 116.464289,527.622217 116.021609,536.240376 C115.361388,536.164059 113.909141,535.438097 113.344866,535.913065 L113.26412,536.569583 L112.726918,536.753028 C111.602406,539.919719 110.896825,543.244259 110.374824,545.925554 C108.099438,550.5226 105.19233,558.657495 106.813432,563.778097 C106.734824,563.869109 106.298318,564.375836 106.229684,564.452627 C105.842338,564.674232 105.770854,564.97002 105.676333,565.309656 C104.572008,565.723238 104.458725,566.982946 104.344968,568.271096 C103.791855,571.392281 104.613568,574.229291 104.895943,577.282691 L104.912567,577.262308 C104.912567,577.262308 105.839726,578.335016 105.841151,578.336438 C117.493568,579.044387 128.967868,579.225936 140.568513,579.642126 C141.443899,577.968361 141.707512,575.7061 142.365358,573.867377 C156.118369,583.911151 179.946868,580.068981 197.221609,577.602181 C204.237046,576.592518 210.8649,575.638553 216.7411,575.320959 C217.123458,575.268343 217.150769,575.103858 217.160744,574.951935 C217.218454,572.653174 217.651634,570.296347 217.435519,568.065134 C218.648852,566.888379 218.09574,564.744624 217.261914,562.861816 C214.195689,556.232409 205.861473,555.506921 199.109175,554.375909 C186.405867,551.914797 176.190973,547.285754 167.927529,540.209346 C168.483492,539.707358 168.988157,539.214378 169.447936,538.732062 C169.268394,538.612609 169.088852,538.493393 168.909785,538.372755 C168.474942,538.182436 168.059098,537.987377 167.67769,537.741123 C167.483424,537.850148 167.239997,537.872427 166.999658,537.737805 C166.169158,537.272317 165.492313,536.58807 164.703373,536.064514 C164.546868,536.288963 164.38965,536.517678 164.231482,536.756584 C163.47484,535.960704 162.618454,535.059355 161.870125,534.224843 C161.843288,533.994232 161.904086,533.419008 161.622186,533.356201 C159.494756,533.570932 157.030566,534.286702 154.805053,535.081871 C152.289565,526.830367 150.832567,517.900066 151.00071,509.467012 C153.474399,509.467249 155.641015,509.444259 157.485595,508.270348 C157.989785,508.405681 158.692279,508.697441 158.822661,507.906301 C159.571227,504.676802 159.765731,501.257696 159.95406,497.951406 C163.782864,435.403512 169.616554,385.143165 188.965765,332.158863 C190.823882,339.515654 193.943543,347.167049 196.782491,354.490658 C209.698114,385.097659 219.002949,418.105809 226.97903,450.231333 C230.117215,462.256274 233.528513,475.469583 236.897775,487.369619 C238.204442,493.09033 240.860523,495.184314 246.426562,495.138808 C250.715621,495.339792 255.019404,495.277459 259.325799,494.975745 C265.196774,500.318662 267.604204,507.53064 269.319353,514.024715 C267.890379,515.085572 265.622355,514.685262 263.951617,515.035563 C262.511007,517.353521 263.009497,520.594633 263.04322,523.453922 C263.26931,527.168817 263.076706,531.154378 264.160133,534.661652 C264.353687,538.498133 264.377673,542.700795 264.666698,547.161087 C261.483865,549.003603 262.066902,553.074487 263.123967,556.969036 C263.596333,557.959975 280.702695,557.763493 284.946155,557.722254 C289.932483,557.43239 297.043153,558.704186 298.678267,553.246793 C310.54965,559.829984 328.610243,557.605645 342.440676,555.668325 C352.478165,554.447249 361.571634,553.31126 371.428632,551.240029 C371.530515,551.195472 371.673721,550.878826 371.602237,550.734013 L371.602237,550.734013 Z" id="ðŸŽ¨-Background" fill="#FFFFFF"></path>
                    <path d="M161.554514,-4.6918979 C162.321605,-4.84619143 162.981825,-4.6186618 163.447304,-4.19891705 C163.54705,-3.16318323 163.535176,-2.13005652 163.449679,-1.0966928 C163.364183,-1.02321969 163.269187,-0.951879672 163.164692,-0.885753874 L163.24414,-0.936392548 C163.315943,-0.98285392 163.365371,-1.01711668 163.397432,-1.04218049 C162.385727,5.69293345 157.701723,11.4221768 151.629832,14.4677557 C151.254124,15.0863519 150.404387,15.0444011 149.794039,15.3233619 L148.936332,15.5928672 C146.574569,16.3320844 144.184296,17.0307309 141.686151,17.0772361 C148.038042,34.8887767 172.877771,44.5656591 190.449612,45.8805907 C205.625184,46.6790775 214.046321,34.1154129 210.042724,20.0235077 C201.251558,18.8878505 192.608662,9.55153484 195.795284,0.529911871 L195.895481,0.256634458 C195.916855,0.164437557 196.040349,0.197381951 196.049849,0.27796536 C196.14722,1.19756427 196.69582,2.20983409 196.940197,3.1081021 L197.052806,3.42712925 C197.89831,5.85955357 198.648625,8.76007354 201.037126,10.054629 L201.445705,10.0639405 C205.742102,10.1757752 210.22813,10.7422972 214.011172,12.8658049 C218.229459,13.6932069 222.261554,15.3615205 226.015311,17.428485 C255.65945,33.4949207 250.914887,67.6679745 251.838483,96.1271905 C254.714718,135.124109 278.515193,174.095194 264.477669,213.245933 C270.887271,229.550089 271.382911,251.463325 257.393598,263.901849 C257.547254,264.142888 257.676685,264.407154 257.785218,264.677582 C258.451173,266.3366 258.657303,268.237594 258.97152,269.998768 L259.008288,270.201338 C259.76493,274.296397 260.309255,278.433881 260.841232,282.563307 C261.8906,290.709191 262.652819,298.891355 263.379058,307.072076 L263.482589,308.240737 C265.300807,328.803964 266.888899,349.41317 269.273768,369.924018 L269.719074,372.964045 C272.947378,394.922563 276.463089,416.932625 281.758823,438.450016 C281.915091,439.026899 282.070409,439.603781 282.229764,440.179716 C284.138229,447.082396 286.384641,453.868704 288.495684,460.707628 C289.164217,462.872952 289.904709,465.005331 290.685337,467.120171 L291.655595,469.524436 C291.817581,469.925001 291.979891,470.325416 292.142809,470.725568 C293.864132,474.952168 295.69755,479.131129 297.627864,483.266479 C297.976024,484.01235 297.468984,484.699679 296.871461,484.890946 C298.633869,487.681739 299.298365,491.005094 300.770799,493.967719 C302.876617,498.691092 305.371444,503.286479 308.484455,507.429652 C310.20649,506.136525 312.130154,507.805787 313.561978,508.759515 C314.481062,509.330709 315.673259,509.75946 316.034243,510.766753 C316.727712,511.16493 317.402182,511.603635 318.041028,512.041867 L318.10484,511.834467 C318.880811,509.355533 320.399447,506.028565 322.866575,504.922086 C325.751359,503.711438 328.052631,506.124912 327.18912,509.013116 C326.659756,511.59297 325.83353,514.063799 324.951969,516.552405 C333.826089,521.901141 343.530493,525.957608 353.738958,527.992778 L354.087169,528.061375 C356.549934,528.549852 359.053072,528.88854 361.311596,530.056999 C365.052767,532.106899 367.468746,536.003818 368.980129,539.900026 C369.50498,540.028011 369.987084,540.48544 370.103454,540.987902 L371.099425,545.285308 C371.43102,546.717737 371.76113,548.150463 372.08649,549.584492 C372.264607,550.361648 371.849001,551.340737 370.989289,551.513517 C365.063929,552.696434 359.11007,553.732168 353.130087,554.607683 C336.154582,556.176452 314.313157,561.691675 298.550273,553.947847 C296.03526,559.109451 289.032173,557.632879 284.279535,558.022286 C281.392852,557.808977 261.130731,558.908704 261.32381,556.464656 L261.211665,556.044201 C260.315878,552.629671 259.508365,548.041254 262.772495,545.690418 C262.567779,541.836397 262.415549,537.980244 262.352139,534.124091 C261.21504,530.464182 261.412394,526.416762 261.181079,522.595923 C261.211003,519.748722 260.546032,516.460445 262.10515,513.914483 C262.241944,512.226735 266.000214,513.127136 267.244421,512.509014 L267.134587,512.108063 C265.418044,505.896714 263.032209,499.852282 258.212699,495.304219 C254.045947,495.580572 249.867559,495.628923 245.697245,495.434337 C239.346541,495.45946 236.449883,492.712514 235.066982,486.748394 C234.076651,483.249889 233.11007,479.744747 232.157737,476.234392 C224.727881,448.619169 217.981282,420.760536 209.770324,393.359096 C206.631427,384.175905 203.159094,375.104583 199.658025,366.056252 C197.285031,359.923617 194.908475,353.792405 192.533818,347.660244 C191.313835,344.510381 190.111664,341.342268 189.051274,338.135285 C188.724964,337.149324 188.429527,336.157911 188.150477,335.162469 C169.731986,386.248558 163.889985,440.523143 160.63068,494.418038 C160.333818,498.721903 160.281571,503.073407 159.305489,507.285076 C159.006253,508.581758 157.909052,508.939406 156.940095,508.654994 C155.155837,509.598768 153.836346,509.709688 151.539586,509.745477 L151.556605,510.484556 C151.687117,515.780684 152.011921,521.062216 153.216261,526.234027 C153.693615,528.393426 154.548577,530.493098 155.011681,532.642778 C156.883098,532.007829 158.794887,531.529068 160.761299,531.294428 C161.754005,531.175923 162.321605,532.005459 162.361978,532.856325 C162.727712,533.259005 163.09582,533.657181 163.471053,534.052988 L163.660596,533.809561 C165.426461,531.53255 167.69032,528.412836 170.759603,528.156416 C172.156041,528.070855 173.431359,528.857728 173.735583,530.275285 C174.026982,533.53204 171.32364,537.099278 169.042555,539.260098 C177.49409,546.238148 187.96856,550.268503 198.65962,552.324328 L199.077462,552.393248 C205.935844,553.513221 214.39591,554.39644 217.666134,561.477418 L217.734893,561.629526 C218.502023,563.355196 219.227128,565.970922 217.977245,567.551985 C218.124964,569.711858 217.725031,571.934538 217.673259,574.11503 C217.618636,575.001448 217.020163,575.515759 216.172326,575.613881 C194.348475,576.782815 161.083098,586.97709 142.391494,574.847391 C142.006762,576.191001 141.610154,577.532715 141.242046,578.881065 C141.080553,579.47596 140.479705,579.962067 139.850358,579.938366 C128.279874,579.523599 116.671393,579.336124 105.115159,578.632441 C104.778874,578.638603 104.497686,578.488576 104.263759,578.217674 C103.992546,578.549251 103.300027,578.45895 103.207406,577.9873 C103.044251,577.15895 103.043064,576.318986 102.968492,575.479734 C102.882046,574.507993 102.621995,573.611858 102.469527,572.661922 C102.188102,570.907573 102.314684,569.025951 102.489001,567.265914 L102.533554,566.820645 C102.655608,565.657418 102.87274,564.335788 103.926211,563.676719 L103.996109,563.634684 C103.999908,563.632551 104.003708,563.630655 104.007508,563.628758 C104.124115,563.258075 104.400553,562.937874 104.750137,562.683799 L104.770799,562.660098 C104.220299,561.348722 104.432377,559.689652 104.592919,558.322815 C105.03655,553.568394 106.370053,548.863745 108.568017,544.642596 C109.194514,541.432769 109.954243,538.110363 111.083267,535.055541 C111.052394,534.915705 111.228136,534.7972 111.363505,534.858822 C111.41029,534.834173 111.456363,534.815686 111.501961,534.800518 C111.507661,534.753353 111.516923,534.706899 111.531885,534.662578 C111.726863,534.087829 112.329612,533.77379 112.893886,533.684438 C113.371953,533.608831 113.786134,533.735869 114.215277,533.843945 C114.524489,525.546698 113.542232,517.26225 113.441537,508.968084 C112.65141,509.350618 111.764387,509.01122 111.035769,508.572277 C108.922114,508.896981 107.423556,507.098075 106.843844,505.206498 L106.504095,503.673149 C103.45707,489.868549 100.711342,475.943132 99.2351586,461.871821 C97.1946497,442.230089 99.6595522,422.570819 102.654056,403.15946 C110.781893,352.046589 104.894293,300.380299 104.314819,248.987045 C103.830341,243.375832 103.6299,237.702997 103.013377,232.095103 C100.72113,231.823015 98.9881696,229.68163 98.2137167,227.629834 C97.0001459,224.378294 97.8764818,220.626188 98.1828431,217.284346 C98.5224529,213.57988 98.7718168,209.86854 98.9335471,206.154593 L98.952469,205.069893 C99.0077698,202.173915 99.1337506,199.257838 100.097008,196.500937 C89.8244037,188.609214 76.2017744,182.409506 71.8547684,169.216343 C69.8769567,167.438294 70.2752265,159.199114 69.9524784,156.176051 C68.6329873,130.029816 70.8687125,103.710089 76.5337846,78.150928 C83.623793,43.3206454 98.1484071,12.1090319 138.860027,13.600299 C138.829154,13.576835 138.795905,13.5505269 138.765031,13.5244558 C139.194887,13.3822498 139.638992,13.5220857 139.954853,13.8064977 C146.886931,14.6948113 153.512648,10.6078104 156.975718,4.73375387 C157.82593,3.26903191 158.457652,1.74031723 158.794887,0.0788769371 L158.821168,-0.0538417651 C159.17368,-1.88097147 159.273259,-4.23402275 161.554514,-4.6918979 Z M108.960112,564.120317 C107.976193,564.663544 106.899654,564.728485 105.993869,565.452077 C105.357398,568.926644 105.409645,572.531803 106.174361,575.980062 C117.027627,576.096197 127.895142,576.643927 138.743657,577.016033 C139.180638,575.340372 139.593869,573.654994 140.049849,571.984073 L140.060633,571.949706 L140.084522,571.883818 C141.21046,571.921739 142.336634,571.95421 143.463047,571.982414 C160.123878,583.899989 194.642249,573.772314 214.754514,572.778057 L214.96113,569.438585 C214.757601,569.58008 214.555973,569.658768 214.362419,569.686024 C214.549323,569.198494 214.217075,568.563781 213.554005,568.748886 C212.48364,569.047756 211.408051,569.322924 210.328662,569.581265 C210.246728,569.549032 210.153869,569.533863 210.049849,569.542633 C200.608458,570.347045 191.128356,570.271912 181.661079,570.300354 C172.226575,570.328558 162.802046,570.725313 153.366592,570.699242 C149.518076,570.688339 145.669798,570.630746 141.822945,570.516744 C130.742877,568.462815 119.741656,566.039387 108.960112,564.120317 Z M367.584166,543.758786 C367.117176,544.096105 366.507151,544.125043 365.858609,544.213142 L365.76571,544.22617 C365.172699,544.312441 364.5785,544.393736 363.98169,544.439005 C362.507118,545.390126 359.570087,545.260955 358.148237,545.531621 C326.937143,548.644747 295.509221,544.950946 264.266304,547.451402 C262.775108,549.574775 263.138466,552.203216 263.931444,554.575686 C272.655617,554.903234 281.388339,555.080281 290.117025,554.703672 L290.814637,554.678066 C291.892537,554.635791 292.998365,554.558334 293.995226,554.151438 C294.885636,553.788782 295.979655,552.889134 295.840238,551.811701 L295.83102,551.750527 C295.617279,550.513572 296.918721,549.065203 298.184539,549.944985 C310.122419,557.848795 326.342707,553.874611 339.792682,553.096981 C349.484624,552.073098 359.124319,550.615249 368.690392,548.768941 C368.319671,547.099442 367.951325,545.428758 367.584166,543.758786 Z M149.55845,508.745057 C148.557432,508.859533 147.555226,508.962159 146.551596,509.052696 C142.526458,509.415405 138.487225,509.59756 134.447956,509.713372 L132.562184,509.764789 C128.798216,509.866027 125.010142,509.955209 121.253276,509.751165 C119.35336,509.648303 117.404997,509.424565 115.568017,508.909068 C117.184132,517.370089 118.015345,525.985641 117.989459,534.595741 C118.494124,535.03184 118.392003,535.751639 118.257822,536.30245 L118.384387,536.676703 C118.678883,537.552141 118.960197,538.442414 119.072411,539.338312 C130.734802,546.260427 140.417008,539.170746 151.050358,534.207045 C149.297924,529.658111 148.76476,524.670472 148.471223,519.839734 C148.307593,516.082177 148.589018,512.415395 149.55845,508.745057 Z M170.757228,531.088467 C170.271325,531.143453 169.82057,531.447774 169.427288,531.716069 C167.805235,532.875285 166.404047,534.247336 165.12398,535.731019 C165.615583,536.214757 166.116685,536.69091 166.627288,537.158057 C168.543115,535.617491 170.047847,533.471129 170.757228,531.088467 Z M294.712444,487.098932 L293.133444,487.62975 C283.385563,490.89419 273.435824,493.95816 263.081232,494.873098 C263.636957,495.422724 264.104811,496.074501 264.515668,496.766571 C264.873802,497.070418 265.234785,497.458166 265.13314,497.918439 C265.465625,498.589415 265.760112,499.269634 266.040349,499.911931 C267.678314,503.799369 269.568967,507.624948 270.949493,511.627099 C271.350137,513.297783 272.925405,515.633991 272.191325,517.251584 C283.199433,522.035632 296.892835,519.904912 305.302097,511.153079 L305.005531,510.716553 C300.173228,503.572256 295.926414,495.723807 294.712444,487.098932 Z M324.569612,507.294793 C323.902266,506.720992 322.731444,508.304456 322.434582,508.697892 C321.337381,510.155267 320.582165,511.750345 320.02169,513.419132 C320.726558,513.901685 321.436889,514.354848 322.154344,514.817254 L322.193751,514.751246 C322.861065,513.601533 325.261491,508.024049 324.569612,507.294793 Z M115.225082,507.171548 L115.236719,507.230563 C115.827593,507.322286 116.419654,507.404292 117.014327,507.471603 C118.458738,507.635376 119.922148,507.708139 121.380095,507.738713 C119.328187,507.442924 117.274853,507.20307 115.225082,507.171548 Z M130.869819,229.034666 L130.384031,228.985768 L129.759925,228.909063 C121.74895,227.915355 113.67611,226.588274 105.609137,227.878695 C106.726287,233.036507 106.800858,238.441284 107.161842,243.725185 C108.883586,294.619055 115.083696,345.803523 108.137067,396.577641 L107.922521,398.116124 C105.390409,416.173918 102.377618,434.29452 103.590477,452.592642 C104.536397,469.271037 107.937245,485.66668 111.316007,501.987902 C112.128221,502.19173 112.940434,502.395559 113.755023,502.594884 C113.778772,502.368303 113.919841,502.498184 113.947389,502.642049 C123.95448,505.308412 134.398551,505.537601 144.680892,504.86781 C146.619756,504.756653 148.549832,504.599278 150.487508,504.467026 C151.980841,503.818804 153.577245,503.405696 155.196923,503.121046 C158.612258,451.328667 163.084658,398.945185 179.137754,349.289451 C189.357398,317.744365 202.12174,287.025969 209.674616,254.672678 C209.935854,253.76493 211.313293,254.146516 211.089578,255.063745 L210.853733,256.304289 C208.936192,266.436877 207.207771,276.601692 204.221859,286.505495 C206.488696,284.040828 209.074005,281.865313 211.213547,279.28617 C211.880892,278.473225 212.493615,277.617619 213.021079,276.705367 C213.520994,275.57483 214.323946,274.689597 215.566728,274.425331 C216.136702,274.195194 216.666304,274.678695 216.85392,275.155085 C217.376655,276.469949 217.156197,277.407844 216.394872,278.56653 L216.20458,278.851719 C212.846673,283.805539 207.472282,286.698622 203.036787,290.586808 C199.323878,302.957546 195.050494,315.152423 190.860706,327.366261 C190.808221,329.796088 191.250426,332.194866 191.962656,334.511876 C192.77392,336.89359 193.5004,339.417273 194.74627,341.650618 C212.069221,377.790855 220.798619,417.16936 231.324149,455.624 C234.094701,465.879661 236.9004,476.130819 239.921503,486.316562 L239.96492,486.502154 C240.65308,489.37318 241.727011,490.528136 244.880044,490.523727 C260.678551,491.248977 276.900265,488.674574 291.292597,482.332897 C283.364964,461.217911 277.860197,439.366534 273.580163,417.221739 C271.420672,406.75348 269.67085,396.202505 268.197228,385.610527 C266.145082,372.086972 264.334463,358.533079 262.500095,345.046972 C258.746338,318.615613 258.911393,291.719479 254.127881,265.449761 C252.494192,265.503325 251.093954,263.566005 252.087847,262.119533 C251.74135,260.680882 252.050561,259.108795 252.565201,257.77988 L252.503454,257.490964 C246.899416,262.458458 239.585693,263.087008 243.338975,253.537637 L243.598103,252.888917 C246.416555,245.88225 250.00241,238.396512 248.411511,230.710964 C232.155837,239.370363 212.285812,237.9739 194.814904,234.178421 C196.175718,239.116762 192.509832,242.144091 188.374192,238.828558 C187.628475,238.226552 186.897008,237.603216 186.17979,236.958786 C187.231155,241.119971 186.666643,245.480955 185.695311,249.605404 L185.602707,250.081048 C185.129657,252.555426 184.593214,255.839679 182.707695,257.55235 C181.332631,258.799023 179.261723,258.26812 178.644014,256.488175 C178.299179,250.600846 176.654327,244.809032 173.642724,239.688904 C174.146202,243.431293 174.022707,247.275832 173.098874,250.864164 C172.74264,252.236452 172.248662,253.637181 172.132054,255.056634 L172.149897,255.289252 C172.32715,257.790695 171.994071,260.088018 168.868712,260.138366 C161.457856,258.834574 166.133072,241.329962 161.414395,235.79483 C159.980672,242.475431 161.650935,251.257364 155.135176,255.692058 C153.335006,256.815486 151.138229,256.163708 150.772258,253.983216 L150.901857,252.269327 C151.679309,241.813002 151.534171,238.679052 144.816261,228.876507 C140.260752,229.965974 135.490231,229.499864 130.869819,229.034666 Z M262.88649,497.766753 C262.89124,497.807045 262.893615,497.844966 262.89599,497.885258 C262.97357,497.964261 263.05115,498.044423 263.128026,498.125533 L263.242724,498.247883 L263.10973,497.920809 C263.036109,497.873644 262.960112,497.819132 262.88649,497.766753 Z M256.770426,264.441995 L256.464979,264.699107 C256.413796,264.74176 256.36234,264.784237 256.310409,264.826425 C256.581384,266.032569 256.834785,267.24132 257.080587,268.451493 L257.032852,267.654428 C256.988441,266.870399 257.113123,265.447865 256.770426,264.441995 Z M251.823227,157.25784 C249.531101,146.610169 247.246461,142.116915 250.14934,157.452608 L250.464459,159.109017 C251.721799,165.749358 253.046649,173.277323 254.290916,181.381649 L254.550395,183.078315 C255.849105,191.481103 257.890706,203.781531 258.04155,213.635811 C258.212699,224.816525 252.525892,228.134579 250.278178,229.583034 C249.857584,230.812642 250.391461,231.838658 250.746032,233.019679 C251.223386,234.915759 251.34688,236.738129 251.211036,238.686352 C250.739145,245.333535 247.181079,251.337236 245.564014,257.645021 C247.636109,257.076908 249.947593,255.213061 251.757737,253.736726 C254.971919,251.183654 257.215006,247.401922 258.1842,243.391001 C258.64493,241.497291 258.31007,239.158239 259.602012,237.605586 C259.981995,237.148157 260.803708,237.193189 261.190816,237.605586 C262.245269,238.726881 262.145523,240.101302 261.974531,241.535212 C261.400044,246.413827 259.250528,251.196689 255.787932,254.70823 C255.624777,256.510217 255.086151,258.116671 254.728729,259.830253 C254.866473,260.21421 255.004217,260.597929 255.134836,260.984492 C257.480282,258.961849 259.441232,256.516142 260.960451,253.821812 C267.740774,241.935996 265.373004,228.248667 263.617958,215.286352 C263.265761,216.154283 262.463047,216.499843 261.682419,216.41452 C261.233704,217.535255 260.061251,216.820871 260.01469,215.371543 C259.72454,206.339904 258.52247,193.499359 256.310409,180.346344 C254.992342,172.509058 253.395848,164.563177 251.823227,157.25784 Z M166.199807,198.269032 C162.836719,208.686808 149.582673,210.718932 141.840519,217.073407 C145.72917,227.312952 156.61331,238.278932 153.411003,251.487263 L153.39308,251.586771 C153.296814,252.09294 152.981147,253.520352 153.320757,253.788631 C153.536872,253.959278 154.866813,252.662833 155.09979,252.406862 C159.756957,246.874811 157.04744,239.051821 159.666473,232.74451 C160.010833,231.905495 161.084285,231.410144 161.811003,232.180427 C165.086332,235.643862 165.87795,240.313752 166.379732,244.876199 L166.396923,245.03348 C166.800417,248.582232 166.57884,252.238585 167.631868,255.689688 L167.671523,255.811305 C167.895391,256.478361 168.314161,257.418607 168.781316,257.588139 C170.070884,258.054811 169.586405,255.992824 169.631528,255.177747 C169.766897,252.82163 170.769103,250.615304 171.120587,248.294975 C171.871053,243.317765 171.122962,238.096197 169.467661,233.377327 C168.942809,231.879424 171.008967,231.348758 171.806931,232.393736 C175.119908,236.735759 177.77504,241.561521 179.525337,246.739953 C180.23068,248.828248 180.605913,250.942377 181.076142,253.07049 C184.009612,244.181666 183.925065,234.836835 177.281062,227.549251 C175.708882,225.665021 178.32839,222.948886 180.02169,224.816525 C181.777686,226.905294 183.496872,229.017054 185.405574,230.971912 C187.287915,232.865386 189.102097,235.19709 191.43068,236.548521 C191.052597,228.040098 181.90688,224.196033 177.029086,218.369852 C172.056533,212.502906 169.337279,205.185222 166.199807,198.269032 Z M122.245269,126.417072 C120.464573,131.823034 118.378466,137.132769 116.769001,142.595376 C116.434616,146.292496 117.57504,147.825951 120.295481,150.172824 C121.472716,143.466862 121.960282,136.665386 122.589628,129.886899 C122.49392,128.728157 122.474684,127.55946 122.245269,126.417072 Z M123.12398,123.76019 L122.945863,124.30792 L123.004938,124.412382 L123.062232,124.518622 L123.12398,123.76019 Z M231.671596,56.1127876 L232.351677,60.5882191 C234.850046,76.9983943 237.427488,93.4058809 240.973581,109.627756 C241.169035,110.521521 242.322283,109.321539 242.110205,107.590892 C239.929283,89.7915759 231.702333,55.9024491 231.670051,56.0964253 L231.671596,56.1127876 Z M210.679196,20.1254221 C210.838314,20.3147931 210.987932,20.5138815 211.132801,20.715577 C211.101927,20.5352124 211.071053,20.3527147 211.037805,20.170217 C210.916685,20.1559964 210.797941,20.1420128 210.679196,20.1254221 Z" id="ðŸ–-Ink" fill="#000000"></path>
                </g>
                <g id="Head" stroke-width="1" transform="translate(95.945717, 42.661805)">
                    <g id="head/Long">
                        <path d="M102.571813,64.0052689 C101.671729,49.2627712 96.8782426,32.5485871 82.7704224,25.3103008 C51.6690483,12.8535278 10.7771739,44.223227 8.61222053,76.2698268 C7.85747922,87.2395989 13.9604818,99.226381 25.1132214,102.276226 C27.5928482,105.554786 31.3428058,107.557046 35.044078,109.294804 C79.1285225,132.120529 107.605164,113.565725 102.571813,64.0052689 L102.571813,64.0052689 Z" id="ðŸŽ¨-Background" fill="#FFFFFF"></path>
                        <path d="M112.614884,54.8346636 C111.056953,50.5163409 109.411152,46.2311996 107.679854,41.9792397 C105.993679,37.8410447 104.470642,33.6134051 102.376716,29.671309 C89.8705242,6.12673291 67.1285394,6.12673291 55.3728142,9.20312306 C49.2764614,6.58179216 37.8578098,7.3212028 31.5098796,9.68662352 C21.2332383,13.5159945 8.70591009,28.5798778 4.4227888,35.3479362 C-5.03380153,50.2911814 -10.9354131,70.1803519 -4.65381849,87.4479544 C-3.83281764,89.7047639 -2.78572689,91.7949553 -1.60682952,93.8093036 C-2.34945886,94.8137521 -3.20418321,95.7651103 -4.15105344,96.6998778 C-6.96482782,99.4781094 -9.77860221,102.164855 -12.2093062,105.298365 C-14.6248109,108.412439 -16.6273215,111.723943 -18.1180424,115.375083 C-20.9289669,122.260698 -21.0643359,130.05738 -17.3481018,136.627535 C-14.1149211,142.344217 -8.38738931,146.601154 -1.93456489,147.007152 C-1.60326718,147.053132 -1.27149449,147.09532 -0.938296862,147.128738 C-0.0833350297,148.534208 0.959243427,149.828283 2.14906531,150.95645 C5.79452757,154.416797 14.4842646,156.192002 19.4406684,156.305767 C19.694782,156.509595 19.9512706,156.713424 20.2077591,156.914882 C23.2404987,159.296833 26.4228567,161.700115 29.9044512,163.394737 C32.2627209,164.544235 35.3548329,165.504126 37.8152231,164.674591 C38.9314232,165.418802 40.7624665,165.262376 41.8691671,164.65326 C43.6883359,163.653077 45.1678948,161.851801 46.0679796,160.007863 C48.2505072,155.530744 47.7256556,150.631747 47.1651807,145.848884 C46.5477082,140.565931 45.9539847,135.280607 45.3507617,129.997654 C44.8781578,125.866569 44.3841798,121.666751 43.125486,117.687353 C42.4747651,115.625366 41.6221781,113.643962 40.5202273,111.781063 C40.548726,111.624636 40.5439763,111.46821 40.4988533,111.321263 C40.1378694,110.150434 39.3921527,109.536578 38.5086921,108.740224 C38.3946972,108.63831 38.2807023,108.534026 38.1690823,108.427371 C37.727352,107.92491 37.2547481,107.458 36.7488957,107.062193 C36.5541544,106.865475 36.361788,106.666387 36.1694215,106.467298 C34.5711179,104.796377 33.0606853,103.040133 31.7188702,101.158273 C30.4174283,99.3332963 29.2418558,97.4277356 28.1232807,95.4866235 C26.9857065,93.51233 26.2328651,91.3342078 25.0976658,89.3741349 C25.0002952,89.2058578 24.7533062,89.1726764 24.6155623,89.3125123 C24.264078,89.6751376 24.0384631,90.0780547 24.0812112,90.5023026 L23.905469,90.5283737 C23.838972,89.8884467 23.2476234,89.3670246 22.4449092,89.5068605 C21.2432129,89.7154294 20.255257,89.7936427 19.2150534,89.3954658 C19.3979203,88.1843446 19.5665377,86.9708532 19.7327803,85.7549918 C20.0367668,83.5176171 20.3193791,81.2731322 20.5616183,79.0286472 C21.1482171,79.1684831 21.7300662,79.3699417 22.3000407,79.6259125 C23.1122545,79.9885378 23.8793452,80.4767785 24.5348159,81.0764139 C25.1807871,81.6689389 25.6272672,82.4676627 26.415732,82.8800602 C27.3229415,83.3517101 28.4177676,82.5719471 28.1517795,81.5480638 C27.6126785,79.4789663 24.5609398,78.2939161 22.6728991,77.9028496 C22.024553,77.7677539 21.3619576,77.7108715 20.6993622,77.7250921 C20.8489805,76.2840711 20.9819746,74.8430501 21.0912197,73.3996591 C21.1434673,72.7170702 21.1909652,72.0344813 21.2360882,71.3495223 C22.7037727,70.9063136 24.2759525,70.773588 25.8030093,70.9821568 C26.3064869,71.3827037 26.8099644,71.7785105 27.2968176,72.1790574 C28.8428736,73.4541714 30.3818049,74.7363956 31.9017371,76.0423209 C32.0394809,76.1584558 32.1748499,76.2745907 32.3125937,76.3930957 C33.2150534,77.1681185 34.3407532,76.400206 34.18876,75.3028496 C32.9490653,66.3106892 38.4683189,59.1577265 44.9304054,53.6164321 C52.0835861,47.4802425 65.0885055,46.7657273 73.5953757,36.1369426 C77.5132621,36.9327253 86.2606853,39.2962862 89.8705242,45.0366691 C94.9242986,53.0807894 94.264078,60.2882644 94.6488109,69.4131504 C95.0335437,78.5451468 96.012,88.0705798 93.9339678,97.0745907 C92.0174283,105.377052 86.828285,112.470762 78.7773944,115.73202 C78.5779033,115.812603 78.3760373,115.890817 78.1741713,115.96666 C74.0109822,117.533296 69.46781,117.976505 65.0885055,117.15171 C60.2413469,116.236851 56.1945276,114.023178 52.1619576,111.299933 C51.929218,111.145876 51.5896081,111.463469 51.7653503,111.695739 C57.080363,118.725457 67.5203969,121.074226 75.8016522,119.218438 C76.18876,119.130744 76.5734928,119.03594 76.9558507,118.931655 C75.1034334,124.24779 75.4762918,130.082977 77.8891841,135.259276 C79.3402443,138.373588 81.5536455,141.068392 84.2491501,143.194372 C87.2201425,145.536031 90.9059779,147.427371 92.9673859,150.7147 C94.8554266,153.727098 94.2949517,157.111601 91.0627209,158.851254 C90.2481323,159.292093 89.9346463,160.716523 90.7421103,161.34223 C91.0508465,161.57924 91.3595827,161.82099 91.6754436,162.058 C93.4851128,163.420808 98.4557659,165.980516 99.260855,166.07532 C106.409286,166.921446 111.216071,161.683524 114.296309,155.504673 C117.913272,148.252166 116.972814,139.414062 112.987742,132.50759 C109.791135,126.966295 103.495291,121.505584 105.998429,114.492458 C106.891389,111.987262 108.717683,109.851801 110.491729,107.92254 C112.515138,105.725457 114.690541,103.66821 116.63083,101.392913 C118.559243,99.1342078 120.269167,96.6764139 121.223874,93.8417739 C122.617937,89.6988387 121.924468,85.2193491 120.87714,81.0835242 C118.632865,72.2051285 115.71887,63.4452379 112.614884,54.8346636 Z" id="ðŸ–-Ink" fill="#000000"></path>
                    </g>
                    <g id="face/Explaining" transform="translate(37.760814, 44.083865)" fill="#000000">
                        <path d="M21.2032672,51.0258177 C24.1115623,47.653165 29.0097812,47.4182881 33.0672875,48.2615697 C35.6711213,48.8029006 38.2063206,49.7044868 40.8510025,50.0386709 C42.0861849,50.1948605 43.3346667,50.2415515 44.5788736,50.2185615 C45.8009941,50.1960456 47.0250144,49.9502662 48.2428601,49.9960091 C48.4300017,50.0028824 48.5007735,50.2481878 48.3385683,50.347969 C46.6678304,51.3720893 44.4171433,51.7005852 42.4436064,51.9008587 C42.4497812,52.0466199 42.4585683,52.1888259 42.4787549,52.309464 C42.532665,52.6310866 42.5818253,52.9505761 42.621486,53.2743318 C42.7110195,54.0045597 42.81124,54.7324175 42.9112231,55.4612233 C43.1083143,56.8955581 43.1702694,58.3752019 43.516901,59.7846822 L43.5773808,60.0189262 C43.6576522,60.3151887 43.6759389,60.582299 43.6491026,60.8231012 L43.729374,60.7868387 L43.9829049,60.6642755 L44.1491366,60.5860021 C44.7556791,60.3053897 45.3344242,60.1010194 46.0475081,60.1691905 C46.5904088,60.2208587 47.046151,60.5903573 47.0494758,61.1688988 C47.0630127,63.7653437 43.5567193,64.60033 41.5511213,65.09734 L40.9629618,65.2419462 C38.4100756,65.8633419 35.8035386,66.4080732 33.1779576,66.538361 C28.9644207,66.7471668 24.2295946,65.5872397 21.4732926,62.1764284 C18.9015199,58.9940948 18.4301035,54.2415697 21.2032672,51.0258177 Z M40.3380254,61.9349152 C39.8959027,58.0258198 35.0823374,57.8108753 33.6976034,60.2898247 C33.0831248,56.8344337 23.9930551,59.991196 24.7038609,60.678051 C27.3979406,63.2818432 31.4863206,63.5162461 35.0009262,63.0346418 C36.7908838,62.7893364 38.5822663,62.3899745 40.3380254,61.9349152 Z M34.9959238,51.6890767 L33.7857515,51.515234 L33.3091158,51.4497203 C30.3089935,51.0487666 26.9350918,50.8416693 24.4685089,52.7612051 C23.5679491,53.4618067 23.0611467,54.3757174 22.8718677,55.3574129 C25.2058145,55.0121881 27.5483423,54.7488156 29.8978047,54.5295061 L30.5387379,54.4707584 C32.0087973,54.3385068 33.4781442,54.1991449 34.9467786,54.0529098 L35.9905742,53.9474699 L37.0338355,53.8393637 C37.4009941,53.8009681 39.8753961,53.6746418 40.3406378,53.7594913 C40.3902731,53.3423537 40.4551077,52.4395825 40.560078,52.0335843 C38.8021617,52.0931265 37.0518926,51.9628278 35.3042964,51.7310198 L34.9959238,51.6890767 Z M40.5665861,34.2164632 C42.3599585,35.3043501 45.0925072,37.84109 43.1632513,40.538094 C40.8923326,42.9161315 37.6227224,40.1895491 36.0115152,38.956422 C34.5175283,38.0007416 32.8389503,40.45868 34.2250722,41.574598 C45.8676895,50.1769329 50.5925102,34.5009305 41.4736488,32.937375 C40.4696294,32.7650779 40.0967341,33.8799135 40.5665861,34.2164632 Z M43.7759695,38.7994658 L43.8621768,38.7526882 L43.891307,38.7350966 C43.9417261,38.7025278 43.9096193,38.7060156 43.7949866,38.7456639 L43.7089975,38.7764758 L43.7089975,38.8371504 C43.731084,38.8236408 43.7545954,38.8134494 43.7759695,38.7994658 Z M20.8081861,29.1341924 L20.8078798,29.0807973 C20.8112047,27.569435 21.6932427,24.1186655 23.8734215,24.1186655 C25.2354178,24.1186655 26.0623238,26.4671516 26.2054742,28.8881035 L26.2104462,28.986812 C26.2736609,30.4919502 25.8597843,33.7819201 23.8734215,33.7819201 C21.8660376,33.7819201 20.8288257,30.6659089 20.8081861,29.1341924 L20.8081861,29.1341924 Z M52.9061347,28.6601724 L52.906441,28.6067773 C52.9031161,27.0954149 52.0210781,23.6446455 49.8408994,23.6446455 C48.512953,23.6446455 47.6936768,25.8771751 47.5208626,28.2326835 L47.5088466,28.4140835 C47.4228529,29.8684049 47.8098992,33.3079001 49.8408994,33.3079001 C51.8482832,33.3079001 52.8854951,30.1918888 52.9061347,28.6601724 L52.9061347,28.6601724 Z M22.0521018,13.814082 C23.8313723,13.5441276 26.1875047,14.0570173 27.0170551,15.8625597 C27.3865886,16.6669717 26.9488957,17.5564704 26.0172248,17.6010283 C23.7655878,17.7086308 21.7462154,17.2085397 19.7698287,18.6697065 C18.9192712,19.2986449 18.2041739,20.1694511 17.604088,21.0380585 L17.3770331,21.3686229 L17.1889783,21.6409603 C16.781504,22.2388188 16.395653,22.8883689 16.4559016,23.6097065 C16.4737133,23.8232525 16.2549856,24.0258961 16.0471824,24.0173637 C14.7519152,23.9642735 14.6125089,22.3435989 14.7827888,21.3701987 C15.0995997,19.5637083 15.975698,17.8679015 17.1899813,16.5020128 C18.4652994,15.0676281 20.1488617,14.1029973 22.0521018,13.814082 Z M46.5584427,16.0065433 C47.785313,15.219433 49.3546429,14.9170082 50.7919288,15.0329061 C53.6258897,15.2606727 58.38019,17.6649025 57.7544054,21.1193236 C57.5613265,22.1846837 56.0765428,22.7468715 55.2016319,22.1557685 C54.2609364,21.5203446 54.0319966,20.5327238 53.3318779,19.7022407 C52.7733028,19.0388496 52.0653469,18.5589043 51.3072807,18.150062 C50.5600891,17.7467957 49.6956659,17.5024298 48.8476887,17.413337 L48.7065344,17.3999253 C48.1961696,17.3565524 45.6189347,17.3681659 45.9972553,18.3282935 C46.071352,18.5162425 45.7911145,18.6650848 45.6623953,18.5228788 C44.872268,17.6506819 45.7671281,16.5142188 46.5584427,16.0065433 Z" id="ðŸ–-Ink"></path>
                    </g>
                    <g id="facial-hair/*-None" transform="translate(29.211196, 80.109389)"></g>
                    <g id="accessories/*-None" transform="translate(11.162002, 57.119417)"></g>
                </g>
            </g>
        </g>
    </g>
</svg>