<?xml version="1.0" encoding="UTF-8"?>
<svg width="304px" height="677px" viewBox="0 0 304 677" version="1.1" xmlns="http://www.w3.org/2000/svg" xmlns:xlink="http://www.w3.org/1999/xlink">
    <!-- Generator: Sketch 62 (91390) - https://sketch.com -->
    <title>peep-standing-6</title>
    <desc>Created with Sketch.</desc>
    <g id="Introduction" stroke="none" stroke-width="1" fill="none" fill-rule="evenodd">
        <g id="variations-standing" transform="translate(-661.000000, -1712.000000)">
            <g id="a-person/standing" transform="translate(621.000000, 1658.000000)">
                <g id="pose/standing/resting-2" transform="translate(-28.736217, 150.264357)">
                    <path d="M124.919624,125.506028 L124.583577,129.507468 L124.332788,129.038662 C124.297164,137.110513 123.09903,145.270768 121.777639,153.324369 C118.323594,150.489018 115.48417,147.989273 116.304221,143.149291 C118.381304,136.251588 121.045222,129.523111 123.198776,122.662855 L123.55976,124.461761 L124.981371,124.747595 L124.919624,125.506028 Z M371.602237,550.734013 C370.96624,547.929473 370.272058,544.959975 369.621812,542.147851 C369.55769,541.910367 368.962304,541.856802 368.770413,541.79281 C365.332041,533.388197 362.323288,531.472682 355.663848,530.329346 C344.92529,528.39013 334.328276,524.186283 324.183916,517.955763 C324.420693,517.02858 325.068089,515.427814 325.656588,513.718024 C325.579879,513.744332 325.502457,513.767322 325.422661,513.782728 C325.286579,513.809036 325.158572,513.815198 325.036503,513.806666 C324.348496,515.419282 323.599692,516.835891 323.20356,517.358024 C321.936554,516.542472 320.526579,515.645152 319.284985,514.77817 L319.290209,514.763001 C318.185171,513.998407 316.81937,513.053922 315.737368,512.464952 C315.534552,511.346976 313.8935,511.000467 313.036164,510.262181 C311.371838,509.075234 310.448717,508.463275 308.922135,509.978717 C305.629344,505.709929 302.9773,501.195836 300.370142,495.360412 C298.738589,491.949601 297.937063,488.172846 295.743373,485.127267 C295.785409,485.103566 297.179946,484.670075 297.214145,484.630968 C272.284883,429.50291 268.290786,368.160449 262.973161,309.233357 C261.800201,296.055836 260.573093,282.756729 258.286545,269.965535 C257.972822,268.028452 257.691159,266.120759 256.523424,264.576164 C270.532924,253.053448 270.66948,230.718808 263.883695,214.153229 C279.485799,172.140595 248.903102,127.519191 251.159963,84.6421807 C252.425069,55.5579692 247.180354,21.8586985 214.267885,14.8804123 C210.186393,12.535435 205.293399,12.1853712 201.39881,12.1220896 C197.892516,10.3539948 197.339879,6.45020259 196.091634,3.24108682 L194.871889,3.24867114 C194.513992,1.7962737 194.159658,0.203803324 193.851872,-1.25949659 C193.389005,-2.18739084 193.663305,-3.396616 192.20512,-3.13946012 C188.900218,-7.91568619 162.451261,-10.3168348 162.150837,-2.62633341 C161.19613,-2.06438264 161.007563,-0.967500231 160.785273,0.364496122 C159.318539,9.80981973 149.21384,17.3422354 140.109209,15.8232381 L139.961728,15.6902755 C101.200608,14.2563649 85.9416768,41.7817614 78.3674274,79.2947605 C72.4494291,108.44178 68.6878345,140.029291 73.3222026,169.224423 C77.849938,182.455271 91.5642383,188.82136 102.174315,196.972135 C100.951244,200.048762 100.837012,203.442983 100.799726,206.772026 C100.659845,210.614906 100.379845,214.489072 100.039285,218.280759 C99.3415411,223.086137 98.2120415,231.357076 104.764849,231.918079 C107.303373,289.349163 112.605561,346.62951 104.503611,404.228161 C97.7776734,436.081834 100.352533,474.624405 108.6687,505.79075 C109.148428,507.330604 110.380761,508.716164 111.95484,508.223894 C112.75423,508.739628 113.378589,509.063147 114.039522,508.576091 C114.429005,509.296128 114.855773,509.98796 115.317215,510.658698 C115.49177,519.221397 116.464289,527.622217 116.021609,536.240376 C115.361388,536.164059 113.909141,535.438097 113.344866,535.913065 L113.26412,536.569583 L112.726918,536.753028 C111.602406,539.919719 110.896825,543.244259 110.374824,545.925554 C108.099438,550.5226 105.19233,558.657495 106.813432,563.778097 C106.734824,563.869109 106.298318,564.375836 106.229684,564.452627 C105.842338,564.674232 105.770854,564.97002 105.676333,565.309656 C104.572008,565.723238 104.458725,566.982946 104.344968,568.271096 C103.791855,571.392281 104.613568,574.229291 104.895943,577.282691 L104.912567,577.262308 C104.912567,577.262308 105.839726,578.335016 105.841151,578.336438 C117.493568,579.044387 128.967868,579.225936 140.568513,579.642126 C141.443899,577.968361 141.707512,575.7061 142.365358,573.867377 C156.118369,583.911151 179.946868,580.068981 197.221609,577.602181 C204.237046,576.592518 210.8649,575.638553 216.7411,575.320959 C217.123458,575.268343 217.150769,575.103858 217.160744,574.951935 C217.218454,572.653174 217.651634,570.296347 217.435519,568.065134 C218.648852,566.888379 218.09574,564.744624 217.261914,562.861816 C214.195689,556.232409 205.861473,555.506921 199.109175,554.375909 C186.405867,551.914797 176.190973,547.285754 167.927529,540.209346 C168.483492,539.707358 168.988157,539.214378 169.447936,538.732062 C169.268394,538.612609 169.088852,538.493393 168.909785,538.372755 C168.474942,538.182436 168.059098,537.987377 167.67769,537.741123 C167.483424,537.850148 167.239997,537.872427 166.999658,537.737805 C166.169158,537.272317 165.492313,536.58807 164.703373,536.064514 C164.546868,536.288963 164.38965,536.517678 164.231482,536.756584 C163.47484,535.960704 162.618454,535.059355 161.870125,534.224843 C161.843288,533.994232 161.904086,533.419008 161.622186,533.356201 C159.494756,533.570932 157.030566,534.286702 154.805053,535.081871 C152.289565,526.830367 150.832567,517.900066 151.00071,509.467012 C153.474399,509.467249 155.641015,509.444259 157.485595,508.270348 C157.989785,508.405681 158.692279,508.697441 158.822661,507.906301 C159.571227,504.676802 159.765731,501.257696 159.95406,497.951406 C163.782864,435.403512 169.616554,385.143165 188.965765,332.158863 C190.823882,339.515654 193.943543,347.167049 196.782491,354.490658 C209.698114,385.097659 219.002949,418.105809 226.97903,450.231333 C230.117215,462.256274 233.528513,475.469583 236.897775,487.369619 C238.204442,493.09033 240.860523,495.184314 246.426562,495.138808 C250.715621,495.339792 255.019404,495.277459 259.325799,494.975745 C265.196774,500.318662 267.604204,507.53064 269.319353,514.024715 C267.890379,515.085572 265.622355,514.685262 263.951617,515.035563 C262.511007,517.353521 263.009497,520.594633 263.04322,523.453922 C263.26931,527.168817 263.076706,531.154378 264.160133,534.661652 C264.353687,538.498133 264.377673,542.700795 264.666698,547.161087 C261.483865,549.003603 262.066902,553.074487 263.123967,556.969036 C263.596333,557.959975 280.702695,557.763493 284.946155,557.722254 C289.932483,557.43239 297.043153,558.704186 298.678267,553.246793 C310.54965,559.829984 328.610243,557.605645 342.440676,555.668325 C352.478165,554.447249 361.571634,553.31126 371.428632,551.240029 C371.530515,551.195472 371.673721,550.878826 371.602237,550.734013 L371.602237,550.734013 Z" id="ðŸŽ¨-Background" fill="#FFFFFF"></path>
                    <path d="M161.554514,-4.6918979 C162.321605,-4.84619143 162.981825,-4.6186618 163.447304,-4.19891705 C163.54705,-3.16318323 163.535176,-2.13005652 163.449679,-1.0966928 C163.364183,-1.02321969 163.269187,-0.951879672 163.164692,-0.885753874 L163.24414,-0.936392548 C163.315943,-0.98285392 163.365371,-1.01711668 163.397432,-1.04218049 C162.385727,5.69293345 157.701723,11.4221768 151.629832,14.4677557 C151.254124,15.0863519 150.404387,15.0444011 149.794039,15.3233619 L148.936332,15.5928672 C146.574569,16.3320844 144.184296,17.0307309 141.686151,17.0772361 C148.038042,34.8887767 172.877771,44.5656591 190.449612,45.8805907 C205.625184,46.6790775 214.046321,34.1154129 210.042724,20.0235077 C201.251558,18.8878505 192.608662,9.55153484 195.795284,0.529911871 L195.895481,0.256634458 C195.916855,0.164437557 196.040349,0.197381951 196.049849,0.27796536 C196.14722,1.19756427 196.69582,2.20983409 196.940197,3.1081021 L197.052806,3.42712925 C197.89831,5.85955357 198.648625,8.76007354 201.037126,10.054629 L201.445705,10.0639405 C205.742102,10.1757752 210.22813,10.7422972 214.011172,12.8658049 C218.229459,13.6932069 222.261554,15.3615205 226.015311,17.428485 C255.65945,33.4949207 250.914887,67.6679745 251.838483,96.1271905 C254.714718,135.124109 278.515193,174.095194 264.477669,213.245933 C270.887271,229.550089 271.382911,251.463325 257.393598,263.901849 C257.547254,264.142888 257.676685,264.407154 257.785218,264.677582 C258.451173,266.3366 258.657303,268.237594 258.97152,269.998768 L259.008288,270.201338 C259.76493,274.296397 260.309255,278.433881 260.841232,282.563307 C261.8906,290.709191 262.652819,298.891355 263.379058,307.072076 L263.482589,308.240737 C265.300807,328.803964 266.888899,349.41317 269.273768,369.924018 L269.719074,372.964045 C272.947378,394.922563 276.463089,416.932625 281.758823,438.450016 C281.915091,439.026899 282.070409,439.603781 282.229764,440.179716 C284.138229,447.082396 286.384641,453.868704 288.495684,460.707628 C289.164217,462.872952 289.904709,465.005331 290.685337,467.120171 L291.655595,469.524436 C291.817581,469.925001 291.979891,470.325416 292.142809,470.725568 C293.864132,474.952168 295.69755,479.131129 297.627864,483.266479 C297.976024,484.01235 297.468984,484.699679 296.871461,484.890946 C298.633869,487.681739 299.298365,491.005094 300.770799,493.967719 C302.876617,498.691092 305.371444,503.286479 308.484455,507.429652 C310.20649,506.136525 312.130154,507.805787 313.561978,508.759515 C314.481062,509.330709 315.673259,509.75946 316.034243,510.766753 C316.727712,511.16493 317.402182,511.603635 318.041028,512.041867 L318.10484,511.834467 C318.880811,509.355533 320.399447,506.028565 322.866575,504.922086 C325.751359,503.711438 328.052631,506.124912 327.18912,509.013116 C326.659756,511.59297 325.83353,514.063799 324.951969,516.552405 C333.826089,521.901141 343.530493,525.957608 353.738958,527.992778 L354.087169,528.061375 C356.549934,528.549852 359.053072,528.88854 361.311596,530.056999 C365.052767,532.106899 367.468746,536.003818 368.980129,539.900026 C369.50498,540.028011 369.987084,540.48544 370.103454,540.987902 L371.099425,545.285308 C371.43102,546.717737 371.76113,548.150463 372.08649,549.584492 C372.264607,550.361648 371.849001,551.340737 370.989289,551.513517 C365.063929,552.696434 359.11007,553.732168 353.130087,554.607683 C336.154582,556.176452 314.313157,561.691675 298.550273,553.947847 C296.03526,559.109451 289.032173,557.632879 284.279535,558.022286 C281.392852,557.808977 261.130731,558.908704 261.32381,556.464656 L261.211665,556.044201 C260.315878,552.629671 259.508365,548.041254 262.772495,545.690418 C262.567779,541.836397 262.415549,537.980244 262.352139,534.124091 C261.21504,530.464182 261.412394,526.416762 261.181079,522.595923 C261.211003,519.748722 260.546032,516.460445 262.10515,513.914483 C262.241944,512.226735 266.000214,513.127136 267.244421,512.509014 L267.134587,512.108063 C265.418044,505.896714 263.032209,499.852282 258.212699,495.304219 C254.045947,495.580572 249.867559,495.628923 245.697245,495.434337 C239.346541,495.45946 236.449883,492.712514 235.066982,486.748394 C234.076651,483.249889 233.11007,479.744747 232.157737,476.234392 C224.727881,448.619169 217.981282,420.760536 209.770324,393.359096 C206.631427,384.175905 203.159094,375.104583 199.658025,366.056252 C197.285031,359.923617 194.908475,353.792405 192.533818,347.660244 C191.313835,344.510381 190.111664,341.342268 189.051274,338.135285 C188.724964,337.149324 188.429527,336.157911 188.150477,335.162469 C169.731986,386.248558 163.889985,440.523143 160.63068,494.418038 C160.333818,498.721903 160.281571,503.073407 159.305489,507.285076 C159.006253,508.581758 157.909052,508.939406 156.940095,508.654994 C155.155837,509.598768 153.836346,509.709688 151.539586,509.745477 L151.556605,510.484556 C151.687117,515.780684 152.011921,521.062216 153.216261,526.234027 C153.693615,528.393426 154.548577,530.493098 155.011681,532.642778 C156.883098,532.007829 158.794887,531.529068 160.761299,531.294428 C161.754005,531.175923 162.321605,532.005459 162.361978,532.856325 C162.727712,533.259005 163.09582,533.657181 163.471053,534.052988 L163.660596,533.809561 C165.426461,531.53255 167.69032,528.412836 170.759603,528.156416 C172.156041,528.070855 173.431359,528.857728 173.735583,530.275285 C174.026982,533.53204 171.32364,537.099278 169.042555,539.260098 C177.49409,546.238148 187.96856,550.268503 198.65962,552.324328 L199.077462,552.393248 C205.935844,553.513221 214.39591,554.39644 217.666134,561.477418 L217.734893,561.629526 C218.502023,563.355196 219.227128,565.970922 217.977245,567.551985 C218.124964,569.711858 217.725031,571.934538 217.673259,574.11503 C217.618636,575.001448 217.020163,575.515759 216.172326,575.613881 C194.348475,576.782815 161.083098,586.97709 142.391494,574.847391 C142.006762,576.191001 141.610154,577.532715 141.242046,578.881065 C141.080553,579.47596 140.479705,579.962067 139.850358,579.938366 C128.279874,579.523599 116.671393,579.336124 105.115159,578.632441 C104.778874,578.638603 104.497686,578.488576 104.263759,578.217674 C103.992546,578.549251 103.300027,578.45895 103.207406,577.9873 C103.044251,577.15895 103.043064,576.318986 102.968492,575.479734 C102.882046,574.507993 102.621995,573.611858 102.469527,572.661922 C102.188102,570.907573 102.314684,569.025951 102.489001,567.265914 L102.533554,566.820645 C102.655608,565.657418 102.87274,564.335788 103.926211,563.676719 L103.996109,563.634684 C103.999908,563.632551 104.003708,563.630655 104.007508,563.628758 C104.124115,563.258075 104.400553,562.937874 104.750137,562.683799 L104.770799,562.660098 C104.220299,561.348722 104.432377,559.689652 104.592919,558.322815 C105.03655,553.568394 106.370053,548.863745 108.568017,544.642596 C109.194514,541.432769 109.954243,538.110363 111.083267,535.055541 C111.052394,534.915705 111.228136,534.7972 111.363505,534.858822 C111.41029,534.834173 111.456363,534.815686 111.501961,534.800518 C111.507661,534.753353 111.516923,534.706899 111.531885,534.662578 C111.726863,534.087829 112.329612,533.77379 112.893886,533.684438 C113.371953,533.608831 113.786134,533.735869 114.215277,533.843945 C114.524489,525.546698 113.542232,517.26225 113.441537,508.968084 C112.65141,509.350618 111.764387,509.01122 111.035769,508.572277 C108.922114,508.896981 107.423556,507.098075 106.843844,505.206498 L106.504095,503.673149 C103.45707,489.868549 100.711342,475.943132 99.2351586,461.871821 C97.1946497,442.230089 99.6595522,422.570819 102.654056,403.15946 C110.781893,352.046589 104.894293,300.380299 104.314819,248.987045 C103.830341,243.375832 103.6299,237.702997 103.013377,232.095103 C100.72113,231.823015 98.9881696,229.68163 98.2137167,227.629834 C97.0001459,224.378294 97.8764818,220.626188 98.1828431,217.284346 C98.5224529,213.57988 98.7718168,209.86854 98.9335471,206.154593 L98.952469,205.069893 C99.0077698,202.173915 99.1337506,199.257838 100.097008,196.500937 C89.8244037,188.609214 76.2017744,182.409506 71.8547684,169.216343 C69.8769567,167.438294 70.2752265,159.199114 69.9524784,156.176051 C68.6329873,130.029816 70.8687125,103.710089 76.5337846,78.150928 C83.623793,43.3206454 98.1484071,12.1090319 138.860027,13.600299 C138.829154,13.576835 138.795905,13.5505269 138.765031,13.5244558 C139.194887,13.3822498 139.638992,13.5220857 139.954853,13.8064977 C146.886931,14.6948113 153.512648,10.6078104 156.975718,4.73375387 C157.82593,3.26903191 158.457652,1.74031723 158.794887,0.0788769371 L158.821168,-0.0538417651 C159.17368,-1.88097147 159.273259,-4.23402275 161.554514,-4.6918979 Z M108.960112,564.120317 C107.976193,564.663544 106.899654,564.728485 105.993869,565.452077 C105.357398,568.926644 105.409645,572.531803 106.174361,575.980062 C117.027627,576.096197 127.895142,576.643927 138.743657,577.016033 C139.180638,575.340372 139.593869,573.654994 140.049849,571.984073 L140.060633,571.949706 L140.084522,571.883818 C141.21046,571.921739 142.336634,571.95421 143.463047,571.982414 C160.123878,583.899989 194.642249,573.772314 214.754514,572.778057 L214.96113,569.438585 C214.757601,569.58008 214.555973,569.658768 214.362419,569.686024 C214.549323,569.198494 214.217075,568.563781 213.554005,568.748886 C212.48364,569.047756 211.408051,569.322924 210.328662,569.581265 C210.246728,569.549032 210.153869,569.533863 210.049849,569.542633 C200.608458,570.347045 191.128356,570.271912 181.661079,570.300354 C172.226575,570.328558 162.802046,570.725313 153.366592,570.699242 C149.518076,570.688339 145.669798,570.630746 141.822945,570.516744 C130.742877,568.462815 119.741656,566.039387 108.960112,564.120317 Z M367.584166,543.758786 C367.117176,544.096105 366.507151,544.125043 365.858609,544.213142 L365.76571,544.22617 C365.172699,544.312441 364.5785,544.393736 363.98169,544.439005 C362.507118,545.390126 359.570087,545.260955 358.148237,545.531621 C326.937143,548.644747 295.509221,544.950946 264.266304,547.451402 C262.775108,549.574775 263.138466,552.203216 263.931444,554.575686 C272.655617,554.903234 281.388339,555.080281 290.117025,554.703672 L290.814637,554.678066 C291.892537,554.635791 292.998365,554.558334 293.995226,554.151438 C294.885636,553.788782 295.979655,552.889134 295.840238,551.811701 L295.83102,551.750527 C295.617279,550.513572 296.918721,549.065203 298.184539,549.944985 C310.122419,557.848795 326.342707,553.874611 339.792682,553.096981 C349.484624,552.073098 359.124319,550.615249 368.690392,548.768941 C368.319671,547.099442 367.951325,545.428758 367.584166,543.758786 Z M149.55845,508.745057 C148.557432,508.859533 147.555226,508.962159 146.551596,509.052696 C142.526458,509.415405 138.487225,509.59756 134.447956,509.713372 L132.562184,509.764789 C128.798216,509.866027 125.010142,509.955209 121.253276,509.751165 C119.35336,509.648303 117.404997,509.424565 115.568017,508.909068 C117.184132,517.370089 118.015345,525.985641 117.989459,534.595741 C118.494124,535.03184 118.392003,535.751639 118.257822,536.30245 L118.384387,536.676703 C118.678883,537.552141 118.960197,538.442414 119.072411,539.338312 C130.734802,546.260427 140.417008,539.170746 151.050358,534.207045 C149.297924,529.658111 148.76476,524.670472 148.471223,519.839734 C148.307593,516.082177 148.589018,512.415395 149.55845,508.745057 Z M170.757228,531.088467 C170.271325,531.143453 169.82057,531.447774 169.427288,531.716069 C167.805235,532.875285 166.404047,534.247336 165.12398,535.731019 C165.615583,536.214757 166.116685,536.69091 166.627288,537.158057 C168.543115,535.617491 170.047847,533.471129 170.757228,531.088467 Z M294.712444,487.098932 L293.133444,487.62975 C283.385563,490.89419 273.435824,493.95816 263.081232,494.873098 C263.636957,495.422724 264.104811,496.074501 264.515668,496.766571 C264.873802,497.070418 265.234785,497.458166 265.13314,497.918439 C265.465625,498.589415 265.760112,499.269634 266.040349,499.911931 C267.678314,503.799369 269.568967,507.624948 270.949493,511.627099 C271.350137,513.297783 272.925405,515.633991 272.191325,517.251584 C283.199433,522.035632 296.892835,519.904912 305.302097,511.153079 L305.005531,510.716553 C300.173228,503.572256 295.926414,495.723807 294.712444,487.098932 Z M324.569612,507.294793 C323.902266,506.720992 322.731444,508.304456 322.434582,508.697892 C321.337381,510.155267 320.582165,511.750345 320.02169,513.419132 C320.726558,513.901685 321.436889,514.354848 322.154344,514.817254 L322.193751,514.751246 C322.861065,513.601533 325.261491,508.024049 324.569612,507.294793 Z M115.225082,507.171548 L115.236719,507.230563 C115.827593,507.322286 116.419654,507.404292 117.014327,507.471603 C118.458738,507.635376 119.922148,507.708139 121.380095,507.738713 C119.328187,507.442924 117.274853,507.20307 115.225082,507.171548 Z M130.869819,229.034666 L130.384031,228.985768 L129.759925,228.909063 C121.74895,227.915355 113.67611,226.588274 105.609137,227.878695 C106.726287,233.036507 106.800858,238.441284 107.161842,243.725185 C108.883586,294.619055 115.083696,345.803523 108.137067,396.577641 L107.922521,398.116124 C105.390409,416.173918 102.377618,434.29452 103.590477,452.592642 C104.536397,469.271037 107.937245,485.66668 111.316007,501.987902 C112.128221,502.19173 112.940434,502.395559 113.755023,502.594884 C113.778772,502.368303 113.919841,502.498184 113.947389,502.642049 C123.95448,505.308412 134.398551,505.537601 144.680892,504.86781 C146.619756,504.756653 148.549832,504.599278 150.487508,504.467026 C151.980841,503.818804 153.577245,503.405696 155.196923,503.121046 C158.612258,451.328667 163.084658,398.945185 179.137754,349.289451 C189.357398,317.744365 202.12174,287.025969 209.674616,254.672678 C209.935854,253.76493 211.313293,254.146516 211.089578,255.063745 L210.853733,256.304289 C208.936192,266.436877 207.207771,276.601692 204.221859,286.505495 C206.488696,284.040828 209.074005,281.865313 211.213547,279.28617 C211.880892,278.473225 212.493615,277.617619 213.021079,276.705367 C213.520994,275.57483 214.323946,274.689597 215.566728,274.425331 C216.136702,274.195194 216.666304,274.678695 216.85392,275.155085 C217.376655,276.469949 217.156197,277.407844 216.394872,278.56653 L216.20458,278.851719 C212.846673,283.805539 207.472282,286.698622 203.036787,290.586808 C199.323878,302.957546 195.050494,315.152423 190.860706,327.366261 C190.808221,329.796088 191.250426,332.194866 191.962656,334.511876 C192.77392,336.89359 193.5004,339.417273 194.74627,341.650618 C212.069221,377.790855 220.798619,417.16936 231.324149,455.624 C234.094701,465.879661 236.9004,476.130819 239.921503,486.316562 L239.96492,486.502154 C240.65308,489.37318 241.727011,490.528136 244.880044,490.523727 C260.678551,491.248977 276.900265,488.674574 291.292597,482.332897 C283.364964,461.217911 277.860197,439.366534 273.580163,417.221739 C271.420672,406.75348 269.67085,396.202505 268.197228,385.610527 C266.145082,372.086972 264.334463,358.533079 262.500095,345.046972 C258.746338,318.615613 258.911393,291.719479 254.127881,265.449761 C252.494192,265.503325 251.093954,263.566005 252.087847,262.119533 C251.74135,260.680882 252.050561,259.108795 252.565201,257.77988 L252.503454,257.490964 C246.899416,262.458458 239.585693,263.087008 243.338975,253.537637 L243.598103,252.888917 C246.416555,245.88225 250.00241,238.396512 248.411511,230.710964 C232.155837,239.370363 212.285812,237.9739 194.814904,234.178421 C196.175718,239.116762 192.509832,242.144091 188.374192,238.828558 C187.628475,238.226552 186.897008,237.603216 186.17979,236.958786 C187.231155,241.119971 186.666643,245.480955 185.695311,249.605404 L185.602707,250.081048 C185.129657,252.555426 184.593214,255.839679 182.707695,257.55235 C181.332631,258.799023 179.261723,258.26812 178.644014,256.488175 C178.299179,250.600846 176.654327,244.809032 173.642724,239.688904 C174.146202,243.431293 174.022707,247.275832 173.098874,250.864164 C172.74264,252.236452 172.248662,253.637181 172.132054,255.056634 L172.149897,255.289252 C172.32715,257.790695 171.994071,260.088018 168.868712,260.138366 C161.457856,258.834574 166.133072,241.329962 161.414395,235.79483 C159.980672,242.475431 161.650935,251.257364 155.135176,255.692058 C153.335006,256.815486 151.138229,256.163708 150.772258,253.983216 L150.901857,252.269327 C151.679309,241.813002 151.534171,238.679052 144.816261,228.876507 C140.260752,229.965974 135.490231,229.499864 130.869819,229.034666 Z M262.88649,497.766753 C262.89124,497.807045 262.893615,497.844966 262.89599,497.885258 C262.97357,497.964261 263.05115,498.044423 263.128026,498.125533 L263.242724,498.247883 L263.10973,497.920809 C263.036109,497.873644 262.960112,497.819132 262.88649,497.766753 Z M256.770426,264.441995 L256.464979,264.699107 C256.413796,264.74176 256.36234,264.784237 256.310409,264.826425 C256.581384,266.032569 256.834785,267.24132 257.080587,268.451493 L257.032852,267.654428 C256.988441,266.870399 257.113123,265.447865 256.770426,264.441995 Z M251.823227,157.25784 C249.531101,146.610169 247.246461,142.116915 250.14934,157.452608 L250.464459,159.109017 C251.721799,165.749358 253.046649,173.277323 254.290916,181.381649 L254.550395,183.078315 C255.849105,191.481103 257.890706,203.781531 258.04155,213.635811 C258.212699,224.816525 252.525892,228.134579 250.278178,229.583034 C249.857584,230.812642 250.391461,231.838658 250.746032,233.019679 C251.223386,234.915759 251.34688,236.738129 251.211036,238.686352 C250.739145,245.333535 247.181079,251.337236 245.564014,257.645021 C247.636109,257.076908 249.947593,255.213061 251.757737,253.736726 C254.971919,251.183654 257.215006,247.401922 258.1842,243.391001 C258.64493,241.497291 258.31007,239.158239 259.602012,237.605586 C259.981995,237.148157 260.803708,237.193189 261.190816,237.605586 C262.245269,238.726881 262.145523,240.101302 261.974531,241.535212 C261.400044,246.413827 259.250528,251.196689 255.787932,254.70823 C255.624777,256.510217 255.086151,258.116671 254.728729,259.830253 C254.866473,260.21421 255.004217,260.597929 255.134836,260.984492 C257.480282,258.961849 259.441232,256.516142 260.960451,253.821812 C267.740774,241.935996 265.373004,228.248667 263.617958,215.286352 C263.265761,216.154283 262.463047,216.499843 261.682419,216.41452 C261.233704,217.535255 260.061251,216.820871 260.01469,215.371543 C259.72454,206.339904 258.52247,193.499359 256.310409,180.346344 C254.992342,172.509058 253.395848,164.563177 251.823227,157.25784 Z M166.199807,198.269032 C162.836719,208.686808 149.582673,210.718932 141.840519,217.073407 C145.72917,227.312952 156.61331,238.278932 153.411003,251.487263 L153.39308,251.586771 C153.296814,252.09294 152.981147,253.520352 153.320757,253.788631 C153.536872,253.959278 154.866813,252.662833 155.09979,252.406862 C159.756957,246.874811 157.04744,239.051821 159.666473,232.74451 C160.010833,231.905495 161.084285,231.410144 161.811003,232.180427 C165.086332,235.643862 165.87795,240.313752 166.379732,244.876199 L166.396923,245.03348 C166.800417,248.582232 166.57884,252.238585 167.631868,255.689688 L167.671523,255.811305 C167.895391,256.478361 168.314161,257.418607 168.781316,257.588139 C170.070884,258.054811 169.586405,255.992824 169.631528,255.177747 C169.766897,252.82163 170.769103,250.615304 171.120587,248.294975 C171.871053,243.317765 171.122962,238.096197 169.467661,233.377327 C168.942809,231.879424 171.008967,231.348758 171.806931,232.393736 C175.119908,236.735759 177.77504,241.561521 179.525337,246.739953 C180.23068,248.828248 180.605913,250.942377 181.076142,253.07049 C184.009612,244.181666 183.925065,234.836835 177.281062,227.549251 C175.708882,225.665021 178.32839,222.948886 180.02169,224.816525 C181.777686,226.905294 183.496872,229.017054 185.405574,230.971912 C187.287915,232.865386 189.102097,235.19709 191.43068,236.548521 C191.052597,228.040098 181.90688,224.196033 177.029086,218.369852 C172.056533,212.502906 169.337279,205.185222 166.199807,198.269032 Z M122.245269,126.417072 C120.464573,131.823034 118.378466,137.132769 116.769001,142.595376 C116.434616,146.292496 117.57504,147.825951 120.295481,150.172824 C121.472716,143.466862 121.960282,136.665386 122.589628,129.886899 C122.49392,128.728157 122.474684,127.55946 122.245269,126.417072 Z M123.12398,123.76019 L122.945863,124.30792 L123.004938,124.412382 L123.062232,124.518622 L123.12398,123.76019 Z M231.671596,56.1127876 L232.351677,60.5882191 C234.850046,76.9983943 237.427488,93.4058809 240.973581,109.627756 C241.169035,110.521521 242.322283,109.321539 242.110205,107.590892 C239.929283,89.7915759 231.702333,55.9024491 231.670051,56.0964253 L231.671596,56.1127876 Z M210.679196,20.1254221 C210.838314,20.3147931 210.987932,20.5138815 211.132801,20.715577 C211.101927,20.5352124 211.071053,20.3527147 211.037805,20.170217 C210.916685,20.1559964 210.797941,20.1420128 210.679196,20.1254221 Z" id="ðŸ–-Ink" fill="#000000"></path>
                </g>
                <g id="Head" stroke-width="1" transform="translate(95.945717, 42.661805)">
                    <g id="head/Medium-Bangs">
                        <path d="M70.6773365,34.4051103 C43.3447289,33.4096682 17.2273923,51.7421568 8.43386881,77.6542261 C7.79492413,79.6868241 9.78335591,81.5855114 11.7897462,81.2418469 C9.73775076,91.5532051 14.2224147,105.432512 25.9041855,106.895338 C28.29692,107.196578 30.7021781,107.023087 33.0982207,107.242321 C35.2338649,107.437617 46.8603425,113.964873 51.2140984,115.494062 C60.3800245,118.689431 83.4453276,118.104253 92.6207056,115.494062 C92.9548283,116.252494 100.080607,87.0893582 101.703252,78.0474257 C102.294992,74.1297928 96.8879107,71.2293881 97.2866267,67.1923428 C97.7987917,62.0066136 103.876769,55.6838739 102.014691,50.7469517 C97.1063477,38.1816281 82.8614729,34.6755387 70.6773365,34.4051103 Z" id="ðŸŽ¨-Background" fill="#FFFFFF"></path>
                        <path d="M57.103067,11.5631741 C58.3308872,11.6650884 59.5658321,11.8381057 60.7794029,12.0656354 C64.4676132,11.4636299 68.2840679,12.1319982 71.8606582,13.2909772 C80.2369092,16.004742 88.2996743,20.7165014 94.6121425,26.8669116 C97.8609975,30.0333655 100.518504,33.6809499 102.154806,37.9234294 C102.986019,40.0754804 103.453873,42.3721076 103.589242,44.6734749 L103.604287,44.9523678 C103.642272,45.7159211 103.659512,46.6314938 103.568105,47.5384521 C103.860455,49.3693546 104.12098,51.2151887 104.140692,53.066948 C104.149954,53.9246873 104.094144,54.7810046 103.989649,55.6316335 L104.02551,55.712454 L104.02551,55.712454 C103.873992,56.7280419 103.693025,57.7393637 103.486884,58.7454713 L103.435349,58.8120711 C103.407087,59.0166108 103.374551,59.2206764 103.343915,59.424742 C103.23182,59.9418979 103.114738,60.4578687 102.990531,60.9719435 C102.721693,62.0851796 102.424119,63.1910684 102.103508,64.2903209 C102.047461,64.48301 102.101371,64.6349335 102.206578,64.7347147 C101.972889,65.5713601 101.717588,66.4018432 101.4345,67.22332 C101.573432,67.9421714 101.713788,68.6607858 101.862694,69.3770301 C102.639284,73.1028277 103.29713,76.8523263 104.18059,80.5567931 C105.97126,88.0747511 108.692889,95.4718341 109.44098,103.200731 C110.02283,109.194715 109.056248,115.748042 105.322914,120.644669 C102.104933,124.863448 97.2648991,127.354423 92.0377574,128.018051 C89.5369941,128.338015 86.9721086,128.191068 84.5259678,127.560622 L84.2594499,127.490481 C83.0340543,127.161292 81.4753755,126.645926 80.3366548,125.816228 C79.1017099,125.3825 77.935637,124.581406 77.2326684,123.799273 C76.2732112,122.730357 75.225883,120.90301 75.4871213,119.383776 C74.05981,119.499911 72.6229992,119.533092 71.2099372,119.528352 C67.7283427,119.521242 64.2158745,119.24631 60.867274,118.236647 C57.8796573,117.336009 54.3980628,115.830995 52.6311416,113.114861 C52.5480204,112.986875 52.6857642,112.802007 52.8306327,112.851779 C54.257944,113.351871 55.5926344,114.027349 57.0650687,114.408935 C58.513754,114.783411 59.9624394,115.136556 61.4562477,115.290613 C64.3767973,115.590952 67.3411209,115.550542 70.271476,115.406336 L71.2773526,115.354209 C74.4128941,115.186531 77.6534794,114.947654 80.5860187,113.776119 C81.7366548,113.316793 82.8015573,112.675651 83.7725813,111.913655 L83.9251196,111.792345 C84.4452214,111.370467 84.9819474,111.014952 85.528173,110.678397 C85.6065445,110.578853 85.684916,110.479309 85.7632875,110.377395 C87.0053571,108.787057 88.3400475,107.253603 89.4586226,105.573201 C91.6815233,102.23847 92.5388601,98.7733838 92.6552299,94.7963555 C92.7770619,90.5984339 92.7911688,86.394753 92.8412482,82.1956795 L92.8594707,80.7961732 C92.9235929,75.99435 92.9330925,71.1759362 93.3035759,66.3859635 C93.4742516,64.1605974 93.7173352,61.9455543 94.090753,59.7466153 L94.1727871,59.2756627 L94.7760102,55.8840492 C94.9211162,55.0670757 95.0058999,54.225216 95.1913791,53.4117976 C94.9828634,53.0705032 94.7418117,52.7420073 94.4622867,52.4291541 C94.2046107,52.1407129 93.9428974,51.860804 93.681659,51.5827912 L93.4933939,51.4169365 C93.0630317,51.0336613 92.6933438,50.6678972 92.3467925,50.1406742 L92.2631349,50.0102297 L92.2631349,50.0102297 C91.890989,49.5620438 91.5399796,49.0932379 91.2298185,48.5782151 L91.1725835,48.4781969 L91.1725835,48.4781969 C91.095162,48.3812598 91.0182154,48.2840857 90.9381815,48.1883336 C90.6895301,47.889938 90.4287668,47.6081331 90.1592163,47.3381787 C89.213771,49.1607858 87.8764682,50.7395096 85.9832027,51.7264193 C85.2985208,52.0833564 84.4632706,51.7776135 84.2388431,51.0182334 C83.6724309,49.1012963 82.8122443,47.3187438 81.6739576,45.7044686 C79.7733299,48.8609681 76.7595895,51.3299015 73.2079355,52.5346235 C72.3204377,52.8356263 71.5388601,51.9065469 71.7473757,51.0767748 C72.3881221,48.5263099 72.5156539,45.9327092 72.1392332,43.3687347 C70.7986056,44.3248332 69.4159423,45.2252343 67.9962307,46.0599836 C64.8369092,48.4971577 61.4894962,50.6904485 57.8074606,52.2653801 C56.9567735,52.6294275 55.6764682,52.0177046 56.0631009,50.9272215 C56.3885971,50.0090447 56.6561423,49.0755408 56.8275167,48.1168421 L56.8653401,47.8951522 C56.8665276,47.888516 56.8670025,47.8818797 56.8679525,47.8750064 C48.3405846,59.6145112 27.66134,70.9272928 26.0740769,71.0362394 L26.0309042,71.0365743 L26.0309042,71.0365743 C27.0221849,71.9815333 27.8222867,73.1490447 28.3457133,74.4907584 C28.895398,75.8999402 26.6538064,76.5135223 26.0741061,75.1661006 L26.0556031,75.1209681 C25.1638304,72.8347694 22.9580288,71.196082 20.5581985,70.8085706 C19.1076132,71.0714148 17.7365869,71.7694093 16.8011162,72.8278961 C14.9605734,74.9112142 14.9439491,77.4235205 16.200268,79.7936208 L16.3845889,80.1389545 C17.0647459,81.4051079 17.7811558,82.6740826 18.1643053,84.0645415 C18.6321595,85.7710137 18.2783003,87.5011869 18.5846616,89.205289 L18.6013093,89.2956388 C18.7465514,90.0533501 19.0601884,90.9153163 19.964475,90.7079325 C20.0342969,90.6918159 20.1017439,90.6702479 20.1689534,90.647258 C20.3596573,90.7989444 20.5890721,90.9243227 20.8750093,91.0075132 C21.5751281,91.2111048 22.348631,91.1122716 23.0454249,90.9477867 C23.7184699,90.78899 24.3720407,90.5398924 25.0011501,90.2483701 C25.0707345,90.4199654 25.1137201,90.599382 25.1179949,90.7719253 C25.139369,91.6536026 24.7736353,92.3788532 24.2107854,92.9690082 C25.1084953,94.1019161 25.8755861,95.3485889 26.7400475,96.5051978 C27.982117,98.164268 29.2526853,99.7877867 30.604,101.359163 C32.0099372,102.996902 33.5417439,104.544578 35.1305479,106.00693 C36.2443732,107.030813 38.084916,108.125799 38.7831349,109.611852 C39.585849,109.860713 40.2674436,110.474569 40.5168075,111.484232 C40.9704122,113.313949 41.1034063,117.60146 40.7471722,119.461989 C40.393313,121.305927 39.0443732,122.455426 37.5529398,123.427167 C37.1397082,123.697358 36.6718541,123.668917 36.2918711,123.467459 C35.957011,123.792162 35.5794029,124.090795 35.1471722,124.356246 C33.5512434,125.339838 31.6964512,125.697723 29.8582833,125.903922 C27.3765191,126.695535 24.7000136,126.904104 22.0543817,126.411123 C21.1899203,126.513037 20.3254589,126.605471 19.4586226,126.681314 C10.5907684,127.451597 1.57567091,126.795079 -7.07369296,124.68806 C-11.0421408,123.721059 -14.789486,121.96363 -18.2808176,119.706109 C-24.298324,115.815116 -26.8451603,104.893694 -23.3535912,94.452691 L-23.077127,93.629385 C-21.5037665,88.9651159 -19.8070828,84.3252525 -17.532726,79.9737484 L-17.2611888,79.4560953 C-15.1706548,75.487198 -12.8710071,71.5225634 -9.8166955,68.2109407 C-8.28726378,66.5542407 -6.51084309,65.049227 -4.50405768,63.9969025 C-3.74219169,63.5977776 -2.85279389,63.3209499 -1.9835827,63.0069116 L-1.96583036,62.78984 L-1.96583036,62.78984 L-1.94700933,62.5729462 C-1.88977439,61.8775588 -1.81686514,61.1833564 -1.72281934,60.4908131 C-1.37181001,57.9007675 -0.876407125,55.3488806 -0.172726039,52.829227 C0.531905004,50.3062552 1.39826633,47.8257083 2.44060729,45.4214786 C4.17950466,41.4103209 6.36345717,37.6053619 8.88440712,34.0350428 C9.06442409,33.6662552 9.24705344,33.2988897 9.43419508,32.9343683 C11.5597252,28.7890629 14.3122273,24.8357356 17.8626938,21.7759362 C21.9380119,18.2634476 26.8469177,16.0829553 31.969564,14.5518706 C37.2822019,12.9662735 42.8252044,11.8807675 48.3610823,11.5157721 C51.2750772,11.323794 54.1938219,11.3214239 57.103067,11.5631741 Z M18.2498253,78.1583701 C20.9168312,76.4163464 24.550419,77.6106399 25.9017337,80.4407767 C26.8778151,82.4909134 23.6503342,83.6451522 23.139732,81.6021258 C22.6315047,79.5543592 20.4489771,78.0872671 18.3519457,78.4001203 C18.2070772,78.4238213 18.1168312,78.2436937 18.2498253,78.1583701 Z" id="ðŸ–-Ink" fill="#000000"></path>
                    </g>
                    <g id="face/Smile" transform="translate(37.760814, 44.083865)" fill="#000000">
                        <path d="M34.8127554,57.1020091 C33.2162863,56.4520445 31.7918322,55.3678606 30.7504188,53.982886 C30.3883575,53.5014119 30.2944812,52.9929828 30.3704337,52.5279595 C30.455837,52.0050735 30.76581,51.5311704 31.1885437,51.2132909 C31.6125868,50.8944267 32.1430108,50.7371707 32.6558203,50.8173353 C33.1014216,50.8869936 33.5449965,51.1304783 33.8960529,51.6354567 L33.9693973,51.7364404 C34.5885356,52.5723634 35.3953297,53.2582283 36.3146153,53.7003078 C37.2006572,54.1264007 38.1916054,54.3252746 39.2170751,54.2096253 C41.1701484,53.9894475 42.5163047,52.9353366 43.947122,51.5038717 C44.124476,51.3231456 44.3019435,51.136754 44.4802714,50.9473621 C44.592889,50.7756793 44.7491739,50.6653386 44.9226927,50.6074447 C45.1153544,50.5431638 45.3332998,50.5468008 45.5329212,50.6163236 C45.7254569,50.6833787 45.8975743,50.8104452 46.0129836,50.9795623 C46.1226707,51.1402944 46.1848601,51.3388571 46.1646812,51.5672535 C46.033716,53.0507326 45.2565672,54.3746744 44.1526598,55.4142485 C42.9266296,56.5688282 41.301437,57.3675742 39.7713893,57.6477194 C38.0857258,57.9563102 36.3680798,57.7352226 34.8127554,57.1020091 L34.8127554,57.1020091 Z M40.5665861,34.2164632 C42.3599585,35.3043501 45.0925072,37.84109 43.1632513,40.538094 C40.8923326,42.9161315 37.6227224,40.1895491 36.0115152,38.956422 C34.5175283,38.0007416 32.8389503,40.45868 34.2250722,41.574598 C45.8676895,50.1769329 50.5925102,34.5009305 41.4736488,32.937375 C40.4696294,32.7650779 40.0967341,33.8799135 40.5665861,34.2164632 Z M19.7029042,24.2097211 C19.9010483,21.7551799 23.6468906,21.1977976 24.0195115,23.6266764 C24.3531841,25.8024284 23.9603766,27.801134 22.9783579,29.7600219 C22.0400373,31.6314531 19.6816447,30.7583423 19.5032902,29.0542402 C19.2642133,26.7699622 19.5796472,25.7365862 19.7029042,24.2097211 Z M48.21676,23.1230538 C48.7389992,22.4404649 49.493028,21.9745032 50.3964377,22.2378213 C53.2189992,23.0609572 52.3870738,27.0600273 51.395793,29.0065907 C50.8571671,30.0636554 49.1161323,30.3317138 48.3293299,29.4009754 C47.0468872,27.8831632 46.4327396,24.8520419 48.0631043,23.3569827 C48.1072774,23.2797174 48.1564377,23.2017411 48.21676,23.1230538 Z M22.9386022,13.4693984 L23.3844579,13.391518 C24.7637486,13.1534545 26.4787379,12.9247019 27.4544631,14.0313491 C27.9719525,14.618186 28.1500696,15.7089061 27.4544631,16.2706199 C26.2309177,17.2589517 24.8781781,16.8759435 23.4119186,16.959608 C22.2035725,17.0288149 21.0422494,17.2283774 19.8783138,17.5604284 C17.3248278,18.2887603 15.2441832,19.6183865 13.0633181,21.0783683 C12.7771433,21.2698724 12.4850314,20.9046399 12.6215878,20.6375296 C13.8805191,18.1766545 16.3202477,16.155196 18.7640136,14.9229809 C20.0683053,14.265278 21.4956166,13.7196809 22.9386022,13.4693984 Z M45.6437704,12.3670381 L45.985026,12.4367382 C49.6987038,13.2114312 54.5236407,14.7589441 56.2822463,18.3992889 C56.3492573,18.9140465 56.2784539,19.0243694 56.220878,19.0964481 L56.2017082,19.1204334 C56.1542656,19.1819844 56.11641,19.266832 55.8928405,19.3368914 C55.8308,19.3221394 55.7681419,19.3065151 55.7048201,19.2899543 C54.8987061,19.0791278 54.2609139,18.7886846 53.6434635,18.4873151 L52.9739907,18.1581557 C52.1972684,17.7780821 51.4136883,17.4118413 50.5832732,17.1414685 C48.8110962,16.5645992 46.9882598,16.1582307 45.137182,15.9412392 C44.7359752,15.8942481 44.3496381,15.7591142 44.044846,15.5275167 C43.7555371,15.3076842 43.5345237,15.003321 43.433754,14.598756 C43.3031565,14.0751843 43.3406874,13.6787976 43.6221743,13.2064592 C43.8338352,12.8517432 44.1366879,12.6058787 44.4844395,12.4646949 C44.8389572,12.3207642 45.2425721,12.2868326 45.6437704,12.3670381 Z" id="ðŸ–-Ink"></path>
                    </g>
                    <g id="facial-hair/*-None" transform="translate(29.211196, 80.109389)"></g>
                    <g id="accessories/Glasses-3" transform="translate(11.162002, 57.119417)" fill="#000000">
                        <path d="M87.1903376,23.302423 C85.5913215,25.4461787 82.6269788,26.1290046 79.8927634,25.8931796 C73.9956641,25.3267256 72.1396845,18.6428058 71.9463681,13.447783 C75.9008041,14.557938 71.611983,6.69536737 85.1296421,5.83075479 C89.8948668,5.43447402 88.5810755,8.30656153 90.686419,10.4050483 C90.6431959,14.8091686 89.9086412,19.5946381 87.1903376,23.302423 M59.102229,18.2417849 C55.6206344,34.5132343 36.5554606,30.6428605 34.5527125,15.975258 C36.4020424,14.6726509 35.9149517,11.4561878 38.2124241,10.2908095 C41.8536115,7.96905925 46.4053333,8.06836645 50.5402612,8.12287876 C55.8255878,8.48526709 57.3317455,10.6702625 60.0467243,13.0541094 C59.9161052,14.6463428 59.539447,16.5334166 59.102229,18.2417849 M94.7427379,3.13595077 C94.5472841,3.1034804 94.3515929,3.07290611 94.1559016,3.04422789 C94.0031959,2.95771923 93.8238914,2.89111942 93.6153757,2.85106472 C93.1392095,2.73042662 92.6663681,2.64913218 92.1942392,2.60528532 C85.4181917,1.08344394 69.742229,3.24426436 69.0953079,9.0149845 C66.9374792,9.73383592 65.0703376,9.09011668 62.5693367,9.15410939 C60.6656217,1.21308842 27.7536285,2.33390884 26.1707617,7.12151139 C26.1648244,7.11985232 26.1588872,7.11843026 26.1527125,7.11653418 C24.6318304,6.64678031 22.389693,6.7600711 20.6488957,6.68564995 C16.9319491,6.60791067 13.2107277,6.93853965 9.57405259,7.72090975 C2.76404411,8.80096445 -6.53010348,10.0654129 -1.79385242,18.552268 C-1.79290246,18.5536901 -1.79218999,18.5553491 -1.79100254,18.5567712 L-1.79029008,18.5560602 C-0.974039016,19.3910465 0.411236641,18.718649 0.462771841,17.5883482 C-1.12959457,13.5677101 2.46694487,13.0849207 5.23417133,11.9294968 C12.1197014,9.46080036 19.1299135,9.11855789 26.2512706,9.88220419 C26.7870466,10.5117028 27.5999729,11.060618 28.4592095,11.3478742 C33.2206344,12.1366436 30.7113215,15.6614567 33.7210246,16.1741094 C33.1681493,28.4611832 48.1159695,35.168093 56.7769703,27.0910283 C60.2350534,23.7169535 61.0593791,18.718649 61.8611433,14.2133254 C62.2850619,14.1182844 62.5546124,13.8869626 62.7120679,13.5807457 C63.7316098,12.5649207 64.3721187,11.626835 66.3881662,11.3478742 C68.4042137,11.0691504 69.956207,11.6287311 70.1661476,11.8000893 C70.2191077,11.9065068 70.2758677,12.0131613 70.3418897,12.1198159 C70.4340356,12.2788496 70.55943,12.40565 70.7019237,12.5054312 C68.71105,24.7408368 78.2289126,32.4787402 87.8374962,26.1327967 C92.0125598,22.2133619 92.8948329,16.212742 93.0691501,10.8567894 C93.6350874,10.515969 93.9934589,9.85542206 93.7975301,9.02493892 C93.5275047,7.88018049 94.1606514,6.88900456 95.1690314,6.3912835 C96.4792604,5.74495716 96.2474707,3.38457429 94.7427379,3.13595077" id="ðŸ–-Ink"></path>
                    </g>
                </g>
            </g>
        </g>
    </g>
</svg>