<?xml version="1.0" encoding="UTF-8"?>
<svg width="255px" height="710px" viewBox="0 0 255 710" version="1.1" xmlns="http://www.w3.org/2000/svg" xmlns:xlink="http://www.w3.org/1999/xlink">
    <!-- Generator: Sketch 62 (91390) - https://sketch.com -->
    <title>peep-standing-12</title>
    <desc>Created with Sketch.</desc>
    <g id="Introduction" stroke="none" stroke-width="1" fill="none" fill-rule="evenodd">
        <g id="variations-standing" transform="translate(-1320.000000, -1685.000000)">
            <g id="a-person/standing" transform="translate(1325.000000, 1658.000000)">
                <g id="pose/standing/crossed_arms-1" transform="translate(-28.736217, 150.264357)">
                    <path d="M273.952176,568.27276 C275.385899,562.489297 273.276485,557.876171 267.220031,554.469932 C266.698862,553.093846 254.993378,548.631677 245.692134,542.08168 C237.335984,536.197224 231.274821,528.118874 231.020709,527.671027 C229.768097,524.762937 229.070397,522.65258 228.92761,521.339956 C227.900396,511.896912 228.49455,505.706784 227.8602,502.769573 C232.134059,502.209633 242.641065,225.196352 240.941829,216.015315 C243.724967,215.404792 246.676485,214.761014 249.329717,213.194776 C249.54132,213.140445 249.193398,212.526643 249.203372,212.411189 C255.859725,199.369123 245.648631,155.021275 239.248767,142.743125 C244.33104,142.611044 251.025154,141.921131 254.171651,137.685639 C255.661184,137.196658 256.600217,136.34422 257.323135,134.974699 C258.155535,133.670048 258.928088,132.301229 259.623695,130.898219 C263.009818,123.87755 265.098775,116.081958 263.969513,108.346787 C264.184916,108.278639 265.293279,108.271613 265.348377,107.962019 C265.457147,106.060427 265.107325,104.384824 264.534975,102.58885 C258.720047,82.358906 251.720285,62.4418348 242.467698,43.3964048 C237.831193,33.2027462 228.238521,29.482932 218.299115,25.6560946 C213.517503,23.7809654 208.733754,21.6168504 203.743389,20.3887778 C203.680455,20.0403087 203.978504,18.9801476 203.324458,19.0665623 C202.516757,19.234708 202.676112,20.5309288 202.376638,21.2583113 C190.837265,11.8304417 198.155026,6.97224818 191.197062,1.80891 C183.997333,-1.92097422 175.216875,-2.07249271 167.278792,-1.26525275 C164.35031,-1.18071152 162.007003,0.13682026 161.316383,3.07890197 C158.798996,9.16633905 152.900472,13.6467902 146.465459,15.0202924 C145.93372,14.0755852 144.471735,11.3662846 143.652872,12.2215327 C134.359199,12.5381525 120.268241,15.9432204 111.569479,18.4906983 C102.836994,20.7166385 94.0028634,24.7802381 91.7182154,34.2502612 C87.572838,51.1252532 94.1679186,120.476697 104.985561,133.832573 L105.337282,133.838427 C107.255009,135.797161 109.861693,137.232957 112.815586,138.195228 C112.749327,144.439102 110.777452,150.535204 109.796146,156.64161 C107.586782,167.716043 105.888733,178.802419 103.42763,189.935867 C103.416706,191.176352 98.7341272,208.150639 103.350684,204.746976 C104.303491,205.21488 105.470751,205.724235 106.496943,206.161227 C101.592312,217.317391 99.3480373,235.317413 99.6957218,249.099273 C99.7826429,257.30633 99.4425581,264.496082 97.5979779,272.900792 C83.9511247,344.112846 71.9189618,503.392274 71.636112,505.521495 C71.3760611,507.556573 73.1029254,518.603632 71.636112,521.518034 C70.3343445,524.104507 64.7819238,522.577163 63.7197581,523.575115 C60.9613188,528.058845 62.2242312,530.915714 59.9616697,535.392184 C58.8012965,536.428458 56.2069557,538.695147 55.3557937,540.28855 C53.6328081,541.944481 25.0972146,560.633452 26.253788,563.469213 C26.253788,563.469213 26.1236438,564.829862 26.0799457,565.125406 C23.6471043,579.253159 27.6981985,579.135831 40.8052383,581.214234 C59.9521086,584.585111 74.2617947,578.099631 90.4433723,569.43474 C95.8206073,565.815392 103.463491,558.905419 100.97579,550.721313 C100.907155,550.221091 99.4315527,541.612873 98.8463788,537.241787 C99.9036334,534.908184 98.3863686,533.88689 94.2945846,534.177906 C95.3039146,533.072313 97.5212689,518.747397 96.7648651,516.852362 C96.2844241,511.971218 97.0303783,507.540649 96.7943138,502.516886 C99.365374,502.707279 144.504271,289.123809 172.817282,275.851304 C172.992312,277.270004 172.652702,279.910688 174.539318,280.175319 C183.29674,348.364263 204.35255,501.122775 205.319369,501.390216 C203.868309,509.177142 203.912244,527.228773 203.88517,534.959027 C203.663118,535.165579 202.643813,536.073753 202.479708,536.295059 C202.44551,536.237449 201.781727,536.89926 201.747766,536.916355 L201.657995,536.711208 C198.675603,543.423454 194.328831,550.336301 198.170697,556.914358 C195.319399,556.707103 195.777045,562.183384 195.649513,564.703228 C197.273574,569.63464 243.44188,582.940204 253.758894,583.572039 C257.14858,584.162422 272.935269,579.150957 275.973233,578.430834 C279.90962,577.696192 276.04802,570.394019 273.952176,568.27276 Z" id="ðŸŽ¨-Background" fill="#FFFFFF"></path>
                    <path d="M163.237411,1.42081449 C164.731688,1.37528483 165.017028,3.25190121 163.995569,4.02999475 L163.953442,4.06092981 C163.082568,4.67739289 162.674087,5.22867821 162.201483,6.21226983 C159.897123,12.2989243 153.398938,15.789845 147.043484,14.4971923 C149.250948,18.6069462 150.733357,22.5844485 152.943196,26.6247584 C163.118192,47.5435005 196.5339,54.3487694 200.530372,25.6468551 C194.40742,24.4660711 190.778819,10.7242297 194.707606,6.62443026 L194.81381,7.12341551 C195.946215,12.5058294 196.720901,18.0162201 200.809184,22.0746399 C200.933628,22.1109025 201.052611,22.1220419 201.16993,22.1220419 C201.325723,21.3851778 201.505265,20.6563719 201.728743,19.9415497 C202.272831,18.1973929 204.996122,18.5254148 204.919651,20.4122516 C213.073374,22.8918505 220.909099,26.4041021 228.708014,29.7971376 C235.191949,32.6199271 240.493425,37.6691887 243.513815,44.0632452 C251.981975,61.5534002 258.447861,80.0160073 264.085384,98.5890611 C264.462992,101.098997 268.678192,110.427238 265.277344,111.324084 C266.111644,119.008423 263.978039,126.781167 260.681686,133.681714 C259.152254,136.274366 258.072628,139.868861 254.99999,140.9501 C251.809795,144.94917 245.976343,145.9868 241.119684,146.269316 C247.651593,161.615716 256.526809,200.706253 250.524977,215.955716 C251.057666,218.457356 244.141737,219.645488 242.29122,220.217156 C243.782653,229.112142 243.457293,238.27495 242.814171,247.233929 C236.791203,323.648806 235.648166,400.483428 241.984858,476.917976 C242.357717,481.681878 242.759311,486.445779 243.18418,491.207311 L243.441428,494.062334 C243.778511,497.863974 244.06498,501.650447 243.977394,505.482425 C243.949133,506.812051 242.84457,507.610775 241.740244,507.679508 C238.031372,510.041313 233.049795,510.060985 228.759074,510.630283 C229.516902,514.75876 229.941534,521.199508 231.267912,524.673127 C234.028964,523.95309 235.808472,526.522042 233.056682,527.97278 C236.443993,529.848715 238.18669,533.439654 240.898344,535.960255 C248.346724,532.941222 249.733662,537.452233 243.647047,538.481094 C245.301873,539.859781 247.058582,541.133236 248.874663,542.342698 L249.003713,542.324655 C251.15101,541.999631 255.199091,540.22717 256.215698,542.574257 C256.671915,544.273145 254.570372,544.813054 253.048064,545.01949 C254.398904,545.869644 255.754256,546.715059 257.109846,547.559289 C258.296105,547.038104 259.472628,546.387274 260.682161,545.9699 C263.659803,545.308405 263.916767,549.164795 260.030965,549.38237 C262.465232,551.17701 265.825232,550.143172 267.381025,552.675861 C273.07412,554.969881 275.765113,561.898396 274.43636,567.435187 C276.43507,569.209444 277.838633,571.868696 278.000838,574.540747 C278.386046,577.403592 276.103298,580.096737 273.010711,580.850428 C269.527454,582.007511 265.993612,583.063865 262.469506,584.0567 L262.100184,584.183315 C259.195547,585.17133 256.023981,586.056359 253.003179,585.88381 C235.089354,584.817265 211.201245,577.47351 196.86306,568.335588 C193.286945,565.652634 192.661635,559.01825 197.583366,556.896536 C195.315342,552.792944 196.399006,549.811121 197.360363,545.341823 C198.027946,542.426837 198.934443,539.43577 200.575257,536.738833 C200.720838,536.499453 201.070897,536.571504 201.090372,536.807092 C201.305181,539.856802 201.020033,542.976813 200.792412,546.047483 L200.767386,546.388459 C200.56362,549.220966 200.103841,550.263099 200.873544,552.944157 C202.716224,559.785451 220.480431,563.201951 227.461194,566.023318 C232.941262,567.717229 238.504926,569.234567 244.146724,570.568459 L244.560514,570.657983 C249.323191,571.70389 254.227015,573.286607 259.243213,572.464777 C261.844672,570.576044 265.748997,571.107657 268.305096,568.946837 C272.160736,564.791577 269.129184,558.700656 266.427742,554.924613 C263.815312,555.75644 261.582228,553.51823 259.658903,552.334544 L259.58781,552.291194 C257.62401,551.051395 255.665198,551.919799 253.69831,550.683081 L253.254009,550.766954 C246.028225,552.141626 240.433658,553.709182 251.958226,549.595916 C250.059973,548.411814 248.15697,547.217758 246.313103,545.961841 C242.528234,546.417375 238.381432,548.400912 234.863739,548.581039 C237.231033,546.37969 240.460651,545.160747 243.503841,543.9501 C241.73217,542.607438 240.046232,541.170684 238.538175,539.589827 L237.097599,539.948494 C228.247392,542.14204 224.768421,542.775763 236.683145,537.426873 C234.339837,534.830191 233.959142,530.984941 231.382857,528.542315 C227.239617,529.408587 223.432662,531.227165 220.058175,533.575697 C218.693561,534.550757 217.665707,535.768988 216.584892,536.988879 C211.463433,543.564485 203.529388,544.579125 201.105571,536.049845 C201.063694,535.874951 201.338513,535.76623 201.415834,535.914132 L201.424757,535.934895 C202.584106,538.554415 206.324569,540.678453 209.448848,539.050396 L209.543332,538.999909 C212.598633,537.410757 214.017869,534.168459 216.424587,531.959763 C219.672492,529.033163 223.743535,527.071194 227.94401,525.598414 C226.925656,521.884704 226.582008,515.124467 226.697666,510.767748 C219.625232,511.101222 212.506487,510.760875 205.558735,509.419161 C206.671847,517.518505 205.940142,528.058578 206.451695,535.281459 C207.191237,537.704886 202.692237,539.219617 202.213934,536.805433 C201.949608,528.990738 202.715511,517.718304 203.908183,508.997284 L203.409162,508.87621 C202.938045,508.759241 202.44319,508.618225 202.039142,508.390538 C197.580516,508.894421 198.796699,497.587384 198.048132,494.407183 C193.017869,424.280182 182.421805,354.782443 173.416919,285.117612 C172.1682,284.640747 171.946623,283.110848 171.740244,281.832653 C160.393001,289.498268 158.131627,304.817411 153.052204,316.692088 C130.869031,378.176992 120.957649,443.044503 105.58306,506.359362 L105.667603,506.381619 C105.72798,506.399557 105.728514,506.408496 105.602327,506.399491 L105.573323,506.397284 L105.573323,506.402024 C106.523281,506.527639 107.27161,507.523081 106.691898,508.450027 C104.961075,511.936208 100.163077,510.702334 97.0047057,510.480966 C97.3113045,515.850191 96.1592434,527.435242 96.8892858,532.219052 C100.785299,532.290866 101.033001,536.570556 101.548828,539.114622 L101.588901,539.375886 C102.277386,543.721996 104.591176,551.871345 102.862619,555.385123 C105.534612,558.558213 103.612611,562.869189 100.840634,565.035697 C97.8722545,567.224485 94.1773944,568.50742 90.8219067,570.193984 C75.0290992,576.561495 59.7502188,588.838614 40.3972078,584.114057 L39.5546618,583.936812 C25.9907871,581.076169 22.0937764,579.8053 24.7875047,566.407511 C23.6812791,563.68474 23.6739169,560.702917 25.2304224,558.294895 C28.0061985,554.739745 32.6700153,552.79484 36.3810246,550.093874 C42.6666565,545.879125 49.3564953,542.192908 55.4958338,537.805378 C55.2676064,537.607949 55.5844173,537.535187 55.770609,537.568605 C60.1033656,534.183154 59.6979712,528.32237 62.7207362,524.140802 C63.476665,521.985907 67.2938321,521.460693 69.8076573,521.759325 C69.0222799,517.743191 72.8589211,499.461422 73.3462494,512.374676 L73.3460789,512.560009 C73.3555661,514.553668 73.6826583,521.208834 73.0945106,522.512069 C81.4384631,525.056846 83.2376828,533.056645 85.0233656,539.516591 L85.13831,539.547492 C85.7082847,539.694183 86.4717598,539.81296 86.7568007,540.371249 C89.4399559,538.669517 90.1897099,535.319143 92.7883189,533.516445 C92.059464,532.947621 92.0209907,531.861878 92.3928991,531.020018 C93.603145,526.591723 94.3286751,515.320474 96.1568685,510.374312 C87.5671145,509.089954 78.8163427,508.436518 70.4272672,506.105761 C69.3371908,507.174676 67.1000407,506.79546 67.1879118,504.866199 C69.7860458,462.829863 74.2546463,420.923646 79.8876573,379.189499 C84.5191756,340.124558 92.6669618,301.556864 98.342246,262.696463 L98.3903345,257.362903 C98.5435159,241.32972 98.9726853,225.056545 104.962975,209.961732 C104.435749,209.731832 103.913272,209.494822 103.39792,209.245962 C96.9023478,211.932944 102.020007,195.605087 102.258921,192.662607 C105.451016,175.601677 109.211186,158.544066 111.608641,141.376718 C109.095528,140.469444 106.77502,139.182479 104.839243,137.312233 C93.1029924,127.777794 86.2993961,50.5618232 90.5649432,35.0360073 C92.7914063,25.2697721 102.226623,20.4719781 111.219159,18.2644667 L112.547403,17.8898821 C122.590676,15.0702846 132.808246,12.5153445 143.264791,11.8874749 C143.637174,11.5504467 144.732237,11.6473838 144.875681,11.9284777 C145.530677,12.3221513 146.152424,13.0907748 146.678226,13.9027712 C161.192153,12.2380128 157.266453,2.76969918 163.237411,1.42081449 Z M197.960024,557.513947 C195.928064,562.119763 198.628081,565.622771 203.154867,567.559143 C218.83083,574.812835 236.331661,580.642097 254.297971,581.755333 C259.779939,580.432106 265.209659,578.245451 270.764774,576.892598 L271.004399,576.84949 C272.95983,576.491114 273.878433,576.131996 273.710592,574.104649 L273.781894,573.285018 C273.907214,571.828503 274.013104,570.374897 273.911508,568.919107 C272.202534,572.997575 267.08725,575.239453 262.602975,576.063063 C255.49278,579.430738 247.529998,576.00618 240.544485,574.563737 C229.198192,571.120693 204.650575,565.710702 197.960024,557.513947 Z M99.4774453,557.610173 L99.24278,557.681967 C97.2077891,558.310343 95.1386635,559.080118 92.8579033,558.513418 C82.6696081,561.960255 72.7527634,565.869973 62.9104902,569.940383 C52.2909143,575.014531 35.1912027,580.91371 25.9884885,568.651048 C27.311542,575.083026 25.4410755,577.282716 34.2274707,578.887274 C48.1690483,583.424357 59.3711858,581.101185 70.9397693,574.901714 C79.4155284,570.788879 88.5317964,567.519325 96.7358677,563.049553 L96.8465945,562.971765 C98.4603615,561.821883 100.407448,559.724521 99.4774453,557.610173 Z M78.316665,529.921003 C75.6565462,525.023191 68.4981408,522.333601 63.174341,524.139143 C62.6326277,528.862753 64.0359525,534.150921 61.0307617,538.252379 C63.6918304,538.717975 66.3444731,539.254332 68.9931124,539.809657 L71.4168811,540.320957 C72.6064501,540.581009 74.1201481,541.026226 73.9214487,542.285342 C73.7016215,543.677264 71.8713162,543.251995 70.6532555,542.901829 L70.1812282,542.763628 C66.7604309,541.758706 63.3453333,540.733637 59.9679966,539.585087 C58.1877761,541.540419 55.7979203,543.074111 53.4802612,544.555187 L54.4415497,544.664274 C57.8094761,545.041652 61.2099319,545.384403 64.5375301,546.065415 C65.9914402,546.495351 65.6777167,548.473437 64.1900831,548.315114 C60.2173605,547.280802 56.2550874,546.111395 52.2142053,545.369316 C50.2390059,546.672634 48.2730687,547.982589 46.2931196,549.279745 C50.1872332,549.84217 54.0984461,549.89289 57.9906599,550.224467 C60.5106599,550.4565 60.5099474,553.893619 57.9904224,553.695242 C53.4436879,553.279289 48.8998032,551.936627 44.5708465,550.411231 L42.2893578,551.908272 C39.6264961,553.654406 36.957728,555.395999 34.2623817,557.100602 C32.6405666,558.131832 30.5459101,559.112817 29.4126107,560.60598 C25.8336455,566.374804 34.7765462,571.887657 40.8197014,571.796408 C49.9979542,571.89382 57.6422629,567.137739 65.682229,564.290775 C70.129693,563.191996 92.741296,551.894439 94.7989042,554.867967 C96.0925089,554.247712 97.8917286,554.023974 98.823162,553.002224 C99.0117286,548.278377 98.0145106,543.329371 97.177598,538.564995 C97.0070806,537.733327 96.5995488,536.735989 96.5539508,535.882279 C92.787369,537.268551 91.7148668,542.515242 86.7570382,542.068715 C85.9811603,543.305907 83.591542,542.729499 82.5133401,541.747092 C81.339905,540.678414 81.1926616,539.173163 80.9126616,537.832397 L80.782901,537.216408 C80.2564671,534.746718 79.6254142,532.216427 78.316665,529.921003 Z M189.927657,129.272142 L189.32177,129.425015 C183.152448,130.965648 176.698714,132.080181 170.358531,131.666418 C169.262517,135.80485 169.833917,145.648587 165.376003,147.221623 C163.852984,147.794239 161.561211,147.329462 160.862992,145.777521 C151.641992,145.613984 142.356394,144.791559 133.134918,144.244303 C126.19334,143.699417 118.991237,143.720273 112.308997,141.617995 C113.118599,145.686746 113.397411,149.681313 112.944282,153.842498 C111.385446,171.590142 106.254136,188.881679 104.534277,206.553125 L104.454986,207.394913 L104.405113,207.366472 C104.405113,207.399654 104.402738,207.432835 104.400126,207.466016 C104.901228,207.610593 105.402331,207.762279 105.901059,207.916335 C106.079176,207.826272 106.321652,207.913965 106.449659,208.084613 C143.17407,219.484558 182.154867,224.435697 220.430321,219.418432 C227.133459,218.583446 233.788149,217.413564 240.396054,216.026819 C240.338344,215.436901 241.240092,215.28237 241.39826,215.839581 C242.864757,215.584321 244.331016,215.304886 245.789676,215.1167 C245.613696,214.621349 245.582823,214.085706 245.763552,213.602206 C248.607963,205.084066 247.308421,195.372343 246.411186,186.538268 C245.266962,172.975132 242.414952,159.671048 240.111067,146.290884 C229.204604,145.796244 218.36345,144.019617 207.404265,144.24217 C206.249829,147.228496 202.225333,149.736773 199.074561,148.029353 C196.849761,146.830082 196.190965,144.215861 195.298005,142.055515 C193.532746,137.784357 191.730202,133.528131 189.927657,129.272142 Z M143.715308,12.2922881 C132.262382,15.6689699 120.528506,18.0803099 109.179837,21.8279125 C99.7481832,24.1733637 93.3096081,30.0791796 92.9120509,40.1511577 C92.1337981,61.7268915 94.5039423,83.41165 98.0814826,104.67382 L98.2682346,105.633942 C100.253123,115.881121 102.032414,126.307571 105.780889,136.074567 C111.25312,138.613655 117.466317,139.336773 123.453187,139.630665 C132.18971,140.074348 140.925757,140.530119 149.65468,141.100602 L156.49865,141.543573 C158.484299,141.672033 161.24535,141.332634 162.737496,142.873674 C162.869748,143.090982 163.138719,143.063735 163.343244,143.198527 L163.38323,143.227767 C163.601008,143.375424 163.820448,143.73402 164.134409,143.664576 C164.644968,143.506455 164.840877,142.490532 164.960772,142.005314 L164.971796,141.961422 C165.636529,139.365925 166.118158,136.714494 166.732068,134.105014 C168.131355,128.970191 168.734103,123.542425 170.860821,118.627548 C167.816444,116.688569 164.948997,114.471814 162.490032,111.841477 L159.525079,110.799443 C152.431897,108.315493 145.25881,105.909 137.865707,104.420219 C137.688539,106.039708 135.359718,106.965706 134.49122,105.270848 C133.051559,100.952999 132.784621,96.2649407 131.791915,91.8146035 C129.538378,78.5370647 126.860923,65.307876 125.30228,51.9246308 C129.599413,63.7779763 131.825876,78.3265998 135.110117,91.1372288 C135.262348,91.0488241 135.473001,91.1002552 135.479413,91.3100091 C147.107606,86.9212944 160.01753,87.1 171.493018,91.757247 C174.367589,92.9079307 177.287047,93.9410574 180.146419,95.1277666 C181.122975,95.6781039 183.068251,95.6444485 183.396224,96.8477484 C183.747471,96.0310119 184.2196,95.2661805 184.846572,94.7502097 C185.042263,94.3477666 187.264926,93.6293892 187.481992,94.4257429 C200.518735,96.2113765 213.194494,101.87165 226.608607,100.916026 C225.021228,95.1325068 225.209082,88.8868186 225.102687,82.9139289 L225.134988,82.2414202 C225.411067,76.3573381 225.610835,69.0749661 227.609388,64.2327985 C226.330507,76.4226983 227.259091,88.6329809 228.819871,100.70959 C238.281211,99.4913582 233.924706,104.890447 227.622925,104.687803 C214.905605,105.602188 203.169116,99.9890793 191.465164,95.8985232 C185.072424,93.3480583 184.347844,95.5081677 184.632831,101.569936 C184.638768,109.46237 188.220109,116.665579 191.464214,123.66804 L192.921648,126.938594 C195.344078,132.380739 197.733221,137.787991 200.086741,143.295314 C210.36932,139.892562 221.946215,141.75949 232.598565,142.379508 C240.72664,143.398414 246.563179,143.036737 253.439447,138.344412 C255.919786,133.615114 259.187878,129.129936 260.465808,123.795552 C261.94798,118.906509 262.441483,113.785433 262.873713,108.71887 L262.484254,107.301286 C257.472648,89.1111152 251.926673,71.0099263 244.348115,53.6841933 L243.938078,52.7295802 C241.368761,46.7293309 238.758982,40.4329076 233.560872,36.2300638 C224.837174,29.8016408 214.048031,26.9504102 204.877615,21.2304102 L204.819112,21.648886 C203.888452,28.2103871 202.280906,35.0122865 198.072831,40.2914676 C190.297428,49.8197448 175.616784,50.0878031 165.66669,43.8994713 C155.315478,38.1877666 149.105367,27.5533637 146.084027,16.4373564 L146.048586,16.3151825 C145.765728,15.3245003 144.978338,12.3249336 143.715308,12.2922881 Z M171.825978,119.228842 C171.819566,122.723081 171.128709,126.167311 170.66133,129.616518 C176.042602,128.556609 181.407963,127.817375 186.700651,126.384649 C181.544994,124.440693 176.534918,122.098797 171.825978,119.228842 Z M158.868319,91.046928 C151.021432,89.5139471 142.98764,90.4309389 135.228624,91.6657612 C136.071712,95.5771376 137.034731,99.4534366 137.83982,103.370027 C140.618446,103.24299 166.976682,107.901422 164.00189,111.640966 C167.892679,113.717411 171.578514,116.158377 175.451491,118.279854 C179.346792,120.413418 183.402161,122.247165 187.586012,123.736773 L187.365313,123.246533 C183.764581,115.21857 180.400395,106.184408 183.174884,97.4106472 C179.444163,98.9049954 174.35144,95.6949316 170.736852,94.4940018 C166.899973,92.9572288 162.948149,91.7449225 158.868319,91.046928 Z M102.376763,59.9609298 C102.402887,58.4962078 106.93561,62.6957885 107.527196,63.131887 L107.884792,63.4547965 C112.234552,67.3941665 116.531505,71.7279689 118.954948,77.1334913 C119.132115,82.4460711 111.198782,69.5764266 110.098969,68.7902644 C107.699138,65.7077119 104.775644,63.0306837 102.376763,59.9609298 Z M227.806266,72.4656263 C226.579871,72.8685433 229.927047,68.7175497 231.232288,69.0204485 C231.751678,68.9448423 232.20362,69.6961641 231.626996,69.954505 L231.340656,70.0803946 C230.001289,70.6602924 228.631938,71.1554032 227.806266,72.4656263 Z" id="ðŸ–-Ink" fill="#000000"></path>
                </g>
                <g id="Head" stroke-width="1" transform="translate(95.945717, 42.661805)">
                    <g id="head/Bun">
                        <path d="M28.6012994,6.28548676 C43.5665569,5.47017771 56.8254038,1.27386491 67.3595454,10.6653997 C78.7205837,2.19825849 85.3489128,-0.422897228 87.2445327,2.80193254 C89.1498268,6.04322011 86.5075471,10.3944093 87.2160339,14.3940732 C91.8356872,22.2534701 91.5745009,35.5563754 91.8356872,38.6738762 C92.4940112,46.5315831 96.6406645,76.1001642 96.6406645,83.1216767 C96.6406645,86.7057219 93.6797086,96.0924349 91.8356872,101.316172 C87.7313099,112.943036 79.8967212,118.868565 67.0483098,118.868565 C54.1998985,118.868565 33.22875,108.151482 26.5029533,98.6362971 C25.9135096,97.8023935 22.1017831,100.235244 18.1148758,96.0151141 C13.7956812,91.4432592 11.3996335,82.7231914 11.3996335,77.5251353 C11.3996335,70.928996 7.12804658,66.3546399 7.62489936,57.911376 C8.73451276,39.0551689 12.5877751,7.15790551 28.6012994,6.28548676 Z" id="ðŸŽ¨-Background" fill="#FFFFFF"></path>
                        <path d="M26.9293503,-15.6374476 C27.1240916,-15.6492981 27.3212078,-15.6398177 27.518324,-15.6206199 C27.7344394,-15.6111395 27.9505547,-15.5900456 28.1666701,-15.5471468 C29.266246,-15.3364448 30.2470772,-14.7557703 31.0070433,-13.9380857 C31.0284173,-13.9167548 31.0450416,-13.8928168 31.0640407,-13.8717229 C31.4202748,-13.6039015 31.7503851,-13.3002917 32.0472468,-12.9781951 C32.0994945,-13.0279672 32.1493673,-13.0775023 32.2039898,-13.1272744 C32.3607328,-13.2649772 32.5246005,-13.3953327 32.6955929,-13.5183409 C33.4111588,-14.1306718 34.2505783,-14.5758125 35.1535779,-14.8290799 L35.2771026,-14.8624248 C35.3008516,-14.8695351 35.3246005,-14.8742753 35.3483494,-14.8790155 C35.9895708,-15.0920875 36.6640407,-15.2011121 37.3432604,-15.198979 C38.1554741,-15.2250501 38.9700628,-15.0920875 39.7300288,-14.7794713 C40.6301137,-14.4071285 41.4138287,-13.8195807 42.0716743,-13.1130538 C42.503905,-12.7622789 42.8815131,-12.3761896 43.2804953,-11.9517046 C44.1045835,-11.0726345 44.7553045,-10.0440109 45.1661612,-8.910866 C45.2231586,-8.75206928 45.2730314,-8.58876937 45.3181544,-8.42523245 C46.3227345,-8.54113036 47.3320645,-8.62408387 48.3413944,-8.66461258 C49.4742188,-8.73310848 50.6070433,-8.75704649 51.7422426,-8.71888788 C54.8699779,-8.61721057 57.9288414,-8.0671103 60.8903342,-7.05981768 C61.4840577,-6.88466727 62.0611569,-6.66187785 62.6168821,-6.38694622 C63.4884682,-6.04091158 64.3125564,-5.60007293 65.0891467,-5.06680036 L65.7506972,-4.6752598 C66.0829924,-4.47816226 66.4152875,-4.27850501 66.7373232,-4.07372835 C67.5044139,-3.58288058 68.2311315,-3.03325433 68.9198507,-2.44072926 C69.6465683,-1.85507748 70.3329126,-1.21752051 70.9860085,-0.549389243 C71.1634131,-0.368550593 71.3346429,-0.185341841 71.5034979,-0.000948040108 C73.0089432,0.809863263 74.346246,1.84796718 75.5935403,3.08610757 C76.5826836,2.51823154 77.6069754,2.00344576 78.6640407,1.5457794 C79.754117,1.07412944 81.1386802,0.588258888 82.2810042,0.268532361 C83.3069584,-0.0182497721 84.3210382,-0.214968095 85.3493673,-0.359781222 C85.8172214,-0.440364631 86.2874504,-0.504357338 86.7600543,-0.558869644 L86.7410551,-0.551522334 L86.7410551,-0.551522334 C87.0735403,-0.587310848 87.4036506,-0.618122151 87.7385106,-0.646563355 L87.729011,-0.648933455 L87.729011,-0.648933455 C87.8715047,-0.660546946 88.0163732,-0.672634458 88.1588668,-0.682114859 L88.5056014,-0.710319052 L88.5056014,-0.710319052 C88.6100967,-0.719799453 88.7620899,-0.475916135 88.7715895,-0.390592525 L88.783464,-0.302898815 L88.783464,-0.302898815 C88.8618355,-0.214968095 88.9330823,-0.117793984 88.982955,-0.0585414768 C89.0447023,-0.0635186873 89.1064495,-0.0680218778 89.1681968,-0.0706289881 C89.3534385,-0.08698268 89.567179,0.242224248 89.6764241,0.367839562 L89.7751903,0.483659469 C89.8877194,0.618691536 90.0001404,0.774220602 90.0184088,0.943773929 C90.1395284,1.92760255 90.2535233,2.91332726 90.3580187,3.89928897 C90.3983919,4.64587056 90.3580187,5.38534184 90.2345242,6.11770283 C90.1419033,6.82873291 90.0469075,7.53976299 89.9519118,8.24842297 C89.7999186,8.74638104 89.6503003,9.2441021 89.5006819,9.74158614 C89.4413096,9.93143118 89.3748126,10.1184321 89.3106904,10.30567 C88.9309449,11.5561349 88.4856522,12.7734184 87.9553384,13.9530173 C88.3422087,14.3801094 88.702955,14.8228441 89.0385276,15.2800365 C89.118799,15.3622789 89.1995454,15.4440474 89.275067,15.529371 C89.2964411,15.4964266 89.3273147,15.4656153 89.3605632,15.4487876 C89.4745581,15.3990155 89.5576794,15.458268 89.6289262,15.5556791 C90.3770178,16.2688423 90.9208685,17.1009845 91.2581035,18.0511577 L91.4681497,18.5467018 C91.5029814,18.6295675 91.5375493,18.7124947 91.5715895,18.7953692 C91.8399525,19.5161167 92.0465683,20.255588 92.2175606,21.0043026 C92.3705038,21.5935096 92.4802239,22.1907748 92.5509958,22.7944394 C93.0639729,24.5134731 93.4696047,26.2720875 93.8522002,28.0070009 C93.9125225,28.2800365 93.8840237,28.5236828 93.7963902,28.7313036 L94.0201052,28.9488788 L94.0201052,28.9488788 L94.4023202,29.3287587 C95.0444761,29.9676927 95.699551,30.6393528 96.1765089,31.3995624 C96.6704869,32.1888058 97.0338456,33.0325615 97.4375776,33.8694439 L97.5245581,34.0472015 L97.5245581,34.0472015 L97.7023412,34.4036803 C97.8945592,34.7928943 97.9867718,35.0079512 98.1571705,35.478505 C98.4397829,36.2632452 98.5917761,37.0522516 98.6630229,37.8843938 C98.7675182,39.095278 98.7532689,40.4154239 98.2212926,41.5412215 C98.2189177,41.5507019 98.2141679,41.5580492 98.2094182,41.5649225 C97.967179,42.6530356 97.3687057,43.6624613 96.4591213,44.3071285 C96.26438,44.4898633 96.0553893,44.6534002 95.8321493,44.7835187 C95.2963732,45.0975096 94.8043712,45.1255776 94.2195681,44.9803271 L94.1459746,44.9612762 C94.0723528,44.9423154 94.0058558,44.9257247 93.9417337,44.9115041 C94.0367294,44.9897174 94.0842273,45.0823883 93.9417337,45.1485141 C93.8039898,45.2148769 93.6804953,45.2527985 93.5641255,45.2670191 C93.6139983,45.3310119 93.6187481,45.3997448 93.5142528,45.4566272 C93.2862629,45.5775023 93.1010212,45.6156609 92.9110297,45.5822425 L92.9509823,45.9117355 C93.2625476,48.4051192 93.541249,48.8982159 93.7849907,51.5764631 C93.9464835,54.3184321 94.202972,57.0535278 94.5568312,59.77701 L94.6787963,60.7666027 C95.0694529,63.9030907 95.5087113,67.0625741 96.1812587,70.1483318 C96.5208685,71.4969189 96.8129805,72.8549863 97.0599695,74.2225342 C97.4090789,75.2630082 97.653693,76.3271832 97.7890619,77.4126892 C97.9861781,78.5171559 98.1215471,79.631103 98.1999186,80.7545305 C98.4730314,81.4729079 98.6060254,82.2026618 98.5989008,82.9468733 C98.6345242,83.9470556 98.6012757,84.9451048 98.4944054,85.9381768 C98.4350331,86.9713036 98.2925394,87.9951869 98.0669245,89.0095898 C97.8650585,90.4010757 97.49695,91.7449225 96.9697235,93.0484777 C96.5469924,94.5034822 96.0292655,95.9305196 95.4402918,97.3262716 C94.5259576,99.4878031 93.4216319,101.495278 92.165313,103.474312 C90.9873656,105.3301 89.723922,107.117156 88.2799864,108.778833 C86.4133198,110.925907 84.2854148,112.89309 81.9532689,114.55216 C80.6233282,115.533619 79.2197659,116.415059 77.7520814,117.168988 C75.9566616,118.09309 74.132743,118.924995 72.1877048,119.486709 C70.974134,119.837484 69.7391891,120.079234 68.4899949,120.264339 C66.0367294,120.626727 63.4955929,120.572215 61.028078,120.147967 C59.4368991,119.934658 57.8718439,119.564923 56.392285,119.03639 C55.1763393,118.600529 54.017391,118.100201 52.8584427,117.536117 C52.2623444,117.249335 51.68762,116.917521 51.1366446,116.545415 C50.210436,115.945779 49.3435997,115.268168 48.5361357,114.518979 C48.2725225,114.29382 48.0160339,114.06392 47.7642952,113.82217 C47.6431756,113.715515 47.7096726,113.556718 47.8497913,113.519034 L47.8925394,113.514057 L47.8925394,113.514057 C47.8379169,113.464284 47.7809194,113.414512 47.7262969,113.36237 C47.7144224,113.35289 47.7049228,113.341276 47.6954232,113.329189 C47.6692994,113.305488 47.6408007,113.282024 47.6170517,113.258323 C47.5244309,113.177502 47.6170517,112.997375 47.6977981,112.954713 C47.7286718,112.938122 47.769045,112.935989 47.8141679,112.940492 C47.8046684,112.931012 47.7975437,112.923902 47.7880441,112.917028 C47.7785445,112.909681 47.7761696,112.89072 47.7785445,112.871759 L47.7429211,112.843555 L47.7429211,112.843555 C47.6218015,112.736664 47.6835488,112.580474 47.8260424,112.539945 C47.895706,112.518878 48.0104045,112.529646 48.130107,112.555603 L48.1751518,112.566016 L48.0944054,112.490173 C47.9519118,112.366928 47.9970348,112.229462 48.1727769,112.187037 C48.3038711,112.194622 48.4334453,112.212672 48.5614996,112.243859 L48.6572553,112.269754 C48.7047532,112.281604 48.7498762,112.295825 48.797374,112.310283 C48.7166277,112.236572 48.6358813,112.165706 48.5575098,112.091996 C48.4791383,112.0235 48.5622595,111.826545 48.6335064,111.78649 C48.730877,111.731978 48.9208685,111.807584 49.0087396,111.871577 C49.224855,111.895515 49.5098422,111.990082 49.6143376,112.080146 C49.9016997,112.355077 50.1985615,112.618159 50.500173,112.874129 C50.6830399,112.931012 50.8564071,113.006855 50.9894012,113.12062 C51.3313859,113.447694 51.68762,113.756044 52.0509788,114.054439 L52.3271702,114.244399 C52.3734366,114.275649 52.419879,114.30646 52.4665852,114.336481 C52.9890619,114.642224 53.5115386,114.945597 54.0316404,115.25134 C55.9386802,115.896007 57.8457201,116.540912 59.7503851,117.183209 L60.0021238,117.258815 L60.0021238,117.258815 L61.8521662,117.486345 L61.8521662,117.486345 C63.068112,117.61433 64.2864326,117.607457 65.5023783,117.467384 C66.4143376,117.479471 67.3191722,117.38917 68.2097574,117.204303 C69.7225649,116.948332 71.2068736,116.571723 72.6508092,116.045324 C74.3132349,115.440948 75.8972892,114.644831 77.4433452,113.786855 C77.9990704,113.476135 78.545296,113.146691 79.0820221,112.798523 C79.2553893,112.675278 79.4287566,112.549426 79.6021238,112.42144 C80.7444478,111.565834 81.8368991,110.653345 82.8889771,109.688715 C83.382955,109.236026 83.8579338,108.764613 84.3162884,108.276372 C84.3827854,108.205032 84.4469075,108.136536 84.5110297,108.065196 C84.9503851,107.586436 85.3754911,107.091322 85.781598,106.579143 L86.1687057,106.143282 L86.1687057,106.143282 C87.7313859,104.20217 89.1206989,102.114111 90.3698931,99.9641933 C91.6095878,97.8334731 92.6307922,95.5913582 93.4430059,93.2710301 C93.7042443,92.4438651 93.9322341,91.6050866 94.1222256,90.7565907 C94.4737099,89.7372106 94.7040746,88.6922334 94.8109449,87.6256882 C94.8465683,87.4168824 94.875067,87.2083136 94.9035657,86.9997448 L94.9199261,86.670968 C94.922301,86.6160782 94.9241481,86.5612762 94.9249398,86.5067639 C94.9724377,86.1751869 95.0128109,85.8431358 95.0436845,85.5113218 C95.0626836,85.1773747 95.0745581,84.8429535 95.076933,84.5087694 L95.0508092,82.4586326 L95.0508092,82.4586326 C95.0436845,82.3946399 95.0365598,82.3285141 95.03181,82.2619143 L94.9795623,81.8094622 C94.8655674,80.8754057 94.7776964,79.939216 94.6637014,79.0056335 C94.6637014,79.0006563 94.6637014,78.993546 94.6613265,78.9864357 C94.6185785,78.638031 94.5734555,78.2872562 94.5212078,77.9364813 C94.495084,77.7279125 94.4618355,77.5193437 94.4309618,77.3107748 L94.3715895,76.9460164 L94.3715895,76.9460164 C94.2614538,76.3114221 94.1276804,75.6820901 93.9654965,75.058338 L93.8942358,74.7913582 L93.4810042,72.7175205 L93.015525,70.6768642 C92.7139135,69.3093163 92.4621747,67.9322881 92.2626836,66.5434093 C91.9016997,64.3299727 91.5929635,62.1136919 91.3246005,59.8881677 C91.3103511,59.7815132 91.2961018,59.6724886 91.2842273,59.5658341 C91.0111145,57.5017138 90.8139983,55.4300091 90.685754,53.3514312 C90.5123868,51.3039015 90.4126412,49.2511577 90.3865174,47.1965178 C90.3841425,47.1038469 90.4458897,47.0282407 90.5195115,46.9853418 L90.5129223,46.5902919 C90.5041551,46.2407979 90.4978614,46.6600575 90.4948347,46.261621 L90.4903158,45.1657338 C90.490587,45.074401 90.4914725,45.0108314 90.4933876,45.0063081 C89.2244443,45.0938771 88.3711403,45.0221202 87.1459484,44.9576964 L86.9381713,44.9470556 C85.8148465,44.8951504 84.6986463,44.7719052 83.5895708,44.5868004 C83.584821,44.6439198 83.5468227,44.6839745 83.4827006,44.695825 C83.3687057,44.7005652 83.2618355,44.7005652 83.1525903,44.7031723 L83.1929635,44.8569918 L83.1929635,44.8569918 C83.1953384,44.9354421 83.159715,44.9849772 83.0837184,45.0063081 L82.7669075,45.0205098 C82.3439864,45.0382571 81.9195454,45.0465998 81.4996641,44.9897174 C81.122056,44.9401823 80.7539474,44.8522516 80.3882137,44.7479672 C80.1625988,44.7100456 79.9322341,44.6581404 79.6971196,44.5915406 C79.0938965,44.4185232 78.4954232,44.1862534 77.8898253,44.0016226 C77.2723528,43.8710301 76.6453808,43.8286053 75.9899101,43.9847949 C75.2964411,44.1483318 74.7098422,44.4445943 73.9831247,44.2644667 C73.8382561,44.2291522 73.6981374,44.1746399 73.5580187,44.1175205 L73.428367,44.1084966 C73.4062893,44.1065654 73.3838598,44.1041689 73.3609025,44.1009298 C72.6033113,43.9921422 71.9288414,43.513382 71.2068736,43.2571741 C70.9547695,43.1959161 70.7046889,43.2113989 70.4603678,43.3131296 L70.3994097,43.3403646 L70.1595454,43.5181222 C70.0629664,43.631729 69.9674428,43.7464945 69.8729748,43.8616462 L69.7320645,44.034567 C69.473201,44.3545305 69.1977133,44.6413127 68.8628533,44.8498815 C68.4591213,45.2219872 67.9793927,45.4400365 67.4070433,45.4542571 C67.0816828,45.4637375 66.7586972,45.3950046 66.4452112,45.2956974 C65.262514,45.6606928 63.9966955,45.7341659 62.8163732,45.3786509 C62.3485191,45.3073108 61.8901645,45.1819325 61.4508092,44.9849772 C61.2441934,44.8925433 61.0375776,44.7835187 60.8380865,44.6626436 C60.0044987,45.0136554 59.2160339,45.4803282 58.4109449,45.8834822 L58.2296104,45.9743474 C57.4069888,46.3833059 56.4966984,46.7820771 55.5658219,46.7224977 C54.3926243,46.6464175 53.2408007,46.4902279 52.091352,46.2932726 C52.0818524,46.2932726 52.0699779,46.2909025 52.0604784,46.2885324 L51.9022511,46.2622539 L51.9022511,46.2622539 L51.3272518,46.1615652 L51.3272518,46.1615652 L50.8635318,46.0754603 L50.8635318,46.0754603 L50.6265621,46.1660643 C48.7230076,46.8848329 46.6372655,47.4455205 44.7244309,46.94268 C43.8908431,46.8410027 43.109503,46.5610939 42.4041595,46.0847037 C42.3804105,46.068113 42.3566616,46.0515223 42.3329126,46.0325615 C42.2212926,45.9756791 42.1167973,45.9119234 42.0241764,45.8431905 L42.0042867,45.8276664 L42.0042867,45.8276664 L41.9861781,45.8121422 L41.9766785,45.807402 C40.9341001,45.3288788 40.3356268,44.3094986 40.4401221,43.1673473 C40.376,42.804485 40.3783749,42.4489699 40.4496217,42.0699909 C40.1100119,42.4703008 39.7632774,42.8663446 39.411793,43.2595442 C38.1261272,44.804511 36.867082,46.3803363 35.701209,48.0207979 L35.4338456,48.4005287 C34.7926243,49.3032999 34.1965259,50.2373564 33.6455505,51.1993801 C33.0874504,52.1497903 32.5151009,53.0909572 31.9237523,54.0200365 C31.1548804,54.8680287 30.4114644,55.7363446 29.6950952,56.6259367 L29.3897405,57.0084959 L28.3590365,58.3618232 C27.629944,59.2247767 27.0243461,60.1680766 26.5469924,61.1917229 C26.1551349,61.9195807 25.794151,62.6614221 25.4687905,63.4222242 C25.3642952,63.651887 25.2645496,63.8841568 25.167179,64.1164266 C24.8323189,65.024175 24.5497065,65.9487511 24.3288414,66.9036645 C24.1514368,67.5947858 24.0240475,68.2955059 23.9484047,69.0059978 L23.9251094,69.2431905 C23.8966107,69.5226253 23.8752347,69.8022972 23.8633622,70.081969 C23.9322341,70.1224977 23.9892316,70.1625524 24.0319796,70.2028441 L24.2053469,70.2647037 L24.2053469,70.2647037 L24.3455253,70.3061514 C24.5640491,70.3738633 24.9414003,70.5137359 24.8513181,70.6863446 L24.3929635,71.5587785 L24.3929635,71.5587785 C24.4404614,71.6085506 24.4618355,71.6604558 24.4309618,71.7175752 C24.1246005,72.302753 23.8158643,72.8881677 23.5071281,73.4738195 C23.4976285,73.4951504 23.4810042,73.5115041 23.46438,73.5235916 C23.7279932,73.6442297 23.9844818,73.7769553 24.2290958,73.9215314 C24.7064495,74.2061805 25.0579338,74.5353874 25.3832943,74.9193437 C25.7252791,75.1234093 26.0482646,75.3461987 26.3522511,75.6019325 C26.7274843,75.9953692 27.0552197,76.4269644 27.3330823,76.8936372 C27.5895708,77.3344758 27.7985615,77.7942753 27.9600543,78.2754057 C28.0313011,78.5290064 28.0645496,78.7920875 28.0621747,79.0599088 C27.7748126,81.0842115 25.4545411,79.6974658 25.4094182,79.5197083 C25.0911824,78.2967366 24.7254487,77.5243209 23.9037354,76.6142024 L23.8823613,76.5997448 L23.8823613,76.5997448 C23.4073825,76.3911759 22.9371535,76.1849772 22.4455505,76.0238104 C22.3719288,76.038031 22.2959321,76.0477484 22.2199355,76.0593619 C22.3054317,76.180474 22.2626836,76.298979 22.0893164,76.3200729 C21.3412248,76.4672562 20.5860085,76.5073108 19.8260424,76.4433181 L18.6718439,76.2800182 L18.6718439,76.2800182 C18.1930653,76.4632507 17.735447,76.6985092 17.3041829,76.9787098 L17.1614114,77.0737648 L17.1352875,77.0927256 C16.0214623,77.9862534 15.1617506,79.1736737 14.5727769,80.4677484 C14.5205293,80.5830933 14.4703926,80.6994915 14.422367,80.8169432 L14.3519118,80.9939107 L14.347162,81.0033911 C13.5776964,84.0207657 14.2640407,87.3339289 15.6699779,90.0713947 C16.4370687,91.2967366 17.237408,92.4983774 18.0733707,93.6763172 L18.8855844,94.7359891 L18.8855844,94.7359891 C19.365313,95.1863081 19.835542,95.6482407 20.2938965,96.1222607 C20.3651433,96.1936007 20.4411399,96.2644667 20.5171366,96.3331996 C20.7593757,96.4919964 21.0063647,96.6320693 21.2581035,96.7505743 C21.3554741,96.7835187 21.4552197,96.81433 21.5549652,96.8406381 C22.0394436,97.0726709 22.5476709,97.1961531 23.0820221,97.2103737 C23.7878109,97.2570351 24.4727266,97.1743362 25.1348123,96.9646205 L25.2669245,96.9209845 L25.3642952,96.885433 C25.7252791,96.6555333 26.0601391,96.3687511 26.3783749,96.0321969 C26.4496217,95.9587238 26.5826158,95.9587238 26.734609,95.9990155 C26.8177303,95.9136919 26.9008516,95.8236281 26.9792231,95.726454 C27.0338456,95.6672015 27.1193418,95.6650684 27.1858388,95.7098633 C27.4114538,95.6840292 28.0218015,96.0300638 27.8626836,96.2123245 C27.8365598,96.2549863 27.8033113,96.2929079 27.7748126,96.3331996 C27.8816828,96.3877119 27.988553,96.4493345 28.0835488,96.5135643 C28.5822765,96.6515897 29.3189518,97.1482802 29.2591014,97.2977372 L29.2519966,97.3096809 C29.1365768,97.5274695 28.986531,97.710318 28.8018592,97.8552892 L28.7390195,97.902206 L28.5989008,97.9993801 C28.796017,98.1228624 28.9622595,98.2648314 28.8791383,98.3643756 C28.8411399,98.4378487 28.8007668,98.5091887 28.7532689,98.5731814 C29.1570008,99.0709025 29.5583579,99.5731267 29.9573401,100.075588 C30.3563223,100.938541 30.8503003,101.744139 31.439274,102.49072 C31.930877,103.301294 32.5222256,104.029152 33.2133198,104.678323 C33.2703172,104.735442 33.3296896,104.789954 33.386687,104.844467 C33.8958049,105.219831 34.4285604,105.571425 34.9833626,105.90925 L35.2224801,106.053218 C35.3483494,106.128824 35.559715,106.223628 35.4599695,106.406126 C35.448095,106.429827 35.4338456,106.449025 35.4172214,106.463008 C35.7663308,106.690775 36.1273147,106.906217 36.500173,107.105542 L36.5355172,107.127245 C36.6764662,107.217052 36.8674266,107.379953 36.6664156,107.512963 C36.4954232,107.626727 36.0418185,107.318614 35.828078,107.176408 C35.7877048,107.176408 35.740207,107.164795 35.6927091,107.150574 C35.7639559,107.188338 35.8341472,107.229367 35.905394,107.269448 L36.0133198,107.328332 C36.0964411,107.377867 36.5049228,107.648058 36.2199355,107.76206 C36.0798168,107.773674 35.9515725,107.738122 35.8328278,107.657539 C35.6927091,107.588806 35.5549652,107.51557 35.4195963,107.43949 C35.4670941,107.512963 35.4670941,107.586436 35.3483494,107.634075 C35.3079763,107.636208 35.2676031,107.634075 35.2272299,107.629335 C35.5074673,107.807092 35.7948295,107.972762 36.0916913,108.129189 L36.1396715,108.159198 C36.2651327,108.240324 36.4651433,108.39467 36.3196811,108.527603 C36.1558134,108.674312 35.7045835,108.361459 35.5882137,108.290593 L35.2414792,108.084157 L35.2414792,108.084157 C35.2153554,108.096007 35.1868567,108.100747 35.155983,108.103355 C35.2604784,108.167347 35.357849,108.23608 35.4647193,108.297466 L35.6101112,108.376491 C35.7922624,108.476979 36.0495589,108.642008 35.9563223,108.807037 C35.8630857,108.970311 35.5861125,108.835908 35.4072576,108.7301 L35.2148276,108.611127 C35.2063836,108.605948 35.1979395,108.600918 35.1892316,108.596098 L35.181843,108.624592 C35.1802597,108.629306 35.1781487,108.63402 35.1749822,108.63876 C35.0859237,108.793409 34.8619415,108.692088 34.7074249,108.602864 L34.5836336,108.527603 C34.3730597,108.401039 34.1645967,108.275635 33.9575412,108.149282 L33.6479254,107.958778 L33.6431756,107.958778 C32.5720984,107.316244 31.5817676,106.676554 30.6484343,105.851759 C30.0903342,105.358541 29.5702324,104.837119 29.0762545,104.280146 C28.0835488,103.163829 27.3449567,101.886582 26.6324885,100.583026 C26.6206141,100.561459 26.6372383,100.506946 26.6657371,100.447694 C26.5873656,100.286764 26.511369,100.12299 26.4353723,99.9547129 C25.703905,100.158778 24.8869415,100.218031 24.1341001,100.168259 C23.7303681,100.141951 23.3313859,100.070848 22.9347786,99.9641933 C21.6689601,99.7888058 20.4482646,99.2128715 19.3938117,98.5231723 C19.3273147,98.4805105 19.2679423,98.4331085 19.2061951,98.3906837 C18.7715895,98.1463263 18.3583579,97.8621513 17.9665004,97.5372106 C17.2017846,96.9067639 16.4726921,96.2052142 15.8100967,95.4728532 C15.3303681,94.9042662 14.8767634,94.3138742 14.4516573,93.7023883 C14.0194266,93.0980128 13.5824461,92.4938742 13.1454656,91.8892616 C11.9318948,89.9931814 11.1553045,87.8103191 10.853693,85.5800547 C10.7064495,84.7578669 10.6304529,83.9257247 10.6470772,83.0961896 C10.6589517,82.4965542 10.7254487,81.8898086 10.8418185,81.28567 C10.7729466,81.2190702 10.7040746,81.1529444 10.6352027,81.0842115 C10.5972044,81.1503373 10.5592061,81.1979763 10.5354572,81.1740383 L9.99114255,80.6301452 C9.60503187,80.2416699 9.34597455,79.9558067 8.90153011,79.3277302 C8.1938117,78.3251778 7.66658524,77.2230811 7.27472774,76.061969 C6.99211535,75.2324339 6.80449873,74.288897 6.73087701,73.3766454 C6.70712807,73.224722 6.68337913,73.0706655 6.66437998,72.9142388 C6.51238677,71.6794166 6.65250551,70.4967366 6.84012214,69.278505 C6.85199661,69.1981586 6.8923698,69.1483865 6.94699237,69.1220784 C6.96076675,69.0256153 6.97715352,68.9265451 6.9933028,68.8277119 C5.42017303,67.1657976 4.28806107,65.1628259 4.38044444,62.7439015 C4.40941815,61.9816773 4.56616115,61.2303555 4.86539779,60.5288058 L4.90173367,60.4496445 L4.90173367,60.4496445 C3.58865479,60.248186 2.54702629,59.327639 1.76449873,58.1866727 C1.69515182,58.1319234 1.62794232,58.0767001 1.56334521,58.0217138 C0.164057676,56.8290793 -0.806086514,55.1403829 -1.47034436,53.3566454 C-1.94603562,52.3209116 -2.26118405,51.2140747 -2.39489059,50.0659982 C-2.40439016,49.9839927 -2.41008991,49.9026983 -2.41745208,49.8211668 C-2.74233757,48.005907 -2.82498388,46.1723974 -2.67489059,44.366144 C-3.00096353,43.2481677 -3.26623919,42.1105196 -3.44791858,40.9463263 C-3.53341476,40.3919599 -3.59278711,39.8371194 -3.63791009,39.282516 L-3.64265988,39.2519417 L-3.64978456,39.1521604 L-3.66983922,38.9033877 C-3.67300575,38.8622182 -3.6759084,38.8211364 -3.67828329,38.7800547 C-4.07964037,33.7032999 -2.94206616,28.7071285 -1.06115013,24.0048496 C-0.897282443,23.5819644 -0.728071247,23.1601459 -0.553516539,22.7416935 L-0.368393554,22.3045397 L-0.368393554,22.3045397 C1.51964716,19.2660711 4.35479559,16.8085141 6.75605089,14.2130173 C7.5846514,13.3175934 6.24449873,11.9732726 5.41281086,12.8722516 C3.81735708,14.5967366 2.10577099,16.2484594 0.560427481,18.0210574 C0.287552163,18.0409663 0.014201866,18.0483136 -0.258435963,18.034804 C-0.733414758,18.010866 -1.19414419,17.9352598 -1.64062426,17.8141477 C-2.75444953,17.6506108 -3.76852926,17.2026618 -4.68998813,16.5437739 C-5.9225581,15.9704467 -6.97463613,14.8894439 -7.07913147,13.4792343 C-7.09100594,13.3370283 -7.08863104,13.1971923 -7.07913147,13.0575934 C-7.19312638,12.3676572 -7.09100594,11.6450137 -6.80126887,10.9787785 C-6.7513961,10.7962808 -6.68727396,10.6161531 -6.60652757,10.4383956 C-6.37141306,9.90986326 -5.98430534,9.40289881 -5.51170144,9.05899727 C-5.49982697,9.05188696 -5.4903274,9.04738377 -5.48082782,9.04003646 C-5.43095505,8.98813127 -5.38345717,8.93575205 -5.32883461,8.88858706 C-5.24808821,8.81487694 -5.16259203,8.74638104 -5.07234606,8.68238833 C-5.39295674,8.15598906 -5.68269381,7.61584321 -5.92968278,7.03967183 C-6.1980458,6.41396536 -6.33578965,5.7790155 -6.41178626,5.10804011 C-6.44265988,4.84258888 -6.45453435,4.57950775 -6.45928414,4.31666363 C-6.4735335,4.1955515 -6.48303308,4.07230629 -6.49253265,3.94906108 C-6.551905,3.01050137 -6.44265988,2.03662716 -6.09117557,1.15945305 C-6.06505174,1.09332726 -6.03180322,1.02672744 -6.0009296,0.957994531 C-5.93443257,0.758906108 -5.86081086,0.560054695 -5.77056489,0.365469462 C-5.41908058,-0.381112124 -4.92035284,-1.0139289 -4.3052553,-1.53298086 C-3.97277014,-1.867165 -3.59991179,-2.16342753 -3.19380492,-2.41465816 C-2.95394063,-2.56397448 -2.68082782,-2.69670009 -2.39346565,-2.8057247 C-1.88048855,-3.07591613 -1.22264292,-3.32240656 -0.688291773,-3.34113036 C-0.624169635,-3.34373747 -0.56717218,-3.33639015 -0.505424936,-3.33639015 C-0.455552163,-4.69706472 -0.279810008,-6.17837739 0.259290925,-7.41082954 C0.57277693,-8.30412033 1.04300594,-9.09810392 1.75072434,-9.6695351 C2.16118519,-10.0970749 2.66697163,-10.4442799 3.2980936,-10.6712178 L3.41077523,-10.7100091 L3.45352332,-10.7218596 C4.02112299,-10.9967912 4.63384563,-11.1058159 5.26319254,-11.1032088 C5.99703478,-11.1413674 6.74512638,-11.0036645 7.38397286,-10.6673473 C7.51696692,-10.5962443 7.65946056,-10.5085506 7.79482952,-10.4137466 C7.89694996,-10.6175752 8.01094487,-10.8237739 8.14156404,-11.0297356 C8.59991858,-11.7623336 9.15326887,-12.3998906 9.79449025,-12.9805652 C9.87048685,-13.0492981 9.95360814,-13.1109207 10.0343545,-13.1770465 C10.3454656,-13.4590884 10.6755759,-13.7197995 11.0175606,-13.9568095 C11.7561527,-14.4689881 12.5659915,-14.8503373 13.4162036,-15.0970647 C14.3977904,-15.4590437 15.4334748,-15.6271018 16.4695526,-15.5917417 L16.6840577,-15.5826983 L16.6840577,-15.5826983 C16.7315556,-15.5781951 16.7790534,-15.575825 16.8241764,-15.5734549 C17.8525055,-15.5068551 18.8665852,-15.2556244 19.835542,-14.8766454 C20.8401221,-14.4806016 21.6903342,-13.8812033 22.4811739,-13.1938742 C22.6664156,-13.449608 22.8777812,-13.6915953 23.1366446,-13.9191249 C23.2102663,-13.9828806 23.2886378,-14.04 23.3622595,-14.0992525 C23.419257,-14.1561349 23.4786293,-14.2106472 23.5403766,-14.2651595 C23.822989,-14.5140201 24.1222256,-14.7296992 24.449961,-14.9216773 C24.8180696,-15.1371194 25.2146768,-15.2864357 25.6255335,-15.3788696 C26.0435148,-15.5213127 26.4828702,-15.6090064 26.9293503,-15.6374476 Z M22.0489669,82.0699737 C22.0910142,82.0676523 24.2905707,82.8908115 25.3864561,83.4230192 L25.4403155,83.449382 C26.7037591,84.0750884 27.311732,84.5254075 28.4469313,85.3288715 C28.5229279,85.3833838 28.6012994,85.4663373 28.6012994,85.5469207 C28.6012994,86.717139 28.3163722,88.1480127 27.3307311,87.5141039 C27.1882375,87.42246 27.0446883,87.3329229 26.9000837,87.2447903 L26.6823851,87.113557 L26.6752604,87.1159271 C26.6776353,87.1159271 26.6800102,87.113557 26.6823851,87.1111869 C24.5354809,85.8052616 22.2674572,84.7813783 19.873564,84.0490173 C19.7096964,83.9897648 20.9232434,82.16 21.2581035,82.2619143 C21.0657371,82.1860711 22.0169739,82.0717574 22.0489669,82.0699737 Z M44.6063986,30.3816044 C43.1788499,30.5340018 41.7513011,30.6840292 40.3237523,30.8307384 C39.4141679,30.9350228 38.5022087,31.0274567 37.5902494,31.10567 C36.2199355,31.2078213 34.8496217,31.224175 33.4840577,31.0369371 C32.9995793,30.9708113 32.5246005,30.8757703 32.0543715,30.7596354 C31.7337608,30.9942753 31.4012757,31.2146946 31.0616658,31.4258706 L27.2903342,34.3053054 L27.2903342,34.3053054 C24.7610721,36.2893163 22.2864326,38.3913582 20.058782,40.7116864 C16.1682307,44.7655059 12.9994097,49.5080766 11.0071111,54.7614038 C10.8263817,54.8678213 10.6867379,55.0534002 10.64019,55.3380492 C10.2882307,57.4912853 9.25895165,59.4551504 8.88704326,61.5996171 C8.52083461,63.7118505 9.00792536,65.5074385 10.337391,67.1816773 C10.6211908,67.5393254 11.2025649,67.5203646 11.559274,67.2788514 C11.6421578,67.4414403 12.0012417,67.434567 12.1273486,66.7164266 C12.7184597,66.0776846 13.2240746,65.4081313 13.5665344,64.5790702 C13.8187481,63.9685324 13.3948295,63.5452325 12.8804275,63.4620419 C13.0941679,62.6941294 13.3352197,61.9330902 13.6061951,61.1801094 C14.4089092,58.9424977 15.4301137,56.8049043 16.7149313,54.7997995 C17.8453808,53.0362078 19.1539474,51.5003829 20.5598846,49.9598177 C20.5765089,49.9384868 20.6050076,49.9316135 20.6358813,49.9268733 L20.9279932,49.6043026 L20.9279932,49.6043026 C20.9683664,49.5592707 21.0514877,49.5640109 21.1441086,49.5877119 C21.2319796,49.495278 21.3174758,49.400474 21.4077218,49.3080401 C21.4955929,49.2132361 21.5929635,49.2416773 21.6475861,49.3175205 C21.7972044,49.2843391 22.0703172,49.4455059 22.1534385,49.4978851 C22.2959321,49.5924521 22.3410551,49.6991067 22.2199355,49.8342024 C22.1985615,49.8581404 22.1771874,49.8818414 22.1558134,49.9029353 C22.3196811,49.9719052 22.4811739,50.0641021 22.6070433,50.1544029 C23.0463986,50.25134 23.6638711,50.6589973 23.5570008,50.7801094 C23.3313859,51.0145123 23.1128957,51.2541294 22.8967803,51.4980128 C23.0867718,51.6309754 23.2102663,51.7610939 23.1603936,51.8182133 C22.2341849,52.7920875 21.3792231,53.8233181 20.5955081,54.9156974 C19.9994097,55.7310119 19.4603087,56.5795077 18.9782053,57.4635552 C18.2609873,58.7149681 17.6530144,60.0019325 17.1139135,61.3244485 C17.0379169,61.526144 16.9642952,61.7273655 16.8930483,61.9288241 C16.1045835,64.1306472 15.5156098,66.4154239 15.266246,68.7428624 L15.2558246,68.8998599 C15.2093752,69.7382729 15.1911993,71.9831054 15.1047532,72.5184321 C15.6296047,72.776773 16.1758304,72.9971923 16.74343,73.177557 C16.8503003,73.2083683 16.9595454,73.2368095 17.0687905,73.2628806 C17.1305377,73.2368095 17.1946599,73.2152416 17.258782,73.1962808 C17.7812587,72.9853418 18.3274843,72.8336554 18.8855844,72.7601823 C19.2617082,72.7106176 19.6360138,72.6933529 20.0100921,72.7041012 L20.170402,72.7104102 C20.3366446,72.7151504 20.5005123,72.7270009 20.6667549,72.7438286 C20.6572553,72.6487876 20.6525055,72.5565907 20.6453808,72.4615497 C20.597883,72.4307384 20.5622595,72.3883136 20.5598846,72.3311942 C20.4482646,71.264649 20.4458897,70.1981039 20.55276,69.1315588 C20.6240068,68.5745852 20.7071281,68.0199818 20.797374,67.4656153 C20.8899949,67.0103191 20.9968651,66.5626071 21.1132349,66.1144211 C21.4219712,64.858505 21.8328278,63.6329262 22.3315556,62.4338924 C23.7517422,59.0136007 25.7870263,55.9301003 27.8341849,52.8631905 C29.3279932,50.6236828 30.7410551,48.3339289 32.2871111,46.1321057 C33.6028024,44.2573564 34.9849907,42.4110483 36.4597998,40.6571741 C37.9322341,38.905907 39.4877897,37.2205287 41.1668397,35.6612397 C41.4375776,35.4121422 41.7106904,35.170392 41.988553,34.9312489 C43.579732,33.5091887 45.3086548,32.3404923 47.1088244,31.1936007 C47.1776964,31.1485688 47.3011908,31.1983409 47.4033113,31.2834275 L47.693752,31.1052311 C47.7423934,31.0756487 47.7912106,31.0464175 47.8402918,31.0179763 C47.8854148,30.9897721 47.9352875,31.0369371 47.9614114,31.0772288 C48.0849059,31.0132361 48.2084003,30.9518505 48.3318948,30.8899909 C48.4219033,30.8174658 48.5147617,30.7487329 48.6054826,30.6771559 C47.2705547,30.610082 45.9375267,30.5105378 44.6063986,30.3816044 Z M61.3486887,14.5813309 C60.2704869,14.3658888 59.1875352,14.3348405 58.0998338,14.4960073 C57.6440916,14.5626071 57.1904869,14.6427165 56.7406819,14.7396536 C57.7621238,15.6284412 58.5835997,16.7658523 59.1167634,18.0748587 C59.6929126,19.4898086 57.3947277,20.0996354 56.8266531,18.7050684 C56.2787651,17.3597995 55.2416489,16.3278578 53.9888923,15.7092616 C53.7181544,15.860237 53.4557286,16.0237739 53.2051773,16.2048496 C52.8774419,16.4703008 52.5687057,16.757083 52.2789686,17.0723063 C51.6472468,17.7575023 51.0677727,18.672124 50.6877897,19.5775023 C50.5405462,20.0704831 50.4313011,20.5776846 50.3624292,21.0991067 C50.3481798,21.2176117 50.3339304,21.3384868 50.322056,21.4593619 C50.0878914,23.9121787 50.7906226,26.2986326 51.9996811,28.410392 L52.047179,28.411103 L52.047179,28.411103 C53.1263308,27.8271103 54.2560679,27.3350775 55.4185785,26.9342935 C56.3495369,26.3088241 57.3161187,25.7302826 58.3111993,25.2064904 C60.4266141,24.0927189 62.6609496,23.2341105 64.9633096,22.6469616 L65.2292655,22.5804193 C65.7715329,22.4421635 66.3187481,22.3203667 66.8681622,22.2137944 L67.1980526,22.1516682 L67.2028024,22.1516682 L67.167179,21.7982862 L67.167179,21.7982862 C66.9819372,20.4117776 66.4380865,19.1248131 65.7351179,17.9352598 C65.2078914,17.0369918 64.412302,16.1173929 63.5288414,15.3826618 L63.5240916,15.3800547 C63.1229984,15.1525251 62.7012641,14.9643216 62.2672286,14.8087858 L62.103905,14.7519781 L61.3486887,14.5813309 Z M32.3987311,12.4745488 C30.1568312,12.2633728 27.9149313,12.2847037 25.6730314,12.4672015 C24.2077218,12.6120146 22.7519118,12.8132361 21.3032265,13.0692069 C20.3223953,13.237484 19.3605632,13.4744941 18.4153554,13.7686235 L18.9559956,14.8597354 C19.8595548,16.6768946 20.7851038,18.4821209 21.8755759,20.1984686 C22.4384258,21.082516 23.0487735,21.9241386 23.7137439,22.7321057 C24.1625988,23.3104102 24.6565768,23.8462899 25.1980526,24.3390337 C25.3405462,24.5122881 25.4925394,24.675825 25.6469075,24.8343847 C26.1408855,25.2562625 26.6728617,25.6259982 27.2547108,25.9317411 C27.7212455,26.2709288 28.2084213,26.5672323 28.7162381,26.8269771 L28.907637,26.92268 L30.6888075,27.6050319 C30.7838032,27.631893 30.8798545,27.6587542 30.9762576,27.684281 L31.1210382,27.7214038 L31.3917761,27.7780492 L31.5949615,27.6679712 C31.6290016,27.6498005 31.6633056,27.631893 31.6981374,27.6145123 C31.7551349,27.583938 31.7955081,27.6431905 31.8073825,27.6856153 C31.8121323,27.702443 31.8050076,27.725907 31.7931332,27.749608 L32.0527091,27.6095351 L32.0527091,27.6095351 C32.4989517,27.7903737 32.9725055,27.9349499 33.4804953,28.0302279 C33.7103851,28.0731267 33.9407498,28.1060711 34.171352,28.1342753 L34.2022432,28.1548688 C34.2073976,28.1584767 34.212596,28.1624005 34.2178999,28.1669827 L34.4701137,28.1669827 L34.4701137,28.1669827 C36.2455844,28.3378669 38.046229,28.1119964 39.8188499,27.7941659 C42.3272129,27.5424613 44.8351009,27.2649225 47.341564,27.0053965 C47.3890619,27.0008933 47.4080611,27.0219872 47.4080611,27.0554057 L47.5624292,27.0411851 L47.5624292,27.0411851 C47.7856692,27.017247 48.0469075,27.3893528 47.8782901,27.5246855 C48.013659,27.6050319 48.1442782,27.7214038 48.2416489,27.8114676 L48.2986463,27.8064904 C47.9542867,27.133382 47.6882986,26.4294622 47.498307,25.6973382 L47.2560679,24.4693892 L47.2560679,24.4693892 C47.1895708,24.0119599 47.1515725,23.5239562 47.1444478,23.0425889 C47.1278236,22.8221696 47.1159491,22.6162078 47.1159491,22.4358432 C47.1159491,22.265196 47.118324,22.0945488 47.1254487,21.9241386 C46.6528448,21.7295533 46.1731162,21.5591431 45.683888,21.41433 C44.2945751,21.2439198 42.907637,21.0730356 41.518324,20.9047584 C40.6847362,20.9355697 39.8511484,20.9948222 39.0199355,21.0872562 C38.0771026,21.1702097 37.1366446,21.2768642 36.1985615,21.4048496 C36.1106904,21.41433 35.9539474,21.295825 35.8589517,21.1583592 L35.4575946,21.2131085 L35.4575946,21.2131085 C35.2486039,21.2391796 35.0301137,20.8218049 35.3056014,20.7364813 C35.4053469,20.6969796 35.5050925,20.6595847 35.604838,20.6235943 L35.7544563,20.5705743 L35.6689601,20.5800547 C35.6404614,20.5826618 35.604838,20.5753145 35.5644648,20.5613309 C35.3435997,20.5895351 35.1227345,20.6179763 34.9042443,20.6440474 C34.627145,20.6785578 34.6901221,20.3139544 34.8844924,20.2281514 L34.977866,20.1937284 C34.8137133,20.0915675 34.669259,19.8120429 34.872283,19.7206462 L34.8994945,19.7102279 C34.9944902,19.6725433 35.0871111,19.641495 35.1821069,19.6059435 C35.1749822,19.5753692 35.1749822,19.546691 35.1844818,19.5208569 L34.7926243,19.570392 L34.7926243,19.570392 C34.7568611,19.5750764 34.9272618,19.3255155 35.0088116,19.2761819 L35.022989,19.2693892 L35.2106056,19.2125068 C35.2391043,19.1319234 35.3910975,18.9541659 35.4433452,18.9378122 C36.1320645,18.7218961 36.7732858,18.5277849 37.4430059,18.3782315 C37.4762545,18.3379398 37.5142528,18.3071285 37.5570008,18.2976481 C37.9749822,18.1981039 38.3977133,18.1198906 38.8204444,18.0537648 C38.8489432,18.010866 38.8774419,17.9802917 38.9106904,17.9776846 C39.9580187,17.844959 41.0077218,17.8141477 42.0621747,17.8854877 C42.2640407,17.9042115 42.4659067,17.9257794 42.6677727,17.9516135 C43.0548804,17.9945123 43.4419881,18.0490246 43.8267209,18.1224977 C44.790419,18.2875583 45.7315919,18.5384503 46.6483382,18.8768817 L46.8594606,18.956536 C47.0898253,19.0420966 47.3178151,19.1319234 47.54343,19.2293345 C47.6574249,18.8240474 47.7999186,18.4256335 47.968536,18.034804 C47.9946599,17.9587238 48.0231586,17.8854877 48.0540322,17.8120146 L47.8236675,17.6743118 L47.8236675,17.6743118 C47.7737947,17.7691158 47.6716743,17.8425889 47.6051773,17.8025342 C45.954626,16.6909572 44.2090789,15.7640109 42.368536,15.0245397 C41.3378321,14.5694804 40.2833791,14.1833911 39.2028024,13.8608204 C38.6637014,13.6880401 38.1198507,13.5316135 37.5736251,13.3822972 C37.3005123,13.3251778 37.0273995,13.2682954 36.7495369,13.2208933 C35.3222256,12.8369371 33.8711654,12.5883136 32.3987311,12.4745488 Z M86.7868906,16.2366089 C86.5864495,16.5821696 86.3779338,16.924412 86.1568312,17.2619143 C85.0831416,18.9017867 83.7959491,20.4406928 82.3363393,21.7824066 C82.7170348,21.7814585 83.0967803,21.7959161 83.4717761,21.8309936 C84.1184597,21.8919052 84.7518439,21.9990337 85.3693164,22.1490611 C85.4194266,22.1090064 85.4754741,22.0888605 85.5203596,22.1206199 L85.6813774,22.2317776 L85.6813774,22.2317776 C87.0058558,22.5884777 88.2493503,23.1492434 89.3757625,23.9005652 L89.3555671,23.7521969 C89.3521191,23.7274689 89.3483721,23.7027408 89.3439389,23.6780128 C89.3629381,23.3864904 89.3676879,23.0947311 89.3581883,22.8055789 C89.1254487,21.0967366 88.5435997,19.52299 87.8786293,17.9305196 C87.8660424,17.8997083 87.875067,17.8596536 87.8943036,17.8188879 C87.5587311,17.2718687 87.191335,16.7428624 86.7868906,16.2366089 Z M87.0925394,2.80193254 C86.5961866,2.89199635 86.1045835,3.00813127 85.6153554,3.15270738 C84.6962714,3.29041021 83.8056862,3.53216044 82.9459746,3.87558797 C81.7609025,4.29509572 80.6114538,4.78333637 79.4667549,5.30025524 C77.2438541,6.30494075 75.1586972,7.5755515 73.2611569,9.10663628 C73.1400373,9.19883318 73.0236675,9.2938742 72.9072977,9.38867821 C72.4821917,9.75580675 72.0689601,10.139763 71.6771026,10.5450501 C71.266246,10.990629 70.8530144,11.4364448 70.4421578,11.8841568 C69.9386802,12.4105561 69.3592061,12.8867092 68.9032265,13.4555333 C68.8106056,13.5716682 68.7298592,13.6996536 68.6562375,13.827876 L68.9246005,13.9200729 L68.9246005,13.9200729 C69.1502154,13.9959161 69.1122171,14.417794 68.8889771,14.3561714 C68.8129805,14.3348405 68.7417337,14.3087694 68.6704869,14.2805652 C68.7013605,14.3208569 68.7227345,14.3611486 68.7274843,14.3964631 C68.7417337,14.5102279 68.6538626,14.6668915 68.5137439,14.6265998 C68.4496217,14.6097721 68.3854996,14.5860711 68.3213774,14.56 C68.3023783,14.6334731 68.2881289,14.7069462 68.2881289,14.7780492 C68.3000034,14.7827894 68.3118779,14.7875296 68.3261272,14.7901367 C68.4828702,14.844649 68.7773571,15.0885324 68.8201052,15.2546764 C68.8533537,15.3826618 68.7441086,15.5198906 68.6039898,15.481969 C68.4994945,15.4535278 68.397374,15.410866 68.2976285,15.363464 C68.3641255,15.4276937 68.4163732,15.4964266 68.421123,15.5556791 C68.4306226,15.6647037 68.3356268,15.8185232 68.2050076,15.7832088 C67.9627684,15.7166089 67.7680271,15.6149316 67.6065344,15.4869462 C67.5637863,15.5435916 67.502039,15.5886235 67.4521662,15.5746399 L67.3595454,15.5461987 L67.3595454,15.5461987 C67.3848776,15.5697417 67.4080988,15.5945488 67.4306163,15.6189345 L67.4640407,15.6549863 C68.1195115,16.3612762 68.6918609,17.1434093 69.1502154,17.9850319 C69.1715895,17.9610939 69.1977133,17.939763 69.2309618,17.9136919 C69.4447023,17.7335643 69.6655674,17.5581768 69.8864326,17.3877666 L69.9532265,17.3294918 L69.9532265,17.3294918 L70.0218015,17.2713947 L69.5254487,17.4349316 L69.53643,17.4220985 C69.5715029,17.377295 69.6807204,17.2278536 69.7316066,17.1780648 L69.7439389,17.1671103 C70.4255335,16.5582315 71.1688753,16.0413127 71.9715895,15.6196718 C72.4916913,15.2828806 73.0379169,14.9984686 73.6102663,14.7638286 C74.9758304,14.1310119 76.3675182,13.6501185 77.7972044,13.2045397 C78.0109449,13.1358067 78.2246853,13.0623336 78.4384258,12.9957338 C78.500173,12.9744029 78.5120475,13.000474 78.5025479,13.0431358 L78.6141679,13.0099544 L78.6141679,13.0099544 C78.813659,12.9459617 79.1532689,13.2967366 79.0178999,13.4602735 C79.0995963,13.5266363 79.1797727,13.6005834 79.2499176,13.6699799 L79.3005123,13.7209845 L79.3575098,13.7043938 C79.5271722,13.6521568 79.8134324,13.9161518 79.9952759,14.1031012 L80.1293503,14.2447767 C80.2314707,14.3538013 80.4309618,14.5789608 80.1863478,14.6668915 L79.8799864,14.7709389 L79.8799864,14.7709389 C79.889486,14.8325615 79.8633622,14.8847037 79.7683664,14.9202552 C79.6614962,14.9558067 79.5570008,14.9937284 79.4525055,15.031887 C79.515836,15.0870313 79.578111,15.1443877 79.6393305,15.2024815 L79.7303681,15.2899909 C79.8378541,15.3995422 80.0928896,15.6409608 79.8677567,15.7475817 L79.8396132,15.7592707 L79.5475013,15.8635552 C79.5854996,15.9488788 79.576,16.0296992 79.4477557,16.0768642 C77.7425818,16.6551686 76.0777812,17.3332543 74.4509788,18.1035369 C73.2326582,18.7764084 71.9454656,19.2791067 70.5894012,19.6083136 C70.4777812,19.6441021 70.235542,19.475825 70.1357964,19.3075479 L69.9333147,19.367011 C69.8996264,19.3768338 69.8658502,19.3863142 69.83181,19.3950046 L69.7985615,19.4023519 L69.7985615,19.4023519 C70.0526751,20.0778304 70.2402918,20.8099544 70.3447871,21.5186144 C70.3566616,21.5826071 70.3661612,21.6492069 70.3732858,21.7131996 C70.639274,21.6916317 70.9028872,21.6726709 71.1688753,21.6586873 C73.0094182,21.5612762 74.871335,21.6205287 76.7166277,21.8385779 C77.4623444,21.3953692 78.1795623,20.9094986 78.8659067,20.3835734 C79.0748974,20.2221696 79.2815131,20.0562625 79.485754,19.8879854 C80.7111993,18.8261805 81.8202748,17.6342571 82.8034809,16.3470556 C83.7130653,15.1548952 84.503905,13.875041 85.1688753,12.5338013 C85.757849,11.275041 86.2447023,9.96674567 86.6128109,8.61578851 C86.9500458,7.38096627 87.0664156,6.17932543 87.1519118,4.90184139 C87.1804105,4.69327256 87.1994097,4.48494075 87.2160339,4.27613491 L87.2140988,4.18677335 L87.2140988,4.18677335 L87.2112841,4.1434093 C87.1875352,3.69569736 87.1424122,3.24751139 87.0925394,2.80193254 Z M69.6916913,18.6744941 C69.6370687,18.6934549 69.5800712,18.7124157 69.5230738,18.7290064 C69.5563223,18.8024795 69.5871959,18.8738195 69.6180696,18.9470556 L69.6216319,18.9456039 L69.6216319,18.9456039 L69.8460594,18.7692981 L69.8460594,18.7692981 C69.7985615,18.7479672 69.7439389,18.7150228 69.6916913,18.6744941 Z M86.7600543,-0.558798541 C87.1875352,-0.71759526 87.5105208,-0.748406563 87.729011,-0.648862352 C87.4060254,-0.625161349 87.0830399,-0.594350046 86.7600543,-0.558798541 Z" id="ðŸ–-Ink" fill="#000000"></path>
                    </g>
                    <g id="face/Smile-Big" transform="translate(37.760814, 44.083865)" fill="#000000">
                        <path d="M22.1688546,44.1967986 C26.2399157,43.703704 30.1860888,44.9475399 34.165913,45.5745352 C36.2672052,45.9053903 38.3711041,46.1524099 40.4975161,46.2442748 C40.925263,46.2629311 41.353247,46.2737943 41.7812309,46.2825321 C41.8210434,45.9065711 42.0319546,45.5613104 42.48885,45.3544374 C43.4253907,44.9307728 44.1749551,44.7397222 45.2032067,44.7805773 C46.144487,44.8176539 47.089085,44.9142418 48.0159096,45.083566 C49.698934,45.3915139 51.3895417,46.0903008 52.6206472,47.3043809 C55.4698449,50.1136976 55.0361734,54.6261744 52.8346392,57.6860531 C48.2862101,64.0088909 39.9846916,64.3023432 32.8747745,64.2198561 L32.2186571,64.2112911 C25.7448667,64.1189539 16.4827822,65.0822359 13.5416367,57.7316313 C12.4600648,55.028585 12.6103095,51.8954978 13.9345477,49.3029727 C15.5140123,46.2107406 18.8388267,44.6001538 22.1688546,44.1967986 Z M42.3907407,54.7244155 L42.3326809,54.7267771 C39.3479313,54.8415491 36.3636556,54.9223146 33.3772471,54.9749775 C33.4665882,55.7403604 33.5578251,56.5059795 33.6620958,57.2697094 C33.7438535,57.8707275 33.8315357,58.4710371 33.9227726,59.0706382 C33.9614002,59.3245064 34.1031136,59.7186514 34.0630641,59.970158 L34.0486084,60.0695798 L34.0486084,60.0695798 C34.2019338,60.1387737 34.3410404,60.2502395 34.4446002,60.4120066 C34.480621,60.4679757 34.5066887,60.5244171 34.5327564,60.5806223 C36.8513582,60.5988064 39.3465094,60.5539367 41.7101372,60.1333421 L41.7148768,60.0820961 L41.7148768,60.0820961 C41.75777,59.7807605 41.8833688,59.5779022 42.050202,59.4388061 C42.2163242,58.4778856 42.2011576,57.4539114 42.2653789,56.5005479 C42.3054283,55.9082676 42.3487955,55.3164597 42.3907407,54.7244155 Z M31.0963249,55.0155964 C28.9449775,55.0521219 26.7926939,55.0802508 24.6418042,55.0540397 L23.6653766,55.0389759 L23.6653766,55.0389759 C23.8715483,56.1430071 24.0959673,57.2432599 24.2824697,58.3546119 C24.4770294,59.5129592 23.4554132,60.2492949 22.5712449,60.2195392 C22.670539,60.235834 22.7695962,60.2526011 22.8688904,60.2665343 C25.6313538,60.6564285 28.4997468,60.552992 31.3032075,60.549922 C31.1523704,59.6713729 31.213482,58.6800774 31.1909155,57.9467665 L31.1866139,57.8331786 C31.1437207,56.8935122 31.1136244,55.9545543 31.0963249,55.0155964 Z M16.4832561,54.8129742 C16.5579045,55.3870704 16.7031726,55.9488865 16.9204823,56.471973 C17.8387756,58.6819247 19.9440964,59.7132198 22.1716984,60.1475115 C21.7851857,60.0143192 21.478298,59.6943273 21.4008059,59.1462083 C21.2076681,57.7833496 21.1382333,56.3978199 21.1330197,55.0139433 C19.5805708,54.9995377 18.0176947,54.9664758 16.4832561,54.8129742 Z M50.4866519,54.3411337 C49.3813822,54.601378 48.0969564,54.482119 47.0125408,54.5312396 C45.9966121,54.5772901 44.9802095,54.6174367 43.9642808,54.6585279 C44.0121506,55.3507023 44.0588354,56.0426406 44.1095489,56.7343428 C44.1749551,57.628431 44.1811165,58.5732928 44.3526893,59.4636025 C46.3973435,58.7671772 48.2294276,57.6503935 49.6039054,55.8645787 C49.94634,55.41966 50.2529907,54.8975182 50.4866519,54.3411337 Z M21.7017692,47.8227443 C19.8618647,48.2575082 18.1205436,49.1759205 17.1847138,50.8561734 C16.6292352,51.8532258 16.3849099,53.0349525 16.4318317,54.1994398 C17.9868875,54.0187801 19.5687218,53.9502948 21.1429728,53.8936172 C21.1481864,53.6107019 21.1548745,53.3281013 21.1633881,53.0460956 L21.1876416,52.3233087 C21.2305525,50.9447585 21.2521139,49.2136404 21.7017692,47.8227443 Z M31.2250045,47.9908876 L30.4150545,47.900098 C28.1653504,47.6442883 25.9168542,47.3757508 23.6670354,47.5296741 C23.3414264,47.552109 23.0108408,47.5875325 22.6795442,47.6359445 C23.0771949,49.067997 23.0437808,50.749903 23.2099031,52.16755 C23.2741244,52.715669 23.3551712,53.2593011 23.4449862,53.8008078 L23.8352905,53.7826237 L23.8352905,53.7826237 C26.2493948,53.6520292 28.665869,53.571736 31.0818692,53.4760927 C31.0816915,53.0233809 31.0841797,52.5704033 31.0914335,52.1172598 L31.1003535,51.6640645 C31.1278431,50.5066619 31.0529578,49.2028423 31.2250045,47.9908876 Z M42.522264,47.8071579 C40.1659825,48.1866613 37.730787,48.2674268 35.4162138,48.2702607 C34.491759,48.2714414 33.5677782,48.2147639 32.6442713,48.1330538 C32.7044639,48.6237868 32.7357451,49.1201876 32.7810081,49.6040721 C32.8721976,50.5819486 32.9764304,51.5583137 33.0897026,52.5337719 L33.1907447,53.3872979 L33.1907447,53.3872979 C36.1603277,53.2529249 39.1296737,53.1076887 42.0985457,52.9572571 L42.5175245,52.9348222 L42.5175245,52.9348222 L42.6349607,51.2944885 C42.7149016,50.2006819 42.8028471,49.1071203 42.927024,48.0182818 L42.8338913,47.9847476 L42.8338913,47.9847476 C42.7244071,47.9398778 42.6206103,47.8780049 42.522264,47.8071579 Z M43.5455391,48.2142916 C43.6754035,49.76088 43.7472081,51.3138446 43.8427106,52.8630306 L45.7999108,52.7586845 C46.1260816,52.7409378 46.4522436,52.7228325 46.7784056,52.7040974 C48.0467169,52.631125 49.676421,52.2478432 50.9302765,52.605384 C51.026016,51.4678185 50.7001699,50.3595365 49.6714444,49.5953343 C47.865428,48.2530212 45.5657844,48.7310018 43.5455391,48.2142916 Z M36.8585683,34.3886618 C39.7730382,32.7229553 47.0855742,31.0205123 47.5486785,36.2548788 C47.7616567,38.6636029 45.9672866,40.6594144 43.8719708,41.5499871 L43.7932587,41.5828642 C41.8280339,42.3891723 38.3447769,43.2997648 36.6441154,41.5513418 C35.2286785,40.0961003 37.1060322,37.4868569 38.8648787,38.6790173 C39.7687683,39.2914562 41.6713373,38.8401964 42.6799344,38.548784 L42.7430806,38.530412 C43.8314945,38.2111595 45.2825547,37.1894093 44.8325123,35.8519617 C44.4342426,34.6688077 42.7395182,34.4526545 41.6781781,34.4142589 C40.0938863,34.3576135 38.5521052,34.724742 36.9823003,34.8441951 C36.7336489,34.8631559 36.6569398,34.5038487 36.8585683,34.3886618 Z M48.9313418,25.9717958 C52.8869652,25.786928 55.3475929,30.0971923 54.4380085,33.6288788 C54.2807905,34.2382315 53.597771,34.8364448 52.9385004,34.767949 L52.772387,34.7526931 C52.6879966,34.7445987 52.6032129,34.7339617 52.5252689,34.7124886 C51.8992468,34.5394713 51.3380594,33.8895898 51.3836573,33.2160073 L51.3957707,33.0197356 C51.4880628,31.3513908 51.3068941,29.4292291 49.320112,29.025196 C47.6351247,28.6824795 46.6944292,30.301021 46.6744801,31.790866 C46.6706802,32.0553692 46.3728685,32.24 46.1384665,32.097794 C44.9203834,31.3580857 44.7094928,29.8864904 45.1747345,28.6191978 C45.7644207,27.0134549 47.2401798,26.0507201 48.9313418,25.9717958 Z M19.5769398,26.8962297 C22.4555488,25.9377612 25.5611976,27.469083 26.9550229,30.0088824 C27.4440136,30.1501404 27.9322918,30.5262753 27.8643698,31.1022097 C27.7662867,31.9307967 27.6185683,32.4531668 27.042894,33.0814804 C26.1424739,34.0643854 24.4560891,33.5618267 24.081838,32.3518619 L24.0659644,32.2972142 C23.6408584,30.7331851 21.9157354,29.7012434 20.344268,30.2487366 C18.508475,30.8881896 18.5616726,32.8231395 17.2740051,33.9503592 C17.1227243,34.0828478 16.9412824,34.1039417 16.7598405,34.016485 C15.3921391,33.3568861 15.6379406,31.3716901 16.1255064,30.235464 C16.7650653,28.7444339 18.0080848,27.4183628 19.5769398,26.8962297 Z M15.6565835,18.1725305 C17.9892044,15.797216 24.0717829,13.4986928 25.6674741,17.8850374 C25.9714606,18.7204977 25.324302,19.8470064 24.4527159,20.0202607 C23.0254046,20.3037247 21.7591111,19.6853655 20.3412994,19.7962862 C19.1935131,19.8865871 17.9963291,20.2693582 17.0786701,20.9789663 C14.5370585,22.9442534 13.9780085,26.2683191 12.20705,28.7697229 C12.1208414,28.891546 11.9534114,28.8403519 11.9374996,28.6967238 C11.5342426,25.0550647 13.1016726,20.7739526 15.6565835,18.1725305 Z M46.0778355,15.8342133 C47.6257913,15.2886162 49.3787006,15.3353072 50.9347311,15.8192817 C52.5021612,16.3070483 53.9411094,17.2332835 55.0497099,18.4434567 C55.5527125,18.9928459 56.0181917,19.5991176 56.391525,20.2444959 C56.5898287,20.5865014 56.7983444,21.2930283 57.0237218,21.7137211 C58.2431094,22.416315 58.7643027,24.0173402 57.6725954,25.1563543 L57.6233825,25.2063008 L57.4773265,25.3508769 C56.8904902,25.9306035 56.0056047,26.1818341 55.204553,25.9502753 C53.411983,25.4326454 53.1942053,24.0236208 52.5736455,22.5280875 C52.1637388,21.5402297 51.4614826,20.6661367 50.6100831,20.0240766 C48.5978355,18.5072124 45.2983953,18.023949 42.8757659,18.7387712 C42.7468092,18.7769298 42.5952909,18.6129189 42.6871993,18.4939398 C43.1462663,17.9004667 43.4108295,17.4134111 44.0254521,16.9346509 C44.6493367,16.4487803 45.3302188,16.0977685 46.0778355,15.8342133 Z" id="ðŸ–-Ink"></path>
                    </g>
                    <g id="facial-hair/*-None" transform="translate(29.211196, 80.109389)"></g>
                    <g id="accessories/*-None" transform="translate(11.162002, 57.119417)"></g>
                </g>
            </g>
        </g>
    </g>
</svg>