<?xml version="1.0" encoding="UTF-8"?>
<svg width="304px" height="680px" viewBox="0 0 304 680" version="1.1" xmlns="http://www.w3.org/2000/svg" xmlns:xlink="http://www.w3.org/1999/xlink">
    <!-- Generator: Sketch 62 (91390) - https://sketch.com -->
    <title>peep-standing-5</title>
    <desc>Created with Sketch.</desc>
    <g id="Introduction" stroke="none" stroke-width="1" fill="none" fill-rule="evenodd">
        <g id="variations-standing" transform="translate(-661.000000, -905.000000)">
            <g id="a-person/standing" transform="translate(621.000000, 854.000000)">
                <g id="pose/standing/resting-1" transform="translate(-28.736217, 150.264357)">
                    <path d="M124.919624,125.506028 L124.583577,129.507468 L124.332788,129.038662 C124.297164,137.110513 123.09903,145.270768 121.777639,153.324369 C118.323594,150.489018 115.48417,147.989273 116.304221,143.149291 C118.381304,136.251588 121.045222,129.523111 123.198776,122.662855 L123.55976,124.461761 L124.981371,124.747595 L124.919624,125.506028 Z M371.602237,550.734013 C370.96624,547.929473 370.272058,544.959975 369.621812,542.147851 C369.55769,541.910367 368.962304,541.856802 368.770413,541.79281 C365.332041,533.388197 362.323288,531.472682 355.663848,530.329346 C344.92529,528.39013 334.328276,524.186283 324.183916,517.955763 C324.420693,517.02858 325.068089,515.427814 325.656588,513.718024 C325.579879,513.744332 325.502457,513.767322 325.422661,513.782728 C325.286579,513.809036 325.158572,513.815198 325.036503,513.806666 C324.348496,515.419282 323.599692,516.835891 323.20356,517.358024 C321.936554,516.542472 320.526579,515.645152 319.284985,514.77817 L319.290209,514.763001 C318.185171,513.998407 316.81937,513.053922 315.737368,512.464952 C315.534552,511.346976 313.8935,511.000467 313.036164,510.262181 C311.371838,509.075234 310.448717,508.463275 308.922135,509.978717 C305.629344,505.709929 302.9773,501.195836 300.370142,495.360412 C298.738589,491.949601 297.937063,488.172846 295.743373,485.127267 C295.785409,485.103566 297.179946,484.670075 297.214145,484.630968 C272.284883,429.50291 268.290786,368.160449 262.973161,309.233357 C261.800201,296.055836 260.573093,282.756729 258.286545,269.965535 C257.972822,268.028452 257.691159,266.120759 256.523424,264.576164 C270.532924,253.053448 270.66948,230.718808 263.883695,214.153229 C279.485799,172.140595 248.903102,127.519191 251.159963,84.6421807 C252.425069,55.5579692 247.180354,21.8586985 214.267885,14.8804123 C210.186393,12.535435 205.293399,12.1853712 201.39881,12.1220896 C197.892516,10.3539948 197.339879,6.45020259 196.091634,3.24108682 L194.871889,3.24867114 C194.513992,1.7962737 194.159658,0.203803324 193.851872,-1.25949659 C193.389005,-2.18739084 193.663305,-3.396616 192.20512,-3.13946012 C188.900218,-7.91568619 162.451261,-10.3168348 162.150837,-2.62633341 C161.19613,-2.06438264 161.007563,-0.967500231 160.785273,0.364496122 C159.318539,9.80981973 149.21384,17.3422354 140.109209,15.8232381 L139.961728,15.6902755 C101.200608,14.2563649 85.9416768,41.7817614 78.3674274,79.2947605 C72.4494291,108.44178 68.6878345,140.029291 73.3222026,169.224423 C77.849938,182.455271 91.5642383,188.82136 102.174315,196.972135 C100.951244,200.048762 100.837012,203.442983 100.799726,206.772026 C100.659845,210.614906 100.379845,214.489072 100.039285,218.280759 C99.3415411,223.086137 98.2120415,231.357076 104.764849,231.918079 C107.303373,289.349163 112.605561,346.62951 104.503611,404.228161 C97.7776734,436.081834 100.352533,474.624405 108.6687,505.79075 C109.148428,507.330604 110.380761,508.716164 111.95484,508.223894 C112.75423,508.739628 113.378589,509.063147 114.039522,508.576091 C114.429005,509.296128 114.855773,509.98796 115.317215,510.658698 C115.49177,519.221397 116.464289,527.622217 116.021609,536.240376 C115.361388,536.164059 113.909141,535.438097 113.344866,535.913065 L113.26412,536.569583 L112.726918,536.753028 C111.602406,539.919719 110.896825,543.244259 110.374824,545.925554 C108.099438,550.5226 105.19233,558.657495 106.813432,563.778097 C106.734824,563.869109 106.298318,564.375836 106.229684,564.452627 C105.842338,564.674232 105.770854,564.97002 105.676333,565.309656 C104.572008,565.723238 104.458725,566.982946 104.344968,568.271096 C103.791855,571.392281 104.613568,574.229291 104.895943,577.282691 L104.912567,577.262308 C104.912567,577.262308 105.839726,578.335016 105.841151,578.336438 C117.493568,579.044387 128.967868,579.225936 140.568513,579.642126 C141.443899,577.968361 141.707512,575.7061 142.365358,573.867377 C156.118369,583.911151 179.946868,580.068981 197.221609,577.602181 C204.237046,576.592518 210.8649,575.638553 216.7411,575.320959 C217.123458,575.268343 217.150769,575.103858 217.160744,574.951935 C217.218454,572.653174 217.651634,570.296347 217.435519,568.065134 C218.648852,566.888379 218.09574,564.744624 217.261914,562.861816 C214.195689,556.232409 205.861473,555.506921 199.109175,554.375909 C186.405867,551.914797 176.190973,547.285754 167.927529,540.209346 C168.483492,539.707358 168.988157,539.214378 169.447936,538.732062 C169.268394,538.612609 169.088852,538.493393 168.909785,538.372755 C168.474942,538.182436 168.059098,537.987377 167.67769,537.741123 C167.483424,537.850148 167.239997,537.872427 166.999658,537.737805 C166.169158,537.272317 165.492313,536.58807 164.703373,536.064514 C164.546868,536.288963 164.38965,536.517678 164.231482,536.756584 C163.47484,535.960704 162.618454,535.059355 161.870125,534.224843 C161.843288,533.994232 161.904086,533.419008 161.622186,533.356201 C159.494756,533.570932 157.030566,534.286702 154.805053,535.081871 C152.289565,526.830367 150.832567,517.900066 151.00071,509.467012 C153.474399,509.467249 155.641015,509.444259 157.485595,508.270348 C157.989785,508.405681 158.692279,508.697441 158.822661,507.906301 C159.571227,504.676802 159.765731,501.257696 159.95406,497.951406 C163.782864,435.403512 169.616554,385.143165 188.965765,332.158863 C190.823882,339.515654 193.943543,347.167049 196.782491,354.490658 C209.698114,385.097659 219.002949,418.105809 226.97903,450.231333 C230.117215,462.256274 233.528513,475.469583 236.897775,487.369619 C238.204442,493.09033 240.860523,495.184314 246.426562,495.138808 C250.715621,495.339792 255.019404,495.277459 259.325799,494.975745 C265.196774,500.318662 267.604204,507.53064 269.319353,514.024715 C267.890379,515.085572 265.622355,514.685262 263.951617,515.035563 C262.511007,517.353521 263.009497,520.594633 263.04322,523.453922 C263.26931,527.168817 263.076706,531.154378 264.160133,534.661652 C264.353687,538.498133 264.377673,542.700795 264.666698,547.161087 C261.483865,549.003603 262.066902,553.074487 263.123967,556.969036 C263.596333,557.959975 280.702695,557.763493 284.946155,557.722254 C289.932483,557.43239 297.043153,558.704186 298.678267,553.246793 C310.54965,559.829984 328.610243,557.605645 342.440676,555.668325 C352.478165,554.447249 361.571634,553.31126 371.428632,551.240029 C371.530515,551.195472 371.673721,550.878826 371.602237,550.734013 L371.602237,550.734013 Z" id="ðŸŽ¨-Background" fill="#FFFFFF"></path>
                    <path d="M263.95999,514.928531 C266.63507,516.410791 268.775087,518.724483 271.583399,520.007655 C283.737394,526.086726 299.123858,522.812432 308.384757,513.063499 C309.691186,513.090518 310.739701,511.663243 310.462789,510.378175 C313.241177,510.623006 315.431542,512.760363 317.4996,514.447637 C317.216987,516.4006 317.347606,518.363043 318.138446,520.233052 C318.200193,520.382131 318.468556,520.441384 318.501805,520.233052 C318.741669,518.810992 318.988658,517.379214 319.311644,515.973982 C319.89468,516.450846 320.487454,516.905194 321.090439,517.35575 C321.142687,518.523973 322.363383,519.374839 323.360838,518.972159 C331.54401,524.517008 340.79351,528.452323 350.399006,530.753927 C357.914833,532.321748 361.818446,532.160108 365.151847,540.063681 C363.916427,540.310408 362.701044,540.909807 360.84379,541.362496 C329.420142,545.024064 297.706758,541.077847 266.232763,543.749187 C265.811932,536.839634 265.435511,529.934583 264.95982,523.02977 C264.79239,520.544957 264.719481,518.037628 263.753374,515.715641 C263.772373,515.431229 263.817496,515.151557 263.907742,514.933508 C263.924366,514.930901 263.940991,514.930901 263.95999,514.928531 Z M265.133187,497.918558 C265.234833,497.458284 264.873612,497.070536 264.515715,496.766689 C264.104858,496.07462 263.637004,495.422842 263.081279,494.872979 C273.995579,493.908822 284.460075,490.556552 294.712492,487.09905 C295.951237,495.899469 300.34764,503.892159 305.302144,511.153198 C296.892882,519.90503 283.199243,522.03575 272.191372,517.251466 C272.92569,515.633872 271.350185,513.297902 270.94954,511.627218 C269.568777,507.62483 267.678361,503.799488 266.040397,499.911812 C265.760159,499.269515 265.465673,498.589296 265.133187,497.918558 Z M262.886538,497.766634 C262.960159,497.819014 263.036156,497.873763 263.109778,497.920928 C263.154901,498.029953 263.197649,498.138977 263.242772,498.248002 C263.128777,498.124757 263.012407,498.003644 262.896037,497.885139 C262.893662,497.844848 262.891288,497.806926 262.886538,497.766634 Z M161.989167,534.064957 C162.207657,534.451284 162.435647,534.83287 162.673137,535.207345 C162.216207,535.491758 158.772373,542.792851 160.697225,541.625577 C161.765927,540.106343 162.834629,538.575258 163.986453,537.112906 C164.307064,537.539524 164.637174,537.958795 164.979159,538.369059 C163.794087,539.219925 164.254816,541.21318 165.824621,541.217683 C166.386046,541.22029 166.821364,541.104155 167.344553,540.909807 C174.369727,547.622168 183.60569,551.592086 192.903162,554.052013 C200.606843,556.462879 215.117683,555.230901 215.509778,566.194036 C214.726063,566.174602 213.886063,566.428913 213.289252,566.992523 C179.27697,578.482769 144.137327,566.370609 109.831746,563.015732 C110.305062,562.066507 109.702314,560.352924 108.447084,560.427582 C108.435308,552.749406 110.561075,545.125504 113.638701,538.13916 C131.093459,554.761621 143.591338,538.500837 161.198327,534.524757 C161.537937,534.456024 161.799176,534.287747 161.989167,534.064957 Z M170.98764,531.081001 C170.937293,531.081001 170.809048,531.064884 170.759651,531.081001 C170.05122,533.466507 168.545062,535.615951 166.627335,537.157938 C166.116733,536.691028 165.61563,536.214638 165.124027,535.731138 C166.404095,534.247218 167.805282,532.875167 169.427335,531.716188 C169.882127,531.405942 170.413391,531.045923 170.98764,531.081001 Z M103.11792,223.906525 C102.663603,222.247455 103.17753,220.511593 103.22954,218.824793 C103.619023,214.234146 104.148624,209.60771 104.046504,204.995495 C103.920872,203.335951 103.885723,201.731393 104.255494,200.110718 C104.142925,199.675805 103.753917,200.703954 103.638022,200.800418 C103.614273,200.670062 103.583399,200.539706 103.557276,200.409351 C103.742517,200.198412 103.939634,200.013544 104.153374,199.835787 C113.275104,207.366069 122.115647,215.236461 130.640567,223.434875 C131.524027,224.281001 132.827844,224.228859 133.718429,223.434875 C135.566097,221.785285 137.480261,220.23761 139.451423,218.779998 C140.133018,221.003152 141.175596,223.062769 142.367793,225.053654 C134.576003,226.002879 126.887522,223.935914 119.15083,223.332961 C113.962874,222.935258 108.755444,223.179615 103.602399,223.863863 C103.469405,223.882824 103.260414,223.882824 103.11792,223.906525 Z M120.295528,150.172706 C117.57485,147.826069 116.434663,146.292377 116.769048,142.595495 C118.378277,137.132888 120.464383,131.822915 122.245316,126.417191 C122.474494,127.559105 122.493968,128.728512 122.589676,129.88678 C121.960329,136.665267 121.472763,143.466507 120.295528,150.172706 Z M123.06228,124.51874 C123.024282,124.447637 122.986283,124.376297 122.94591,124.307801 C123.005282,124.125304 123.064655,123.942569 123.124027,123.760308 C123.102653,124.013909 123.083654,124.265139 123.06228,124.51874 Z M74.004095,166.241985 C74.0207193,163.343353 73.6407362,160.425759 73.4721187,157.534237 C72.0806684,133.211557 73.7867922,108.711593 78.5567668,84.8171905 C84.8473859,51.0340182 96.5009907,17.109825 136.770168,16.4208368 C138.182755,17.6971358 138.678633,19.6659781 139.465673,21.3577557 C141.838904,26.046051 145.324774,30.1060328 149.321483,33.4974093 C165.886368,46.9534166 209.693662,62.3147475 213.541466,29.7149663 C213.55049,28.7024594 213.481618,27.6337812 213.317751,26.564866 C213.681109,25.4435716 213.512492,24.0383391 213.256003,22.7772088 C213.429371,21.8744376 213.163383,20.8387037 212.705028,19.8643555 C212.781025,19.8005998 212.852271,19.7294968 212.914019,19.6512835 C211.106249,16.2070538 208.00725,15.0800711 204.566029,13.7829152 C204.091288,13.3088952 204.511644,12.3276737 205.240736,12.5836445 C206.84379,13.1453582 208.491966,13.5243373 210.163891,13.8111194 C210.396631,13.8516481 210.543874,13.9725232 210.617496,14.1263428 C249.670015,25.9237539 248.393272,58.025814 247.793137,91.9561696 C248.384485,128.512833 269.606063,162.833781 263.413764,199.769424 C256.104553,155.198977 241.727182,111.852687 238.464078,66.5934895 C238.218751,62.5346928 237.615053,58.5268532 237.156699,54.4893874 C236.922534,52.7888405 236.666996,48.02565 236.083484,48.8222407 C233.296071,64.3881112 235.473612,80.3813108 237.81217,95.8784485 C242.968539,127.37163 251.487997,158.1872 257.253289,189.561402 C260.43446,203.509205 260.776207,218.175149 246.75792,226.2406 C231.606097,234.561785 212.753713,232.889679 196.382382,229.517263 C195.07619,229.210809 194.088234,229.888658 193.618005,230.822478 C190.421873,224.138795 183.248743,220.849333 178.580176,215.367054 C173.904723,209.385632 170.845859,202.313727 166.546589,196.064957 C166.983569,192.262842 163.441415,186.269096 159.398158,186.188749 C149.188251,175.550791 138.145232,165.70421 126.211389,157.029406 C126.038022,156.481912 125.572543,156.173799 125.244807,155.683189 C124.757717,154.856498 124.441381,153.825504 124.517852,152.87225 C126.329659,142.426507 126.752865,131.588749 123.919617,121.278813 C128.971491,105.61245 132.045791,89.4341459 134.929625,73.2676919 C135.199176,72.4857958 133.887284,72.1191413 133.692305,72.9263974 C133.352696,74.64235 133.027335,76.3606727 132.709099,78.0789954 C126.886097,99.5288769 119.949269,120.622295 112.381907,141.514492 C111.498921,144.427582 110.672458,147.335696 111.171186,150.386015 C111.603179,152.164775 114.305571,151.993417 114.614782,150.170098 C115.21943,149.993526 115.754256,150.150427 116.227335,150.50926 C116.232085,150.502149 116.23446,150.495039 116.239209,150.490299 C119.859973,155.656881 124.658446,159.927801 129.540991,163.971192 C137.904892,171.067273 146.108251,178.352961 153.833781,186.141347 C155.669337,188.509077 161.831712,192.736388 162.267267,195.936735 C161.459328,201.6373 155.547267,204.340399 150.905537,206.569005 C144.152763,209.843298 137.819634,213.989552 132.203247,218.962259 C119.976343,207.679871 107.237649,196.921985 93.7750874,187.132049 C86.054307,181.585778 76.491084,176.087619 74.004095,166.241985 Z M211.037852,20.1700985 C211.071101,20.3528332 211.101975,20.5353309 211.132848,20.7154585 C210.98798,20.514 210.838361,20.3149116 210.679243,20.1253036 C210.797988,20.1418943 210.916733,20.1561149 211.037852,20.1700985 Z M255.134884,260.984374 C255.004265,260.59781 254.866521,260.214091 254.728777,259.830135 C255.086198,258.116789 255.624824,256.510098 255.78798,254.708348 C259.250575,251.196571 261.399854,246.413945 261.974578,241.535331 C262.145571,240.10142 262.245316,238.726762 261.190863,237.605705 C260.803756,237.19307 259.982042,237.148275 259.602059,237.605705 C258.310117,239.15812 258.644977,241.497409 258.184248,243.391119 C257.215053,247.40204 254.971966,251.183772 251.757785,253.736607 C249.94764,255.21318 247.636156,257.077026 245.564061,257.644902 C247.181126,251.337118 250.73943,245.333417 251.211084,238.686233 C251.346928,236.738011 251.223433,234.915641 250.74608,233.019561 C250.391271,231.838777 249.857394,230.81276 250.278226,229.582915 C255.167657,226.432104 259.488064,221.895258 261.682466,216.414401 C262.463094,216.499962 263.265571,216.154401 263.618005,215.28647 C265.373052,228.248549 267.740821,241.935878 260.960499,253.821931 C259.441279,256.516261 257.480567,258.96173 255.134884,260.984374 Z M185.405622,230.971794 C183.496682,229.017172 181.777496,226.905176 180.021737,224.816644 C178.157683,222.887619 174.978412,225.894091 178.269065,228.717829 C184.003722,235.869843 183.799718,244.78782 181.07619,253.070609 C180.605961,250.942259 180.230728,248.828129 179.525384,246.740071 C177.775087,241.561402 175.119956,236.735878 171.806979,232.393617 C171.009014,231.34864 168.942857,231.879305 169.467708,233.377446 C171.123009,238.096315 171.871101,243.317646 171.120634,248.294857 C170.76915,250.615185 169.766945,252.821748 169.631576,255.177628 C169.586453,255.992943 170.070931,258.05493 168.781364,257.58802 C168.285011,257.407892 167.843281,256.357938 167.631915,255.68957 C166.57865,252.238704 166.800227,248.582113 166.39697,245.033362 C165.895868,240.421384 165.124027,235.683553 161.81105,232.180545 C161.084332,231.410263 160.01088,231.905613 159.666521,232.744629 C157.047488,239.051703 159.757004,246.874693 155.0996,252.406981 C154.86686,252.662952 153.536919,253.959397 153.320804,253.788749 C152.95507,253.499597 153.349303,251.866598 153.41105,251.487382 C156.613357,238.278813 145.729218,227.31307 141.840567,217.073526 C149.582483,210.718813 162.836767,208.686689 166.199854,198.26915 C169.337327,205.18534 172.05658,212.503025 177.029371,218.369971 C181.906928,224.195914 191.052645,228.03998 191.430728,236.54864 C189.102144,235.196972 187.287963,232.865741 185.405622,230.971794 Z M115.22513,507.171429 C121.208675,507.264337 127.221194,509.117756 133.153204,509.019871 C138.631847,509.214456 144.117615,508.961566 149.587471,508.631411 C147.520838,516.769861 148.317377,526.313307 151.050405,534.206926 C140.417055,539.170864 130.73485,546.260545 119.072458,539.33843 C118.944214,538.31431 118.595104,537.297774 118.257869,536.302332 C118.392051,535.751758 118.494171,535.031958 117.989506,534.59586 C118.017293,525.395604 117.066385,516.18895 115.22513,507.171429 Z M324.569659,507.294912 C325.275953,508.039123 322.759752,513.835914 322.154392,514.817373 C321.436936,514.354966 320.726368,513.901566 320.021737,513.419014 C320.582212,511.750226 321.337428,510.155386 322.434629,508.697774 C322.731491,508.304337 323.902314,506.72111 324.569659,507.294912 Z M370.103501,540.98802 C369.987131,540.485559 369.505028,540.028129 368.980176,539.900144 C367.468556,536.003699 365.052814,532.107017 361.311881,530.057118 C359.05312,528.888658 356.549981,528.549734 354.087216,528.061493 C343.751203,526.049515 333.926979,521.961803 324.952017,516.552286 C325.833578,514.063681 326.659803,511.592851 327.189167,509.013234 C328.052679,506.12503 325.751406,503.711083 322.866623,504.922204 C320.329761,506.059852 318.796054,509.544848 318.041075,512.041985 C317.402229,511.603517 316.727759,511.165048 316.03429,510.766871 C315.673306,509.759579 314.481109,509.330591 313.562025,508.759397 C312.130202,507.806142 310.206538,506.136644 308.484502,507.42977 C305.371491,503.286361 302.876427,498.691211 300.770846,493.967601 C299.116733,490.639743 298.486198,486.854456 296.168302,483.882587 C296.493662,481.823918 295.232119,479.7707 294.389744,477.940983 C293.608166,476.270062 292.86245,474.58018 292.159481,472.873708 C277.572645,433.253927 272.382789,390.774857 266.260075,349.202113 C261.856071,321.212414 262.525079,292.495805 256.310456,264.826306 C271.406945,252.573599 271.049048,229.961183 264.477717,213.245814 C278.515003,174.095313 254.714765,135.123991 251.838531,96.127309 C250.914935,67.668093 255.659498,33.4948022 226.015121,17.4283665 C222.261601,15.361402 218.229506,13.6930884 214.01122,12.8656864 C210.108081,10.6750027 205.456377,10.1412562 201.037174,10.0547475 C198.543298,8.70307931 197.835342,5.60061805 196.940244,3.10798359 C196.695868,2.20971559 196.147267,1.19768277 196.049897,0.278083865 C196.040397,0.197500456 195.916902,0.164319052 195.895528,0.256752963 C192.43412,9.36220419 201.162568,18.8764977 210.042772,20.0233892 C214.046368,34.1152944 205.625232,46.678959 190.449422,45.8807092 C172.877818,44.5655406 148.03809,34.8886582 141.686198,17.0773546 C144.486911,17.0252124 147.152492,16.1530155 149.794087,15.3232434 C150.404434,15.0445196 151.254171,15.0862334 151.62988,14.4678742 C157.701771,11.4220583 162.385774,5.69281495 163.397479,-1.042299 C163.354731,-1.00888058 163.281109,-0.959108478 163.16474,-0.885635369 C163.269235,-0.951998177 163.364231,-1.02310119 163.449727,-1.09657429 C163.535223,-2.12993801 163.547098,-3.16330173 163.447352,-4.19903555 C162.981873,-4.6185433 162.321652,-4.84607293 161.554561,-4.69201641 C159.217666,-4.22273655 159.170168,-1.76494257 158.794935,0.0789954421 C158.4577,1.74043573 157.825978,3.26915041 156.975766,4.73387238 C153.512458,10.6079289 146.886979,14.6949298 139.954901,13.8066162 C139.63904,13.5222042 139.194935,13.3823683 138.765079,13.5243373 C138.795953,13.5506454 138.829201,13.5767165 138.860075,13.6004175 C98.1484546,12.1091504 83.6236031,43.3205269 76.5338321,78.1508095 C70.8685225,103.709971 68.6330348,130.029934 69.9525259,156.175933 C70.275274,159.198995 69.8770042,167.438412 71.8548159,169.216461 C76.2018219,182.409624 89.8244512,188.609096 100.097055,196.501056 C99.013391,199.602569 98.9894046,202.905304 98.9333571,206.154474 C98.7718643,209.868421 98.5225004,213.579998 98.1828906,217.284228 C97.8765293,220.626306 97.0001934,224.378175 98.2137642,227.629953 C98.9879796,229.681511 100.721177,231.822897 103.013425,232.095222 C103.629947,237.703116 103.830151,243.375714 104.314867,248.986926 C104.894341,300.380418 110.781703,352.04647 102.654103,403.159342 C99.6593622,422.570937 97.1946972,442.229971 99.2349686,461.871703 C100.766063,476.464173 103.662008,490.89998 106.843891,505.206616 C107.423603,507.097719 108.922161,508.896862 111.035817,508.572159 C111.764434,509.011338 112.651457,509.3505 113.441584,508.967965 C113.552492,518.107546 114.739226,527.234565 114.082806,536.380308 C113.64345,536.117464 113.199345,535.859123 112.752865,535.607655 C112.496139,535.059688 111.98245,534.531156 111.363552,534.858704 C111.228183,534.797318 111.052441,534.915823 111.083315,535.055422 C109.954528,538.110244 109.194324,541.432888 108.568064,544.642715 C106.3701,548.863626 105.036597,553.568512 104.592729,558.322933 C104.374952,560.178248 104.056953,562.575604 105.68993,563.90452 C105.122806,563.923954 104.418412,563.970645 104.24837,564.62977 C103.444943,566.595294 102.132339,578.68565 105.115206,578.632323 C116.67144,579.336005 128.279922,579.523717 139.850405,579.938485 C140.479752,579.961949 141.080601,579.475841 141.242093,578.881183 C141.610202,577.532596 142.006809,576.191119 142.391542,574.847273 C160.761347,584.908344 204.630049,579.045123 215.697394,576.798813 C217.977293,576.798813 218.125011,569.711739 217.977293,567.552104 C219.264485,565.923845 218.457021,563.19823 217.666182,561.477537 C214.329218,554.252049 205.588658,553.479871 198.659905,552.324447 C187.968607,550.268622 177.494137,546.238029 169.042602,539.260217 C171.32345,537.09916 174.02703,533.531922 173.73563,530.275167 C173.431406,528.857847 172.156088,528.070974 170.759651,528.156297 C167.57943,528.421985 165.263908,531.761931 163.471101,534.053107 C163.095868,533.6573 162.727759,533.258886 162.362025,532.856206 C162.321652,532.00534 161.754053,531.175805 160.761347,531.29431 C158.794935,531.52895 156.883145,532.00771 155.011729,532.642897 C154.548624,530.492979 153.693662,528.393307 153.216309,526.234146 C151.955953,520.821785 151.658853,515.28926 151.539634,509.745358 C153.836394,509.709807 155.155885,509.598649 156.940142,508.655112 C157.909099,508.939524 159.0063,508.581639 159.305537,507.284957 C160.281618,503.073526 160.333866,498.722022 160.630728,494.41792 C163.931355,439.841384 169.878565,384.874966 188.853968,333.22503 C190.833204,339.450572 193.439176,345.453562 195.667539,351.593307 C211.233781,392.077227 220.911949,434.434711 232.157785,476.23451 C233.110117,479.744629 234.076699,483.24977 235.06703,486.748275 C236.449693,492.712396 239.346589,495.459579 245.697293,495.434456 C249.867369,495.629041 254.045995,495.580691 258.212746,495.304337 C263.135902,499.949971 265.519583,506.1575 267.244468,512.509132 C265.987674,513.135076 262.269778,512.213344 262.105198,513.914365 C260.546317,516.460563 261.21105,519.748603 261.181126,522.596042 C261.412441,526.416644 261.215087,530.464064 262.351949,534.12421 C262.415596,537.980363 262.567589,541.836516 262.772543,545.690299 C259.372407,548.139324 260.390287,553.016042 261.323858,556.464538 C261.131016,558.908822 281.392899,557.808859 284.279583,558.022405 C289.032221,557.63276 296.035308,559.10957 298.550321,553.947728 C314.313204,561.691557 336.154629,556.176571 353.129897,554.607801 C359.110117,553.732049 365.063976,552.696315 370.989337,551.513635 C371.849048,551.340618 372.264655,550.36153 372.086538,549.584374 C371.435817,546.716552 370.766097,543.853471 370.103501,540.98802 Z" id="ðŸ–-Ink" fill="#000000"></path>
                </g>
                <g id="Head" stroke-width="1" transform="translate(95.945717, 42.661805)">
                    <g id="head/Hijab">
                        <path d="M61.8142571,24.9271718 C97.5594394,26.0565459 99.7154486,43.0008369 99.7154486,71.4171026 C99.7154486,99.8333683 81.1723712,117.739695 74.3445361,120.866475 C67.516701,123.993255 49.5379955,137.423333 33.3132931,131.234367 C17.0885907,125.045401 21.7870424,98.8976493 21.7870424,87.6627877 C21.7870424,76.4279261 26.0690747,23.7977976 61.8142571,24.9271718 Z" id="Path-2" fill="#FFFFFF"></path>
                        <path d="M76.3153656,111.53379 C69.7511586,115.190855 62.2348567,115.333061 55.1740594,113.031694 C50.9396234,111.654902 47.0569092,109.526315 43.423084,106.980828 C40.2621001,104.764784 37.440726,102.30699 34.6454758,99.6972726 C32.3442036,94.6326053 30.2949075,89.5771814 29.3352129,84.0666983 C28.4755013,79.120299 28.3615064,73.9842917 29.3589618,69.0473728 C36.73562,62.9917666 44.0669177,56.8863883 51.3884784,50.7622862 C55.1170619,47.6429973 58.855145,44.540773 62.6383511,41.4878469 C64.5596404,39.9378013 66.4621679,38.3640547 68.376095,36.8068988 C68.6919559,36.550928 69.0056794,36.2949572 69.3215403,36.0389863 C73.2731264,38.9257685 77.5099372,41.4003902 81.4334996,44.3343373 C83.4875454,45.8725324 85.4848312,47.5102716 87.3871213,49.2330975 C88.3845768,50.1363428 89.3585208,51.0677922 90.3084784,52.0229426 C91.1774521,52.8953765 92.0157897,54.1465524 93.2485971,54.4762334 C93.4172146,54.5210283 93.576095,54.5305087 93.7257133,54.5091778 C95.3738897,68.909907 96.5447125,84.4601349 89.4841527,97.5383482 C86.4039152,103.24318 82.0367226,108.343635 76.3153656,111.53379 Z M33.6126344,116.826461 C32.7087498,116.000007 34.0557897,114.66256 34.9558745,115.485459 C40.6095471,120.653699 48.0006921,123.393298 55.4664088,124.661302 C56.670955,124.866315 56.1572655,126.692952 54.9612689,126.489597 C47.1666293,125.165659 39.5056964,122.213462 33.6126344,116.826461 Z M26.8285123,124.756106 C25.7493605,124.178275 26.7100051,122.542195 27.787257,123.11884 C32.1919729,125.476379 37.0232197,126.701247 41.9235759,127.528412 C43.1288346,127.731767 42.6146701,129.558403 41.4186735,129.356707 C36.3518372,128.501575 31.3799966,127.192095 26.8285123,124.756106 Z M44.7553995,44.8773273 C48.4103613,41.6039818 52.338436,38.489433 56.4876132,35.8612288 C60.6861883,33.2019763 65.2721086,31.611639 70.2285123,31.5737174 C69.8817778,31.8510191 69.5516675,32.1591322 69.2168075,32.4456773 C68.2813367,33.2446381 67.3477659,34.0481021 66.4144326,34.849196 C64.5477659,36.4537539 62.6763494,38.0557046 60.8334317,39.6865706 C57.2045937,42.9004266 53.5638813,46.0976919 49.9421679,49.3186582 C42.9813537,55.5093601 36.1703953,61.8349207 29.5062053,68.3434531 C29.5420662,68.1846563 29.5800645,68.0258596 29.6178253,67.8672999 C31.8241018,58.6710738 37.8254589,51.0843829 44.7553995,44.8773273 Z M73.4061204,31.9742644 C73.4298694,31.9031613 73.4467311,31.8341914 73.4562307,31.7680656 C82.9676811,33.005258 90.9117014,39.9897065 93.5380967,49.1859325 C93.3101069,49.503526 93.1842375,49.8803719 93.2317354,50.2806819 C93.2554843,50.4823774 93.2792332,50.686206 93.3029822,50.8876645 C92.9776217,50.5655679 92.6427617,50.2643282 92.3580119,49.977546 C91.4101917,49.0200255 90.4390975,48.0883391 89.4414046,47.1805907 C87.4013707,45.3250392 85.2832027,43.5901258 83.0505649,41.9713473 C79.1678507,39.1556682 74.9640509,36.5675187 70.3353825,35.2165615 C70.639369,34.967701 70.9435929,34.7188405 71.2499542,34.47235 C72.1640509,33.7302716 73.0121255,33.1190228 73.4061204,31.9742644 Z M90.4580967,22.1407183 C84.6182324,15.7722589 76.5314809,11.1079015 68.0153486,9.48675296 C59.8834741,7.93670738 51.464475,8.9582206 43.7819304,11.970618 C27.7060356,18.2750848 15.0217269,32.1380383 9.08211705,48.2023409 C5.61952163,57.5618669 4.48432231,67.822031 5.52476336,77.7290501 C6.55997964,87.5908004 9.5357218,97.7753582 14.9504801,106.165513 C15.4468329,106.933663 15.9906836,107.670527 16.5606582,108.383927 C16.3065445,111.28019 15.3375878,114.11957 13.8129059,116.589214 C13.730972,116.721466 13.6445259,116.851347 13.5590297,116.981466 C11.9977744,118.148266 10.3783342,119.243253 8.79736726,120.373553 C7.42729092,121.352879 6.07122646,122.357564 4.78284648,123.442359 C3.56666327,124.466479 2.15431383,125.606972 1.33093808,126.989214 C0.656230704,128.121411 0.380743003,129.660791 1.30172689,130.740609 C2.41151484,132.04132 4.29195589,131.582706 5.79526378,131.582706 C5.92398304,131.582706 6.0524648,131.58555 6.18094656,131.586972 C6.63241391,131.870199 7.09741815,132.12617 7.54793554,132.364365 C12.1006073,134.772624 16.6699033,137.154574 21.2439491,139.524675 C30.3542799,144.248284 39.4263749,149.161739 48.7238473,153.510636 C53.0321425,155.527592 57.6441866,157.290709 62.4697337,157.283876 C66.9965191,157.276726 71.0882239,155.48256 74.6220662,152.754574 C78.6498863,149.647136 82.0177235,145.701156 85.2853401,141.833389 C86.5915318,140.28524 87.8715997,138.71884 89.1279186,137.130873 C91.5408109,136.327409 93.934704,136.092769 96.0863579,137.642815 C97.8129059,138.887118 100.088054,137.194866 100.128427,135.32699 C100.142677,134.663836 100.114416,134.009451 100.042931,133.364784 C99.6109381,129.382778 97.6585377,125.780463 95.4593859,122.438859 C94.2579271,120.611274 92.9921086,118.816871 91.7189279,117.039296 C91.4196913,116.620026 91.1252044,116.200518 90.8402171,115.773663 C95.9533639,108.260682 100.009683,99.9297794 102.503321,91.2241641 C105.123067,82.0639635 106.013652,72.5646016 105.429428,63.07235 C104.531481,48.5246746 100.532397,33.1285032 90.4580967,22.1407183 Z" id="ðŸ–-Ink" fill="#000000"></path>
                    </g>
                    <g id="face/Smile" transform="translate(37.760814, 44.083865)" fill="#000000">
                        <path d="M34.8127554,57.1020091 C33.2162863,56.4520445 31.7918322,55.3678606 30.7504188,53.982886 C30.3883575,53.5014119 30.2944812,52.9929828 30.3704337,52.5279595 C30.455837,52.0050735 30.76581,51.5311704 31.1885437,51.2132909 C31.6125868,50.8944267 32.1430108,50.7371707 32.6558203,50.8173353 C33.1014216,50.8869936 33.5449965,51.1304783 33.8960529,51.6354567 L33.9693973,51.7364404 C34.5885356,52.5723634 35.3953297,53.2582283 36.3146153,53.7003078 C37.2006572,54.1264007 38.1916054,54.3252746 39.2170751,54.2096253 C41.1701484,53.9894475 42.5163047,52.9353366 43.947122,51.5038717 C44.124476,51.3231456 44.3019435,51.136754 44.4802714,50.9473621 C44.592889,50.7756793 44.7491739,50.6653386 44.9226927,50.6074447 C45.1153544,50.5431638 45.3332998,50.5468008 45.5329212,50.6163236 C45.7254569,50.6833787 45.8975743,50.8104452 46.0129836,50.9795623 C46.1226707,51.1402944 46.1848601,51.3388571 46.1646812,51.5672535 C46.033716,53.0507326 45.2565672,54.3746744 44.1526598,55.4142485 C42.9266296,56.5688282 41.301437,57.3675742 39.7713893,57.6477194 C38.0857258,57.9563102 36.3680798,57.7352226 34.8127554,57.1020091 L34.8127554,57.1020091 Z M40.5665861,34.2164632 C42.3599585,35.3043501 45.0925072,37.84109 43.1632513,40.538094 C40.8923326,42.9161315 37.6227224,40.1895491 36.0115152,38.956422 C34.5175283,38.0007416 32.8389503,40.45868 34.2250722,41.574598 C45.8676895,50.1769329 50.5925102,34.5009305 41.4736488,32.937375 C40.4696294,32.7650779 40.0967341,33.8799135 40.5665861,34.2164632 Z M19.7029042,24.2097211 C19.9010483,21.7551799 23.6468906,21.1977976 24.0195115,23.6266764 C24.3531841,25.8024284 23.9603766,27.801134 22.9783579,29.7600219 C22.0400373,31.6314531 19.6816447,30.7583423 19.5032902,29.0542402 C19.2642133,26.7699622 19.5796472,25.7365862 19.7029042,24.2097211 Z M48.21676,23.1230538 C48.7389992,22.4404649 49.493028,21.9745032 50.3964377,22.2378213 C53.2189992,23.0609572 52.3870738,27.0600273 51.395793,29.0065907 C50.8571671,30.0636554 49.1161323,30.3317138 48.3293299,29.4009754 C47.0468872,27.8831632 46.4327396,24.8520419 48.0631043,23.3569827 C48.1072774,23.2797174 48.1564377,23.2017411 48.21676,23.1230538 Z M22.9386022,13.4693984 L23.3844579,13.391518 C24.7637486,13.1534545 26.4787379,12.9247019 27.4544631,14.0313491 C27.9719525,14.618186 28.1500696,15.7089061 27.4544631,16.2706199 C26.2309177,17.2589517 24.8781781,16.8759435 23.4119186,16.959608 C22.2035725,17.0288149 21.0422494,17.2283774 19.8783138,17.5604284 C17.3248278,18.2887603 15.2441832,19.6183865 13.0633181,21.0783683 C12.7771433,21.2698724 12.4850314,20.9046399 12.6215878,20.6375296 C13.8805191,18.1766545 16.3202477,16.155196 18.7640136,14.9229809 C20.0683053,14.265278 21.4956166,13.7196809 22.9386022,13.4693984 Z M45.6437704,12.3670381 L45.985026,12.4367382 C49.6987038,13.2114312 54.5236407,14.7589441 56.2822463,18.3992889 C56.3492573,18.9140465 56.2784539,19.0243694 56.220878,19.0964481 L56.2017082,19.1204334 C56.1542656,19.1819844 56.11641,19.266832 55.8928405,19.3368914 C55.8308,19.3221394 55.7681419,19.3065151 55.7048201,19.2899543 C54.8987061,19.0791278 54.2609139,18.7886846 53.6434635,18.4873151 L52.9739907,18.1581557 C52.1972684,17.7780821 51.4136883,17.4118413 50.5832732,17.1414685 C48.8110962,16.5645992 46.9882598,16.1582307 45.137182,15.9412392 C44.7359752,15.8942481 44.3496381,15.7591142 44.044846,15.5275167 C43.7555371,15.3076842 43.5345237,15.003321 43.433754,14.598756 C43.3031565,14.0751843 43.3406874,13.6787976 43.6221743,13.2064592 C43.8338352,12.8517432 44.1366879,12.6058787 44.4844395,12.4646949 C44.8389572,12.3207642 45.2425721,12.2868326 45.6437704,12.3670381 Z" id="ðŸ–-Ink"></path>
                    </g>
                    <g id="facial-hair/*-None" transform="translate(29.211196, 80.109389)"></g>
                    <g id="accessories/*-None" transform="translate(11.162002, 57.119417)"></g>
                </g>
            </g>
        </g>
    </g>
</svg>