<?xml version="1.0" encoding="UTF-8"?>
<svg width="213px" height="701px" viewBox="0 0 213 701" version="1.1" xmlns="http://www.w3.org/2000/svg" xmlns:xlink="http://www.w3.org/1999/xlink">
    <!-- Generator: Sketch 62 (91390) - https://sketch.com -->
    <title>peep-standing-3</title>
    <desc>Created with Sketch.</desc>
    <g id="Introduction" stroke="none" stroke-width="1" fill="none" fill-rule="evenodd">
        <g id="variations-standing" transform="translate(-316.000000, -1704.000000)">
            <g id="a-person/standing" transform="translate(269.000000, 1658.000000)">
                <g id="pose/standing/shirt-3" transform="translate(-28.736217, 150.264357)">
                    <path d="M124.965211,240.579991 C124.743396,241.677821 124.409011,242.86619 124.060852,243.931787 C125.795474,245.597967 128.25064,247.831076 130.012336,249.44464 C128.269639,238.70216 133.571827,228.78732 136.81712,218.626226 C135.593099,217.05959 131.330165,215.456454 131.467433,213.719644 C131.796356,207.285533 132.281785,200.104366 132.981666,192.049581 C135.351098,166.894758 137.708655,140.662252 132.116254,115.431112 C131.734134,112.688669 131.154422,109.804731 127.468587,109.740975 C116.58231,152.980374 125.403617,196.515324 125.163515,240.027521 L125.480326,240.310747 L124.965211,240.579991 Z M108.663226,594.857131 C99.7181883,594.857131 91.4953554,593.237402 83.5347108,589.952206 C81.2374758,589.145661 78.3838032,588.14382 77.985771,586.520775 C77.3312502,582.079444 77.78438,577.713482 78.2638711,573.092498 C79.0221747,565.165697 78.9466531,559.003437 81.0902324,550.467758 C83.38438,542.54072 85.3396302,536.345515 83.1008176,528.148523 C82.9212757,525.708505 84.8335403,523.226062 86.0967464,520.943892 C87.8850416,517.612479 88.7924885,514.145023 90.2129126,510.728997 C87.4224122,510.242179 84.5248041,509.574995 81.8456862,508.747356 L81.3958813,510.363528 C81.2970857,510.718806 81.0246853,510.898933 80.5867549,510.898933 C80.3157795,510.898933 79.6225479,510.768815 79.5213774,510.19051 C79.9417337,503.949088 80.5506565,497.738715 81.1902154,491.397274 C87.830894,430.31268 97.8864326,379.957293 114.772879,329.736527 C118.828723,317.974667 122.971725,305.730966 123.001174,292.95186 C120.695389,292.458405 118.127416,292.175178 115.777221,292.499644 C99.0320814,288.627138 102.342209,253.276855 103.008366,242.697201 C101.827332,242.343108 100.505703,241.842306 99.5258219,241.171331 L99.1294521,241.364731 C82.5018694,200.181395 89.3301645,132.091021 93.1335573,86.3158523 C95.6290958,69.8619052 92.1190025,40.1398997 106.737662,32.0090337 C118.540885,27.8376572 130.291861,25.4931541 142.625873,22.7421787 C144.910046,21.4336463 147.729045,20.6868277 150.277781,19.8399909 L148.96114,17.9927347 C147.234355,15.564567 147.464007,10.8020875 149.722768,9.12855971 C151.110894,9.20535096 153.061394,10.5968368 154.38801,11.2502735 C156.296237,7.31258888 158.062684,3.19382862 159.330402,-1.53760255 L159.786144,-1.37477666 C161.120122,-14.7577849 178.508383,-17.0935187 188.312421,-12.6213765 C199.01488,-6.75822242 193.440767,6.50533273 198.306687,16.0800638 L200.070283,13.7339015 C202.793812,13.6836554 208.554592,17.2468642 209.941768,18.5843118 C210.934948,19.0462443 210.216543,22.1555789 210.361174,23.4062808 C224.718595,26.650474 244.371081,27.5411577 248.934914,43.6232361 C256.52745,73.8640565 255.459936,104.86639 264.074863,134.999845 C273.093523,159.425861 286.339494,189.314248 286.450877,211.683965 C286.708078,215.876436 287.27354,239.588104 283.796221,238.63485 L281.501123,240.9201 C284.627908,245.900392 282.145432,253.354357 280.947773,259.251404 C277.996729,271.763874 272.230012,285.24619 259.912624,279.249836 C246.664753,352.251294 213.368265,425.893628 224.72667,501.189818 C224.862751,501.630182 224.587026,502.113209 224.114185,501.920757 L223.554897,501.663364 C222.110249,502.108943 220.277069,502.264421 218.768299,502.60216 C220.052166,507.403273 220.740648,512.142999 221.407043,517.45392 C222.21522,517.934813 221.838087,519.207083 221.879172,519.97618 C233.932234,519.400009 240.692132,531.995196 249.336034,538.922288 C255.043379,544.003546 261.543226,548.841632 268.656271,553.302871 C274.534134,556.635706 279.493625,560.451568 278.600665,566.747028 C278.685449,566.736363 280.499155,566.456454 280.587976,566.44887 C283.322192,575.528013 274.34438,577.405369 265.098443,578.499644 C242.504176,580.766882 223.189876,575.756253 197.031131,566.263054 C193.822887,566.642507 191.322599,561.882397 190.89583,558.654795 C190.473337,556.491841 191.674321,554.292151 190.757612,551.964239 C187.603277,545.275342 185.961276,527.568797 190.408502,519.625169 C191.96952,517.82484 193.971556,516.162926 193.71198,513.055251 C193.639308,509.942361 193.345771,506.831841 193.609859,503.773938 C188.264448,503.258204 182.972947,502.108706 178.309605,500.244385 C177.484092,500.561741 176.546483,500.171386 176.488774,499.139207 C175.593913,484.906281 174.522836,469.353209 174.291284,454.782069 C173.216645,423.070128 180.483583,392.125861 186.045109,361.369544 C186.43103,351.503054 188.256136,341.971222 188.831335,332.099991 C189.450232,322.738332 189.559478,313.573391 190.097866,304.225716 L186.888434,303.530328 C160.243074,372.085005 139.377018,440.695378 124.77237,507.830839 C125.102718,508.112881 126.041513,508.43 126.001615,509.002379 C125.99069,509.308122 125.998053,509.327794 125.788587,509.358368 C122.260207,510.066317 118.7684,510.585606 115.271606,510.989234 C116.257425,519.367065 110.99846,529.049398 115.652777,536.896089 C116.888909,538.787192 116.942107,539.182288 116.184753,540.482999 C122.96555,553.078186 127.167925,563.558769 129.891454,574.818168 L131.646263,573.337092 C134.190249,575.18103 134.242972,578.66484 134.298545,582.345843 C134.117578,584.490547 135.166806,586.737876 133.559478,588.542944 C129.690063,593.055852 116.204465,594.831768 108.663226,594.857131 L108.663226,594.857131 Z" id="ðŸŽ¨-Background" fill="#FFFFFF"></path>
                    <path d="M158.221992,-3.55460529 C160.071559,-2.05930902 158.142433,8.72630629 156.651949,10.9269444 C166.732044,17.4061665 176.917773,23.736559 187.315969,29.6708475 L188.392407,30.2833163 L188.359159,30.2738359 C188.791152,30.4672361 189.521669,30.6388314 189.950338,30.5537448 L190.244333,30.456478 C190.3049,30.4372441 190.340084,30.4284191 190.323196,30.442113 C190.496563,30.3499161 190.665181,30.252742 190.829048,30.1413473 C193.793866,27.4418031 195.953832,22.8660875 198.276716,19.307619 C194.32228,15.8257046 196.292967,9.03987056 196.452797,4.40419143 C197.200414,4.38570465 197.288522,6.75367183 197.5025,7.44052689 L197.622889,8.0956564 C197.907973,9.62959965 198.232899,11.1927808 198.820567,12.618959 C200.530728,10.4562425 209.189116,15.5659417 210.811169,17.2100802 C212.57809,18.3344558 212.036139,20.3343464 212.013103,22.0924868 C228.444282,25.2838268 249.397021,27.5287858 251.60496,48.1183209 C254.202857,59.1634622 255.590745,70.4055588 256.874612,81.6625871 L257.083702,83.4590755 C259.327958,102.829086 261.319989,122.439726 267.656631,140.986197 L270.077458,146.750235 C275.315749,159.251244 280.425676,171.854888 283.770524,185.008439 C286.363671,190.621548 293.268675,244.193398 282.882314,240.060892 C286.43373,245.845832 283.775274,253.457646 282.542466,259.642423 C279.986606,269.793088 274.885571,286.382131 261.161534,281.490481 C250.812933,336.705522 230.314748,389.901712 225.132254,446.077118 C223.449405,464.335896 223.484791,482.813672 226.342975,500.95916 C226.728896,502.68317 225.078107,504.206434 223.39122,503.450372 C222.544095,503.692122 221.647573,503.76441 220.778836,503.928895 C221.779371,507.946494 222.365409,512.141943 222.897676,516.248113 L222.956614,516.703973 L222.958989,516.706343 C223.374358,517.166142 223.578124,517.749187 223.559837,518.407838 C229.829795,518.430117 235.075936,522.471138 239.253374,526.764811 C246.497276,534.333015 254.145859,541.548549 262.814697,547.488731 C269.020058,552.524246 279.906334,555.476206 280.255681,564.838339 C283.423315,564.303407 282.665249,571.213672 282.103349,573.038649 C281.445503,575.084283 279.533713,576.262222 277.700058,577.173763 C251.333035,585.995039 222.290694,577.4039 197.222263,567.931083 C192.828709,568.511758 189.688862,562.706434 189.219108,558.87967 C188.740567,556.767437 189.864604,554.714219 189.209371,552.655787 L188.993347,552.090212 C188.204472,550.021242 187.458619,547.998559 187.009506,545.806197 L186.94384,545.349197 C185.874886,537.776061 185.014182,524.951334 189.078514,518.616407 C193.81904,514.559743 191.365299,510.672067 191.840753,505.268239 C187.159837,504.734966 182.531169,503.677902 178.151864,501.994893 C176.425179,502.362229 174.918593,500.965863 174.804622,499.29425 L174.635818,496.62021 C173.752206,482.705803 172.83199,468.776502 172.602212,454.832505 C171.520923,423.194273 178.702365,392.232232 184.356987,361.329442 C184.913187,349.416607 187.191186,337.65214 187.511321,325.709442 C187.751186,318.513581 188.04971,311.33668 188.411406,304.153143 C162.766589,370.123225 141.719566,437.934638 126.61429,507.088239 C128.003603,508.029406 128.155596,510.595987 126.087064,511.008385 C123.061449,511.610627 120.01446,512.103608 116.955596,512.475714 C117.445062,519.901475 113.020397,529.945486 117.119464,536.240472 L117.282956,536.491983 C118.060892,537.698899 118.822022,539.07676 118.026673,540.478211 C123.353798,550.459415 127.971542,560.874346 130.813103,571.868057 C134.059108,570.538193 135.908675,577.124465 135.812729,579.504283 C135.604214,582.623335 137.288489,587.881639 134.594171,590.014492 C120.442416,599.120418 101.231186,597.708549 85.8062494,592.665923 C82.9452146,591.441056 79.666436,590.607728 77.2141204,588.6505 C76.1026701,587.524702 76.1786667,585.673891 76.0881832,584.211539 L76.0604877,583.454784 C75.9150264,579.245545 75.9292132,574.956655 77.0835013,570.810992 C76.7747651,564.804921 77.672475,558.718503 78.8551722,552.843025 C79.6125259,548.100217 81.793391,543.594419 82.0869279,538.807528 C83.6351213,534.524046 80.8429584,530.519287 81.5934249,526.238649 C82.2058162,523.629896 84.1255269,521.375917 85.2369031,518.946657 L85.3148838,518.772833 C86.3206514,516.563663 87.0411942,514.27462 87.9130178,512.008567 C86.2434673,511.690974 84.5952909,511.299907 82.9708634,510.830627 C82.1937981,513.641566 77.6962239,512.847582 77.829218,509.982131 C81.5231281,463.771575 88.8636879,417.817938 100.226131,372.860691 C105.527131,346.271247 119.21697,321.479998 121.280278,294.345905 C119.637719,294.038248 117.766586,293.959361 116.157115,294.144644 L115.965265,294.168148 C114.936936,294.295896 113.94898,294.476024 112.846317,293.957209 C98.6990738,285.235477 100.153221,258.5107 101.226673,243.8841 C100.587827,243.670791 99.9774792,243.40771 99.421754,243.078266 C98.930151,243.443262 98.1844343,243.464356 97.8970721,242.791484 C97.1727294,241.092122 96.241771,239.433052 95.6119491,237.705249 C79.2197184,181.442149 89.6870636,122.151958 92.9874538,64.7988496 C94.2734589,53.0161331 94.2831959,37.0184303 106.00971,30.5250665 C109.944909,28.6645378 114.385961,27.865814 118.580024,26.7926326 C128.204757,23.9274184 138.257683,22.6437721 147.579854,18.977938 C145.410863,15.9702808 145.92669,11.5839362 147.733985,8.55897721 C149.167233,6.38156609 151.918548,8.04750957 153.619209,8.97374476 C155.582059,4.96946035 156.928624,0.700435734 158.221992,-3.55460529 Z M131.406826,574.437245 L131.49354,574.840087 C131.952838,576.995601 132.349519,579.259744 132.119294,581.452505 C138.216122,587.384866 110.121364,588.135951 107.021177,588.122441 C99.9271315,588.049679 79.0698626,585.689533 78.0382087,577.15338 L78.0500504,577.35751 C78.1880701,580.072775 77.7268066,585.143261 79.2066565,587.150463 C90.3909822,592.958157 103.404451,595.255732 115.922755,593.824665 L116.372556,593.764965 C121.362859,593.080633 130.840328,591.065665 133.302466,586.913216 C132.758141,583.047345 134.094731,577.509132 131.406826,574.437245 Z M111.175104,536.088786 C104.328047,528.649515 93.0812621,534.087473 85.8611094,538.236097 C85.5884716,541.494036 83.3004987,542.692122 83.2078779,546.109807 C81.6694215,556.547491 78.1246548,568.347273 82.6407532,578.426124 C96.1035522,585.619852 112.113425,585.132797 126.678412,582.035787 C127.05982,581.540436 127.541449,581.39183 128.229218,581.203644 C128.662399,578.145267 127.786775,575.071247 127.208014,572.102459 C125.751729,565.862933 123.867725,559.736698 122.192237,553.554055 C119.189659,551.618394 118.092221,547.552487 116.52574,544.486051 C116.100634,543.625942 115.666029,542.765595 115.210049,541.912122 C112.765571,541.112924 112.125774,538.199597 111.175104,536.088786 Z M191.439396,556.609114 C190.703179,564.111429 198.034952,567.102733 203.962212,568.903061 C210.633289,571.270554 217.468234,573.235367 224.341177,574.934492 C238.421449,578.555294 253.100668,580.14184 267.533612,577.871758 L267.784367,577.827113 C271.948667,577.095428 279.408642,576.216148 280.355427,571.403517 L280.365509,571.293125 C280.429752,570.505084 280.552668,567.536 280.255681,566.776844 C280.146436,566.774711 280.039566,566.75101 279.937445,566.701001 C278.730999,570.552414 274.33507,572.89431 270.09826,573.498686 C268.100024,575.501657 264.418938,574.758868 261.755257,574.873107 C244.172729,574.699141 227.269422,569.265923 210.609065,564.215477 C205.307827,562.376279 194.740499,561.058266 191.439396,556.609114 Z M192.949829,517.9907 C189.898327,516.917519 189.318616,525.449643 188.928658,527.532961 C187.945452,536.342624 187.968014,550.079488 195.11312,556.327309 C202.568387,559.514383 210.61429,560.977209 218.304197,563.485012 L220.124099,564.018582 C234.700155,568.278137 249.679187,572.261398 264.977988,571.633417 C266.132424,569.328968 273.457785,571.244483 276.251847,567.137573 C279.999193,560.616242 270.536427,556.41524 266.058565,553.637245 C257.459311,548.127236 249.426945,541.720855 242.183756,534.52452 C238.778158,531.142624 235.662297,527.26988 231.662975,524.551138 L231.45441,524.411253 C228.027833,522.143753 223.629707,520.737224 219.605639,522.226306 C215.687064,523.674438 214.247878,528.142077 210.961262,530.450317 C203.636975,535.189105 196.136253,527.69973 193.756584,520.921486 L193.686046,520.716315 C193.60055,520.505613 193.833289,520.377628 194.009031,520.43451 C193.992407,520.368148 193.980533,520.299415 193.966283,520.232815 C193.04245,519.991776 192.954816,518.843225 192.949829,517.9907 Z M88.7774792,512.167364 C89.734324,517.565504 87.0385818,522.408804 85.0270466,527.184319 C84.4855708,530.350062 86.475732,533.384501 86.0154775,536.605468 C92.6001086,531.445759 102.565639,526.870755 110.510134,531.583225 C110.552882,527.032159 112.121975,522.61524 113.485876,518.313271 L114.039549,516.605988 C114.470982,515.279943 114.909863,513.959705 115.395291,512.655841 C106.549286,513.57781 97.5933232,513.670007 88.7774792,512.167364 Z M218.342195,504.298868 C210.599803,505.364702 202.772865,505.977373 194.977988,505.547674 L195.863824,518.965048 L195.863824,518.965048 C195.899447,519.514675 195.666707,519.896261 195.322348,520.11431 C196.471559,524.473398 200.089235,528.353253 204.574935,529.296552 C211.502975,530.190791 212.434884,521.020162 218.318446,519.325067 C217.191796,516.799251 217.999023,513.47874 217.88859,510.72895 C217.950338,508.565048 218.061958,506.422241 218.342195,504.298868 Z M192.847708,516.440655 C192.69809,516.748768 192.522348,517.035787 192.329981,517.313088 C192.534222,517.332049 192.731338,517.393672 192.91658,517.505067 C192.895206,517.151685 192.871457,516.79617 192.847708,516.440655 Z M123.120821,243.066416 C116.344774,245.409734 108.950541,245.889442 101.970015,244.109023 C103.501347,255.563954 105.039328,282.69781 114.794443,289.314182 C116.442619,289.077172 118.09792,288.9608 119.762721,289.126944 C120.753052,289.225304 121.732696,289.384811 122.714714,289.536735 C123.083456,289.587995 123.81846,289.626359 124.287717,289.593326 L124.36764,289.586744 C124.243327,289.595734 124.146349,289.593812 124.276819,289.585013 L124.476885,289.574656 L124.579485,289.566845 C127.96193,289.263566 131.014339,284.494237 134.361194,286.782915 C134.85256,286.040363 135.595427,285.56421 136.166114,284.903189 C138.706063,280.462569 136.007708,274.747546 137.705045,270.066598 C137.063824,269.191794 137.275189,267.881366 138.282144,267.132414 C139.851237,265.693052 143.168726,266.764811 144.072136,264.698084 C144.010213,264.810444 144.005834,264.680689 144.029842,264.613032 L144.03566,264.599014 L143.876369,264.467497 C136.943848,258.737199 130.240873,252.333975 125.697901,244.384674 L125.545588,244.116133 C124.676614,244.957993 123.248353,244.314985 123.120821,243.066416 Z M281.40988,239.179214 C276.636343,241.786325 271.497072,243.675294 266.165435,244.767911 C265.070372,255.235222 263.811678,265.707273 262.094867,276.089023 L262.501665,276.16165 C264.882553,276.596543 267.390624,277.182792 269.447539,275.5439 C276.219549,268.973508 278.660227,255.758777 281.319634,246.834638 L281.424562,246.428383 C281.983289,244.23978 282.624691,241.211699 281.40988,239.179214 Z M211.998853,22.8248478 C211.287573,26.3778651 215.209947,65.0619307 208.056292,58.4450848 C203.21507,50.8546016 197.676818,43.7514111 192.726589,36.2393783 C192.044757,38.9249389 194.040142,42.1158049 193.097072,44.3927603 C205.694935,107.415149 214.834477,171.409041 218.221075,235.61008 C223.789014,239.513635 228.671559,244.246252 233.458158,249.041675 C234.949829,250.30802 236.03278,252.378066 237.885198,253.10616 C245.405062,244.617409 254.091712,237.258722 261.997496,229.139469 C261.923874,228.582496 261.840753,228.028129 261.745757,227.473526 C261.351525,225.167181 264.322517,223.998959 265.469591,225.413672 C267.867759,219.335787 268.091712,212.191593 267.497751,205.670737 C266.331678,194.709023 262.234986,184.235787 259.308166,173.67225 C250.873018,141.355933 245.035291,107.454255 247.798005,74.0000529 C247.838378,73.6893327 248.25161,73.6848295 248.288183,73.9998159 C250.580431,109.343225 254.152509,144.784994 264.797496,178.756115 L265.050821,179.595722 C269.20991,193.326251 274.354321,207.880836 270.794103,222.280636 C271.08954,224.219141 270.157632,226.150773 268.74932,227.544392 C268.122348,229.058886 267.424129,230.55916 266.595291,231.971976 C266.880991,235.251247 266.742772,238.537628 266.452797,241.800545 C271.924316,240.632086 277.0282,238.395659 281.908607,235.700144 C282.198344,234.055057 282.452458,232.405468 282.649574,230.749005 C286.437768,200.025632 274.882958,170.146963 263.322687,142.256571 C252.307216,109.753727 254.458158,74.4802352 245.252119,41.6003081 C239.427929,28.7787767 223.519464,27.77101 211.998853,22.8248478 Z M149.558141,20.442897 L149.17929,20.5750142 C146.527118,21.5077542 143.867765,22.5885595 141.032271,22.6684211 C132.133247,25.6245657 123.008447,27.8942964 113.962092,30.3615018 L113.086894,30.6009098 C109.225316,31.6605816 105.32574,32.8714658 102.720482,36.1092598 C100.222093,39.2138541 99.1771399,43.2122133 98.3606514,47.0304448 C94.5346972,80.3941094 92.366894,114.095039 90.4230433,147.658029 C89.4699983,175.603407 90.0131366,204.015933 97.1679796,231.208567 C98.1780221,234.934365 99.4070297,238.67225 99.8421103,242.499962 C100.362212,242.506835 100.884689,242.542624 101.40954,242.594529 C101.417377,242.344483 101.79831,242.385486 101.770524,242.63008 C108.722551,243.725304 115.948404,243.077555 122.472475,240.385832 C120.860872,191.431411 110.38664,138.299214 134.11183,92.8847748 C134.209201,92.7119945 134.503688,92.8304995 134.437191,93.0222407 L133.852345,94.7065749 C131.970606,100.134184 130.131894,105.570077 128.808692,111.167728 C130.694358,110.888057 132.069422,115.29668 132.425893,116.377209 C142.708947,147.543316 136.375579,180.799852 135.066538,212.807345 C152.770897,225.657792 170.648624,238.2973 189.047878,250.140928 C197.404655,244.720035 204.889846,237.610682 213.476037,232.69462 C211.022059,166.569296 197.506063,101.144337 190.159328,35.8364613 C187.434137,39.2169353 184.659311,42.5583026 181.887573,45.900144 C178.322857,50.2682388 174.876885,54.7500985 171.362042,59.160618 C170.635325,60.0757138 169.051271,59.7201987 168.533544,58.7979927 C161.610965,46.3099344 157.209337,32.5178469 149.558141,20.442897 Z M128.689947,111.665686 C118.476478,153.638266 126.96245,196.861785 126.801907,239.31194 C127.561635,239.982915 127.279973,241.254711 126.393425,241.715459 C126.262806,242.300636 126.108438,242.881311 125.927946,243.462222 C126.640414,244.137464 127.357632,244.808202 128.081975,245.47183 C127.530999,236.230809 132.190541,227.835914 134.890796,219.159214 C132.94932,217.4307 129.31217,216.359652 129.796648,213.203152 C130.171881,206.339342 130.65161,199.480035 131.232984,192.633052 L131.592181,188.799277 C133.855577,164.496898 135.778899,139.7988 130.456869,115.765723 L130.425057,115.583299 C130.251485,114.53188 129.919207,111.879426 128.689947,111.665686 Z M281.868234,238.930591 L281.785113,238.975386 L281.970355,239.131812 C281.932356,239.068057 281.899108,238.999324 281.868234,238.930591 Z M220.776461,224.629382 C218.408692,222.314031 222.063416,218.641798 224.40055,221.012609 C226.765469,223.332463 223.108607,227.004222 220.776461,224.629382 Z M219.216132,197.091329 C218.69311,195.722018 220.147761,193.549303 221.685923,194.459582 L221.73352,194.488722 L221.754894,194.460281 C223.210704,195.318257 222.673978,197.095832 221.819016,198.155267 C220.871671,199.129378 219.692061,197.972532 219.216132,197.091329 Z M216.993184,165.386237 C212.875355,160.002317 221.526857,157.793621 220.109045,164.421606 C219.806721,165.661169 217.315932,167.469318 216.993184,165.386237 Z M210.903932,135.388115 C208.718555,132.722226 213.417045,130.427732 214.399776,133.610303 C214.962863,135.733438 212.308919,137.042445 210.903932,135.388115 Z M232.769676,69.2549462 C234.063756,69.4554567 240.606114,68.1215643 238.923026,70.8405433 C241.555359,83.9680547 248.958378,99.9842443 238.388675,111.455056 L238.294413,111.547487 C236.735594,113.101885 234.24259,116.796048 231.857242,115.273287 C226.562416,110.815603 219.740295,107.630188 215.693713,101.924645 C213.992814,97.448948 215.441262,92.4475624 214.99122,87.7654294 C214.798853,81.8425488 213.810897,75.9741805 213.599116,70.0607803 C213.590032,69.7739982 213.901143,69.6815643 214.095885,69.8024394 C220.305045,69.3096955 226.546979,69.4189572 232.769676,69.2549462 Z M214.30725,70.2172069 C217.116275,79.3437521 217.179684,89.1016919 217.104875,98.5612361 C217.148573,99.5365324 217.321466,100.485284 217.831118,101.230443 C221.846826,105.956423 227.568421,108.9181 232.33507,112.84346 C234.264909,111.585174 235.792916,109.977061 237.160855,108.153032 C245.537106,97.2128861 237.946945,83.4423665 237.956444,71.2602881 L236.882846,71.2623623 C229.364139,71.272283 221.774565,71.1737363 214.30725,70.2172069 Z M207.986504,104.111841 L208.05888,104.112058 C210.939864,104.119406 210.279169,108.992095 207.560153,108.323964 C205.268021,107.782415 205.618452,104.141373 207.986504,104.111841 L207.986504,104.111841 Z M202.335315,79.240392 C200.339216,75.8456974 206.925985,74.5326618 206.232516,78.4532817 L206.247563,78.2924296 C206.250565,78.2615311 206.253415,78.2338104 206.256265,78.2091613 L206.206392,78.5765269 L206.206392,78.5765269 C205.966765,80.3104923 202.536706,81.5531358 202.335315,79.240392 Z M197.913286,51.1261914 C199.743854,50.642691 201.094456,53.2090356 199.523701,54.3587712 C197.189656,56.1166746 195.179783,51.7376773 197.913286,51.1261914 Z M153.030236,11.3630428 L152.806907,11.156898 C150.418195,8.96754131 148.627189,7.87265305 148.097581,12.3345469 C147.72876,14.510536 148.045333,17.2548751 150.13524,18.5418396 C160.141381,28.4166253 163.933849,42.5146928 170.381211,54.6597976 C176.203026,47.6220219 181.621584,40.2958049 187.252458,33.1158232 C179.495104,28.3979015 171.661279,23.7162425 164.009371,18.7930702 C160.352034,16.3663245 156.416835,14.1571541 153.030236,11.3630428 Z M203.401737,17.1840091 C200.392271,22.0870356 197.613645,27.3901349 193.776292,31.7290775 C193.287064,32.2196882 192.778836,32.6086217 192.253985,32.9048842 C193.005164,32.6882571 193.998819,33.2490228 193.904536,34.0709736 C199.490524,39.6288587 204.05697,46.0940182 208.419888,52.635969 C209.254188,41.8140912 207.664197,30.9471814 208.279769,20.1087129 C206.861958,18.8075278 205.173408,17.9163701 203.401737,17.1840091 Z" id="ðŸ–-Ink" fill="#000000"></path>
                </g>
                <g id="Head" stroke-width="1" transform="translate(95.945717, 42.661805)">
                    <g id="head/hat-hip">
                        <path d="M99.4084784,67.1193674 C99.3139576,61.8098687 99.2094623,56.3941896 98.4186226,51.1363592 C97.6453571,45.9960857 95.5181645,41.3497411 91.8627277,37.6170702 C84.0984869,29.6883737 72.8438643,27.7517648 62.367732,25.9770337 L44.4565191,22.9425943 C38.9921255,22.0170702 33.1624733,20.5376536 27.6415573,21.8502151 C24.9211162,22.4970155 22.6108193,23.9996591 20.4993011,25.7774713 C18.464017,27.4910538 16.2757897,29.3311996 14.8966887,31.6365962 C13.5152129,33.9453108 13.0399966,36.644144 12.5909042,39.2552835 C12.0843393,42.1991851 11.6908193,45.1660766 11.4112943,48.1400784 C10.8510568,54.0985105 10.7745852,60.1017375 11.1809296,66.0724941 C11.3778083,68.9685196 11.6910568,71.8562498 12.090989,74.7311814 C12.2892926,76.1567967 12.5134826,77.5788569 12.7666463,78.9959398 C12.841218,79.4137885 12.8979779,79.8764321 12.9744495,80.3438159 C12.4094623,81.9474257 12.0883766,83.608155 12.1142629,85.2617739 C12.190497,90.132804 16.3102256,93.1994768 20.4634402,94.8459854 C22.8715827,95.8006618 25.3892078,96.4493582 27.7553147,97.5159034 C30.2444411,98.6376718 31.9386904,100.45625 33.6405394,102.530799 C36.886307,106.487444 40.549106,110.043542 44.7315318,113.010434 C53.5989109,119.300917 64.8302595,122.276104 75.5894792,120.017872 C78.170989,119.476067 80.7752977,118.634682 83.0958066,117.366915 C85.5457472,116.02852 87.3879525,114.089067 88.9349584,111.795995 C91.8073927,107.539057 93.8673757,102.74553 95.4257812,97.8676263 C97.0152977,92.8918377 98.1436098,87.9070428 98.7589449,82.7186563 C99.3721425,77.5470975 99.5013367,72.3229225 99.4084784,67.1193674 L99.4084784,67.1193674 Z" id="ðŸŽ¨-Background" fill="#FFFFFF"></path>
                        <path d="M42.2519763,4.44720875 C49.6640204,3.4297247 59.8943511,6.73672562 63.5856489,13.4047657 C81.2087871,9.25851231 103.436132,9.12270556 117.961221,22.9254585 C133.117557,39.2985852 114.080407,60.8866436 101.457133,65.7538815 C102.376217,70.2113291 100.943206,98.7674822 90.8035963,111.505112 C82.7565055,122.297601 64.0169296,127.278366 55.3454792,114.387628 L55.2778386,114.281265 C54.3488193,112.792542 55.1489298,112.840346 56.1025954,113.947737 C64.5937913,121.399807 76.1388634,121.527081 85.0354538,113.662614 C101.709109,99.2879562 99.9899237,64.0421951 92.0558779,43.6519854 C69.4635115,41.1757046 45.2742663,48.0094148 29.6700254,64.9814658 L30.7251908,71.32101 C30.9049703,72.4010647 31.1092112,73.4801714 31.2650042,74.5640182 C31.3647498,75.2584576 31.3759118,75.9491048 30.8938083,76.5112926 C29.3019169,78.3670811 26.6189992,75.5784211 24.4115352,74.4692142 C23.7598643,74.3777284 23.1070059,74.3424139 22.4667345,74.3874458 C11.860933,75.7507274 13.9506022,96.2829061 25.6070568,92.6839088 C26.5864631,92.0750301 27.427888,92.2608459 27.8078711,93.1444193 C30.5862595,95.6842188 32.4182528,100.213954 37.0343342,104.576835 C38.6630365,106.213389 40.1452078,107.582596 41.977201,108.895395 C43.0532655,109.981375 46.3002205,111.088686 45.2709415,112.947081 C43.3244784,117.175814 31.8463783,103.892587 29.8170314,100.219169 C23.4587277,102.724839 16.4124173,101.873736 9.82327396,101.261302 C-24.9380492,99.4576554 -20.2975064,62.8893783 8.19552163,39.8019945 C13.5589822,35.8614658 19.4765055,32.6468988 25.6277184,30.1732252 C26.4674809,29.8354859 26.1005598,28.4594057 25.2489228,28.8018851 C21.1788295,30.4389134 17.2110941,32.3873728 13.428838,34.6425232 L13.4231119,33.294272 C13.4175704,31.0234196 13.4532598,28.6592446 13.8484818,26.5844193 C14.0460729,25.1467165 14.3783206,23.6111285 14.8898728,22.4559417 C15.522307,18.9143008 25.4291773,6.7575825 42.2519763,4.44720875 Z M22.0028227,79.1012434 C22.5395488,78.5923829 23.5415165,79.1991285 24.0193452,79.1839599 C25.2412282,79.3508149 26.4020763,79.8658377 27.3073859,80.5014986 C27.9051467,80.8356828 28.324078,81.149484 28.6741374,81.4381623 L28.683637,81.4355552 C28.6810246,81.4355552 28.6776997,81.4381623 28.6748499,81.4388733 L28.7077991,81.4610927 C29.2175158,81.8225136 31.0834407,83.8582477 29.90457,83.3107785 C29.8166989,83.1967767 29.7266904,83.087278 29.6359695,82.9799125 C29.6262324,82.9946071 29.6126955,83.0090647 29.5965462,83.0230483 L29.6627642,83.1211201 C30.6647303,84.6253011 28.9348184,83.0405871 28.6686751,82.6196572 C28.6560882,82.6298487 28.6418388,82.636722 28.627827,82.6440693 L28.974427,83.065056 C29.0228832,83.1248256 29.0609779,83.1725424 29.0925937,83.2128933 L29.165681,83.2833078 C30.3241563,84.4196982 30.3603481,85.4424084 29.0144597,83.7622826 C29.0674198,83.8414439 29.1099304,83.9253455 29.1158677,83.9997666 L29.1956281,84.1012372 C30.25237,85.4602004 29.392836,84.9775768 28.8677248,84.3971685 L28.8237826,84.3472449 L28.8327738,84.3608001 C29.3212848,85.1118357 28.352013,84.5848688 28.1807376,84.1831322 L28.1735098,84.1649626 C27.9868748,84.0129918 27.872027,83.8424394 27.8326351,83.7993704 L27.8253503,83.7921459 C26.9167159,82.8630665 25.5995997,82.0769043 24.4807871,81.7197302 C24.3185818,81.6889189 24.1544767,81.6642698 23.9887091,81.6467311 C23.3159016,81.4969407 22.635732,81.3943154 21.9484377,81.3388551 C21.8643664,81.3289006 21.7791077,81.267278 21.7154606,81.1876427 C20.6761668,81.1526636 20.9969832,80.7275249 21.4281783,80.6485772 L21.435725,80.6472814 L21.3501808,80.6400953 C20.6832053,80.5751332 20.2276998,80.3363066 20.9020974,80.1897234 L20.9875556,80.1727657 C20.977106,80.156412 20.9678439,80.1400583 20.9588193,80.1237046 C20.3812451,80.060423 20.7581408,79.5001313 21.0787515,79.635701 C20.9438575,79.1955734 21.56038,79.4152817 21.6373265,79.3498669 C21.6959864,79.2849262 21.7688957,79.2275697 21.8109313,79.2244886 C21.996648,79.0936591 21.9066395,79.1055096 22.0028227,79.1012434 Z M25.53676,71.9753947 L25.401391,72.0543191 C25.2919084,72.1180747 25.1793384,72.1604995 25.0662935,72.1853856 C25.2258863,72.2531705 25.3835793,72.3264066 25.5396098,72.4046199 C25.5370766,72.3090258 25.5352823,72.2135371 25.5352823,72.118224 L25.53676,71.9753947 Z" id="ðŸ–-Ink" fill="#000000"></path>
                    </g>
                    <g id="face/Smile-Teeth-Gap" transform="translate(37.760814, 44.083865)" fill="#000000">
                        <path d="M40.5665861,34.2164632 C42.3599585,35.3043501 45.0925072,37.84109 43.1632513,40.538094 C40.8923326,42.9161315 37.6227224,40.1895491 36.0115152,38.956422 C34.5175283,38.0007416 32.8389503,40.45868 34.2250722,41.574598 C45.8676895,50.1769329 50.5925102,34.5009305 41.4736488,32.937375 C40.4696294,32.7650779 40.0967341,33.8799135 40.5665861,34.2164632 Z M24.3635386,13.4693984 L24.8093943,13.391518 L25.0379183,13.3528605 C26.3735753,13.1324728 27.9568957,12.9850645 28.8793995,14.0313491 C29.3968889,14.618186 29.5750059,15.7089061 28.8793995,16.2706199 C27.6558541,17.2589517 26.3031145,16.8759435 24.836855,16.959608 C23.6285089,17.0288149 22.4671858,17.2283774 21.3032502,17.5604284 C18.7497642,18.2887603 16.6691196,19.6183865 14.4882545,21.0783683 C14.2020797,21.2698724 13.9099678,20.9046399 14.0465242,20.6375296 C15.3054555,18.1766545 17.7451841,16.155196 20.18895,14.9229809 C21.4932417,14.265278 22.920553,13.7196809 24.3635386,13.4693984 Z M36.1755963,47.4662115 C40.0780221,47.7489644 48.5350195,45.8898578 52.0465377,48.6785178 C65.2811094,65.1713345 12.8125768,69.4116809 18.4790738,51.16499 C22.0882002,45.2650994 30.3896421,47.6363847 36.1755963,47.4662115 Z M35.5065886,57.4227657 C34.5414317,57.3443154 33.370134,58.1072507 33.0868092,58.6966946 C32.8034843,59.2863756 32.9129669,60.5323373 32.9215165,60.7482534 C34.6088787,60.9179526 36.3109652,60.9437867 38.0030772,60.833103 C37.5634843,59.3818906 37.5492349,57.642474 35.5065886,57.4227657 Z M43.2976658,59.8573327 C43.0264529,58.0560565 41.7354606,57.6294385 40.6905072,57.8998669 C39.6215674,58.1762206 38.9941204,59.4041696 39.0620424,60.4974968 C39.0665547,60.572866 39.0228567,60.6368587 38.9941204,60.6975333 C40.4470806,60.526175 41.8865038,60.2441331 43.2976658,59.8573327 Z M31.3296251,57.7488915 C30.7211773,56.8250264 29.2672672,56.3792106 28.3360712,56.5420365 C26.8154266,56.861526 26.6354097,58.7898396 26.6354097,59.1828022 C28.0373096,59.7160747 29.5256556,60.0701677 30.9486921,60.3522097 C31.2343919,60.408618 31.5208041,60.4591012 31.8076913,60.5067402 L31.8263693,60.2726198 C31.8609934,59.7708715 31.8866802,58.5945433 31.3296251,57.7488915 Z M48.5307447,57.5964941 C46.9716268,55.1891832 43.6201764,56.9127201 43.8970891,59.5425834 C44.1949008,59.4489644 44.4912875,59.3510793 44.7862494,59.248454 C46.0112197,58.8223099 47.3549347,58.3158195 48.5307447,57.5964941 Z M36.2561052,49.3020912 C34.1585988,49.1136682 32.4379881,49.1771869 31.0700492,49.4303136 L31.0285548,49.8863461 C30.8771886,51.4674518 30.681954,53.0219802 31.5139169,53.6580985 C32.1895742,54.1747803 34.4321866,54.1254822 35.9359695,53.7514804 C36.3074029,53.6580985 36.7902188,50.3788277 36.2561052,49.3020912 Z M39.4994979,49.1136682 C39.1633011,50.6719214 39.0051652,52.5639865 39.6801979,53.125952 C40.3929286,53.7193013 42.68742,53.6388953 43.2874656,53.24363 C43.8126018,52.8977095 43.7992193,51.3064483 43.6042646,49.5199034 C42.442229,49.2466308 40.4188193,49.1136682 39.4994979,49.1136682 Z M30.1424156,49.4459562 L29.4555963,49.4521185 L29.066841,49.4573006 C28.083814,49.474737 27.0232718,49.531238 26.0207871,49.7495661 C24.0291321,54.0448846 31.3023899,54.7863444 30.1790447,49.6047885 L30.1424156,49.4459562 Z M44.5295233,49.5495296 L44.5168443,49.7928569 C44.4571448,50.9994318 44.4967141,52.5882728 45.1664992,53.0172333 C46.1520653,53.6484341 48.0027812,53.5266532 49.0053324,50.607035 C48.6735597,49.7360231 45.1548329,49.6132853 44.5295233,49.5495296 Z M25.2270263,23.9380602 C25.6481418,23.9380602 26.0509118,24.0807086 26.4177179,24.3446632 C26.7787314,24.6044494 27.1055508,24.9836022 27.3777551,25.4564942 C27.892866,26.3513801 28.2148804,27.5869798 28.2148804,28.9531923 C28.2148804,30.3194048 27.892866,31.5550046 27.3777551,32.4498905 C27.1055508,32.9227824 26.7787314,33.3019352 26.4177179,33.5617215 C26.0509118,33.8256761 25.6481418,33.9683245 25.2270263,33.9683245 C24.8059107,33.9683245 24.4031408,33.8256761 24.0363347,33.5617215 C23.6753212,33.3019352 23.3485018,32.9227824 23.0762975,32.4498905 C22.5611866,31.5550046 22.2391722,30.3194048 22.2391722,28.9531923 C22.2391722,27.5869798 22.5611866,26.3513801 23.0762975,25.4564942 C23.3485018,24.9836022 23.6753212,24.6044494 24.0363347,24.3446632 C24.4031408,24.0807086 24.8059107,23.9380602 25.2270263,23.9380602 Z M51.8828838,23.9380602 C52.3039993,23.9380602 52.7067693,24.0807086 53.0735754,24.3446632 C53.4345889,24.6044494 53.7614083,24.9836022 54.0336126,25.4564942 C54.5487235,26.3513801 54.8707379,27.5869798 54.8707379,28.9531923 C54.8707379,30.3194048 54.5487235,31.5550046 54.0336126,32.4498905 C53.7614083,32.9227824 53.4345889,33.3019352 53.0735754,33.5617215 C52.7067693,33.8256761 52.3039993,33.9683245 51.8828838,33.9683245 C51.4617683,33.9683245 51.0589983,33.8256761 50.6921922,33.5617215 C50.3311787,33.3019352 50.0043593,32.9227824 49.732155,32.4498905 C49.2170441,31.5550046 48.8950297,30.3194048 48.8950297,28.9531923 C48.8950297,27.5869798 49.2170441,26.3513801 49.732155,25.4564942 C50.0043593,24.9836022 50.3311787,24.6044494 50.6921922,24.3446632 C51.0589983,24.0807086 51.4617683,23.9380602 51.8828838,23.9380602 Z M48.2561538,12.3670381 L48.5974094,12.4367382 L48.8238069,12.4846464 C52.5047827,13.2748111 57.1715515,14.8324864 58.8946297,18.3992889 C58.9616407,18.9140465 58.8908372,19.0243694 58.8332614,19.0964481 L58.8140916,19.1204334 C58.7666489,19.1819844 58.7287934,19.266832 58.5052239,19.3368914 C58.4431833,19.3221394 58.3805253,19.3065151 58.3172035,19.2899543 C57.5110894,19.0791278 56.8732973,18.7886846 56.2558469,18.4873151 L55.586374,18.1581557 C54.8096518,17.7780821 54.0260716,17.4118413 53.1956566,17.1414685 C51.4234796,16.5645992 49.6006432,16.1582307 47.7495654,15.9412392 C47.3483586,15.8942481 46.9620215,15.7591142 46.6572294,15.5275167 C46.3679205,15.3076842 46.1469071,15.003321 46.0461374,14.598756 C45.9155399,14.0751843 45.9530707,13.6787976 46.2345577,13.2064592 C46.4462185,12.8517432 46.7490713,12.6058787 47.0968229,12.4646949 C47.4513406,12.3207642 47.8549555,12.2868326 48.2561538,12.3670381 Z" id="ðŸ–-Ink"></path>
                    </g>
                    <g id="facial-hair/Moustache-7" transform="translate(29.211196, 80.109389)" fill="#000000">
                        <path d="M61.4230466,9.1638505 C59.8570416,8.87019508 58.2380763,8.95267457 56.6825208,8.61090611 C55.1649635,8.27719599 53.9597048,7.284835 52.4934453,6.82290246 C51.2031654,6.41619325 49.6908329,6.69159891 48.6860153,7.47989426 C47.7524444,7.04924704 46.6915793,6.9561021 45.6295267,7.09830811 C44.0188736,7.31398724 42.5160407,7.99420602 41.0813673,8.72988514 C40.9151247,8.81520875 40.7486446,8.89650319 40.582402,8.97874567 C37.9315454,8.91261987 35.2139542,8.91783409 32.6127328,9.48476208 C30.3093232,9.98698633 28.1317829,11.1559198 26.7581442,13.1084084 C25.2208753,15.2938778 24.9432502,18.0768496 24.7062358,20.6593108 C24.55543,22.2984722 26.8367532,22.6309973 27.6097812,21.444051 C28.4113079,20.213495 29.2456081,18.9800948 30.313598,17.9604777 C31.5266938,16.8022097 33.0022154,16.3462024 34.6558541,16.2404959 C38.3055912,16.007278 41.9795522,16.2028113 45.6328516,16.0414075 C47.7505445,15.9477885 50.1083393,15.1350811 50.9618762,13.2977794 C51.8728855,14.7224467 53.9371433,15.5695205 55.634955,15.6979799 C57.4291874,15.8340237 59.2509686,15.5086089 61.0273893,15.8816627 C62.7244885,16.2381258 64.7417235,17.4994932 64.3643528,19.5169225 C64.1425377,20.7019727 65.6437082,21.4006782 66.3345649,20.3459836 C69.1557014,16.0364303 66.375888,10.0931668 61.4230466,9.1638505" id="ðŸ–-Ink"></path>
                    </g>
                    <g id="accessories/*-None" transform="translate(11.162002, 57.119417)"></g>
                </g>
            </g>
        </g>
    </g>
</svg>