<?xml version="1.0" encoding="UTF-8"?>
<svg width="213px" height="694px" viewBox="0 0 213 694" version="1.1" xmlns="http://www.w3.org/2000/svg" xmlns:xlink="http://www.w3.org/1999/xlink">
    <!-- Generator: Sketch 62 (91390) - https://sketch.com -->
    <title>peep-standing-28</title>
    <desc>Created with Sketch.</desc>
    <g id="Introduction" stroke="none" stroke-width="1" fill="none" fill-rule="evenodd">
        <g id="variations-standing" transform="translate(-3484.000000, -103.000000)">
            <g id="a-person/standing" transform="translate(3437.000000, 50.000000)">
                <g id="pose/standing/shirt-1" transform="translate(-28.736217, 150.264357)">
                    <path d="M234.845996,367.804671 C234.095991,374.370734 231.679315,387.952074 230.492718,394.623338 C230.14785,396.562251 229.906305,397.921066 229.836786,398.366789 C223.122239,433.397753 220.373963,468.993965 219.099443,504.584742 C218.724812,509.215831 218.91067,513.834866 219.717518,518.411044 C219.758994,518.646286 219.802052,518.881076 219.846729,519.115278 C220.072322,519.069235 220.301219,519.027321 220.533499,518.989646 C229.976893,517.457969 236.337637,524.340547 242.484838,530.829913 C244.888165,533.367013 247.258314,535.865487 249.745017,537.859302 C255.714642,543.17534 262.176096,547.905537 268.94627,552.15205 C271.713951,553.778366 274.853796,555.700645 276.973505,558.249591 C278.416827,559.985183 279.379788,562.017573 279.354613,564.459543 L279.345975,565.297346 L280.175697,565.169571 C280.424262,565.131293 280.631052,565.144935 280.798709,565.224836 C280.976587,565.309607 281.099121,565.463858 281.197645,565.644173 C281.639197,566.45228 281.637602,567.735536 281.662238,568.707789 C281.668542,568.956604 281.674516,569.188331 281.685086,569.393663 C281.759762,572.311213 280.437864,574.236612 278.447891,575.553504 C275.349904,577.60364 270.728178,578.249254 266.98151,578.794931 C266.288285,578.895894 265.62367,578.992721 264.997597,579.092877 C241.951832,581.558221 218.61965,575.332337 197.296117,566.898825 C197.236223,566.875137 197.176329,566.851425 197.116209,566.827818 C197.058259,566.838078 196.999681,566.84712 196.940468,566.854913 C195.241445,567.078536 193.779842,566.174518 192.623896,564.867166 C191.026349,563.060371 189.986358,560.448745 189.737655,558.421997 C189.520486,557.440854 189.657344,556.527941 189.778299,555.623509 C189.939134,554.42088 190.074602,553.232418 189.699252,552.067172 C186.757763,545.392343 186.371309,538.133305 186.792317,531.021884 C186.67666,522.218 188.702931,519.73417 190.351766,517.765371 C191.735894,516.112647 192.854017,514.771049 192.494395,511.018239 C192.44938,510.464276 192.273855,506.898567 192.350151,505.127732 L192.901977,505.049024 C192.02707,492.458823 188.853778,479.989781 185.678959,467.53072 C180.508093,447.238499 175.314567,426.969504 180.296673,406.227805 C181.869151,399.833454 184.979597,394.172573 188.100235,388.476705 C190.080413,384.862432 192.066543,381.234801 193.685947,377.405888 C193.715006,377.337181 193.743936,377.268434 193.772518,377.199453 C193.756879,377.131629 193.742398,377.063398 193.72913,376.99474 C193.422513,375.408156 193.801696,373.792814 194.162158,372.165801 C194.491486,370.679321 194.813895,369.182783 194.736922,367.688175 C194.709358,364.877466 194.15468,362.187626 193.571953,359.463533 C193.542127,359.324105 193.512271,359.184788 193.481864,359.045508 C193.345562,359.007147 193.209373,358.968303 193.073293,358.928991 C190.4064,358.158554 187.79998,357.213844 185.296795,355.978787 L184.626438,355.648036 L184.327835,356.332256 C184.233123,356.549279 184.094225,356.715555 183.927202,356.829651 C183.7432,356.955346 183.528074,357.017874 183.311999,357.026471 C183.076979,357.035822 182.839425,356.981904 182.633826,356.868082 C182.471831,356.778399 182.329729,356.650567 182.228507,356.485302 C181.942996,355.319256 182.261538,354.087904 182.54674,352.8684 C182.73494,352.063664 182.919356,351.26179 182.98065,350.480162 C183.073405,350.032894 183.152598,349.51095 183.23663,348.953672 C183.471104,347.398707 183.716048,345.520953 184.558427,344.403926 C184.797557,344.086832 185.090132,343.839133 185.466931,343.716599 C185.828234,343.599103 186.256854,343.596729 186.765685,343.714058 C187.065101,343.783099 187.321339,343.877228 187.537396,343.995397 C187.5704,343.695701 187.602798,343.395934 187.634589,343.096099 C188.9805,330.402321 189.237193,317.600611 188.489914,304.859041 C188.431989,303.871382 188.368031,302.884067 188.297597,301.897665 C187.89714,302.805521 187.504639,303.714703 187.121691,304.625464 C184.827649,310.081369 182.814305,315.741748 180.802063,321.400174 C177.985977,329.319007 175.172806,337.234357 171.582875,344.572218 C171.524591,344.691351 171.466061,344.810416 171.4076,344.929426 C171.477073,345.004809 171.533834,345.094312 171.580925,345.19212 C171.665935,345.368684 171.710082,345.552888 171.67542,345.737299 C171.641974,345.915247 171.537019,346.084535 171.370734,346.24848 C170.037794,347.537769 169.343635,349.263348 168.672105,350.992974 C168.638182,351.080348 168.60427,351.167694 168.570273,351.254945 C168.065261,352.845668 167.237222,354.288218 166.113003,355.39368 C165.114406,356.375615 163.88061,357.090074 162.444043,357.360891 C162.293319,357.389305 162.142889,357.41236 161.992901,357.430249 C161.955712,357.587396 161.918978,357.742946 161.882724,357.896862 C161.703816,358.656428 161.517638,359.456834 161.323216,360.292687 C159.047969,370.074356 155.645734,384.74541 149.512925,395.543514 C145.587848,402.454441 140.548446,407.799085 133.886153,409.052976 C133.401038,409.144278 132.916022,409.212253 132.431693,409.257916 C132.836313,409.461812 133.175057,409.737854 133.410031,410.122095 C134.176776,411.375911 133.411653,413.083612 132.832868,414.64947 C132.491125,415.57403 132.165506,416.472363 132.037213,417.267442 C131.414939,419.043168 130.894088,420.8667 130.373097,422.692283 C129.417855,426.039508 128.465509,429.395425 126.847416,432.459968 C126.786678,432.575 126.725071,432.689493 126.662942,432.80324 C126.727905,432.879802 126.778221,432.960994 126.816506,433.056216 C126.881093,433.216854 126.893281,433.372255 126.875257,433.563698 C126.859145,433.73482 126.824692,433.873163 126.750903,434.004778 C126.907437,434.067217 127.061403,434.144024 127.211938,434.236221 C127.932885,434.677777 128.374088,435.349217 128.593065,436.115227 C128.858622,437.044181 128.80592,438.107875 128.521835,439.11528 C128.225645,440.165611 127.675667,441.159804 126.937453,441.881603 C126.318374,442.486916 125.564168,442.901101 124.714532,442.950658 C124.657229,442.954001 124.600164,442.955645 124.543393,442.955669 C124.497665,442.986762 124.451631,443.015469 124.405475,443.04151 C124.029805,443.253458 123.50664,443.367437 123.017046,443.376179 L122.848592,444.774745 C122.955091,444.892599 122.970851,444.954191 122.963306,445.01742 C122.242493,453.670238 120.181473,462.107483 118.131612,470.511195 C117.751076,472.071258 117.370827,473.63016 116.999303,475.188701 C116.276484,477.672546 115.742086,480.231501 115.208033,482.792358 C114.331395,486.995962 113.459234,491.206277 111.70958,495.081604 C111.666223,495.177635 111.622355,495.2734 111.57826,495.369185 C111.621261,495.460879 111.662394,495.553599 111.701571,495.647358 C112.574876,497.737356 112.396473,500.152778 111.962756,502.329463 C111.256709,503.135059 109.930562,503.066858 108.828578,503.09985 C108.405487,503.112517 107.998826,503.125431 107.633245,503.163267 C107.399736,503.187435 107.151915,503.224986 106.89478,503.268501 C106.932378,503.502224 106.967955,503.736273 107.001374,503.970667 C107.536077,507.720962 107.515616,511.540426 107.497779,515.345741 C107.487698,517.496412 107.477886,519.642696 107.564836,521.770039 C107.5751,522.021155 107.586729,522.272425 107.599886,522.52356 C107.82969,522.488875 108.068119,522.464509 108.315537,522.451034 C110.727021,522.319695 112.402333,523.309436 113.621522,524.859732 C115.505783,527.255717 116.356117,530.903327 117.10362,534.012032 C117.307236,534.858829 117.501978,535.668169 117.704049,536.407185 C119.240329,541.54321 121.206419,546.491569 123.172568,551.437624 C125.793299,558.030349 128.415421,564.618662 129.981387,571.613688 L130.220222,572.680543 L131.100615,572.030139 C131.179564,571.971814 131.272367,571.93066 131.375221,571.926767 C131.477191,571.922907 131.584112,571.955887 131.694434,572.020311 C134.841012,573.906159 134.875369,577.795509 135.007765,581.071243 C135.019446,581.360255 135.030984,581.645594 135.04407,581.925941 C135.013135,582.617511 135.063921,583.362911 135.117324,584.11964 C135.245317,585.933287 135.511364,587.915891 133.973731,589.076272 C123.110188,596.465441 108.420474,596.252978 95.8640903,594.312618 C90.8583868,593.40154 85.9716335,591.879745 81.331806,589.796844 C79.5779547,589.202966 78.2661362,588.575111 77.4637731,587.543876 C76.7823508,586.66808 76.5005093,585.504486 76.611071,583.888494 C76.3019334,580.950687 76.567056,578.15404 76.8277159,575.353847 C77.0536259,572.926961 77.2773805,570.497355 77.1570822,568.05185 C77.5252966,558.65868 79.6788112,549.373774 81.7957828,540.227897 C81.8806171,539.861391 81.9653999,539.495107 82.0500316,539.129101 C82.1737943,538.74191 82.2985728,538.346265 82.4253919,537.944144 C84.0560455,532.773625 85.9801955,526.437688 90.6634894,523.541737 C90.7932628,523.512453 91.002619,523.506111 91.2345494,523.486852 C91.8525514,523.435535 92.5826799,523.351986 93.016921,523.142849 C93.0286304,523.13721 93.0401871,523.131485 93.051592,523.125677 L92.7848886,524.025184 L94.1789453,523.429192 C94.5008519,523.29157 94.837611,523.188279 95.1828895,523.123696 C95.296774,523.102394 95.4113227,523.085352 95.5265928,523.071859 C95.5828202,522.959834 95.6383143,522.847342 95.6930536,522.73437 C97.5891389,518.821181 98.4699129,514.557533 99.3432173,510.29347 C99.8828334,507.658699 100.421122,505.024503 101.21264,502.479054 C101.280709,502.260149 101.350694,502.041761 101.422387,501.823762 C101.207902,501.757921 100.996256,501.684773 100.788321,501.604824 C98.5846973,500.757558 96.5854398,499.064804 95.9659934,496.775882 C96.1152776,496.129184 96.4241601,495.422038 96.8911194,494.89269 C97.2372007,494.500371 97.6755804,494.202428 98.2187134,494.168277 L99.1973464,494.106743 L98.8363401,493.196882 C98.4784421,492.294855 98.4270379,491.267712 98.5365522,490.300192 C100.381341,478.952351 102.838812,467.701687 105.486214,456.510771 C106.493713,452.348694 107.571713,448.201202 108.788777,444.095307 C108.967147,443.600893 109.108325,443.043267 109.251928,442.470122 C109.549456,441.282624 109.821043,439.983088 110.687614,439.235693 C110.89352,439.058105 111.125464,438.918203 111.375642,438.806219 C111.152728,438.606302 110.934743,438.400712 110.721895,438.191337 C108.871874,436.371491 107.302811,434.160199 107.258005,431.676067 C107.171256,430.631863 107.666297,429.556229 108.431003,428.887979 C108.682419,428.668276 108.964966,428.492219 109.269651,428.384753 L110.442179,429.104566 C110.722945,429.276929 110.991396,429.473351 111.260077,429.669015 C111.486476,429.833889 111.712905,429.998467 111.944861,430.151508 L114.747677,432.000762 L112.938092,429.175439 C111.514711,426.9531 112.220654,424.246931 112.7935,421.760559 C112.948167,421.089247 113.09963,420.430555 113.214698,419.795554 C113.365699,419.118141 113.514101,418.437771 113.662812,417.755974 C114.561926,413.633806 115.469155,409.457712 117.049435,405.575349 C117.113769,405.417297 117.179243,405.259671 117.24493,405.101526 C117.115121,404.992995 116.985622,404.882772 116.856438,404.770841 C110.703629,399.439772 108.295926,392.860594 107.984747,385.804695 C107.536247,375.63506 111.396166,364.488223 114.815013,354.563779 C115.684145,352.040807 116.526246,349.596064 117.265708,347.265055 C117.316392,347.105282 117.366991,346.944795 117.417309,346.783634 C117.278695,346.675946 117.140447,346.572262 117.002506,346.473239 C116.164839,345.871903 115.160331,345.314527 114.12406,344.74178 C111.55197,343.320185 108.630542,341.842397 108.242406,338.953567 C108.285355,337.401249 108.894681,335.903504 109.47757,334.430439 C109.714354,333.832042 109.949225,333.237667 110.150095,332.646138 C110.305645,331.950729 110.780751,331.047803 111.385615,330.638698 C111.516623,330.55009 111.654525,330.478459 111.802192,330.494794 C111.933391,330.509308 112.05425,330.596494 112.178714,330.727853 L113.015468,331.610963 L113.376781,330.450275 C113.561541,329.856751 113.747065,329.262685 113.932768,328.668043 C117.474649,317.32654 121.068203,305.776045 120.744647,293.796706 C120.739908,293.621227 120.734334,293.445886 120.727823,293.272556 C120.553122,293.215687 120.375423,293.165591 120.194285,293.123423 C118.961307,292.836397 117.708415,292.949203 116.471878,293.073186 C114.918074,293.228981 113.373368,293.442909 111.979228,292.401839 C99.2788896,282.706108 100.661048,257.992455 101.748496,243.565957 C101.762636,243.378371 101.776988,243.189058 101.791318,242.999596 C101.615176,242.950866 101.439355,242.896848 101.264091,242.838328 C100.674337,242.641411 100.110275,242.399984 99.5971732,242.095589 L99.1760911,241.845784 L98.7916181,242.148727 C98.6054471,242.156629 98.4963885,242.046427 98.3751831,241.917956 C97.8791357,241.392176 97.3885647,240.43628 96.9002774,239.263881 C95.1718545,235.113865 93.6253559,228.321113 93.1687573,226.32016 C93.1572874,226.269896 93.1465003,226.222624 93.1347179,226.170883 C83.8925509,184.36808 87.428431,141.263541 90.8922803,98.9086402 C91.1397952,95.8821039 91.3869978,92.8593818 91.62934,89.8416471 C92.3750956,84.2626338 92.660776,78.5513507 92.9462215,72.8279773 C93.5302864,61.1170856 94.1018223,49.3509496 98.7314547,38.5900987 C101.823232,30.7292354 110.539004,28.9040201 117.940911,27.2505923 C118.144089,27.2052066 118.346395,27.1600158 118.547698,27.1149116 C122.402678,25.9688933 126.278659,25.0843054 130.149654,24.2003426 C136.081826,22.845699 142.001843,21.4910684 147.652468,19.2684345 C147.958382,19.1481051 148.263135,19.0253782 148.566764,18.9002225 C148.349955,18.6786904 148.15011,18.4426212 147.969945,18.1922165 C146.977731,16.8131813 146.589102,15.0087005 146.691097,13.2183055 C146.796897,11.361119 147.431856,9.50872396 148.520551,8.13625564 C148.947561,7.82304197 149.449434,7.79003176 149.958228,7.87293918 C150.955789,8.0354907 151.996423,8.62556052 152.84288,9.09136919 C152.926585,9.13743257 153.008506,9.18251282 153.08844,9.22618476 L153.723924,9.5733839 L154.061151,8.93346533 C155.392418,6.40726166 156.316238,3.62308006 157.219489,0.89049262 C157.741084,-0.687478106 158.256289,-2.24753473 158.845379,-3.72627127 C160.649255,-7.53187748 163.743823,-9.35655452 167.313982,-10.0589943 C172.694854,-11.1176976 179.130616,-9.68807338 184.108388,-8.44829421 C184.287004,-8.40270541 184.466742,-8.35718866 184.647336,-8.31145544 C187.158313,-7.67558271 189.851247,-7.01368731 191.938897,-5.44927607 C195.414529,-2.67867739 196.15289,1.62924404 196.938317,5.85542762 C197.335905,7.99474867 197.73493,10.1235665 198.435341,12.0658928 C198.513958,12.2839066 198.597001,12.5013164 198.684344,12.7178979 C198.882209,12.6287315 199.076034,12.5612847 199.264544,12.5182643 C202.017254,11.8900602 208.059114,15.461095 210.141477,17.3633211 C210.685782,17.7232374 210.935024,18.0817666 211.064507,18.4855039 C211.280135,19.1578492 211.210872,19.9280866 211.161039,20.6883218 C211.138442,21.033043 211.116262,21.3766616 211.112052,21.7121007 C211.10959,21.9082989 211.113203,22.1074483 211.119641,22.3080837 C211.30982,22.3453665 211.49951,22.3823537 211.688688,22.4190049 C212.914753,22.6565414 214.166036,22.8890127 215.432883,23.1243682 C224.499425,24.8087542 234.385838,26.6194271 241.438854,31.600721 C246.370414,35.0837057 249.885901,40.1389787 250.70788,47.8225594 C253.31424,58.9276492 254.697131,70.1473825 255.978468,81.3728546 C256.15045,82.8557909 256.320528,84.3399492 256.490688,85.8248196 C258.55413,103.831103 260.634138,121.940647 266.240987,139.251132 C266.79133,140.59647 267.325131,141.891626 267.859394,143.1879 C276.242914,163.528704 284.751126,184.14397 286.763601,206.26206 C287.855439,216.83193 287.689053,227.510356 285.876897,237.987946 C285.77115,238.552727 285.322881,238.948521 284.811515,239.156554 C284.250392,239.384829 283.577251,239.405268 283.073845,239.0883 L280.391152,237.399156 L282.092339,240.070982 C285.672873,245.694447 282.674057,255.584327 280.644848,262.567395 C280.344263,263.60179 280.061345,264.575521 279.817832,265.466984 C278.259532,270.623622 275.738622,276.238952 271.779191,279.217834 C270.280694,280.345229 268.57323,281.085543 266.629116,281.250321 C264.84341,281.401674 262.864264,281.068631 260.670996,280.133345 C260.396034,280.016092 260.130253,279.894723 259.872705,279.771703 C259.812973,280.062437 259.753137,280.353166 259.693197,280.643889 C255.385987,301.535154 250.579371,322.242198 244.873443,342.805689 L244.078366,345.671056 L246.086387,343.474687 C246.406964,343.12404 246.774046,342.917856 247.157341,342.841948 C247.586602,342.756937 248.029184,342.832486 248.43582,343.015818 C248.900452,343.225299 249.3199,343.5756 249.63257,344.014836 C249.918309,344.41624 250.115115,344.893339 250.17037,345.411005 C250.00624,348.220314 249.09741,350.920915 248.199303,353.616136 C247.720172,355.05401 247.242209,356.490223 246.869168,357.938528 C246.452164,359.432988 245.572241,360.351377 244.443711,360.930491 C242.71733,361.816397 240.460207,361.959696 238.331122,362.116098 C237.220021,362.19772 236.139637,362.278333 235.169817,362.443748 C235.024675,362.468503 234.87783,362.495871 234.729481,362.525618 C234.687449,362.666049 234.646023,362.80666 234.605305,362.94748 C234.318862,363.938117 234.067561,364.938611 233.816409,365.939123 C233.615423,366.739791 233.414503,367.540462 233.194896,368.335867 L234.563568,368.73111 C234.663874,368.401052 234.757848,368.092364 234.845996,367.804671 L234.845996,367.804671 Z M128.561847,243.383129 C128.609241,237.383391 130.751965,231.72604 132.875404,226.077615 C133.760302,223.723754 134.644125,221.371608 135.382569,218.998615 C135.426424,218.857689 135.469813,218.716534 135.512767,218.575164 C135.401449,218.463598 135.289079,218.357057 135.175484,218.256292 C134.633824,217.775811 133.964735,217.338341 133.282272,216.895855 C132.329753,216.278274 131.336401,215.658153 130.745449,214.820052 C130.381879,214.30443 130.193418,213.698131 130.319389,212.870969 C130.662348,206.687683 131.084972,200.506527 131.591059,194.33507 C131.709585,193.017417 131.829284,191.699814 131.949062,190.381348 C134.060523,167.139193 136.187534,143.630519 132.005589,120.503231 C131.821303,119.450171 131.606572,118.407893 131.391677,117.365348 C131.247258,116.664713 131.10279,115.963951 130.968007,115.260871 C130.94853,115.157551 130.926897,115.020403 130.901554,114.860789 C130.781009,114.101551 130.579739,112.893237 130.173117,112.011748 C129.80571,111.215268 129.267903,110.705757 128.6236,110.593728 C128.396261,110.554199 128.16463,110.565715 127.932994,110.624655 C127.89131,110.789224 127.849996,110.957768 127.808959,111.126431 C120.805311,139.911621 122.562867,169.276826 124.327566,198.585477 C125.139453,212.06953 125.951085,225.541247 125.900806,238.938033 C125.900312,239.069678 125.899734,239.201331 125.899074,239.33299 C125.982633,239.358747 126.062769,239.402364 126.134751,239.467486 C126.31661,239.632014 126.366674,239.861665 126.330285,240.075761 C126.286085,240.335809 126.122867,240.583199 125.872347,240.715095 C125.784886,240.761143 125.691789,240.790478 125.597438,240.804459 C125.569483,240.930248 125.540739,241.055894 125.511203,241.181358 C125.376408,241.753948 125.225148,242.322605 125.05648,242.887786 C125.015086,243.026494 124.972698,243.164805 124.929327,243.302732 C125.035604,243.404022 125.142002,243.505143 125.248505,243.606152 C125.963943,244.284684 126.684154,244.958212 127.411515,245.624606 L128.709174,246.813495 L128.604547,245.058592 C128.571067,244.497032 128.55746,243.938467 128.561847,243.383129 Z" id="ðŸŽ¨-Background" fill="#FFFFFF"></path>
                    <path d="M158.30649,-3.79325068 C160.156058,-2.29771741 158.227169,8.48718687 156.736448,10.688299 C166.817002,17.167292 177.001637,23.4981198 187.400403,29.4322235 L188.476906,30.0446709 L188.472156,30.0446709 C188.906287,30.2406782 189.60973,30.3959198 190.034836,30.3150994 L190.350302,30.2111315 C190.397381,30.1967443 190.422472,30.1914855 190.407695,30.2034676 C190.571562,30.1157739 190.73068,30.023577 190.887423,29.9216627 L191.046803,29.7731247 C194.079551,26.8980734 196.030129,22.6146436 198.361215,19.0689736 C194.406779,15.5872963 196.377466,8.80098815 196.537534,4.16554603 C197.28515,4.14682224 197.373021,6.51502644 197.586999,7.20188149 L197.666909,7.6380931 C197.962122,9.24176919 198.289414,10.8862221 198.905065,12.3803136 C200.615226,10.2175971 209.273852,15.3272963 210.895668,16.9714348 C212.662589,18.0958104 212.120638,20.095701 212.097601,21.8538414 C228.52878,25.0451814 249.48152,27.2901404 251.689459,47.8796755 C254.287355,58.9248168 255.675243,70.1669134 256.959349,81.4239417 L257.098943,82.6214357 C259.372074,102.185985 261.339166,122.00988 267.741367,140.747552 L269.920275,145.934691 C275.242651,158.624924 280.458925,171.413881 283.855023,184.769794 C286.44817,190.382665 293.353174,243.954753 282.966813,239.822483 C286.518229,245.607424 283.861435,253.219001 282.626965,259.404015 C280.06683,269.731015 274.583912,286.879402 260.664183,280.919785 C256.355176,301.821462 251.54269,322.551781 245.83297,343.128044 C247.737635,341.044726 250.922368,342.888427 251.15772,345.528955 C251.131121,348.925783 249.501232,352.140113 248.70398,355.411799 L248.636815,355.703247 C247.527654,360.41109 245.804077,362.551916 240.629578,362.712182 C226.081927,364.644051 211.175905,363.99251 196.872156,360.709448 C201.890782,378.150067 185.961418,391.677652 182.605218,407.80334 C175.584081,440.588937 193.385812,471.957925 195.694209,504.382319 C196.029069,507.205108 196.316431,510.032875 196.561282,512.862775 C196.62493,515.780842 197.744455,519.370359 196.162063,521.937889 C197.647796,525.36932 200.960536,528.283358 204.659671,529.057907 C211.622623,529.949065 212.545269,520.682684 218.50744,519.046129 C216.242741,508.226385 215.290884,497.246895 216.133734,486.2155 L216.287946,483.75239 C218.826678,443.5053 222.400837,402.4842 235.701673,364.198235 C235.822792,363.83798 236.31677,363.989666 236.260723,364.349922 C229.958229,405.980022 221.629238,447.407479 220.760977,489.664233 C220.774751,499.246075 218.95677,508.927223 220.692343,518.42066 C234.01906,516.262447 241.449628,530.21499 250.466388,537.438108 C256.413598,542.737178 262.852173,547.451307 269.598534,551.682647 L270.035767,551.940362 C274.777676,554.746854 280.406064,558.502063 280.34018,564.599694 C283.507813,564.064762 282.749747,570.975026 282.187847,572.800004 C281.530002,574.845637 279.618212,576.023577 277.784794,576.935118 C251.417296,585.756394 222.37543,577.165254 197.306762,567.692438 C192.913208,568.271216 189.773123,562.470159 189.303606,558.641262 C188.825065,556.527606 189.94934,554.476995 189.294107,552.417141 C186.336651,545.721845 185.925082,538.329976 186.354463,531.112784 C186.121723,515.948882 192.201215,519.160368 192.096244,512.229721 L192.035543,510.979829 C191.901909,508.102601 191.663187,501.740321 192.464353,505.230815 C190.145744,471.472055 171.037347,438.341134 180.402266,404.319293 C183.235515,394.596904 189.383165,386.592365 193.30269,377.262228 C192.709204,374.192474 194.467338,371.014881 194.297771,367.843212 C194.276397,365.072802 193.720672,362.42777 193.148322,359.744817 C190.440943,358.962684 187.795311,358.002793 185.254175,356.74901 C184.403963,358.697232 181.231104,357.993313 181.663335,355.530541 L182.546796,350.513039 L182.546796,350.513039 L182.580226,350.34807 C183.116653,347.598891 183.211685,342.231075 187.199213,343.154115 C188.544353,330.499201 188.795854,317.735737 188.0518,305.033422 C182.542046,318.136995 178.657194,332.42396 172.496244,345.017014 C172.783606,345.588208 172.755108,346.296631 172.144285,346.886786 C168.660078,350.842009 169.268051,356.940988 162.849425,358.192401 C158.405048,375.041918 153.760468,404.836686 134.291325,409.884051 C135.588492,411.931344 133.345167,415.296649 133.004607,417.572893 C131.201825,422.688992 130.315752,428.033331 127.750867,432.923796 C127.848237,433.158673 127.890986,433.440715 127.857737,433.762811 C131.65068,436.07674 129.244913,443.551088 125.029238,443.793313 C124.562097,444.056868 123.913513,444.209028 123.30269,444.219694 C123.694548,444.347679 123.989035,444.68684 123.943912,445.234334 C123.08895,455.503978 120.343573,465.505801 117.962029,475.500514 C116.045489,482.068536 115.453666,489.285254 112.632292,495.506531 C113.571087,497.677305 113.365184,500.344142 112.946015,502.614698 C112.126677,504.228026 109.526405,503.816102 107.979874,504.00334 C107.986999,504.014954 107.994124,504.029411 107.998874,504.043632 C108.001249,504.043632 108.001249,504.043632 108.001249,504.041262 C108.820112,509.897305 108.307847,515.960259 108.549849,521.873896 C116.078263,521.463869 117.164064,530.865108 118.664522,536.352602 C122.242538,548.312839 128.205422,559.332146 130.949849,571.59149 C131.315583,571.321298 131.811936,571.238108 132.327525,571.53911 C136.817025,574.395081 135.757109,580.507807 136.12498,585.084707 C137.222419,593.190213 121.858755,595.041736 116.006779,595.887624 C102.87979,597.195209 88.7152095,595.201243 77.2981442,588.412091 C75.1350908,585.598071 76.1619949,575.366111 76.8754131,571.643395 C76.2113927,560.998563 79.2156336,550.450669 81.3615878,540.101863 L81.5771472,539.386251 C83.3124146,533.595582 85.3477618,526.302912 90.6407735,523.021025 C91.1976862,522.829534 93.5898228,522.990083 93.2784217,522.078951 L93.2626565,522.037433 C93.1225377,521.698509 93.6473893,521.414097 93.8753791,521.681918 C94.3574826,522.243632 94.3337337,522.928354 93.8516302,523.501918 C93.1914097,524.286658 92.1345818,524.127861 91.3076438,524.599037 C88.1739712,527.807916 86.9639627,532.668992 85.5062528,536.833732 C86.5963291,535.972912 87.6909177,535.151435 88.838229,534.378545 C88.614989,534.19581 88.4653707,533.909028 88.4249975,533.617743 C87.2240136,532.404963 90.4282205,528.357068 90.9495098,526.86746 C91.4268634,525.969192 92.3815708,526.066603 92.9396709,526.606986 C98.133564,519.557834 98.3534792,510.521353 100.80532,502.401152 L100.664473,502.344907 C98.3438304,501.39297 95.0693191,498.82158 95.7016726,496.20808 C96.1571773,495.017579 97.0166514,493.65406 98.44705,493.59149 C98.0504427,492.588937 97.976821,491.455792 98.1024529,490.341845 C99.9508329,478.969867 102.412885,467.694826 105.06588,456.480459 C106.087826,452.247608 107.187003,448.027256 108.427987,443.852602 L108.678093,443.01829 C109.005829,441.935154 109.388187,439.655118 110.494887,438.830086 C107.650239,436.176521 104.835752,431.00117 108.635345,428.176722 C109.996397,426.936923 113.368746,428.597889 111.088611,428.631781 C111.612512,428.95293 112.097466,429.352292 112.610918,429.691216 C110.71314,426.779785 112.216448,422.926476 112.789035,419.7887 L112.944385,419.084169 C113.950398,414.497372 114.897946,409.776165 116.662487,405.440113 C99.1782799,390.340441 111.101198,365.279475 116.859603,347.183285 C112.997075,344.662684 105.632054,342.05344 108.390731,336.221335 C109.211969,334.593076 110.253123,328.271544 112.969527,330.372164 L114.192659,326.449646 C117.486845,315.85234 120.609941,305.096585 120.305574,293.948463 C117.738314,293.343376 115.404268,294.605218 112.930816,293.718563 C98.783335,284.99612 100.238195,258.273477 101.311172,243.645455 C100.672326,243.432146 100.061978,243.169065 99.5062528,242.839621 C99.0146497,243.204616 98.268933,243.22571 97.9815708,242.552839 C97.2572282,240.853477 96.3262697,239.194407 95.6964478,237.466603 C79.3039796,181.203741 89.7717998,121.913313 93.0719525,64.5602042 C94.3581951,52.7774877 94.3676947,36.7797849 106.094209,30.2866582 C110.029408,28.4258924 114.47046,27.6271686 118.664522,26.5539872 C128.289255,23.688773 138.342182,22.4051267 147.664353,18.7392926 C145.495362,15.7316354 146.011189,11.3452908 147.818721,8.32033181 C149.251732,6.14292069 152.003047,7.80886418 153.703708,8.73509936 C155.666558,4.73081495 157.013123,0.461790337 158.30649,-3.79325068 Z M131.465201,574.174899 L131.61841,575.135168 C131.935506,577.13269 132.220049,579.11476 132.106422,581.147734 C132.681147,581.512729 133.032631,582.176357 133.073004,582.844726 C133.123352,583.688481 132.701571,584.50427 131.652818,584.786075 C115.646507,588.90128 97.7393316,589.780587 82.5236234,582.469776 C80.0670331,581.746421 78.825676,579.689174 78.1179576,577.376904 C78.3186361,579.968135 77.794497,584.888226 79.2911552,586.911818 C90.4754809,592.719511 103.48895,595.017087 116.007016,593.585783 C121.74476,592.920022 127.565625,591.374479 132.367661,588.061079 C133.905642,587.379675 133.264183,585.698089 133.296482,584.377943 C132.890612,581.06004 133.94744,576.821116 131.465201,574.174899 Z M108.590222,533.612766 C100.798195,529.709448 91.8598066,534.638071 85.0336489,538.521243 C82.8955318,549.917397 77.5508329,567.600241 82.7608753,578.182738 C96.3198575,585.451599 112.509272,584.887278 127.173768,581.714188 C127.363759,581.52458 127.568,581.368153 127.817364,581.254388 C127.795277,581.28283 127.900248,581.205327 127.914735,581.192529 C127.917109,581.185655 127.919484,581.178545 127.919484,581.173568 L127.959558,581.137279 C127.966296,581.131406 127.97284,581.126008 127.978857,581.121663 C127.957483,581.135883 127.940858,581.147734 127.924234,581.161717 L127.926609,581.147734 L127.926609,581.147734 C127.929934,581.153422 128.006405,581.083978 128.031104,581.104835 L128.117817,581.039823 C128.247837,580.938452 128.078438,581.039371 127.928984,581.142757 C127.972444,580.959311 128.036092,580.778472 128.061978,580.590523 C128.057228,580.602611 128.057228,580.612091 128.054853,580.618964 C128.330341,573.133951 125.474768,565.60509 123.186321,558.508299 C122.421605,556.351745 121.618891,554.209174 120.820926,552.064233 C118.938661,549.935614 117.916032,546.942302 116.695712,544.422426 L116.610239,544.247406 C114.651189,540.2654 112.417364,536.091891 108.590222,533.612766 Z M191.52152,556.370706 C190.792902,563.874206 198.116363,566.863376 204.046711,568.664416 C210.717788,571.031909 217.552733,572.996722 224.425676,574.695847 C238.505947,578.316649 253.185405,579.903194 267.61811,577.633112 L267.997364,577.566019 C272.184732,576.838429 279.502802,575.928394 280.439925,571.164871 L280.446502,571.095987 C280.509555,570.377163 280.642666,567.311413 280.34018,566.538199 C280.230935,566.536066 280.124064,566.512365 280.021944,566.462593 C278.815498,570.314005 274.419569,572.655665 270.182758,573.26004 C268.184522,575.263012 264.503437,574.520222 261.839756,574.634461 C244.257228,574.460496 227.354158,569.027278 210.693802,563.976831 C205.385201,562.135974 194.83426,560.821517 191.52152,556.370706 Z M193.314565,515.074078 C193.176821,515.796485 192.833174,516.481207 192.41448,517.074443 C192.732716,516.954042 194.028933,517.939293 193.136448,517.841881 C190.131257,516.211015 189.334005,525.369083 189.013157,527.294315 C188.029476,536.102082 188.053462,549.843449 195.197856,556.088664 C202.652885,559.275737 210.699026,560.738563 218.388696,563.246366 L220.208527,563.779937 C234.784125,568.03951 249.765282,572.02298 265.062487,571.394771 C266.298144,569.061881 273.481961,571.03262 276.336584,566.898928 C280.067304,560.369539 270.643488,556.187734 266.143064,553.3986 C257.54381,547.888591 249.511444,541.48221 242.268254,534.285874 C238.862656,530.903978 235.746796,527.031234 231.747474,524.312729 L231.538909,524.172844 C228.112332,521.905335 223.714205,520.498579 219.690137,521.987661 C215.771562,523.435792 214.332377,527.903431 211.045523,530.211909 C203.882368,535.071088 195.177194,526.952073 193.946287,520.188755 C193.53163,518.524707 193.403861,516.791927 193.314565,515.074078 Z M108.561723,522.85014 C108.580485,524.220532 108.618483,525.59045 108.673344,526.960131 C110.678941,527.27251 111.543878,529.699967 112.350154,531.387242 C113.659196,533.096558 114.431511,535.126549 115.93102,536.743668 C115.420417,534.307442 115.047559,531.847278 114.494209,529.410815 C113.769866,526.204069 111.972071,523.272018 108.561723,522.85014 Z M94.7612146,531.226312 C94.2268634,531.285564 93.6925123,531.332729 93.1581612,531.359037 L92.9882243,531.574629 L92.9882243,531.574629 L92.9016726,531.681371 C92.7401798,531.88283 92.5739372,532.081681 92.4076947,532.278399 C93.1752604,531.890651 93.9618253,531.544853 94.7612146,531.226312 Z M101.819399,502.794589 C101.156567,508.394188 100.687288,514.044033 99.3827583,519.536977 C98.6916641,522.272073 97.6205869,524.864726 96.1291535,527.249284 C99.1027583,528.261316 102.369662,527.97406 105.403115,527.459985 L105.386299,525.453541 C105.33335,518.262913 105.419855,510.832937 107.680638,503.995993 C105.663165,503.942191 103.739026,503.474097 101.819399,502.794589 Z M110.414141,497.442902 C110.276397,497.506895 110.133903,497.563778 109.98666,497.615683 C110.628831,498.68128 110.283522,500.270195 109.922538,501.41282 C110.162402,501.374899 110.399891,501.332237 110.637381,501.279858 C110.77275,499.964689 110.625506,498.729867 110.414141,497.442902 Z M111.594463,439.828135 C109.517856,448.163067 107.973225,456.760842 106.072835,465.190578 C104.583301,472.432972 103.126868,479.679496 101.811665,486.95308 L101.532037,488.512128 C101.308797,489.773258 100.624828,491.88004 101.631783,492.961043 C102.515243,493.906713 104.360536,494.352292 105.566982,494.664671 C108.501876,495.671964 110.936617,494.510614 111.331325,491.330414 C114.782533,476.173738 119.801368,461.29256 121.6271,445.822104 L121.694887,445.234334 C121.742385,444.715045 122.067746,444.383468 122.457228,444.241025 C118.437245,444.166129 114.603929,442.375756 111.594463,439.828135 Z M124.613632,435.633057 L124.627881,435.526403 L124.461639,435.585655 L124.461639,435.585655 L124.537635,435.610156 L124.537635,435.610156 L124.613632,435.633057 Z M117.282334,405.91674 C116.625167,410.25013 115.730462,414.548778 114.99962,418.871322 L114.796003,420.097451 C114.154786,423.835426 112.592479,428.107918 116.564879,430.508427 C122.166541,435.395573 125.935973,434.393969 127.501503,426.934789 C129.012767,422.264236 130.433725,417.562007 131.768942,412.837779 L132.075549,411.747187 C132.258416,411.093039 132.450782,410.543176 132.892512,410.116558 C127.368509,410.839438 121.747135,409.21829 117.282334,405.91674 Z M117.773937,347.690487 C116.121961,357.721699 112.719925,367.338144 110.925693,377.325747 C106.492953,394.326002 121.336753,414.851781 139.298314,404.611052 C149.943301,396.730706 152.641418,382.049593 156.696075,370.189849 C157.764777,366.333459 158.626863,362.463085 159.344081,358.540569 C144.87409,358.401444 130.462996,354.618764 117.773937,347.690487 Z M194.862996,360.216467 C195.516092,361.315956 195.998195,362.515464 196.34018,363.75716 C196.486473,362.756266 195.947372,361.469539 196.321181,360.579092 C195.834327,360.462957 195.347474,360.344452 194.862996,360.216467 Z M187.137466,343.760861 C186.769357,343.836467 186.439247,344.031052 186.128136,344.310487 C186.891427,348.040788 185.721791,351.923012 185.47979,355.689575 C204.084947,359.934899 223.297126,362.747734 242.31124,359.446184 C245.753411,359.354935 245.640604,353.401717 246.806914,350.828263 C247.158161,349.078655 248.207389,347.266476 248.020248,345.483923 C247.848237,345.226429 247.63732,345.330449 247.763988,345.213978 L247.797687,345.184106 L247.760535,345.214913 C246.754913,346.014311 245.102827,345.145818 245.317792,344.004549 L245.327118,343.959949 C245.139501,344.102155 244.918636,344.182501 244.688271,344.213313 C246.049798,345.445528 244.751444,347.679584 243.013971,347.131143 C226.491834,353.616686 203.429713,352.174954 187.510324,345.197141 C187.105167,344.935245 187.03392,344.288208 187.137466,343.760861 Z M112.774785,330.9955 C111.986321,330.310304 111.747881,334.00458 111.539603,334.590943 C111.391647,336.071781 110.682504,337.568737 110.834022,339.056686 C123.434972,349.930469 143.683793,354.909338 160.232292,355.132602 C160.678772,354.724944 161.362741,354.682283 161.956465,354.921663 C164.495226,354.577287 165.69716,352.166658 166.454514,349.998727 L166.63262,349.550474 C167.020256,348.579885 167.423946,347.616382 167.936448,346.718746 C149.346253,347.302264 130.172784,343.744507 113.947983,334.403705 C111.65431,334.62128 112.1737,332.4652 112.774785,330.9955 Z M123.20532,242.82777 C116.429035,245.171088 109.035277,245.650797 102.054514,243.870614 C103.585846,255.325309 105.123827,282.459402 114.878941,289.075537 C116.527118,288.838527 118.182419,288.722155 119.84722,288.888299 C120.83755,288.986658 121.817194,289.146166 122.799213,289.298326 C123.168179,289.349363 123.902984,289.387714 124.372218,289.354681 L124.452139,289.348098 C124.293922,289.35954 124.179984,289.353306 124.522879,289.337717 L124.561384,289.336011 L124.663984,289.328199 C128.046433,289.024916 131.099073,284.255357 134.445693,286.54427 C134.937059,285.801717 135.679925,285.325564 136.250612,284.664543 C138.790561,280.223923 136.092207,274.508901 137.789544,269.827953 C137.148322,268.953149 137.359688,267.64272 138.366643,266.893768 C139.935735,265.454407 143.253225,266.526166 144.156634,264.459438 C144.094711,264.571939 144.090333,264.442158 144.114341,264.374457 L144.120265,264.360368 L143.960876,264.228851 C137.028577,258.498554 130.325377,252.095329 125.7824,244.146028 L125.630087,243.877488 C124.761113,244.719347 123.333089,244.076339 123.20532,242.82777 Z M281.494378,238.940569 C276.518975,241.656704 271.146965,243.595683 265.575464,244.662228 C264.59297,255.086877 263.376787,265.495883 261.614141,275.819566 C264.349069,276.053495 267.149069,277.226458 269.532037,275.305254 C276.304047,268.734862 278.744726,255.520131 281.404132,246.59623 L281.50906,246.189935 C282.067787,244.001135 282.70919,240.973054 281.494378,238.940569 Z M212.083352,22.5862024 C211.372309,26.1389827 215.294446,64.8230483 208.141028,58.2064394 C203.299569,50.6157192 197.761554,43.5127657 192.811087,36.0007329 C192.129255,38.6862935 194.124641,41.8771595 193.181571,44.1541149 C205.779433,107.176503 214.919213,171.170396 218.305574,235.371435 C223.873513,239.27499 228.75582,244.007606 233.542656,248.80303 C235.034327,250.069375 236.117279,252.13942 237.969696,252.867515 C245.683589,244.158819 254.62744,236.641335 262.692343,228.268244 C262.635345,227.86035 262.575973,227.45293 262.516601,227.045273 C262.288611,225.473896 264.369018,224.691526 265.062487,225.734607 C267.932784,221.971836 268.172885,210.319712 267.582249,205.432091 C266.416176,194.470377 262.319484,183.997141 259.392665,173.433604 C250.957517,141.117287 245.120027,107.21561 247.882504,73.7614075 C247.922877,73.4509243 248.336109,73.4461841 248.372682,73.7611705 C250.66493,109.10458 254.237008,144.546348 264.881995,178.517469 L265.135306,179.357063 C269.294181,193.087378 274.43882,207.642191 270.878602,222.041991 C271.174277,223.980259 270.242131,225.912128 268.833818,227.305747 C268.050103,229.201827 267.154768,231.074443 266.029069,232.778308 C266.286507,235.74117 266.168712,238.74148 265.846202,241.713823 C271.570409,240.568591 276.908696,238.277415 281.993106,235.461499 C282.282843,233.816412 282.536957,232.166822 282.734073,230.510359 C286.522504,199.786986 274.967457,169.908317 263.407186,142.017925 C252.391478,109.515081 254.542656,74.2415898 245.336617,41.3616627 C239.512427,28.5401313 223.6042,27.5323646 212.083352,22.5862024 Z M149.64264,20.2042516 C146.864726,21.1639052 144.087288,22.3461112 141.11677,22.4297758 C132.217746,25.3859204 123.092945,27.655651 114.046591,30.1228564 L113.171393,30.3622644 C109.309815,31.4219362 105.410239,32.6328204 102.80498,35.8706144 C100.306592,38.9752088 99.2616387,42.9735679 98.4453876,46.7917995 C94.6191959,80.155464 92.4513927,113.856394 90.507542,147.419384 C89.554497,175.364762 90.0976353,203.777287 97.2524784,230.969922 C98.2627583,234.695719 99.4915284,238.433604 99.926609,242.261316 C100.446711,242.26819 100.969187,242.303978 101.494039,242.355883 C101.502114,242.105838 101.882572,242.14684 101.855023,242.391672 C108.80705,243.486658 116.032902,242.839147 122.556974,240.147187 C120.945371,191.192766 110.471138,138.060569 134.196329,92.6461294 C134.2937,92.4733491 134.588187,92.5918541 134.52169,92.7835953 L133.936843,94.4679297 C132.055105,99.8955403 130.216393,105.331454 128.893191,110.92932 C130.778857,110.649411 132.15392,115.058035 132.510392,116.138563 C142.793445,147.304908 136.460316,180.561207 135.151036,212.5687 C138.677754,215.114188 142.187847,217.681006 145.726439,220.207296 C159.992427,230.391854 174.384285,240.424489 189.132377,249.902283 C197.489154,244.481389 204.974582,237.372036 213.560536,232.456211 C211.106558,166.330651 197.590561,100.905692 190.243827,35.5978159 C187.518636,38.9782899 184.74381,42.3196572 181.972071,45.6614986 C178.407355,50.0295934 174.961384,54.5114531 171.446541,58.9219727 C170.719824,59.8370684 169.135769,59.4815533 168.618042,58.5593473 C161.695464,46.071526 157.294073,32.2792015 149.64264,20.2042516 Z M128.774446,111.427041 C118.561215,153.399621 127.046948,196.623139 126.886405,239.073531 C127.646134,239.74427 127.364472,241.016303 126.477924,241.476813 C126.347304,242.061991 126.192936,242.642665 126.012444,243.223577 C126.724913,243.898819 127.442131,244.569557 128.166473,245.233422 C127.615498,235.992401 132.27504,227.597506 134.975294,218.920569 C133.620655,217.900241 132.190969,216.975902 130.871478,215.915282 C129.933826,215.097651 129.821789,214.207585 129.87703,213.045991 L129.881147,212.964507 C131.15884,185.607624 136.085795,158.255956 132.975634,130.854516 C132.48973,125.697652 131.608645,120.591508 130.541367,115.527077 L130.517834,115.394263 C130.346469,114.379432 130.023532,111.644228 128.774446,111.427041 Z M281.952733,238.691945 L281.869612,238.736977 L282.054853,238.893404 C282.016855,238.829411 281.983606,238.760678 281.952733,238.691945 Z M220.861198,224.390737 C218.493191,222.075386 222.147915,218.403152 224.485048,220.773964 C226.849968,223.093818 223.193344,226.765577 220.861198,224.390737 Z M219.300869,196.852684 C218.777847,195.483373 220.232265,193.310658 221.770422,194.220936 L221.818019,194.250077 L221.839393,194.221635 C223.295203,195.079612 222.758477,196.857187 221.903515,197.916622 C220.95617,198.890733 219.77656,197.733887 219.300869,196.852684 Z M217.077778,165.147592 C212.959949,159.763672 221.611213,157.554975 220.193639,164.182961 C219.891315,165.422523 217.400526,167.230673 217.077778,165.147592 Z M210.98855,135.149469 C208.803172,132.483344 213.501425,130.189087 214.484394,133.371657 C215.047481,135.494793 212.393537,136.803799 210.98855,135.149469 Z M232.854412,69.0162771 C234.147779,69.2172616 240.69275,67.8819471 239.007525,70.6018742 C241.639858,83.7293856 249.042877,99.7455752 238.473174,111.216387 L238.378912,111.308818 C236.820093,112.863216 234.327089,116.557379 231.94174,115.034618 C226.646914,110.576933 219.824794,107.391519 215.778212,101.685976 C214.077313,97.2102789 215.525761,92.2088933 215.075718,87.5267603 C214.883352,81.6038797 213.895396,75.7355114 213.683615,69.8221112 C213.674531,69.5353291 213.985642,69.4431322 214.180383,69.5637703 C220.389544,69.0710264 226.631478,69.1802881 232.854412,69.0162771 Z M214.391749,69.9785378 C217.201011,79.105083 217.264183,88.8630228 217.189374,98.322567 C217.23331,99.2978633 217.405964,100.246614 217.915617,100.991774 C221.931325,105.717754 227.652919,108.679431 232.419569,112.604791 C234.349645,111.346505 235.877415,109.738392 237.245354,107.914363 C245.621605,96.974217 238.031444,83.2036974 238.040943,71.021619 L236.967373,71.0236932 C229.448834,71.0336139 221.858837,70.9350672 214.391749,69.9785378 Z M208.071003,103.873172 L208.143379,103.873389 C211.024363,103.880737 210.363668,108.753426 207.644889,108.085294 C205.352522,107.543745 205.702951,103.902704 208.071003,103.873172 L208.071003,103.873172 Z M202.419932,79.0017466 C200.423596,75.607289 207.010602,74.2940164 206.317133,78.2146363 L206.33218,78.0537842 C206.335182,78.0228857 206.338032,77.995165 206.340882,77.970516 L206.291009,78.3378815 L206.291009,78.3378815 C206.051383,80.0718469 202.620848,81.3142534 202.419932,79.0017466 Z M197.917317,50.907011 L197.997903,50.887546 C199.828472,50.4035716 201.180261,52.9684941 199.608081,54.1201258 C197.297376,55.8606848 195.304625,51.5860029 197.917317,50.907011 L197.917317,50.907011 Z M153.114735,11.1243974 L152.891425,10.9182526 C150.502903,8.72889612 148.711458,7.63401477 148.18208,12.0961386 C147.813496,14.2718906 148.129832,17.0162297 150.219976,18.3031942 C160.226355,28.1775059 164.01811,42.2767584 170.46571,54.4213892 C176.287525,47.3833765 181.706083,40.0571595 187.336957,32.8771778 C179.579603,28.1592562 171.745778,23.4775971 164.093869,18.5546618 C160.436533,16.1276791 156.501333,13.9185087 153.114735,11.1243974 Z M203.486236,16.9453637 C200.47677,21.8483902 197.698382,27.1514895 193.860791,31.4906691 C193.371562,31.9810428 192.863335,32.3699763 192.338483,32.6662388 C193.088475,32.4498487 194.082606,33.0103774 193.989035,33.8323282 C199.575023,39.3902133 204.141469,45.8553728 208.504387,52.3973236 C209.338687,41.5754458 207.748696,30.708536 208.364268,19.8700675 C206.946456,18.5688824 205.257907,17.6777247 203.486236,16.9453637 Z" id="ðŸ–-Ink" fill="#000000"></path>
                </g>
                <g id="Head" stroke-width="1" transform="translate(95.945717, 42.661805)">
                    <g id="head/Flat-Top">
                        <path d="M57.4822095,17.8372836 C70.9670106,17.8372836 88.3734237,26.2790656 89.8577388,34.9250481 C91.6069652,45.114112 100.973738,84.2107113 98.8586038,96.7483397 C96.7434693,109.285968 85.3454402,118.311558 67.1066123,118.311558 C48.8677843,118.311558 35.2545067,108.385309 32.128788,104.977065 C30.0449756,102.704902 27.0721932,97.5127039 23.2104409,89.4004692 C16.7001338,88.5363972 13.4293283,85.4562666 13.3980245,80.1600776 C13.3676016,74.8638885 15.4841954,71.2523403 19.7478059,69.325433 C18.22762,48.4244272 19.3818316,35.2531154 23.2104409,29.8114978 C28.9533548,21.6490714 43.9974084,17.8372836 57.4822095,17.8372836 Z" id="ðŸŽ¨-Background" fill="#FFFFFF"></path>
                        <path d="M89.0324953,33.5299745 C89.0227583,33.3477138 89.2887464,33.3263829 89.3386192,33.4875497 C92.2478643,43.0793455 94.0411467,50.5544047 95.92895,60.3881878 L96.4864483,63.2809683 C97.9763285,70.9963762 99.4815539,78.7230202 100.752597,86.4758815 L100.827209,86.9387591 C101.463913,90.951902 101.830975,95.0041167 101.032835,99.0255624 C100.287118,102.784541 98.2494589,106.230667 95.603827,108.975243 C90.4906802,114.279765 83.38476,117.592928 76.2365666,119.074241 C72.6219779,119.823192 68.8933944,120.112345 65.2099338,119.851634 C63.3739033,119.723411 61.5407226,119.46507 59.7429279,119.083721 L59.5444528,119.041371 C57.7323134,118.650936 56.123977,118.185195 55.1615199,116.483484 C54.9195182,116.054733 55.0168889,115.320002 55.5251162,115.099582 C56.4845734,114.686948 57.1899169,114.514168 58.2370076,114.632673 C59.236838,114.746201 60.2131569,115.04744 61.2011128,115.234678 C63.0891535,115.592563 65.0080679,115.772454 66.9293571,115.815353 C70.7030636,115.898306 74.4862697,115.426656 78.0937337,114.303229 C84.2919695,112.371597 90.5904258,108.676611 94.2121391,103.149537 C98.4724139,96.6476645 96.7760416,88.7566769 95.6471184,81.5762054 L95.6130891,81.358835 C94.4701713,74.0195232 93.3401634,66.6802115 92.2432708,59.3361364 L91.7752604,56.1883701 C90.5453028,47.8716882 89.3839796,41.9345871 89.0324953,33.5299745 Z M26.1001323,13.1733965 C29.1937788,11.1384649 33.038002,10.6384203 36.6716103,10.6665013 L37.1266232,10.6722265 C41.7793584,10.7429999 65.199798,11.2992201 73.0411824,11.4703757 L74.9065785,11.5095861 C77.3755548,11.5560766 82.3551199,11.6046188 84.9206573,11.6514118 L85.0687498,11.6541623 C86.3274436,11.6778633 87.5861374,11.6873437 88.8448312,11.7276354 L89.0293311,11.7342674 C89.9722102,11.7744397 90.7567648,11.9152396 91.4952129,12.5785014 C91.870743,12.9146606 92.0172566,13.4273507 91.9828291,13.915689 L91.9773164,13.9792306 L93.8463579,14.1427675 C95.115456,14.2547266 95.7865284,15.3906886 95.2823598,16.5401938 L95.257045,16.5958213 C94.3617099,18.501382 93.6777405,24.0474166 93.1980119,26.0975533 C92.9462731,27.175949 92.7441696,28.2709353 92.6254249,29.3730319 C92.5306667,30.2407256 92.5211671,31.1103154 92.0366887,31.8734877 C91.0033723,33.5017466 88.0967396,33.487526 88.0444919,31.1814184 C88.042117,31.1079453 88.0444919,31.0368423 88.0516166,30.9681094 C80.7369432,30.6481459 70.750514,30.6789572 63.4453401,31.1150556 C56.6222697,31.5227129 49.8300729,32.447052 43.1447464,33.8620018 C41.451447,34.219887 39.7628974,34.6109535 38.0862222,35.0352015 C36.7111586,35.3812361 35.022609,35.5874348 33.7924139,36.3292762 C32.4149754,37.1635515 32.4410992,38.6590848 32.5907176,40.083515 C32.7513079,41.5932689 33.0190981,40.8153973 33.3985586,42.1912624 L33.4219304,42.2782279 C33.813788,43.7713911 34.2982663,45.2479635 34.9394877,46.6510629 C35.3052214,47.4521568 35.8944326,48.2224394 35.670955,49.1444084 C35.5450857,49.6634603 35.1339915,50.2180638 34.7566209,50.5806892 C33.0369601,52.2279088 30.1303274,51.1779544 28.9618796,53.4342899 C27.7390375,55.7936791 27.708668,58.989762 27.6048893,61.6004574 L27.5986904,61.7533418 C27.5229313,63.5522479 27.5440679,65.3558943 27.6628126,67.1500602 C27.7696828,68.7851923 28.2064258,70.4042078 27.6461883,71.9755843 C27.237469,73.1179727 25.9030161,73.2246272 25.2047973,72.2955479 C25.1246446,72.1888933 25.0511713,72.0795725 24.9823736,71.969585 L24.9150602,71.8594494 L24.9105479,71.8618195 C24.9768075,71.9661039 25.0385547,72.0729954 25.0979271,72.181783 C25.1620492,72.3026582 25.0029313,72.4353838 24.9055606,72.3310994 C23.262134,70.5464139 20.8611162,70.9019289 19.0015742,72.1509717 C17.1182833,73.4213455 16.3749415,75.8341076 16.2775708,77.9982461 C16.1683257,80.3986837 16.3820662,83.2124667 17.3842714,85.4306436 C17.8070025,86.3692033 18.4099881,87.2319198 19.410056,87.5898049 C19.8638982,87.7509717 20.2958914,87.7296408 20.7684953,87.7675624 C21.2598609,87.805247 21.851447,88.0519745 22.3285632,88.0187931 C22.9488752,87.9747401 23.5057771,88.6814523 23.3295954,89.2735724 L23.3167566,89.3128678 C23.3074945,89.341309 23.2977574,89.3697502 23.2884953,89.3958213 C23.3120068,89.4171522 23.3357557,89.4432233 23.35238,89.4811449 C25.1572994,93.1619107 27.6319389,96.4373892 30.3678168,99.4758578 C31.7383681,100.995092 33.2580628,102.391081 34.8468668,103.682786 C35.6305818,104.320343 36.457045,104.958137 37.328631,105.472211 C37.6183681,105.640252 37.8841187,105.754253 38.2099542,105.846924 C38.3617099,105.889349 38.5350772,105.91068 38.6823206,105.960452 L38.8352258,106.012708 C38.8457133,106.016102 38.8556879,106.019231 38.8651874,106.022075 C39.3021679,106.071847 39.6702765,106.360999 39.815145,106.813688 C40.1927532,107.993998 39.5064088,109.036842 38.3332112,109.361546 C37.0621525,109.716288 35.8642766,109.093448 34.8567542,108.378352 L34.7898694,108.330552 C32.7355861,106.854217 30.8427956,105.19728 29.2041187,103.263278 C25.9623885,99.4450465 23.9316166,95.0248095 22.9916336,90.1352926 C22.7586565,90.6353838 22.4451705,91.0714822 21.9013198,91.3748551 C21.0558575,91.8488751 20.0465276,91.8488751 19.1203189,91.6900784 C17.2560271,91.3748551 15.6672231,90.239577 14.6056455,88.7037521 C13.5034572,87.1110447 13.092838,85.1770428 12.8434741,83.2928131 C12.5964852,81.4059763 12.4753656,79.5125032 12.7223545,77.6211632 C13.0764512,74.9050283 14.2185377,72.2197046 16.4390636,70.7312817 C14.7766378,67.1168788 14.4845259,63.0640073 14.6032706,59.1059398 C14.7481391,54.2330137 15.5912265,49.3055752 16.2395725,44.4776809 L18.0827277,30.7524303 L18.0827277,30.7524303 L18.1581356,30.1991145 C18.6029164,26.9702229 19.1443888,23.7242502 20.3552638,20.6818742 C21.5498355,17.6836974 23.3642545,14.9723026 26.1001323,13.1733965 Z M18.3437761,78.1046162 C21.3883902,76.6304139 24.6776183,77.9884813 26.3162952,80.8491923 C27.7410891,83.3363756 23.5048453,84.9803333 22.7980319,82.4165957 L22.7777031,82.3376153 C22.3122239,80.3965032 20.416821,78.7184722 18.4387718,78.4577612 C18.2749042,78.4342972 18.1535471,78.1972871 18.3437761,78.1046162 Z" id="ðŸ–-Ink" fill="#000000"></path>
                    </g>
                    <g id="face/Contempt" transform="translate(37.760814, 44.083865)" fill="#000000">
                        <path d="M45.2609284,52.1001608 C44.4772469,53.1227803 43.058194,53.905948 41.469028,54.2805009 C39.9546607,54.6374242 38.2810152,54.6228603 36.8366514,54.0736178 L36.7126641,54.0243444 C35.6327637,53.5767502 34.5961771,52.6729594 34.2025527,51.7297737 C34.0460509,51.354771 33.9931027,50.9736479 34.1002092,50.6179726 C34.1965549,50.2980312 34.4224286,50.0035656 34.7986503,49.7505867 C34.916764,49.6711713 35.0751999,49.6653907 35.2261412,49.691952 C35.4134296,49.7249093 35.5980296,49.8123596 35.7094038,49.9304559 C36.327351,50.5862182 37.2238459,51.225534 38.2849734,51.2146562 C39.1036997,51.2062779 39.7723189,50.8836417 40.4206963,50.5190279 L40.8763048,50.2586203 C41.3159025,50.0083017 41.7617164,49.7730929 42.2661183,49.6656797 C43.169024,49.4732591 44.2641583,49.8247961 44.9315283,50.404891 C45.2225249,50.6578326 45.4339354,50.9551558 45.4913877,51.2753688 C45.5396403,51.5443075 45.4718771,51.8249591 45.2609284,52.1001608 Z M40.5665861,34.2164632 C42.3599585,35.3043501 45.0925072,37.84109 43.1632513,40.538094 C40.8923326,42.9161315 37.6227224,40.1895491 36.0115152,38.956422 C34.5175283,38.0007416 32.8389503,40.45868 34.2250722,41.574598 C45.8676895,50.1769329 50.5925102,34.5009305 41.4736488,32.937375 C40.4696294,32.7650779 40.0967341,33.8799135 40.5665861,34.2164632 Z M20.3345547,17.4963646 L20.8497741,17.355382 L21.3751145,17.2138845 L21.7303572,17.1201471 C24.1705212,16.4827361 26.8619702,15.9217813 29.2817303,16.1956536 C30.1642409,16.2956718 30.8805089,16.7912598 31.0054283,17.7139398 C31.1106361,18.4925178 30.6064461,19.4969663 29.7483969,19.6353801 C26.9063613,20.0942315 23.9968787,19.9453892 21.1417812,20.4184613 C19.7199321,20.6538122 18.3090076,20.9460456 16.8926209,21.2093637 C15.8156064,21.4098742 14.7027311,21.4802662 13.6164546,21.642381 L13.866056,21.6769845 C13.9534521,21.688835 13.9316031,21.8355442 13.8453944,21.829619 C13.4873494,21.793949 13.128759,21.7884014 12.7696231,21.8134527 L12.6156743,21.8260638 C12.3812723,21.8590082 12.2430534,21.5798104 12.4520441,21.4380784 C13.7755725,20.5419435 14.8986599,19.5706764 16.3805937,18.9101294 C17.662324,18.3389353 18.9815776,17.8679964 20.3345547,17.4963646 Z M42.5490992,16.1219909 C44.4252655,14.2292288 48.4150874,14.9566126 50.6470127,15.8224102 C51.9209059,16.3168131 53.1321018,16.9418086 54.1409567,17.8768131 L54.2393041,17.9687949 L54.3908041,18.1141922 C55.071792,18.7795551 55.8311952,19.6951277 55.7231111,20.6543336 C55.7067243,20.8005688 55.6269279,20.9676609 55.4613978,20.9970501 C54.5674877,21.1551358 53.6894894,20.6844339 52.8639763,20.4012069 L52.3172607,20.2139836 C51.4962709,19.9348966 50.6700492,19.6682426 49.823637,19.4756828 C48.771084,19.2367767 47.6973944,19.0985998 46.6168176,19.1123464 C45.5246039,19.126567 44.3514063,19.434206 43.3109652,19.0014257 C42.150592,18.5191103 41.5490314,17.1311796 42.5490992,16.1219909 Z M24.0139912,31.3872366 C23.5352844,31.875086 22.9030911,32.1503405 22.0939863,31.9865975 C21.4617305,31.8587569 20.2579229,31.224302 19.2962658,30.2472338 C18.6383636,29.5787883 18.0882657,28.7435324 17.9387256,27.7759476 C17.9039966,27.551237 17.7845085,27.4071815 17.6276156,27.316461 C17.5037052,27.244812 17.3403355,27.2088163 17.1623878,27.2267966 C17.0113111,27.2420618 16.8508855,27.2966547 16.7269204,27.3690454 C16.4911062,27.5067515 16.3946679,27.70225 16.3750628,27.8482333 C16.1858781,29.2569314 16.7311233,30.654684 17.5810194,31.8332209 C18.7280055,33.4237277 20.4123995,34.5892447 21.4024212,34.8620433 C23.0966214,35.3291449 24.8818037,34.9572987 26.1979874,33.7805217 C27.2505098,32.839607 27.7899951,31.6137588 28.2905488,30.3532061 L28.3870713,30.108862 C28.4996522,29.8228315 28.6113811,29.5389044 28.7297535,29.2579881 C28.9670017,28.69508 28.8910186,28.2085152 28.6609798,27.8292719 C28.4061385,27.409139 27.9357498,27.1134007 27.4120769,27.0225683 C26.928062,26.9386146 26.4100841,27.0304418 26.0011927,27.3254945 C25.6557769,27.5747438 25.3772219,27.9696647 25.2782545,28.553651 C25.1173122,29.503245 24.7439582,30.5927796 24.0856211,31.3116558 L24.0139912,31.3872366 Z M53.064815,25.8910812 C52.6700574,25.6858068 52.3612219,25.6239155 51.9233189,25.75485 C51.6811594,25.8274398 51.441824,25.9665618 51.2544451,26.1535625 C51.0687422,26.3388905 50.9347578,26.5693605 50.882678,26.8250348 C50.7545889,27.4560327 50.4086475,28.0466876 49.9156664,28.4317367 C49.4943067,28.7608452 48.9624553,28.9352804 48.3725317,28.8368708 C47.7359591,28.7308199 47.1294691,28.3233813 46.7117586,27.8430204 C46.5954161,27.7090725 46.5000287,27.5599754 46.4077956,27.4090666 L46.3526918,27.3184106 C46.1468816,26.979322 45.9468419,26.6641308 45.6629993,26.4151087 C45.5554039,26.3203632 45.393274,26.2547421 45.2362444,26.2547421 C45.1724235,26.2547421 45.1076543,26.2651061 45.0459353,26.2843027 C44.412341,26.9189436 44.2904956,27.4003838 44.3109227,27.8779086 C44.3323435,28.3786638 44.5301667,28.8856735 44.8498503,29.3587285 C45.5997493,30.4683992 47.0235564,31.3782258 47.9843525,31.5843057 C49.3001563,31.8664975 50.6069067,31.5277451 51.6545989,30.7943214 C52.7326127,30.0396715 53.5314183,28.8680063 53.7804622,27.5475974 C53.8403738,27.2295881 53.8149148,26.8863331 53.6935596,26.5887161 C53.5749771,26.2978994 53.3683278,26.0488204 53.064815,25.8910812 Z" id="ðŸ–-Ink"></path>
                    </g>
                    <g id="facial-hair/*-None" transform="translate(29.211196, 80.109389)"></g>
                    <g id="accessories/Sunglasses" transform="translate(11.162002, 57.119417)" fill="#000000">
                        <path d="M80.2260004,3.55515041 C85.8003663,3.55515041 88.9814695,4.75148857 90.1471743,4.84468079 L90.18223,4.84718658 C90.6670881,4.878125 91.1020344,4.91858294 91.5583715,5.09469397 C93.236361,5.7396411 93.5096879,7.49599161 92.5304646,8.60287321 C92.4617764,10.8932685 92.7636243,13.5694422 92.2457293,15.8672151 C91.6068573,25.5540355 87.0420603,27.1887742 84.4473562,27.7854098 C83.1446564,28.0850365 81.6007159,28.2042685 80.2169687,27.8879826 C77.8563749,27.8001651 75.5226385,27.0626406 73.5259261,25.7784581 C70.7451219,23.9885513 68.6797212,21.2374114 68.0094761,17.9724558 C67.6918136,16.4161524 67.5433542,14.7962594 67.7162288,13.2143306 L67.7418534,12.9963674 C66.8379732,12.5648953 65.790537,12.4832655 64.7107769,12.4451874 C64.1950209,12.4268624 63.6866328,12.4104412 63.192743,12.4323361 C62.7100239,12.4861214 62.233009,12.5577557 61.7545681,12.6553307 C61.2321572,12.8126407 60.7387427,13.0722855 60.2831187,13.4835285 L60.2517455,14.0837339 C60.1661823,15.5830576 59.9689116,17.0869029 59.6646868,18.557906 C59.21548,20.7283554 58.4929463,22.8012298 56.9551854,24.3407733 C56.4346759,25.1166138 55.7905751,25.8091585 55.0086224,26.4088879 C52.1681617,28.5914747 48.3090235,29.3927799 44.7671821,29.0910113 C37.5767831,28.4786685 33.4205505,22.7821907 32.4627179,20.3473368 L32.4054948,20.1998207 C31.7135732,18.3896631 31.1621509,16.0410002 28.9757796,15.652074 L28.5107692,15.5686955 C27.5130661,15.3817981 26.5924482,15.1215991 26.0074494,14.1501326 C25.7509975,13.7260382 25.6190876,13.2517283 25.5867637,12.768137 C25.2454616,12.7943156 24.9046348,12.8193044 24.5649964,12.8435791 C21.8556138,13.4154045 5.6048037,13.9002453 4.30766994,13.9002453 C4.30766994,13.9002453 1.8142668,14.9475879 0.761550442,14.1360913 C0.0318864438,13.571822 -0.208165881,12.8197804 0.193505831,11.9677838 C0.799569565,10.6858823 3.59565333,9.91481014 4.83722157,9.6706605 C4.83722157,9.6706605 24.8729408,9.83673087 26.3150016,9.56386825 C27.2072357,8.64571103 28.8032272,8.77136863 30.1368248,8.62619603 C31.2408278,7.84059805 32.7852437,7.31440687 34.0052324,6.96218481 C34.253841,6.8681796 34.5000729,6.77726823 34.7394122,6.6915926 C36.9759393,5.8967131 39.300644,5.47571255 41.6607625,5.24962407 C44.0945603,5.01877583 46.5354884,5.12325251 48.9550257,5.45405566 C49.9746539,5.59208862 50.984775,5.77057953 51.9877659,6.00404563 C53.783702,6.24032297 55.5691933,6.62950286 57.3657821,7.09118598 L57.7252542,7.18446549 C59.6171517,7.67948026 61.5613379,8.10762045 63.5197846,7.77205755 C65.1141915,7.50065221 66.6474795,6.88827966 68.1175568,6.22609166 L68.3089473,6.13946073 C71.5413351,4.66655378 76.5893265,3.55515041 80.2260004,3.55515041 Z M51.7933473,8.94057801 C50.6006913,8.67879135 50.0913526,10.5139158 51.2878114,10.7764165 C52.135051,10.9623096 52.8531173,11.3886967 53.3382557,12.1110576 L53.3893388,12.1895885 C54.0403322,13.2234078 55.6864732,12.2690764 55.0309639,11.2285934 C54.2934566,10.0576931 53.1473851,9.23758687 51.7933473,8.94057801 Z M86.7247635,7.80275798 C86.3043154,7.50717704 85.6680579,7.72660186 85.4239651,8.14427058 C85.155315,8.60420134 85.3313977,9.11628636 85.7251725,9.41716603 L85.7652672,9.44654023 C86.126458,9.70059704 86.47823,10.1559985 86.522406,10.622612 L86.5263044,10.6809833 C86.5736018,11.9020991 88.475244,11.9082868 88.4277089,10.6809833 C88.3813622,9.4803345 87.6847351,8.47721562 86.7247635,7.80275798 Z" id="ðŸ–-Ink"></path>
                    </g>
                </g>
            </g>
        </g>
    </g>
</svg>