<?xml version="1.0" encoding="UTF-8"?>
<svg width="198px" height="669px" viewBox="0 0 198 669" version="1.1" xmlns="http://www.w3.org/2000/svg" xmlns:xlink="http://www.w3.org/1999/xlink">
    <!-- Generator: Sketch 62 (91390) - https://sketch.com -->
    <title>peep-standing-21</title>
    <desc>Created with Sketch.</desc>
    <g id="Introduction" stroke="none" stroke-width="1" fill="none" fill-rule="evenodd">
        <g id="variations-standing" transform="translate(-2426.000000, -1713.000000)">
            <g id="a-person/standing" transform="translate(2381.000000, 1658.000000)">
                <g id="pose/standing/polka_dots" transform="translate(-28.736217, 150.264357)">
                    <path d="M264.541252,181.41252 C262.067411,159.042017 258.32481,136.09547 248.873492,115.375406 C245.62592,88.5804231 251.097389,50.205039 226.232173,32.1362497 C226.550151,28.9282036 220.791185,26.1636282 218.121533,24.4512205 C213.784934,21.6149795 207.919406,16.0424724 202.786154,19.1642316 C201.16682,18.670867 197.173428,20.6905389 195.33503,16.3102609 C193.451918,11.8234442 193.725494,2.82682391 192.223972,2.00553272 C192.886508,-4.47790528 163.69356,-8.81591667 156.07432,0.34843297 C152.456342,7.3776527 156.612006,9.61503042 148.454303,18.855204 C144.851932,19.0761825 141.415621,19.9879232 138.093187,21.23803 C135.349893,21.6168502 132.62123,22.0775143 129.904759,22.5568856 C95.258298,25.7581503 92.638879,51.354004 89.5680968,78.8406851 C86.9389239,115.763263 75.5182864,152.547876 80.4557278,189.761585 C77.7268209,203.06823 77.5473485,217.267207 80.805894,230.447345 C70.1216786,246.025976 77.8663022,254.646241 84.5301899,269.458813 C85.6579885,272.123416 86.6394781,274.867992 87.1386357,277.711014 C87.0069575,279.913784 87.0215885,282.118891 87.4093073,284.305292 C88.540276,289.287012 96.8584309,288.590404 97.2290804,283.556771 C97.8796678,280.251214 97.6780052,276.821722 98.1825274,273.499562 C98.1532656,273.672603 98.1020575,274.004656 98.1020575,274.030378 C99.3220308,265.670611 101.288424,262.429827 106.720146,256.050682 C113.694209,245.985054 109.405648,233.336668 110.997246,222.071209 C111.433491,218.306858 112.010436,214.592549 112.396448,210.821184 C114.748121,212.202007 117.304383,213.354135 119.975254,214.073893 C118.292457,227.037262 121.219613,240.061896 124.474013,252.601313 C133.282303,284.903688 144.9602,318.073115 139.887911,351.970978 C139.890349,351.954609 134.357243,379.675622 129.987237,393.358749 C124.703287,410.711521 120.449052,428.094225 112.973637,444.733085 C108.969891,456.709416 100.499331,468.070983 100.828282,480.964433 C97.9038088,485.281581 103.16947,490.46908 107.80966,490.455985 C107.80966,494.353141 106.778995,499.973087 104.717663,507.315823 C104.231917,511.399365 102.139698,516.599023 105.302899,520.067099 C101.002634,530.999336 99.4917492,542.829284 98.3115232,554.399436 C97.8606476,559.887652 97.3436891,566.502976 103.230188,569.615381 C108.714581,571.983475 115.099263,570.941954 120.955525,571.647915 C126.621341,571.655866 132.484431,573.138643 138.05661,571.858371 C144.456653,570.039099 145.745148,563.120017 144.54005,557.58667 C143.762661,551.824861 142.83116,546.081759 141.811874,540.355026 C138.787667,527.885995 137.941269,514.049703 134.067251,502.054431 C136.237501,501.648953 138.415554,500.557156 139.887911,498.965409 C143.628788,498.842644 146.386957,496.063693 147.303339,492.778012 C147.9649,490.660127 150.813048,490.224951 152.731403,489.551025 C153.090104,491.379651 154.138408,492.917381 154.991877,494.580916 C154.263015,498.112362 156.69589,502.241503 160.71256,502.323347 C161.292919,502.879885 161.831824,503.448115 162.424375,503.978931 C157.856852,510.688258 154.469798,518.263961 153.611696,526.254496 C152.578023,532.383433 151.496311,542.204464 159.624996,544.019294 C162.693828,544.423369 165.996266,545.207199 169.003404,544.091784 C172.356075,545.593268 175.92065,546.313261 179.530337,546.956086 C195.001295,549.561995 209.922471,549.343121 225.522426,551.092943 C229.638098,551.664681 246.128735,553.353705 248.873492,551.092943 C252.22153,551.776456 250.196917,549.284661 251.605628,546.956086 C252.727575,545.207199 255.723192,541.858615 253.789475,540.888181 C249.732082,539.140697 246.135563,535.703021 242.423459,533.751629 C225.075112,523.897158 187.656583,507.114955 187.916282,506.642365 C187.865074,506.976756 188.143151,498.540265 189.53016,496.301719 C191.481191,494.371606 195.369585,494.710697 197.406207,492.864533 C198.698603,492.924864 208.395398,490.140769 207.565338,485.477539 C206.501671,481.755279 209.976266,477.193245 207.565338,474.050908 C215.547957,401.277438 234.123349,330.696973 244.37449,258.311677 C244.601269,258.112913 244.82561,257.911811 245.052389,257.713048 C250.338533,258.595325 254.444939,253.29722 256.049949,249.124351 C256.822948,248.340755 257.566686,247.534008 258.249461,246.659448 C262.556798,241.069043 262.634098,233.787744 263.12399,227.136176 C264.189607,226.355151 264.874821,225.141524 264.933344,223.705748 C265.103794,219.430458 265.285461,215.154934 265.464934,210.881982 C265.467372,210.881982 265.467372,210.881982 265.467372,210.879644 C266.793907,208.754041 266.974355,206.361862 266.59639,203.925253 C266.735628,196.044857 267.952203,188.662719 264.541252,181.41252 Z" id="ðŸŽ¨-Background" fill="#FFFFFF"></path>
                    <path d="M155.899806,-0.428667228 C155.97966,-1.12643512 156.912489,-1.11587355 157.001455,-0.428667228 C157.982244,7.87531052 154.696721,17.4086553 146.616123,21.2784155 C152.675193,26.6197548 156.939587,33.7605513 164.210374,37.7929597 C179.4656,47.7116846 201.511291,38.4308787 204.903766,20.9383329 C201.138639,20.0765085 194.123,20.1495007 192.979865,15.7591724 C192.427362,15.1940109 192.142718,10.3507084 192.176769,6.77878459 C192.142238,6.11457902 192.120896,5.44990406 192.098354,4.79015782 C192.040562,4.25550755 192.024256,3.71053041 192.030011,3.16250214 C192.041761,1.97326907 193.825646,1.99650453 193.900464,3.16250214 C193.931399,3.64058933 193.952021,4.12454405 193.971445,4.61084579 C193.984395,4.73922757 194.00214,4.86713995 194.017967,4.99528703 C194.263284,5.88480614 194.433064,6.81445923 194.633538,7.65868093 C194.741209,8.11306325 194.852957,8.57260901 194.972618,9.03145066 C195.144555,10.2342964 195.452461,11.4094474 195.979545,12.5221677 C197.380946,15.4808163 200.836729,18.0212265 204.243352,18.0486866 C204.973068,18.0545541 205.698708,17.9475302 206.429144,17.9658369 C207.618561,17.9961134 208.590237,18.4664555 209.6516,18.9454815 C210.609847,19.3778018 211.509823,19.67024 212.434259,19.6688318 C250.569925,32.5767164 245.319227,79.8280185 251.127464,111.774428 C257.047688,143.500688 269.277096,174.087941 271.077288,206.51103 C271.616841,209.873131 267.896078,211.12057 265.588226,212.711377 C264.972895,221.170493 268.539466,229.732408 266.065911,238.10351 C263.777963,244.948113 254.553031,261.404452 245.7384,258.812407 C235.742985,334.626426 212.512194,404.888257 210.314412,481.625123 C212.539772,488.041395 206.150255,492.699753 200.256888,493.638325 L199.453459,494.10047 C196.766663,495.63942 193.990433,497.145642 191.0509,498.09789 C190.977281,498.140371 190.903902,498.183556 190.829084,498.224394 C190.685922,498.302315 190.532449,498.349021 190.375619,498.37296 C190.540123,500.336709 191.161929,502.181463 191.963825,503.975053 C204.191555,506.790299 214.931074,514.182226 226.429326,519.015671 C233.846293,523.569821 256.487775,530.148705 258.207035,538.148379 L258.252692,538.391228 C258.943801,541.975591 257.012677,546.397369 252.923579,546.736279 C255.058054,548.313708 253.66001,551.499078 251.334892,552.113527 C248.540483,552.855888 245.507951,552.539511 242.631769,552.769988 C215.499884,553.620312 188.128917,551.227529 161.682864,545.156033 C159.461821,544.643914 157.148694,543.975014 155.276802,542.651297 C143.799892,533.584539 155.745854,514.395335 158.566881,502.633264 C157.542448,502.471555 156.529526,502.247649 155.534349,501.952864 L155.311883,501.886345 C154.344794,501.594156 153.344976,501.243713 152.5939,500.561788 C152.563205,500.533858 152.537307,500.502408 152.508051,500.473305 C147.673169,500.405007 152.597497,489.776779 153.032258,486.933838 C151.067322,491.110354 149.463049,495.56898 147.109635,499.54553 C145.489295,501.998161 141.935913,500.296809 139.549406,500.124538 C140.34315,514.662426 143.819076,528.836291 147.389244,542.921439 C150.288446,554.617324 155.265531,568.67243 138.841272,572.22769 C127.528626,575.186104 100.571557,574.055781 95.7496238,561.692169 C94.3275996,551.625817 97.4419044,541.424042 98.9821508,531.503205 L99.2523366,530.092158 C101.090959,520.447608 102.790782,510.758383 105.457277,501.294057 C105.824173,499.753006 106.27596,498.242466 106.762038,496.742723 C106.825345,495.867755 106.871387,494.991379 106.814554,494.112891 C106.740216,492.962149 106.522236,491.835112 106.291067,490.706667 C106.261332,490.563029 106.234714,490.396626 106.207376,490.218487 C101.443955,488.024966 97.90688,485.543935 97.4505373,482.866459 C96.9834497,480.326334 97.9275843,477.750989 98.6276065,475.326418 L98.6684902,475.183972 C114.009085,421.409842 143.189596,372.951791 138.216588,315.591421 C136.387381,287.378879 123.002609,261.431208 120.744156,233.292362 C119.44515,227.679473 118.27204,222.008378 118.083316,216.221575 C117.2807,216.033109 116.472328,215.861542 115.674029,215.65477 C115.205696,218.156924 114.613386,220.637955 113.642428,222.973236 C113.268098,227.590521 113.50742,232.258266 114.312434,236.824386 C114.497801,237.876319 113.984625,238.79189 113.115824,239.128217 C115.203298,245.621942 115.615037,253.765853 110.231729,258.795978 L109.785647,259.090927 C105.108929,262.198629 104.620294,263.07812 103.532388,268.868667 L99.9517367,283.502567 C99.502685,285.313797 98.9648461,287.158865 97.6711549,288.581021 C94.2379138,292.354318 88.7733124,289.891594 87.0028564,285.869748 C85.3868326,281.749091 85.3990625,277.213248 84.2192381,272.969843 C83.3223797,268.586556 80.8353962,264.84283 78.3704744,261.167638 C72.8603106,252.730819 72.4205143,240.983299 78.5644739,232.720159 C79.1011502,231.352788 79.5925039,230.007009 80.1625126,228.662403 C78.0364306,226.172923 79.4047391,222.251294 79.160621,219.204632 C79.1565444,216.689335 79.1102626,214.174273 79.0335261,211.660149 C78.5850969,196.810813 77.0530038,182.053949 76.9973698,167.203204 C76.4014625,147.187851 81.6780594,127.79962 84.7372098,108.168708 C87.3675948,88.7830585 87.2275506,69.0186011 91.5310321,49.8587349 C99.5399296,12.2510874 144.481648,26.5887742 152.084801,11.7687756 C154.382341,8.06049009 155.410851,3.8403204 155.899806,-0.428667228 Z M101.003439,557.08216 C100.323602,562.083182 103.842212,563.283916 107.876876,564.804078 C118.16413,568.57057 130.041988,569.464079 140.498302,565.872909 C142.351249,565.090414 143.676873,563.919722 144.335369,562.204054 C129.823768,563.526832 114.585569,562.564555 101.003439,557.08216 Z M156.328332,534.812967 C157.238859,539.304921 163.036305,539.833469 166.918215,540.588505 C176.18871,542.525262 185.549609,544.08063 194.962786,545.180207 C213.204262,547.376545 231.657483,547.75418 249.988166,546.920754 C250.483449,546.707266 250.801142,546.296963 251.426022,546.297641 L251.502514,546.299734 C251.537765,546.299734 251.571097,546.303019 251.605628,546.304193 C251.30084,546.103523 251.039936,545.839953 250.846416,545.528739 C219.33863,542.071349 187.639721,539.717527 156.328332,534.812967 Z M187.131341,496.301719 C179.563919,497.613231 171.839666,498.305132 164.198864,497.112847 C163.68353,503.424912 161.235634,509.555788 159.310026,515.595599 C169.867057,518.380803 176.854159,506.690081 186.297311,504.463702 C185.762313,501.670987 185.951997,498.736513 187.131341,496.301719 Z M109.132957,491.474845 C109.158376,491.519204 109.171805,491.572012 109.166769,491.634912 C109.13008,498.989991 108.383097,506.318314 107.297515,513.59735 C114.005248,506.380275 125.231805,504.553123 134.4776,507.554018 L134.437081,507.084474 C134.199501,504.419779 133.844231,501.690989 134.279524,499.050544 L133.855796,498.93243 C129.086801,497.618441 117.873655,494.983777 109.132957,491.474845 Z M247.29903,214.104097 C205.994144,225.173329 162.026021,225.867576 120.289732,216.715152 C122.371211,223.378566 123.934238,230.16332 125.038525,237.040077 C127.405128,254.728129 133.924378,271.443813 138.315866,288.677014 C143.382536,309.016173 144.589784,326.142621 142.068142,346.918315 L141.990588,347.547837 C136.438459,394.137045 113.701899,436.668263 103.019932,481.898785 C115.590578,489.517199 131.119657,492.49392 145.533658,495.644085 C154.592647,476.99047 162.247358,457.860176 167.26353,437.773943 C185.334267,374.727457 209.145618,315.363995 203.856552,248.799332 C202.677447,248.026694 203.061129,246.397161 203.709073,245.356025 C203.485099,240.55403 203.175275,235.756494 202.668094,230.980551 C202.651068,230.819076 202.921804,230.787157 202.955137,230.942529 C203.793724,235.033144 204.674275,239.113196 205.410946,243.223761 C210.489227,238.063846 213.773312,231.614949 218.239139,226.016612 C218.874853,230.196882 210.169092,246.388712 206.338499,248.894386 C214.50063,298.94826 200.908429,344.76897 186.227769,392.373263 C176.348897,426.554267 166.750594,460.835254 156.558302,494.922142 C156.6818,494.923316 156.805537,494.925663 156.929275,494.929653 C156.316342,493.80285 169.288176,494.580417 170.353375,494.015021 C179.906356,493.111889 189.256224,490.852417 198.548061,488.586138 L199.688096,488.291847 C202.003192,487.684696 204.690937,486.810962 205.107357,484.339916 L205.113475,484.028315 C205.116138,483.936277 205.120307,483.862713 205.12798,483.856196 L205.061244,483.577956 C205.04678,483.514092 205.037061,483.463943 205.039014,483.448754 L204.946674,483.311622 C204.840278,483.15826 204.740437,483.022317 204.882183,483.178143 C203.832571,482.033034 203.73737,480.262914 204.948848,479.168501 C207.219291,395.909512 234.074445,319.708087 244.020461,237.380629 C245.006285,229.607312 246.20961,221.863567 247.29903,214.104097 Z M82.7674785,230.223873 C77.9915877,236.146568 77.171226,244.412524 79.054149,251.631007 C80.0428515,255.213492 82.0418386,258.229878 84.1029343,261.302122 C87.7169859,266.423546 89.4025521,272.374405 90.3219518,278.472657 L90.3478507,278.58829 C90.7672458,280.54865 91.0274629,285.957075 93.8012349,285.348475 C94.529684,284.880605 94.8786754,282.825611 95.1349405,281.751109 L98.3368444,268.663538 C99.263678,264.87428 99.8195384,260.371295 103.103623,257.74827 L103.49169,257.501045 C106.174302,255.778631 108.791143,253.780593 109.212092,250.424171 C110.136288,246.309852 108.417869,242.326731 107.775919,238.327181 C99.2114013,236.371178 90.8497554,233.610148 82.7674785,230.223873 Z M264.541252,213.313856 L264.254754,213.455058 C260.960436,215.093755 251.131562,220.397297 248.596836,218.360645 C248.656787,230.483453 247.684151,242.546646 246.259249,254.571583 C246.623508,254.49155 246.999277,254.500938 247.335959,254.624157 C254.48229,252.649377 262.24659,239.162484 262.845854,232.231745 C263.33481,225.923201 262.079688,219.342637 264.541252,213.313856 Z M147.052082,27.5113862 L146.688073,27.0305658 C142.819355,21.949025 140.648458,20.1343085 133.958429,22.8455182 C134.857736,23.9564293 135.28112,25.4451562 134.89765,26.9867029 L134.872074,27.0851681 C132.761339,35.7529333 121.934292,40.7750784 114.009325,36.0589842 C111.240575,36.7783447 108.353602,34.7915955 108.242094,31.9758803 C100.400098,36.5835423 96.7766945,45.0252899 95.3062304,53.5038857 C100.454054,50.7991843 107.37641,53.3806673 109.430791,58.7595589 C113.934027,68.5898012 100.810639,78.8162199 92.8077364,70.538294 C91.0737302,87.1194935 90.2598432,103.827667 87.1011751,120.236126 C89.4421194,116.393356 95.0235042,115.489051 98.3517121,118.651186 C109.249501,128.040658 96.7153053,149.371984 83.5415585,139.202832 C81.9449587,148.336715 81.3816645,157.600388 81.4564826,166.84059 C85.6779519,165.217159 87.988921,172.499246 88.294908,175.581348 C88.6771519,179.290807 86.7582586,187.068583 82.2614969,187.507475 L82.6313429,193.43991 C83.259666,203.607344 83.8179773,213.765057 83.6782454,223.957809 C83.9043785,224.014372 84.0969392,224.117172 84.258086,224.250482 C84.2698363,224.544798 84.3089239,224.839349 84.3650375,225.130613 C84.4204317,225.419062 84.6043596,225.572322 84.8211404,225.620435 L84.8285742,225.631701 C84.8187424,225.835657 84.7786955,226.040082 84.7019589,226.233007 C92.955694,229.682182 101.476089,232.530051 110.154513,234.772155 C109.941329,231.888846 109.995284,229.013986 110.295756,226.165178 C107.014549,223.051157 111.050412,211.746284 111.437452,207.352435 C112.953718,198.548778 114.107644,189.690435 115.12776,180.819888 C112.081799,180.559838 110.522129,177.385734 109.721191,174.802608 C108.677094,171.958494 108.047375,168.921455 108.782607,165.930652 C109.52839,162.369994 113.525405,158.967525 117.294848,160.221535 L117.532232,157.83638 C119.024717,142.728962 120.328915,127.596603 122.563292,112.573118 C115.265886,116.636742 108.375184,107.799757 110.137726,100.940367 C110.65378,98.0284245 112.430471,95.2068417 115.051983,93.6941898 C117.370865,92.3641357 122.163782,91.0465209 123.684125,93.9727806 C124.396336,94.0638448 125.063704,94.4104991 125.567768,94.9223833 C127.144224,86.7747168 129.061678,78.564385 132.112676,70.8419979 C122.46881,64.7963191 124.272838,49.5740419 136.965543,49.5538575 C154.08187,51.0169874 149.528515,75.9361964 133.019846,71.2499093 C127.834613,102.436121 124.846444,133.880035 122.194477,165.354225 C124.190347,168.600618 123.874288,173.417633 121.135513,176.15003 C119.944417,187.53564 118.499372,198.897779 116.601102,210.191621 C129.157359,212.984805 141.868289,215.294973 154.717344,216.359345 C155.335073,212.393122 159.658458,210.276583 163.394569,209.958093 C165.868603,209.69288 168.559898,210.629809 170.923144,211.078324 C173.778703,212.169451 176.114851,214.676299 177.157988,217.410573 C189.15287,217.483565 201.154945,216.726653 213.03784,215.175744 C211.837632,209.210568 220.537878,204.663224 225.834858,205.591469 C227.954705,205.851049 230.022755,206.651851 231.611441,208.080715 C233.162958,208.409532 234.621432,209.747096 235.006554,211.35668 C239.213635,210.358024 243.522872,209.597591 247.587511,208.114042 C251.575893,206.808632 252.879215,203.531963 251.84591,199.659151 C240.565877,204.167769 230.994911,186.28069 241.758411,179.810201 C243.136312,178.792535 246.007697,178.134197 246.81487,180.05875 C246.952516,180.08222 247.089203,180.111323 247.225171,180.144182 C246.329511,176.463356 245.428576,172.783939 244.527641,169.104522 C239.355838,168.611414 237.629265,161.03994 241.924114,158.379832 C240.462762,152.275947 239.045534,146.160327 237.714875,140.027104 C230.627662,141.48513 224.752968,132.688831 226.252839,126.333968 L226.300553,126.142157 C227.147293,122.687819 229.723243,119.290982 233.528656,118.717137 C232.629639,113.526711 231.826304,108.318447 231.149823,103.09352 C230.169514,102.052149 229.730677,100.499598 230.112201,99.1256545 C230.388692,89.081599 228.347021,78.7399418 229.17002,68.5524837 C221.649119,77.6722842 205.978557,71.4646613 209.558077,59.4308055 C209.34873,48.2829483 225.230797,44.3319814 230.586529,54.1873368 C231.160135,52.0851144 231.897285,49.9934537 232.257947,47.8259843 C232.31275,47.5770329 232.697785,47.6272839 232.720702,47.8607835 L232.721723,47.8874761 C233.519783,62.1434867 232.932509,76.4926739 234.466041,90.7331942 C240.197062,91.0141321 242.538246,104.650765 236.312274,105.629706 C238.666648,121.483799 242.203243,137.131121 246.046785,152.704747 C252.725502,150.993772 255.307927,165.31456 249.809514,167.723068 C251.409471,174.05391 253.001754,180.384516 254.555909,186.726154 L254.585884,186.712541 C255.393296,185.328271 257.545277,185.48247 258.928933,185.746509 C263.499314,187.426503 261.567231,195.677908 256.591346,195.172595 C259.305661,203.32167 257.584844,210.882582 248.528973,213.682338 L248.533769,213.941683 C248.814097,213.723176 249.155095,213.545742 249.567554,213.430268 C255.226634,211.845563 260.510905,209.383074 265.387033,206.190897 C263.952539,182.661591 257.124185,159.85235 251.599154,137.028791 C245.249444,136.019105 243.224559,125.87272 248.177663,122.13627 C244.748499,106.98276 243.760995,91.4870558 242.083342,76.0979058 C237.509844,75.1034751 236.354479,67.7826624 240.483385,65.5403232 C237.866909,46.4290403 228.015615,30.319591 209.634334,22.1268618 C209.038427,24.8470535 208.049245,27.4881508 206.725779,29.9602628 C206.849757,29.9670692 206.969657,29.9820901 207.08692,30.0015703 C207.117615,30.0564905 207.154784,30.1107066 207.205382,30.1625756 C208.201039,31.1783642 208.838912,32.3215958 209.243457,33.54533 C209.282545,33.8081958 209.325949,34.0708269 209.370552,34.3332233 C209.325949,34.4407166 209.27631,34.5470364 209.219237,34.651244 C211.188729,42.1189799 201.958041,45.9364016 195.725595,44.2657955 C194.759434,44.0763913 194.128036,43.5363429 193.791115,42.8535959 C182.756879,48.7711277 168.356066,47.524158 158.415806,39.6996756 C151.19106,43.5483127 141.888672,34.5606491 147.052082,27.5113862 Z M95.2736653,194.942705 C105.831415,193.394144 109.2848,210.316365 100.775436,215.014856 C98.0318646,216.639696 94.2590643,216.780282 91.557698,214.985284 C84.3648457,210.641661 86.3655114,195.835041 95.2736653,194.942705 Z M135.461291,184.817062 C148.89834,184.7598 150.047709,205.318253 138.327401,209.019967 C129.611568,211.528458 121.073668,201.898181 125.543572,193.868335 C125.95651,188.872946 130.291645,184.890294 135.461291,184.817062 Z M177.330022,186.68264 C178.029044,181.372047 183.613067,176.298502 189.233299,177.760458 C194.383281,179.054368 195.72617,185.040198 196.639335,189.473242 C198.715778,198.651953 188.257067,207.958106 179.444833,202.903103 C173.815728,199.554381 172.992728,191.3586 177.330022,186.68264 Z M207.340199,155.689565 C209.223602,152.710028 213.442913,151.397576 216.887424,152.435896 C226.334893,155.43327 225.21262,170.479991 217.610427,174.964904 C204.551065,181.75576 194.135997,162.232341 207.340199,155.689565 Z M145.809598,164.48029 C145.58874,155.538628 154.875062,147.399176 163.598329,152.481874 C177.717374,161.882378 163.25805,183.44864 149.711411,171.361507 C147.297088,169.813649 145.870507,167.301403 145.809598,164.48029 Z M128.244626,141.665744 C121.710029,131.554564 132.93275,116.565346 143.643013,126.253359 C147.316296,129.999196 147.152272,136.868209 145.02571,141.320968 C141.56657,147.269949 131.959874,147.409362 128.244626,141.665744 Z M175.694119,122.704224 C180.793742,117.840268 189.704534,117.789338 193.57925,124.207254 C198.172172,132.124208 192.690784,145.669308 182.337585,145.025521 C171.58032,144.267435 168.633397,129.24395 175.694119,122.704224 Z M148.975436,106.895381 C140.792442,98.5674636 149.677336,85.208952 160.775119,88.4257723 C178.912521,95.0560928 163.171697,120.005109 148.975436,106.895381 Z M193.643876,105.016477 C186.355343,91.8077052 204.061102,79.9310995 213.071892,92.6448858 C219.983217,104.159816 201.324245,117.452377 193.643876,105.016477 Z M169.871014,67.4412889 C163.564469,56.4316709 174.585276,44.1980841 186.164581,50.6598889 C202.641596,62.0283656 181.550556,83.8924637 169.871014,67.4412889 Z" id="ðŸ–-Ink" fill="#000000"></path>
                </g>
                <g id="Head" stroke-width="1" transform="translate(95.945717, 42.661805)">
                    <g id="head/Short-5">
                        <path d="M57.4822095,17.8372836 C70.9670106,17.8372836 84.9147304,28.2685678 89.8577388,34.9250481 C94.0135843,40.5214988 96.2511644,65.8283862 96.2511644,82.9309955 C96.2511644,86.5079131 98.2290813,93.2506395 97.6518711,96.6720988 C95.5367366,109.209727 86.321546,119.72461 68.082718,119.72461 C49.84389,119.72461 36.7669057,112.509684 23.2104409,93.1384275 C16.6327812,93.1384275 13.4449802,88.1043611 13.3980245,80.1600776 C13.3676016,74.8638885 15.4841954,71.2523403 19.7478059,69.325433 C18.22762,48.4244272 19.3818316,35.2531154 23.2104409,29.8114978 C28.9533548,21.6490714 43.9974084,17.8372836 57.4822095,17.8372836 Z" id="ðŸŽ¨-Background" fill="#FFFFFF"></path>
                        <path d="M51.8074809,13.4043154 C60.3214758,12.543969 68.6644784,13.2668496 77.0549788,14.7626199 C77.6962002,14.8785178 78.0595589,15.2982625 78.1946904,15.8028569 C82.1467515,15.9829845 86.1033249,16.2723737 90.0501612,16.4880529 C91.4824597,16.5662662 92.294436,17.9786089 91.6413401,19.2539599 C91.5109584,19.5073236 91.375352,19.753814 91.2376081,20.0003045 L91.4106572,19.9433692 C92.5979798,19.5632381 93.8805393,19.3758271 95.0374385,19.9792106 C96.5098728,20.7471231 97.0872095,22.4415077 96.761849,24.0010337 C96.6784902,24.3992106 96.538609,24.7807967 96.3794911,25.1531395 C96.7024767,25.1318086 97.0278372,25.1389189 97.3508227,25.1815807 C99.070246,25.4091103 100.347939,26.724516 100.438185,28.4760201 C100.571179,31.1208149 98.8636302,33.8040055 96.852095,35.6974786 C97.1439695,36.297351 97.255827,37.0036408 97.1344699,37.7194111 C96.8922307,39.134361 95.8477523,39.9816718 94.6370314,40.5343792 C95.1419338,42.1344339 95.3806107,43.8072507 95.2397795,45.516804 C95.1927566,46.0875242 94.6926039,46.5589371 94.164665,46.674598 C96.1325021,52.0817448 97.1285327,57.8870684 97.8448007,63.5437867 C98.3554029,67.568454 98.6071416,71.6165852 98.6377778,75.6715898 C98.652766,77.5023606 98.6225315,79.3351913 98.5455733,81.1662534 L98.5145208,81.8528113 C98.419525,83.832082 98.4147752,85.910423 98.0585411,87.8683628 C99.2744869,89.9324831 99.763715,92.4947985 99.9703308,94.8077794 C100.226819,97.6708605 99.8207125,100.624005 98.9156404,103.347488 C95.5005428,113.638226 85.1937405,120.132301 74.8413401,121.820049 C65.2588804,123.381945 54.1705004,121.279666 48.5705004,112.593012 C48.4826293,112.455546 48.670246,112.342018 48.7794911,112.432082 C52.7859372,115.683623 57.4333673,117.134124 62.4826293,117.840414 C71.2127396,119.058882 81.025564,116.991918 88.0315013,111.512483 C91.3943511,108.881672 93.8191179,105.05159 94.8856828,100.929748 C95.4295335,98.8229663 95.6171501,96.6256463 95.4031722,94.4572416 C95.1846819,92.2577885 94.208838,90.3806691 93.5937405,88.3020912 C93.3871247,87.6003045 93.6056149,86.9485269 94.0354707,86.4842242 C94.1563528,84.7964758 94.4415776,83.0947438 94.5505852,81.4122097 C94.6717048,79.4993017 94.745564,77.5866308 94.7716879,75.6715898 C94.8215606,71.6993017 94.6553181,67.7199034 94.320458,63.764443 C93.7077354,56.5211796 92.080933,49.4537776 91.1262256,42.2721367 C90.7726831,42.5885372 90.2660153,42.7184577 89.7349362,42.4420274 L89.6799152,42.4119727 L89.3901781,42.2463026 C89.3735539,42.2463026 89.3545547,42.2486727 89.337693,42.2508058 C87.354894,42.443021 85.2982358,42.1680893 83.3983206,41.5776974 C81.4102969,40.9617083 79.5652417,40.0136682 77.9168278,38.7504047 C77.6035793,40.3357648 77.4727226,41.9379526 77.4705852,43.554361 C77.4682103,44.5640237 76.3971332,45.0880529 75.5469211,44.6566946 C71.7779644,42.7461568 68.1776251,40.5445706 64.7601527,38.070186 C64.360933,40.1108423 63.9621883,42.1512616 63.5605937,44.1942881 C63.4064631,44.9813984 62.4016455,45.2989918 61.7580492,44.924516 C59.198151,43.4382261 56.9871247,41.4926108 55.186955,39.1791559 C54.8275544,39.8650629 54.4670983,40.5508646 54.1041793,41.2351564 L53.5577778,42.2602862 C53.0186768,43.2675789 52.2967091,44.381763 51.1163868,44.7038596 C49.8671925,45.0451541 48.8243766,44.2371869 48.4042578,43.1087821 C48.2760136,42.7582443 48.1572689,42.3977521 48.0480237,42.0351267 C46.9838338,44.4599763 45.7823749,46.8300766 44.4239355,49.0911522 C42.3862765,52.4825287 39.9398982,55.5044066 37.5011196,58.6044977 C36.7601527,59.5456645 35.4919593,58.6471595 35.3898388,57.7325378 C35.3304665,57.1945251 35.2805937,56.6541422 35.2376081,56.1158924 C33.8164716,58.9780255 32.3335878,61.8133765 30.7179474,64.566485 L30.9492621,65.4711522 L30.9492621,65.4711522 C31.6158948,68.1441513 32.1694826,70.8361112 32.7712807,73.5233309 C32.9655471,74.3903136 32.5038677,75.629876 31.488838,75.7775333 C30.2762171,75.9538687 29.1289059,76.5722279 27.8868363,76.1467949 C26.5324343,75.6827293 26.2647837,74.5145068 25.6254623,73.407196 C25.4979304,73.1865397 25.3494996,72.9838961 25.1899067,72.7914439 L25.149296,72.8440602 L25.149296,72.8440602 C25.0495505,72.9746527 24.8120611,72.8324467 24.8714334,72.6831304 L24.9410178,72.5105871 L24.9410178,72.5105871 C24.3917048,71.9287274 23.7343342,71.4433309 23.1299237,70.9211978 C21.6935878,70.6796846 20.0779474,70.9441878 19.0883291,71.5265214 C16.8345547,72.8535406 15.7993384,75.5886363 15.7779644,78.1035497 C15.7518405,81.0472142 16.6659372,84.3558742 18.2096183,86.8729207 C18.8890755,87.9797575 19.8200339,88.9797028 21.0499915,89.4705506 C22.2709245,89.9585542 23.5937405,89.8071048 24.83581,90.2666673 C25.6575233,90.5726472 26.1633757,91.4827657 25.6670229,92.3073236 C25.6337744,92.364443 25.5957761,92.4163482 25.5599152,92.4710975 L25.9293343,92.9604004 C26.1834304,93.2993422 26.448363,93.6622309 26.695352,94.0398669 C27.3270738,94.7653546 27.9920441,95.4645342 28.6356404,96.1779344 C29.8252248,97.493103 30.9796607,98.8442972 32.150246,100.178427 C33.2548092,101.437187 34.423257,102.61963 35.6273282,103.783349 C36.7649025,104.885683 38.1850891,105.812155 39.2300424,106.987962 C40.2462595,108.13509 40.5219847,110.137588 38.8498219,110.801453 C36.9999477,111.537665 35.3623058,109.812205 34.1170312,108.661869 L34.064648,108.613613 C31.7818999,106.51726 29.7204919,104.121562 28.0834775,101.483878 C26.4618999,102.5855 24.1164546,102.690733 22.5017642,101.589347 C21.6520271,101.009858 21.0001187,100.035984 20.6833079,98.9765488 C20.3845462,99.0433856 20.0860221,99.0824923 19.7948601,99.0779891 C19.6450042,99.1647347 19.4946735,99.2491103 19.3426802,99.3277976 C18.1383715,99.9532671 16.65905,99.6738323 16.1080746,98.343969 C15.6063525,97.1367275 16.1233589,95.765667 16.57528,94.6024935 L16.6685496,94.3622005 C16.9250382,93.6988095 17.2076506,92.9759289 17.5591349,92.2957101 C16.5806785,91.560979 15.7444784,90.6482534 15.0369975,89.6103865 C12.6597286,86.1144886 11.4722816,81.0019453 11.9971332,76.8308058 C12.3129941,74.3137593 13.4978287,71.706649 15.438117,70.0094202 L15.3671077,69.8245524 L15.3671077,69.8245524 C14.823257,68.4477612 14.3290416,67.0657557 14.0086684,65.6107511 C13.6334351,63.9090191 13.4503308,62.1456645 13.2843257,60.4131212 C12.9328414,56.7536864 13.0278372,53.0112981 13.4956913,49.3660839 C14.374402,42.5046436 16.6020526,35.7688186 20.5562511,30.059247 C19.4350636,28.7199034 18.5470908,27.1437867 19.0099576,25.330897 C19.2215606,24.4987548 19.7034266,23.7097484 20.4303817,23.2331212 C20.8315013,22.9702771 21.3090925,22.9299854 21.7104495,22.7119362 L21.8311313,22.6456233 C22.0074263,22.5429558 21.872578,22.5538366 21.767447,22.0767493 C21.3518405,20.1709517 21.6962002,18.3296208 23.7979813,17.696804 C25.776268,17.1019088 27.6476845,18.3651723 28.8185072,19.870186 C31.8821204,17.7013072 35.9194402,16.5662662 39.4699067,15.6016354 C43.5072265,14.5087821 47.6488041,13.8264303 51.8074809,13.4043154 Z M18.7158032,77.3259909 C18.7013164,75.7735752 20.1761255,74.8160547 21.6274232,75.0698924 C22.6019271,75.2391345 23.4148642,75.8195503 24.1782313,76.419468 L24.5504114,76.7133415 C25.479971,77.4416423 26.5471744,78.2268028 27.1013164,79.2578596 C27.9135301,80.779464 26.1967193,82.8269936 24.5936658,81.7604485 C23.4940107,81.0250064 22.7891525,79.8466189 22.0678499,78.751948 L21.9931569,78.6390264 C21.6654215,78.1484157 21.3780594,77.6269936 20.9289669,77.233557 L20.8319563,77.1487747 C20.6843646,77.0232253 20.5258611,76.9086378 20.3352434,76.8543409 C19.9675179,76.7488332 19.2864102,76.8965884 19.1242532,77.3334789 L19.1097981,77.3781331 C19.0504258,77.5987894 18.7181781,77.5511504 18.7158032,77.3259909 Z" id="ðŸ–-Ink" fill="#000000"></path>
                    </g>
                    <g id="face/Smile" transform="translate(37.760814, 44.083865)" fill="#000000">
                        <path d="M34.8127554,57.1020091 C33.2162863,56.4520445 31.7918322,55.3678606 30.7504188,53.982886 C30.3883575,53.5014119 30.2944812,52.9929828 30.3704337,52.5279595 C30.455837,52.0050735 30.76581,51.5311704 31.1885437,51.2132909 C31.6125868,50.8944267 32.1430108,50.7371707 32.6558203,50.8173353 C33.1014216,50.8869936 33.5449965,51.1304783 33.8960529,51.6354567 L33.9693973,51.7364404 C34.5885356,52.5723634 35.3953297,53.2582283 36.3146153,53.7003078 C37.2006572,54.1264007 38.1916054,54.3252746 39.2170751,54.2096253 C41.1701484,53.9894475 42.5163047,52.9353366 43.947122,51.5038717 C44.124476,51.3231456 44.3019435,51.136754 44.4802714,50.9473621 C44.592889,50.7756793 44.7491739,50.6653386 44.9226927,50.6074447 C45.1153544,50.5431638 45.3332998,50.5468008 45.5329212,50.6163236 C45.7254569,50.6833787 45.8975743,50.8104452 46.0129836,50.9795623 C46.1226707,51.1402944 46.1848601,51.3388571 46.1646812,51.5672535 C46.033716,53.0507326 45.2565672,54.3746744 44.1526598,55.4142485 C42.9266296,56.5688282 41.301437,57.3675742 39.7713893,57.6477194 C38.0857258,57.9563102 36.3680798,57.7352226 34.8127554,57.1020091 L34.8127554,57.1020091 Z M40.5665861,34.2164632 C42.3599585,35.3043501 45.0925072,37.84109 43.1632513,40.538094 C40.8923326,42.9161315 37.6227224,40.1895491 36.0115152,38.956422 C34.5175283,38.0007416 32.8389503,40.45868 34.2250722,41.574598 C45.8676895,50.1769329 50.5925102,34.5009305 41.4736488,32.937375 C40.4696294,32.7650779 40.0967341,33.8799135 40.5665861,34.2164632 Z M19.7029042,24.2097211 C19.9010483,21.7551799 23.6468906,21.1977976 24.0195115,23.6266764 C24.3531841,25.8024284 23.9603766,27.801134 22.9783579,29.7600219 C22.0400373,31.6314531 19.6816447,30.7583423 19.5032902,29.0542402 C19.2642133,26.7699622 19.5796472,25.7365862 19.7029042,24.2097211 Z M48.21676,23.1230538 C48.7389992,22.4404649 49.493028,21.9745032 50.3964377,22.2378213 C53.2189992,23.0609572 52.3870738,27.0600273 51.395793,29.0065907 C50.8571671,30.0636554 49.1161323,30.3317138 48.3293299,29.4009754 C47.0468872,27.8831632 46.4327396,24.8520419 48.0631043,23.3569827 C48.1072774,23.2797174 48.1564377,23.2017411 48.21676,23.1230538 Z M22.9386022,13.4693984 L23.3844579,13.391518 C24.7637486,13.1534545 26.4787379,12.9247019 27.4544631,14.0313491 C27.9719525,14.618186 28.1500696,15.7089061 27.4544631,16.2706199 C26.2309177,17.2589517 24.8781781,16.8759435 23.4119186,16.959608 C22.2035725,17.0288149 21.0422494,17.2283774 19.8783138,17.5604284 C17.3248278,18.2887603 15.2441832,19.6183865 13.0633181,21.0783683 C12.7771433,21.2698724 12.4850314,20.9046399 12.6215878,20.6375296 C13.8805191,18.1766545 16.3202477,16.155196 18.7640136,14.9229809 C20.0683053,14.265278 21.4956166,13.7196809 22.9386022,13.4693984 Z M45.6437704,12.3670381 L45.985026,12.4367382 C49.6987038,13.2114312 54.5236407,14.7589441 56.2822463,18.3992889 C56.3492573,18.9140465 56.2784539,19.0243694 56.220878,19.0964481 L56.2017082,19.1204334 C56.1542656,19.1819844 56.11641,19.266832 55.8928405,19.3368914 C55.8308,19.3221394 55.7681419,19.3065151 55.7048201,19.2899543 C54.8987061,19.0791278 54.2609139,18.7886846 53.6434635,18.4873151 L52.9739907,18.1581557 C52.1972684,17.7780821 51.4136883,17.4118413 50.5832732,17.1414685 C48.8110962,16.5645992 46.9882598,16.1582307 45.137182,15.9412392 C44.7359752,15.8942481 44.3496381,15.7591142 44.044846,15.5275167 C43.7555371,15.3076842 43.5345237,15.003321 43.433754,14.598756 C43.3031565,14.0751843 43.3406874,13.6787976 43.6221743,13.2064592 C43.8338352,12.8517432 44.1366879,12.6058787 44.4844395,12.4646949 C44.8389572,12.3207642 45.2425721,12.2868326 45.6437704,12.3670381 Z" id="ðŸ–-Ink"></path>
                    </g>
                    <g id="facial-hair/Full" transform="translate(29.211196, 80.109389)" fill="#000000">
                        <path d="M27.9583796,22.5617031 C29.8811514,18.0662719 34.0777129,14.7623778 38.9094272,13.5544694 C42.4575543,12.6697139 46.1811904,12.6979482 49.798098,13.0490982 C51.6931204,13.2317911 53.7257039,13.3815043 55.5116262,14.0838042 C57.0366567,14.6838436 58.2794499,15.8179631 59.2139166,17.1492485 C60.3262639,18.7268134 61.0828498,20.5323885 61.6141202,22.3830437 C61.6895416,22.6461689 61.7604567,22.9111922 61.8266283,23.1776391 C61.5956206,24.5739347 61.1051442,25.7623876 59.809224,26.6402624 C58.5446108,27.4974954 57.035708,27.8481709 55.5315488,27.9727342 C55.3840264,27.9020297 55.2414847,27.829427 55.1108017,27.7549263 C52.7668083,26.4158112 51.1170241,23.2511908 48.1585123,23.6794514 C45.5182883,24.0619201 43.7802752,27.3772028 42.2101815,29.3213398 C37.1702283,29.9073806 32.1340698,28.3960122 28.0333266,25.5199043 C27.8250876,24.5354981 27.8129917,23.5427876 27.9583796,22.5617031 M65.2521363,19.151515 C64.8489401,18.0223781 64.3411499,16.9288307 63.7392016,15.8986327 C61.7493095,12.4917663 58.6945049,9.77723472 55.0681103,8.22553152 C46.4895169,4.55981066 35.389761,7.14384729 28.4619005,13.1558668 C26.0953757,15.2110431 23.7025244,18.23117 22.9789057,21.4797816 C22.76284,21.5224891 22.5588701,21.6347147 22.3909507,21.7927322 C17.3856249,18.6478047 12.2311165,15.6219834 8.19773082,11.2625041 C5.26862857,8.0950366 3.23130158,4.34651079 1.98376491,0.227379408 C1.88177997,-0.111670113 1.33390741,-0.0620820446 1.35050961,0.313031527 C1.35525309,0.400819016 1.35999658,0.488369243 1.36474006,0.576156732 C1.31256172,0.414817562 1.06590048,0.497859782 1.04692654,0.654453683 C0.375723351,5.6583406 -0.46387357,10.9635521 0.309314555,15.993538 C0.771804383,18.9949211 2.13792819,21.1922183 3.96417007,23.5648531 C5.92085781,26.1080804 8.1360655,28.4735974 10.4010798,30.7420736 C11.8383559,32.1820257 13.339669,33.8428701 15.0995021,34.8986926 C17.1463161,36.1253448 19.4682522,37.0580276 21.6526272,38.0044716 C23.8749501,38.970134 26.1304775,39.8622447 28.4286962,40.6357237 C33.0227618,42.1874269 37.7709907,43.2598578 42.6022306,43.7296395 C46.470543,44.1045159 50.8914714,44.5128463 54.5985052,43.0605565 C57.439853,41.9477908 59.7333282,39.9360337 61.5524549,37.5157089 C63.53286,34.8797115 65.0984474,31.8771421 65.9638963,28.7108609 C66.8632611,25.4219144 65.4416386,19.6817989 65.2521363,19.151515" id="ðŸ–-Ink"></path>
                    </g>
                    <g id="accessories/*-None" transform="translate(11.162002, 57.119417)"></g>
                </g>
            </g>
        </g>
    </g>
</svg>