<?xml version="1.0" encoding="UTF-8"?>
<svg width="256px" height="682px" viewBox="0 0 256 682" version="1.1" xmlns="http://www.w3.org/2000/svg" xmlns:xlink="http://www.w3.org/1999/xlink">
    <!-- Generator: Sketch 62 (91390) - https://sketch.com -->
    <title>peep-standing-15</title>
    <desc>Created with Sketch.</desc>
    <g id="Introduction" stroke="none" stroke-width="1" fill="none" fill-rule="evenodd">
        <g id="variations-standing" transform="translate(-1668.000000, -1713.000000)">
            <g id="a-person/standing" transform="translate(1677.000000, 1658.000000)">
                <g id="pose/standing/easing-1" transform="translate(-28.736217, 150.264357)">
                    <path d="M270.006275,238.344632 C276.260885,238.484945 273.578924,180.126498 269.402345,169.372598 C268.817484,167.193216 268.334485,164.2153 268.43176,161.541027 C273.597511,162.057467 273.041373,158.521727 272.77465,154.25822 C272.86227,150.872833 273.097615,143.887793 267.916416,146.607612 C252.3832,115.509308 269.178345,35.1204981 228.279826,27.5489842 C223.351593,26.3520386 218.258015,25.1134643 214.108711,21.6964881 C209.71827,13.5806186 207.482136,12.5440656 200.206975,12.0190551 C198.85984,4.70857721 196.341775,-3.10119938 188.837787,-5.94590432 C181.967419,-8.63805256 173.971501,-8.85280734 166.807616,-7.41612972 C160.878143,-5.48211237 160.335765,5.53943576 159.01856,10.9734417 C151.032538,8.85576864 141.190554,4.40174969 136.891113,14.4986524 C134.808737,13.8761819 132.879154,14.2802245 130.762985,14.9729739 C113.027669,17.8306572 95.8202493,25.8539642 89.2421911,42.5950418 C85.1788184,52.6410106 88.0625723,63.5768527 89.5863974,73.9813176 C91.0076365,85.3106727 87.2599874,95.8067206 85.5227834,106.704117 C82.9361669,121.71026 82.4683746,133.746813 84.1563373,144.900103 C79.6946895,145.915107 79.36569,149.973409 81.1707215,154.22002 C81.7007896,155.656942 82.2347198,157.17198 83.4068558,157.984228 C85.7911967,159.485307 88.8728814,157.755515 91.464084,157.490806 C92.0030831,163.483125 93.0468056,169.363047 94.7736303,176.045423 C94.2734932,178.045801 93.6999769,180.279544 93.1848743,182.288248 L93.0110815,182.09945 C87.0951256,206.879507 69.5005337,230.949918 74.9689731,257.285661 C75.2904898,258.163045 75.9006957,257.980124 76.3692121,257.964942 C79.0837594,258.997087 81.5772036,258.342048 84.3146819,258.447344 C90.8077748,258.451997 97.0809714,259.28359 102.900376,260.007439 C103.964133,266.956727 107.42261,278.333588 113.590324,280.983128 C113.694117,281.018635 115.522321,280.637365 115.675113,280.626346 C99.2560368,347.20253 69.7136713,408.764423 57.9787939,476.682274 C57.9092768,477.511174 59.2578608,477.072359 59.7003084,477.173247 C59.6397222,479.058045 60.8574789,479.511062 62.5625795,480.181283 C60.3653073,484.774881 58.3860002,489.362601 56.1986244,493.967952 C55.1843502,496.247487 53.5313874,498.499107 53.2301465,500.936096 C50.8086332,502.483701 49.1776359,505.508879 49.2208427,508.332524 C42.6908189,511.092503 44.4656781,524.724901 42.9758874,531.477065 C41.4694416,541.536013 34.3041085,548.560477 29.391082,556.807599 C28.3898423,558.463195 27.3236716,560.632536 27.2763613,562.711764 C24.2306422,564.139626 23.0949544,567.258835 23.2965058,572.508696 C23.2856437,578.651368 25.0182616,580.990163 29.6901505,581.138801 C42.3799229,582.40676 57.1877952,581.890321 69.9511881,580.448256 C79.4991725,579.234169 87.9599863,580.241582 85.8252312,568.76873 C85.3859215,565.991121 86.2297822,562.251645 84.5859918,560.003944 C83.5724418,553.312753 84.1621304,546.56818 86.3475751,539.957798 C87.6761968,534.391883 89.9208193,522.894636 88.990722,515.424615 C88.5605583,511.969781 81.5080377,510.068805 80.2666259,509.900576 C80.6615218,507.300011 80.4877016,502.755512 79.088428,500.948095 C81.6579066,500.589843 82.3037542,499.910562 82.8388912,497.056797 C84.1177167,492.435039 84.2878889,487.41683 87.4547802,483.522838 C93.1505985,483.596056 98.8273479,482.150563 104.520028,481.974743 L104.803407,481.320928 C108.170402,481.27783 111.518568,480.683031 114.714425,479.516694 C115.423114,479.851682 116.329733,480.13941 116.728008,479.06686 L118.629109,473.121802 C140.759452,402.695213 165.289825,332.098682 189.208062,262.188289 C190.604198,258.789189 192.28323,255.177048 194.466743,252.147953 C195.206328,294.923333 204.167038,337.653167 204.936554,380.407977 C205.976414,409.820321 205.708725,438.923879 208.47541,468.441029 C209.187478,474.688018 209.944442,474.480119 210.876889,474.096891 C211.250543,474.155171 212.129887,474.34299 212.511507,474.423064 C211.887784,480.630873 211.170164,490.707451 208.507996,497.056797 C202.623661,497.964791 203.677521,502.480028 204.982657,506.222443 C203.578797,507.421592 203.778418,510.216493 204.195038,511.763364 C198.65853,511.769241 197.451394,516.272479 197.83229,519.114491 C198.358978,523.867011 198.064255,531.263045 201.235491,535.321592 C203.10304,540.497501 206.142966,545.382498 207.330308,550.958531 C208.076652,555.061401 207.788446,561.037822 208.507996,565.107633 C206.697413,565.943879 207.464619,567.255181 207.159275,569.792078 C205.592002,581.404753 211.108854,579.430803 220.863459,580.230318 C226.710139,581.52154 271.221135,584.090761 269.297587,576.364487 C269.62562,573.218097 268.162381,571.836779 267.535762,568.738874 C267.254314,567.916586 261.708875,558.401938 258.401259,554.799347 C247.307726,544.376272 247.792173,530.382496 248.143621,514.263399 C247.491174,509.894596 244.130455,505.711163 239.842117,506.181322 C241.073391,501.515242 238.791154,497.458381 234.021989,496.109123 C234.498471,490.826205 235.000056,483.648214 236.744019,479.078124 L235.101435,477.405878 L237.300156,477.668628 L238.030086,475.830601 L238.826154,477.844693 C242.600837,477.844693 246.859727,477.007467 250.475583,476.613954 C251.053203,476.646523 250.79541,475.8617 250.890272,475.559036 C254.304818,474.851839 254.678714,473.037565 254.075267,468.714309 C254.87061,398.519372 254.525438,328.983391 253.438268,258.658426 C258.774673,258.896444 263.978319,256.949938 269.222518,255.652839 C271.085722,256.822114 271.613617,252.658271 271.395652,251.759337 C271.099963,247.106725 270.524274,242.568469 270.006275,238.344632 Z" id="ðŸŽ¨-Background" fill="#FFFFFF"></path>
                    <path d="M160.415989,1.18514494 C161.209176,1.81132052 161.126222,3.54717767 161.204531,4.51891872 L161.210002,4.58254887 C161.459465,7.51781006 161.121603,10.4665888 160.406115,13.3164111 L160.295489,13.75094 C159.953606,15.1129539 159.61385,16.7455298 158.543813,17.6797872 C157.328566,18.7408605 155.397953,18.053994 155.354125,16.3429826 C155.331968,15.5477932 155.597613,14.7821463 155.933382,14.0361946 C153.578857,14.9446309 151.224332,15.8432196 148.860068,16.7196513 C147.349714,29.2083112 164.796817,44.4983523 174.898387,49.851233 C189.60869,57.9934315 201.985894,45.5220048 203.869027,30.8607297 C204.185318,28.9133772 204.397396,26.9118631 204.438788,24.9374298 L204.441138,24.7479939 C204.449344,23.1155091 204.178578,20.9328688 205.242297,19.5754401 C204.459241,19.556976 203.763841,19.6670223 202.997342,19.7871624 L203.034082,19.8508168 C203.468436,20.627287 204.082471,22.5599993 202.707105,22.7069603 C199.738017,22.3945468 198.356955,17.1896255 197.633067,14.6932722 L197.604631,14.5849735 C197.137284,12.7141787 196.542238,5.92366177 197.949844,5.10939267 C198.382765,6.78470671 198.212324,8.60404114 198.738744,10.284279 C199.936703,10.7668088 202.217938,10.8972888 202.746306,10.9861629 C208.916525,11.0575576 212.414955,15.4864922 214.915816,20.6709798 C222.247227,26.6878314 232.785614,25.6538389 240.702126,30.6091249 C264.927436,48.1682871 257.015794,116.525778 269.082065,145.606817 C271.497949,144.607291 273.960339,146.608558 274.28296,149.050996 C274.616538,150.929416 274.516708,152.940778 274.543492,154.843816 L274.554919,155.081476 C274.752155,158.973765 275.425248,163.348415 270.16802,163.43334 C270.176298,165.606201 270.585358,167.709637 271.110317,169.807165 C274.021454,182.503608 275.291973,195.581151 275.578558,208.596655 L275.593003,209.552976 C275.687616,216.393977 275.771363,237.55812 271.838345,240.062032 L272.021525,241.552795 C272.476915,245.280975 272.905866,249.018695 273.14563,252.765614 C273.523035,254.710505 272.238638,259.370857 269.617738,258.137205 C264.811293,259.325804 260.071076,261.079653 255.076659,261.089008 C256.286792,301.344552 255.685135,341.641455 255.864098,381.913493 C255.478414,411.599418 257.083484,441.530547 255.680508,471.102732 L255.731253,471.519993 C256.127772,474.840777 256.246656,477.728025 252.408279,478.865062 C252.353007,479.677484 251.727731,480.111515 250.986311,480.20679 C248.882335,480.489907 246.778602,480.758253 244.672434,481.016751 C242.710411,481.162495 240.611061,481.650687 238.655856,481.418039 C238.844802,481.609327 238.331531,481.638624 238.276015,481.499281 C236.493199,485.972529 235.975788,490.848789 235.534345,495.620664 C239.861607,497.269882 242.223193,500.979453 241.516835,505.630696 C245.883055,505.807214 249.071525,510.658362 249.683409,514.747063 C250.075424,517.568386 249.761325,520.370013 249.634955,523.196259 C249.030619,532.854734 250.450395,543.260145 256.686112,550.963882 C260.73385,555.800012 266.003408,560.174047 267.769667,566.471307 C268.249338,566.695339 268.643788,567.128631 268.816664,567.80565 L269.937176,572.20258 L269.937176,572.20258 L270.494293,574.401045 C270.902363,576.003734 271.26496,577.643389 271.046156,579.302776 L271.023148,579.463423 C269.931593,589.973218 226.841838,584.907394 218.431777,584.152579 C215.051195,583.622535 211.341662,583.91156 208.297823,582.121522 C204.563941,579.657666 204.097175,574.659297 204.738035,570.565425 L204.791315,570.181702 C205.050829,568.351159 205.430917,566.431703 207.168041,565.407772 C206.583184,561.614497 206.809627,557.733332 206.113983,553.955074 C205.063334,548.608595 201.885091,543.969415 200.262733,538.836627 C197.896033,536.205362 197.816169,532.10312 197.321403,528.737967 C196.946432,525.473505 196.639637,522.186886 196.513267,518.902729 C196.169706,514.561437 198.054057,510.981361 202.619693,510.414143 C202.407858,509.591626 202.987846,508.880387 203.564668,508.353543 C202.203329,503.519628 201.827628,496.883366 207.732932,495.234148 C209.969609,489.688748 210.619721,483.679282 211.215048,477.764598 C211.144193,477.749827 211.073825,477.737518 211.00297,477.725208 C208.297171,478.851561 207.562808,474.030291 207.309429,471.483592 L207.253262,470.876239 C204.468737,441.44118 204.72513,411.832805 203.679351,382.307395 L203.577076,380.172908 C202.660254,360.71884 202.114808,341.094088 198.750188,321.900076 C195.363762,300.507018 194.478685,278.76511 193.321145,257.147527 C191.957858,259.265488 191.224717,261.698079 190.121475,263.954644 C175.805378,306.011304 161.116502,347.941177 146.963299,390.054953 C136.705167,420.545423 126.904792,451.198377 117.075198,481.831636 C116.573613,483.399857 114.993379,483.724827 113.836813,483.222602 C110.892804,484.243792 107.80319,484.823567 104.693854,484.923765 C104.506612,485.354596 104.121901,485.669717 103.559202,485.60817 C101.896181,485.42599 99.9826123,485.945449 98.3195921,486.139938 C94.5143681,486.515868 90.8201743,487.099335 86.9801316,487.154235 C84.6012578,490.161676 84.4517564,494.239792 83.3548448,497.819129 C82.7234815,499.643633 82.822581,503.735782 80.6421496,504.249578 C81.4237448,505.45344 81.5260095,506.898568 81.399396,508.38801 C82.0775089,508.542124 82.7653614,508.833365 83.4032989,509.131499 C84.0246792,509.446129 84.8454759,509.419048 85.273527,510.052245 C97.4520458,512.259573 88.5520874,535.383584 86.4352063,543.031682 C84.3575267,549.284383 83.7069279,555.81503 84.6550686,562.342723 C86.1043067,564.344237 85.6190359,567.321397 85.8408531,569.693917 C85.9574837,571.81114 86.1717528,573.960367 86.1525172,576.080052 C85.9158473,584.885483 75.0443699,583.453157 68.9109175,584.595719 C65.0811012,585.04132 61.2337538,585.351518 57.3866499,585.592783 C47.6296152,586.199146 37.8177957,586.245429 28.080727,585.302034 C21.7938775,585.102868 20.4420344,581.002103 20.4520173,575.392939 L20.4424192,575.160871 C20.3007567,571.353837 20.9146584,566.757108 24.5304345,564.777529 C24.7106153,562.766168 25.7310718,560.735111 26.7729552,558.977324 C31.6178712,550.832171 38.892063,543.694422 40.3227961,533.919993 C41.7262585,527.521056 40.1362846,513.43537 46.6415425,510.099021 C46.7925048,507.218121 48.5624161,504.280597 50.7540479,502.723208 C51.1769859,500.323114 52.7703686,498.116771 53.7562499,495.911167 C55.7669704,491.700109 57.6269721,487.422334 59.6269792,483.20783 C58.5797391,482.764691 57.4670008,481.949806 57.3209082,480.792719 C56.315548,480.805029 55.3221186,480.155091 55.4438624,478.931533 C55.7989257,475.379325 56.576082,471.886109 57.3100192,468.395252 L57.4015026,467.958903 C70.460716,404.83563 97.4284275,345.808937 113.20618,283.494641 C111.083212,283.878695 109.098544,281.451274 107.924934,279.870743 C104.133832,274.766759 101.89472,268.59087 100.910057,262.324875 L99.1281233,262.103994 C93.1853678,261.374394 87.2131388,260.735465 81.2206709,260.907189 L79.7764443,260.955492 C78.1719891,261.004492 76.5647064,260.991728 75.0395001,260.414451 C73.9754594,260.512926 72.8675908,259.941768 72.6046242,258.747753 C68.1663325,236.629423 79.0757939,215.638636 86.8900411,195.652054 C88.7308073,190.738127 90.041014,185.752806 91.2901054,180.664086 C91.3312548,180.49914 91.5893516,180.533606 91.5822905,180.703476 C91.3388029,186.360893 89.9360709,192.065084 88.511425,197.518164 C83.8337849,216.008166 74.0886811,234.140209 76.4712072,253.715656 C83.8773692,247.882954 92.6736019,243.831919 101.913225,242.117707 C102.446463,239.801072 103.035703,237.501669 103.478851,235.170262 C103.043008,231.585755 102.745953,227.984014 102.366112,224.382274 C101.23146,213.609057 99.498072,202.86292 97.1873748,192.279022 C93.6027505,181.629638 90.4732045,170.835987 89.3541356,159.607567 L89.1504496,159.647634 C86.665169,160.152109 83.9269335,161.247145 81.6212132,159.664191 C80.1578528,158.649893 79.5245415,156.968425 78.9333537,155.353427 C77.2442803,151.438042 76.9318857,146.291221 81.7110601,144.654066 C79.9294614,132.205043 81.0870014,119.208988 83.2404057,106.876412 C84.9645413,96.0665126 88.747121,85.4163898 87.3312407,74.349962 C85.7592848,63.7158415 82.8281812,52.5780189 87.0653522,42.1684225 C94.0290973,24.7958713 111.663443,16.553474 129.00609,13.9007908 L129.287065,13.8182355 C131.43257,13.1830696 133.386228,12.5135175 135.621647,12.9948164 C140.894371,3.21103168 149.445655,7.19042568 157.796062,9.37091891 C158.359979,7.71185332 158.829667,6.01462849 159.271597,4.31888079 C159.546738,3.45500467 159.455917,1.46186103 160.415989,1.18514494 Z M208.748275,570.15429 L208.726583,570.581097 C208.505726,575.16188 208.754462,579.086562 214.433954,579.056473 C218.342092,579.47379 222.250807,579.88002 226.16523,580.233665 L227.633416,580.363735 C239.251257,581.399832 251.008609,581.906656 262.60434,580.350973 L263.087401,580.284955 C264.056481,580.147089 265.850985,580.17417 266.618214,579.457761 C267.54298,578.213277 266.472365,575.84051 266.24787,574.396121 C248.154794,574.18563 230.0381,573.518213 211.933093,573.748645 C210.02902,573.758493 209.169509,572.131185 209.34482,570.649129 C209.130551,570.503878 208.928456,570.33647 208.748275,570.15429 Z M25.0493065,567.85735 C24.1596029,570.985423 24.3787417,573.942149 24.8813001,577.074408 C25.1325793,580.354872 26.6930912,580.564871 29.5170603,580.641928 C40.5414479,581.658934 51.645456,581.445981 62.6727654,580.592937 C68.5831832,579.955554 74.6567376,579.979681 80.457099,578.672419 C83.2243355,577.446153 81.6268134,573.589853 81.7210431,571.225211 C68.694457,579.619753 48.9936326,578.554248 34.7885666,573.697192 L34.5609519,573.600091 C31.2007655,572.188366 26.9053529,571.299615 25.0493065,567.85735 Z M46.6269333,511.374278 C45.1293265,513.06358 45.0981891,517.874794 45.0353607,519.51236 L45.0274633,519.695456 C44.8592134,523.134712 44.885997,526.581354 44.7369826,530.020364 C44.8467955,544.503644 36.4832403,551.727313 30.2721153,563.371792 C28.5733024,566.197792 31.0447015,566.598587 33.054935,567.515147 C46.072025,573.572866 61.4694498,574.499028 75.0684752,569.861079 C81.9041458,567.874583 80.4118103,563.274547 79.8313359,557.647905 C79.2598705,546.149662 85.3100502,535.79078 87.099684,524.668222 L87.1478826,524.380341 C87.6814487,521.114919 88.6035023,512.745751 83.400864,514.535341 C82.2688902,515.232055 81.2046059,514.358085 81.0709312,513.289626 C80.9360391,513.311783 80.7977382,513.324339 80.664307,513.326555 C80.0626491,517.044004 79.4393209,520.756529 78.8405849,524.473979 C79.3443607,524.794024 79.8167267,525.155921 80.2355253,525.569518 C80.7444144,526.074205 80.3889225,527.132817 79.6219366,527.068807 C79.2277302,527.034341 78.83815,526.975256 78.4507613,526.901399 C78.1437234,530.132872 73.011492,528.319692 74.4940879,525.729541 C67.114953,523.179765 58.9853894,523.383117 51.4918153,525.338101 L51.4608621,525.351442 C50.8807371,525.581829 46.7093489,526.418357 48.0513357,527.068807 C48.6106267,527.136509 47.3371866,527.86769 47.1139084,526.736207 C47.0418361,525.315452 50.2841169,524.617999 51.2775462,524.028377 C48.7720589,520.442393 47.0600977,515.794843 46.6269333,511.374278 Z M235.670698,500.020056 C228.719371,496.255831 220.176609,497.652952 212.637016,498.318892 L212.320362,498.354872 C210.401558,498.561266 207.72714,498.688733 206.846394,500.66507 C205.571006,503.831303 207.684965,510.91489 208.348956,514.436866 L208.575069,515.360516 C209.125809,517.615063 209.648137,519.85085 209.836908,522.181962 C209.841535,522.255819 209.770923,522.307518 209.705182,522.307518 C207.064072,519.485703 205.87707,515.690705 204.643318,512.070992 C204.117141,512.371343 203.603383,512.696312 203.119086,513.053285 C201.226083,519.558363 200.5923,526.48407 202.091106,533.11992 L202.144892,533.354005 C203.996371,541.55455 209.76094,548.26073 210.309031,556.830558 C210.675236,560.295172 210.593181,563.845459 211.589775,567.209873 C212.156615,567.334937 212.650894,567.752966 212.872955,568.278332 L216.122645,568.282347 C231.829802,568.309107 247.541221,568.451443 263.238363,569.098141 C262.732152,564.683978 258.836351,560.767115 256.092246,557.74121 C247.672201,549.117713 244.030358,536.730483 245.417506,524.791562 C246.147239,518.818778 249.480097,509.434804 241.327158,507.228461 C240.731588,512.096104 239.926618,516.947744 239.481522,521.834836 C241.02012,522.577341 240.92516,524.534295 239.045436,524.496136 C238.201752,527.335184 235.372669,526.187452 235.678246,523.508919 C225.330511,519.68684 219.393796,518.405674 209.312923,524.163781 C209.030721,524.122421 210.087701,522.990938 210.221375,522.789802 C213.407167,519.354731 218.299806,517.739979 222.890035,517.681633 C227.440331,517.680894 231.719625,519.396091 236.011824,520.722063 C236.657001,516.110686 237.091346,511.470787 237.602898,506.843597 L237.713802,505.852266 C237.981639,503.422384 237.884,501.415946 235.670698,500.020056 Z M69.378438,559.570589 C70.8929308,559.233311 72.2859233,558.721238 73.8245214,559.068364 C79.2396854,563.136386 57.1132377,564.283379 55.2293742,563.9946 C50.4334157,563.853372 45.6353643,563.244714 41.0197557,561.889442 L40.6980348,561.793673 C40.2434435,561.667132 35.6427455,560.385966 36.5151615,559.81407 C42.7579398,560.367256 48.8697218,561.51351 55.2293742,561.21513 C58.4020175,561.148659 61.5868351,560.924627 64.7253902,560.447021 C66.2861456,560.208218 67.8395965,559.917715 69.378438,559.570589 Z M215.665831,554.531156 C214.674593,553.045161 219.507578,555.018363 220.136263,555.035843 C224.138712,556.022813 228.211529,556.770981 232.322817,557.081671 C235.079096,557.290931 237.864594,557.335245 240.625744,557.199841 C242.670552,557.128939 244.693204,556.826865 246.724864,556.618836 L246.797966,556.615235 C248.005484,556.573335 250.424356,557.321784 248.93354,558.758462 C246.615051,560.556378 243.184798,560.008608 240.406361,560.272522 C231.968542,560.245195 223.033522,558.88648 215.665831,554.531156 Z M57.0314502,543.730833 C59.4638912,543.290156 72.8535173,543.146381 71.5187183,547.256255 C71.1948798,548.036674 70.4546775,548.295172 69.6755172,548.172324 C61.3889041,546.156531 52.4499877,545.102104 44.1896712,547.881575 C44.055753,547.928351 43.9632277,547.709243 44.094711,547.650404 C48.156084,545.614915 52.5018505,544.191699 57.0314502,543.730833 Z M230.827681,539.713059 C233.013822,539.547004 235.212929,539.605357 237.399949,539.769915 L238.295593,539.840017 C239.21811,539.914304 240.160859,540.00967 241.04213,540.277536 L241.21754,540.333454 C242.418421,540.720709 245.125029,542.784509 243.070481,543.777634 C240.864483,544.491581 238.999125,543.64223 236.871043,543.095445 C230.939199,541.689954 224.703481,542.165837 218.826421,543.60284 L219.654036,543.868724 L219.654036,543.868724 C219.705168,543.831795 219.771153,543.917961 219.722212,543.959814 C219.128346,544.479272 218.312419,544.29463 217.891429,543.649616 C217.818139,543.538831 217.864645,543.361575 217.981276,543.300028 C221.964733,541.209886 226.357249,540.052799 230.827681,539.713059 Z M46.0718546,539.188627 C52.7712084,536.22268 60.5330577,535.895205 67.7176556,536.755212 L68.229511,536.817616 C70.4709415,537.080573 73.3944559,537.201485 74.6767767,539.289565 C75.1199241,540.01336 74.6621674,540.843015 73.9463139,541.103975 C71.8379549,541.874546 69.3590077,540.330943 67.3334345,539.757323 C61.3431528,538.116968 54.9460033,537.94439 48.8549178,539.077843 C48.8975281,539.303351 47.888759,539.20463 47.6691332,539.284641 C47.3937487,539.269131 45.5666179,539.873524 46.0718546,539.188627 Z M215.013308,534.557843 C220.857741,531.715102 227.615252,531.037098 233.92499,532.504629 L234.187293,532.579448 C236.983106,533.364742 241.484376,534.290913 242.486013,537.251147 C242.702717,537.918318 242.232786,538.819369 241.529107,538.954773 C239.14512,539.410222 236.980759,537.669668 234.823459,536.832626 C228.476468,534.446812 221.291636,533.876146 214.728428,535.631225 C214.6846,535.889724 214.640772,536.14576 214.594266,536.404258 C214.706514,536.330401 214.823388,536.495348 214.733298,536.586684 C213.686058,537.320326 212.596207,535.468249 215.013308,534.557843 Z M61.1315134,529.560237 C65.8604243,529.245743 70.6291208,529.847239 75.1943924,531.094691 L76.0528801,531.331339 C77.3006298,531.681328 78.9168904,532.232088 79.0984626,533.580498 C79.169074,534.11719 79.0351558,534.486473 78.5993131,534.819074 C77.0100696,536.007919 73.5535197,533.516489 71.5773744,533.223525 C64.4034531,531.068018 56.7029724,531.098435 49.4360149,532.748138 L49.1884471,532.805004 L49.3637581,534.053181 C49.5359039,534.649696 47.9388687,533.242974 48.5456398,532.602883 C52.3817868,530.648883 56.8580627,529.912041 61.1315134,529.560237 Z M219.471469,527.329694 C223.266953,526.644624 227.182069,526.514239 231.019456,526.859173 L231.472812,526.901332 C233.764272,527.103903 241.189052,527.398922 239.432825,531.273636 C239.138205,531.921113 238.283563,532.004817 237.730603,531.724162 C235.875228,530.783721 233.846976,530.443981 231.799245,530.133783 C224.569125,529.12761 217.182442,529.539976 210.12398,531.487821 C210.277377,531.729086 209.960844,532.014664 209.661354,532.071288 C208.916282,532.209153 208.916282,531.320412 209.23525,530.84773 C209.615335,530.288882 210.372338,530.084545 210.956708,529.838356 C213.675003,528.65345 216.557409,527.852845 219.471469,527.329694 Z M75.7237003,505.770778 L75.2914721,505.668222 C68.0486264,503.963559 51.9908723,500.907143 50.3279446,510.886825 C49.7377307,515.282278 51.6846575,519.569654 51.5407563,523.922516 C59.051131,520.867068 67.3562492,520.898826 75.1590525,522.918066 C75.8503138,518.400504 76.5101652,513.878017 77.2162792,509.362917 L77.3304269,508.823188 C77.6447786,507.300008 77.7514817,506.109143 75.7237003,505.770778 Z M59.5926231,507.587896 C61.1709096,506.233859 63.8030105,506.253307 65.3511046,507.730686 C66.7669849,508.028082 67.7655275,509.53131 67.7884154,510.820354 C69.9410891,514.604766 67.3452679,519.83406 63.2354409,520.778686 C53.9551549,522.735148 49.8066134,509.984297 59.5926231,507.587896 Z M220.377072,501.548789 C228.141891,500.16127 230.962695,510.014972 224.589651,514.011107 C215.587184,518.528423 209.588624,504.326044 220.377072,501.548789 Z M63.4348816,479.662713 C63.5493208,480.416051 63.1787327,480.952249 62.7360722,481.459891 C61.1441504,487.98783 58.7482325,494.062782 56.3859159,500.320406 C64.0711147,499.046134 71.3321581,500.158168 78.132036,502.245602 C78.2133609,500.336162 79.083342,498.356559 79.6876782,496.556181 C80.8643661,493.137979 82.2869944,489.807356 83.9277735,486.590666 L84.1340051,486.189175 C84.7232451,485.044398 85.2905712,483.847921 85.9867022,482.752381 C78.465127,481.725036 70.9435519,480.799366 63.4348816,479.662713 Z M214.918251,478.271747 L214.717995,479.180272 C213.85462,483.120431 213.035379,487.097647 211.750477,490.925846 L211.732941,491.005078 C211.536209,491.971038 211.093945,496.44401 210.815485,493.286795 C210.601216,493.761939 210.372338,494.23216 210.12885,494.694995 L211.991237,494.47303 C218.937628,493.657438 226.184651,493.007108 232.997204,494.751618 C232.29036,489.272935 233.331026,484.038225 234.850145,478.857676 C228.19149,478.704547 221.591515,478.753784 214.918251,478.271747 Z M88.8184629,485.081326 C88.5749753,485.310282 88.3366009,485.544161 88.109914,485.787888 C88.4169518,485.709107 88.7237462,485.632789 89.0083832,485.566318 C88.9966958,485.386354 88.8695953,485.251196 88.8184629,485.081326 Z M238.874995,480.056615 L238.658291,480.566226 L238.658291,480.566226 C238.770539,480.499755 238.894717,480.435746 239.028392,480.379122 C238.96752,480.280647 238.916388,480.174786 238.874995,480.056615 Z M59.3201848,478.938918 C59.2415383,479.231144 59.1813969,479.552421 59.0399306,479.817812 C59.1519349,479.837507 59.2663741,479.859664 59.3810567,479.884283 C59.5196012,479.603628 59.6659372,479.330358 59.8239606,479.062013 C59.6559542,479.022623 59.4879478,478.983232 59.3201848,478.938918 Z M117.238334,155.848266 C116.556569,156.178159 115.845585,156.261863 114.905967,156.301253 C107.269465,156.618098 99.6575564,157.5029 92.1591126,159.011791 C92.5730415,165.080342 94.4186774,170.959328 96.1749534,176.744762 L96.5391744,178.012746 C102.473479,198.742291 107.653338,220.403948 106.610101,242.085703 C106.668538,242.10786 106.72454,242.137402 106.778351,242.164483 C106.683391,242.430162 106.615485,242.702337 106.520102,242.96548 L106.459139,243.122157 L106.102867,244.007398 C105.905965,244.498967 105.714675,244.992268 105.548495,245.497878 C105.257041,245.603001 104.89887,245.680058 104.557501,245.729295 C102.825086,257.208335 104.47228,270.07908 112.278736,279.055858 C109.495767,273.451747 108.52504,267.085438 108.647559,260.859547 L108.669527,259.907997 C108.70149,258.731751 108.771865,257.559893 109.130198,256.443427 C109.144807,256.384342 109.222723,256.394189 109.242445,256.443427 C110.895239,261.549873 111.002861,267.097243 112.626679,272.241355 L112.750915,272.636087 C114.035175,276.667013 116.179728,281.856985 119.904523,283.940242 C120.590306,284.144506 121.645139,283.902737 122.001579,284.69335 L122.0253,284.750203 L122.047214,284.742817 C120.384486,279.293928 119.313966,273.659569 118.947185,267.971378 L118.923268,267.583465 C118.806394,265.599185 118.548541,263.472114 119.042821,261.534363 C119.985118,263.306183 119.750883,266.200377 120.189404,268.344188 L120.206838,268.466493 C120.553146,270.783208 123.887381,288.492965 126.077177,286.126398 C126.529593,285.4736 126.411928,284.21212 126.425713,283.435266 L126.427556,283.359237 C126.461888,282.236616 126.44947,281.113996 126.410755,279.991375 C126.174329,273.378009 125.146811,266.590833 127.160454,260.148567 C127.49671,259.062875 129.322867,258.858538 129.544441,260.148567 C130.430735,265.308682 131.277829,270.473721 132.125166,275.638759 C132.742894,278.793421 132.717084,282.351833 134.59413,285.07271 C134.616044,279.132423 134.286848,273.209123 134.002211,267.27573 L133.926047,267.028648 C133.701063,266.279985 133.479238,265.307577 133.99515,264.671053 C134.202115,263.317015 136.179477,263.472114 136.34724,264.890161 C136.384007,265.185588 136.410547,265.485938 136.439766,265.783826 C137.094991,266.606096 137.70371,267.4456 138.477757,268.152161 C143.647729,257.59042 126.732402,239.349808 124.397113,227.422704 C117.519319,204.196032 121.473558,179.843047 123.474052,156.190468 C121.405381,155.945511 119.319666,155.880025 117.238334,155.848266 Z M215.670627,22.1702689 C219.286418,29.4328353 221.940433,37.1188463 223.778764,45.0288889 C224.345238,47.4710315 221.071959,48.969732 219.749556,46.830223 L219.710087,46.764273 C218.083833,44.0493041 215.660401,41.6580733 212.592944,40.7230487 C210.502847,49.4915513 211.521355,58.7578474 212.60731,67.6117775 C214.532759,79.9471266 216.06502,92.3349912 216.294365,104.835136 L216.3054,105.504895 C216.976451,148.193275 223.245526,190.689382 230.111876,232.484344 C241.088784,234.24927 251.138004,239.226467 261.256374,243.602225 C263.014354,244.289091 264.811293,244.88733 266.652303,245.300927 C261.568525,197.916251 242.234393,153.477469 236.260182,106.265864 C234.681165,93.9869567 234.606901,81.5182381 236.788306,69.3104795 C236.825073,69.0766002 237.155972,69.1553806 237.170582,69.3621791 C237.410173,74.3767965 238.267006,79.3259278 238.775165,84.3132183 C239.120917,81.4648151 239.919557,78.5794837 240.564799,75.8492511 C241.353698,73.17835 241.645153,68.8902354 243.956824,67.1489428 L244.102673,66.6442559 L244.102673,66.6442559 C244.163545,66.4276099 244.484949,66.5186997 244.43406,66.7353458 C244.409711,66.838745 244.385119,66.9396824 244.363205,67.0430816 C245.847992,67.4382145 244.461087,69.2004331 244.092934,70.0441218 C241.709921,76.4433044 241.000885,83.3700694 239.374144,89.9657106 C241.727939,110.555948 245.967301,130.884979 251.188406,150.897412 C255.985355,149.630525 260.798374,148.411152 265.607497,147.172577 C254.880408,112.172423 261.152892,73.111879 245.08125,39.6917643 C239.059802,28.4761461 224.230921,29.9998079 215.670627,22.1702689 Z M134.170705,15.7718249 C131.92088,15.6511924 129.570981,16.8747502 127.411246,17.2957329 C124.547832,17.8521193 121.699027,18.2927971 118.89892,19.147318 C104.566023,23.0848599 90.738119,33.8373972 88.1415674,49.3298053 C86.3568033,59.9676187 90.7761031,70.3321625 90.620758,80.9404332 C90.1544793,91.4502284 86.696225,101.55135 85.3487647,111.955284 C83.7278678,122.594083 83.1697943,133.729689 84.5601084,144.420187 C97.4174706,140.765024 110.845081,140.536068 124.029447,142.423597 C122.929857,126.220196 124.372764,109.936783 125.17116,93.744707 C125.745791,83.3456967 126.729481,72.8999106 126.381537,62.4812052 C126.373989,62.2497878 126.74896,62.1931644 126.784996,62.4245818 C130.738991,83.7039013 128.420015,105.305482 128.020208,126.765996 C127.766738,132.188056 128.436572,137.661815 128.166301,143.05384 C134.160235,144.347069 133.943531,151.35163 132.110556,155.968652 C131.785744,157.079702 130.682989,156.886936 129.790363,156.751779 C128.822987,157.770507 126.515455,156.441335 125.200379,156.441581 C124.170913,183.079443 117.916934,211.531963 130.732417,236.429009 C136.090339,236.458517 141.247918,234.605798 146.455206,233.555138 L146.739291,233.498641 L146.746595,233.496179 C147.51212,232.497392 147.886361,230.892241 147.988626,229.717183 C148.71641,209.203018 146.438827,188.642077 147.771191,168.125696 C149.403288,145.353488 154.472213,122.720131 152.127915,99.7935632 C150.506485,79.3030364 146.056705,59.1836556 143.911697,38.7543574 L143.80283,37.6973897 C143.669399,36.4378883 143.618754,35.0461837 142.99713,34.0858016 C139.378417,37.3901462 136.342127,41.3193177 134.168026,45.740128 C132.964467,47.8755687 129.740205,46.9252804 129.690533,44.5143545 C129.226933,40.2095694 129.158312,35.8885218 129.62797,31.5828074 L129.670811,31.202932 C130.25299,25.813123 131.878026,20.6687641 134.170705,15.7718249 Z M268.69492,163.610596 C264.034567,163.857523 259.368128,164.37575 254.699497,164.314695 L255.169562,166.082132 C260.821245,187.290171 266.839242,208.460373 270.387159,230.160323 L270.51604,228.125458 C270.644419,226.090362 270.767182,224.054228 270.84735,222.013939 C271.853928,202.512102 270.316791,183.035622 268.69492,163.610596 Z M147.372358,28.2585153 C147.391838,29.1398708 147.435665,30.0187644 147.504085,30.8951962 C149.657977,34.1335622 149.466595,38.4379253 149.948701,42.1632525 C152.6519,62.2815462 156.632679,82.3171204 157.973808,102.644428 C159.221682,118.905684 157.183934,135.109823 155.101142,151.207609 C152.532591,169.643696 152.801888,188.270824 153.398676,206.831482 C163.268202,197.877353 177.296009,196.306177 189.748939,193.524737 L190.341232,193.404264 C199.916433,191.438676 209.471645,188.589947 217.606597,182.993031 C211.756078,141.047648 213.133,98.5623735 207.150997,56.6539189 C206.966677,53.3537595 206.928936,50.0348897 207.202129,46.7374384 C206.939406,43.1674562 206.861003,39.5780251 206.854185,35.9986877 C204.232798,46.5727382 195.44947,56.7885841 183.941516,56.4547522 C171.697012,55.7344041 161.303988,45.6830122 153.32076,37.0671466 C151.156399,34.4969367 149.003969,31.4958966 147.372358,28.2585153 Z M255.059615,163.630291 L254.506898,163.60321 L254.540986,163.723842 L254.540986,163.723842 C254.654614,163.700865 254.770406,163.680076 254.886198,163.660016 L255.059615,163.630291 Z M270.248371,149.307033 C270.160959,149.279952 270.012188,149.279952 269.846616,149.287338 C269.607998,149.8388 269.126136,150.294249 268.566115,150.444424 L263.894263,151.709863 C260.000371,152.763924 256.10442,153.813517 252.203749,154.833969 C252.858487,157.364789 253.523452,159.895608 254.195234,162.423966 C259.515438,160.701876 265.406133,161.092578 270.83055,159.984236 C270.763834,157.062961 270.604837,154.126669 270.555165,151.200224 C270.542991,150.722618 270.640386,149.954509 270.396898,149.526141 C270.243745,149.252871 270.396898,149.353809 270.248371,149.307033 Z M91.533593,159.139809 L91.3872569,159.171814 L91.3872569,159.171814 C91.4359545,159.304755 91.4800257,159.437697 91.5214186,159.573101 C91.5238535,159.42785 91.5260449,159.28506 91.533593,159.139809 Z M126.169703,145.082435 C116.146293,143.616381 105.952441,142.750043 95.8430798,143.747846 C91.2703829,144.369965 86.6285355,145.033689 82.1471464,145.882548 C80.5885823,148.287565 82.3127179,154.139717 84.2530705,155.991056 C84.8350059,156.212625 85.8357399,155.781795 86.3933265,155.656239 C90.5771737,154.706689 94.8016834,153.941781 99.04762,153.344527 C99.1739901,153.50455 99.3590406,153.607949 99.587919,153.585792 L100.563405,153.495178 C106.419291,152.958836 112.326946,152.565534 118.195484,152.901388 L118.239068,152.935854 L118.239068,152.935854 C122.19842,153.226357 126.144136,153.853399 130.087174,154.307125 C131.643791,150.215469 131.375467,145.520897 126.169703,145.082435 Z M199.10154,11.6407786 C199.488686,12.9593653 199.954234,14.2407774 200.533004,15.486246 C201.13734,15.3180991 201.970798,15.4530105 202.415163,15.8358339 L202.604076,15.8014587 C203.123853,15.7022538 203.748095,15.5505286 203.91042,15.5330218 C211.072121,14.53645 210.526465,24.1703059 210.552518,29.0118527 C210.596346,31.4392732 210.645044,33.8691555 210.71809,36.296576 C212.767768,35.5946921 215.508221,36.8564091 217.299559,37.973121 C215.897071,33.2783027 214.24866,28.6598028 212.410329,24.1225453 L212.062261,23.2384587 C210.613928,19.5779089 209.010486,15.8712851 205.933559,13.3222474 C203.59413,12.7070219 201.327748,12.5952522 199.10154,11.6407786 Z M147.175377,9.22369807 C140.51867,6.83640634 137.881699,12.2616665 136.035576,17.6724016 C133.858797,23.6646343 133.264688,30.2624912 133.627484,36.710173 L133.851601,36.4119587 C136.300605,33.1291169 139.832079,27.7101078 144.297354,28.5810225 C144.253282,26.0900853 144.342886,23.353698 144.818174,20.7669934 C144.540841,19.0978341 144.469986,17.4114416 144.662585,15.725049 C144.764363,13.6105344 147.055094,13.9313182 148.563013,13.6324451 C149.868106,12.7584753 151.448341,12.4064255 153.03588,13.0218972 C154.233839,12.8618745 155.431798,12.7092376 156.629757,12.5566006 C156.81359,12.1503892 156.962117,11.7422084 157.116732,11.3256571 C153.801405,10.636575 150.486808,9.9263206 147.175377,9.22369807 Z" id="ðŸ–-Ink" fill="#000000"></path>
                </g>
                <g id="Head" stroke-width="1" transform="translate(95.945717, 42.661805)">
                    <g id="head/Gray-Short">
                        <path d="M68.2562816,120.74996 C62.9849669,120.78031 58.5049669,119.287621 55.0865445,116.818213 C50.82076,115.300164 45.6753147,112.958742 42.5499542,110.500711 C41.3309211,110.811194 39.8722612,109.518778 38.9394029,108.836664 C33.1387243,104.513838 28.5855776,98.186381 27.2364003,91.8482589 C25.1536183,94.4719599 22.1897506,94.5809845 19.3505649,93.2769553 C13.3990806,89.9085688 13.6216081,82.8160438 15.7642375,77.5169736 C11.2597761,67.4305378 8.13797795,40.8034093 15.0140085,30.0571376 C16.4204207,28.4492616 18.4844411,27.4874749 19.9704122,25.8385962 C21.2927532,24.3985232 22.550497,22.9255059 24.0889534,21.7859617 C28.7831688,18.2203829 36.8682578,16.3219325 41.9305818,15.4291158 C63.0628634,10.8695169 79.2995386,19.0648496 98.441659,25.9777211 C97.3399457,28.7270374 95.8159763,31.2343665 94.0694792,33.5722334 C98.8216421,35.3424613 96.638877,39.3225706 92.9520916,41.340237 L90.7572146,40.275588 C94.1787243,52.4925068 102.052923,82.8729262 98.6553995,92.6289699 C95.9461204,107.849754 84.0559763,120.859708 68.2562816,120.74996" id="ðŸŽ¨-Background" fill="#FFFFFF"></path>
                        <path d="M71.3097123,122.059962 C64.4652877,122.761115 56.3341006,121.146293 51.7712627,115.597535 C51.6348182,115.431456 51.5750826,115.243412 51.5715206,115.061819 C51.5675596,114.85989 51.6354679,114.66481 51.7528195,114.513029 C51.8761543,114.35351 52.0517381,114.242298 52.2530261,114.20622 C52.4225033,114.175844 52.615722,114.195387 52.814927,114.306907 L53.2344026,114.54001 C56.3506106,116.257679 59.5869298,117.722503 63.1184604,118.349416 C66.7546268,118.9948 70.4571219,118.922619 74.0609037,118.102944 C80.6252754,116.610333 85.9378703,112.802677 89.8482201,107.781996 C94.2119061,102.179255 96.8322324,95.067043 97.5001617,87.9544218 C98.3095283,79.3346766 96.4320256,70.7674497 94.4895417,62.4213563 C92.4484458,53.6517534 90.2174275,44.9268693 87.6257749,36.3032553 C87.5476633,36.0436628 87.5266737,35.8006782 87.5492271,35.5768929 C86.7848262,35.2780254 85.9712509,35.3609945 85.161541,35.6338238 C83.6820641,36.132329 82.2082046,37.2564669 80.9790249,38.1844 C80.5338455,38.5204752 80.1196845,38.8328591 79.7475233,39.0870225 C78.2233442,40.1278686 76.5570824,40.876788 74.6941522,40.994586 C72.7564025,41.1167906 70.856706,40.5157919 69.096876,39.7636651 C68.2028295,39.3815294 67.323133,38.9851665 66.446959,38.5903585 C63.9521398,37.4661815 61.4867681,36.3530887 58.7926025,35.6296901 C55.1826167,34.6601292 51.4554784,34.1825771 47.7168189,34.216786 C41.0444254,34.277688 34.3515644,35.9916992 30.2621097,41.6235004 C28.6055937,43.9048692 27.5255833,46.526939 28.3678742,49.3425121 C28.8260782,50.8741536 29.6908114,52.2645951 30.634593,53.5434342 L30.9584062,53.978941 C31.4761234,54.6809246 31.9258007,55.3800843 32.061392,56.1244562 C32.174979,56.7480289 32.0863811,57.4077203 31.6401795,58.1307517 C31.3594192,58.5859096 31.0020015,58.9940633 30.6426144,59.4008883 C30.3833875,59.6943323 30.1234176,59.9872347 29.8997498,60.3026295 C29.4490031,60.9384566 29.0499102,61.6232715 28.7369061,62.3374931 C28.1239796,63.7355749 27.8639869,65.2395215 27.8096076,66.7563308 C27.7437701,68.5862585 28.0015985,70.3763934 28.2573119,72.1690911 C28.4386297,73.4402322 28.6195565,74.7126484 28.6926146,76.0004768 C28.7053635,76.2252055 28.6365226,76.3926363 28.5400858,76.5165512 C28.4220781,76.6681833 28.2498802,76.7637565 28.0539113,76.7902325 C27.9944177,76.7982702 27.932814,76.7995498 27.870944,76.7940848 C27.9013414,76.9179665 27.9281793,77.0424222 27.9514754,77.167301 C27.8276057,77.0083827 27.6958223,76.8541676 27.5567275,76.7050988 C27.5478466,76.7006351 27.5390361,76.6960097 27.530303,76.6912227 C27.3868857,76.6126099 27.2654116,76.4927892 27.1888472,76.338523 C26.9918666,76.1558447 26.7833128,75.9825591 26.5645218,75.8196501 C25.4259906,74.971914 24.0965172,74.4693962 22.7628747,74.4527351 C21.4772081,74.4366733 20.188391,74.8735664 19.1974375,75.7962812 C17.2278447,77.630072 16.6509104,80.623637 16.6303226,83.1939497 C16.6094573,85.8176755 17.2179009,88.966492 19.510147,90.5955201 C20.429652,91.2489246 21.5526472,91.6415315 22.6839597,91.6528917 C23.6218092,91.6622861 24.5191658,91.3311584 25.4027178,91.015703 C25.6751884,90.9184226 25.9463645,90.8216754 26.2168708,90.7337788 C26.5242248,90.63397 26.8043195,90.6403148 27.0484614,90.7132905 C27.3236459,90.7955451 27.5571944,90.9654046 27.7316759,91.1919591 C27.9054823,91.417637 28.0194038,91.7001622 28.0547126,91.9960302 C28.0888973,92.2824791 28.0495558,92.5799267 27.9280241,92.8480782 C27.8975157,92.9156251 27.8653329,92.9811901 27.8318381,93.0452171 L28.3360228,93.8725188 C30.2664874,97.032184 32.230728,100.134184 34.8064729,102.849969 C36.2849133,104.408773 37.8520256,105.879808 39.5709954,107.167481 L39.8189231,107.351171 C39.9672775,107.459855 40.1318286,107.593849 40.3073266,107.737124 C40.8086964,108.14644 41.4096207,108.695386 41.9706467,108.717001 C42.137135,108.723469 42.2824582,108.702686 42.4146582,108.68537 C42.7341265,108.643525 43.002147,108.631278 43.2654987,108.738493 C43.4773247,108.824731 43.6971507,108.985769 43.9228956,109.318359 C44.0755989,109.543465 44.153971,109.825793 44.153971,110.112249 C44.153971,110.400018 44.0746573,110.687906 43.9334971,110.915447 C43.6414831,111.386484 43.2881492,111.678193 42.9048341,111.843855 C42.4774673,112.028556 42.0051684,112.056766 41.5142397,111.965388 C40.3048593,111.740283 38.9660315,110.740564 38.1140877,110.088134 L37.949294,109.962175 C36.0615366,108.52514 34.2724516,106.935116 32.699727,105.156885 C30.0212714,102.128736 27.6157706,98.5603091 26.3801863,94.6613157 C25.5093114,95.2322367 24.4333544,95.5032399 23.3084298,95.5459231 C21.6694936,95.6081095 19.9348387,95.1873 18.6566093,94.5823373 C15.8395512,93.2491563 14.1285193,90.7275752 13.3266433,87.8278036 C12.3954367,84.4603424 12.698092,80.5888378 13.8769564,77.5637806 C13.9111262,77.4758439 13.9468228,77.3882422 13.9834588,77.2992792 C10.3541895,68.1229253 9.23825559,57.9332219 9.54911656,48.1403663 C9.69452755,43.5565156 10.007304,38.7472747 11.0909132,34.2767132 C11.5765947,32.2729865 12.4204308,30.3647954 13.7678334,28.7873128 C14.5360271,27.8877611 15.4785881,27.1874551 16.4254686,26.4890695 C17.245577,25.8841867 18.0688257,25.2806319 18.761552,24.5253853 L19.0891108,24.1667715 C19.1601165,24.0887789 19.230934,24.0108825 19.3016324,23.933117 C20.4978647,22.6173088 21.6624894,21.3405134 23.1141459,20.2613985 C24.7976723,19.0102341 26.6554725,18.0309209 28.5858768,17.2175869 C32.744538,15.4660587 37.2204685,14.4158302 41.6482762,13.6033237 C51.2276595,11.845862 61.0611914,11.759142 70.5231263,14.2295376 C74.9222913,15.3779602 79.191685,16.9499327 83.4537923,18.5200266 C83.8495184,18.6658059 84.2451832,18.8115627 84.6409005,18.956958 C87.9530842,20.1740492 91.2670391,21.3859482 94.5810268,22.5978594 C96.121171,23.1610836 97.6613223,23.7243103 99.2013616,24.2880822 C99.5354953,24.4104476 99.8626305,24.6740326 100.048941,25.0015134 C100.230714,25.3210189 100.284881,25.6936301 100.138104,26.064668 C99.1931611,28.4540058 98.0008746,30.6956587 96.5495891,32.7889975 C97.0539176,33.1313567 97.483097,33.5866205 97.8077411,34.1195021 C98.2183458,34.7934823 98.4615906,35.5913784 98.4781186,36.4378416 C98.5334329,39.2727457 95.948386,41.1944931 93.8037089,42.5844119 C93.6038075,42.7140924 93.4059092,42.7906335 93.2146928,42.825754 C95.2927725,50.7554546 97.2820792,58.7120029 98.9723793,66.7315895 L99.0886373,67.2874864 C100.829919,75.6804891 101.953374,84.2456208 100.306563,92.7500901 C98.8886484,100.073389 95.5944894,107.141167 90.4470593,112.596738 C85.4025616,117.943547 78.6335658,121.309554 71.3097123,122.059962 Z M26.2414557,73.7783205 C25.3452441,70.9400149 24.8703114,67.8518119 25.2132128,64.9746572 C25.4290463,63.1661004 25.9739032,61.4250018 26.8610477,59.8309234 C27.3691722,58.9179499 27.9884471,58.0727577 28.6643006,57.2767143 L28.8974358,57.0093585 C29.015466,56.8728022 29.1328679,56.7472929 29.1692506,56.5899642 C29.1903937,56.4985352 29.1688701,56.3985474 29.1131899,56.2790786 C28.9898105,56.0144851 28.7605194,55.7594778 28.5458681,55.5105654 C28.4094454,55.3523679 28.2762006,55.197106 28.16433,55.0460469 C26.200124,52.3925496 24.7353092,49.2334695 25.2114574,45.8685447 C25.6759496,42.5855623 27.831891,39.5253739 30.127091,37.219158 C35.1809926,32.1409448 43.0163738,30.9740034 49.8804309,31.2541016 C53.876159,31.4170198 57.8653852,32.1198124 61.6705207,33.3474565 C63.5468966,33.9529699 65.3815503,34.6903682 67.16443,35.5355372 L67.5591893,35.7246863 C67.7722158,35.827687 67.9850288,35.9318355 68.1979872,36.0360571 C69.5915845,36.7180823 70.9904564,37.4067692 72.5032646,37.777573 C75.4576252,38.5015518 77.4617137,36.9767154 79.5681615,35.4389149 C80.2900705,34.9118893 81.0230101,34.3775733 81.8020612,33.9086683 L81.9623983,33.8140566 C83.3678202,33.0009837 85.0488227,32.4538316 86.6636612,32.4783709 C88.066343,32.4996862 89.4196633,32.9466523 90.5214606,34.0029082 C90.7475725,34.2199418 90.8777753,34.4567152 90.9388751,34.6923629 C91.0607699,34.8629172 91.1591788,35.0662973 91.2232746,35.3065679 C91.6179561,36.7845057 92.010868,38.2635032 92.4024684,39.7429505 L92.7226763,39.5370381 C93.6711956,38.9221993 94.7024562,38.2195535 95.1681747,37.1909333 C95.3474115,36.7950247 95.322025,36.1354423 95.0961244,35.6505027 C95.0171937,35.4810625 94.9128015,35.3304126 94.7685237,35.2363781 C94.6635554,35.1679638 94.5370296,35.1358521 94.390004,35.1476701 C94.0325239,35.1936026 93.7043132,35.1414215 93.425974,35.024029 C93.1050216,34.8886639 92.8490478,34.6659033 92.6829587,34.3974642 C92.5128939,34.1225994 92.4353833,33.799431 92.4769528,33.464283 C92.5126947,33.1761192 92.6369552,32.8751841 92.8827961,32.5924192 C94.5010039,30.73102 95.8637499,28.6777157 96.8994131,26.4489827 L90.0486588,23.9194845 C87.606003,23.0180309 85.1629317,22.1177325 82.7186984,21.2209015 L81.3805448,20.7301977 C76.936081,19.1033256 72.4660425,17.5134289 67.8440153,16.4660247 C58.6584864,14.384629 49.0799656,14.8738155 39.9198406,16.8330391 L39.3664875,16.9523749 C35.5226261,17.7888433 31.6270806,18.8009007 28.0989029,20.5600847 C26.367145,21.4235214 24.7210078,22.4734646 23.3073532,23.7999974 C22.6830605,24.385797 22.1186136,25.0271838 21.5539906,25.6677002 C20.7627155,26.5653341 19.9704998,27.4605533 19.0297145,28.2167019 L18.1564127,28.9145718 C16.8572539,29.9592767 15.6854652,30.9771401 14.9524142,32.5973558 C14.1859132,34.2911989 13.8200622,36.1625228 13.521546,37.9857079 C12.7687267,42.5785819 12.4715763,47.2450027 12.4999131,51.8972213 C12.5478445,59.7086421 13.737009,67.3609417 15.2393135,74.9862804 C16.444633,73.2647998 18.1377762,71.9302391 20.3109212,71.6456633 C21.7277017,71.4601976 23.1323218,71.7237866 24.3503072,72.3489797 C25.0542717,72.7103254 25.6958536,73.1924357 26.2414557,73.7783205 L26.2414557,73.7783205 Z M23.9646254,83.0538441 C22.3777094,82.440285 20.7115315,82.2393672 19.0326071,82.5327548 C18.8567087,82.5633289 18.688957,82.5267861 18.547958,82.445026 C18.4050178,82.3621402 18.2923647,82.2310351 18.231201,82.0862756 C18.1604999,81.9189435 18.1568967,81.737828 18.219293,81.5769576 C18.2734219,81.4374022 18.3765809,81.3018653 18.566293,81.2113397 C20.3842726,80.3455602 22.404929,79.9634855 24.4105338,80.235336 L24.6087466,80.2634223 C25.6340899,80.4151857 27.075927,80.7345686 28.1571805,81.3632504 C29.0066688,81.857175 29.6284426,82.5380578 29.7831153,83.427552 C29.8637909,83.8910254 29.7485009,84.3749204 29.4807859,84.7256915 C29.2219671,85.0648064 28.8263142,85.2908743 28.314156,85.2763479 C27.4107694,85.2506975 26.8758805,84.869693 26.2323305,84.3762195 C26.1542564,84.3163523 26.0741966,84.2549475 25.9909715,84.1927851 C25.3691246,83.728464 24.6896178,83.3340936 23.9646254,83.0538441 Z" id="ðŸ–-Ink" fill="#000000"></path>
                    </g>
                    <g id="face/Smile" transform="translate(37.760814, 44.083865)" fill="#000000">
                        <path d="M34.8127554,57.1020091 C33.2162863,56.4520445 31.7918322,55.3678606 30.7504188,53.982886 C30.3883575,53.5014119 30.2944812,52.9929828 30.3704337,52.5279595 C30.455837,52.0050735 30.76581,51.5311704 31.1885437,51.2132909 C31.6125868,50.8944267 32.1430108,50.7371707 32.6558203,50.8173353 C33.1014216,50.8869936 33.5449965,51.1304783 33.8960529,51.6354567 L33.9693973,51.7364404 C34.5885356,52.5723634 35.3953297,53.2582283 36.3146153,53.7003078 C37.2006572,54.1264007 38.1916054,54.3252746 39.2170751,54.2096253 C41.1701484,53.9894475 42.5163047,52.9353366 43.947122,51.5038717 C44.124476,51.3231456 44.3019435,51.136754 44.4802714,50.9473621 C44.592889,50.7756793 44.7491739,50.6653386 44.9226927,50.6074447 C45.1153544,50.5431638 45.3332998,50.5468008 45.5329212,50.6163236 C45.7254569,50.6833787 45.8975743,50.8104452 46.0129836,50.9795623 C46.1226707,51.1402944 46.1848601,51.3388571 46.1646812,51.5672535 C46.033716,53.0507326 45.2565672,54.3746744 44.1526598,55.4142485 C42.9266296,56.5688282 41.301437,57.3675742 39.7713893,57.6477194 C38.0857258,57.9563102 36.3680798,57.7352226 34.8127554,57.1020091 L34.8127554,57.1020091 Z M40.5665861,34.2164632 C42.3599585,35.3043501 45.0925072,37.84109 43.1632513,40.538094 C40.8923326,42.9161315 37.6227224,40.1895491 36.0115152,38.956422 C34.5175283,38.0007416 32.8389503,40.45868 34.2250722,41.574598 C45.8676895,50.1769329 50.5925102,34.5009305 41.4736488,32.937375 C40.4696294,32.7650779 40.0967341,33.8799135 40.5665861,34.2164632 Z M19.7029042,24.2097211 C19.9010483,21.7551799 23.6468906,21.1977976 24.0195115,23.6266764 C24.3531841,25.8024284 23.9603766,27.801134 22.9783579,29.7600219 C22.0400373,31.6314531 19.6816447,30.7583423 19.5032902,29.0542402 C19.2642133,26.7699622 19.5796472,25.7365862 19.7029042,24.2097211 Z M48.21676,23.1230538 C48.7389992,22.4404649 49.493028,21.9745032 50.3964377,22.2378213 C53.2189992,23.0609572 52.3870738,27.0600273 51.395793,29.0065907 C50.8571671,30.0636554 49.1161323,30.3317138 48.3293299,29.4009754 C47.0468872,27.8831632 46.4327396,24.8520419 48.0631043,23.3569827 C48.1072774,23.2797174 48.1564377,23.2017411 48.21676,23.1230538 Z M22.9386022,13.4693984 L23.3844579,13.391518 C24.7637486,13.1534545 26.4787379,12.9247019 27.4544631,14.0313491 C27.9719525,14.618186 28.1500696,15.7089061 27.4544631,16.2706199 C26.2309177,17.2589517 24.8781781,16.8759435 23.4119186,16.959608 C22.2035725,17.0288149 21.0422494,17.2283774 19.8783138,17.5604284 C17.3248278,18.2887603 15.2441832,19.6183865 13.0633181,21.0783683 C12.7771433,21.2698724 12.4850314,20.9046399 12.6215878,20.6375296 C13.8805191,18.1766545 16.3202477,16.155196 18.7640136,14.9229809 C20.0683053,14.265278 21.4956166,13.7196809 22.9386022,13.4693984 Z M45.6437704,12.3670381 L45.985026,12.4367382 C49.6987038,13.2114312 54.5236407,14.7589441 56.2822463,18.3992889 C56.3492573,18.9140465 56.2784539,19.0243694 56.220878,19.0964481 L56.2017082,19.1204334 C56.1542656,19.1819844 56.11641,19.266832 55.8928405,19.3368914 C55.8308,19.3221394 55.7681419,19.3065151 55.7048201,19.2899543 C54.8987061,19.0791278 54.2609139,18.7886846 53.6434635,18.4873151 L52.9739907,18.1581557 C52.1972684,17.7780821 51.4136883,17.4118413 50.5832732,17.1414685 C48.8110962,16.5645992 46.9882598,16.1582307 45.137182,15.9412392 C44.7359752,15.8942481 44.3496381,15.7591142 44.044846,15.5275167 C43.7555371,15.3076842 43.5345237,15.003321 43.433754,14.598756 C43.3031565,14.0751843 43.3406874,13.6787976 43.6221743,13.2064592 C43.8338352,12.8517432 44.1366879,12.6058787 44.4844395,12.4646949 C44.8389572,12.3207642 45.2425721,12.2868326 45.6437704,12.3670381 Z" id="ðŸ–-Ink"></path>
                    </g>
                    <g id="facial-hair/*-None" transform="translate(29.211196, 80.109389)"></g>
                    <g id="accessories/Sunglasses-2" transform="translate(11.162002, 57.119417)" fill="#000000">
                        <path d="M94.7427379,3.13595077 C94.5472841,3.1034804 94.3515929,3.07290611 94.1559016,3.04422789 C94.0031959,2.95771923 93.8238914,2.89111942 93.6153757,2.85106472 C93.1392095,2.73042662 92.6663681,2.64913218 92.1942392,2.60528532 C85.4181917,1.08344394 69.742229,3.24426436 69.0953079,9.0149845 C66.9374792,9.73383592 65.0703376,9.09011668 62.5693367,9.15410939 C60.6656217,1.21308842 27.7536285,2.33390884 26.1707617,7.12151139 C26.1648244,7.11985232 26.1588872,7.11843026 26.1527125,7.11653418 C24.6318304,6.64678031 22.389693,6.7600711 20.6488957,6.68564995 C16.9319491,6.60791067 13.2107277,6.93853965 9.57405259,7.72090975 C2.76404411,8.80096445 -6.53010348,10.0654129 -1.79385242,18.552268 C-1.79290246,18.5536901 -1.79218999,18.5553491 -1.79100254,18.5567712 L-1.79029008,18.5560602 C-0.974039016,19.3910465 0.411236641,18.718649 0.462771841,17.5883482 C-1.12959457,13.5677101 2.46694487,13.0849207 5.23417133,11.9294968 C12.1197014,9.46080036 19.1299135,9.11855789 26.2512706,9.88220419 C26.7870466,10.5117028 27.5999729,11.060618 28.4592095,11.3478742 C33.2206344,12.1366436 30.7113215,15.6614567 33.7210246,16.1741094 C33.1681493,28.4611832 48.1159695,35.168093 56.7769703,27.0910283 C60.2350534,23.7169535 61.0593791,18.718649 61.8611433,14.2133254 C62.2850619,14.1182844 62.5546124,13.8869626 62.7120679,13.5807457 C63.7316098,12.5649207 64.3721187,11.626835 66.3881662,11.3478742 C68.4042137,11.0691504 69.956207,11.6287311 70.1661476,11.8000893 C70.2191077,11.9065068 70.2758677,12.0131613 70.3418897,12.1198159 C70.4340356,12.2788496 70.55943,12.40565 70.7019237,12.5054312 C68.71105,24.7408368 78.2289126,32.4787402 87.8374962,26.1327967 C92.0125598,22.2133619 92.8948329,16.212742 93.0691501,10.8567894 C93.6350874,10.515969 93.9934589,9.85542206 93.7975301,9.02493892 C93.5275047,7.88018049 94.1606514,6.88900456 95.1690314,6.3912835 C96.4792604,5.74495716 96.2474707,3.38457429 94.7427379,3.13595077 M53.4557731,8.94057801 C52.2631171,8.67879135 51.7537784,10.5139158 52.9502372,10.7764165 C53.7974768,10.9623096 54.515543,11.3886967 55.0006815,12.1110576 L55.0517646,12.1895885 C55.702758,13.2234078 57.3488989,12.2690764 56.6933897,11.2285934 C55.9558824,10.0576931 54.8098108,9.23758687 53.4557731,8.94057801 Z M88.3871892,7.80275798 C87.9667412,7.50717704 87.3304837,7.72660186 87.0863909,8.14427058 C86.8177408,8.60420134 86.9938235,9.11628636 87.3875983,9.41716603 L87.427693,9.44654023 C87.7888838,9.70059704 88.1406558,10.1559985 88.1848318,10.622612 L88.1887301,10.6809833 C88.2360276,11.9020991 90.1376698,11.9082868 90.0901347,10.6809833 C90.043788,9.4803345 89.3471609,8.47721562 88.3871892,7.80275798 Z" id="ðŸ–-Ink"></path>
                    </g>
                </g>
            </g>
        </g>
    </g>
</svg>