<?xml version="1.0" encoding="UTF-8"?>
<svg width="365px" height="576px" viewBox="0 0 365 576" version="1.1" xmlns="http://www.w3.org/2000/svg" xmlns:xlink="http://www.w3.org/1999/xlink">
    <!-- Generator: Sketch 62 (91390) - https://sketch.com -->
    <title>peep-sitting-17</title>
    <desc>Created with Sketch.</desc>
    <g id="Introduction" stroke="none" stroke-width="1" fill="none" fill-rule="evenodd">
        <g id="variations-sitting" transform="translate(-3293.000000, -956.000000)">
            <g id="a-person/sitting" transform="translate(3243.000000, 897.000000)">
                <g id="pose/sitting/crossed_legs" transform="translate(-20.311475, 159.504800)">
                    <path d="M430.359498,186.492174 C428.401646,185.930559 425.95559,185.786189 423.813635,185.683597 C416.242886,185.238853 408.523265,188.842812 401.100064,190.467106 C397.850576,191.269073 394.409832,192.213558 390.932533,192.917163 C387.845427,193.335466 384.653951,193.649325 381.445257,193.848957 C378.851653,193.926431 375.833684,193.72812 374.948134,196.450524 C369.734967,197.459791 365.120201,197.879416 360.150738,197.021658 C360.616162,195.440728 360.881323,193.788142 360.400006,192.085318 C360.642916,191.681822 360.973507,191.136072 361.150193,190.768273 L360.552851,190.768273 C351.830332,187.282242 342.398154,184.901461 333.629807,181.289569 C322.185208,177.171326 305.329829,169.214323 292.106184,163.780885 C293.002595,158.879184 293.334776,153.898951 292.954649,149.057271 L293.486032,148.628392 C293.660599,147.677031 293.931853,146.538466 294.423501,145.676213 C295.047333,144.023627 295.061902,141.767913 295.309581,139.900095 C295.826129,136.24669 296.171025,130.745827 295.230906,126.40812 C294.820316,120.525707 290.84872,115.991012 286.566399,112.353472 C281.308464,107.161708 276.043906,102.096335 270.911002,96.7041453 C242.502682,67.7891817 240.256093,31.3706851 195.784435,20.3023262 L195.762713,20.1304573 C195.412255,19.7401826 195.268945,19.4305542 194.869746,20.0474314 C193.401424,19.4855522 191.570457,19.5326179 190.340807,18.5828437 C188.157793,16.5947169 186.608942,14.2996057 185.596241,11.5758798 C184.81612,6.42721564 185.368165,-1.50810488 180.850351,-4.80243557 C175.832413,-7.80353143 149.171086,-9.9402588 146.871783,-3.37883204 C145.445314,-2.04116296 144.796317,-0.341775907 144.350496,1.73889575 C142.864955,4.54432545 141.92775,7.65515301 140.431348,10.5036821 C137.249939,16.8927112 135.187718,15.4767756 129.570847,16.9368683 C128.961055,15.5801614 127.110221,15.8535652 125.761367,16.0505534 C109.426775,18.3424917 89.5115739,24.5971985 82.5177704,39.9263202 L83.1129934,39.8504335 C71.0408546,62.4958831 78.8698775,91.2947692 81.0290508,115.292695 C82.7755149,136.624273 80.7781936,158.057386 76.0317739,177.954783 C70.2059001,199.063196 69.8716004,222.674549 81.4306342,241.78135 C82.6054512,243.968316 84.0358936,247.059048 86.5669819,245.687005 C87.9539811,246.734083 89.5121037,247.457255 91.6641248,248.087089 C92.2574935,248.516761 92.871789,249.23861 93.4929718,249.546917 C93.5221105,249.588694 94.5220956,249.013065 94.5745452,248.997729 C96.4645834,251.690783 200.225958,260.689047 210.993745,262.085945 C220.480492,263.227948 233.01567,266.144167 240.746681,259.31198 C247.135461,257.489376 253.82066,252.744736 258.926279,248.033677 C262.024512,292.894904 263.737864,384.770479 266.502326,385.410625 C267.712109,385.819937 269.345198,386.310425 270.714449,386.702286 C270.722661,389.925225 270.962922,393.587355 270.709151,396.755825 C270.284786,400.334665 269.209306,404.559996 268.72269,408.32181 C266.631331,408.1822 266.01624,410.276621 265.7728,411.699431 C263.967529,423.452357 264.021038,432.927888 264.150573,445.846085 C285.379397,458.330644 310.259558,465.196411 334.14662,473.264996 C336.434534,474.98157 341.392341,473.124857 344.034156,472.660811 C353.20594,470.857773 363.627773,465.524548 361.312575,455.746 C359.617501,448.383399 352.500255,444.146962 346.509086,439.815337 C339.954481,435.074134 333.04465,430.336633 327.01666,424.6914 C322.180705,420.142691 318.569103,416.614089 314.53605,411.481026 C312.747203,409.093898 310.839681,405.17185 308.43336,403.412176 C310.975573,400.401297 305.838961,403.223385 303.894354,403.397369 C302.750265,398.021045 301.333862,392.85916 299.635344,387.70177 L301.286446,387.776334 C306.707292,382.721802 309.746188,358.456289 310.123666,351.257625 C312.840976,304.328947 312.776341,250.239945 301.875841,210.718025 C310.155718,215.808782 319.235318,220.060819 327.469633,225.095521 C332.661874,228.132577 337.93014,232.349448 343.750451,233.821968 C344.129519,234.909237 345.517313,235.33177 346.274652,234.26724 C347.316491,234.395481 348.658723,233.963958 348.773423,233.489864 C349.838838,231.314532 351.382656,228.97024 351.196964,226.606381 C351.196699,226.606381 349.767316,223.295393 349.767316,223.295393 C352.969917,224.595515 356.451985,227.330611 359.870742,227.581275 C366.77607,250.603514 380.381431,237.706734 393.473422,228.746811 C401.374497,223.234577 410.017283,217.147509 418.332391,211.270385 C425.387121,205.667193 439.160162,200.350362 432.408474,189.25186" id="ðŸŽ¨-Background" fill="#FFFFFF"></path>
                    <path d="M133.583067,15.530625 C140.251987,13.9123277 141.391493,-2.05226436 145.41842,0.221177721 C147.746148,2.2426614 143.938438,6.05640743 143.264636,8.33804543 L142.969016,8.91757064 C141.602792,11.5750359 140.057746,14.2236381 137.365096,15.7558806 C135.634391,17.5753745 130.461074,15.7889287 131.221716,18.6868469 C133.878005,27.4205236 147.975161,33.468054 156.283445,36.1875127 C169.197145,41.0313006 190.087921,39.3923813 193.122015,23.1554732 C186.038754,21.8605181 180.801896,9.09788641 185.167445,3.78428727 C185.316237,8.94586534 186.728442,14.2726837 190.785815,17.7696971 L191.009703,17.9749408 C191.723627,18.6254977 192.648181,19.402239 193.569717,19.2576529 C194.468296,18.0079075 196.212768,18.7188374 196.726393,20.0378515 C237.056026,26.9996235 246.040495,70.435613 271.438463,96.0023847 C276.511702,101.336077 281.815279,106.442928 287.050549,111.614552 C292.39728,115.850785 296.180897,121.756605 296.444593,128.690881 C296.922477,132.547722 296.685785,136.407999 296.174543,140.270921 L296.139059,140.619918 C295.902149,143.013887 295.761463,145.58535 294.62043,147.7107 C294.423452,148.430883 294.503143,149.341159 293.879115,149.84957 C294.151813,154.25686 293.892353,158.743464 293.145743,163.137534 L295.091604,164.004719 C316.503435,173.527572 338.162447,182.503487 360.488881,189.642077 C362.396972,189.295998 362.241296,191.51154 361.317565,192.518581 C361.56114,193.703023 361.587615,194.935055 361.30168,196.106278 C365.39003,196.692947 369.542715,196.205158 373.578379,195.46118 C374.855029,192.653681 378.247073,192.803587 380.869738,192.7248 C384.12808,192.520696 387.380598,192.20317 390.615378,191.751866 C398.585569,189.97388 406.412263,187.634342 414.305675,185.578488 C419.587806,184.094498 425.284015,184.164824 430.582826,185.530899 C431.482993,186.538204 432.314325,187.614249 433.015926,188.756389 C437.859623,196.255919 433.08688,203.128329 426.325562,207.067658 C415.478011,214.745648 404.627548,222.413855 393.731546,230.021254 L392.939959,230.585112 C379.97634,239.850169 365.392232,251.57818 358.468799,229.027432 C356.141865,228.754852 354.10272,227.195248 351.93464,226.27519 C352.517896,228.98143 350.776336,231.714901 349.575671,234.034874 C349.058604,235.356268 347.645341,235.792238 346.340362,235.779812 C345.223095,236.874364 343.126234,236.443417 342.395509,235.145289 C336.469228,233.451378 331.57311,229.496186 326.327515,226.42351 C318.869096,221.900156 311.045049,218.043844 303.47914,213.71164 C316.047864,265.674029 312.973791,319.800404 309.629139,372.693955 L309.605432,373.171862 C309.190942,380.893919 307.417522,384.547205 301.003149,389.280644 C302.120416,392.68433 303.120131,396.101499 303.882362,399.602742 C304.151618,400.414932 305.390407,399.650596 305.400468,400.76577 C307.679216,400.233299 312.310579,400.803048 310.694778,403.95081 C315.270013,407.784649 318.367649,412.978482 322.378161,417.34955 C329.441566,425.803508 338.674639,432.095594 347.727679,438.29541 C368.539028,448.884273 369.731751,467.234406 345.382478,473.503226 L345.138375,473.560272 C341.785301,474.366047 337.747082,476.208125 334.496537,474.657264 C329.634043,473.722401 324.80835,471.829937 320.050963,470.388248 C300.895129,464.058884 282.159461,456.64713 264.005725,448.129191 C263.347543,447.820125 262.975033,447.112897 262.957824,446.405404 C263.160361,440.560921 261.571036,408.533914 267.64002,407.8444 C268.995302,401.301413 269.208165,394.546918 268.961943,387.869095 C266.993223,387.2507 265.002528,386.654249 262.963383,386.267718 C260.983544,385.645093 257.887496,385.505498 256.561867,383.903857 C256.085308,383.732007 255.735831,383.306348 255.807315,382.634811 C256.879573,372.598777 257.692372,362.536304 258.285424,352.460611 C260.316361,318.670425 259.626938,284.774749 257.313772,251.021577 C252.547119,255.137514 247.115401,258.741339 241.068392,260.658391 C237.730622,263.997831 232.37886,264.714049 227.822688,265.118557 C221.963655,265.480764 216.207876,264.312184 210.425622,263.585127 C200.607062,262.350922 190.856782,263.443493 181.109652,264.653887 L177.778656,265.068853 C153.915209,267.682293 128.125668,268.222695 105.884376,258.038341 C101.696743,258.409801 96.4980094,253.890677 93.8856697,250.870878 C92.7321312,251.582072 91.5987141,250.192731 90.679484,249.461708 C89.1624365,249.001679 87.4415276,248.340718 86.0648005,247.375715 C82.5721496,248.516798 80.6881515,243.989214 79.3614631,241.527266 C58.3046862,205.522066 81.7548503,169.682107 79.991051,131.501288 C81.0590735,101.567678 67.3852607,70.3819429 80.6007822,41.6726974 C83.2742805,29.523702 98.910459,21.1273799 110.679888,18.0396337 C114.472506,17.4143644 128.830446,12.2308424 130.411565,16.5897492 C131.159763,15.6086184 132.437207,15.5351196 133.583067,15.530625 Z M308.248475,405.353078 C306.275248,405.564638 304.350973,405.68602 302.400767,406.043026 C295.281588,407.209511 288.490795,409.961633 282.372916,413.785567 C280.391749,415.018958 278.623333,416.57339 276.349768,417.260693 C271.677476,418.954754 267.085627,414.748691 267.428037,410.201224 C266.125606,421.629128 266.348941,433.388122 267.02503,444.87394 C285.300077,453.128984 303.984483,460.489396 323.008388,466.883775 C327.292492,468.676211 332.365145,469.25033 336.299428,471.674271 C343.008456,471.251681 349.761673,468.899671 355.396632,465.221977 C364.743598,458.746147 358.538396,448.474944 350.789964,443.955773 C333.732936,436.269824 319.214086,420.715985 308.248475,405.353078 Z M270.877214,388.452697 C270.520364,391.840455 273.098177,397.117427 272.734429,403.869354 C272.454785,405.977758 271.79627,408.186347 272.024973,410.302967 C273.074564,418.15402 281.588831,408.176805 285.107191,407.08351 C290.101771,404.340333 295.529612,402.472852 301.107888,401.451648 C301.073928,399.640886 299.873372,398.918118 299.715774,397.129089 C299.489459,394.492988 299.500867,391.960519 299.38174,389.298974 C292.1264,392.593438 278.57298,390.26399 270.877214,388.452697 Z M309.968782,404.840946 C309.842303,404.925342 309.708781,404.996797 309.571739,405.06097 C310.580056,406.280274 311.453497,407.633319 312.649503,408.681941 L312.140321,407.892542 C311.459196,406.839116 310.762436,405.790072 309.968782,404.840946 Z M84.6324299,123.936128 C84.2668991,125.419612 83.601092,126.814574 82.6037076,128.001044 C87.7542961,169.699271 61.2549067,204.461006 85.6186733,243.230844 C85.9266423,243.374066 86.2075545,243.552168 86.4781216,243.775193 C86.6213629,243.680064 86.7646043,243.57965 86.9051931,243.479236 C98.3247139,223.302368 114.580488,205.897718 127.532692,186.589431 C130.018725,181.742871 134.111185,176.864601 135.678086,171.264936 C109.649271,161.002627 99.2520692,146.028789 84.6324299,123.936128 Z M427.17816,187.184523 C426.074512,187.578831 424.846471,187.253329 423.668717,187.232158 C419.487292,187.142975 415.400881,188.232482 411.401545,189.333368 C399.769566,192.51006 388.076185,195.322348 376.158898,197.203645 C375.918054,197.452403 375.687796,197.706454 375.478712,197.973736 C375.68515,198.323056 375.716909,198.759706 375.41731,199.193444 C373.619448,202.622599 375.072717,206.82105 373.766601,210.491553 C371.874254,217.922534 366.840611,226.304088 359.32892,228.941451 C361.834493,231.325028 363.629444,234.392955 366.210181,236.693171 C372.552587,241.033997 379.537597,234.564439 384.715482,231.095589 C394.573684,224.141747 404.457822,217.236597 414.368956,210.359235 C418.809223,206.684763 428.631695,202.053366 430.756417,197.185121 C432.117583,193.452694 429.640064,189.816594 427.17816,187.184523 Z M359.239071,196.658979 C354.99576,205.300219 352.546092,214.487333 350.095628,223.765073 C352.644323,224.464986 354.992043,225.561753 357.497463,226.298921 C361.026078,227.091574 366.00798,220.282684 367.777199,217.579737 C369.601108,214.557086 370.878111,211.23587 371.470417,207.756123 C371.970333,204.348243 371.437762,200.809047 372.922376,197.652438 C368.325434,198.121424 363.662119,198.219713 359.239071,196.658979 Z M106.968897,178.829734 C110.953722,177.715097 101.888824,186.716202 101.366707,187.676868 C95.4725761,194.625702 90.0723108,201.964825 84.7133491,209.326686 L83.0887744,211.56119 C82.9327164,211.787592 81.856866,213.375201 82.6348151,213.173328 C82.7060249,213.154778 82.7392384,213.248062 82.6826426,213.287018 C77.7266545,214.16235 104.579119,179.441645 106.968897,178.829734 Z M204.113981,174.58082 C204.436344,173.611477 202.906444,173.196799 202.584082,174.16086 L201.568291,177.215297 C197.734997,188.756459 193.925222,200.313413 189.343451,211.584888 C188.960316,212.530459 190.492857,212.942496 190.87335,212.007489 C195.856753,199.741473 199.928557,187.137375 204.113981,174.58082 Z M248.67293,170.540209 C247.275636,177.16132 243.744838,183.130928 241.604456,189.459931 C245.624386,188.575163 248.721076,184.834758 251.06436,181.617614 L251.134686,181.510509 C252.240128,179.811495 253.525077,177.157274 256.035571,178.356138 C259.846516,180.566606 257.116476,188.406284 257.045315,192.122149 C256.562003,197.215698 254.90361,201.980459 253.773236,206.928349 C256.6784,204.945869 257.513284,201.037112 258.929095,197.990958 L264.378593,184.936877 L264.378593,184.936877 C268.384767,179.455963 266.524266,195.869152 266.317397,197.418352 C265.991485,200.820736 264.555834,204.243701 265.119301,207.669834 C267.378462,205.242198 268.80168,202.191822 269.997395,199.096587 C271.656317,194.791757 273.170272,190.431513 274.74851,186.098184 C275.294253,184.709946 277.363211,185.197056 277.063224,186.726202 C276.961429,191.644169 276.880628,196.561967 276.801995,201.479866 L276.743132,205.168314 C276.73255,205.867578 276.386005,207.909958 277.59574,207.345533 C283.948372,200.68748 285.577137,187.374539 284.750718,178.430023 C272.262904,178.731103 259.522191,177.113823 248.67293,170.540209 Z M359.798279,195.378647 C359.746983,195.541151 359.687992,195.703655 359.629002,195.866158 C359.664909,195.873545 359.703381,195.880931 359.739288,195.89078 C359.762371,195.718428 359.78289,195.548538 359.798279,195.378647 Z M82.6461418,195.378647 C81.2609731,194.356952 104.543144,164.507348 103.034796,173.124169 C96.5394175,180.798173 88.9648312,187.522985 82.6461418,195.378647 Z M288.259852,129.418833 C266.486254,124.311585 247.312062,143.391606 225.446196,140.509007 C225.699402,147.342745 226.050974,154.22278 225.912837,161.059693 C254.9504,163.451277 251.646525,175.792006 285.073433,174.549652 C289.393049,171.660704 291.167082,153.95505 290.802253,148.609967 C291.081443,142.290261 285.635259,139.45343 280.210287,138.344942 C278.249862,139.526712 274.732817,136.000714 277.643759,134.760212 C281.474991,133.609395 285.059646,131.799834 288.259852,129.418833 Z M127.629361,17.4125138 C119.883203,18.1749023 112.210892,20.2832263 105.0915,23.5409448 C78.774257,31.1275826 74.9795239,61.8901983 78.1440513,85.2019584 C79.4552815,102.929738 84.5181017,120.267869 95.1625172,134.683775 C123.500865,177.839564 170.437295,171.006069 214.896045,165.297929 C216.49869,164.184461 219.214318,164.975115 220.758732,163.504229 C220.597277,163.448753 220.451702,163.372145 220.327302,163.277044 C221.069468,162.698781 221.643561,161.684376 221.81481,160.606307 L222.135074,160.638007 L222.135074,160.638007 C222.44925,153.945049 222.198068,147.383383 222.299441,140.742994 C207.690896,136.742436 192.023892,134.697776 177.21869,130.713068 C175.535847,131.885181 173.59547,130.536339 171.951536,129.899431 C167.690088,128.089352 163.390753,126.369985 159.059773,124.733018 L157.976373,124.325488 C155.153108,123.268816 152.331934,122.185011 149.535159,121.055517 L148.487555,120.629779 C146.885441,119.975435 142.839525,117.553544 141.091836,119.065641 L141.232875,119.369174 C142.269165,121.627294 145.839236,129.982062 141.450479,128.329745 C137.886812,125.830717 136.039073,108.404881 132.509286,108.250872 C131.295459,111.495117 130.425717,114.862466 130.226941,118.330462 C130.155477,119.110814 129.12825,119.768856 128.511013,119.039753 C124.324552,113.534229 130.648313,107.537354 130.81718,101.726189 C131.216054,94.969038 128.222246,88.6467078 126.730768,82.1790852 L126.639034,81.7330367 C125.764533,77.5371398 124.403619,72.4498453 124.764717,68.6867099 L125.633227,71.9533482 C126.504664,75.221943 127.397169,78.4911693 128.421287,81.7138855 C130.962755,89.7630813 135.551531,98.0558399 133.001593,106.668506 C138.117085,106.83863 138.982063,114.901827 140.903648,118.584327 C144.012592,114.555503 165.890074,124.215594 170.882224,125.765203 L171.845055,124.674296 C187.480157,106.970125 198.767035,94.98856 223.000052,108.992919 C218.813855,95.5068839 218.409422,81.182908 217.695313,67.1788395 C217.940143,64.5147063 216.398111,57.4870478 218.572731,56.0328035 C218.949901,56.0877504 219.317014,56.2016068 219.663482,56.3532392 L219.663062,57.7336266 C219.673476,60.4075782 219.798391,64.8415901 220.921246,65.8487542 L221.436419,71.1434657 C222.785862,84.911008 224.31607,98.6681451 228.432896,111.935485 C238.315295,117.452896 247.332715,124.361415 255.815745,131.814648 L256.782046,131.462487 C267.263788,127.630135 279.875583,122.717757 290.592196,127.500786 C290.413006,124.800462 289.369369,122.216107 287.913623,119.932376 C285.485703,119.330866 283.896822,116.773985 282.159455,115.071687 C276.650912,109.162251 270.996,103.388069 265.614239,97.3594933 C242.650242,72.6883252 232.880333,32.1768575 196.818326,22.6076396 C194.434343,42.5433341 168.895528,45.7244439 153.505645,38.9017796 L152.921543,38.6783388 C143.354607,34.9908555 132.54315,29.4254696 129.183303,19.2862567 L129.043676,18.9927545 C128.6982,18.2776996 128.286219,17.5487844 127.629361,17.4125138 Z M133.30544,130.860745 C133.333471,130.829917 133.3877,130.871284 133.36386,130.905538 C128.879912,136.524701 125.231399,144.1888 129.687578,150.901178 C130.511224,152.412287 128.586239,153.86411 127.353913,152.712137 C121.168967,145.697537 128.031116,136.19007 133.30544,130.860745 Z M289.303061,132.130252 C286.837373,133.88825 284.193695,135.34846 281.392967,136.500432 C281.401866,136.822514 281.244554,137.167061 281.102424,137.41992 C284.789177,137.712484 288.62853,138.66358 291.216455,141.348641 C291.342095,140.366461 291.465118,139.381668 291.559348,138.396876 C291.797541,135.86306 291.363035,133.595686 289.303061,132.130252 Z M119.757384,107.290349 L119.785983,107.154957 C119.805976,107.001359 120.039579,106.990748 120.032787,107.154957 C119.94698,109.16367 118.483538,110.592476 117.243967,112.022874 C115.404603,114.144862 113.564975,116.266318 111.724822,118.38751 C108.648254,122.084208 104.115873,125.800538 105.134995,131.156042 C105.154199,133.058111 102.767129,133.465849 101.79878,132.067019 C97.9472162,124.731453 110.071183,118.490174 114.157928,113.75755 C116.076942,111.709255 119.101035,110.202069 119.757384,107.290349 L119.757384,107.290349 Z M177.484377,129.313522 C177.541829,129.404793 177.582866,129.50367 177.604752,129.605082 C178.250398,129.673536 178.893309,129.74706 179.53622,129.825654 L177.484377,129.313522 L177.484377,129.313522 Z M81.0477792,112.157074 C81.1628402,112.923543 81.2705767,113.69178 81.3736855,114.460901 L81.4753025,115.229871 L81.4911369,115.162784 C81.5437479,114.963163 81.6430548,114.789751 81.7728486,114.651159 L81.8172201,114.606263 C81.5499282,113.793884 81.2935268,112.977575 81.0477792,112.157074 Z M258.05336,104.222968 C259.598359,104.058409 252.598047,109.085003 252.211341,109.707045 C251.646918,110.197076 250.987381,109.326373 251.589589,108.901957 C253.764418,107.369373 255.907977,105.796431 258.05336,104.222968 Z M244.434257,89.4361032 C245.509253,88.9964445 246.239264,90.7842497 245.219688,91.2822492 C241.505729,93.0968596 237.578574,94.3803581 234.156567,96.7676023 C234.006481,96.8721953 233.818211,96.6283201 233.960607,96.5161059 L234.371797,96.1913726 C237.523717,93.6914314 240.672258,90.974383 244.434257,89.4361032 Z M82.3301807,66.833325 C83.3681376,71.7149178 88.9841642,73.3182016 93.3426305,74.618578 L94.7044347,75.136545 C98.5532453,76.6076326 102.540482,78.2625055 105.309429,81.3710228 C106.394746,84.8773095 98.6506832,78.7694729 97.5695994,78.4601885 C92.2813904,75.1853338 82.7262606,74.6289406 82.3301807,66.833325 Z M196.976881,21.2535095 C197.006054,21.5017371 197.020641,21.7551906 197.027934,22.008644 C197.3537,22.008644 197.677036,22.0112569 198.002802,22.0217086 C197.623552,21.7996102 197.275905,21.5461568 196.976881,21.2535095 Z" id="ðŸ–-Ink" fill="#000000"></path>
                </g>
                <g id="Head" stroke-width="1" transform="translate(86.511840, 45.072000)">
                    <g id="head/No-Hair-3">
                        <path d="M100.015541,48.0977768 C91.1935904,24.921504 75.2911287,7.95265392 48.4819872,18.6106795 C47.7129095,18.0878443 46.7093722,17.9476203 45.7477116,18.5598483 C31.1437608,27.7167259 20.6271809,42.3974275 16.0696369,58.9516219 C13.2959921,59.4782131 10.6008349,60.3966803 8.19354888,61.9028363 C2.96171403,65.1763155 -0.558189435,70.3851363 -3.85767577,75.4582403 C-4.84992896,76.9834267 -3.93114815,79.5084603 -2.06650455,79.8547635 C-1.25655313,80.0055043 -0.45387371,80.0951475 0.344292046,80.1186851 C0.149953855,80.8230603 -0.105820279,81.5036475 -0.431556163,82.1278947 C-1.61087553,84.3875043 0.61711779,86.7865867 2.70518761,86.1688499 C2.93688889,86.2912955 3.17962356,86.3919563 3.43113479,86.4675771 C3.45972131,87.7476219 4.11846509,89.4611091 5.4221609,89.7197723 C7.5305422,90.1714939 10.3325228,88.5601699 9.835017,86.2054083 C10.4719447,86.3173371 11.1066157,86.3313595 11.725238,86.2537355 C11.7944475,87.4799443 11.7728822,88.7594883 11.9423953,89.8905451 C12.4965726,95.2210603 17.8302155,98.8017803 22.9166102,97.1801899 C23.2285543,98.8410931 23.5949132,101.174821 25.2331214,102.07576 C27.1484183,107.441081 30.4556782,113.564112 35.8725732,116.008768 C35.3903637,117.242488 35.6519053,118.743386 37.1043012,119.568955 C47.019561,125.213722 58.9205811,127.123773 70.1305094,125.025171 C74.6105689,124.758745 78.9755301,123.74788 83.1652107,121.59419 C86.2204578,120.023681 89.0292089,118.029245 91.7710073,115.973211 C94.5143103,113.916425 97.4474378,111.913726 99.637065,109.24321 C102.015263,106.342827 103.122364,102.930376 103.840788,99.2983235 C107.133002,82.8122379 105.995892,66.6246652 100.015541,50.920078 C92.6128014,31.4802513 107.415615,67.5386156 100.015541,48.0977768 Z" id="ðŸŽ¨-Background" fill="#FFFFFF"></path>
                        <path d="M57.3658755,14.094415 C61.8807905,13.7761566 66.4779545,14.5361206 70.7774675,15.8955422 C77.6347219,18.0630046 83.9322823,21.888115 89.1061919,26.8678198 C94.4385811,31.9997678 98.3822672,38.3271254 100.780275,45.315539 C103.672027,53.7435022 104.104837,62.7423774 104.918801,71.5401814 C105.32997,75.9852071 106.007507,80.362437 106.711906,84.764401 L106.823315,85.459667 C107.511398,89.7485182 107.89857,94.0861974 106.947942,98.3682878 C105.367659,105.485157 100.630321,111.526307 95.0070516,115.990188 C83.4553388,125.160337 65.4724111,130.751017 52.0224529,122.312788 C49.9416551,121.007202 51.9133728,117.668619 53.9447711,119.029042 C55.3743479,119.986822 56.888932,120.826413 58.5130978,121.406089 C65.2991366,123.827708 72.7519435,122.96508 79.4587426,120.712481 C86.0679964,118.492685 92.4099411,114.741944 97.2867013,109.736949 C102.409205,104.479801 105.248047,97.9861774 104.837806,90.5973742 C104.593316,86.2011014 103.59028,81.8862086 103.033595,77.525743 C102.540469,73.6637404 102.244812,69.7807976 101.904011,65.9031771 L101.779097,64.5084272 C101.056541,56.6081369 100.018773,48.491141 96.4190753,41.3199062 C93.3911609,35.2867686 88.9574918,29.9194446 83.6263564,25.774323 C78.0449636,21.4346406 71.3785367,18.3995422 64.3838664,17.2674838 C56.1584712,15.9363574 48.28464,18.3569742 41.4231226,22.8631726 C35.3377043,26.8595566 30.1058695,32.2000878 26.0942277,38.2597678 C24.1488397,41.1979614 22.4915738,44.3357238 21.0604924,47.5536142 C19.7119107,50.5854574 18.7820965,53.7630334 17.6975641,56.8880254 C18.5900152,56.861483 19.4972611,56.8957878 20.4185495,56.9974502 C25.1438512,57.5202854 29.5464262,59.9656918 32.3491591,63.8216014 C35.7742757,68.5333782 34.8484736,74.3171174 36.1862726,79.6756774 C36.2898361,80.0915918 36.1138033,80.4987422 35.7569733,80.7288598 C33.7285841,82.037951 31.0138676,82.0815206 29.0506758,80.6074158 C27.3467687,79.3281222 26.5468476,77.0151774 27.2366855,74.994199 C27.326708,74.7307782 27.7108707,74.7773526 27.7216533,75.0598038 C27.8512957,78.4990478 31.0467171,81.1475286 34.1789472,79.5109142 C32.8353807,74.890283 33.5425209,69.7297894 30.7944536,65.5561222 C25.9304821,58.1693222 15.8650176,57.8640846 8.79537037,62.0282366 C5.07473019,64.2194077 2.12975147,67.514175 -0.0631702453,71.1994663 L-0.694940879,72.2693045 C-1.53552466,73.6987503 -2.42572303,75.3158378 -2.60011961,76.8899774 C-2.70067395,77.7984286 -2.36490771,78.6520422 -1.32124894,78.194311 C-0.476943534,77.8242198 0.176785064,76.9605902 0.678302975,76.2181542 C1.5336229,74.9518734 3.49911108,76.0458563 2.79261932,77.3942951 L2.76862963,77.4383534 C1.74041761,79.2573449 1.10738532,81.2618286 0.991135905,83.3503458 L0.961593987,83.9286904 C0.942210124,84.3502023 0.928278309,84.9492736 1.01757984,84.9711366 C1.12465392,84.9974286 1.86865574,84.1398086 1.99253066,84.021119 C2.58933698,83.4487046 3.20394718,82.9809574 4.0347116,82.8284638 C5.12680363,82.6285912 6.22866032,83.977859 5.28067293,84.8624189 L5.24111293,84.8980198 C4.39505222,85.632443 4.43266606,87.0970326 5.36724469,87.7838798 C6.68625208,88.7532302 8.31013098,87.1710431 8.50156858,85.8683575 L8.50800061,85.820243 C8.6772629,84.4127446 10.6349381,84.362915 10.7412599,85.820243 C10.9722089,88.982795 7.20154645,91.6335294 4.33261324,90.0379806 C3.19817972,89.4074734 2.47699696,88.252879 2.25106315,87.0154022 C1.88896721,87.2064574 1.49828476,87.338919 1.08528476,87.3754774 C-0.25928476,87.4944174 -1.2151779,86.5504094 -1.43258591,85.2833854 C-1.68585246,83.8072774 -1.53564784,82.2267526 -1.14621919,80.6938038 C-1.87642927,80.8695846 -2.64450395,80.8024774 -3.41659077,80.3575166 C-5.75241044,79.0116166 -5.08163024,76.0178342 -4.19971099,73.9966054 C-0.43456527,65.3693238 7.36604432,57.5410686 17.0302945,56.9195758 C17.0832046,55.3973942 17.28983,53.9583454 17.6278531,52.4341606 C20.9333576,37.525595 31.6417681,23.7205422 45.5827122,17.268235 C49.3079872,15.5439806 53.2586946,14.3841278 57.3658755,14.094415 Z M20.8068247,73.6484994 L20.9393132,73.6186842 C22.4454488,73.2946446 26.4090505,72.913976 25.9313347,75.444869 C25.9087664,75.563809 25.7354919,75.5492858 25.7046486,75.444869 C25.2367324,73.853577 22.0581118,75.1261098 21.1300529,75.5092218 C19.8506808,76.037065 18.5886109,76.815809 17.5439491,77.721005 C15.2567767,79.7031714 13.7236364,82.4966338 13.4904306,85.5304802 C13.2592308,88.5400378 14.1336273,91.7907306 16.3077075,93.9677082 C17.373433,95.0346626 18.7338004,95.7590698 20.2619254,95.812405 C21.6348307,95.859981 23.1516716,94.7927762 24.4185059,95.4177746 C24.6682618,95.5409714 24.8661106,95.8792618 24.8435423,96.1577066 C24.8009133,96.6847986 24.5646984,97.0952042 24.2131343,97.4134626 C26.3340536,101.272878 28.069807,105.357903 30.7752454,108.86751 C32.1328544,110.628323 33.6712606,112.258927 35.4132831,113.646644 C36.2412891,114.306448 37.1415138,114.885874 38.0698234,115.394937 C39.1576158,115.992141 40.0989649,116.365738 40.8753146,117.377354 C41.5373183,118.239982 40.8750639,119.907896 39.7837609,120.056634 C37.2137324,120.406192 34.7161732,118.331378 32.8294628,116.777145 C30.9445077,115.224164 29.3153268,113.308604 27.9690019,111.276107 C25.3836771,107.373123 23.6150742,102.768767 22.9079339,98.1105762 C22.0869491,98.3704914 21.1626516,98.4498682 20.467297,98.4513706 C18.6171974,98.4556274 16.8506006,97.7910658 15.3967002,96.6680218 C10.0740906,92.557205 9.48255021,84.1169722 13.2386686,78.7944698 C15.0361088,76.2476514 17.7673753,74.3658954 20.8068247,73.6484994 Z M20.8401756,83.437637 C22.0744112,83.3294642 23.3076437,83.524025 24.4676546,83.9441962 L24.9458549,84.1173039 C25.9560262,84.4861234 27.0312932,84.9197977 27.760872,85.6759626 C28.8754956,86.831809 27.7656364,88.8345082 26.1778307,88.3915506 C24.4222673,87.9017682 22.9954488,86.4254098 21.2403869,85.8061706 C19.6716389,85.2527866 17.8947609,85.3311618 16.5025472,86.2841842 C16.3187409,86.4101354 16.0770092,86.1617386 16.1971228,85.9789466 C17.2620961,84.3596098 18.9434349,83.6036522 20.8401756,83.437637 Z" id="ðŸ–-Ink" fill="#000000"></path>
                    </g>
                    <g id="face/Smile" transform="translate(39.870674, 46.574400)" fill="#000000">
                        <path d="M36.7578944,60.328009 C35.0722236,59.6413244 33.5681791,58.4958892 32.4685774,57.0326699 C32.0862863,56.5239948 31.9871646,55.9868418 32.067361,55.4955467 C32.1575361,54.9431201 32.4848286,54.4424437 32.9311823,54.1066054 C33.3789185,53.7697269 33.9389796,53.6035867 34.4804419,53.6882802 C34.9509409,53.7618739 35.4193003,54.0191143 35.7899717,54.5526217 L35.8674142,54.6593105 C36.5211464,55.5424593 37.3730196,56.2670723 38.3436696,56.7341274 C39.2792185,57.1842925 40.3255353,57.3944019 41.4083024,57.2722189 C43.4705023,57.0396021 44.8918742,55.9259388 46.4026374,54.4136027 C46.5899009,54.2226665 46.7772844,54.0257446 46.9655762,53.8256529 C47.0844862,53.6442708 47.2495035,53.5276964 47.4327174,53.4665318 C47.6361441,53.3986193 47.866267,53.4024617 48.0770421,53.4759123 C48.2803356,53.5467557 48.4620699,53.6810008 48.5839276,53.8596723 C48.6997435,54.029485 48.7654076,54.2392656 48.7441012,54.4805653 C48.6058184,56.0478541 47.785247,57.4465926 46.6196595,58.5448977 C45.3251257,59.7647059 43.6091266,60.6085773 41.9935885,60.9045495 C40.2137398,61.2305742 38.4001214,60.9969962 36.7578944,60.328009 L36.7578944,60.328009 Z M42.8332164,36.1495355 C44.7267922,37.2988829 47.6120202,39.9789369 45.5749685,42.8283092 C43.1771637,45.3406948 39.7248663,42.4600731 38.023634,41.15728 C36.4461716,40.1476081 34.6738043,42.7444087 36.1373747,43.9233709 C48.4305154,53.011698 53.4193322,36.4500738 43.7909606,34.7981847 C42.7308423,34.6161536 42.3371117,35.7939723 42.8332164,36.1495355 Z M20.8037905,25.5774586 C21.0130058,22.9842471 24.9681444,22.3953754 25.3615852,24.9614746 C25.7139016,27.2601466 25.2991463,29.3717698 24.262258,31.4413258 C23.2715094,33.4184842 20.7813432,32.4960467 20.5930232,30.6956707 C20.3405881,28.2823415 20.6736466,27.1905845 20.8037905,25.5774586 Z M50.9108385,24.4293996 C51.4622574,23.7082476 52.2584171,23.2159612 53.2123042,23.4941556 C56.1925744,24.3637948 55.3141658,28.588794 54.2674979,30.6453292 C53.6987766,31.7621132 51.8604627,32.0453156 51.0296982,31.0619948 C49.6755999,29.4584332 49.0271372,26.2560676 50.7485974,24.6765444 C50.7952386,24.594914 50.8471457,24.5125324 50.9108385,24.4293996 Z M24.2202809,14.2303572 L24.6910485,14.148077 C26.1474061,13.896564 27.9582193,13.6548879 28.9884625,14.8240556 C29.5348662,15.444046 29.7229355,16.5963868 28.9884625,17.1898348 C27.6965523,18.2340028 26.2682293,17.8293564 24.7200435,17.9177476 C23.444182,17.9908644 22.2179707,18.2017012 20.989001,18.5525116 C18.2928407,19.3219908 16.0959415,20.7267348 13.793222,22.2691988 C13.4910575,22.471522 13.182624,22.0856556 13.3268104,21.8034548 C14.6560836,19.2035516 17.2321304,17.06789 19.81244,15.7660604 C21.1896082,15.0712004 22.6966695,14.4947796 24.2202809,14.2303572 Z M48.1940849,13.0657186 L48.5544079,13.1393565 C52.475585,13.9578161 57.5701119,15.5927563 59.4269784,19.4387638 C59.4977336,19.9826029 59.422974,20.0991585 59.3621811,20.1753092 L59.3419403,20.2006496 C59.2918468,20.2656779 59.2518761,20.3553191 59.0158148,20.4293365 C58.9503078,20.4137511 58.8841487,20.3972441 58.8172889,20.3797477 C57.9661338,20.1570104 57.2927054,19.8501586 56.6407554,19.5317631 L55.9338762,19.1840077 C55.1137551,18.7824617 54.286393,18.39553 53.409579,18.1098824 C51.5383829,17.5004226 49.6136967,17.0710962 47.6591912,16.8418457 C47.2355672,16.7921997 46.8276439,16.6494314 46.5058217,16.4047497 C46.2003479,16.1724977 45.9669855,15.8509394 45.8605853,15.4235184 C45.7226908,14.8703673 45.7623187,14.4515865 46.0595335,13.9525632 C46.2830208,13.5778074 46.6027952,13.3180527 46.9699772,13.1688927 C47.3443033,13.0168305 47.7704699,12.9809819 48.1940849,13.0657186 Z" id="ðŸ–-Ink"></path>
                    </g>
                    <g id="facial-hair/*-None" transform="translate(30.843352, 84.635200)"></g>
                    <g id="accessories/*-None" transform="translate(11.785671, 60.346400)"></g>
                </g>
            </g>
        </g>
    </g>
</svg>