<?xml version="1.0" encoding="UTF-8"?>
<svg width="340px" height="469px" viewBox="0 0 340 469" version="1.1" xmlns="http://www.w3.org/2000/svg" xmlns:xlink="http://www.w3.org/1999/xlink">
    <!-- Generator: Sketch 62 (91390) - https://sketch.com -->
    <title>peep-sitting-5</title>
    <desc>Created with Sketch.</desc>
    <g id="Introduction" stroke="none" stroke-width="1" fill="none" fill-rule="evenodd">
        <g id="variations-sitting" transform="translate(-780.000000, -954.000000)">
            <g id="a-person/sitting" transform="translate(831.000000, 897.000000)">
                <g id="pose/sitting/mid-1" transform="translate(-20.311475, 159.504800)">
                    <path d="M53.8211327,80.8965076 C50.7890224,82.595508 48.2724376,83.7560009 45.9012771,84.5487824 L42.4141707,85.7143965 L45.6937845,87.3757552 C47.921316,88.5042397 50.0395869,89.9433328 52.1693994,91.7759999 L53.8131818,93.1907666 L54.6064754,91.1739878 C55.6482984,88.5247251 56.15536,85.5110798 56.1132972,82.2167859 L56.0799548,79.6310276 L53.8211327,80.8965076 Z M199.475533,89.4532217 C196.637835,94.5714765 193.212284,99.6103507 189.899328,104.483294 C182.587587,115.238082 175.026804,126.359301 172.698732,139.658364 C172.517657,140.760645 172.38822,143.252512 172.310421,147.133966 L174.47768,146.251817 C181.715041,143.305518 189.393805,141.113846 196.819423,138.99464 C199.689695,138.175484 202.657172,137.328672 205.565915,136.447804 C206.750341,136.13105 207.928355,135.760778 209.068154,135.402541 C211.833268,134.533708 214.44552,133.712759 217.191911,133.572947 L218.028037,133.53044 L218.446356,132.806284 C222.23021,126.256106 219.392512,120.01244 216.143163,114.177967 C214.191348,109.924961 211.680919,105.929301 209.252563,102.063979 C206.735722,98.0580764 204.133216,93.9159466 202.231671,89.5809989 L200.982868,86.7348211 L199.475533,89.4532217 Z M59.8209766,143.712663 C64.1226645,148.218407 68.1183713,152.796618 71.6972976,157.320031 L74.414963,156.071707 C73.1012708,149.390167 69.0227209,144.683155 61.5791492,141.257243 L59.8209766,143.712663 Z M203.72849,244.370821 C203.29786,244.370821 202.893903,244.537776 202.591256,244.840702 C202.284249,245.148238 202.115742,245.562553 202.117017,246.006573 L203.72849,246.001451 L203.72849,244.370821 Z M24.7252364,355.772499 C22.1978794,351.436783 21.8264959,344.62977 25.6141972,340.939342 C24.3402595,332.968764 26.8429944,324.061751 32.3857904,317.715914 L32.3986144,317.735119 C40.6282983,305.410132 41.2330789,301.018849 35.2201544,287.24171 C24.4741422,286.830979 13.4052213,286.708324 2.91286813,284.197849 L3.30528301,281.852537 C2.91697181,281.749342 0.933096584,281.228759 0.507082783,281.118651 C0.564021412,281.555244 0.859743214,283.546416 0.852561765,283.945111 C0.362427886,284.481314 -0.822254684,284.979363 -1.04257127,283.924114 C-7.64309215,255.71072 -13.5503467,228.056575 -19.9690231,199.885177 C-26.6867555,171.452078 -40.1965995,125.975457 -7.12705376,110.305475 L-7.80980435,107.392208 C-9.63594419,107.39272 -10.3697344,105.402572 -11.2068861,102.591219 C-14.9381617,92.5329321 -7.6828466,82.6710476 -0.898172857,76.4499149 C8.37564233,67.1652041 16.9310562,56.8569959 25.2074194,46.8919167 C48.8159193,18.1878999 80.9387962,-20.1160456 122.000525,-13.6086307 L121.862282,-11.9178244 C128.285575,-11.110191 134.992279,-9.41170271 141.496107,-10.5947294 C163.701403,-14.4416146 187.859284,-5.73894263 201.516347,12.1296254 L202.018023,8.79922606 C202.065215,8.48503261 202.177554,8.19439727 202.674869,8.19439727 C203.325559,8.17135129 203.6695,8.7037133 203.910078,9.19484861 C227.481645,18.512592 237.24585,48.8413501 244.778421,69.6293309 C245.739965,73.1430737 245.468866,74.1827032 245.384997,74.3893488 L244.017187,75.2044081 C258.223119,94.1059479 266.02961,116.840801 272.726568,138.397493 C274.939993,144.144135 275.170825,148.126223 271.474174,151.601812 C295.849037,166.250346 314.9758,189.079432 304.161564,215.105762 C290.047709,240.430471 252.674937,256.498636 224.603936,271.044487 C213.456788,277.084581 197.243642,280.300775 186.986225,290.192363 C186.300909,291.204849 185.317564,292.191985 184.72176,292.110812 C179.960972,292.815251 172.875447,263.075189 173.952408,260.693516 C168.926933,262.490846 163.336431,262.395333 158.080124,263.333048 C158.551022,264.367812 160.093238,265.769008 158.939333,266.920538 C159.017559,270.413283 158.48049,274.188982 157.711818,277.749073 C164.019951,276.737867 163.876835,280.047781 157.807742,278.296031 C157.642825,279.838575 157.221941,283.771242 157.060871,285.262061 C158.872391,284.465694 162.477992,283.906445 163.740644,285.152208 C163.224862,286.812543 158.756975,285.249001 157.035992,285.741161 C156.029307,293.2078 155.701012,300.548455 154.994666,307.994354 C160.365363,313.111072 168.754321,314.320217 173.547169,319.854324 C177.608022,324.06636 177.022477,331.135072 172.258356,334.523343 C175.176332,337.945926 172.841079,343.627271 168.580428,344.556023 C162.776022,345.911127 156.708724,344.037233 150.985622,342.462937 C141.472254,339.329452 131.508763,334.444986 120.528328,327.530938 C116.184321,324.824828 112.948822,320.572846 111.411479,315.554713 C100.271256,281.215444 97.2942894,257.881907 102.552649,246.170199 C105.553388,243.902987 108.898312,245.302262 111.668845,244.064066 C112.989338,243.473917 114.179349,242.680413 115.13942,239.865845 C100.686498,238.446469 79.6176662,241.083953 68.0321939,234.157613 L68.4397411,233.290316 C67.3699617,232.607387 65.0193196,229.750199 64.1249728,228.831688 C65.7369516,248.224364 67.0326901,268.118929 67.6738909,287.44349 C69.7990868,291.018433 71.6036823,294.718592 73.5847362,298.846894 C74.9625485,300.200205 77.3732069,302.51991 75.958718,304.054772 C75.9584615,304.054772 87.854275,331.91377 91.4896269,345.996141 C94.9508288,346.142354 96.3540326,352.006019 96.2222017,355.900788 C95.6959041,362.988706 86.6008557,363.740772 78.6276521,364.435224 C73.1720594,365.008045 67.5625784,365.304502 62.0364536,365.304502 C52.0519315,365.311996 27.0871636,364.624714 24.7252364,355.772499 Z" id="ðŸŽ¨-Background" fill="#FFFFFF"></path>
                    <path d="M73.325952,-3.31746798 C90.2731452,-14.5736339 112.275309,-20.5005463 131.929395,-13.1301877 C132.162792,-13.0482465 132.070203,-12.7076782 131.826547,-12.7614521 C128.720827,-13.4425887 125.565862,-13.8241276 122.393457,-13.9547214 C128.823675,-13.1696219 135.063585,-11.4831687 141.575364,-12.6198474 C163.325407,-16.2106662 186.389656,-8.83467419 200.84027,8.05930519 C201.213961,5.57699771 204.299676,5.6691816 205.305592,7.42426057 C224.523662,14.1908146 235.40843,39.6112923 242.667592,57.2522173 C243.520389,60.3967125 249.443289,73.4540493 246.598922,75.1486966 C260.137236,93.6871342 267.754701,115.638681 274.513983,137.352341 L274.707376,137.880535 C276.241716,142.130323 277.412488,146.939815 274.162862,150.721567 C287.643467,158.959735 300.107641,170.025131 305.999763,185.019098 C315.384121,207.136831 303.425983,225.875513 284.781403,237.858651 C266.303792,251.23095 246.28576,262.364716 225.593185,271.925466 C218.634874,275.136539 211.58936,278.15044 204.503065,281.069853 L203.797812,281.357793 C198.231118,283.645505 192.613924,286.334661 188.449962,290.736359 C180.353135,302.546908 172.874169,267.168777 172.791839,262.238475 C168.994648,263.379251 164.812993,263.404858 160.893461,264.000468 C161.391289,264.853169 161.429505,265.961937 160.823955,266.870972 C160.833188,269.757352 160.527207,272.666523 159.962437,275.52576 C165.978183,274.99263 165.769921,281.05705 159.498464,279.658671 L159.185302,282.590631 L159.185302,282.590631 C162.048648,281.704129 168.096197,283.120432 164.553691,286.531749 C162.698569,287.447698 160.722132,286.603191 158.744156,286.700496 C157.891872,293.402266 157.567424,300.108644 156.94392,306.840117 C162.317183,311.508207 170.293721,312.745008 175.063742,318.34774 C179.232316,322.902649 179.335934,330.02872 174.564118,334.31604 C177.127639,338.690166 174.028587,344.387899 169.288318,345.537125 C163.178187,346.987997 156.77926,345.054695 150.883034,343.422016 C140.160336,339.89461 130.013301,334.561148 120.466492,328.579199 L120.051792,328.318709 C115.327938,325.375738 111.909055,320.795735 110.284252,315.492344 L109.936795,314.417681 C104.16685,296.508491 93.9042858,261.380545 101.602907,244.787808 C105.230308,240.77115 111.077033,245.448459 113.190687,240.716096 C99.5533724,239.64958 77.5794215,242.022547 66.4676684,234.235056 C67.5587357,249.900173 69.1771265,265.555559 69.1124934,281.266768 C68.8354947,283.332968 70.232543,284.625591 69.6711075,286.710739 C71.6996103,290.175829 73.4508579,293.788158 75.1882556,297.404327 L75.2980173,297.506642 C77.1020245,299.214089 79.4209861,302.678496 77.0474814,304.709645 C85.1250724,316.528133 89.5070385,330.476837 93.0877602,344.195081 C96.8964929,345.067243 98.3353474,352.146966 98.0993855,355.531139 C97.0303756,364.624825 86.2328109,364.683464 79.1377959,365.451151 C74.9930741,365.886464 70.8355282,366.157894 66.6702879,366.270563 C58.2426012,366.498462 49.8041424,366.052907 41.4457055,364.956431 C34.6364096,364.36082 27.1087124,362.582951 23.7172732,355.99718 C20.9829366,351.269939 20.5561534,344.176132 24.3382121,339.934136 C23.2326639,331.809785 25.8243592,323.341353 30.8886452,316.935682 L31.042864,316.742204 L31.0299544,316.737291 C30.9138376,316.686304 30.9241557,316.494543 31.3980986,316.398721 L31.4506677,316.388833 L31.6781517,316.037281 C39.1193251,304.521145 40.0464951,301.363597 34.5256101,288.229213 L29.5087534,288.050021 C20.2122358,287.710052 10.8182869,287.221232 1.82180532,284.913153 C0.547354638,285.973268 -1.69453979,285.850612 -2.1946764,283.771353 C-8.73928457,255.809161 -14.7442582,227.716886 -21.1252319,199.714235 C-27.7572998,170.243812 -42.0481264,125.50543 -7.46534685,108.416841 C-10.9975937,108.417609 -11.7847318,104.186112 -12.6431714,101.515852 C-15.7904414,91.1387616 -8.85547015,81.5506121 -1.60195039,74.8132496 C23.8611587,49.2923939 43.0186993,17.1399311 73.325952,-3.31746798 Z M24.7665342,343.058146 C24.2879419,356.797131 34.7023251,360.091681 46.4239884,360.442492 C53.7282912,361.136432 61.0869679,361.348967 68.4194836,361.062429 L71.8734945,360.862738 C77.6421167,360.523722 83.4543169,360.100004 89.0684572,358.785743 C92.7656209,358.027018 93.6925408,354.725298 92.3570478,351.498094 C91.7799671,351.75416 91.097473,351.772085 90.5639939,351.398228 C89.9663948,350.98084 89.5331995,350.537845 89.2046482,350.015726 C70.2099727,358.454649 46.3088287,357.530506 27.9007236,347.820981 C25.5418742,347.705495 25.2356367,344.892605 24.7665342,343.058146 Z M70.9409416,299.570649 C64.037261,295.401632 50.0560061,293.589194 43.3872615,298.835482 C43.8443094,301.47143 42.7758124,303.909694 41.7740003,306.258847 C44.8166263,305.533667 71.2830863,301.97332 67.5448857,308.468955 C65.4520064,310.153616 62.6027666,308.993892 60.1839007,308.765736 C53.6967442,308.227229 47.1647035,308.398537 40.696783,309.132167 C40.1330392,310.710304 39.9152875,312.480235 39.2140703,313.969005 C45.7648386,311.810896 52.618227,310.778376 59.4916821,310.409279 L59.8735596,310.389453 C62.8743792,310.230436 66.3858512,309.567224 68.6197947,312.014963 C70.5236481,314.614293 66.2981349,316.402916 64.12113,316.14813 C54.8493667,315.870554 45.5586238,316.213427 36.2953243,316.611866 L35.8881245,317.282623 C29.34217,328.102337 27.9326606,332.363329 30.5783781,345.339697 C30.5632458,345.326894 30.5476005,345.316651 30.5347765,345.303848 C30.5245172,346.005726 30.299071,346.637954 29.8191964,347.109116 C49.7818286,353.577097 68.3751125,353.209641 88.2120694,346.79441 C85.3115336,332.247536 79.5556024,318.507526 75.2754589,304.363955 C74.1456631,303.732496 73.8104433,302.33719 72.9643148,301.414071 C72.1089529,301.341092 71.261542,300.666613 70.9409416,299.570649 Z M118.779906,240.877674 C110.082146,247.018146 114.010142,254.274555 116.414901,262.612332 C119.929964,274.868949 122.630445,287.355514 125.63819,299.741701 C127.409956,310.743081 134.3775,320.285139 144.401777,325.233365 C148.910957,327.605564 153.858206,329.139914 158.913689,329.770861 C160.865504,329.968801 163.028146,329.759851 164.335427,331.506992 C165.076911,332.308479 165.158728,333.624661 164.335427,334.41104 C161.750362,337.337367 154.236258,334.697323 150.750434,333.967533 C124.919532,326.150083 120.993588,307.463383 116.011201,284.034845 C113.596952,271.022832 107.664819,257.318416 111.244002,244.121779 C109.079308,245.277407 105.753528,244.881016 104.218236,247.063982 C100.673935,269.484898 108.491711,292.229738 114.516947,313.664286 C115.854748,318.167982 118.678853,322.129073 122.788181,324.493589 C131.553908,329.838463 140.741546,334.722673 150.462663,338.096092 L150.757446,338.17954 C155.690809,339.592921 166.348356,343.405956 170.134703,339.419443 C170.924662,338.254341 170.888755,337.007297 169.893611,336.233721 L169.4113,336.050625 C168.485208,335.693184 167.394744,335.189872 167.22602,334.109204 L167.215957,334.034623 L167.251608,334.021563 C166.446516,332.546877 168.008994,330.894993 169.408607,330.533939 C171.381197,330.462753 172.298627,329.151181 172.999845,327.225562 C174.257624,317.800014 161.001952,315.281345 156.607675,308.83257 C156.141906,311.186588 152.512967,310.73796 152.531946,308.363712 C152.388574,301.151859 153.95849,293.87394 155.033142,286.759392 C153.379101,286.688717 151.621441,287.356282 150.011001,286.994717 C149.773244,285.50902 154.418872,283.952136 155.697426,283.461513 C155.961601,282.232138 156.241164,281.008141 156.538682,279.789521 C146.205603,280.412787 151.005375,277.104409 157.53126,275.971571 C157.734393,275.280412 157.912463,274.570439 158.074679,273.868421 L158.154508,273.518199 C158.567184,271.759023 158.785449,270.097152 158.857264,268.378947 C154.288836,270.469217 149.149484,271.737514 144.199157,270.673302 C135.254663,268.598652 130.618268,257.75757 134.208992,249.622085 C133.392103,246.736473 134.995874,243.667517 136.445757,241.23335 C130.557226,241.212865 124.665616,241.051543 118.779906,240.877674 Z M31.3326867,316.529669 C31.2555503,316.575761 31.1828862,316.627758 31.1125304,316.684257 L31.042864,316.742204 L31.0603958,316.746936 C31.1451209,316.76446 31.2684982,316.716597 31.3429459,316.537351 C31.3273006,316.552715 31.3273006,316.545033 31.3326867,316.529669 Z M31.876425,316.347862 C31.7353608,316.35213 31.61567,316.36351 31.5114155,316.37904 L31.4506677,316.388833 L31.4313157,316.419104 C31.395069,316.473904 31.3725511,316.496856 31.3455107,316.535046 C31.4945258,316.414439 31.6966323,316.358361 31.876425,316.347862 Z M42.5537004,307.754274 C42.0720304,307.818035 41.5911298,307.87565 41.106895,307.936337 L41.0119973,308.194708 L41.0119973,308.194708 C41.5249579,308.041069 42.0379185,307.895111 42.5537004,307.754274 Z M63.9310781,286.900228 C55.3374487,287.773927 46.6766215,287.235419 38.0804273,288.211288 C39.7660159,290.535859 40.9683956,293.108814 41.9766197,295.824142 C49.0370098,289.167184 60.363437,291.203424 68.858065,293.655259 C68.2863703,291.988011 67.7598162,290.305399 67.2884054,288.608191 C66.017289,288.812788 64.5658669,288.099643 63.9310781,286.900228 Z M273.534485,151.535858 C261.787687,163.487756 244.034119,166.773344 228.840482,172.049592 C225.151526,174.356494 226.954582,178.927791 227.424711,182.399539 C228.304438,188.098296 229.002834,193.824453 229.509896,199.56879 C231.386819,197.401444 236.304059,197.118234 239.055836,196.237366 L239.422438,196.154747 C243.093339,195.313625 246.908445,194.052211 250.654133,194.869972 C252.164802,195.197737 252.267137,197.284934 251.06681,198.02727 C248.026335,199.9127 244.306478,199.966928 240.8212,200.379343 L239.929828,200.485937 C236.845545,200.852371 233.737094,201.186836 230.638153,201.056535 C230.248302,201.117991 229.855888,200.969473 229.609666,200.705724 C229.995669,206.710993 230.769727,212.802044 230.507348,218.817299 C230.363975,219.885096 230.020291,221.047638 229.260853,221.838883 L229.235763,221.930353 C228.806087,223.449531 227.408275,226.161534 225.798625,224.153723 L225.496263,223.611025 C223.132382,219.351695 220.890979,214.898099 219.748255,210.14177 C219.367895,219.760648 219.060118,229.37466 218.675911,238.990465 L218.66336,239.221271 C218.565361,240.853467 218.245968,242.816772 217.183195,244.073126 C217.277067,244.81956 216.60714,245.254361 216.008772,244.987539 L215.92932,245.024198 C215.355813,245.280569 214.432689,245.517341 214.082348,244.818279 C212.063848,240.104097 209.914543,235.464175 207.944774,230.737189 C208.048905,233.163162 207.931437,235.594256 208.008894,238.022278 C208.047623,240.792916 208.563148,244.05008 207.239453,246.613305 C206.109401,248.858495 203.294273,249.445911 201.783861,247.491869 C200.57353,245.625657 199.887445,243.319011 198.786119,241.340898 C195.682964,256.653668 187.825176,234.144665 186.382474,229.50551 C181.94793,232.094341 177.27255,234.281148 172.43764,236.030081 C173.76749,238.041483 173.445864,240.77576 173.863927,243.087527 C174.240696,246.533924 174.538213,249.983138 174.835731,253.43773 L174.9456,254.098881 C176.756672,264.902829 179.394407,275.946108 185.200357,285.351027 C190.115545,280.545173 196.564486,277.710262 202.871594,275.164706 C210.466232,272.038136 217.999059,268.768168 225.429037,265.272862 C245.513241,255.843474 264.8516,244.788832 282.878063,231.848261 L283.490783,231.420017 C293.508624,224.380877 303.948023,215.150746 304.204401,202.016784 C305.068483,180.485699 287.037404,165.797731 273.534485,151.535858 Z M52.1637613,139.331735 C35.0147181,123.266898 8.75831541,102.495562 -14.9271286,117.75763 C-37.0511205,136.454061 -19.5222299,181.283089 -15.0030468,205.425028 C-9.25660536,230.801974 -3.18315153,256.109526 2.45018209,281.510031 C22.5382332,284.156989 42.9284182,285.543589 63.1157272,283.159098 C62.8874597,265.24956 61.6771291,247.362811 61.2816365,229.446615 C60.9138437,220.215934 61.0415709,210.949148 59.6560642,201.80681 C58.4803585,194.372947 59.9902581,185.392955 55.8442538,178.899368 C54.3097321,176.534851 51.8139222,174.46481 51.2560775,171.614279 C51.2432535,171.480868 51.4174036,171.437337 51.5020421,171.511596 C52.7154505,172.576833 53.6900757,173.846922 54.9773504,174.868627 L55.9240468,175.600666 C57.4636658,176.797621 58.9972664,178.07524 59.9507601,179.777419 C60.0487356,179.051983 58.2110542,172.586563 59.3116112,173.357835 L59.5189871,173.924728 C60.9989825,177.989529 62.3331773,182.101711 62.7130531,186.450509 C64.1657576,201.273423 64.9775178,216.169317 66.2214473,231.013741 C69.221754,232.364235 71.9784044,234.349518 75.2549405,235.067272 C80.6213169,235.597407 85.9951697,235.297565 91.3708861,235.226839 L91.8748648,235.220912 C107.559918,234.987123 123.195984,235.866455 138.869496,235.618327 C154.890283,236.239032 171.26732,232.047993 184.941055,223.628787 C177.449522,189.842364 203.171676,165.745238 215.064668,136.863511 C201.364772,140.314261 187.730791,144.020566 174.068854,147.656453 C175.912691,152.157843 169.949524,164.91379 167.705321,169.434386 C155.698196,193.07341 131.415665,208.522407 109.579701,185.961422 C109.58996,186.03056 109.597398,186.099698 109.605349,186.171397 C108.872072,185.503063 108.06185,184.914879 107.245474,184.350765 C106.148764,193.339975 103.182312,202.400884 97.5838601,209.619395 L96.9731637,210.384498 C95.2268656,212.55903 92.6985795,215.418505 89.9025312,213.775352 C87.8437637,212.663512 87.4564784,210.499495 87.8558183,208.316017 C81.1293656,215.6262 73.8006971,217.277572 78.3968243,204.698055 L78.2447052,204.855477 C75.6717929,207.494051 68.8428505,213.324327 68.1476145,206.431369 C68.4507742,202.999567 70.5677627,199.935989 71.6436976,196.721331 C70.4944094,197.430635 69.2017486,197.781446 67.8860046,197.276996 C64.3570919,195.924965 66.1729725,191.894736 66.9601106,189.357118 C68.9532191,182.9424 70.9868516,176.538179 73.0545958,170.146763 C72.3379898,166.34725 74.6073277,162.566686 72.4798235,159.263942 C71.5693183,159.740225 70.343086,159.640359 69.463615,158.467575 C64.3032311,151.604996 58.3811006,145.246868 52.1637613,139.331735 Z M2.68870878,282.675133 C2.69409486,282.713799 2.69409486,282.747088 2.69640319,282.785242 C2.89414951,282.798301 3.08907455,282.81597 3.28630791,282.833894 C3.08522734,282.785242 2.88671158,282.726858 2.68870878,282.675133 Z M172.096521,258.003393 C168.931297,225.456844 177.144566,240.78421 143.78648,241.15397 C143.936265,241.969029 142.863408,241.875309 143.242486,241.648434 C142.759533,239.849824 140.02058,245.120438 139.638937,245.804135 C138.918484,247.330291 138.589933,249.230303 138.336274,250.8996 C136.548606,260.249864 143.210426,268.441427 152.924617,264.466253 C151.674276,264.362034 150.269277,264.813479 149.231557,264.015576 C149.236687,264.013015 149.239252,264.007894 149.244125,264.002773 C148.314897,262.34039 153.411674,262.268179 154.425284,261.823904 C158.375081,260.999626 162.33488,260.233732 166.261594,259.309076 C168.175193,258.858399 170.134703,258.151912 172.096521,258.003393 Z M204.167076,245.427717 C203.882383,245.261274 204.02832,245.806696 204.123474,245.530144 C204.136298,245.494295 204.153995,245.461006 204.167076,245.427717 Z M240.087144,71.6457085 C225.809911,72.6635724 216.566617,79.7053978 206.434362,88.7355787 C205.677745,89.3885479 204.910612,90.0287139 204.126039,90.6483945 C208.553146,98.400292 213.326244,105.94708 217.939812,113.591942 L218.804435,115.029845 C220.14999,117.272568 221.463897,119.555623 222.26484,122.052631 C224.993534,130.674898 215.463751,145.851441 212.000754,154.317251 C195.429561,183.521366 179.863771,203.796446 194.941222,238.385892 C195.750674,236.203182 193.96275,228.583159 196.636814,228.286634 L196.582919,227.745094 C195.72819,218.952478 195.689746,208.362577 198.357284,200.598433 C196.880983,215.621847 198.481164,231.366857 204.182465,245.392124 C205.674154,232.095621 203.697717,217.242235 204.15656,203.58391 C204.138863,201.484166 207.318962,201.507212 207.408987,203.58391 L207.517433,207.110446 C207.890045,219.06159 208.533789,231.576298 215.49299,241.686588 C216.163173,226.295974 213.352149,210.084155 218.752855,195.32833 C219.194257,194.265655 220.784179,194.347596 220.830345,195.610259 C220.929603,200.633001 223.056851,217.635297 226.726828,220.584157 C227.735052,217.5088 227.632203,214.144088 227.470364,210.922773 C226.970741,199.249475 225.285152,187.858874 223.216125,176.348946 C222.84192,174.074565 223.512103,171.275247 225.870183,170.397964 C227.621944,168.733532 230.04081,167.55281 232.041356,166.605621 C244.754829,160.332763 262.244735,161.54114 270.844263,148.621823 L271.261543,147.992996 C272.264181,146.478102 273.203983,144.98215 273.626818,143.165048 C272.46804,138.842136 270.801944,134.628819 269.387198,130.384775 C268.122468,126.635195 266.824291,122.89806 265.462749,119.182703 L265.006515,117.945071 C258.927931,101.373991 251.189151,85.4676595 240.087144,71.6457085 Z M141.642305,241.207744 C141.316895,241.313275 141.059233,241.638579 140.782375,241.880881 L140.722498,241.931328 L140.891587,241.796876 C141.071026,241.65245 141.232813,241.518061 141.48169,241.328571 L141.642305,241.207744 Z M66.3471227,232.67049 L66.4240668,233.674271 L66.4240668,233.674271 C66.916509,233.774393 67.3989484,233.899609 67.8811314,234.022521 C67.3217479,233.617936 66.8013493,233.16982 66.3471227,232.67049 Z M139.085068,209.995761 C139.028642,209.798846 139.310771,209.683616 139.416184,209.856973 C143.565523,217.146671 151.733908,220.048671 159.598363,221.203787 C160.937191,221.516444 160.773043,223.362682 159.598363,223.751647 C155.202291,225.20636 150.126545,223.247196 146.528127,220.638136 C142.83994,217.967108 140.324124,214.359132 139.085068,209.995761 Z M218.191419,205.834734 C217.412745,211.44566 217.483534,217.168232 217.416592,222.83242 C217.673073,217.168232 217.885951,211.498922 218.191419,205.834734 Z M103.634308,215.716259 C104.450172,215.997932 105.293992,216.182556 106.124731,216.253998 C105.242696,216.674203 104.234472,216.463972 103.634308,215.716259 Z M39.6552164,34.2702598 C27.1825788,48.3713232 16.2634423,63.8070045 2.84823953,77.0592078 C-5.01236913,84.1522465 -12.4492723,93.8466636 -6.31887984,104.522071 C-5.02596258,105.031643 -4.79872102,106.933192 -5.91364095,107.827888 C-5.64741438,107.793575 -3.93643421,106.965712 -4.3208982,107.64352 C-7.75747792,109.10822 -10.7790725,111.23101 -13.3823477,113.799356 C2.83746736,101.885868 24.3443676,111.423828 38.4907958,122.101028 C45.4724464,127.194188 51.9637067,132.807163 58.0422901,138.848025 C60.2174997,139.23699 62.4665755,140.396971 64.2796349,141.303446 C76.7845891,147.301288 78.7438422,155.406302 77.7120219,168.36198 C73.9589454,175.504952 72.1835887,183.673213 69.5687719,191.33139 C66.8793193,197.284678 72.1702517,193.272373 72.928664,190.675604 C74.7699541,188.387336 75.6584224,185.346639 76.7871533,182.686451 L76.8682016,182.4971 C77.188802,181.736327 77.8761693,181.17042 78.7610263,181.423926 C79.4714222,181.627177 80.1302249,182.504474 79.8544831,183.264316 L79.2879312,184.721229 C76.5445906,191.761201 73.7102076,198.83804 71.5257167,206.05239 C78.9072201,201.638062 82.5620646,193.282872 86.4372257,185.905088 C87.5018754,183.943619 90.3667606,185.672067 89.4075242,187.638657 C88.5175375,189.454168 87.6095972,191.264557 86.647796,193.044218 C84.1340324,198.392165 82.3117398,204.034843 80.8026096,209.742307 C89.0994913,204.801506 91.9913069,194.735281 94.3778562,186.240791 C94.5250759,183.817378 98.0247498,184.294174 97.6636255,186.673287 C96.7759471,191.395407 95.4219875,196.047877 93.3034601,200.372838 L92.7433071,203.642995 C92.3704988,205.823353 92.0012241,208.00447 91.6491621,210.187862 C91.8489603,210.090557 92.0646602,210.077754 92.2721528,210.128967 C99.6231351,202.738123 102.565477,192.541304 105.132076,182.740363 C103.911742,178.595161 105.405227,174.356238 105.234668,170.082746 C105.88382,164.611376 104.116414,159.512582 101.668822,154.627348 C100.202011,139.514566 85.6236701,132.959267 75.4596117,124.076068 C63.0108268,111.792564 56.4654491,92.9850002 38.9678492,86.8970221 C37.1486343,87.012508 35.3948219,86.6225189 33.6920491,86.036639 C33.6176698,86.0161537 33.6048458,85.8881205 33.6920491,85.8753172 C35.4240607,85.592876 37.1550463,85.1514175 38.8911616,84.8356877 C39.3589817,83.3120927 41.2294926,83.1259325 42.6360306,83.8070691 C57.7658043,77.1859607 70.3061528,65.5433906 82.3286675,54.4662151 C70.5895635,43.6230843 55.3905401,36.8916113 39.6552164,34.2702598 Z M109.274489,187.974053 C109.52584,188.253165 109.746157,188.555323 109.91056,188.885905 C109.955445,188.970663 109.950315,189.071553 109.964421,189.165017 C109.748721,188.760433 109.520454,188.360713 109.274489,187.974053 Z M61.2793282,142.140783 C65.4589314,146.519262 69.4720788,151.082109 73.2492644,155.855698 C71.8945354,148.966232 67.457426,144.984144 61.2793282,142.140783 Z M201.166256,89.6855849 C192.091213,106.053604 177.881434,120.431731 174.558988,139.411115 C174.292249,141.034576 174.274039,142.678778 174.240696,144.317347 C184.371412,140.193142 195.036633,137.623772 205.487693,134.458535 C209.449031,133.401749 213.29598,131.738598 217.457629,131.526831 C220.887797,125.588908 218.132942,119.776457 215.113399,114.360397 C211.179504,105.7622 204.956779,98.3262888 201.166256,89.6855849 Z M54.9186164,81.7244812 C52.2945663,83.1948143 49.5884425,84.539675 46.7343296,85.4937783 C49.191411,86.7382609 51.437922,88.3105085 53.5182339,90.1004125 C54.5633911,87.4429556 54.9547801,84.5645134 54.9186164,81.7244812 Z M121.63684,-12.6308583 C120.274417,-0.639781849 120.340589,11.7333456 123.529922,23.4363473 C128.28558,41.6746752 145.894236,58.7258793 165.817883,55.1499123 C185.920297,50.955289 195.800944,30.1683324 199.945153,11.8900582 C189.359185,-1.52065019 172.787222,-9.90964085 155.707685,-10.5848879 C144.602088,-11.0381254 132.047376,-7.46343872 121.63684,-12.6308583 Z" id="ðŸ–-Ink" fill="#000000"></path>
                </g>
                <g id="Head" stroke-width="1" transform="translate(86.511840, 45.072000)">
                    <g id="head/hat-beanie">
                        <path d="M61.3860622,14.7000203 C72.6129256,14.7000203 86.0831308,20.1348446 87.2284026,20.2435411 L87.2593202,20.2451936 C87.861877,20.2451936 90.2163198,22.0363598 94.3226487,25.6186921 L89.8750309,34.2810313 L90.2349585,34.6242238 C91.9573222,36.273193 93.4277046,37.7761804 94.5883293,38.9609864 C104.064924,48.6350228 105.768181,86.618082 103.534865,99.8640286 C101.301549,113.109975 97.1650109,126.071378 77.9071009,126.071378 C58.6491909,126.071378 37.2243282,114.508578 33.9239621,110.907785 C31.723718,108.507255 29.2522697,107.357194 26.509617,107.4576 C26.3968949,107.31557 26.2850823,107.173955 26.174179,107.032757 L25.7706496,106.975674 C21.9748747,106.426725 19.2551121,105.687847 17.6114653,104.759286 C14.4009602,102.945544 10.8722263,93.410494 10.8722263,91.3100435 C10.8722263,89.2305976 5.60308512,74.1033468 5.4977023,72.5025346 L5.49610021,72.4581929 C5.49610021,71.1199713 -1.3875031,64.9682563 -1.3875031,63.0145924 C-1.3875031,61.0609286 -2.7750062,61.1794583 -1.3875031,54.2950497 L-0.984394092,52.2726116 C0.492127082,44.9427441 3.38208255,32.8055437 14.4009602,27.5315645 C26.509617,21.7359829 50.0457963,14.7000203 61.3860622,14.7000203 Z" id="Path" fill="#FFFFFF"></path>
                        <path d="M12.5319045,27.2592952 C18.5708672,20.8586205 52.8550611,10.9582988 70.2003864,13.0569315 L70.7207709,13.1242152 C72.1049604,13.2994952 73.4690891,13.5649192 74.8154139,13.9254952 C79.1670848,14.9403664 83.6621899,16.4770712 87.2578225,19.0439216 C90.259658,21.143776 99.7290684,24.573004 96.9381213,30.0662792 C97.9730035,32.0241568 98.3591723,34.4430208 97.6598055,36.3713512 C97.5717891,37.0374152 97.3661668,37.6508952 97.1031206,38.2869112 C99.3140624,41.5448656 101.064611,45.2292512 102.481649,48.7335992 C104.957894,57.5529376 106.498808,66.7310992 106.724491,75.7292232 C107.475263,92.824532 105.598082,113.244902 90.6874528,124.299562 C81.6799403,131.304502 67.5702354,131.539878 57.4478486,122.854503 C56.8733599,122.175669 54.1719336,120.343742 55.0734121,120.022479 C55.3417242,120.305431 55.617559,120.580871 55.898409,120.851303 C55.8856203,120.821255 55.8831128,120.791207 55.8883787,120.758655 L55.6242225,120.519781 C55.1267859,120.060248 54.4823568,119.393758 55.2163447,119.524183 C55.2486926,119.561743 55.2840496,119.594295 55.3189051,119.631855 C55.47436,119.724973 55.5918014,119.805701 55.6831801,119.876875 L55.730185,119.91444 L55.7156629,119.899356 C55.2928607,119.449153 55.0393821,118.989966 55.6715413,119.283231 L55.7552257,119.323863 C56.0363265,119.619335 56.3219409,119.902287 56.6128213,120.177727 C56.6080569,120.145175 56.6128213,120.112623 56.6306252,120.077567 L56.3594168,119.815943 C56.094675,119.556891 56.1350812,119.555785 56.2645171,119.346399 C55.701814,118.558891 56.7522433,119.026638 56.8259664,119.333879 C57.4832056,119.178631 58.060202,120.410599 58.4834831,120.560839 C77.0393951,134.806095 103.967647,122.166154 103.531577,82.4714936 L103.524918,81.6948502 C103.397382,69.0022042 102.327714,55.9565274 97.0702712,44.4667832 C96.5589737,43.3600152 95.9869925,42.2832952 95.3578383,41.2416312 C94.9240253,40.4603832 94.4601213,39.6991672 93.9611109,38.9579832 C92.5641328,38.8453032 91.1849585,38.5898952 89.8260957,38.1942632 C89.3594333,38.0765752 88.8980369,37.9463672 88.4368911,37.7936232 C81.6964904,38.1607096 75.1062943,38.5600976 68.3470866,38.9387024 L66.2358147,39.0700095 C60.5099603,39.4375919 54.5883339,40.0263373 49.967709,43.5628392 C45.4339871,46.7824824 45.4134248,53.1313744 41.5324285,56.6662712 C35.9981783,60.4170128 35.9578061,63.7991656 34.8920806,69.3264952 C34.9710696,73.4931512 37.8643265,79.547072 32.5550071,81.3006232 C33.4507181,82.5759104 32.2021893,81.9631816 32.1038917,81.5159672 C32.0938614,81.5184712 32.083831,81.5209752 32.0763083,81.5209752 C32.874474,83.002592 31.7011729,82.0696016 31.5973587,81.5935912 C31.5346689,81.5760632 31.4719792,81.5309912 31.4092894,81.4683912 C32.2134734,82.7664648 30.913539,81.8575128 30.990522,81.6211352 C29.4365687,79.2360752 26.238389,78.8657336 23.984066,79.4977432 C23.9564825,79.5828792 23.8564297,79.5903912 23.79374,79.5453192 C14.2079774,81.6196328 16.6812129,101.435287 26.5044443,99.5197272 C26.924967,99.4340904 26.9149367,99.6356624 26.9984394,99.6549432 C26.7715026,99.0599928 27.4111886,99.3021296 27.4044182,99.4270792 L27.4433955,99.4251893 C27.4742808,99.42247 27.4616469,99.4190942 27.484661,99.4270792 C27.2652469,98.2103856 28.499984,99.9732016 28.4024388,100.045567 C28.4403034,100.023031 28.4829324,100.010511 28.5205463,100.005503 L28.4780424,99.8900059 C28.2731243,99.3448758 28.2906915,99.5714538 28.2921049,99.2593112 C28.1381389,98.8734448 28.1268547,99.0422144 28.162964,98.7908128 C28.7041018,98.372144 28.8638353,99.6421728 29.0443817,99.7350712 C28.7349452,99.3043832 28.9809397,98.9525712 29.2728231,99.1864448 C31.4852694,103.833368 34.3431692,108.199593 38.0365979,111.639087 C38.4405706,111.957095 38.8493077,112.270095 39.2728395,112.565567 C40.8438444,113.932 43.2536379,114.810654 44.7243392,116.021087 C44.7243392,116.041119 44.7145596,116.066159 44.6995141,116.091199 L44.7331785,116.12156 L44.7331785,116.12156 L44.767219,116.153799 L45.2787673,116.399191 C45.4292226,116.526895 45.5646325,116.669623 45.684746,116.827375 C45.8128838,116.975111 45.9254746,117.137871 46.0210138,117.310647 C46.068658,117.520983 45.9633392,117.608623 45.7627321,117.518479 C45.6747157,117.488431 45.5872008,117.453375 45.4994352,117.420823 C45.5044503,117.428335 45.5067072,117.433343 45.5119731,117.438351 C45.5407477,117.481813 45.7355375,117.932735 45.5110839,117.859364 L45.4843896,117.849007 C45.361267,117.803935 45.2386458,117.753855 45.1182815,117.706279 C45.2612141,117.884063 45.391358,118.076871 45.5067072,118.239631 C45.6298298,118.367335 45.7048067,118.517575 45.7351486,118.687847 C45.7298826,118.782999 45.677474,118.823063 45.5821856,118.810543 C45.4367454,118.762967 45.2938128,118.712887 45.1506294,118.660303 L45.1913489,118.737871 C45.2925118,118.936569 45.4362843,119.269825 45.1809713,119.158599 C44.9625602,119.090991 44.7521735,119.013367 44.5415359,118.928231 C44.5237321,118.963287 44.4888766,118.975807 44.4186641,118.943255 C43.7491376,118.705375 43.1021795,118.414911 42.4828049,118.071863 C41.938658,117.676231 41.3892451,117.288111 40.8428413,116.894983 C40.3285347,116.586991 39.832032,116.243943 39.3583483,115.858327 C36.1872506,113.81306 33.4110982,111.21491 31.2086823,108.321287 C27.525284,111.506626 20.1607442,108.463514 15.6052063,105.970031 C11.5757606,103.741471 9.99196703,99.6208888 9.58247766,95.178292 C8.731151,89.1972376 3.83633619,87.1499672 4.17686685,74.0265032 C4.16934408,74.0290072 4.16157055,74.0290072 4.15154019,74.0290072 C3.97350134,73.9764232 3.80072842,73.9063112 3.63773509,73.8161672 C3.46972659,73.7360392 3.31174845,73.6408872 3.16354991,73.5257032 L2.98049587,73.2727992 L2.98049587,73.2727992 C2.88545823,73.2202152 2.80020018,73.1651272 2.73500285,73.1100392 L2.70119117,73.1535823 C2.59415991,73.2825561 2.66610683,73.0885048 2.67231311,73.0499432 L2.35431403,72.6181035 C1.60031466,71.5901308 0.773096129,70.4367062 0.0992754705,69.5142952 L0.0780508816,69.5517749 C0.0628079538,69.5800635 0.0547478446,69.6005043 0.0619123862,69.6094472 C-1.54169114,67.308772 -3.04975549,64.5298328 -3.46877371,61.8395352 C-3.96352113,59.7672248 -3.77018597,57.6318136 -3.33862981,55.7122472 C-1.48827948,48.9902592 4.573066,33.77896 12.5319045,27.2592952 Z M56.050566,120.221054 L55.9500781,120.131688 L56.0384348,120.242233 C56.0847368,120.299362 56.1321389,120.350709 56.2093502,120.403087 C56.204335,120.385559 56.204335,120.368031 56.2065918,120.347999 C56.1553863,120.308967 56.1030297,120.266282 56.050566,120.221054 Z M70.1237138,16.4345032 C58.3611128,15.42464 46.7918468,18.0122736 35.5673744,21.1445272 L34.7930632,21.3667618 C28.4107102,23.1853041 21.6620413,24.8217 16.2684637,28.7141192 C8.73290631,34.477576 4.84162884,43.6462224 1.44585106,52.1114952 C-1.51937359,58.4010424 -0.00353570128,65.4931216 4.46498889,69.8848872 C4.92989599,65.5206656 5.72254505,61.284148 6.96129429,57.0816848 C7.21982678,56.425136 7.02423479,56.2100424 7.58142119,56.1244056 C8.42296825,67.4494968 4.27817347,75.8168632 12.4804989,89.238804 C16.0395208,95.5719208 11.9195511,100.205823 21.9699701,103.538397 L22.2419535,103.642175 C24.3358112,104.431148 26.6224472,105.053922 28.6732585,104.612863 L28.4895257,104.314427 C28.302145,104.007096 28.2452835,103.857907 28.5177879,103.726447 C28.5105159,103.711423 28.5004855,103.696399 28.4902044,103.678871 C28.2697873,103.263207 28.0566422,102.842535 27.8532767,102.416855 C27.770777,102.444399 27.6880265,102.464431 27.6025177,102.486967 C27.6579355,102.589631 27.6652075,102.692295 27.5099877,102.727351 C26.9574152,102.916654 26.389989,102.99253 25.809136,102.957017 L25.6844625,102.947703 C25.0282263,102.907639 24.6147248,102.788198 24.2448553,102.677271 C24.1222342,102.657239 23.9993623,102.637207 23.8787472,102.612167 C22.688896,102.348746 21.4293338,101.678676 20.6141164,101.014615 C11.321491,95.744196 12.2818978,77.8032864 23.7360654,76.1073272 C23.9710265,64.8112824 29.3515614,45.7538392 38.2810879,34.9898944 C46.3525171,25.088828 68.3877096,20.7974728 83.7181091,22.31064 C83.9415353,22.384508 84.1649616,22.4591272 84.3883878,22.5344976 C86.7535463,22.7443328 89.0076185,23.7965136 91.3745323,24.2852944 C89.6751389,23.0135128 87.747304,22.1664096 85.7615438,21.4465096 C81.805069,19.0298992 77.269341,17.7223104 72.8873283,16.8000872 C71.9795809,16.5772312 71.0592955,16.4545352 70.1237138,16.4345032 Z M23.2118036,85.1817982 C23.8276676,84.8477646 23.7572044,85.1702798 23.8988832,85.0766302 C28.3287909,84.7158038 33.1054982,88.5887406 35.5817429,91.8173982 C35.3861509,92.0202222 34.8570495,91.4192622 34.7642687,91.3241102 C34.7517308,91.3366302 34.7366852,91.3466462 34.7216397,91.3516542 L34.7905918,91.4488313 C35.7942386,92.8870615 33.8046195,91.1946639 33.6183003,90.8458462 C33.5857016,90.8633742 33.553103,90.8733902 33.5154891,90.8658782 C33.6732165,91.020375 34.1549245,91.4232686 34.2376749,91.7097262 L34.365385,91.8158539 C35.5696308,92.8456182 35.4696867,93.6202561 34.1025158,92.1579422 C34.1348638,92.2255502 34.1474017,92.2881502 34.1248334,92.3382302 L34.1719084,92.3695559 C34.8442049,92.8386895 35.3971045,94.1464482 33.9919311,92.8039742 C34.1381236,93.7845406 32.5994667,91.889263 32.5500672,91.9025342 C29.8875086,89.8154502 25.9673938,87.7857078 22.6275353,87.5130222 L22.5125849,87.4998342 C21.8997171,87.4212024 21.6099554,87.2396211 21.8251066,86.8394462 C21.0703222,86.6601598 21.2471072,86.289067 21.6044387,86.3010862 C21.0720775,85.9515278 21.5512778,85.6172438 21.8602129,85.7477022 C21.64782,85.1605142 22.4996482,85.551639 22.5773835,85.4697582 C23.0194715,84.7889206 23.138582,85.3568278 23.2118036,85.1817982 Z M13.9262246,48.7861582 C16.0539143,48.007915 22.338686,50.3376366 21.8359143,53.4230654 C21.5365081,54.131447 20.5500224,54.5373454 19.8566739,54.1374566 L18.9517279,53.5305472 C17.3768859,52.4773739 15.9565539,51.5538821 14.2657522,50.6353622 C13.3454668,50.1793838 12.9492677,49.2113374 13.9262246,48.7861582 Z M26.0315881,44.2010337 L25.2098662,43.6670542 C20.7754609,40.7690241 14.5066814,36.3778165 25.6241048,40.9210441 C26.8911898,41.4636609 28.5747854,41.7846737 29.2661279,42.9895985 C30.3521649,45.2103961 27.4940143,45.3596345 26.0315881,44.2010337 Z M26.5298963,31.1980121 C26.1740693,29.8496081 30.6017202,31.4318857 31.8906213,31.8490521 L32.0869382,31.923092 C33.3407371,32.3896068 34.7779602,32.8223819 35.5278799,33.9028329 C36.4065393,35.3957177 34.6281568,35.7049617 33.5265727,35.0306345 C31.2679868,33.5567801 28.7917421,32.4447537 26.5298963,31.1980121 Z M37.7890486,24.9167531 C35.2968532,22.1990693 41.9666748,24.8025177 42.9657782,25.525193 L42.994303,25.5465091 C43.7398094,26.0705963 43.5886018,27.1993995 42.888232,27.5309291 C40.8954506,27.5687395 39.4290122,25.9100899 37.7890486,24.9167531 Z M49.1298732,21.9391966 C45.1678817,19.0959046 50.3869278,20.448315 52.1996643,21.562595 C53.4351537,22.650583 52.162552,24.487267 49.1298732,21.9391966 Z" id="ðŸ–-Ink" fill="#000000"></path>
                    </g>
                    <g id="face/Eating-Happy" transform="translate(39.870674, 46.574400)" fill="#000000">
                        <path d="M31.6332144,49.1515705 C33.0359883,46.8473889 36.0259935,52.4918684 36.3436773,53.4624284 C36.6250435,54.3221957 36.8107789,55.2029313 36.9051853,56.0938602 C37.9927079,56.3372598 39.1220206,56.3377092 40.236343,56.1244103 C41.8925127,55.8071171 42.9049388,54.9180342 44.3443385,54.1546164 C45.3385433,53.6270959 46.5915373,54.2457 47.1085524,55.1205851 C47.7167045,56.1503681 47.3292574,57.2192017 46.5294028,57.9869061 C45.0125664,59.4426623 42.028107,59.7770967 40.048122,59.3904962 C38.9136966,59.1690875 37.8739908,58.7442701 36.955839,58.1268899 C36.9497532,58.2420989 36.9456888,58.3573388 36.9365882,58.4723776 L36.9190567,58.6719334 C36.7669269,60.2865055 36.3225189,62.3167084 35.0666323,63.367298 C33.0068247,65.090646 30.4647427,61.7763511 32.4662071,60.0549525 L32.5282535,60.0032833 C33.7723098,58.9995423 34.0437174,56.3064818 33.9767242,54.8231542 C33.9327985,53.8550123 33.7561917,52.8744727 33.4500747,51.9524031 L33.3871254,51.7687897 C33.2949797,51.5083195 32.2902777,49.0375248 31.9272258,49.352188 L31.9098949,49.3699309 C31.7601869,49.5484282 31.5182482,49.3405063 31.6332144,49.1515705 Z M42.8332164,36.1495355 C44.7267922,37.2988829 47.6120202,39.9789369 45.5749685,42.8283092 C43.1771637,45.3406948 39.7248663,42.4600731 38.023634,41.15728 C36.4461716,40.1476081 34.6738043,42.7444087 36.1373747,43.9233709 C48.4305154,53.011698 53.4193322,36.4500738 43.7909606,34.7981847 C42.7308423,34.6161536 42.3371117,35.7939723 42.8332164,36.1495355 Z M22.6131166,25.5258511 C24.4637177,25.1980775 26.3594554,25.6575615 27.8908404,26.7387887 L28.006902,26.8221421 C29.4822469,27.8995806 31.1329415,29.7914601 30.2863407,31.6486319 C29.9465623,32.3943231 28.9289825,32.5112599 28.2832781,32.1732199 C27.2082745,31.6103207 27.0134348,30.2253583 26.0542818,29.4588839 C25.2676509,28.8306303 24.2084451,28.4495215 23.1953789,28.5414183 C20.8154257,28.7572631 19.3514949,31.1012575 18.6122575,33.1212343 C18.5177214,33.3796471 18.1378216,33.4800575 17.9893723,33.2026143 C16.2463468,29.9494175 19.3316849,26.1072799 22.6131166,25.5258511 Z M52.2554832,24.2981399 C55.8004626,24.0064239 59.949771,27.6762863 59.0164462,31.4127551 C58.5688415,33.2056191 55.9055306,33.1542871 55.4320977,31.4127551 C55.1715591,30.4544743 55.1976381,29.6066199 54.5067971,28.8108487 C53.9365713,28.1537991 53.1263691,27.7721895 52.2554832,27.8307831 C51.295578,27.8953863 50.4101481,28.3744015 49.7373618,29.0477271 C49.1297729,29.6556983 48.7664231,30.5453695 48.1370182,31.0834791 C47.9820491,31.2156903 47.7746715,31.2242039 47.6217085,31.0834791 C46.5384298,30.0861359 47.1886478,28.0098191 47.8754766,26.9686559 C48.8584517,25.4787759 50.4590461,24.4461263 52.2554832,24.2981399 Z M15.8624599,18.898965 C18.1365928,16.8887538 22.2688497,14.9474026 25.3353809,15.936733 C27.0984672,16.5053914 27.8670434,19.342173 25.8988363,20.2413594 C23.6196882,21.2825226 20.9919851,20.8588458 18.672214,21.9380698 C17.6980154,22.3915442 16.7817422,22.9581994 16.1034392,23.789277 C15.5690719,24.4443234 15.0254265,25.3062002 14.2525874,25.6838034 C14.0494726,25.7832122 13.77439,25.7857162 13.6116475,25.6014218 C11.91752,23.687865 14.3832328,20.2063034 15.8624599,18.898965 Z M48.3467279,15.8369486 C49.7522318,15.4430694 51.311451,15.4510822 52.7392725,15.6984774 C54.1665925,15.9458726 55.6157285,16.5365662 56.7810053,17.3981926 L56.9162792,17.4990814 C58.1884035,18.4563205 59.7064631,19.8490733 59.6251134,21.5448166 C59.5571577,22.9608286 58.0653927,23.9186086 56.7774947,23.176423 C55.727567,22.5712062 55.2335718,21.3587694 54.3446313,20.5514798 C53.6111614,19.8851654 52.7495536,19.3598262 51.8302713,18.9917382 C50.8091808,18.582835 49.786335,18.391279 48.6905184,18.3729998 C47.8467145,18.3589774 46.9978954,18.635419 46.1698894,18.7238102 C46.2380958,18.8635334 45.5836149,18.7984294 45.2084795,18.6744814 C44.9306386,18.5562926 44.9291341,18.2054822 45.0254255,17.9778686 C45.5031213,16.8503174 47.2411316,16.146443 48.3467279,15.8369486 Z" id="ðŸ–-Ink"></path>
                    </g>
                    <g id="facial-hair/*-None" transform="translate(30.843352, 84.635200)"></g>
                    <g id="accessories/*-None" transform="translate(11.785671, 60.346400)"></g>
                </g>
            </g>
        </g>
    </g>
</svg>