<?xml version="1.0" encoding="UTF-8"?>
<svg width="336px" height="504px" viewBox="0 0 336 504" version="1.1" xmlns="http://www.w3.org/2000/svg" xmlns:xlink="http://www.w3.org/1999/xlink">
    <!-- Generator: Sketch 62 (91390) - https://sketch.com -->
    <title>peep-sitting-12</title>
    <desc>Created with Sketch.</desc>
    <g id="Introduction" stroke="none" stroke-width="1" fill="none" fill-rule="evenodd">
        <g id="variations-sitting" transform="translate(-2248.000000, -247.000000)">
            <g id="a-person/sitting" transform="translate(2243.000000, 200.000000)">
                <g id="pose/sitting/one_leg_up-1" transform="translate(-20.311475, 159.504800)">
                    <path d="M210.868342,212.36027 C211.442602,218.341993 210.268435,224.054285 207.471517,228.88361 L206.561525,230.454787 L208.293536,231.059494 C211.445679,232.160175 214.950996,232.695253 219.010053,232.695253 C223.187348,232.695253 227.531355,232.114513 231.021796,231.64755 L233.256509,231.348854 L232.158773,229.410868 C231.275968,227.853314 231.11259,225.965783 230.939466,223.967502 C230.892786,223.430658 230.844824,222.87565 230.78173,222.326445 C227.474417,192.812137 223.293787,162.912602 219.250888,133.997702 C218.186751,126.389049 217.086707,118.521056 216.019493,110.781724 L212.958144,110.899537 C212.134585,125.224794 211.335393,139.792236 210.562618,153.880102 C210.222781,160.074998 209.882688,166.270147 209.540031,172.464287 C208.318415,188.124591 208.740325,200.805006 210.868342,212.36027 M212.117658,389.346472 C207.621814,389.346472 203.117251,388.879004 198.729642,387.957186 C184.999481,385.079723 172.525561,378.290715 161.91138,372.153337 C161.369437,371.846569 160.819543,371.539801 160.25503,371.224456 C156.099536,368.903262 150.928123,366.015203 147.687238,362.491912 C144.131908,358.626787 143.519946,354.775537 145.76184,350.37155 L146.116553,349.674763 L145.745939,348.985796 C143.424535,344.672124 143.597147,339.334966 146.16554,336.007442 L148.324079,333.211211 L144.775161,333.587103 C141.196747,333.966274 137.590121,334.479909 134.101989,334.976641 C130.231957,335.527865 126.229582,336.097757 122.287993,336.479199 L121.192565,336.585407 L120.940702,337.639165 C120.800407,338.225707 120.627283,338.581922 119.411309,338.581922 C118.356919,338.581922 116.939865,338.27364 115.440225,337.947447 C113.578947,337.542795 111.46914,337.083905 109.434738,337.083905 C108.539878,337.083905 107.735043,337.168922 106.97381,337.344506 L106.530868,337.446174 L106.215654,337.768583 C106.01406,337.974692 105.67089,338.102597 105.320281,338.102597 C105.05508,338.102597 104.809116,338.028932 104.644712,337.900523 L104.147653,337.51227 L103.516968,337.581394 C92.5285818,338.786013 83.0534296,340.900088 74.5511072,344.043703 L74.5126351,344.058083 L74.3282258,344.13755 C71.2537963,345.462253 68.0752357,346.832113 65.1803424,346.832113 C63.0641234,346.832113 61.3457053,346.113378 59.7719421,344.570204 L59.3272052,344.134523 L58.6998543,344.128468 C52.3345259,344.06994 49.4260392,336.659324 49.023878,331.692508 L48.9733514,331.067115 L48.4880906,330.660446 C37.3948041,321.366082 30.8458358,308.601154 28.4662114,291.635826 C26.2989528,276.182641 27.9629971,259.889629 29.8765967,245.989457 C34.3031904,209.966925 38.9200925,177.674297 50.6561187,147.046946 L51.2044737,145.615278 L49.7433053,145.091048 C44.6744849,143.27264 40.8006062,141.103064 37.9000703,138.458199 L37.6992462,138.274542 L37.4463567,138.170857 C33.2893237,136.465721 31.253383,130.171428 30.7283678,128.28314 L30.686305,128.130765 L30.6129517,127.990499 C29.7647713,126.366092 29.5690768,124.106453 30.0763948,121.790809 L30.1307687,121.541308 L30.0992216,121.28777 C29.8253006,119.089182 30.7345233,116.790693 31.6970939,114.356983 C32.1369577,113.245202 32.5914408,112.096083 32.9235828,110.951506 C34.0654332,107.680491 35.2060011,104.351706 36.3093794,101.131903 C38.7849274,93.9082237 41.3443445,86.4385748 44.0709867,79.1722607 L44.4439091,78.1785443 L43.6224026,77.4936142 C42.2199683,76.3240613 42.6883013,74.9473895 44.7106486,71.6556884 C45.1884714,70.8781729 45.6403897,70.1425352 45.9840733,69.4177454 C48.5763199,64.9456435 51.3545146,60.6526578 54.2429959,56.6566012 L54.3024994,56.5746114 L54.3499482,56.4858102 C69.1716891,28.8489419 95.4627166,13.6288607 128.379657,13.6288607 L129.050609,13.6301221 L129.42148,13.4073621 C135.590857,9.70344152 139.994881,3.34809707 142.885157,-6.02144458 L142.97749,-6.32013971 L142.941839,-6.63043956 C142.842838,-7.49398132 142.734347,-8.62619734 142.771536,-9.72486061 C142.865665,-12.5072159 143.958014,-14.9901192 145.768252,-16.5370774 C149.20278,-19.4720599 154.416769,-19.717777 159.463019,-19.717777 L160.187576,-19.717777 C166.639338,-19.6980994 171.194172,-18.5797586 174.52226,-16.1965044 C178.388958,-13.4275198 180.525952,-8.95768839 181.055583,-2.53170657 C181.213832,-0.608856641 181.208446,1.38311699 181.203573,3.30949879 L181.20229,3.84709958 L181.26718,4.06052533 C181.730896,5.58780602 182.274121,7.05529724 182.881467,8.42263477 L183.506253,9.82932739 L184.927154,9.19510478 C185.846123,8.7851558 187.011056,8.57425282 188.489409,8.55053885 C188.915679,8.54070007 189.331434,8.5361591 189.750779,8.5361591 C193.183255,8.5361591 196.855027,8.84898171 200.406254,9.15146099 C203.081856,9.37951876 205.848766,9.61539709 208.526933,9.72009176 L208.56361,9.72160541 C208.56361,9.72160541 208.933455,9.71933493 209.099397,9.71933493 C215.608611,9.71933493 220.327336,10.7413062 223.949095,12.9358577 C227.848878,15.2984252 230.652977,19.0903902 232.7733,24.8692833 C244.14615,57.9939179 248.821786,93.6736067 252.945989,125.151886 C255.285346,141.613419 255.996823,158.48919 256.684959,174.809195 C257.411568,192.035126 258.162543,209.847598 260.821987,227.259708 L261.032044,228.636127 L262.444225,228.545056 C268.658999,228.144693 275.374936,227.282161 282.485084,226.36892 C293.288035,224.981653 304.458778,223.546958 315.257625,223.546958 C330.356621,223.546958 341.804877,226.513222 350.25103,232.613768 C356.139305,238.153503 359.185522,245.65393 359.060359,254.310034 C358.883388,266.540389 352.403926,280.061894 342.553286,288.757605 L342.516097,288.791663 C330.064747,300.535629 307.336487,310.721536 274.962773,319.066584 C245.193103,326.740324 214.400076,330.910704 198.693991,332.713218 L194.806775,333.159747 L197.961996,335.437045 C199.239012,336.359115 200.404202,337.170688 201.524251,337.918687 L202.246756,338.400787 L203.038255,338.038518 C205.295281,337.005195 206.72875,336.788237 207.534355,336.788237 C208.249165,336.788237 209.111452,336.943135 209.158901,337.6818 C209.189935,338.165413 208.845225,338.883392 208.117591,338.974211 L204.253971,339.455554 L207.408679,341.701822 C209.515921,343.202362 212.659857,345.010678 216.300595,347.105076 C228.211284,353.956648 246.211073,364.311076 243.115356,373.403871 L242.912223,374.001261 L243.199994,374.564594 C244.03176,376.192281 244.102805,377.703416 243.416463,379.184025 C241.946831,382.357157 237.349422,384.765891 233.445022,385.745732 L233.37808,385.762634 L233.312678,385.785339 C226.519027,388.148411 219.387849,389.346472 212.117658,389.346472" id="Fill-1" fill="#FFFFFF"></path>
                    <path d="M199.04778,330.932628 C199.517139,330.455652 199.714629,329.830361 199.276048,329.096358 C197.580713,326.934452 194.064111,328.412801 191.87659,328.911974 C191.050467,328.226147 190.229987,327.537546 189.440027,326.811109 C189.714461,325.111046 187.667749,323.980781 186.826493,322.669159 C186.000626,321.703352 185.223491,320.60613 184.233221,319.796456 C181.819997,317.917053 178.475494,319.188317 175.674729,319.10281 C173.51773,316.363286 171.29661,313.710027 169.244768,310.879951 C171.609516,306.912295 171.776228,302.263605 170.991399,297.841927 C207.265409,284.100168 238.663729,258.082134 277.894958,252.068854 C279.244045,251.844365 280.000662,250.20736 279.664416,249.006722 C276.927771,242.486449 237.601644,259.310519 231.723116,262.357517 C214.385303,270.645956 198.144713,280.977499 181.294213,290.09327 C177.780432,291.957034 173.915274,292.958659 170.073199,293.927241 C164.169022,274.580821 154.181422,256.846183 146.523177,238.19341 C147.020492,237.333289 147.443941,236.430288 147.803013,235.502063 C147.549098,245.760458 157.541571,245.616684 158.921435,235.88546 C158.352049,240.957905 162.194124,251.821663 167.739228,244.693504 C169.039583,242.902636 169.501248,240.609821 169.721564,238.296826 C170.006514,239.895996 170.329679,241.487598 170.688752,243.074156 C172.111961,246.217003 175.997894,242.395644 176.900448,240.756117 C177.42136,240.66279 177.908673,240.425689 178.26518,240.135619 C188.070423,241.495165 199.619475,241.416972 206.814004,233.688494 C219.017337,238.362407 232.523591,234.175055 244.865423,232.308769 C269.979976,229.425724 295.194555,225.031539 320.53481,225.367264 C331.848157,226.023074 345.195136,227.846733 352.351193,237.48463 C361.530624,251.37773 356.342027,270.141487 346.216184,282.168048 C321.858249,312.958114 238.248231,326.346745 199.04778,330.932628 M199.732582,342.023398 C200.176037,341.904847 200.622569,341.796134 201.06628,341.69297 C208.175914,347.602835 241.659419,362.948808 239.11257,372.115025 C238.212324,373.255127 236.057889,373.514677 234.695722,373.88294 C232.323279,374.523617 229.927753,375.078786 227.5094,375.517675 C219.691624,376.937757 211.594797,377.184948 203.78728,375.565347 C200.914957,375.129233 198.321941,373.905893 195.705842,372.722912 C187.25225,369.010013 177.942015,364.908421 169.529204,361.226043 C158.84167,356.996064 140.095523,348.659447 147.805578,334.592557 C155.110137,342.794985 164.381901,342.078637 169.052407,331.883554 C170.663104,328.788631 172.068616,324.616665 175.8517,323.36558 C177.847117,322.018645 180.399096,321.738665 182.066218,323.239462 C182.186764,323.052809 182.294486,322.790484 182.35322,322.558428 C184.233221,325.229596 185.854433,328.042016 188.057342,330.48365 C187.300982,330.524007 179.427036,336.342815 181.750748,336.34559 C184.546383,334.90785 187.324065,333.709734 190.342838,332.935121 C192.530615,335.132087 194.936401,337.175442 197.429389,339.06443 C195.008215,340.661077 192.833262,342.615898 191.084066,344.737194 C190.932743,344.9241 191.117409,345.166245 191.343111,345.065099 C194.059238,343.856894 196.852309,342.794985 199.732582,342.023398 M235.773196,381.659343 C208.578332,393.855154 179.788417,380.274826 156.597467,365.79654 C151.244979,362.812601 144.204595,358.582621 145.286941,351.557878 C149.229044,357.316402 155.728255,360.595456 161.965856,363.438144 C172.445642,368.167549 182.994421,372.745613 193.500111,377.417004 C194.492433,380.703373 199.237319,380.82949 202.105025,381.558701 C214.870051,384.030604 228.591747,382.80222 240.605285,377.873549 C239.909967,379.929264 237.635243,380.87237 235.773196,381.659343 M127.271508,334.171324 C126.599786,334.257084 125.927551,334.335025 125.255829,334.410948 C125.325079,333.523081 124.789035,332.635214 123.927261,332.360278 C124.314546,330.478353 124.458175,328.533621 124.250426,326.624455 C125.37381,329.522635 129.000442,328.642335 131.303635,327.807185 C134.594277,326.914273 137.864401,325.95351 141.116572,324.929184 C142.398973,327.308012 143.758319,329.651274 145.428006,331.805361 C139.349166,332.345144 133.327264,333.417142 127.271508,334.171324 M124.596675,325.055302 C124.435092,325.396071 124.20426,325.756515 124.19913,326.165388 C124.034983,324.755394 123.714382,323.362805 123.22707,322.028483 C123.683348,323.037422 124.14014,324.046362 124.596675,325.055302 M120.759729,317.495821 C117.769169,313.604088 112.242018,310.423153 107.13293,311.507763 C106.804635,311.578641 106.796684,312.10556 107.13293,312.171394 C113.996343,313.10214 120.023631,318.537551 120.261901,325.565069 C120.803331,328.745751 118.587341,331.868419 119.333698,334.920462 C119.18494,334.930552 119.036181,334.938119 118.889988,334.948208 C118.836127,335.152266 118.787139,335.333875 118.723019,335.493035 C119.464503,335.616378 119.682512,336.807179 118.807657,337.019057 C118.289824,337.145174 117.74865,337.210755 117.197217,337.238501 C114.399017,336.484319 111.446929,336.310024 108.771839,335.195146 C106.124962,334.027551 106.786682,330.745974 105.853093,328.473337 C105.168291,325.852364 104.38064,323.241985 103.388317,320.727202 C103.316503,320.525162 103.042069,320.570817 103.018986,320.774875 C102.318794,325.79208 102.341878,330.894793 102.511155,335.951851 C101.592955,336.04543 100.679885,336.148846 99.7639941,336.262352 C99.823241,334.849584 95.5784918,317.639847 93.3419835,322.056481 C94.4679321,326.912003 94.6038666,331.984448 94.7244124,336.980969 C88.0841371,338.073399 81.5413242,339.700314 75.1754829,341.914937 C70.6896422,343.271961 65.3545952,347.287541 60.9998159,343.657628 C57.6270998,340.873207 56.490892,336.01491 56.8089276,331.881031 C61.1947409,307.42181 95.8349721,304.563988 116.284148,306.372512 C118.215444,310.821937 120.182648,315.256227 122.1755,319.680428 C121.762567,318.918678 121.290643,318.187197 120.759729,317.495821 M51.0150373,331.404307 C50.640576,325.850094 51.5767292,318.936082 55.6983678,314.796907 C65.1317138,306.834102 78.3404499,304.329157 90.1282852,301.446364 C95.6192722,300.364276 101.185151,299.645407 106.773858,299.287233 C108.75645,299.130848 111.275087,299.579573 112.675213,297.960477 C113.396179,299.665586 114.126892,301.368171 114.858117,303.070757 C91.3901683,300.001058 42.4280764,310.665299 56.139514,342.762194 C53.2359003,339.621869 51.312298,335.79824 51.0150373,331.404307 M167.608423,313.044126 C168.688205,315.737996 170.009079,318.303225 171.735191,320.648757 C169.773117,321.930363 168.17268,323.824395 167.044166,325.860183 C159.811422,344.75258 152.075975,334.632914 142.465658,324.49534 C150.598649,321.430938 161.370822,319.135348 167.608423,313.044126 M47.2191286,327.560247 C28.4114272,309.01089 24.7617124,278.109588 31.7097641,253.819364 C32.3278816,244.812055 35.4825895,236.2285 38.3090025,227.700437 C47.3088968,201.831222 59.1454632,176.943201 73.3416486,153.444995 C90.9541518,158.275294 108.535877,163.23398 126.189417,167.905623 C128.620594,168.432794 131.054592,169.474525 133.550402,169.625866 C134.442954,170.193394 135.33807,170.818937 136.266529,171.368557 C134.914878,177.979887 136.161372,184.729694 136.476843,191.381129 C136.763844,196.617526 136.197279,201.745462 135.501961,206.926368 C134.725082,214.463147 131.526516,238.977608 137.936216,243.46512 C140.108604,244.511895 142.05016,241.411928 142.986313,242.264482 C143.830133,241.676774 144.617528,240.912503 145.258729,240.070038 C147.733764,248.060841 151.778458,255.474025 154.276576,263.472395 C157.600305,275.226291 168.516363,294.252624 166.092625,305.464214 C164.217753,312.388063 156.015513,313.881294 150.095947,316.144094 C143.255617,318.520147 136.338343,320.701727 129.308218,322.472668 C125.876511,315.200735 122.596128,307.860446 119.3773,300.492664 C104.665589,266.499214 91.6363894,231.796732 79.9921832,196.680585 C79.7741749,195.901179 77.0965204,187.456353 76.606643,189.812227 C76.5656062,189.570082 76.2603946,188.944539 76.1449784,189.479277 C78.1198769,197.724837 80.1227316,205.967875 82.2902468,214.168033 C76.9657154,213.42394 71.2410748,213.133869 66.3679489,215.739456 C66.1165982,215.873141 66.301264,216.203316 66.5497934,216.163211 C72.3206005,215.164361 77.8864798,217.051078 83.4290194,218.405579 C91.2131969,244.859979 101.256966,270.643182 111.888075,296.104028 C108.599997,295.057253 104.78357,296.215012 101.351864,296.297997 C90.5437833,297.413128 79.8588134,299.774047 69.6483321,303.446335 C56.8140572,307.600897 47.7397837,313.018651 47.2191286,327.560247 M36.8647619,134.512241 C33.7051809,131.114636 31.222195,126.776195 31.7020697,122.172908 C33.600024,119.645514 34.2284007,116.348803 35.3338309,113.42767 C39.6555242,101.204366 43.6668763,88.8877337 48.3707253,76.7958433 C58.3760223,79.8680647 68.2194803,83.5532171 77.5043241,88.3933532 C79.212483,89.263816 80.9026883,90.1668171 82.5723751,91.1026087 C84.3215708,92.0812802 86.2297844,93.7813437 88.3277934,93.2945302 C86.0348593,96.5357491 81.3130568,99.9081302 80.515403,103.653567 C80.3435612,104.839323 81.1848166,105.939067 82.4774774,105.674221 C102.711209,120.023866 123.606661,134.07083 142.732398,150.054705 C157.054258,161.375261 168.049569,170.556613 172.961167,188.92436 C176.272328,200.822282 176.282331,213.257464 175.795275,225.490859 C175.700377,227.869182 175.697812,230.303501 175.505452,232.697211 C175.79271,234.488079 175.246407,238.132874 173.230472,238.198455 C173.276638,238.632299 173.420267,239.033352 173.648535,239.386481 C173.584414,239.471989 173.51773,239.552956 173.44848,239.636194 C173.348453,239.146858 173.25099,238.660045 173.158657,238.170709 C171.588998,231.229203 171.378684,223.175342 171.640294,215.784859 C171.750324,213.666085 168.495845,213.716532 168.313744,215.784859 C167.823867,221.371862 167.333989,226.958866 166.844112,232.543347 C166.256515,236.162919 167.182666,240.897368 164.284438,243.649252 C161.337479,240.930159 162.312105,235.567644 162.455734,232.059056 C162.686309,226.335846 162.935352,220.615157 163.148231,214.891947 C163.214915,213.078378 160.206401,212.611743 159.865026,214.45558 C158.898352,219.712156 157.851912,224.953598 156.725707,230.179906 C156.046291,232.200308 155.579496,241.265631 152.183697,239.691685 C150.160067,238.31196 151.61944,230.222786 151.352701,227.544051 C151.478376,222.242073 151.552499,216.947662 151.942606,211.658295 C152.101623,209.524387 148.621186,209.070365 148.144132,211.153825 C147.369562,214.526206 146.628333,217.898587 145.956355,221.293669 C144.481593,227.01688 145.017637,234.775627 139.693106,238.579329 C137.607921,223.712602 140.608484,208.949292 141.029368,194.135534 C140.778018,189.335503 139.952151,184.583397 139.223747,179.841381 C138.418399,174.597416 137.94904,168.88934 139.83417,163.832029 C139.318645,161.56696 137.29245,167.693746 137.102655,168.203261 C135.576597,165.201665 131.860197,164.969609 128.920933,164.033817 C122.388379,161.922611 115.696808,160.331008 109.08731,158.454381 C91.5591888,153.593813 74.0108058,148.808917 56.4575496,144.034109 C49.4453778,142.096945 42.0638743,139.80413 36.8647619,134.512241 M212.387321,213.590415 C209.968712,200.501692 210.035397,187.239431 211.069012,174.007187 C212.20522,153.485352 213.308085,132.958473 214.487895,112.439162 C219.609807,149.578233 225.070273,186.674425 229.245516,223.932047 C229.543033,226.525022 229.497123,229.269338 230.807737,231.582332 C223.564733,232.550915 215.844419,233.527064 208.801726,231.067773 C211.892314,225.733004 212.982355,219.659187 212.387321,213.590415 M248.984497,121.401069 C254.460352,156.600454 251.336422,192.417814 256.648129,227.576842 C249.27945,228.40165 241.967196,229.622467 234.675204,230.964357 C235.473114,226.620871 233.95988,222.136134 233.69827,217.76238 C229.737958,186.565712 225.365225,155.389726 219.571335,124.465723 C218.150177,117.06515 216.714144,109.694846 215.06754,102.33463 C215.316326,97.877639 215.534335,93.4206477 215.677964,88.9608818 C223.718621,83.9139131 232.785201,80.6472184 242.162121,79.0003766 C244.69589,93.0952646 247.227607,107.180063 248.984497,121.401069 M185.595388,10.7910059 C185.274787,10.2436561 184.969576,9.68369456 184.677188,9.11616596 C185.667202,9.1540012 186.631568,9.18931409 187.606193,9.35074445 C187.562592,10.9171234 187.649795,12.4961141 187.667749,14.0751048 C187.180179,12.9198688 186.226329,11.8655267 185.595388,10.7910059 M350.979024,231.372977 C327.590584,214.392522 289.174706,225.210878 262.080382,226.956344 C256.914868,193.138954 259.023137,158.769674 254.208745,124.897045 C249.774457,91.0572064 245.09882,56.7456884 233.962445,24.3234101 C229.366318,11.7870817 221.415428,8.06434629 208.324673,8.16524027 C201.681833,7.90543828 194.656837,6.84352922 188.201228,6.99461794 C186.785456,7.01757132 185.305565,7.20422517 184.028293,7.77427612 C182.232931,3.73347249 181.258305,-0.604968363 180.765863,-4.97619976 C180.735086,-5.25365818 180.381143,-5.30410517 180.275986,-5.03925849 C178.757622,-1.23303335 178.59604,2.921276 179.42165,6.90658795 C180.019506,9.76188739 183.576888,20.9989537 187.708785,16.6024988 C188.036824,25.8216856 186.008064,36.8317404 176.96226,41.6166371 C161.155378,48.4976061 139.305564,42.2320903 130.149473,27.6276877 C128.379759,24.7093295 126.853701,21.6040653 124.894192,18.8019874 C138.546639,14.9427929 146.210014,-1.38941901 142.994007,-13.8271236 C141.006285,-4.15391387 137.381962,6.65435302 128.356676,12.0723594 C95.491032,11.9992113 68.1658759,26.944131 52.725761,55.7289294 C49.7044229,59.9087145 46.9113523,64.2519478 44.3516787,68.6713561 C42.974123,71.6275495 38.9399441,75.7389789 42.3639563,78.5942783 C38.4090299,89.1326538 34.9003792,99.8170734 31.1916738,110.438939 C30.1731905,113.977795 27.8443493,117.690693 28.3088351,121.411158 C27.8061337,123.703974 27.8292169,126.415499 28.9808135,128.620033 C30.0734197,132.549853 32.525115,137.836697 36.5905844,139.50397 C40.0402447,142.64934 44.4029748,144.816038 48.9529356,146.447998 C36.8185954,178.108527 32.1996415,212.253569 28.088262,245.704966 C24.0586998,274.969263 21.978901,310.567179 47.2268231,331.716826 C47.7167005,337.768195 51.312298,345.479016 58.4221888,345.544598 C63.3463543,350.372122 69.3482501,347.723655 74.8292344,345.362988 C84.0804794,341.94243 93.7831296,340.045876 103.424225,338.988759 C104.45784,339.796163 106.140351,339.662227 107.061115,338.721643 C112.901172,337.37723 120.995691,342.82046 122.1755,337.889267 C129.705762,337.160056 137.153951,335.793195 144.676518,334.99588 C141.506165,339.102517 141.734689,345.158426 144.122521,349.595238 C138.041373,361.538815 152.20678,368.455097 160.868121,373.355769 C172.560802,380.115665 184.772086,386.530252 198.144713,389.33233 C209.90177,391.80171 222.218212,391.052824 233.562079,387.10787 C239.522938,385.611864 247.848289,380.701103 244.311169,373.782298 C248.794702,360.615635 217.309178,346.972247 208.047674,340.378574 C211.833324,339.907147 211.971823,332.062388 202.125544,336.570079 C200.935475,335.775286 199.765925,334.955523 198.609199,334.120877 C238.435205,329.55038 314.494699,316.976469 343.317957,289.795633 C359.152795,275.819295 368.28888,247.548804 350.979024,231.372977" id="ðŸ–-Ink" fill="#000000"></path>
                </g>
                <g id="Head" stroke-width="1" transform="translate(86.511840, 45.072000)">
                    <g id="head/Afro">
                        <path d="M48.997186,20.7010885 C87.0047012,18.8346736 104.155802,45.556847 105.265193,57.4923764 C106.035284,65.777498 101.133153,75.3270485 101.133153,82.7304914 C101.133153,86.5094883 105.766711,94.622548 103.609621,100.130426 C98.8084218,112.389726 88.6426423,125.995271 75.6883577,125.995271 C62.7340731,125.995271 45.8749188,129.572653 31.5609958,109.107011 C30.2179421,107.18675 13.2305876,96.2729011 11.5802528,85.9022477 C7.46940499,60.0698059 21.8772141,22.0328546 48.997186,20.7010885 Z" id="ðŸŽ¨-Background" fill="#FFFFFF"></path>
                        <path d="M47.2053483,4.07080288 C48.5644619,2.51832288 50.8589063,1.89733088 52.8975766,2.01752288 C55.8590399,2.19280288 58.4345851,4.01821888 61.3810029,4.15343488 C64.4701024,4.29616288 67.4516264,3.22695488 70.5484995,3.72274688 C72.4467448,4.02823488 74.327437,4.90713888 75.5436179,6.38950688 C79.7563684,5.18508288 84.3302117,6.78013088 87.0133325,10.2631949 C90.3233508,9.74987488 93.9242494,11.9386213 94.9373155,15.1234589 C99.1425432,15.2586749 103.112057,18.6315629 103.580977,22.8583149 C105.261313,23.3015229 106.720479,24.4586213 107.615688,25.9883149 C108.656338,27.7611469 108.829362,29.7943949 108.641292,31.7925869 C110.619781,32.8016989 111.625324,34.9701629 111.888621,37.2638269 C113.696593,38.6109789 114.481469,41.0323469 114.112853,43.3184989 C115.497042,44.0972429 116.211956,45.9101389 116.204183,47.5277229 C116.19666,49.0376349 115.795696,50.3750213 116.359904,51.8320989 C116.862511,53.1298751 117.042949,54.2114564 116.766485,55.5708453 L116.738299,55.7032829 C116.689401,55.9248869 116.648277,56.1374765 116.611415,56.3470613 C116.985798,56.6750853 117.302507,57.0862421 117.540226,57.5645061 C118.407351,59.3122981 118.27821,61.3057325 117.616959,63.0783141 C117.906585,64.2071173 117.869724,65.3995221 117.441678,66.4845053 C118.243354,67.6375973 118.66488,69.0518565 118.541005,70.5192005 C118.402085,72.1620749 117.650811,73.6331749 116.511613,74.7209125 C116.815031,76.9649973 115.901266,79.3896205 114.249015,80.9696445 C114.483475,82.3130405 114.281112,83.7210397 113.545135,84.9945741 C113.020547,85.9022741 112.31441,86.5783541 111.499694,87.0496069 C111.526525,87.7990541 111.424968,88.5655285 111.175212,89.3335053 C110.828412,90.3992077 110.241135,91.3810261 109.468296,92.1717893 C109.929441,95.1159925 108.164098,98.3829613 105.056944,99.2090309 C104.795904,99.2783917 104.5469,99.3101925 104.308428,99.3152005 C103.999744,102.146974 103.325704,104.939435 102.282045,107.591421 C99.6290156,114.344459 94.8044133,120.248891 88.5128711,123.932275 C85.4009525,125.752683 81.9053726,126.999675 78.3370727,127.520507 C75.769301,127.896107 73.2993253,127.803459 70.721774,127.548051 C67.4867327,127.225035 64.2368966,126.741763 61.0923793,125.910435 L60.5866055,125.776173 C59.283041,125.427456 57.9086375,125.025078 56.7793253,124.322899 C55.5155001,123.536643 54.8587624,122.324707 54.567882,120.897427 C54.4055835,120.103033 54.9094874,119.24862 55.7803867,119.23217 L55.8364716,119.232267 C56.0270484,119.236273 56.2160203,119.229062 56.4073675,119.217043 L56.5513854,119.207227 L56.5586574,119.207227 C56.5686877,119.204723 56.5739537,119.204723 56.5837333,119.204723 C56.6689913,119.192203 56.7517418,119.167163 56.8344922,119.154643 C57.792592,118.993586 58.6305201,119.153297 59.530198,119.452115 L59.6429925,119.490179 C61.1575766,120.011011 62.6596228,120.494283 64.2243587,120.852355 C65.8417539,121.220443 67.4792099,121.513411 69.1216811,121.743779 L69.2846744,121.763811 L69.3348262,121.771323 L69.3599021,121.773827 L69.3599021,121.773827 C69.3649172,121.773827 69.3699324,121.773827 69.3749476,121.776331 L69.8589124,121.836427 L69.8589124,121.836427 C70.2403168,121.881499 70.6212196,121.921563 71.0023732,121.961627 C71.7044983,122.031739 72.4066234,122.086827 73.1087485,122.126891 C85.2279288,122.807979 95.4062348,113.280259 98.478032,101.857011 C99.5914018,97.7229069 99.6641219,93.5988189 99.3356276,89.4722269 C99.2303089,89.1717469 99.1676191,88.8387149 99.1701267,88.4731309 C99.1701267,88.2828269 99.1804078,88.0950269 99.192695,87.9047229 C98.7842087,83.9133469 98.0745608,79.9194669 97.6304667,75.9130669 C97.1116464,71.2330909 96.8230229,66.5258213 96.9283417,61.8155469 C96.981001,59.4893309 97.2292524,57.1856509 97.555239,54.8822213 L97.6730957,54.0546493 L97.6730957,54.0546493 C96.1998869,53.7674405 94.8302415,53.0698261 93.7396908,52.0599629 C91.3730277,53.4246429 88.3100071,53.5455861 85.9739367,52.1045341 C83.3560132,53.7439029 79.698443,53.8926405 77.0622141,52.2898301 C75.4688917,53.4256445 73.4613155,53.9156773 71.4906009,53.4844885 C70.604168,53.2906789 69.7227503,52.8712589 68.9679658,52.2905813 C68.4290848,52.3854829 67.8831826,52.4222917 67.3402894,52.3939965 L67.2282002,52.4565965 L67.2282002,52.4565965 C65.976913,53.1151485 64.5907175,53.5485909 63.1641498,53.5002637 C62.1079531,53.4647069 61.01991,53.2566245 60.0126112,52.8629957 C58.9366046,53.5115317 57.7590405,53.9542389 56.4992275,54.1129925 C54.659409,54.3446125 52.6738996,53.9382133 51.1437685,52.8960485 C48.3475554,54.4865893 44.9081455,54.7314805 41.8900107,53.6627733 C41.2718899,54.7081933 40.4165511,55.6096333 39.4150199,56.3044933 C39.5943125,56.9460181 39.6514855,57.6301109 39.5897988,58.2879117 C39.4884922,59.3706413 39.2166695,60.3414421 38.7720739,61.2133349 C39.2407424,62.1868901 39.3816689,63.3822997 39.119375,64.5822165 C38.7454934,66.2934501 37.7484758,67.7820781 36.4575687,68.9414301 C36.3437242,71.6722925 34.8439349,74.2328829 32.4030472,75.6554053 C32.279423,75.7272701 32.1565511,75.7858637 32.03393,75.8386981 C31.9261036,75.9859333 31.7972135,76.1153901 31.650018,76.2245645 C30.0978201,77.6566021 27.6413854,77.5426701 25.6957466,76.7336277 C25.6581328,76.7353805 25.6207697,76.7386357 25.5826543,76.7393869 C24.8878013,76.7569149 24.4141176,76.4864829 24.1330168,76.0883469 C23.84991,76.1036213 23.5688092,76.1334189 23.2857023,76.1860029 C22.2523247,76.3788109 21.1188942,76.7494029 20.1835633,77.2304213 C17.7562166,78.4771629 16.6328165,80.6806829 16.2967995,83.3299149 C15.9309421,86.2195309 16.7632111,89.1642349 19.0027393,91.1198589 C20.0907825,92.0713789 21.4824947,92.6673309 22.8967752,92.9177309 C24.4590035,93.1956749 26.1290581,92.5120829 27.2825493,93.8517229 C27.5132475,94.1171469 27.6712257,94.4877389 27.5458462,94.8458109 C27.1546622,95.9625949 26.5102117,96.3907789 25.5021607,96.5460269 C26.9590702,98.2712829 28.4535936,99.9389469 30.1086027,101.488923 C31.8990217,103.169107 33.7496228,104.796707 35.3647612,106.649667 C37.0721789,108.610299 38.6143465,110.688619 39.6850872,113.067419 C40.2969391,114.434603 40.7884267,115.844355 41.3177788,117.244091 L41.4123109,117.487955 C42.0025092,118.975142 42.7875808,120.408715 41.8792281,121.961627 C41.5181352,122.572603 40.700661,123.163547 39.9483842,123.065891 C37.8297217,122.795459 37.1200739,121.365675 36.4678498,119.502699 C35.9763623,118.095451 35.6002239,116.648139 35.0713732,115.253411 C34.9723234,114.995248 34.8644971,114.73959 34.7514048,114.485434 C33.5297072,114.825477 32.1863914,114.555546 31.0960915,113.859935 C29.9310654,114.375508 28.640409,114.632669 27.3938863,114.610884 C25.7248347,114.581588 24.1999695,114.118598 22.8890016,113.283514 C22.7846859,113.25597 22.6798687,113.229428 22.5758037,113.19963 C20.5815177,113.962348 18.2459488,113.826131 16.4402336,112.589906 C15.2709446,111.789377 14.471525,110.72092 14.0171498,109.53127 C12.5063271,109.502474 11.0118037,108.96762 9.92927729,107.89741 C8.93526879,106.91484 8.35426029,105.647065 8.18173813,104.329711 C6.88130219,104.07255 5.66211214,103.444797 4.70596825,102.387358 C3.90755173,101.504197 3.42233315,100.3794 3.25833679,99.2115349 C1.67454323,98.7603141 0.246220219,97.7276645 -0.533890893,96.2878645 C-1.25983807,94.9474733 -1.36465531,93.4934005 -1.00958063,92.1707877 L-1.10160917,92.0385765 L-1.10160917,92.0385765 C-2.73304693,91.1859645 -3.97806515,89.7902349 -4.10595222,87.7965501 C-4.14206151,87.2288933 -4.08087632,86.6609861 -3.92665956,86.1236277 C-3.98232805,85.5229181 -3.94672028,84.9224589 -3.7889929,84.3415309 C-5.98313376,82.2106269 -6.77803965,78.7876589 -5.58693461,75.9581389 C-7.73092368,73.6544589 -8.29763892,70.0111389 -6.72538027,67.2770213 C-7.80364378,65.9746909 -8.35782107,64.3145389 -8.26504026,62.5417069 C-8.14969114,60.3284213 -7.13411736,58.3950829 -5.91793643,56.6047229 C-6.82066867,55.6081309 -7.30212587,54.2184109 -7.26676885,52.8762669 C-7.21686782,50.9306589 -6.18123333,49.2554829 -4.88455877,47.8682669 C-6.01573242,44.4427949 -4.75190729,40.7268589 -1.97600565,38.5583949 C-2.53770571,37.6344189 -2.74583564,36.4900909 -2.56253084,35.3307389 C-2.24181014,33.3050029 -0.719703279,31.9252989 0.922767881,30.8335549 C0.579228112,29.7170213 0.669501336,28.5123469 1.21615586,27.3580029 C1.94586442,25.8180429 3.32253109,24.8414829 4.7593799,24.0151629 C5.13050316,20.5997069 8.95206964,17.6825469 12.1567691,19.4453629 C11.3618632,16.9038029 13.6515432,14.1594189 16.2845123,13.8689549 C17.5731625,9.96772288 22.0191188,7.50879488 26.0162166,8.47784288 C28.0599021,5.68838688 31.8639154,4.61442128 35.0936908,5.81108288 C38.6446883,3.09424288 43.0502724,2.69109888 47.2053483,4.07080288 Z M21.9112925,80.6707921 C24.4063441,80.5355761 26.2770059,82.5688241 27.5912336,84.4292961 C28.8247169,86.1745841 25.6601389,88.0175281 24.7373459,86.0944561 C24.4063441,85.4083601 24.0302056,84.6822001 23.5261801,84.0812401 C23.441549,84.1995541 23.3667915,84.3220936 23.2923866,84.4478022 L23.2177466,84.5745281 C23.1625797,84.6671761 23.1049051,84.7623281 23.0572609,84.8599841 C23.0622761,84.8775121 22.9870484,85.1078801 22.9845408,85.1178961 C22.7789185,85.7413921 22.3300599,86.1420321 21.7184588,86.3573761 C20.9283174,86.6328161 20.1810557,86.0393681 19.9277891,85.3432561 C19.524318,84.2314801 20.4619057,83.2624321 21.437358,82.8217281 C20.4794588,82.6664801 19.5366052,82.9920001 18.8445104,83.7281761 C18.7494728,83.8308401 18.5887363,83.7482081 18.5839719,83.6205041 C18.5034783,81.8752161 20.3315111,80.7559281 21.9112925,80.6707921 Z" id="ðŸ–-Ink" fill="#000000"></path>
                    </g>
                    <g id="face/Calm" transform="translate(39.870674, 46.574400)" fill="#000000">
                        <path d="M42.8902503,60.1357811 C41.0430035,60.6700423 39.060203,60.7178116 37.1772484,60.166058 C35.4693778,59.6655585 33.7157772,58.5641538 32.4588223,57.1067292 C31.3422122,55.8120326 30.6190463,54.2386561 30.64745,52.5591897 C30.650681,52.3673808 30.7193634,52.2072787 30.8250181,52.083008 C30.9387598,51.9492254 31.0976229,51.8573604 31.2678067,51.8174873 C31.4428287,51.7764807 31.6278542,51.7910186 31.785406,51.8624821 C31.9280332,51.927176 32.0502302,52.0370603 32.12664,52.1976642 C32.3198115,52.4510593 32.5122328,52.7007017 32.7054093,52.9434202 C34.2586013,54.8585549 35.7627465,56.2897764 38.0982899,56.8031154 C39.3654868,57.0816942 40.6310899,56.9581624 41.7923258,56.5331318 C43.035373,56.0781571 44.1590493,55.2782038 45.0395914,54.2545232 C45.4375238,53.791893 45.9073284,53.6030636 46.3667165,53.5998898 C46.8873035,53.5962932 47.4018577,53.8378474 47.7895013,54.2239238 C48.1705396,54.6034217 48.4256753,55.1191229 48.4487992,55.6585852 C48.4690942,56.1320509 48.3144184,56.6266196 47.9029229,57.0678518 C46.5475161,58.5212962 44.7908988,59.586075 42.8902503,60.1357811 Z M42.8332164,36.1495355 C44.7267922,37.2988829 47.6120202,39.9789369 45.5749685,42.8283092 C43.1771637,45.3406948 39.7248663,42.4600731 38.023634,41.15728 C36.4461716,40.1476081 34.6738043,42.7444087 36.1373747,43.9233709 C48.4305154,53.011698 53.4193322,36.4500738 43.7909606,34.7981847 C42.7308423,34.6161536 42.3371117,35.7939723 42.8332164,36.1495355 Z M25.1197678,31.0921895 C24.51116,30.7035285 23.7952411,30.5701203 23.001795,30.9305838 C22.3817485,31.2121436 21.294257,32.1507816 20.537435,33.3846786 C20.0196674,34.2288293 19.6525112,35.2191285 19.7289482,36.2506452 C19.7466998,36.4902033 19.6580541,36.6668367 19.5182323,36.7974378 C19.4078043,36.9005836 19.2482945,36.9763862 19.0609404,37.0000827 C18.9018777,37.0202009 18.7238367,37.0020517 18.5790709,36.9569335 C18.3036883,36.8711068 18.1579426,36.6927305 18.1030285,36.5471027 C17.5731222,35.1418351 17.8014114,33.5736428 18.3953027,32.158858 C19.1967948,30.2495203 20.6523266,28.6502121 21.6059469,28.134575 C23.2377906,27.251902 25.1629077,27.2112774 26.7970872,28.1104997 C28.1881821,28.8758407 29.0580023,30.1114548 29.9231003,31.3709634 C30.1070003,31.6387062 30.2895231,31.9044859 30.4781644,32.1655904 C30.8562206,32.6887874 30.8938508,33.2076873 30.7474442,33.6526476 C30.5852522,34.1455831 30.1716963,34.561588 29.6545533,34.7792973 C29.1765738,34.9805193 28.6218169,35.0088448 28.1309217,34.8020932 C27.7162322,34.6274375 27.3356601,34.2869666 27.0948522,33.709274 C26.6892838,32.7363693 26.0135682,31.6629762 25.1197678,31.0921895 L25.1197678,31.0921895 Z M56.0297753,33.2567179 C55.6129609,33.4735893 55.2868694,33.5389772 54.8244989,33.4006455 C54.5688088,33.3239548 54.3161008,33.176973 54.1182522,32.9794076 C53.9221733,32.7836094 53.7807026,32.540119 53.7257129,32.2700002 C53.5904669,31.6033539 53.2251962,30.9793297 52.7046702,30.5725271 C52.2597672,30.2248255 51.6981991,30.0405355 51.0753139,30.1445048 C50.4031732,30.2565471 49.762796,30.6870041 49.3217462,31.1945031 C49.1743345,31.3643216 49.0587843,31.5571872 48.9426168,31.748751 C48.7253071,32.1069965 48.5140903,32.4399945 48.2143881,32.7030853 C48.100781,32.8031834 47.9295921,32.8725119 47.7637887,32.8725119 C47.6964018,32.8725119 47.6280137,32.8615623 47.5628462,32.8412812 C46.8938502,32.170786 46.7651968,31.6621467 46.7867653,31.1576439 C46.809383,30.6285984 47.0182594,30.092945 47.355805,29.5931646 C48.1476042,28.4208026 49.6509654,27.459575 50.6654455,27.2418525 C52.0547689,26.9437182 53.4345331,27.3016086 54.5407644,28.0764673 C55.6790114,28.8737514 56.5224497,30.1116103 56.7854088,31.5066161 C56.8486679,31.8425915 56.8217865,32.2052389 56.6936505,32.5196699 C56.5684424,32.8269164 56.3502467,33.0900672 56.0297753,33.2567179 Z M28.1838667,18.5928632 C27.3501049,19.404033 26.3632747,19.5296805 25.3649342,19.6414357 C24.8102314,19.7041143 24.3674126,19.754642 23.9316597,19.8528246 C22.7339486,20.1227978 21.5500516,20.5294065 20.4699395,21.1150012 C19.3408562,21.7271716 18.1104119,22.4654476 17.2251993,23.411236 C17.0147058,23.6362996 16.8162822,23.8724563 16.6175814,24.1091299 C16.436394,24.3249468 16.2618541,24.5327148 16.0779061,24.7330451 C15.8666547,24.9631503 15.6660484,25.2043163 15.4665086,25.4448522 C15.3431227,25.6478157 15.3187493,25.6977344 15.2939021,25.7497 C15.2565115,25.8277856 15.2130181,25.9151727 15.1633425,26.0089214 C15.0953102,26.1373134 15.0156225,26.27786 14.9321641,26.4052864 C14.7933084,26.6381994 14.718801,26.7023553 14.6544186,26.7310515 C14.5475863,26.7785627 14.4462709,26.8019675 14.3479786,26.7892932 C14.2558159,26.7774094 14.1689885,26.733208 14.0832453,26.6608492 C13.6551858,26.2997015 13.5289404,25.7070125 13.5418798,25.0778716 C13.5615153,24.1231567 13.9141553,23.0661133 14.239236,22.4163227 C14.9951133,20.9064861 16.0434131,19.3369138 17.3039313,18.2100488 C18.7422966,16.9237529 20.315916,15.9499609 22.1233797,15.2789519 C23.2466125,14.8618106 24.5471188,14.4789158 25.7708379,14.5272808 C26.65167,14.5620939 27.4925499,14.8235537 28.1869837,15.4764867 C28.6134066,15.8773037 28.8181011,16.4474248 28.8181011,17.0171422 C28.8181011,17.5982078 28.6055028,18.1827047 28.1838667,18.5928632 Z M57.7254596,26.0209623 C57.6724371,26.1077398 57.5990484,26.1675412 57.5173887,26.2034574 C57.4317847,26.2411084 57.336218,26.2519529 57.244508,26.2365222 C57.1532041,26.2211597 57.066414,26.1798303 56.9975689,26.1166682 C56.9315821,26.0561284 56.8813345,25.9758389 56.8588669,25.8774775 C56.3053144,23.449718 55.2304535,21.6434288 52.9362961,20.4786261 C51.807766,19.9056199 50.5100632,19.5415537 49.2815778,19.2512864 C48.9245863,19.1669276 48.5473709,19.1122689 48.1674917,19.0568818 C46.9769232,18.8832946 45.7777642,18.6844962 45.0016146,17.7235192 C44.5339458,17.1446612 44.3376715,16.4043643 44.4486442,15.7273311 C44.5531311,15.0898673 44.9261672,14.5053581 45.6042852,14.1550804 C47.2925162,13.2834501 49.3904727,14.1387476 51.0953139,14.8673436 C51.221778,14.9213904 51.3459198,14.974446 51.4673865,15.0256386 C53.1345884,15.7283682 54.6551647,16.6559555 55.9051062,17.9825103 C56.8968759,19.0349131 57.8157643,20.5906987 58.1858445,22.1911717 C58.4937379,23.5227074 58.4213421,24.8820224 57.7254596,26.0209623 Z" id="ðŸ–-Ink"></path>
                    </g>
                    <g id="facial-hair/*-None" transform="translate(30.843352, 84.635200)"></g>
                    <g id="accessories/*-None" transform="translate(11.785671, 60.346400)"></g>
                </g>
            </g>
        </g>
    </g>
</svg>