<?xml version="1.0" encoding="UTF-8"?>
<svg width="335px" height="495px" viewBox="0 0 335 495" version="1.1" xmlns="http://www.w3.org/2000/svg" xmlns:xlink="http://www.w3.org/1999/xlink">
    <!-- Generator: Sketch 62 (91390) - https://sketch.com -->
    <title>peep-sitting-11</title>
    <desc>Created with Sketch.</desc>
    <defs>
        <polygon id="path-1" points="0 0.000428799436 334.69162 0.000428799436 334.69162 404.582254 0 404.582254"></polygon>
    </defs>
    <g id="Introduction" stroke="none" stroke-width="1" fill="none" fill-rule="evenodd">
        <g id="variations-sitting" transform="translate(-2248.000000, -953.000000)">
            <g id="a-person/sitting" transform="translate(2243.000000, 897.000000)">
                <g id="pose/sitting/one_leg_up-2" transform="translate(-20.311475, 159.504800)">
                    <path d="M210.868342,212.36027 C211.442602,218.341993 210.268435,224.054285 207.471517,228.88361 L206.561525,230.454787 L208.293536,231.059494 C211.445679,232.160175 214.950996,232.695253 219.010053,232.695253 C223.187348,232.695253 227.531355,232.114513 231.021796,231.64755 L233.256509,231.348854 L232.158773,229.410868 C231.275968,227.853314 231.11259,225.965783 230.939466,223.967502 C230.892786,223.430658 230.844824,222.87565 230.78173,222.326445 C227.474417,192.812137 223.293787,162.912602 219.250888,133.997702 C218.186751,126.389049 217.086707,118.521056 216.019493,110.781724 L212.958144,110.899537 C212.134585,125.224794 211.335393,139.792236 210.562618,153.880102 C210.222781,160.074998 209.882688,166.270147 209.540031,172.464287 C208.318415,188.124591 208.740325,200.805006 210.868342,212.36027 M212.117658,389.346472 C207.621814,389.346472 203.117251,388.879004 198.729642,387.957186 C184.999481,385.079723 172.525561,378.290715 161.91138,372.153337 C161.369437,371.846569 160.819543,371.539801 160.25503,371.224456 C156.099536,368.903262 150.928123,366.015203 147.687238,362.491912 C144.131908,358.626787 143.519946,354.775537 145.76184,350.37155 L146.116553,349.674763 L145.745939,348.985796 C143.424535,344.672124 143.597147,339.334966 146.16554,336.007442 L148.324079,333.211211 L144.775161,333.587103 C141.196747,333.966274 137.590121,334.479909 134.101989,334.976641 C130.231957,335.527865 126.229582,336.097757 122.287993,336.479199 L121.192565,336.585407 L120.940702,337.639165 C120.800407,338.225707 120.627283,338.581922 119.411309,338.581922 C118.356919,338.581922 116.939865,338.27364 115.440225,337.947447 C113.578947,337.542795 111.46914,337.083905 109.434738,337.083905 C108.539878,337.083905 107.735043,337.168922 106.97381,337.344506 L106.530868,337.446174 L106.215654,337.768583 C106.01406,337.974692 105.67089,338.102597 105.320281,338.102597 C105.05508,338.102597 104.809116,338.028932 104.644712,337.900523 L104.147653,337.51227 L103.516968,337.581394 C92.5285818,338.786013 83.0534296,340.900088 74.5511072,344.043703 L74.5126351,344.058083 L74.3282258,344.13755 C71.2537963,345.462253 68.0752357,346.832113 65.1803424,346.832113 C63.0641234,346.832113 61.3457053,346.113378 59.7719421,344.570204 L59.3272052,344.134523 L58.6998543,344.128468 C52.3345259,344.06994 49.4260392,336.659324 49.023878,331.692508 L48.9733514,331.067115 L48.4880906,330.660446 C37.3948041,321.366082 30.8458358,308.601154 28.4662114,291.635826 C26.2989528,276.182641 27.9629971,259.889629 29.8765967,245.989457 C34.3031904,209.966925 38.9200925,177.674297 50.6561187,147.046946 L51.2044737,145.615278 L49.7433053,145.091048 C44.6744849,143.27264 40.8006062,141.103064 37.9000703,138.458199 L37.6992462,138.274542 L37.4463567,138.170857 C33.2893237,136.465721 31.253383,130.171428 30.7283678,128.28314 L30.686305,128.130765 L30.6129517,127.990499 C29.7647713,126.366092 29.5690768,124.106453 30.0763948,121.790809 L30.1307687,121.541308 L30.0992216,121.28777 C29.8253006,119.089182 30.7345233,116.790693 31.6970939,114.356983 C32.1369577,113.245202 32.5914408,112.096083 32.9235828,110.951506 C34.0654332,107.680491 35.2060011,104.351706 36.3093794,101.131903 C38.7849274,93.9082237 41.3443445,86.4385748 44.0709867,79.1722607 L44.4439091,78.1785443 L43.6224026,77.4936142 C42.2199683,76.3240613 42.6883013,74.9473895 44.7106486,71.6556884 C45.1884714,70.8781729 45.6403897,70.1425352 45.9840733,69.4177454 C48.5763199,64.9456435 51.3545146,60.6526578 54.2429959,56.6566012 L54.3024994,56.5746114 L54.3499482,56.4858102 C69.1716891,28.8489419 95.4627166,13.6288607 128.379657,13.6288607 L129.050609,13.6301221 L129.42148,13.4073621 C135.590857,9.70344152 139.994881,3.34809707 142.885157,-6.02144458 L142.97749,-6.32013971 L142.941839,-6.63043956 C142.842838,-7.49398132 142.734347,-8.62619734 142.771536,-9.72486061 C142.865665,-12.5072159 143.958014,-14.9901192 145.768252,-16.5370774 C149.20278,-19.4720599 154.416769,-19.717777 159.463019,-19.717777 L160.187576,-19.717777 C166.639338,-19.6980994 171.194172,-18.5797586 174.52226,-16.1965044 C178.388958,-13.4275198 180.525952,-8.95768839 181.055583,-2.53170657 C181.213832,-0.608856641 181.208446,1.38311699 181.203573,3.30949879 L181.20229,3.84709958 L181.26718,4.06052533 C181.730896,5.58780602 182.274121,7.05529724 182.881467,8.42263477 L183.506253,9.82932739 L184.927154,9.19510478 C185.846123,8.7851558 187.011056,8.57425282 188.489409,8.55053885 C188.915679,8.54070007 189.331434,8.5361591 189.750779,8.5361591 C193.183255,8.5361591 196.855027,8.84898171 200.406254,9.15146099 C203.081856,9.37951876 205.848766,9.61539709 208.526933,9.72009176 L208.56361,9.72160541 C208.56361,9.72160541 208.933455,9.71933493 209.099397,9.71933493 C215.608611,9.71933493 220.327336,10.7413062 223.949095,12.9358577 C227.848878,15.2984252 230.652977,19.0903902 232.7733,24.8692833 C244.14615,57.9939179 248.821786,93.6736067 252.945989,125.151886 C255.285346,141.613419 255.996823,158.48919 256.684959,174.809195 C257.411568,192.035126 258.162543,209.847598 260.821987,227.259708 L261.032044,228.636127 L262.444225,228.545056 C268.658999,228.144693 275.374936,227.282161 282.485084,226.36892 C293.288035,224.981653 304.458778,223.546958 315.257625,223.546958 C330.356621,223.546958 341.804877,226.513222 350.25103,232.613768 C356.139305,238.153503 359.185522,245.65393 359.060359,254.310034 C358.883388,266.540389 352.403926,280.061894 342.553286,288.757605 L342.516097,288.791663 C330.064747,300.535629 307.336487,310.721536 274.962773,319.066584 C245.193103,326.740324 214.400076,330.910704 198.693991,332.713218 L194.806775,333.159747 L197.961996,335.437045 C199.239012,336.359115 200.404202,337.170688 201.524251,337.918687 L202.246756,338.400787 L203.038255,338.038518 C205.295281,337.005195 206.72875,336.788237 207.534355,336.788237 C208.249165,336.788237 209.111452,336.943135 209.158901,337.6818 C209.189935,338.165413 208.845225,338.883392 208.117591,338.974211 L204.253971,339.455554 L207.408679,341.701822 C209.515921,343.202362 212.659857,345.010678 216.300595,347.105076 C228.211284,353.956648 246.211073,364.311076 243.115356,373.403871 L242.912223,374.001261 L243.199994,374.564594 C244.03176,376.192281 244.102805,377.703416 243.416463,379.184025 C241.946831,382.357157 237.349422,384.765891 233.445022,385.745732 L233.37808,385.762634 L233.312678,385.785339 C226.519027,388.148411 219.387849,389.346472 212.117658,389.346472" id="Fill-1" fill="#FFFFFF"></path>
                    <g id="Group-3" stroke-width="1" transform="translate(25.648031, -13.827584)">
                        <mask id="mask-2" fill="white">
                            <use xlink:href="#path-1"></use>
                        </mask>
                        <g id="Clip-2"></g>
                        <path d="M209.027224,244.791937 C209.824878,240.448451 208.3119,235.963714 208.050034,231.589959 C204.089978,200.393287 199.717245,169.217298 193.923098,138.293292 C192.502197,130.892718 191.066164,123.522412 189.41956,116.162196 C189.668346,111.705204 189.886355,107.248212 190.029984,102.788698 C198.070641,97.7414766 207.13722,94.4750339 216.513884,92.8279396 C219.04791,106.922829 221.57937,121.00763 223.336517,135.228637 C228.812372,170.428026 225.688442,206.24539 231.000149,241.404422 C223.631213,242.22923 216.319216,243.450047 209.027224,244.791937 M223.170574,272.214418 C217.629317,273.685452 212.08293,275.092923 206.497302,276.391177 C196.557664,278.701397 186.620591,281.020949 176.706344,283.434586 C171.757813,284.63926 166.798253,285.807864 161.859981,287.051635 C159.516521,287.642117 157.188192,288.297928 154.895002,289.057912 C153.750587,289.437273 152.632076,289.872379 151.513822,290.319339 C150.534067,290.710555 149.609712,291.250086 148.532495,291.173154 C148.468375,291.168614 148.428364,291.106564 148.459911,291.048802 C149.023398,290.014387 150.184484,289.524042 151.209636,289.001159 C152.339945,288.42455 153.517703,287.929665 154.696486,287.457229 C157.314894,286.407931 160.042049,285.637354 162.762022,284.889729 C172.6478,282.173411 182.618472,279.7401 192.578885,277.305276 C202.586747,274.859101 212.595122,272.516343 222.73584,270.663677 C223.757401,270.477276 224.199317,271.941247 223.170574,272.214418 M174.084602,355.850991 C174.528057,355.732441 174.974333,355.623727 175.4183,355.520563 C182.527934,361.430428 216.011183,376.776404 213.46459,385.942622 C212.564344,387.082724 210.409909,387.342274 209.047742,387.710537 C206.675299,388.351214 204.279773,388.906383 201.86142,389.345272 C194.043644,390.765355 185.946817,391.012545 178.1393,389.392944 C175.266977,388.95683 172.673961,387.73349 170.057861,386.550508 C161.60427,382.83761 152.294035,378.736017 143.881224,375.053639 C133.193689,370.823658 114.447543,362.487041 122.157598,348.420149 C129.462157,356.622578 138.733921,355.906483 143.404427,345.711146 C145.015124,342.616223 146.420379,338.444256 150.203464,337.193171 C152.199137,335.846236 154.751116,335.566255 156.418238,337.067053 C156.538784,336.8804 156.646506,336.618075 156.70524,336.386019 C158.585241,339.057187 160.206196,341.869607 162.409362,344.311242 C161.653002,344.351599 153.779056,350.170407 156.102511,350.173182 C158.898403,348.735443 161.676085,347.537327 164.694602,346.762965 C166.882635,348.95968 169.288421,351.003035 171.781409,352.892023 C169.360235,354.48867 167.185025,356.443491 165.436086,358.565039 C165.284763,358.751693 165.469429,358.993839 165.695131,358.892692 C168.411258,357.684487 171.204328,356.622578 174.084602,355.850991 M210.125216,395.486941 C182.930352,407.682753 154.140437,394.102423 130.949487,379.624136 C125.596999,376.640197 118.556614,372.410216 119.638705,365.385473 C123.581064,371.143997 130.080018,374.423051 136.317876,377.265739 C146.797662,381.995145 157.346441,386.573209 167.852131,391.244601 C168.844453,394.53097 173.589339,394.657088 176.457045,395.386299 C189.222071,397.858202 202.943767,396.629817 214.957305,391.701146 C214.261987,393.756861 211.987263,394.699968 210.125216,395.486941 M101.623528,347.998917 C100.951806,348.084677 100.279571,348.162617 99.6078489,348.23854 C99.6768421,347.350673 99.1410547,346.462806 98.2792808,346.18787 C98.6665661,344.305945 98.8099386,342.361213 98.602446,340.452047 C99.7258298,343.350226 103.352205,342.469926 105.655655,341.634776 C108.946297,340.741865 112.216421,339.781102 115.468591,338.756775 C116.750993,341.135603 118.110082,343.478866 119.780026,345.632953 C113.701186,346.172736 107.679284,347.244734 101.623528,347.998917 M98.9486944,338.882893 C98.7871118,339.223662 98.5562796,339.584358 98.55115,339.992979 C98.3870026,338.582986 98.0664022,337.190396 97.5790896,335.856073 C98.035368,336.865013 98.4921595,337.873953 98.9486944,338.882893 M95.1117489,331.323663 C92.120932,327.431678 86.5940377,324.250995 81.4849499,325.335353 C81.1563986,325.406231 81.1487042,325.93315 81.4849499,325.998983 C88.3481066,326.92973 94.375394,332.365142 94.6139207,339.39266 C95.1550941,342.573343 92.9393607,345.696011 93.6857184,348.748055 C93.5369598,348.758144 93.3882012,348.765711 93.2420075,348.7758 C93.1881466,348.980111 93.1391589,349.161468 93.0750388,349.320628 C93.8165234,349.443971 94.0342752,350.634772 93.1596773,350.846649 C92.6418435,350.972767 92.1004136,351.038348 91.5492374,351.066094 C88.7510372,350.311911 85.7989488,350.137617 83.1236026,349.022738 C80.4769822,347.855143 81.1387015,344.573566 80.2048566,342.300929 C79.5203107,339.679955 78.7326596,337.069576 77.7403373,334.554793 C77.6685228,334.352753 77.3940889,334.398408 77.3710056,334.602718 C76.6708144,339.619671 76.6938976,344.722385 76.8631746,349.779443 C75.9449751,349.873022 75.0319052,349.976439 74.116014,350.089945 C74.1752609,348.677177 69.9305117,331.467437 67.6940034,335.884071 C68.819952,340.739594 68.9558865,345.81204 69.0764323,350.808814 C62.436157,351.900992 55.8930877,353.527907 49.5275028,355.74253 C45.0416621,357.099554 39.7066151,361.115135 35.3518358,357.485221 C31.9791197,354.7008 30.8429119,349.842502 31.1609475,345.708623 C35.5465044,321.249399 70.186992,318.391577 90.635911,320.200102 C92.5674642,324.649526 94.5346682,329.083817 96.5275203,333.508018 C96.114587,332.746269 95.6426632,332.014787 95.1117489,331.323663 M25.3670572,345.231899 C24.9925959,339.677685 25.9284926,332.763925 30.0503877,328.624497 C39.4837337,320.661691 52.6924698,318.156746 64.4803051,315.273953 C69.9712921,314.191865 75.5371714,313.472995 81.125621,313.114821 C83.1084703,312.958436 85.6271069,313.407162 87.027233,311.788066 C87.7481991,313.493174 88.4789116,315.19576 89.2101369,316.898346 C65.7421882,313.828646 16.7798398,324.492888 30.4912774,356.589787 C27.5879202,353.449462 25.6643179,349.625832 25.3670572,345.231899 M8.98309475,242.420929 C9.63968436,237.653688 10.3575728,232.891492 11.1167545,228.136863 C14.2204228,205.395358 20.6349954,183.261741 24.4591169,160.6741 C31.0786173,162.823142 37.8576485,164.460146 44.5415255,166.394789 C30.0580821,190.44287 18.2112564,215.979138 8.98309475,242.420929 M63.3679499,220.043904 C62.0945252,214.000102 60.6664428,207.841281 60.0172911,201.697342 C59.9880524,201.421144 60.4135532,201.391885 60.4894714,201.634535 C61.5530952,205.03668 62.2779086,208.563934 63.1750767,212.013247 C64.0755791,215.474668 64.9127309,218.951727 65.7993833,222.416678 C66.0825376,223.523233 66.3664613,224.629031 66.6506415,225.735081 C66.8209444,225.742396 66.9907344,225.748198 67.1597549,225.751981 C67.8091631,225.767115 68.0038316,226.581077 67.4813812,226.919829 C67.3287754,227.018705 67.1759132,227.105474 67.0225379,227.18291 C69.7376385,237.726836 72.5196805,248.247052 75.5558945,258.710262 C79.0937839,270.903301 83.0769232,282.949286 86.2603568,295.240695 C86.3339667,295.525216 86.2021358,295.723725 86.0092626,295.809737 C87.6650995,301.402543 89.052658,307.069254 90.5664048,312.70494 C90.8816191,313.878337 89.1457604,314.638825 88.5522649,313.54009 C87.6384256,311.847845 87.4365756,309.535355 86.9892739,307.675879 C86.4852901,305.58132 86.0064413,303.481968 85.528362,301.381608 C84.7678979,298.040756 84.0856603,294.659294 83.5231989,291.271526 C81.4272418,286.014193 79.5503189,280.693548 77.8893524,275.272767 C74.1696184,263.132194 70.7384247,250.908635 67.6842571,238.58948 C66.7824724,234.953008 65.8986412,231.311492 65.0553339,227.661148 C61.2158236,227.720171 57.2039586,223.383495 53.3457252,225.692201 C53.1672149,225.799149 52.9863963,225.555995 53.1269475,225.413734 C54.6650599,223.857697 56.7910253,223.721994 58.8564612,224.107157 C60.1986227,224.357374 61.4853844,224.83208 62.7993331,225.189749 C63.3782092,225.347396 63.972474,225.46292 64.5731509,225.548932 C64.1589352,223.716445 63.7552352,221.88194 63.3679499,220.043904 M146.087211,334.4766 C144.125137,335.757954 142.5247,337.651986 141.396186,339.687775 C134.163185,358.580173 126.427995,348.460507 116.817421,338.323184 C124.950412,335.258529 135.722585,332.963191 141.960443,326.871716 C143.040225,329.565586 144.361099,332.130815 146.087211,334.4766 M143.499581,288.393525 C142.871461,285.285234 142.353884,282.157772 141.882986,279.022996 C141.431068,276.016608 140.724977,272.796072 140.840137,269.752857 C140.844497,269.631532 141.015826,269.610092 141.052759,269.724607 C142.030462,272.758236 142.323363,276.112961 142.943532,279.237648 C143.54344,282.258162 144.202594,285.267325 144.866622,288.274722 C146.230071,294.448678 148.158033,300.528045 149.325019,306.739078 C149.450181,307.404474 148.549679,307.638044 148.304997,307.01578 C145.968204,301.076403 144.757361,294.620954 143.499581,288.393525 M11.2167818,148.33981 C8.05720082,144.942205 5.5742149,140.603764 6.05408957,136.000476 C7.95204389,133.473081 8.58042066,130.17637 9.68585081,127.25549 C14.0075441,115.032183 18.0188962,102.715298 22.7224887,90.623406 C32.7280422,93.6956278 42.5715002,97.3807806 51.856344,102.22117 C53.5642464,103.09138 55.2547082,103.994381 56.924395,104.930173 C58.6735908,105.908845 60.5818043,107.608908 62.6795568,107.122095 C60.3868793,110.363314 55.6650767,113.735696 54.8671664,117.481385 C54.6955811,118.666889 55.5368365,119.766634 56.8294973,119.501787 C77.0629728,133.851434 97.9586804,147.898399 117.084161,163.882276 C131.406022,175.202834 142.401333,184.384186 147.313187,202.751936 C150.624348,214.649859 150.634351,227.085043 150.147295,239.318439 C150.052397,241.696762 150.049832,244.131082 149.857472,246.524791 C150.14473,248.31566 149.598427,251.960455 147.582492,252.026036 C147.628402,252.45988 147.772287,252.860934 148.000554,253.214063 C147.936434,253.29957 147.86975,253.380538 147.8005,253.463775 C147.700473,252.974439 147.60301,252.487626 147.510421,251.99829 C145.941018,245.056784 145.730704,237.002922 145.992057,229.612437 C146.102344,227.493664 142.847865,227.544111 142.665764,229.612437 C142.175887,235.199442 141.685753,240.786446 141.196132,246.370928 C140.608535,249.9905 141.534686,254.72495 138.636458,257.476833 C135.689499,254.757741 136.663868,249.395225 136.807754,245.886637 C137.038329,240.163426 137.287372,234.442737 137.50025,228.719525 C137.566935,226.905956 134.558165,226.439321 134.217046,228.283159 C133.250372,233.539736 132.203932,238.781178 131.077727,244.007486 C130.398311,246.027889 129.93126,255.093213 126.535717,253.519267 C124.511831,252.139542 125.97146,244.050366 125.704721,241.371631 C125.830396,236.069652 125.904519,230.77524 126.294626,225.485873 C126.453643,223.351965 122.972949,222.897943 122.496152,224.981403 C121.721582,228.353785 120.980353,231.726166 120.308375,235.121249 C118.833613,240.84446 119.369657,248.603208 114.045126,252.406911 C111.959941,237.540182 114.960504,222.77687 115.381388,207.96311 C115.129781,203.163079 114.304171,198.410972 113.575767,193.668955 C112.770419,188.42499 112.30106,182.716913 114.18619,177.659602 C113.670664,175.394532 111.64447,181.521319 111.454418,182.030834 C109.928617,179.029238 106.212217,178.797182 103.272953,177.86139 C96.7403989,175.750183 90.0485711,174.158581 83.4393299,172.281953 C65.9112087,167.421385 48.3628257,162.636488 30.8095695,157.86168 C23.7973977,155.924515 16.4158942,153.6317 11.2167818,148.33981 M186.739341,227.417993 C184.320732,214.329269 184.387417,201.067007 185.421032,187.83476 C186.55724,167.312924 187.659849,146.786043 188.839915,126.266729 C193.961827,163.405804 199.422293,200.502 203.597536,237.759626 C203.895053,240.352602 203.849143,243.096918 205.159757,245.409913 C197.916753,246.378495 190.196439,247.354644 183.153746,244.895354 C186.244334,239.560584 187.334375,233.486766 186.739341,227.417993 M29.532041,75.6583057 C41.7407604,50.6340751 66.6344832,32.8691667 94.5526219,28.9948377 C94.5833995,29.0251059 94.6167419,29.0553741 94.6475196,29.0881646 C94.5551867,29.1714022 94.4705482,29.2622068 94.3936041,29.3555337 C95.1448349,28.8031391 96.1758858,29.4967853 95.8427178,30.260805 C96.2556511,31.2018936 96.5606062,32.1704759 96.9427619,33.1188793 C97.104601,33.1037452 97.2687484,33.0886111 97.4326393,33.0633876 C99.0895021,36.3474868 99.9871832,40.1335336 101.718425,43.4075434 C111.193065,59.7977713 134.57381,66.4517296 152.111934,59.8353543 C166.028556,53.814758 168.003454,36.6703476 166.756703,23.4910708 C166.692583,22.6032038 166.241434,21.9751387 165.638449,21.6043533 C173.227958,22.8176035 180.817211,24.040943 188.414158,25.1936568 C192.073875,25.7485737 195.834133,26.5506809 198.66029,29.0604188 C209.784097,40.4891849 211.768998,71.2441939 215.511303,87.2333681 C206.557575,88.1691598 196.549713,93.2643061 190.132319,99.4415403 C190.435222,92.4193189 190.001514,85.4324105 189.191036,78.4606361 C189.178212,78.1201189 188.609083,78.0040908 188.555222,78.3773986 C186.95222,85.4450222 185.718549,92.5731823 185.210718,99.8145958 C183.099629,128.955553 181.845697,158.154272 180.03751,187.315156 C179.419393,198.047754 178.647387,208.873679 180.178575,219.568441 C185.10787,241.586031 176.416008,252.391777 153.086559,248.731847 C155.92041,220.829616 153.866259,188.904237 130.462431,169.557563 C129.749159,168.922183 128.892771,168.965063 128.243876,169.343415 C109.215601,153.200378 89.1331928,138.247889 67.7581235,125.227268 C67.9120117,122.536173 61.1691442,120.157598 59.2811926,118.301148 C66.2907996,111.051916 71.6284114,102.238826 76.2832726,93.3752894 C76.6938976,92.4117519 82.0463853,82.7158399 80.343356,83.3262486 C75.2573514,90.8504175 70.1998161,98.422511 64.2110007,105.308526 C64.5367307,102.132887 56.2960182,100.003772 53.7594279,98.553421 C43.9590587,94.4321539 33.7129266,91.2060688 23.1536321,89.5360211 C25.0541512,84.8119125 27.1316418,80.1581774 29.532041,75.6583057 M159.947407,24.6185611 C159.626807,24.0712112 159.321596,23.5112496 159.029208,22.943721 C160.019222,22.9815562 160.983588,23.0168691 161.957957,23.1782995 C161.914611,24.7446786 162.001558,26.3236695 162.019768,27.9026603 C161.532199,26.7474242 160.578349,25.693082 159.947407,24.6185611 M325.331043,245.200558 C301.942604,228.2201 263.526726,239.038458 236.432402,240.783924 C231.266888,206.966782 233.375157,172.597246 228.560765,138.724613 C224.126476,104.884771 219.45084,70.5732489 208.314465,38.1509668 C203.718338,25.6148892 195.767448,21.8919012 182.676693,21.9927952 C176.033596,21.7329931 169.008857,20.6710839 162.553247,20.8224249 C161.137476,20.8451261 159.657585,21.0317799 158.380313,21.601831 C156.584951,17.5610269 155.610069,13.2225855 155.117883,8.85135362 C155.086849,8.57389516 154.733163,8.52344817 154.627749,8.78829488 C153.109386,12.5945205 152.94806,16.7488303 153.77367,20.7341427 C154.371269,23.5894425 157.928907,34.82651 162.060805,30.4300546 C162.388844,39.6492425 160.360084,50.6592986 151.314024,55.4441958 C135.507398,62.3251656 113.657584,56.0596491 104.501493,41.4552448 C102.731779,38.5368863 101.205465,35.4316217 99.2462116,32.6295435 C112.898659,28.7703486 120.562034,12.4381348 117.346027,0.000428799436 C115.358305,9.6736396 111.733982,20.4819077 102.708696,25.8999147 C69.8430519,25.8267666 42.5178958,40.7716881 27.0777809,69.556742 C24.0564428,73.7362753 21.2633722,78.0797613 18.7034422,82.4989179 C17.3261429,85.4551116 13.291964,89.5665415 16.7157197,92.4218413 C12.7610498,102.960218 9.25239908,113.644891 5.54369374,124.266505 C4.52521042,127.805362 2.19636917,131.51826 2.66085502,135.238726 C2.1581536,137.531542 2.18123683,140.243068 3.33283344,142.447601 C4.42543958,146.377422 6.8771349,151.664267 10.9426044,153.33154 C14.3922646,156.47691 18.7549947,158.643608 23.3049555,160.275568 C11.1706153,191.936101 6.55166138,226.081148 2.44028195,259.532548 C-1.58928026,288.796849 -3.66907913,324.394769 21.5785865,345.544418 C22.0687204,351.595787 25.6643179,359.30661 32.7742087,359.372191 C37.6983742,364.199716 43.7000136,361.551249 49.1812543,359.190582 C58.4324993,355.770024 68.1351495,353.873469 77.7762445,352.816604 C78.8098602,353.623756 80.4923711,353.48982 81.4128789,352.549235 C87.2531921,351.204823 95.3474544,356.648054 96.5275203,351.71686 C104.057526,350.987901 111.505714,349.620788 119.028538,348.823473 C115.858185,352.93011 116.086709,358.986019 118.474284,363.422832 C112.393136,375.36641 126.5588,382.282693 135.219884,387.183618 C146.912821,393.943263 159.124106,400.35785 172.496733,403.159928 C184.25379,405.629309 196.570232,404.880423 207.914099,400.935468 C213.874702,399.439463 222.200053,394.5287 218.663189,387.609895 C223.146722,374.44323 191.661198,360.799841 182.399694,354.206167 C186.185087,353.73474 186.323586,345.890232 176.477564,350.397671 C175.287495,349.602879 174.117945,348.783115 172.961219,347.94847 C212.787225,343.377972 288.846719,330.804059 317.669976,303.62322 C333.504815,289.646881 342.6409,261.376386 325.331043,245.200558" id="Fill-1" fill="#000000" mask="url(#mask-2)"></path>
                    </g>
                </g>
                <g id="Head" stroke-width="1" transform="translate(86.511840, 45.072000)">
                    <g id="head/Flat-Top">
                        <path d="M60.6939887,18.8450078 C74.9322438,18.8450078 93.3112284,27.7637115 94.8784786,36.8981521 C96.7254418,47.6628511 106.615577,88.9682278 104.382261,102.214174 C102.148945,115.460121 90.1140584,124.995615 70.8561484,124.995615 C51.5982384,124.995615 37.2243282,114.508578 33.9239621,110.907785 C31.723718,108.507255 28.5848335,103.021722 24.5073084,94.4511831 C17.6332423,93.538295 14.1796828,90.2841513 14.14663,84.688752 C14.1145072,79.0933527 16.3493643,75.2777687 20.8512011,73.242 C19.2460758,51.1601838 20.4647782,37.2447538 24.5073084,31.4957099 C30.5711037,22.872144 46.4557336,18.8450078 60.6939887,18.8450078 Z" id="ðŸŽ¨-Background" fill="#FFFFFF"></path>
                        <path d="M94.0071252,35.4242633 C93.9968441,35.2317057 94.2776941,35.2091697 94.3303535,35.3794417 C97.4021507,45.5131297 99.2956316,53.4104953 101.288915,63.7998417 L101.877563,66.856051 C103.450689,75.0073438 105.040018,83.1705075 106.38208,91.3613697 L106.46086,91.8503977 C107.13314,96.0902647 107.520711,100.371411 106.677975,104.62005 C105.890592,108.591394 103.73908,112.23221 100.945626,115.131842 C95.5467852,120.736044 88.0438265,124.236386 80.4962327,125.801386 C76.6796814,126.59265 72.7427658,126.898138 68.8534944,126.622698 C66.9148769,126.487231 64.9792685,126.214295 63.0810232,125.811402 L62.8714584,125.766659 C60.958067,125.354167 59.2598658,124.862113 58.2436322,123.064263 C57.9881088,122.61129 58.09092,121.83505 58.6275441,121.602178 C59.6406103,121.166231 60.3853644,120.98369 61.4909607,121.10889 C62.5466559,121.228831 63.5775259,121.54709 64.6206832,121.744906 C66.6142169,122.12301 68.6403492,122.313063 70.6689892,122.358386 C74.653549,122.446026 78.6481392,121.94773 82.4571677,120.760834 C89.0017257,118.720074 95.6521039,114.816338 99.476178,108.97701 C103.974493,102.107812 102.183337,93.7710195 100.991336,86.1848845 L100.955405,85.9552337 C99.7486276,78.2012847 98.5554813,70.4473357 97.3973006,62.6883542 L96.9031404,59.3627537 C95.6044597,50.5762177 94.3782485,44.3036977 94.0071252,35.4242633 Z M27.5584594,13.9176326 C30.8249613,11.7677368 34.8839778,11.239442 38.7206115,11.2691094 L39.2010479,11.275158 C44.1137515,11.3499298 68.8427921,11.9375739 77.1223086,12.118399 L79.0919324,12.1598246 C81.698861,12.2089416 86.9566559,12.2602262 89.665541,12.3096628 L89.8219081,12.3125686 C91.1509305,12.3376086 92.479953,12.3476246 93.8089755,12.3901926 L94.0037841,12.3971994 C94.999346,12.4396412 95.827737,12.5883956 96.6074454,13.2891286 C97.003958,13.6442793 97.158658,14.1859341 97.1223068,14.7018611 L97.1164861,14.7689926 L99.0899591,14.9417686 C100.429967,15.0600528 101.138535,16.2601915 100.606197,17.4746384 L100.579467,17.5334086 C99.634106,19.5466246 98.9119202,25.4059846 98.4053871,27.5719446 C98.1395826,28.7112646 97.9261868,29.8681126 97.8008073,31.0324726 C97.7007545,31.949187 97.6907241,32.8679046 97.1791758,33.6741926 C96.0881236,35.3944406 93.0190848,35.3794166 92.9639178,32.9430246 C92.9614102,32.8654006 92.9639178,32.7902806 92.9714406,32.7176646 C85.2480647,32.3796246 74.7036506,32.4121766 66.9903052,32.8729126 C59.7860004,33.3036006 52.6142942,34.2801606 45.5554296,35.7750486 C43.7675183,36.1531526 41.9846221,36.5663126 40.2142639,37.0145286 C38.7623695,37.3801126 36.9794733,37.5979606 35.680542,38.3817126 C34.22614,39.2631206 34.2537235,40.8431446 34.4117016,42.3480486 C34.5812648,43.9430966 34.8640176,43.1212788 35.2646803,44.574874 L35.289358,44.6667526 C35.7031103,46.2442726 36.2146585,47.8042646 36.8917077,49.2866326 C37.2778765,50.1329846 37.9000095,50.9467846 37.6640453,51.9208406 C37.531143,52.4692166 37.0970793,53.0551526 36.6986233,53.4382646 C34.8828777,55.1785446 31.8138389,54.0692726 30.5801048,56.4530806 C29.2889373,58.9457645 29.2568709,62.3224113 29.1472936,65.080599 L29.1407484,65.2421206 C29.0607563,67.1426566 29.0830738,69.0482006 29.2084533,70.9437286 C29.3212948,72.6712382 29.7824406,74.3817206 29.1909002,76.0418726 C28.759344,77.2488006 27.3503294,77.3614806 26.6130981,76.3799126 C26.528467,76.2672326 26.4508884,76.1517356 26.3782467,76.0355344 L26.3071722,75.9191766 L26.3024078,75.9216806 C26.3723695,76.0318566 26.4375668,76.144787 26.5002566,76.2597206 C26.5679615,76.3874246 26.399953,76.5276486 26.2971418,76.4174726 C24.5618899,74.5319606 22.0267168,74.9075606 20.0632742,76.2271686 C18.0747557,77.5693126 17.2898801,80.1183846 17.187069,82.404787 C17.0717199,84.9408382 17.2974029,87.913587 18.3556057,90.2570806 C18.8019566,91.2486646 19.4386336,92.1601206 20.4945796,92.5382246 C20.97378,92.7084966 21.4299105,92.6859606 21.9289208,92.7260246 C22.4477411,92.7658382 23.0723817,93.0265046 23.5761564,92.9914486 C24.2311279,92.9449069 24.8191464,93.691545 24.6331206,94.3171172 L24.6195644,94.3586326 C24.6097848,94.3886806 24.5995037,94.4187286 24.5897241,94.4462726 C24.6145492,94.4688086 24.6396251,94.4963526 24.6571783,94.5364166 C26.5629463,98.4251286 29.1758546,101.885657 32.0645978,105.095785 C33.5117277,106.700849 35.1163343,108.175705 36.7939117,109.540385 C37.6214163,110.213961 38.4940574,110.887787 39.4143428,111.430905 C39.7202687,111.608438 40.000868,111.728881 40.3449093,111.826787 C40.5051443,111.871609 40.6881983,111.894145 40.8436689,111.946729 L41.0051175,112.001937 C41.016191,112.005523 41.0267229,112.008828 41.0367532,112.011833 C41.4981497,112.064417 41.8868261,112.369905 42.0397891,112.848169 C42.4384958,114.095161 41.7138024,115.196921 40.4750532,115.539969 C39.1329749,115.914752 37.8681685,115.256724 36.8043516,114.501229 L36.7337296,114.450729 C34.5646646,112.890987 32.5661157,111.140441 30.8358789,109.097177 C27.4130192,105.063233 25.2687794,100.393273 24.2762754,95.2275206 C24.0302809,95.7558646 23.6992791,96.2166006 23.125041,96.5371126 C22.2323392,97.0379126 21.1666136,97.0379126 20.1886537,96.8701446 C18.2201959,96.5371126 16.5426185,95.3376966 15.4217259,93.7151046 C14.2579536,92.0324166 13.8243914,89.9891526 13.5610945,87.9984726 C13.3003052,86.0050382 13.1724181,84.0045926 13.4332074,82.0064006 C13.807089,79.1368166 15.0129888,76.2997846 17.3575851,74.7272726 C15.6022724,70.9086726 15.2938389,66.6268326 15.4192183,62.4451526 C15.5721813,57.2969286 16.4623756,52.0911126 17.1469475,46.9904646 L19.0930878,32.4898006 L19.0930878,32.4898006 L19.172709,31.9052251 C19.6423417,28.493916 20.2140684,25.0645609 21.4926002,21.8503046 C22.7539178,18.6827446 24.6697162,15.8181686 27.5584594,13.9176326 Z M19.368722,82.5171666 C22.5834519,80.9596786 26.0564634,82.3944706 27.7867002,85.4167986 C29.2911035,88.0444962 24.8181625,89.7813299 24.0718564,87.072753 L24.0503917,86.9893106 C23.5589042,84.9385346 21.557597,83.1657026 19.4690256,82.8902626 C19.2960019,82.865473 19.1678641,82.615073 19.368722,82.5171666 Z" id="ðŸ–-Ink" fill="#000000"></path>
                    </g>
                    <g id="face/Smile-Teeth-Gap" transform="translate(39.870674, 46.574400)" fill="#000000">
                        <path d="M42.8332164,36.1495355 C44.7267922,37.2988829 47.6120202,39.9789369 45.5749685,42.8283092 C43.1771637,45.3406948 39.7248663,42.4600731 38.023634,41.15728 C36.4461716,40.1476081 34.6738043,42.7444087 36.1373747,43.9233709 C48.4305154,53.011698 53.4193322,36.4500738 43.7909606,34.7981847 C42.7308423,34.6161536 42.3371117,35.7939723 42.8332164,36.1495355 Z M25.7248347,14.2303572 L26.1956023,14.148077 L26.4368949,14.1072355 C27.8471808,13.8743969 29.5189681,13.7186607 30.4930162,14.8240556 C31.03942,15.444046 31.2274892,16.5963868 30.4930162,17.1898348 C29.2011061,18.2340028 27.7727831,17.8293564 26.2245973,17.9177476 C24.9487357,17.9908644 23.7225244,18.2017012 22.4935548,18.5525116 C19.7973945,19.3219908 17.6004953,20.7267348 15.2977758,22.2691988 C14.9956112,22.471522 14.6871777,22.0856556 14.8313641,21.8034548 C16.1606373,19.2035516 18.7366841,17.06789 21.3169937,15.7660604 C22.6941619,15.0712004 24.2012233,14.4947796 25.7248347,14.2303572 Z M38.196883,50.1478334 C42.3173542,50.4465606 51.2468806,48.482423 54.9546025,51.4286294 C68.9286468,68.8532142 13.5284707,73.3331206 19.5115794,54.0555758 C23.3223633,47.8223686 32.0876426,50.3276206 38.196883,50.1478334 Z M37.490495,60.666887 C36.4714106,60.5840046 35.2346675,61.3900422 34.935512,62.012787 C34.6363566,62.6357822 34.7519565,63.952135 34.7609838,64.1802494 C36.5426262,64.3595358 38.3398156,64.3868294 40.1264732,64.2698926 C39.6623183,62.7366934 39.6472728,60.8990078 37.490495,60.666887 Z M45.7168933,63.2389958 C45.4305266,61.3359558 44.0674009,60.8852358 42.9640615,61.1709422 C41.8353954,61.4629086 41.1728903,62.760231 41.2446073,63.9153262 C41.2493718,63.9949534 41.2032321,64.0625614 41.1728903,64.1266638 C42.7070336,63.9456246 44.2268836,63.6476486 45.7168933,63.2389958 Z M33.0801465,61.0114374 C32.4377021,60.0353782 30.9025557,59.5643758 29.9193299,59.7364006 C28.3137203,60.0739398 28.123645,62.1111942 28.123645,62.5263574 C29.6038751,63.0897574 31.1753815,63.463855 32.6779291,63.761831 C32.9795922,63.8214262 33.2820075,63.8747614 33.5849243,63.9250918 L33.604646,63.6777446 C33.6412046,63.1476498 33.6683267,61.9048646 33.0801465,61.0114374 Z M51.2423669,60.8504302 C49.5961344,58.3071174 46.057424,60.1280262 46.3498089,62.9064646 C46.6642607,62.8075566 46.9772078,62.7041414 47.2886505,62.5957182 C48.5820651,62.145499 50.0008593,61.6103942 51.2423669,60.8504302 Z M38.2818903,52.0874318 C36.0671872,51.8883638 34.2504386,51.955471 32.806067,52.2228982 L32.7622541,52.7046944 C32.6024304,54.3751252 32.3962872,56.0174773 33.2747355,56.6895334 C33.9881447,57.2354054 36.3560615,57.1833222 37.9438672,56.788191 C38.3360542,56.6895334 38.8458472,53.224999 38.2818903,52.0874318 Z M41.7065053,51.8883638 C41.3515238,53.5346511 41.1845522,55.5336091 41.8973018,56.1273231 C42.6498559,56.7541939 45.0725504,56.6692453 45.7061232,56.2516494 C46.260601,55.886186 46.2464707,54.2050258 46.0406231,52.3175494 C44.8136596,52.0288382 42.6771933,51.8883638 41.7065053,51.8883638 Z M31.8266025,52.2394246 L31.1014076,52.245935 L30.6909308,52.2514098 C29.6529779,52.2698313 28.5331786,52.3295244 27.4746808,52.560187 C25.3717435,57.0981711 33.0513896,57.88152 31.8652782,52.4072301 L31.8266025,52.2394246 Z M47.01758,52.3488494 L47.0041926,52.6059235 C46.9411573,53.8806643 46.9829376,55.5592675 47.6901465,56.0124623 C48.7307804,56.679323 50.6849038,56.550662 51.7434719,53.4660989 C51.3931616,52.5458789 47.6778284,52.416207 47.01758,52.3488494 Z M26.6365692,25.2904501 C27.0812142,25.2904501 27.5064887,25.4411575 27.8937898,25.7200243 C28.2749747,25.9944873 28.6200549,26.3950605 28.9074685,26.8946687 C29.4513608,27.8401115 29.7913676,29.1455169 29.7913676,30.5889141 C29.7913676,32.0323113 29.4513608,33.3377167 28.9074685,34.2831595 C28.6200549,34.7827677 28.2749747,35.1833409 27.8937898,35.4578038 C27.5064887,35.7366706 27.0812142,35.8873781 26.6365692,35.8873781 C26.1919241,35.8873781 25.7666496,35.7366706 25.3793485,35.4578038 C24.9981636,35.1833409 24.6530834,34.7827677 24.3656698,34.2831595 C23.8217775,33.3377167 23.4817707,32.0323113 23.4817707,30.5889141 C23.4817707,29.1455169 23.8217775,27.8401115 24.3656698,26.8946687 C24.6530834,26.3950605 24.9981636,25.9944873 25.3793485,25.7200243 C25.7666496,25.4411575 26.1919241,25.2904501 26.6365692,25.2904501 Z M54.7818045,25.2904501 C55.2264496,25.2904501 55.651724,25.4411575 56.0390252,25.7200243 C56.42021,25.9944873 56.7652903,26.3950605 57.0527038,26.8946687 C57.5965961,27.8401115 57.9366029,29.1455169 57.9366029,30.5889141 C57.9366029,32.0323113 57.5965961,33.3377167 57.0527038,34.2831595 C56.7652903,34.7827677 56.42021,35.1833409 56.0390252,35.4578038 C55.651724,35.7366706 55.2264496,35.8873781 54.7818045,35.8873781 C54.3371594,35.8873781 53.911885,35.7366706 53.5245838,35.4578038 C53.1433989,35.1833409 52.7983187,34.7827677 52.5109052,34.2831595 C51.9670129,33.3377167 51.6270061,32.0323113 51.6270061,30.5889141 C51.6270061,29.1455169 51.9670129,27.8401115 52.5109052,26.8946687 C52.7983187,26.3950605 53.1433989,25.9944873 53.5245838,25.7200243 C53.911885,25.4411575 54.3371594,25.2904501 54.7818045,25.2904501 Z M50.9524334,13.0657186 L51.3127564,13.1393565 L51.5518038,13.1899713 C55.4384516,14.0247767 60.3659729,15.6704535 62.1853269,19.4387638 C62.2560821,19.9826029 62.1813225,20.0991585 62.1205296,20.1753092 L62.1002888,20.2006496 C62.0501953,20.2656779 62.0102246,20.3553191 61.7741633,20.4293365 C61.7086563,20.4137511 61.6424972,20.3972441 61.5756374,20.3797477 C60.7244823,20.1570104 60.0510539,19.8501586 59.3991039,19.5317631 L58.6922247,19.1840077 C57.8721037,18.7824617 57.0447415,18.39553 56.1679276,18.1098824 C54.2967314,17.5004226 52.3720452,17.0710962 50.4175398,16.8418457 C49.9939158,16.7921997 49.5859924,16.6494314 49.2641702,16.4047497 C48.9586964,16.1724977 48.725334,15.8509394 48.6189338,15.4235184 C48.4810393,14.8703673 48.5206672,14.4515865 48.817882,13.9525632 C49.0413693,13.5778074 49.3611437,13.3180527 49.7283257,13.1688927 C50.1026518,13.0168305 50.5288184,12.9809819 50.9524334,13.0657186 Z" id="ðŸ–-Ink"></path>
                    </g>
                    <g id="facial-hair/*-None" transform="translate(30.843352, 84.635200)"></g>
                    <g id="accessories/*-None" transform="translate(11.785671, 60.346400)"></g>
                </g>
            </g>
        </g>
    </g>
</svg>