<?xml version="1.0" encoding="UTF-8"?>
<svg width="346px" height="501px" viewBox="0 0 346 501" version="1.1" xmlns="http://www.w3.org/2000/svg" xmlns:xlink="http://www.w3.org/1999/xlink">
    <!-- Generator: Sketch 62 (91390) - https://sketch.com -->
    <title>peep-sitting-18</title>
    <desc>Created with Sketch.</desc>
    <g id="Introduction" stroke="none" stroke-width="1" fill="none" fill-rule="evenodd">
        <g id="variations-sitting" transform="translate(-3267.000000, -256.000000)">
            <g id="a-person/sitting" transform="translate(3243.000000, 200.000000)">
                <g id="pose/sitting/closed_legs-1" transform="translate(-20.311475, 159.504800)">
                    <path d="M386.865055,368.978348 C379.25272,358.161592 363.20656,356.370917 352.898359,348.791097 C347.467902,344.633603 341.72148,341.881857 337.501353,336.28399 C344.220625,328.400986 335.910919,309.9217 334.201221,299.250133 C327.425268,271.310475 321.158171,242.924236 313.099047,215.01761 C327.065169,219.359216 323.42674,193.363613 321.432092,187.352455 C321.294106,186.526128 320.26921,186.361222 319.64109,186.100802 C319.816779,184.920592 320.300758,184.661709 318.833434,184.335737 C318.342787,177.262927 320.346667,169.34305 316.724909,163.09503 C312.642768,156.275471 302.884718,150.568263 294.822516,150.474031 C289.158918,128.014449 288.121198,117.421239 261.288997,126.941787 C261.882493,124.754211 262.066902,122.747931 261.03303,120.538078 C256.998082,108.36289 251.927466,95.0435976 247.518056,82.7052952 C242.436156,68.5066705 237.18113,53.8245926 230.384402,40.1821441 C225.650801,31.5189063 210.841372,29.2027859 200.803245,30.6370137 C198.408745,26.4183201 192.372737,14.7493752 184.737318,17.4472906 C184.679867,13.9279143 184.625236,10.4085379 184.579583,6.88890556 C184.540085,3.82942446 184.862481,0.692355246 183.684466,-2.21246176 C182.436433,-5.28961144 179.895483,-6.91358442 176.911078,-8.09148976 C167.877841,-11.0710782 157.499878,-15.857983 147.967531,-12.8960632 C139.639102,-9.1003913 140.609111,5.17223655 136.578779,12.9307918 C130.93057,4.5679199 121.298451,10.1752615 119.260715,19.1442425 C96.0582237,28.3797886 76.115084,17.8879808 74.6303194,54.1421149 C75.9096433,60.750932 76.9973763,66.950043 76.3910568,73.623645 L75.6890702,73.6953436 C69.750525,105.818615 67.4668243,140.253141 68.9023446,176.051221 C68.6148302,190.146139 63.4711175,203.301549 58.4969383,216.020878 C54.8382466,225.373447 51.0602916,235.044306 49.2692895,244.966622 C47.2833625,253.230652 39.9831633,292.97113 56.2160588,279.777566 C56.8380236,324.989158 97.1839158,330.777538 133.515635,320.791205 C172.085401,312.784266 215.504953,315.086303 239.576656,276.350629 C247.742733,290.305223 250.560169,298.920832 252.60996,313.513287 C254.859549,324.203034 258.126045,336.343599 264.130506,343.41436 C258.96037,352.707633 256.428163,364.028407 256.677701,371.406768 C256.775722,374.305043 255.448346,375.647132 257.356092,377.448709 C266.507801,386.091112 286.926521,386.18809 302.452976,390.035743 C313.099047,391.388788 351.594481,396.564931 357.477579,393.190901 C361.580495,394.336542 356.809094,383.674262 360.911753,383.446619 C362.315454,383.457022 362.503333,381.671868 363.944693,381.737462 C373.14656,382.156221 392.985785,384.857255 388.189188,377.448709 L386.865055,368.978348 Z" id="ðŸŽ¨-Background" fill="#FFFFFF"></path>
                    <path d="M384.580586,379.447765 C377.796169,380.91144 370.818366,380.502758 363.944693,381.07481 C364.166805,380.499941 364.35301,379.911757 364.498691,379.313842 C371.6014,378.454995 379.050358,378.047338 385.821951,375.70305 C385.981738,376.465616 386.101515,377.236632 386.148964,378.015073 C386.155376,378.119292 386.141269,379.283882 386.307725,379.068786 C386.101515,379.335608 384.888363,379.389894 384.580586,379.447765 M350.304814,361.863686 C337.957851,357.806827 324.863506,354.3233 315.346291,344.911836 C315.36527,344.859855 315.38348,344.807361 315.401434,344.754867 C317.36043,344.20074 319.515122,343.017713 321.400252,344.304191 C327.437542,344.096009 333.742854,341.982693 337.970932,337.516127 C338.259472,337.577327 338.539036,337.663621 338.811161,337.770401 C346.946461,351.594656 364.278631,354.227787 376.972098,362.237799 C382.117606,365.229423 391.701506,373.286295 379.440464,373.466822 C374.600424,374.19994 369.732428,374.742289 364.851608,375.116914 C364.475095,367.333008 356.756576,363.922972 350.304814,361.863686 M358.935889,381.800759 C356.480603,385.145242 352.047854,386.4668 348.037528,386.139803 C345.088004,385.739572 342.485242,384.703271 339.417737,384.926561 C316.161641,384.044156 293.292831,379.231645 270.614841,374.318755 C250.303139,370.511816 265.821737,355.532957 264.130506,343.41436 C266.997187,345.160477 270.247049,346.435943 273.593604,347.371098 C277.904525,359.355772 289.685948,356.225361 298.028483,350.48384 C301.247311,350.379878 305.166587,350.873317 307.799101,348.737724 C307.952732,348.863708 308.114572,348.970232 308.282053,349.061392 C310.371085,347.832017 312.28289,346.545283 314.473744,345.59707 C321.878075,358.101815 337.605704,360.956443 350.225305,365.783807 C357.945875,367.862297 364.267859,373.822498 358.935889,381.800759 M358.513979,392.51304 C351.987581,394.462217 345.080823,394.124209 338.346932,393.575459 C316.225249,391.660082 294.250272,387.893346 272.789025,382.195101 C267.699173,380.84307 257.824681,379.273383 257.356092,372.891697 C261.886816,378.827828 269.975436,379.527145 276.770112,381.05791 C299.074153,385.425378 321.920137,391.065752 344.730984,389.978238 C349.548453,391.347681 354.799118,390.266569 358.875103,387.60015 C358.745581,389.237182 358.628113,390.874983 358.513979,392.51304 M237.903599,184.050424 C241.207065,175.295515 244.789839,166.658396 248.255144,157.95726 C254.684849,161.557554 261.943242,162.873735 269.35578,163.713633 C269.52993,163.800695 269.714852,163.877515 269.91465,163.938971 C270.266028,164.01067 270.56098,163.977381 270.797199,163.869833 C280.68195,164.914584 290.763935,165.32429 299.458874,169.362457 C302.823639,170.924462 305.980912,173.029327 308.838359,175.927999 C311.964598,178.918854 314.483234,182.52939 316.173696,186.513783 C316.701789,187.742902 316.981609,189.020673 317.81517,190.032135 C318.066521,191.391848 318.350957,192.741317 318.543318,194.113833 C319.03063,199.478424 319.695171,205.129809 317.62281,210.276743 C316.337587,213.42892 313.703791,210.893863 311.956903,209.659623 C309.115358,207.677669 306.499002,205.4038 303.890854,203.12993 C295.878409,195.604139 286.514312,189.205041 275.275345,188.147487 C263.141261,186.46257 249.993824,184.357704 237.903599,184.050424 M233.040732,184.068349 C232.373883,185.76863 231.719602,187.474032 231.076093,189.181995 C227.887786,188.636573 221.101573,187.35112 218.323635,185.88642 C219.313649,185.919709 220.29366,185.405016 220.545011,184.22455 C220.655298,183.702174 220.829448,183.213087 220.965639,182.703515 C222.640455,177.251862 224.068794,171.6901 226.433799,166.463786 C228.747251,160.945555 231.499285,155.583525 233.602167,149.983353 C237.1675,149.758015 242.799808,154.177721 245.346401,155.980428 C240.804134,165.12968 236.769699,174.514512 233.055864,184.027378 C232.986615,184.027378 232.915057,184.027378 232.845807,184.029939 C232.909927,184.042742 232.976612,184.055546 233.040732,184.068349 M212.037559,183.423062 C193.750256,182.281006 175.217245,183.484518 157.140513,180.245278 C153.713936,179.664007 150.520756,178.614135 147.555587,177.182724 C138.927589,173.019085 132.22345,165.626448 127.286204,157.163455 C109.450563,130.340501 89.8246894,103.696795 81.0453683,72.2697679 C75.843691,57.0594249 74.8308503,34.3232911 93.0124832,27.7782345 C101.076224,24.7720152 110.814782,24.956383 117.755396,19.5021691 C116.970309,22.3854765 116.529163,25.4019385 116.124181,28.0727108 C115.441943,32.4283999 114.769708,36.9351682 115.323962,41.3395099 C115.329092,41.3779199 115.334221,41.4163298 115.341659,41.4521791 C114.431411,43.9309017 117.296039,46.2713484 120.107064,46.0280853 C126.037145,45.8923701 128.945375,38.7737248 134.888024,38.5560684 C137.057848,38.4766878 138.35333,39.769823 139.681898,41.308782 C142.897904,45.0396691 146.047739,48.8422548 149.933159,51.8996874 C150.210415,52.1173438 150.579746,51.8535955 150.423293,51.5207092 C148.460962,47.3340239 145.709185,43.6261827 142.980234,39.9055382 C137.322279,30.8791983 129.707378,35.032595 123.269722,40.5200975 C122.015277,41.4291331 120.740826,42.1666043 119.450474,41.8439607 C119.535112,41.5341204 119.558196,41.1756274 119.504335,40.7761639 C119.024973,37.2424478 119.494076,33.516682 119.981388,30.0111333 C121.094769,23.4686373 120.76391,14.9365055 127.080763,10.9751587 C129.837927,9.41827507 133.172171,9.22110396 135.854955,10.987962 C135.362513,12.1940346 134.775173,13.5511864 134.690534,14.826397 C134.151926,14.4474188 133.787724,14.5652093 133.690261,15.3871824 C135.780576,21.5430181 139.202279,27.1995245 142.10538,33.0045493 C144.372666,37.3602384 146.652776,41.7108062 148.979309,46.0357673 C149.66642,47.3749945 150.246065,48.7936022 151.584893,49.5361947 C151.587714,49.548998 151.590022,49.5618014 151.592587,49.5746047 C152.497962,52.557778 152.497962,55.7637291 153.195589,58.7981157 C153.624167,60.6520362 154.11661,62.5161995 154.642138,64.3701201 C155.13971,66.1088108 155.665751,67.8398195 156.19923,69.5426609 C162.549426,91.5157169 168.564146,113.5912 174.755581,135.612908 C167.425373,131.828247 163.708717,124.753133 160.353954,117.521818 C151.505384,98.887868 142.236442,78.5485155 132.33348,61.3562188 C141.543945,80.9017655 154.177908,126.688995 169.910667,138.071145 C172.311067,139.658757 174.927422,140.854587 177.658938,141.802033 C178.800019,142.83398 179.995473,143.056758 180.798,142.782767 C185.743197,144.168086 190.921535,144.964452 195.78158,145.981036 C204.20978,147.747894 212.640288,149.501949 221.07336,151.248321 C223.925422,151.837274 226.790307,152.625958 229.703923,152.764234 C229.84986,152.771916 229.991181,152.766795 230.121729,152.74887 C223.702284,160.118461 219.38059,170.179309 216.910685,179.610233 C214.899623,179.031523 212.619769,181.174799 212.037559,183.423062 M139.65625,184.234792 C125.393123,205.608653 103.040864,218.86777 84.6332714,236.121523 C73.6046179,247.72389 64.8099079,261.195543 54.7510065,273.609641 C54.4406653,273.99374 54.1275028,274.37784 53.8148533,274.759379 C53.0400263,275.711946 51.9630655,276.759257 51.3395618,277.683657 C51.3218647,277.711824 51.3039111,277.737431 51.2885223,277.757916 C49.8314576,274.718408 50.6291114,270.83132 50.5752505,267.366742 C50.7983884,261.431124 51.5755237,255.546718 52.7427656,249.72889 C56.5538066,226.370515 69.675596,205.580486 72.5299654,182.088956 C72.4350676,157.104559 71.1913946,132.048464 73.2994063,107.071749 C74.0688472,95.6716743 74.8767602,84.2664777 76.0206624,72.8945698 C83.9205126,102.201367 106.988352,133.815322 120.084237,154.054809 C125.367475,161.790574 130.097228,170.230522 137.537466,176.148216 C139.335649,177.566824 141.233604,178.7857 143.208502,179.835572 C141.871983,181.159435 140.728081,182.667666 139.65625,184.234792 M186.374139,69.9395638 C188.338778,69.4248704 192.675604,68.910177 194.930066,67.4301133 C196.096538,71.4234685 197.358165,75.3860957 198.689298,79.325677 C195.458671,78.3723418 191.962075,78.8191777 188.634243,79.1820237 C184.298187,79.6547223 179.96803,80.1689035 175.639668,80.7074111 C171.674995,81.2003389 167.712631,81.7122156 163.752062,82.238432 C162.339369,77.1795846 160.916672,72.12381 159.471662,67.074181 C167.732893,70.8972521 177.530698,71.4298701 186.374139,69.9395638 M190.869982,31.8829785 C190.862544,31.5475316 190.783035,31.1967206 190.608372,30.835667 C190.582981,30.7844538 190.559641,30.7332405 190.533993,30.6820272 C189.85945,28.2775639 189.174904,25.8756613 188.477277,23.4763193 C188.37212,23.0717344 187.73092,23.151115 187.743487,23.5761852 C187.738358,23.8732222 187.736049,24.1676985 187.733228,24.4647355 C187.687318,24.3418237 187.643716,24.2189118 187.599858,24.0934393 C186.735776,21.5916707 186.10227,19.015643 185.684207,16.3986446 C193.086229,17.9222395 199.182766,34.0544214 202.627296,45.5876511 C199.795754,44.7067828 196.081919,44.507051 194.981618,46.8500584 C193.616886,41.8593247 192.262927,36.8660303 190.869982,31.8829785 M179.38582,127.409053 C181.230683,127.288446 183.076058,127.173728 184.920408,127.045951 C188.694516,126.784508 192.467598,126.512053 196.241193,126.245232 C197.146312,126.181215 198.051431,126.11515 198.95655,126.048573 C201.519301,125.907736 204.082309,125.765876 206.645317,125.629392 C209.478911,125.478825 212.345592,125.221991 215.200474,125.117259 C215.7378,125.10548 216.275383,125.096774 216.812709,125.091141 C216.918636,125.306236 217.028153,125.517491 217.146647,125.718503 C213.384081,126.758133 209.947244,127.961645 207.192646,129.175399 C200.934526,131.912749 194.917498,135.515603 189.777633,140.045417 C188.826091,139.848246 187.874549,139.648514 186.92275,139.446222 C184.312037,138.882876 181.667725,138.28112 179.120619,137.423297 C178.469159,135.828004 178.256537,133.953598 177.702539,132.38135 C177.263189,130.805774 176.823838,129.229685 176.384487,127.653853 C177.388094,127.636953 178.414529,127.472302 179.38582,127.409053 M173.158478,114.522769 C173.192333,114.519184 173.225932,114.515087 173.259531,114.511246 C173.263635,114.511246 173.267995,114.51099 173.272098,114.51099 C173.684006,114.497931 174.095657,114.482054 174.507308,114.462849 C175.330353,114.424696 176.153142,114.375531 176.975161,114.317148 C178.621252,114.200125 180.264008,114.043925 181.904456,113.865191 C185.190739,113.506698 188.466505,113.058581 191.745606,112.641705 C193.677672,112.395882 195.60307,112.184371 197.526929,112.004356 C202.02508,111.706295 206.536826,111.477884 211.030104,111.414635 C212.468189,114.833121 213.927819,118.241365 215.400016,121.641926 C215.538772,121.959193 215.67368,122.30437 215.810641,122.662607 C209.205247,122.536878 202.57164,123.162449 195.989586,123.555767 C192.29986,123.77624 188.609621,123.990567 184.920408,124.217186 C183.075032,124.330367 181.230426,124.45584 179.38582,124.576191 C178.154201,124.65634 176.830506,124.603334 175.598888,124.835586 C175.338304,123.900688 175.07772,122.96579 174.817136,122.031147 C174.134385,119.608759 173.459329,117.184067 172.782734,114.759886 C172.914821,114.696382 173.041523,114.618026 173.158478,114.522769 M167.537455,95.8696136 C166.478704,92.0452622 165.419184,88.2209108 164.354021,84.3983519 C164.554076,84.3706968 164.754131,84.3430416 164.953929,84.3153864 C165.701825,84.2124477 166.449979,84.1102773 167.198132,84.0083628 C168.846274,83.7843048 170.494673,83.5630634 172.143585,83.3448948 C173.421626,83.175891 174.699924,83.009704 175.978479,82.844029 C177.390146,82.7249581 178.802327,82.6115207 180.21502,82.5073017 C186.603176,82.0369078 193.041601,81.6005707 199.451044,81.5644653 C200.796796,85.4576985 202.21385,89.3271176 203.682713,93.1775877 C198.231737,93.5089376 192.786403,93.9475793 187.342865,94.3841725 C184.211497,94.6353736 181.080898,94.8960492 177.951325,95.1659432 C176.428602,95.2973052 174.906391,95.4309719 173.38418,95.5666871 C172.538565,95.6419706 171.692949,95.7182784 170.847334,95.7950983 C170.358995,95.8393978 169.721385,96.0050727 169.172004,96.0086576 C169.100703,95.952323 169.026323,95.8977809 168.947327,95.8432388 C168.546705,95.5674553 167.956287,95.6158518 167.537455,95.8696136 M168.812162,99.0973303 C172.407247,98.6597129 175.99438,98.1885507 179.5869,97.7522136 C181.579496,97.5588835 183.572348,97.368114 185.565713,97.1824659 C191.899751,96.5922329 198.24097,96.0808684 204.575264,95.4985734 C206.293939,99.9318506 208.079042,104.340289 209.906208,108.730291 C202.149473,108.219439 194.250906,109.520256 186.581118,110.420586 C182.486923,110.901222 178.381699,111.334743 174.260317,111.488126 C173.607831,111.512197 172.695787,111.478396 171.913266,111.651497 C170.848359,107.825353 169.787557,103.997929 168.728037,100.169992 C168.743682,99.8140601 168.771382,99.4568475 168.812162,99.0973303 M232.494172,150.244541 C232.222303,150.503168 231.955564,150.769477 231.691645,151.043468 C231.696775,150.956406 231.699083,150.871904 231.696775,150.784841 C231.701905,150.78228 231.707034,150.77972 231.709343,150.777159 C231.945304,150.546699 232.207171,150.370014 232.494172,150.244541 M227.695426,40.7019046 C235.669655,60.014431 242.555895,79.8723787 250.024858,99.4204861 C252.420128,106.057727 254.780003,112.70777 257.011382,119.403906 C257.857767,121.61632 258.168108,124.100164 259.907045,125.838854 C259.978859,125.910553 260.058368,125.97713 260.143007,126.033465 C257.806727,127.012919 255.696151,128.101713 253.996199,129.202542 C254.777951,131.849244 255.721799,134.447038 256.849286,136.953672 C257.252217,137.849136 255.925701,138.629626 255.520718,137.729041 C254.087506,134.543063 252.931037,131.22854 252.024892,127.847951 C250.896378,126.328709 249.590637,124.965924 247.898636,124.115528 C244.633642,122.92994 240.517133,122.520234 236.079767,122.653389 C236.008209,122.525355 235.913311,122.402444 235.797895,122.287214 C234.328007,120.873727 233.746053,118.625465 233.015084,116.753619 C230.888862,111.291723 229.080419,105.701794 227.595398,100.029924 C226.133717,94.4143884 225.228085,88.6656981 223.709722,83.0629658 C223.402202,82.0822315 222.445274,77.3450035 221.552979,77.6061912 C221.570932,77.7137391 221.586321,77.8187263 221.60171,77.9262742 C221.555543,77.8955462 221.503991,77.8827429 221.452951,77.8853036 C221.093879,89.4748679 224.128041,101.148934 227.603349,112.162349 C228.56515,115.83178 230.750363,119.26563 231.450554,122.96835 C228.406133,123.283312 225.302464,123.800566 222.29395,124.453535 C222.250605,124.210272 222.188793,123.96957 222.116979,123.726307 C222.076198,123.388299 221.97335,123.12199 221.824591,122.919698 C221.445,121.992737 220.942299,121.088823 220.570659,120.254047 C219.806348,118.528159 219.046909,116.802272 218.295679,115.068703 C214.204561,105.589125 210.331965,96.0071212 206.915391,86.2612348 C202.701676,74.4437714 199.257145,62.398409 195.93316,50.3197578 C198.159409,51.5104665 202.439809,49.1316098 205.063859,54.5678991 C205.630681,55.9378542 206.889743,56.9160278 208.451964,56.4883969 C209.821569,56.1119793 210.85775,54.5166858 210.375567,53.10576 C210.306317,52.8753003 210.231938,52.6474012 210.147299,52.4246235 C207.589934,44.8527406 205.520394,37.081126 201.832207,29.9547987 C211.298639,30.9099263 222.49657,31.5885022 227.695426,40.7019046 M315.873614,167.272955 C316.691786,171.136997 316.165745,175.20077 315.945429,179.13395 C312.203381,174.168823 307.460803,169.930924 301.913391,167.109073 C301.544059,164.625229 299.976708,162.461468 299.253433,160.049323 C297.917427,156.646201 296.834824,153.168819 295.860455,149.658149 C304.906516,151.540237 313.711485,158.100658 315.873614,167.272955 M283.075681,196.87218 C286.147033,213.419958 291.025545,229.551884 294.598828,245.98776 C294.808629,246.953387 293.324891,247.362069 293.114833,246.396186 C289.54155,229.96031 284.663294,213.828384 281.591686,197.280606 C281.41215,196.312419 282.895375,195.901433 283.075681,196.87218 M281.499353,349.008898 C283.950792,349.351771 286.397101,349.651369 288.863159,349.912556 C283.95387,351.963136 279.375952,351.462014 275.381784,347.837907 C277.426446,348.334675 279.487008,348.714422 281.499353,349.008898 M389.666591,373.392819 C389.528348,372.736265 389.165172,372.310427 388.707355,372.079967 C388.777117,358.308205 359.7833,353.831908 350.997567,345.062147 C346.978264,342.225444 344.054132,337.539429 339.38619,335.78307 C342.027425,331.702396 341.317744,326.45073 340.731686,321.86535 C339.449797,313.499405 336.228661,304.149653 335.38638,298.978137 C329.031054,272.395886 322.867576,245.749619 315.675868,219.377342 C315.529674,218.872891 315.257805,217.874232 314.916686,216.770586 C315.691513,216.957515 316.432485,217.018971 317.127546,216.929348 C327.214917,214.696449 324.950196,194.323808 322.580574,186.941414 C322.326402,186.070788 321.733933,185.520245 321.038871,185.261618 C321.128639,184.810942 321.046822,184.332097 320.726222,183.873739 C320.55438,183.627915 320.289949,183.451229 320.002691,183.361606 C319.697479,176.35563 321.44924,168.824718 317.75618,162.423058 C313.606072,155.422203 303.705931,149.629982 295.739909,149.222836 C294.598572,145.095046 293.598299,140.926285 292.495177,136.790813 C291.284846,132.460731 289.561042,127.808005 285.937232,124.904212 C281.248772,120.740573 271.240653,122.010662 262.938642,124.952865 C263.392612,122.783983 262.35874,120.822514 261.72549,118.789347 C259.660567,112.70521 257.534602,106.641558 255.364522,100.595831 C247.575471,80.212947 241.178596,59.08491 231.435165,39.5419239 C227.40073,32.9174867 219.6422,29.9317527 212.194012,29.3171934 C208.700494,28.9663825 204.98435,28.8306673 201.457746,29.2429342 C201.344895,29.0278384 201.229479,28.8153033 201.111498,28.6027682 C198.220964,23.6017918 192.355003,14.2912183 185.604698,15.8890725 C184.891426,11.1339198 184.881167,6.26097661 185.468507,1.50326329 C185.5098,1.16525567 184.955546,1.01929783 184.817047,1.32657748 C180.34403,11.3438942 181.175283,23.6709297 186.632927,33.1556284 C187.033037,33.813719 187.577031,34.1542873 188.141032,34.2515925 C189.0105,44.210014 191.183145,54.0378417 193.863364,63.6838622 C193.46069,63.6992262 193.073405,63.7837281 192.749983,63.9271252 C184.199186,67.0536957 174.796361,67.5632678 165.89675,65.7375145 C163.390681,65.2100178 160.964378,64.5007139 158.52525,63.7786067 C158.063842,62.1807525 157.601921,60.5880196 157.137691,58.9927261 C155.973271,53.9533398 155.67601,49.1111245 152.721357,45.0524724 C152.546694,44.7528748 152.367414,44.4558378 152.195316,44.1588008 C149.822873,39.8620069 147.411958,35.588259 144.983346,31.3247538 C144.393185,30.6256926 140.448774,22.8643206 137.378448,18.1706239 C137.763168,18.1603813 138.160969,18.063076 138.547998,17.8684656 C140.712692,16.7904261 140.689609,13.6638556 141.084588,11.566672 C142.295176,5.04978264 143.695815,-1.47734937 144.080535,-8.10690793 C144.100797,-8.44491555 143.582963,-8.58831272 143.431383,-8.28103307 C140.479551,-2.43759829 138.432838,3.81554269 136.247626,9.97393911 C136.203768,10.096851 136.157858,10.2223235 136.109127,10.3503567 C134.082932,7.79993555 130.52555,7.19305823 127.427012,7.87931613 C122.248931,9.22878595 119.637705,13.4308352 118.132165,18.2090339 C103.243483,25.3046332 85.5258229,18.0579547 76.4900214,36.830181 C72.4199353,46.640084 72.4968794,57.7636075 75.1332405,69.3403685 C68.2672625,104.434266 66.1179575,140.334772 67.5468093,176.043229 C67.0387218,200.19797 52.1987709,221.154443 47.9463273,244.661336 C45.8252351,253.925818 44.4941023,263.42332 44.6585061,272.941307 C44.3327761,277.970451 46.5538957,285.396376 53.0066839,283.440029 C53.7427824,283.176281 54.4098877,282.771696 55.0251839,282.282609 C57.720792,323.007406 89.1552758,330.884008 125.385685,323.87035 C126.852496,323.895956 128.293915,323.557949 129.835618,323.125196 C130.584541,322.902419 131.328077,322.669398 132.07187,322.423574 C132.631254,322.29042 133.192689,322.154705 133.754381,322.013868 C134.170649,321.92911 134.587942,321.848705 135.004979,321.766508 C145.33498,314.947204 156.064834,308.735546 166.270955,301.723937 C166.990383,301.229472 167.871649,302.378186 167.203261,302.930521 C160.385502,308.559885 153.711627,314.435328 146.617638,319.726939 C166.8288,316.51894 187.395443,317.065642 206.266752,308.75219 C219.508831,302.967651 231.970952,291.375526 239.475823,278.869244 C239.589187,279.067952 239.69973,279.267427 239.812069,279.466391 C239.447354,278.431627 239.083152,277.396862 238.722797,276.360818 C232.325408,257.967314 226.537161,239.357946 219.544225,221.174672 C219.18823,220.249248 220.676585,219.852601 221.027963,220.766246 C222.988499,225.864272 224.857471,230.99661 226.668478,236.149434 C233.149992,254.59031 238.943626,273.270353 245.84705,291.563479 C245.886805,291.668466 245.900142,291.766027 245.896808,291.856419 C247.338483,295.406267 248.51778,299.022692 249.334926,302.729509 C250.182081,306.608403 251.420881,314.893174 252.6466,321.86535 C253.71997,327.615576 254.501722,334.285337 258.501276,338.699154 C258.496659,338.708372 258.492299,338.717334 258.487426,338.726809 L258.487683,338.726809 C258.346619,339.001312 258.21171,339.273254 258.080135,339.543917 C258.363546,339.825846 258.723388,340.010469 259.0563,340.221212 C259.107852,339.979485 259.157866,339.739039 259.214548,339.492959 C260.187378,340.523627 261.266903,341.449819 262.426451,342.285875 C261.118914,351.942907 251.376509,361.298036 256.421221,371.406768 C254.016718,376.932681 259.91833,381.428694 264.775298,382.568958 C272.221178,384.946278 279.905071,386.733877 287.530744,388.430829 C302.627945,391.240902 349.878543,401.628747 361.188812,393.542682 C361.026717,391.816795 363.152426,386.209197 360.643535,386.126488 C361.75589,385.030268 362.677937,383.748656 363.376333,382.357447 C370.29848,384.606734 377.991351,383.801149 385.03943,382.971238 C390.739448,383.09415 390.530417,377.550057 389.666591,373.392819" id="ðŸ–-Ink" fill="#000000"></path>
                </g>
                <g id="Head" stroke-width="1" transform="translate(86.511840, 45.072000)">
                    <g id="head/Flat-Top">
                        <path d="M60.6939887,18.8450078 C74.9322438,18.8450078 93.3112284,27.7637115 94.8784786,36.8981521 C96.7254418,47.6628511 106.615577,88.9682278 104.382261,102.214174 C102.148945,115.460121 90.1140584,124.995615 70.8561484,124.995615 C51.5982384,124.995615 37.2243282,114.508578 33.9239621,110.907785 C31.723718,108.507255 28.5848335,103.021722 24.5073084,94.4511831 C17.6332423,93.538295 14.1796828,90.2841513 14.14663,84.688752 C14.1145072,79.0933527 16.3493643,75.2777687 20.8512011,73.242 C19.2460758,51.1601838 20.4647782,37.2447538 24.5073084,31.4957099 C30.5711037,22.872144 46.4557336,18.8450078 60.6939887,18.8450078 Z" id="ðŸŽ¨-Background" fill="#FFFFFF"></path>
                        <path d="M94.0071252,35.4242633 C93.9968441,35.2317057 94.2776941,35.2091697 94.3303535,35.3794417 C97.4021507,45.5131297 99.2956316,53.4104953 101.288915,63.7998417 L101.877563,66.856051 C103.450689,75.0073438 105.040018,83.1705075 106.38208,91.3613697 L106.46086,91.8503977 C107.13314,96.0902647 107.520711,100.371411 106.677975,104.62005 C105.890592,108.591394 103.73908,112.23221 100.945626,115.131842 C95.5467852,120.736044 88.0438265,124.236386 80.4962327,125.801386 C76.6796814,126.59265 72.7427658,126.898138 68.8534944,126.622698 C66.9148769,126.487231 64.9792685,126.214295 63.0810232,125.811402 L62.8714584,125.766659 C60.958067,125.354167 59.2598658,124.862113 58.2436322,123.064263 C57.9881088,122.61129 58.09092,121.83505 58.6275441,121.602178 C59.6406103,121.166231 60.3853644,120.98369 61.4909607,121.10889 C62.5466559,121.228831 63.5775259,121.54709 64.6206832,121.744906 C66.6142169,122.12301 68.6403492,122.313063 70.6689892,122.358386 C74.653549,122.446026 78.6481392,121.94773 82.4571677,120.760834 C89.0017257,118.720074 95.6521039,114.816338 99.476178,108.97701 C103.974493,102.107812 102.183337,93.7710195 100.991336,86.1848845 L100.955405,85.9552337 C99.7486276,78.2012847 98.5554813,70.4473357 97.3973006,62.6883542 L96.9031404,59.3627537 C95.6044597,50.5762177 94.3782485,44.3036977 94.0071252,35.4242633 Z M27.5584594,13.9176326 C30.8249613,11.7677368 34.8839778,11.239442 38.7206115,11.2691094 L39.2010479,11.275158 C44.1137515,11.3499298 68.8427921,11.9375739 77.1223086,12.118399 L79.0919324,12.1598246 C81.698861,12.2089416 86.9566559,12.2602262 89.665541,12.3096628 L89.8219081,12.3125686 C91.1509305,12.3376086 92.479953,12.3476246 93.8089755,12.3901926 L94.0037841,12.3971994 C94.999346,12.4396412 95.827737,12.5883956 96.6074454,13.2891286 C97.003958,13.6442793 97.158658,14.1859341 97.1223068,14.7018611 L97.1164861,14.7689926 L99.0899591,14.9417686 C100.429967,15.0600528 101.138535,16.2601915 100.606197,17.4746384 L100.579467,17.5334086 C99.634106,19.5466246 98.9119202,25.4059846 98.4053871,27.5719446 C98.1395826,28.7112646 97.9261868,29.8681126 97.8008073,31.0324726 C97.7007545,31.949187 97.6907241,32.8679046 97.1791758,33.6741926 C96.0881236,35.3944406 93.0190848,35.3794166 92.9639178,32.9430246 C92.9614102,32.8654006 92.9639178,32.7902806 92.9714406,32.7176646 C85.2480647,32.3796246 74.7036506,32.4121766 66.9903052,32.8729126 C59.7860004,33.3036006 52.6142942,34.2801606 45.5554296,35.7750486 C43.7675183,36.1531526 41.9846221,36.5663126 40.2142639,37.0145286 C38.7623695,37.3801126 36.9794733,37.5979606 35.680542,38.3817126 C34.22614,39.2631206 34.2537235,40.8431446 34.4117016,42.3480486 C34.5812648,43.9430966 34.8640176,43.1212788 35.2646803,44.574874 L35.289358,44.6667526 C35.7031103,46.2442726 36.2146585,47.8042646 36.8917077,49.2866326 C37.2778765,50.1329846 37.9000095,50.9467846 37.6640453,51.9208406 C37.531143,52.4692166 37.0970793,53.0551526 36.6986233,53.4382646 C34.8828777,55.1785446 31.8138389,54.0692726 30.5801048,56.4530806 C29.2889373,58.9457645 29.2568709,62.3224113 29.1472936,65.080599 L29.1407484,65.2421206 C29.0607563,67.1426566 29.0830738,69.0482006 29.2084533,70.9437286 C29.3212948,72.6712382 29.7824406,74.3817206 29.1909002,76.0418726 C28.759344,77.2488006 27.3503294,77.3614806 26.6130981,76.3799126 C26.528467,76.2672326 26.4508884,76.1517356 26.3782467,76.0355344 L26.3071722,75.9191766 L26.3024078,75.9216806 C26.3723695,76.0318566 26.4375668,76.144787 26.5002566,76.2597206 C26.5679615,76.3874246 26.399953,76.5276486 26.2971418,76.4174726 C24.5618899,74.5319606 22.0267168,74.9075606 20.0632742,76.2271686 C18.0747557,77.5693126 17.2898801,80.1183846 17.187069,82.404787 C17.0717199,84.9408382 17.2974029,87.913587 18.3556057,90.2570806 C18.8019566,91.2486646 19.4386336,92.1601206 20.4945796,92.5382246 C20.97378,92.7084966 21.4299105,92.6859606 21.9289208,92.7260246 C22.4477411,92.7658382 23.0723817,93.0265046 23.5761564,92.9914486 C24.2311279,92.9449069 24.8191464,93.691545 24.6331206,94.3171172 L24.6195644,94.3586326 C24.6097848,94.3886806 24.5995037,94.4187286 24.5897241,94.4462726 C24.6145492,94.4688086 24.6396251,94.4963526 24.6571783,94.5364166 C26.5629463,98.4251286 29.1758546,101.885657 32.0645978,105.095785 C33.5117277,106.700849 35.1163343,108.175705 36.7939117,109.540385 C37.6214163,110.213961 38.4940574,110.887787 39.4143428,111.430905 C39.7202687,111.608438 40.000868,111.728881 40.3449093,111.826787 C40.5051443,111.871609 40.6881983,111.894145 40.8436689,111.946729 L41.0051175,112.001937 C41.016191,112.005523 41.0267229,112.008828 41.0367532,112.011833 C41.4981497,112.064417 41.8868261,112.369905 42.0397891,112.848169 C42.4384958,114.095161 41.7138024,115.196921 40.4750532,115.539969 C39.1329749,115.914752 37.8681685,115.256724 36.8043516,114.501229 L36.7337296,114.450729 C34.5646646,112.890987 32.5661157,111.140441 30.8358789,109.097177 C27.4130192,105.063233 25.2687794,100.393273 24.2762754,95.2275206 C24.0302809,95.7558646 23.6992791,96.2166006 23.125041,96.5371126 C22.2323392,97.0379126 21.1666136,97.0379126 20.1886537,96.8701446 C18.2201959,96.5371126 16.5426185,95.3376966 15.4217259,93.7151046 C14.2579536,92.0324166 13.8243914,89.9891526 13.5610945,87.9984726 C13.3003052,86.0050382 13.1724181,84.0045926 13.4332074,82.0064006 C13.807089,79.1368166 15.0129888,76.2997846 17.3575851,74.7272726 C15.6022724,70.9086726 15.2938389,66.6268326 15.4192183,62.4451526 C15.5721813,57.2969286 16.4623756,52.0911126 17.1469475,46.9904646 L19.0930878,32.4898006 L19.0930878,32.4898006 L19.172709,31.9052251 C19.6423417,28.493916 20.2140684,25.0645609 21.4926002,21.8503046 C22.7539178,18.6827446 24.6697162,15.8181686 27.5584594,13.9176326 Z M19.368722,82.5171666 C22.5834519,80.9596786 26.0564634,82.3944706 27.7867002,85.4167986 C29.2911035,88.0444962 24.8181625,89.7813299 24.0718564,87.072753 L24.0503917,86.9893106 C23.5589042,84.9385346 21.557597,83.1657026 19.4690256,82.8902626 C19.2960019,82.865473 19.1678641,82.615073 19.368722,82.5171666 Z" id="ðŸ–-Ink" fill="#000000"></path>
                    </g>
                    <g id="face/Smile" transform="translate(39.870674, 46.574400)" fill="#000000">
                        <path d="M36.7578944,60.328009 C35.0722236,59.6413244 33.5681791,58.4958892 32.4685774,57.0326699 C32.0862863,56.5239948 31.9871646,55.9868418 32.067361,55.4955467 C32.1575361,54.9431201 32.4848286,54.4424437 32.9311823,54.1066054 C33.3789185,53.7697269 33.9389796,53.6035867 34.4804419,53.6882802 C34.9509409,53.7618739 35.4193003,54.0191143 35.7899717,54.5526217 L35.8674142,54.6593105 C36.5211464,55.5424593 37.3730196,56.2670723 38.3436696,56.7341274 C39.2792185,57.1842925 40.3255353,57.3944019 41.4083024,57.2722189 C43.4705023,57.0396021 44.8918742,55.9259388 46.4026374,54.4136027 C46.5899009,54.2226665 46.7772844,54.0257446 46.9655762,53.8256529 C47.0844862,53.6442708 47.2495035,53.5276964 47.4327174,53.4665318 C47.6361441,53.3986193 47.866267,53.4024617 48.0770421,53.4759123 C48.2803356,53.5467557 48.4620699,53.6810008 48.5839276,53.8596723 C48.6997435,54.029485 48.7654076,54.2392656 48.7441012,54.4805653 C48.6058184,56.0478541 47.785247,57.4465926 46.6196595,58.5448977 C45.3251257,59.7647059 43.6091266,60.6085773 41.9935885,60.9045495 C40.2137398,61.2305742 38.4001214,60.9969962 36.7578944,60.328009 L36.7578944,60.328009 Z M42.8332164,36.1495355 C44.7267922,37.2988829 47.6120202,39.9789369 45.5749685,42.8283092 C43.1771637,45.3406948 39.7248663,42.4600731 38.023634,41.15728 C36.4461716,40.1476081 34.6738043,42.7444087 36.1373747,43.9233709 C48.4305154,53.011698 53.4193322,36.4500738 43.7909606,34.7981847 C42.7308423,34.6161536 42.3371117,35.7939723 42.8332164,36.1495355 Z M20.8037905,25.5774586 C21.0130058,22.9842471 24.9681444,22.3953754 25.3615852,24.9614746 C25.7139016,27.2601466 25.2991463,29.3717698 24.262258,31.4413258 C23.2715094,33.4184842 20.7813432,32.4960467 20.5930232,30.6956707 C20.3405881,28.2823415 20.6736466,27.1905845 20.8037905,25.5774586 Z M50.9108385,24.4293996 C51.4622574,23.7082476 52.2584171,23.2159612 53.2123042,23.4941556 C56.1925744,24.3637948 55.3141658,28.588794 54.2674979,30.6453292 C53.6987766,31.7621132 51.8604627,32.0453156 51.0296982,31.0619948 C49.6755999,29.4584332 49.0271372,26.2560676 50.7485974,24.6765444 C50.7952386,24.594914 50.8471457,24.5125324 50.9108385,24.4293996 Z M24.2202809,14.2303572 L24.6910485,14.148077 C26.1474061,13.896564 27.9582193,13.6548879 28.9884625,14.8240556 C29.5348662,15.444046 29.7229355,16.5963868 28.9884625,17.1898348 C27.6965523,18.2340028 26.2682293,17.8293564 24.7200435,17.9177476 C23.444182,17.9908644 22.2179707,18.2017012 20.989001,18.5525116 C18.2928407,19.3219908 16.0959415,20.7267348 13.793222,22.2691988 C13.4910575,22.471522 13.182624,22.0856556 13.3268104,21.8034548 C14.6560836,19.2035516 17.2321304,17.06789 19.81244,15.7660604 C21.1896082,15.0712004 22.6966695,14.4947796 24.2202809,14.2303572 Z M48.1940849,13.0657186 L48.5544079,13.1393565 C52.475585,13.9578161 57.5701119,15.5927563 59.4269784,19.4387638 C59.4977336,19.9826029 59.422974,20.0991585 59.3621811,20.1753092 L59.3419403,20.2006496 C59.2918468,20.2656779 59.2518761,20.3553191 59.0158148,20.4293365 C58.9503078,20.4137511 58.8841487,20.3972441 58.8172889,20.3797477 C57.9661338,20.1570104 57.2927054,19.8501586 56.6407554,19.5317631 L55.9338762,19.1840077 C55.1137551,18.7824617 54.286393,18.39553 53.409579,18.1098824 C51.5383829,17.5004226 49.6136967,17.0710962 47.6591912,16.8418457 C47.2355672,16.7921997 46.8276439,16.6494314 46.5058217,16.4047497 C46.2003479,16.1724977 45.9669855,15.8509394 45.8605853,15.4235184 C45.7226908,14.8703673 45.7623187,14.4515865 46.0595335,13.9525632 C46.2830208,13.5778074 46.6027952,13.3180527 46.9699772,13.1688927 C47.3443033,13.0168305 47.7704699,12.9809819 48.1940849,13.0657186 Z" id="ðŸ–-Ink"></path>
                    </g>
                    <g id="facial-hair/*-None" transform="translate(30.843352, 84.635200)"></g>
                    <g id="accessories/*-None" transform="translate(11.785671, 60.346400)"></g>
                </g>
            </g>
        </g>
    </g>
</svg>