<?xml version="1.0" encoding="UTF-8"?>
<svg width="213px" height="706px" viewBox="0 0 213 706" version="1.1" xmlns="http://www.w3.org/2000/svg" xmlns:xlink="http://www.w3.org/1999/xlink">
    <!-- Generator: Sketch 62 (91390) - https://sketch.com -->
    <title>peep-standing-20</title>
    <desc>Created with Sketch.</desc>
    <g id="Introduction" stroke="none" stroke-width="1" fill="none" fill-rule="evenodd">
        <g id="variations-standing" transform="translate(-2428.000000, -895.000000)">
            <g id="a-person/standing" transform="translate(2381.000000, 854.000000)">
                <g id="pose/standing/shirt-4" transform="translate(-28.736217, 150.264357)">
                    <path d="M124.965211,240.579991 C124.743396,241.677821 124.409011,242.86619 124.060852,243.931787 C125.795474,245.597967 128.25064,247.831076 130.012336,249.44464 C128.269639,238.70216 133.571827,228.78732 136.81712,218.626226 C135.593099,217.05959 131.330165,215.456454 131.467433,213.719644 C131.796356,207.285533 132.281785,200.104366 132.981666,192.049581 C135.351098,166.894758 137.708655,140.662252 132.116254,115.431112 C131.734134,112.688669 131.154422,109.804731 127.468587,109.740975 C116.58231,152.980374 125.403617,196.515324 125.163515,240.027521 L125.480326,240.310747 L124.965211,240.579991 Z M108.663226,594.857131 C99.7181883,594.857131 91.4953554,593.237402 83.5347108,589.952206 C81.2374758,589.145661 78.3838032,588.14382 77.985771,586.520775 C77.3312502,582.079444 77.78438,577.713482 78.2638711,573.092498 C79.0221747,565.165697 78.9466531,559.003437 81.0902324,550.467758 C83.38438,542.54072 85.3396302,536.345515 83.1008176,528.148523 C82.9212757,525.708505 84.8335403,523.226062 86.0967464,520.943892 C87.8850416,517.612479 88.7924885,514.145023 90.2129126,510.728997 C87.4224122,510.242179 84.5248041,509.574995 81.8456862,508.747356 L81.3958813,510.363528 C81.2970857,510.718806 81.0246853,510.898933 80.5867549,510.898933 C80.3157795,510.898933 79.6225479,510.768815 79.5213774,510.19051 C79.9417337,503.949088 80.5506565,497.738715 81.1902154,491.397274 C87.830894,430.31268 97.8864326,379.957293 114.772879,329.736527 C118.828723,317.974667 122.971725,305.730966 123.001174,292.95186 C120.695389,292.458405 118.127416,292.175178 115.777221,292.499644 C99.0320814,288.627138 102.342209,253.276855 103.008366,242.697201 C101.827332,242.343108 100.505703,241.842306 99.5258219,241.171331 L99.1294521,241.364731 C82.5018694,200.181395 89.3301645,132.091021 93.1335573,86.3158523 C95.6290958,69.8619052 92.1190025,40.1398997 106.737662,32.0090337 C118.540885,27.8376572 130.291861,25.4931541 142.625873,22.7421787 C144.910046,21.4336463 147.729045,20.6868277 150.277781,19.8399909 L148.96114,17.9927347 C147.234355,15.564567 147.464007,10.8020875 149.722768,9.12855971 C151.110894,9.20535096 153.061394,10.5968368 154.38801,11.2502735 C156.296237,7.31258888 158.062684,3.19382862 159.330402,-1.53760255 L159.786144,-1.37477666 C161.120122,-14.7577849 178.508383,-17.0935187 188.312421,-12.6213765 C199.01488,-6.75822242 193.440767,6.50533273 198.306687,16.0800638 L200.070283,13.7339015 C202.793812,13.6836554 208.554592,17.2468642 209.941768,18.5843118 C210.934948,19.0462443 210.216543,22.1555789 210.361174,23.4062808 C224.718595,26.650474 244.371081,27.5411577 248.934914,43.6232361 C256.52745,73.8640565 255.459936,104.86639 264.074863,134.999845 C273.093523,159.425861 286.339494,189.314248 286.450877,211.683965 C286.708078,215.876436 287.27354,239.588104 283.796221,238.63485 L281.501123,240.9201 C284.627908,245.900392 282.145432,253.354357 280.947773,259.251404 C277.996729,271.763874 272.230012,285.24619 259.912624,279.249836 C246.664753,352.251294 213.368265,425.893628 224.72667,501.189818 C224.862751,501.630182 224.587026,502.113209 224.114185,501.920757 L223.554897,501.663364 C222.110249,502.108943 220.277069,502.264421 218.768299,502.60216 C220.052166,507.403273 220.740648,512.142999 221.407043,517.45392 C222.21522,517.934813 221.838087,519.207083 221.879172,519.97618 C233.932234,519.400009 240.692132,531.995196 249.336034,538.922288 C255.043379,544.003546 261.543226,548.841632 268.656271,553.302871 C274.534134,556.635706 279.493625,560.451568 278.600665,566.747028 C278.685449,566.736363 280.499155,566.456454 280.587976,566.44887 C283.322192,575.528013 274.34438,577.405369 265.098443,578.499644 C242.504176,580.766882 223.189876,575.756253 197.031131,566.263054 C193.822887,566.642507 191.322599,561.882397 190.89583,558.654795 C190.473337,556.491841 191.674321,554.292151 190.757612,551.964239 C187.603277,545.275342 185.961276,527.568797 190.408502,519.625169 C191.96952,517.82484 193.971556,516.162926 193.71198,513.055251 C193.639308,509.942361 193.345771,506.831841 193.609859,503.773938 C188.264448,503.258204 182.972947,502.108706 178.309605,500.244385 C177.484092,500.561741 176.546483,500.171386 176.488774,499.139207 C175.593913,484.906281 174.522836,469.353209 174.291284,454.782069 C173.216645,423.070128 180.483583,392.125861 186.045109,361.369544 C186.43103,351.503054 188.256136,341.971222 188.831335,332.099991 C189.450232,322.738332 189.559478,313.573391 190.097866,304.225716 L186.888434,303.530328 C160.243074,372.085005 139.377018,440.695378 124.77237,507.830839 C125.102718,508.112881 126.041513,508.43 126.001615,509.002379 C125.99069,509.308122 125.998053,509.327794 125.788587,509.358368 C122.260207,510.066317 118.7684,510.585606 115.271606,510.989234 C116.257425,519.367065 110.99846,529.049398 115.652777,536.896089 C116.888909,538.787192 116.942107,539.182288 116.184753,540.482999 C122.96555,553.078186 127.167925,563.558769 129.891454,574.818168 L131.646263,573.337092 C134.190249,575.18103 134.242972,578.66484 134.298545,582.345843 C134.117578,584.490547 135.166806,586.737876 133.559478,588.542944 C129.690063,593.055852 116.204465,594.831768 108.663226,594.857131 L108.663226,594.857131 Z" id="ðŸŽ¨-Background" fill="#FFFFFF"></path>
                    <path d="M281.31961,246.834899 C278.660204,255.7588 276.219525,268.973531 269.447515,275.543923 C267.262375,277.279548 264.597981,276.520642 262.094843,276.089046 C263.811654,265.707296 265.070585,255.235245 266.165411,244.767934 C271.497048,243.675555 276.636319,241.786348 281.409856,239.179238 C282.701798,241.340769 281.894334,244.628098 281.31961,246.834899 L281.31961,246.834899 Z M260.802901,254.603851 C251.802053,336.693459 210.113639,415.385528 221.807142,499.312201 C207.784818,501.701262 193.521442,502.69623 179.327413,501.461881 C181.036624,475.537725 175.513333,447.1553 179.484394,420.423413 C182.022918,395.361973 188.636997,370.88808 190.914521,345.798436 C191.927413,331.930742 193.189669,317.448718 189.890941,303.82633 C189.864818,303.757597 189.836319,303.688864 189.80782,303.620131 C192.067057,301.528755 194.202087,299.24303 196.084665,296.796613 C197.690093,294.679876 194.194249,291.859694 192.413079,293.675191 C194.870144,287.197469 197.231501,280.689648 199.521137,274.152675 C164.105055,345.479894 141.419118,428.555701 122.318083,507.394005 C109.471094,510.313258 96.246972,510.243103 83.1560814,509.892091 C86.7419338,450.556868 98.6527396,392.0955 114.809143,334.974188 C118.423969,321.766567 122.884495,308.333787 122.087718,294.461827 C126.305055,295.117634 132.074148,292.771708 134.346921,289.172 C136.415454,290.776321 138.951841,288.807005 140.041917,286.936758 C142.559542,282.032547 141.169042,276.043067 139.709432,271.016795 C144.85179,271.823814 151.290365,267.064653 147.771959,261.747333 C142.335589,256.987697 136.131179,252.933404 130.801204,247.917798 C130.345225,238.51324 133.996862,229.736284 137.313164,220.913112 C154.070178,232.699147 170.498982,245.381079 188.095047,255.784871 C191.120662,256.092273 193.564427,253.807734 195.835301,252.139183 C202.316387,247.33973 208.856845,242.604033 215.242935,237.674461 C215.943528,237.932565 216.748617,237.868809 217.344716,237.470396 C221.422884,241.829484 225.733079,245.855099 229.767786,250.235993 C232.191366,252.471234 233.942137,255.960733 237.324461,256.817761 C238.906378,257.106913 239.913333,256.452766 240.927413,255.357779 C247.081238,248.858964 253.701968,242.824215 260.078558,236.548664 C260.582036,237.174133 261.641238,237.456412 262.417829,236.958691 C262.337082,242.850523 261.493995,248.747333 260.802901,254.603851 L260.802901,254.603851 Z M218.318422,519.32509 C212.435098,521.020186 211.502952,530.190815 204.575148,529.296576 C200.089211,528.353276 196.471535,524.473659 195.322324,520.114334 C195.666684,519.896284 195.899423,519.514935 195.8638,518.965072 C195.569313,514.492693 195.272451,510.020077 194.977964,505.547697 C202.772841,505.977397 210.599779,505.364963 218.342171,504.298892 C218.061934,506.422501 217.950314,508.565072 217.888567,510.728974 C217.999237,513.479001 217.191773,516.799274 218.318422,519.32509 L218.318422,519.32509 Z M192.329958,517.313112 C192.522324,517.03581 192.698066,516.749028 192.847684,516.440678 C192.871433,516.796193 192.895182,517.151708 192.916556,517.50509 C192.731315,517.393696 192.534198,517.332073 192.329958,517.313112 L192.329958,517.313112 Z M231.662952,524.551398 C235.662273,527.269903 238.778134,531.142647 242.183732,534.52478 C249.426921,541.720642 257.459288,548.12726 266.058541,553.637269 C270.536404,556.415026 279.999169,560.616266 276.251824,567.137597 C273.457761,571.244507 266.1324,569.328992 264.977964,571.633203 C249.041713,572.287588 233.452434,567.938217 218.304173,563.485273 C210.614266,560.976995 202.568363,559.514644 195.113333,556.327333 C187.96799,550.079511 187.945428,536.342647 188.928634,527.533222 C189.31883,525.449666 189.898541,516.917305 192.949805,517.990724 C192.954792,518.843486 193.042663,519.991799 193.96626,520.232839 C193.980509,520.299438 193.992383,520.368171 194.009008,520.434534 C193.833265,520.377652 193.600526,520.505637 193.686022,520.716339 C195.984682,527.547205 203.562969,535.236995 210.961238,530.450578 C214.247854,528.141863 215.68704,523.674461 219.605615,522.226093 C223.711807,520.706859 228.207481,522.202629 231.662952,524.551398 L231.662952,524.551398 Z M279.937422,566.701262 C280.039542,566.751034 280.146412,566.774498 280.255657,566.776868 C280.569143,567.578199 280.414775,570.841827 280.355403,571.403541 C279.389296,576.314151 271.641442,577.129703 267.533588,577.871781 C253.100645,580.141863 238.421425,578.555081 224.341154,574.934753 C217.46821,573.235391 210.633265,571.270578 203.962188,568.903085 C198.034928,567.102994 190.703155,564.111453 191.439372,556.609375 C194.740712,561.058527 205.307803,562.376303 210.609279,564.2155 C227.269635,569.265947 244.172706,574.699165 261.755233,574.87313 C264.418914,574.758892 268.1,575.501681 270.098236,573.498709 C274.335047,572.894334 278.730975,570.552675 279.937422,566.701262 L279.937422,566.701262 Z M113.485852,518.313294 C112.121951,522.615263 110.552858,527.032182 110.51011,531.583486 C102.565615,526.871015 92.6000848,531.445783 86.0154538,536.605491 C86.4757082,533.384525 84.4855471,530.350086 85.0270229,527.184343 C87.0385581,522.409065 89.7343003,517.565291 88.7774555,512.167624 C97.5932994,513.670268 106.549262,513.577834 115.395267,512.655865 C114.701798,514.518764 114.103325,516.414844 113.485852,518.313294 L113.485852,518.313294 Z M116.525717,544.486075 C118.092197,547.55251 119.189635,551.618655 122.192214,553.554078 C123.867701,559.736722 125.751705,565.862957 127.20799,572.10272 C127.786751,575.071271 128.662375,578.145291 128.229194,581.203668 C127.541425,581.392091 127.059796,581.540459 126.678388,582.03581 C112.113639,585.13282 96.1035284,585.619876 82.6407294,578.426148 C78.124631,568.347296 81.6693978,556.547515 83.2076166,546.10983 C83.300475,542.692146 85.5884478,541.49406 85.8610857,538.23612 C93.0814758,534.087497 104.328024,528.649539 111.175081,536.088809 C112.125751,538.199621 112.765547,541.112948 115.210025,541.912383 C115.666005,542.765619 116.100611,543.625728 116.525717,544.486075 L116.525717,544.486075 Z M128.459559,581.213149 C128.457184,581.218126 128.454809,581.222629 128.447684,581.229976 C128.42631,581.227606 128.42631,581.220496 128.459559,581.213149 L128.459559,581.213149 Z M132.988482,583.090268 C132.952858,582.457451 132.636997,581.827005 132.119271,581.452766 C132.363885,579.122957 131.90078,576.712565 131.406802,574.437032 C133.852943,577.095099 132.80894,581.303923 133.211959,584.616613 C133.179661,585.936758 133.82112,587.618345 132.283138,588.299748 C127.481103,591.613149 121.660237,593.158691 115.922494,593.824452 C103.404427,595.255519 90.3909584,592.95818 79.2066327,587.15025 C77.6881255,585.091344 78.2134521,579.810997 78.0381849,577.153167 C79.0698388,585.68932 99.9273452,588.049703 107.021391,588.122465 C110.967277,588.147588 132.946921,587.332747 132.988482,583.090268 L132.988482,583.090268 Z M119.762697,289.126731 C118.097897,288.960824 116.442595,289.076959 114.794419,289.313969 C105.039304,282.697834 103.501323,255.563978 101.969992,244.109284 C108.950517,245.889466 116.344512,245.409758 123.120797,243.066439 C123.248567,244.315008 124.67659,244.958253 125.545564,244.116157 C130.140746,252.27973 137.016777,258.816704 144.11011,264.660423 C144.026989,264.387861 143.967617,264.887953 144.072112,264.698108 C143.168702,266.764835 139.851213,265.692839 138.28212,267.132675 C137.275165,267.881389 137.0638,269.192055 137.705021,270.066622 C136.007684,274.74757 138.706039,280.46283 136.16609,284.903212 C135.595403,285.56447 134.852536,286.040387 134.36117,286.782939 C130.980509,284.471143 127.900271,289.360423 124.476862,289.574917 C124.500611,289.574917 124.52436,289.574917 124.550483,289.57231 C124.023494,289.630851 123.177795,289.601936 122.71469,289.536995 C121.732672,289.384835 120.753028,289.225327 119.762697,289.126731 L119.762697,289.126731 Z M126.051416,125.563978 C126.768634,120.897251 127.604597,116.258727 128.689924,111.665473 C129.99849,111.893003 130.290602,114.884306 130.456845,115.765747 C136.058982,141.063723 133.633265,167.098563 131.233198,192.633076 C130.651586,199.480058 130.171858,206.339366 129.796624,213.203176 C129.312146,216.359675 132.949534,217.430724 134.890772,219.159001 C132.190517,227.836175 127.530975,236.23107 128.081951,245.472091 C127.357608,244.808226 126.64039,244.137488 125.927922,243.462246 C126.108414,242.881335 126.262782,242.30066 126.393401,241.715245 C127.279949,241.254972 127.561612,239.982702 126.801883,239.312201 C127.093757,201.47355 119.97905,163.312091 126.051416,125.563978 L126.051416,125.563978 Z M195.763104,54.1030848 C197.109669,51.7114166 200.67391,54.8195661 198.434623,56.5537685 C196.875742,57.8137138 194.715301,55.7446162 195.763104,54.1030848 L195.763104,54.1030848 Z M202.353673,81.9240328 C203.791671,80.0573418 206.676217,82.2188733 205.419661,84.1486089 C203.951026,87.1920547 201.011383,84.1858195 202.353673,81.9240328 L202.353673,81.9240328 Z M206.970229,106.306913 C209.850738,106.314972 209.190755,111.18695 206.471264,110.518819 C204.15598,109.971799 204.537388,106.261881 206.970229,106.306913 L206.970229,106.306913 Z M209.330874,135.684306 C209.997981,133.429156 213.409042,134.024762 213.384818,136.343431 C213.298372,139.47386 208.655216,138.528664 209.330874,135.684306 L209.330874,135.684306 Z M214.921374,164.011982 C215.869432,161.178764 219.513232,162.644908 219.20782,165.388773 C219.60514,166.973659 216.527515,170.171635 215.90458,167.581116 C215.073367,166.58117 214.68151,165.296576 214.921374,164.011982 L214.921374,164.011982 Z M220.644869,196.683577 C220.651993,196.674097 220.659118,196.664616 220.666243,196.655136 C222.692977,197.607205 220.93888,201.941881 218.984818,200.350359 C217.08894,199.195172 218.401069,195.532893 220.644869,196.683577 L220.644869,196.683577 Z M223.311874,223.207606 C225.676319,225.527697 222.019695,229.199457 219.687549,226.823905 C217.320254,224.508791 220.974741,220.836558 223.311874,223.207606 L223.311874,223.207606 Z M281.86821,238.930377 C281.899084,238.99911 281.932332,239.067843 281.970331,239.132073 C281.908584,239.079694 281.846836,239.027789 281.785089,238.975646 C281.811213,238.961189 281.839712,238.947205 281.86821,238.930377 L281.86821,238.930377 Z M283.7705,185.008463 C279.91106,169.831289 273.701662,155.386239 267.656607,140.985984 C261.124224,121.866148 259.208872,101.615063 256.874826,81.6626108 C255.590958,70.4055825 254.202833,59.1634859 251.604936,48.1183446 C249.396997,27.5288095 228.444258,25.2840875 212.013079,22.0925105 C212.036115,20.3343701 212.577829,18.3344795 210.811145,17.2101039 C209.18933,15.5659654 200.530704,10.4562662 198.820543,12.6192197 C198.148923,10.9890647 197.820475,9.18020419 197.502477,7.44031358 C197.288736,6.75369553 197.20039,4.38549134 196.453011,4.40421513 C196.292943,9.03989426 194.322256,15.8259654 198.276692,19.3076427 C195.903223,22.9180164 193.924224,27.2925105 190.795776,30.1674421 C190.798151,30.164835 190.800526,30.1627019 190.802901,30.1603318 C190.646158,30.2620091 190.48704,30.354443 190.323172,30.4421367 C190.36117,30.4113254 190.135556,30.494516 189.950314,30.5537685 C189.525208,30.6345889 188.822002,30.4793473 188.387634,30.28334 L188.392383,30.28334 C177.620577,24.1732215 167.07961,17.6296117 156.651925,10.9267311 C158.142409,8.72632999 160.071535,-2.05975934 158.221968,-3.55458159 C156.928601,0.700459435 155.582036,4.96972106 153.619186,8.97376846 C151.918762,8.04753327 149.167209,6.3818268 147.734198,8.55900091 C145.926904,11.5841969 145.41084,15.9703045 147.57983,18.9779617 C138.257897,22.6440328 128.204733,23.9276791 118.58,26.7926563 C114.385937,27.8658377 109.944885,28.6645615 106.009686,30.5253273 C94.2831722,37.018454 94.2734351,53.0161568 92.98743,64.7988733 C89.6870399,122.152219 79.2196947,181.442173 95.6119254,237.705273 C96.2417472,239.433076 97.1727057,241.092146 97.8970483,242.791271 C98.1844105,243.464379 98.9301272,243.443048 99.4217303,243.078053 C99.9774555,243.407734 100.587803,243.670578 101.22665,243.884124 C100.153198,258.510724 98.69905,285.2355 112.846293,293.957469 C113.948957,294.476284 114.936913,294.296157 115.965242,294.168171 C117.616506,293.95344 119.571993,294.025965 121.280254,294.345929 C119.216947,321.480022 105.527108,346.271508 100.226107,372.860478 C88.8636641,417.817962 81.5231043,463.771599 77.8291942,509.982155 C77.6964377,512.847843 82.1937744,513.64159 82.9708397,510.830651 C84.5952672,511.300168 86.2434436,511.690997 87.9129941,512.008828 C87.0411705,514.274644 86.3206277,516.563923 85.3148601,518.772857 C84.217659,521.268572 82.2203732,523.567807 81.5934012,526.238673 C80.8429347,530.519311 83.6350975,534.524069 82.0869042,538.807314 C81.7933673,543.594443 79.6125021,548.100004 78.8551484,552.843048 C77.6724512,558.718527 76.7747413,564.805181 77.0834775,570.811015 C75.8599321,575.205418 75.9174046,579.760514 76.0881595,584.211562 C76.1786429,585.673914 76.1026463,587.524726 77.2140967,588.650523 C79.6664122,590.607989 82.9451908,591.441079 85.8062256,592.665947 C101.231399,597.708335 120.442629,599.120441 134.594148,590.014279 C137.288465,587.881663 135.60419,582.623358 135.812706,579.504306 C135.908651,577.124726 134.058846,570.53798 130.813079,571.86808 C127.971518,560.87437 123.353774,550.459675 118.02665,540.478235 C118.877812,538.978436 117.946378,537.505655 117.11944,536.240496 C113.020373,529.94551 117.445038,519.901499 116.955573,512.475737 C120.014436,512.103395 123.061425,511.610414 126.08704,511.008408 C128.155573,510.596011 128.003579,508.029429 126.614266,507.088263 C141.719779,437.934662 162.766565,370.123249 188.411383,304.153404 C188.049924,311.336704 187.751399,318.513841 187.511535,325.709466 C187.191162,337.651927 184.913164,349.416394 184.356964,361.329703 C178.702103,392.232492 171.520899,423.194297 172.602188,454.832529 C172.846327,469.648026 173.869907,484.446932 174.800865,499.22901 C174.879474,500.929557 176.402731,502.366549 178.151841,501.995154 C182.531145,503.677925 187.159813,504.73499 191.840729,505.268263 C191.365276,510.671854 193.819016,514.559767 189.07849,518.61643 C184.931213,525.080405 185.912044,538.302483 187.009483,545.806221 C187.499423,548.197889 188.342511,550.387861 189.209347,552.656047 C189.86458,554.714242 188.740543,556.76746 189.219084,558.879931 C189.688838,562.706221 192.828685,568.511781 197.222239,567.931107 C222.29067,577.403923 251.332774,585.994826 277.700271,577.17355 C279.53369,576.262246 281.445479,575.084306 282.103325,573.03891 C282.665225,571.213696 283.423291,564.303431 280.255657,564.838126 C279.90631,555.47623 269.020034,552.524033 262.814673,547.488755 C254.146073,541.548809 246.497489,534.333039 239.25335,526.764835 C235.075912,522.471161 229.829771,518.43014 223.559813,518.408098 C223.5781,517.749211 223.374572,517.166166 222.958965,516.706129 L222.95659,516.703996 C222.408227,512.452985 221.816404,508.095081 220.778813,503.928919 C221.647549,503.764434 222.544071,503.692383 223.391196,503.450396 C225.078083,504.206458 226.728872,502.682957 226.342952,500.959183 C223.484767,482.813459 223.449381,464.33592 225.132231,446.077141 C230.314724,389.901736 250.812909,336.705546 261.16151,281.490505 C274.885547,286.382155 279.986582,269.793349 282.542443,259.642684 C283.77525,253.45767 286.433707,245.846093 282.88229,240.061152 C293.268651,244.193185 286.363647,190.621335 283.7705,185.008463 L283.7705,185.008463 Z" id="ðŸ–-Ink" fill="#000000"></path>
                </g>
                <g id="Head" stroke-width="1" transform="translate(95.945717, 42.661805)">
                    <g id="head/Flat-Top-Long">
                        <path d="M57.4822095,17.8372836 C70.9670106,17.8372836 90.7046756,26.8238479 92.1889907,35.4698304 C93.9382171,45.6588943 97.8233354,83.9723923 95.7082009,96.5100207 C93.5930664,109.047649 85.3454402,118.311558 67.1066123,118.311558 C48.8677843,118.311558 35.2545067,108.385309 32.128788,104.977065 C30.0449756,102.704902 27.740573,98.0334752 25.2155805,90.9627831 C18.558332,89.8365975 15.2142761,86.6254102 15.1834128,81.3292212 C15.1525494,76.0330321 16.8247015,72.5665802 20.199869,70.9298654 C18.3783077,48.959238 19.3818316,35.2531154 23.2104409,29.8114978 C28.9533548,21.6490714 43.9974084,17.8372836 57.4822095,17.8372836 Z" id="ðŸŽ¨-Background" fill="#FFFFFF"></path>
                        <path d="M53.587464,-0.707143118 C56.0666158,-0.666851413 58.5652417,-0.574417502 61.0538931,-0.370588879 C61.1705004,-0.38243938 61.2892451,-0.391919781 61.4056149,-0.403770283 C66.0889059,-0.851956244 70.7650721,-0.449039198 75.4459881,-0.252083865 C79.9058015,-0.0648459435 84.6152163,0.39495351 88.619525,2.52543665 C89.134402,2.79894622 89.5706701,3.10990337 89.9428159,3.45641203 C90.4645802,3.52964813 90.9621204,3.67730538 91.409313,3.92545488 C92.6984054,3.66545488 94.1375912,4.24186326 94.4425276,5.73478943 C94.8866327,7.92239198 95.0552502,10.1287183 94.7892621,12.3473692 C94.7823749,12.3992744 94.7773876,12.4540237 94.7702629,12.5109061 C95.3086514,14.5691012 95.2727905,16.8169043 94.8253605,18.8468952 C95.0139271,21.4118177 95.1215098,23.9840875 95.1364716,26.5520912 C95.1469211,28.3284813 95.2262426,30.1371048 95.0607125,31.9082808 C94.914894,33.4654366 94.2727226,34.6976518 93.2622053,35.8803318 C93.0717388,36.1031212 92.7499406,36.1400948 92.4822901,36.0860565 C92.4129432,36.0720729 92.3526209,36.0531121 92.2979983,36.0305962 C92.9071586,37.3339143 93.3887871,38.7166308 93.8822901,40.0372507 C94.6660051,42.1371595 95.4259712,44.2726199 95.9648346,46.4483719 C97.0575233,50.8351905 97.7768787,55.3054366 98.1950975,59.8062571 C98.9334521,67.8148259 99.2113147,75.8921276 99.3540458,83.9315077 C99.4917897,91.54901 98.8196947,99.4935861 94.4710263,106.006622 C90.6690585,111.704343 84.879067,115.840168 78.4309924,118.072802 C74.7617812,119.345546 70.6985751,119.817196 66.8227481,119.933331 C64.8207125,119.992583 62.8139271,119.90726 60.8237659,119.701061 C58.8929771,119.499603 56.8956913,119.520933 55.4847668,118.060952 C55.097659,117.660405 55.1026463,116.83798 55.6749958,116.577269 C56.7650721,116.081918 57.5034266,116.029776 58.6982358,116.193313 C59.6883291,116.328171 60.6812723,116.435063 61.6784902,116.503796 C63.8158948,116.653112 65.9677863,116.657852 68.1051908,116.494315 C72.0332655,116.193313 76.0515861,115.086239 79.6184394,113.408445 C85.2113147,110.772893 90.0159627,106.454334 92.6093469,100.787661 C95.6230874,94.2106326 95.4283461,86.5907603 95.2882273,79.5231212 C95.1336217,71.7728933 94.846497,64.0463665 94.1720271,56.3222097 C93.8442918,52.5774512 93.3384394,48.8587639 92.8824597,45.1305962 C92.6423579,43.1491923 92.3267345,41.1770319 91.9393893,39.2195661 C91.7353859,38.1835953 91.4693978,37.1623191 91.2509075,36.1336955 C91.0917897,36.1595296 90.9300594,36.1739872 90.7640543,36.1808605 C89.7711111,36.2142789 88.6860221,35.9725287 87.9495674,35.2686089 C87.6671925,35.4605871 87.3083461,35.5814622 86.8763528,35.6027931 C82.7939101,35.8040146 78.6473452,35.5553911 74.5577778,35.553021 C70.453961,35.5506509 66.3477693,35.553021 62.2413401,35.5648715 C58.1401357,35.576485 54.0268193,35.6146436 49.9277523,35.505619 C46.1112977,35.4037046 42.1663613,35.4866582 38.400017,34.7898487 C37.1341985,39.2788186 37.179084,44.2109973 39.8178287,48.2212069 C40.5633079,49.3517448 39.9577099,50.6837411 38.9866158,51.390031 C37.9936726,52.1107785 36.2089398,53.2159562 34.681883,53.329484 C34.5339271,53.6610611 34.3819338,53.990979 34.2375403,54.319949 C33.5086853,55.9773601 32.8520271,57.6451996 32.3924852,59.4000219 C32.1557082,60.3044521 31.9519423,61.223814 31.780475,62.1488642 C31.7944869,62.310742 31.8089737,62.4723829 31.8263104,62.6337867 C31.8263104,62.6503774 31.8286853,62.6667311 31.8310602,62.6856919 C31.8342267,62.7078918 31.8376571,62.7311188 31.8410876,62.7538015 L31.8595589,62.8707967 C31.94743,63.3353364 32.0326887,63.799876 32.1255471,64.2620456 C32.3464122,65.3878432 32.5171671,66.5231212 32.6385242,67.6629025 C32.8593893,69.7488277 32.8380153,72.4602224 30.8003562,73.6950447 C29.7102799,74.3563026 28.4040882,74.2875697 27.2520271,73.844124 C26.4780492,73.5457284 25.8202036,73.1238505 25.1077354,72.709083 C24.6850042,72.4623555 24.2430365,72.261134 23.8298049,72.0051632 C23.7160475,71.9340602 23.6068024,71.8487366 23.5046819,71.7586727 C22.7328414,71.9222097 21.9797625,72.2279526 21.5572689,72.4365214 C20.424207,72.9982352 19.4293639,73.8111796 18.5836641,74.7449991 C16.7861069,76.7335132 16.2470059,79.5349717 16.4987447,82.1349717 C16.7336217,84.5548441 17.6861917,87.3347347 19.6024936,88.9442698 C20.4360814,89.6455825 21.4765225,90.0558469 22.5760984,90.0439964 C23.1173367,90.0392562 23.616302,89.9254913 24.1387786,89.7880255 C24.6541306,89.6529298 25.2906022,89.6932215 25.765581,89.5036135 C26.470687,89.2215716 27.3401357,90.081918 27.0527735,90.7882078 C26.8364207,91.3191103 26.7131637,91.7883902 26.4421883,92.2031577 C28.408838,95.4075333 30.5628668,98.5123646 32.854402,101.491581 C34.9205598,104.174534 37.3526887,106.43087 39.6513486,108.888664 C40.6656658,109.97417 41.0883969,112.112 39.2526039,112.576303 C37.4215606,113.043449 36.0536217,111.081006 35.0013062,109.888846 C30.6436132,104.942447 27.3496353,99.2634494 25.8080916,92.8525652 C25.1124852,93.345546 24.3142833,93.6133674 23.4735708,93.7295023 C21.7992706,93.959402 20.1062087,93.6299581 18.6385242,92.7838323 C13.0810348,89.5818268 11.7368448,80.9285907 14.3397286,75.5058013 C14.9674131,74.200113 15.8945717,73.0344977 17.0247837,72.1293564 C16.9357252,71.9594202 16.9005768,71.7603318 16.9578117,71.5463118 C17.0582697,71.1715989 17.1687023,70.8013892 17.2845971,70.4326016 C17.1580153,70.3764303 17.0653944,70.2602954 17.0829686,70.0877521 C17.187464,69.0212069 17.2893469,67.9546618 17.3917048,66.8881167 C17.3558439,65.2764485 17.2774724,63.6671504 17.2964716,62.0460018 C17.3252078,59.4625925 17.4819508,56.8815533 17.4914504,54.298144 C17.522324,45.2870228 17.8901951,36.285382 17.9165564,27.2742607 C17.9305683,22.8680073 17.9400679,18.4551176 17.823698,14.0514713 C17.8213232,13.9922188 17.8213232,13.9353364 17.8191858,13.8760839 C17.7239525,10.3517448 16.7884818,5.63524521 20.2415776,3.35497174 C20.8091773,2.98073291 21.5168957,2.97599271 22.1343681,3.21774294 C23.9107888,1.98292069 26.1384394,1.38778851 28.2687193,1.04412397 C32.3274131,0.390213309 36.4217303,0.0747529626 40.5089228,-0.340014585 C42.6413401,-0.55569371 44.8856149,-0.63841021 47.0325191,-0.591008204 C49.2034097,-0.543606199 51.4025615,-0.740324521 53.587464,-0.707143118 Z M20.6689873,78.1650301 C21.4453401,77.4279289 22.6045259,77.5983391 23.5568584,77.7739635 C24.8820492,78.0180839 26.1692417,78.5963883 27.2854419,79.3382297 C28.4871383,80.1369535 29.971447,81.2437903 30.2089364,82.7582844 C30.4250517,84.1495333 29.0381137,85.6829881 27.6108024,84.7515387 C26.2879864,83.8864521 25.6443902,82.3008551 24.5068159,81.2153491 C23.9484784,80.6844467 23.3452553,80.2175369 22.7066463,79.7906819 C22.4169092,79.5965706 22.131922,79.3808915 21.8160611,79.2315752 C21.7851874,79.2171176 20.4837455,78.7954768 20.7354843,79.3524503 C20.8209805,79.5373181 20.5977405,79.7435169 20.4386226,79.5799799 C19.9873927,79.1225506 20.2391315,78.5726873 20.6689873,78.1650301 Z" id="ðŸ–-Ink" fill="#000000"></path>
                    </g>
                    <g id="face/Smile" transform="translate(37.760814, 44.083865)" fill="#000000">
                        <path d="M34.8127554,57.1020091 C33.2162863,56.4520445 31.7918322,55.3678606 30.7504188,53.982886 C30.3883575,53.5014119 30.2944812,52.9929828 30.3704337,52.5279595 C30.455837,52.0050735 30.76581,51.5311704 31.1885437,51.2132909 C31.6125868,50.8944267 32.1430108,50.7371707 32.6558203,50.8173353 C33.1014216,50.8869936 33.5449965,51.1304783 33.8960529,51.6354567 L33.9693973,51.7364404 C34.5885356,52.5723634 35.3953297,53.2582283 36.3146153,53.7003078 C37.2006572,54.1264007 38.1916054,54.3252746 39.2170751,54.2096253 C41.1701484,53.9894475 42.5163047,52.9353366 43.947122,51.5038717 C44.124476,51.3231456 44.3019435,51.136754 44.4802714,50.9473621 C44.592889,50.7756793 44.7491739,50.6653386 44.9226927,50.6074447 C45.1153544,50.5431638 45.3332998,50.5468008 45.5329212,50.6163236 C45.7254569,50.6833787 45.8975743,50.8104452 46.0129836,50.9795623 C46.1226707,51.1402944 46.1848601,51.3388571 46.1646812,51.5672535 C46.033716,53.0507326 45.2565672,54.3746744 44.1526598,55.4142485 C42.9266296,56.5688282 41.301437,57.3675742 39.7713893,57.6477194 C38.0857258,57.9563102 36.3680798,57.7352226 34.8127554,57.1020091 L34.8127554,57.1020091 Z M40.5665861,34.2164632 C42.3599585,35.3043501 45.0925072,37.84109 43.1632513,40.538094 C40.8923326,42.9161315 37.6227224,40.1895491 36.0115152,38.956422 C34.5175283,38.0007416 32.8389503,40.45868 34.2250722,41.574598 C45.8676895,50.1769329 50.5925102,34.5009305 41.4736488,32.937375 C40.4696294,32.7650779 40.0967341,33.8799135 40.5665861,34.2164632 Z M19.7029042,24.2097211 C19.9010483,21.7551799 23.6468906,21.1977976 24.0195115,23.6266764 C24.3531841,25.8024284 23.9603766,27.801134 22.9783579,29.7600219 C22.0400373,31.6314531 19.6816447,30.7583423 19.5032902,29.0542402 C19.2642133,26.7699622 19.5796472,25.7365862 19.7029042,24.2097211 Z M48.21676,23.1230538 C48.7389992,22.4404649 49.493028,21.9745032 50.3964377,22.2378213 C53.2189992,23.0609572 52.3870738,27.0600273 51.395793,29.0065907 C50.8571671,30.0636554 49.1161323,30.3317138 48.3293299,29.4009754 C47.0468872,27.8831632 46.4327396,24.8520419 48.0631043,23.3569827 C48.1072774,23.2797174 48.1564377,23.2017411 48.21676,23.1230538 Z M22.9386022,13.4693984 L23.3844579,13.391518 C24.7637486,13.1534545 26.4787379,12.9247019 27.4544631,14.0313491 C27.9719525,14.618186 28.1500696,15.7089061 27.4544631,16.2706199 C26.2309177,17.2589517 24.8781781,16.8759435 23.4119186,16.959608 C22.2035725,17.0288149 21.0422494,17.2283774 19.8783138,17.5604284 C17.3248278,18.2887603 15.2441832,19.6183865 13.0633181,21.0783683 C12.7771433,21.2698724 12.4850314,20.9046399 12.6215878,20.6375296 C13.8805191,18.1766545 16.3202477,16.155196 18.7640136,14.9229809 C20.0683053,14.265278 21.4956166,13.7196809 22.9386022,13.4693984 Z M45.6437704,12.3670381 L45.985026,12.4367382 C49.6987038,13.2114312 54.5236407,14.7589441 56.2822463,18.3992889 C56.3492573,18.9140465 56.2784539,19.0243694 56.220878,19.0964481 L56.2017082,19.1204334 C56.1542656,19.1819844 56.11641,19.266832 55.8928405,19.3368914 C55.8308,19.3221394 55.7681419,19.3065151 55.7048201,19.2899543 C54.8987061,19.0791278 54.2609139,18.7886846 53.6434635,18.4873151 L52.9739907,18.1581557 C52.1972684,17.7780821 51.4136883,17.4118413 50.5832732,17.1414685 C48.8110962,16.5645992 46.9882598,16.1582307 45.137182,15.9412392 C44.7359752,15.8942481 44.3496381,15.7591142 44.044846,15.5275167 C43.7555371,15.3076842 43.5345237,15.003321 43.433754,14.598756 C43.3031565,14.0751843 43.3406874,13.6787976 43.6221743,13.2064592 C43.8338352,12.8517432 44.1366879,12.6058787 44.4844395,12.4646949 C44.8389572,12.3207642 45.2425721,12.2868326 45.6437704,12.3670381 Z" id="ðŸ–-Ink"></path>
                    </g>
                    <g id="facial-hair/*-None" transform="translate(29.211196, 80.109389)"></g>
                    <g id="accessories/*-None" transform="translate(11.162002, 57.119417)"></g>
                </g>
            </g>
        </g>
    </g>
</svg>