<?xml version="1.0" encoding="UTF-8"?>
<svg width="249px" height="680px" viewBox="0 0 249 680" version="1.1" xmlns="http://www.w3.org/2000/svg" xmlns:xlink="http://www.w3.org/1999/xlink">
    <!-- Generator: Sketch 62 (91390) - https://sketch.com -->
    <title>peep-standing-18</title>
    <desc>Created with Sketch.</desc>
    <g id="Introduction" stroke="none" stroke-width="1" fill="none" fill-rule="evenodd">
        <g id="variations-standing" transform="translate(-2048.000000, -1700.000000)">
            <g id="a-person/standing" transform="translate(2029.000000, 1658.000000)">
                <g id="pose/standing/blazer-4" transform="translate(-28.736217, 150.264357)">
                    <path d="M91.1530144,120.906139 C84.7913859,128.344935 85.3537608,130.413559 88.7432095,137.92417 C96.2314877,155.351043 106.968858,173.06612 119.157527,189.225701 C118.352913,152.971225 117.660869,116.519794 116.470809,79.9346892 C109.223345,94.0706782 101.505177,106.839356 91.1530144,120.906139 M89.952743,568.984024 C85.9484343,568.596749 57.7662799,569.637934 65.3084682,561.422693 C62.9803596,556.369402 69.4844818,552.106066 73.4923528,548.262237 C77.2423104,544.685519 80.937883,540.711098 84.788536,536.11334 C88.3743885,531.850478 92.4166955,526.811407 95.0300288,520.931189 C95.608553,520.009694 96.1961018,519.364315 96.7779508,519.011881 L97.1135233,518.808527 L97.322514,518.476476 C99.528078,514.957114 101.349147,511.320669 103.35332,507.735655 C98.4517761,505.965428 93.9983749,504.187141 88.4465852,501.730058 C96.2804105,455.60767 108.021174,410.671754 115.612522,364.413085 C120.233116,324.159302 122.713693,283.527014 133.287196,243.88282 L134.639936,243.986868 L135.393727,241.389001 C134.283226,241.360323 132.033489,241.285191 130.919664,241.241818 L131.180427,242.57097 C126.139953,241.987451 121.200648,240.551407 116.300529,239.333176 C113.799766,238.991407 111.29259,237.203167 112.192438,234.22324 C112.481937,229.89994 113.37656,225.682109 113.797628,221.359995 C112.202887,220.271407 110.557798,219.029001 108.982056,217.755309 C104.815067,219.719885 99.7786293,226.063222 95.2221578,224.44942 C84.5738456,210.159849 75.6373571,192.98231 67.5503681,179.259429 C48.0180526,147.52355 41.8186293,127.686047 61.9636675,94.5949444 C79.3804275,66.8730665 98.1677388,22.8121914 133.082955,15.8549991 C137.002955,15.1233491 141.110572,15.0925378 144.877866,13.3069043 C145.071182,10.746485 146.350775,9.27560073 147.287433,9.25474385 C149.562582,8.75536372 152.060733,7.95189973 154.282446,7.93151686 C155.065686,7.60444303 156.021818,7.8732124 156.774185,8.02086964 C159.013472,3.52739654 158.813269,-2.20919417 161.267009,-6.42157338 C161.356068,-9.61315041 162.329062,-13.1393856 172.167298,-13.7809717 C178.864261,-14.3398414 188.34935,-14.8783282 193.702599,-11.9526764 C197.448282,-8.93767183 197.486992,-2.18336007 197.017238,2.57580128 C196.501174,6.07098815 196.732014,10.1359471 199.469791,14.2409608 C207.272506,11.8327019 212.713625,16.9232033 217.59807,26.4199581 C238.045194,29.2031668 242.454185,30.7837867 250.387518,51.0334494 C254.170962,59.8149079 258.110198,69.1967129 261.059342,78.8100766 C265.009028,90.5624558 265.356,102.864224 269.195966,114.699557 C279.624601,140.78417 290.22969,157.617807 293.569265,187.985191 C295.199155,201.393085 294.262735,208.041927 292.713354,210.055801 C288.306025,208.781872 282.620292,207.806102 277.991861,207.263349 L282.944702,211.029912 C278.74779,230.055892 290.835763,284.314124 258.061038,280.146066 C257.769876,279.43788 258.304227,275.54262 258.445059,273.926686 C257.549011,273.989493 255.89181,274.048035 255.009537,273.937114 C253.446619,278.44623 251.099986,282.497916 249.618765,287.084534 C248.88611,289.879356 247.960377,292.692428 247.055304,295.410459 C226.415101,364.910095 222.327671,431.817552 231.53846,501.590933 L231.122141,501.741909 L230.953523,502.041727 L230.700597,502.136531 C230.050351,503.004461 229.12913,503.041672 227.659308,503.044042 C218.631148,503.361161 210.698765,503.768582 203.342531,503.973358 C204.123159,507.879284 203.623243,511.990696 203.279121,515.963459 C207.56058,515.66293 211.488655,517.399976 215.402005,519.486376 C222.879596,523.156476 230.326789,527.011444 237.567128,531.225956 C244.75522,535.824899 256.379851,539.757606 250.608621,548.023331 L252.277221,548.678427 C252.333269,548.700469 252.36913,548.719903 252.390266,548.732939 C252.587383,549.4352 250.326958,552.34118 249.657238,552.309657 C233.849944,553.047469 220.368621,549.356986 200.148774,545.490168 C195.51963,543.811426 172.203159,540.955929 172.10555,536.547779 C172.179647,535.173832 173.599834,535.267214 174.59064,535.095145 C171.620122,520.097624 181.661649,518.88674 183.099172,505.277861 C181.111148,505.656603 178.961632,505.980833 176.925398,505.422438 C175.138528,476.380651 178.009299,446.651772 174.835016,417.32581 L171.607773,416.968873 C160.759732,448.879429 149.511522,481.529694 140.872845,514.675783 C140.708265,515.396057 139.901038,514.903787 139.53198,514.640469 C133.885669,514.506558 128.237696,513.903841 122.701106,512.953194 C122.568112,516.213504 122.428231,519.534015 122.290962,522.791006 L123.144261,523.24891 C123.694524,524.014926 123.462972,527.59994 123.363226,529.142875 C123.262768,530.720888 123.179647,531.862091 123.319291,532.932428 C125.099986,536.44231 119.011233,544.04891 115.790877,548.278591 C108.77449,557.357734 102.962412,570.803787 89.952743,568.984024" id="ðŸŽ¨-Background" fill="#FFFFFF"></path>
                    <path d="M159.609191,-6.05766819 C161.520506,-7.35126892 158.798877,3.874 158.794127,4.95405469 L158.746109,5.18918418 C158.269719,7.47560727 157.430859,10.1356548 155.500149,11.602186 C156.390497,18.8788678 157.49886,26.1325597 158.862999,33.3336354 L159.66534,33.4388977 C171.568472,35.0142193 183.549591,37.1803055 195.652244,36.0516664 C202.172753,36.1033345 206.48936,31.647546 209.118131,26.1211832 C208.940014,25.4694057 208.761897,24.8202352 208.57903,24.1684576 C200.298487,19.1042644 194.027817,8.82727256 197.758775,-0.874021878 C197.918131,-1.28878943 198.411871,-1.31723063 198.666222,-1.1015515 C198.707545,-1.09775934 198.745069,-1.06410392 198.742219,-1.01859799 L198.619722,0.874205798 C198.359103,5.00405433 198.243032,9.2844017 200.483016,13.0029152 C209.492889,10.9513564 215.095264,18.4529608 218.862321,25.5525962 L221.568578,25.9524404 C231.921889,27.4883306 241.906867,29.306617 247.019539,39.8985761 L247.719822,41.3861744 C254.863235,56.6066529 261.520651,72.2573082 265.417367,88.6470356 C267.37903,97.3666345 268.089123,106.351685 270.96702,114.855841 C276.94249,130.647108 285.362914,145.487254 289.928648,161.835732 C292.761659,167.734438 300.734416,212.137555 292.868767,212.475294 C290.040268,211.629169 287.159522,210.94421 284.247902,210.458102 C284.696757,210.799634 284.860624,211.380308 284.775128,211.972833 C283.758673,219.090244 283.682677,226.300089 283.687427,233.477227 C284.22439,250.858594 283.742762,288.253325 257.530107,282.251046 C255.616655,281.547601 256.859199,278.483298 256.782253,276.342387 C256.632634,276.349497 256.480641,276.34689 256.328648,276.337409 C254.823915,280.392651 252.713822,284.135276 251.391243,288.256644 C250.270293,291.79781 249.486578,295.606562 247.924136,298.997938 C231.373737,357.775003 224.541642,419.595987 231.012278,480.431484 C231.375637,484.074328 231.784119,487.712669 232.240573,491.343663 C232.183101,493.613982 234.877181,503.119743 232.458589,503.758011 C232.364543,503.941694 232.038232,504.152396 231.843491,504.218047 C230.374857,505.8008 227.933228,505.213964 225.994127,505.424191 C219.142796,505.728512 212.291939,506.01008 205.437045,506.237136 C205.847664,509.141694 205.516129,512.089861 205.273177,514.990153 C210.272092,515.031156 214.866087,518.070098 219.287427,520.133271 C225.854008,523.368221 232.313483,526.826197 238.650412,530.492742 C244.500964,534.581639 257.572142,538.530226 253.075043,547.801584 C256.428156,549.1606 251.768377,554.8441 249.22059,554.908093 C232.635518,554.824428 216.156129,551.067582 199.948427,547.769351 C190.739776,545.33905 180.691125,544.415659 172.171905,540.224374 C169.75355,539.132232 170.260115,534.777646 172.919997,534.372833 C170.944797,519.853125 178.963152,520.053398 181.217876,507.960436 C179.905747,508.17493 178.455874,508.053818 177.140183,507.787181 C174.093194,510.601912 175.212482,488.449059 174.798538,486.285632 C174.716129,463.570354 175.794331,440.806963 173.371226,418.169187 L169.253316,430.277512 C159.653219,458.537342 150.196744,486.869802 142.670735,515.760436 C142.219742,517.504593 140.386324,517.713398 139.215501,516.952596 C134.273347,516.80802 129.350192,516.34348 124.474534,515.55637 C124.379539,517.867218 124.282168,520.178066 124.184797,522.488913 C126.287766,523.620399 124.863779,530.751794 125.13238,533.163845 C127.408953,538.400582 118.182015,548.481566 115.148563,552.802733 C109.738578,560.349457 104.369095,570.909028 93.9076166,571.260897 L93.5890382,571.268421 C85.7810992,571.458503 77.9023885,571.002496 70.1702087,569.888786 L69.3356264,569.752923 C67.1030234,569.38379 64.6035575,568.860626 63.3138897,566.869041 C62.2261883,565.19101 62.3591824,563.024975 63.6796234,561.742751 C61.9359763,555.422879 68.7231858,551.595641 72.514229,547.747309 C79.5961628,540.923079 86.032838,533.417446 91.598877,525.31194 L91.9185858,524.555227 C92.9503532,522.124108 94.1831009,519.425073 96.1040509,518.260892 C97.9353316,515.355623 99.5001493,512.298193 101.15545,509.294565 C96.638402,507.637865 92.1902256,505.787054 87.791922,503.838831 C86.9164833,503.449271 86.6381903,502.312406 86.7909825,501.466679 L86.8020662,501.409479 C95.3889703,456.865814 105.683898,412.640217 113.691328,367.994401 C118.805425,326.848986 120.901981,285.179542 131.653839,244.938558 C126.437859,244.39699 121.246103,242.899798 116.127257,241.62018 C112.023203,240.74751 109.947783,238.665139 110.757147,234.322879 C111.035484,230.463644 111.809225,226.666744 112.227206,222.823152 C111.134517,222.059743 110.068427,221.256516 109.030599,220.431484 C107.106697,221.865632 105.121523,223.216352 103.081489,224.477008 C98.197045,227.991156 94.4266633,228.538412 91.4088855,222.77812 C82.6695131,208.985796 74.2412519,194.992013 66.2870195,180.732541 C58.9091739,167.053271 49.7653571,153.402678 47.8925157,137.652888 C45.1718372,109.309096 78.462626,63.9505907 95.1396064,40.9151121 C104.336383,29.8197247 115.537333,18.4003446 130.103271,15.1739271 C134.583508,14.510536 139.306935,14.4202352 143.578182,12.7967165 C143.925154,10.7224047 144.900285,8.81257794 147.102524,8.30490246 C149.419471,7.7929608 151.903135,7.00229535 154.236706,6.94470191 C154.764407,6.79609663 155.386867,6.70224066 155.944254,6.804866 C157.541371,2.66121969 157.776248,-2.00764084 159.609191,-6.05766819 Z M70.3768244,565.01823 C70.7758066,565.214948 71.1890382,565.385595 71.6117693,565.537045 C72.1318711,565.608148 72.649598,565.67451 73.1673249,565.733763 C72.2292417,565.523061 71.2982833,565.286051 70.3768244,565.01823 Z M122.206511,524.736005 C114.556027,527.510919 112.452821,514.485085 97.4054928,519.756188 C91.5247803,530.664337 83.9115827,540.57183 75.2094962,549.380071 C72.1164343,553.221293 62.9614555,557.583462 67.8950602,563.216716 L68.6506975,563.354884 C77.2184078,564.911839 85.9151043,566.14891 94.645866,565.444611 C101.243321,563.626507 106.190938,558.343316 110.189785,553.016042 C113.082643,547.892833 116.466867,543.071101 119.921625,538.31668 C121.821065,535.952742 122.013669,532.9439 122.004645,530.035313 C122.068529,528.267218 122.135264,526.501493 122.206511,524.736005 Z M208.151549,518.341238 C204.903169,517.151211 201.571193,518.270846 198.616349,519.730828 C193.568987,521.987163 182.636638,524.690974 177.966646,521.093161 C175.676774,524.877263 174.90897,529.08348 175.537367,533.448257 L175.544151,533.718489 C175.597181,535.480952 175.844206,536.900225 177.987783,537.024975 L184.074481,538.554839 C204.608249,543.705176 225.344097,548.684869 246.479963,550.117409 C252.121286,546.598047 252.279454,541.971849 246.283084,538.749934 L244.74911,537.810752 C232.976972,530.614627 220.929814,523.542166 208.151549,518.341238 Z M252.823304,548.271101 C252.766307,548.368275 252.711684,548.465449 252.654687,548.560016 C252.742558,548.602678 252.823304,548.664538 252.899301,548.730664 C252.899301,548.571867 252.875552,548.415677 252.823304,548.271101 Z M102.295399,509.7072 C102.373771,511.307017 101.587681,513.113034 101.034331,514.549077 C100.70897,515.397573 100.37411,516.608932 99.8563834,517.580436 C112.722554,513.788185 116.635948,524.90012 121.274635,522.589382 L121.415433,522.515222 L121.415433,522.512851 C120.468801,520.351557 121.501167,517.308822 122.137639,515.153453 C115.382015,513.932614 108.748936,512.033216 102.295399,509.7072 Z M203.952736,506.287145 L200.243788,506.40134 C194.474197,506.576291 188.703877,506.728834 182.930175,506.720636 C183.534348,510.866653 182.352363,517.705577 179.66707,520.927254 C179.662321,520.929387 179.657571,520.929387 179.655196,520.931758 C187.255094,522.081493 194.452685,518.602897 201.221608,515.677245 C201.50707,512.500126 202.755315,509.257829 203.952736,506.287145 Z M179.135094,518.917172 L178.441625,520.211484 L178.441625,520.211484 C178.541371,520.322879 178.655366,520.424556 178.776485,520.512487 C178.706188,519.974237 178.897842,519.441675 179.135094,518.917172 Z M101.466324,509.410937 C101.33808,509.967674 101.188699,510.524884 101.029581,511.081858 C101.27182,510.534365 101.547308,510.010572 101.88193,509.560253 L101.466324,509.410937 L101.466324,509.410937 Z M182.531193,506.723243 L182.125086,506.727747 L182.125086,506.727747 L182.122711,506.960253 L182.122711,506.960253 C182.217707,507.11905 182.234331,507.313161 182.115586,507.469588 C182.101337,508.185595 182.070463,508.903499 182.015841,509.621639 L182.151244,508.792842 C182.265834,508.102279 182.387003,507.412096 182.531193,506.723243 Z M177.370548,506.486233 L177.391922,506.846252 L177.391922,506.846252 C177.912024,506.827291 178.436875,506.848622 178.954602,506.822788 C179.227715,506.80833 179.507953,506.761165 179.790565,506.711156 C178.975976,506.685322 178.163763,506.621092 177.370548,506.486233 Z M269.799047,209.438959 C269.542558,209.740199 269.262321,209.922459 268.977333,210.01513 C268.979708,216.857373 267.59752,223.586325 263.809802,229.511575 C262.234297,231.599634 261.343949,233.97637 260.582321,236.453599 C256.576587,247.790974 255.83277,259.96926 257.292855,271.841329 C261.229004,266.071557 262.793109,259.186416 263.892685,252.397026 C263.952058,252.055969 264.517282,252.060472 264.57903,252.397026 C265.909208,259.663754 263.62266,266.801074 260.888444,273.517227 C259.180896,274.737355 259.587715,277.93225 259.382762,279.811976 C288.401591,284.037865 278.310429,228.363262 282.027376,211.216534 C282.096248,210.744884 282.497605,210.401457 282.953584,210.256881 C278.601116,209.593015 274.190463,209.544428 269.799047,209.438959 Z M133.142897,243.642113 C133.178521,243.824374 133.209394,244.007108 133.233143,244.189369 L133.389886,243.651593 L133.389886,243.651593 C133.30914,243.648986 133.226019,243.646616 133.142897,243.642113 Z M152.754534,8.14657976 L152.246579,8.27955118 C146.88481,9.66145701 145.149528,9.47176445 144.846137,15.9416026 C143.528071,24.721876 138.662388,32.380618 136.475111,40.8705542 C135.6002,43.8687311 136.525696,49.3943829 140.673686,48.5828605 C142.017639,48.1704631 143.065204,49.9809827 142.04875,50.9411103 C139.044509,53.7804904 136.128139,56.7073273 133.195145,59.6156773 C144.972719,99.3385579 160.272261,138.029734 178.909479,175.046671 C179.648071,176.515896 177.432295,177.807601 176.69869,176.338139 C158.170727,139.202851 142.761327,100.524669 130.801396,60.7913612 L130.440031,59.5869991 C129.911854,58.1239362 136.665578,52.8819854 137.89506,51.17101 C125.562948,45.2331978 142.780217,24.438649 143.248071,14.4249754 C139.718504,15.975495 135.717282,15.4192325 131.988699,16.0435169 C124.835756,17.2972999 118.557249,21.4262516 112.976723,25.8834622 C90.3085971,45.8849754 75.8226938,73.576516 61.3320407,99.6774822 C51.4636438,116.707127 46.7062561,137.525613 56.6093265,155.640527 C68.1000136,178.866562 81.4293435,201.253818 95.5222019,222.986689 C97.0696828,224.998193 99.4512265,222.685686 101.081829,221.841694 C110.454823,216.213417 118.582422,208.556334 124.833143,199.603043 C109.67942,181.023116 96.4792841,160.717756 87.1440509,138.594292 L87.0153055,138.337852 C84.9207586,134.131047 83.2647186,129.041574 86.7586056,125.07998 C99.1657642,109.200071 110.200234,92.3420219 120.584221,75.090062 C120.691328,74.9168077 120.930955,75.0687311 120.852821,75.2488587 C119.786494,77.6613838 118.663169,80.0554221 117.492346,82.4278924 C119.857265,117.505139 119.457808,153.268057 120.479963,188.568093 C123.237215,192.21544 126.075213,195.801402 128.979708,199.330718 C138.401625,192.842569 149.485018,188.610992 160.867647,187.299852 L161.603373,187.226135 C166.438472,186.729051 174.423898,185.792196 175.057876,192.064465 C174.274161,199.780563 158.315349,195.442569 153.213126,199.818722 C161.577028,203.187108 171.161388,204.136334 178.84037,209.214036 C181.30361,210.65008 186.132244,215.225322 181.414992,216.976115 C179.356672,217.151976 177.230667,216.353253 175.173771,216.177391 C177.488818,216.95668 179.617673,218.276826 180.973262,220.346397 C181.949344,221.765851 182.661812,224.712122 180.329666,225.319105 C175.013228,225.469132 169.718402,223.736826 164.481998,222.875294 L164.947205,223.064038 C168.764672,224.625744 174.698536,227.430893 169.556909,231.566926 C164.410039,234.22926 158.178317,229.700235 153.051634,228.491484 C139.242338,225.280709 129.026731,234.079943 114.870463,224.553325 C114.468869,227.737081 113.865408,230.898558 113.624119,234.099852 L113.592951,234.281112 C113.10222,237.203387 113.522464,238.258212 116.67562,238.816589 C120.47735,239.963954 124.459098,240.323736 128.409734,240.537045 C147.42171,241.541256 166.560031,240.828567 185.44305,238.395185 C188.159929,237.666379 194.542694,238.353234 195.678606,235.365723 C193.550226,158.46379 161.482745,86.1020219 152.652651,10.1990866 C152.507783,9.46909572 152.498283,8.72488423 152.754534,8.14657976 Z M206.353754,14.7188678 C204.837384,14.7809644 203.425747,15.1094603 201.917452,15.2616208 C202.752702,17.0372999 207.161455,19.5491322 206.759861,20.4308095 C207.078097,20.6772999 207.401082,20.9143099 207.728818,21.1439727 C207.272838,19.5420219 206.812109,17.9422042 206.350429,16.3395424 C223.103406,57.1353674 225.404916,105.40317 227.630667,149.907017 C228.364034,172.346653 228.762779,194.855969 227.677927,217.281621 C227.074704,223.23792 225.478775,229.257737 225.913381,235.273052 C235.745442,236.688239 245.719997,236.809114 255.592431,235.76153 C255.884305,234.99575 256.214653,234.242295 256.588936,233.50235 C271.367427,215.489351 263.530277,192.915568 256.414144,173.403954 C252.111311,173.585978 247.78283,173.31318 243.475484,173.36627 C244.806612,177.483845 245.149547,181.840563 245.857978,186.098448 C246.34023,189.132547 246.955443,192.142899 247.662525,195.13087 L247.876941,196.027891 C248.13986,197.101309 248.461031,198.251903 248.085391,199.311758 C247.705408,200.390153 246.394229,200.826015 245.525018,199.986999 C243.958063,198.201129 244.126205,195.539506 243.62059,193.324884 L243.527166,192.627963 C242.664635,186.269294 241.52875,179.672663 243.105238,173.363663 C241.557995,173.031375 237.327596,174.251265 237.105781,172.171502 C237.171091,168.736516 234.67864,161.294401 237.452991,159.031903 C239.103542,157.77338 241.941303,158.171557 243.877079,158.093344 C246.114229,158.00328 248.349004,157.920089 250.583779,157.934547 C232.624088,114.541881 237.618588,101.184537 239.441168,57.9993276 L239.495399,56.6814932 C239.49065,56.3970811 239.949004,56.3259781 239.999115,56.6127603 C242.744967,74.3020036 239.084543,92.2114294 240.81869,109.95637 C243.898453,143.671995 265.267274,172.619451 268.839589,206.173198 C276.544221,205.279433 284.339335,206.375604 291.807189,208.308658 C291.963932,206.945851 292.085052,205.578066 292.17031,204.210755 C293.588122,179.165668 284.798402,154.842277 274.54266,132.379652 C268.396434,120.456625 264.597079,107.731083 263.007087,94.42534 C259.919488,77.0949298 252.991209,60.7696791 246.085255,44.670536 C241.719488,32.6330337 232.282134,29.7946016 220.579369,28.3967165 C224.526443,34.9381933 228.449768,41.4938906 232.366205,48.0543282 C233.239691,50.0383391 230.561286,51.454474 229.392601,52.6757867 C243.769259,60.5144193 235.374721,84.7204904 235.672058,98.2838633 C234.60478,110.747036 234.202236,123.281311 232.320845,135.657974 C232.183101,136.515951 230.86741,136.26472 230.855298,135.461019 C231.028665,116.916407 233.240641,98.4464521 234.21126,79.9317028 L234.329229,78.5819262 C235.085931,69.8160864 235.826794,57.1701367 225.284034,54.764082 C223.861472,54.5315752 223.752227,52.4176828 224.894551,51.7824959 C226.414483,50.9363701 227.746799,49.9027694 228.938758,48.6729243 C224.911176,41.9157685 220.89048,35.1538724 216.905645,28.3680383 L216.71868,28.0526432 C213.887867,23.2513275 211.258643,17.6641634 206.353754,14.7188678 Z M172.143406,191.594237 C170.980421,188.169442 159.693262,190.399943 156.680472,190.772286 C145.57048,192.869588 134.389717,197.785176 125.927732,205.355513 C125.405493,205.822423 124.78802,205.815076 124.301167,205.561712 C120.511074,210.402405 116.134382,214.78946 111.334246,218.644428 C112.212719,219.336498 113.115416,220.007236 114.043763,220.649533 C114.488105,220.696935 114.889462,220.927072 115.069954,221.339232 C128.276977,230.906853 137.992668,223.443881 151.712193,225.167418 C156.834602,226.200071 161.551854,229.457537 166.830768,229.594529 C170.704458,228.713799 167.293398,227.094784 165.484204,226.468366 C161.387324,224.513034 157.21081,222.730387 153.025477,220.972666 L149.676672,219.569005 C148.031108,218.879068 148.596332,216.392833 150.4345,216.826562 C153.652482,217.584994 156.879963,218.305504 160.109818,219.014638 C166.320879,220.28122 172.680607,221.90616 178.956977,222.522149 C177.561727,218.644902 162.7583,214.457409 158.45428,212.91637 C156.828665,212.148695 152.192397,212.294693 152.721761,209.775513 C153.149242,207.43101 158.082372,210.115623 159.727461,210.306416 C166.441761,212.00957 173.295467,213.041511 180.137299,214.079615 C172.788427,206.708366 161.397011,206.072232 152.01143,202.62018 L151.75363,202.561568 C150.084486,202.173013 147.798285,201.440558 149.154908,199.544264 C153.976417,192.436808 172.950633,196.032724 172.143406,191.594237 Z M158.257472,152.016383 C161.680407,149.208288 163.514063,154.97569 163.296997,157.657222 C163.458253,159.882746 163.631858,162.10827 163.776964,164.333794 C163.563698,166.073685 165.418728,172.418443 162.938388,172.475088 C152.093673,171.924514 141.267243,172.063639 130.418728,171.410913 C130.404716,173.598516 130.297846,175.783511 130.409466,177.973721 C130.350568,180.712135 131.302188,183.447705 130.746463,186.155307 C130.407091,187.39961 128.713791,187.567887 128.052858,186.506082 C126.071247,181.84528 127.433723,175.833284 128.837048,171.119391 C123.525123,170.137696 122.792231,165.145553 124.191993,160.69095 L124.177455,160.449595 C124.099416,159.075509 124.105534,157.601616 124.718982,156.491132 C126.359796,154.559974 129.76207,155.814469 132.022019,155.668944 C138.949109,154.954833 146.003732,154.757404 152.849839,153.485608 C154.621985,153.027231 156.429517,152.102892 158.257472,152.016383 Z M115.195824,86.9405634 C109.802914,97.2329608 103.598029,107.026215 96.9922612,116.56184 C95.5768244,118.597993 94.1233893,120.607838 92.6466802,122.603225 L92.4646012,122.836704 C89.486133,126.635985 86.328536,129.757036 89.145849,134.7808 C96.4519729,152.522186 106.234399,169.183043 117.568343,184.645577 C116.85065,152.07637 116.216553,119.498868 115.195824,86.9405634 Z M250.783271,158.455969 C237.233313,161.294638 236.979674,155.978503 239.241286,171.024374 C244.675756,171.061584 250.106901,170.939287 255.542558,171.026981 C253.989377,166.824793 252.379199,162.641566 250.783271,158.455969 Z M159.829415,154.206119 C152.752706,156.664861 145.238779,156.314086 137.847634,156.61651 C137.862595,158.205189 130.300696,156.730749 128.84916,156.948799 L128.344527,156.905261 C127.136301,156.805059 125.582652,156.766574 125.569194,158.259227 C125.954165,160.832919 124.505479,163.651205 125.402952,166.180102 C126.614385,169.585936 131.796166,169.235161 134.655539,169.301524 C139.369941,169.408179 144.083868,169.521706 148.79827,169.645189 C153.032706,169.756583 157.281391,169.967285 161.518202,169.998097 C161.138219,166.983566 161.033723,163.892718 160.803596,160.880558 C160.513384,158.714523 160.931841,156.147231 159.829415,154.206119 Z M189.587003,165.158376 C189.594127,165.196297 189.601252,165.234456 189.610751,165.27451 C189.666007,165.260448 189.72253,165.247333 189.780108,165.235167 L189.86724,165.217628 L189.86724,165.215258 C189.774619,165.198667 189.679623,165.179943 189.587003,165.158376 Z M210.110836,29.778485 C207.05031,35.0232799 201.977299,38.3919034 195.866222,38.4412015 C185.140726,39.0586126 174.273924,38.3492416 163.821778,35.8101531 C162.285221,35.4264339 160.449428,35.0922498 159.036366,34.2532343 C167.105781,77.9633345 180.150599,120.543608 189.349513,164.001767 C196.011566,164.588603 202.652957,164.526981 209.329496,164.212943 C214.482304,164.134966 219.686884,164.688385 224.804305,163.923553 L224.644853,158.527899 C223.353434,115.339563 221.555925,71.6298294 210.110836,29.778485 Z" id="ðŸ–-Ink" fill="#000000"></path>
                </g>
                <g id="Head" stroke-width="1" transform="translate(95.945717, 42.661805)">
                    <g id="head/Twists">
                        <path d="M16.1428431,24.2699453 C17.3744631,22.9509845 18.9497303,21.9683409 20.6717659,21.6543026 C19.0976862,22.4390428 17.5589924,23.2569644 16.1428431,24.2699453 Z M13.7304258,35.6426345 C13.512648,34.6374749 13.3663545,33.622598 13.3202816,32.6079581 C13.5955318,33.0255697 14.0351247,33.3045305 14.5288651,33.4486326 C14.2099169,34.1613218 13.938704,34.8955789 13.7304258,35.6426345 Z M96.1440324,51.4022164 C94.7224209,45.4966376 88.0898505,34.137421 86.5222083,31.9510929 C84.8198843,26.5375469 94.1042002,22.1961076 89.0549381,17.9628715 C86.7688651,16.0528077 83.747525,15.3768551 80.9133265,14.6994804 C61.2895776,9.99625342 40.2057439,12.3682498 22.0055064,21.0169827 C19.2370925,20.4355971 16.3527837,21.5718232 14.3395861,23.5674476 C4.88157082,33.054485 17.7710704,50.1718232 20.5895946,60.8671376 C25.4253537,72.7927712 15.4640984,74.7988241 16.5323257,84.889052 C17.3623511,90.1018505 22.6529025,91.4795898 27.1174656,92.2674111 C27.8330212,92.4345032 28.7896285,92.4596263 29.0204682,93.2145032 C29.7438609,97.6207566 32.2237252,101.819863 35.5530891,104.669672 C35.2619271,105.530492 35.4842171,106.575469 36.5108838,107.331531 C45.8128685,114.230182 57.5417849,117.682568 69.1435895,117.061978 C82.9697708,116.322404 90.1198405,108.413719 91.845201,106.377329 C101.384913,93.5202461 100.245016,76.5564904 98.2990275,61.2340292 C96.9434134,50.5600979 98.6624015,61.8638836 96.1440324,51.4022164 Z" id="ðŸŽ¨-Background" fill="#FFFFFF"></path>
                        <path d="M53.5115148,2.26143118 C53.9461204,0.90573382 55.1763155,0.0904193254 56.5846277,0.258696445 C57.831447,0.405642662 59.1661374,1.6404649 59.0141442,3.00327256 C58.9856455,3.26635369 58.9476472,3.51284412 58.9025242,3.74511395 L58.9084614,3.74718778 L58.9084614,3.74718778 L58.9143986,3.74748405 L58.883525,3.83754786 C58.7909042,4.27127621 58.6626599,4.65997265 58.4726684,5.0273382 C58.2304292,5.73125798 57.9976896,6.43754786 57.7673249,7.14620784 C58.09981,7.13198724 58.4394198,7.15094804 58.7837795,7.21494075 C59.1400136,6.30482224 59.4986226,5.39707384 59.8548567,4.48458523 C60.2372146,3.51047402 60.5055776,2.25906108 61.2607939,1.50536919 C62.2273757,0.543108478 63.9040509,0.344020055 65.0819983,1.03134913 C66.3264427,1.75659982 66.7705479,3.04593437 66.49981,4.42770283 C66.3622299,5.13252161 65.8903461,5.62302246 65.3064679,5.93120449 L65.2434911,5.9635278 L64.7946361,7.02533273 C64.93238,6.96608022 65.0748736,6.91156791 65.2292417,6.86653601 C65.4714809,6.795433 65.7089703,6.75040109 65.9417099,6.73144029 C66.5829313,5.57246126 67.2882748,4.44666363 68.0173673,3.3421969 C68.8557048,2.07182315 70.4943817,1.53144029 71.8694453,2.33490428 C73.0996404,3.05304467 73.7598609,4.93964448 72.8787752,6.17920693 C72.2090551,7.12013674 71.5749584,8.08002735 70.9503613,9.04939836 C71.0572316,9.06835916 71.1641018,9.09206016 71.2662222,9.12287147 C71.3137201,9.05887876 71.3635929,8.99488605 71.4158405,8.93089335 C72.0974351,8.08713765 72.8906497,7.45432088 73.7052383,6.75277119 C74.4675793,6.09388332 74.8190636,5.0581495 75.8212689,4.55805834 C77.0823376,3.92998177 78.6022697,4.2309845 79.3527362,5.48239745 C80.9629143,8.16298086 78.260285,10.1206837 76.5313622,11.7442024 C78.0346701,10.8080128 79.5997252,9.95240656 81.2051535,9.21293528 C82.1076132,8.79816773 83.0243223,8.39762078 83.9552807,8.05158614 C85.3350941,7.53964448 86.4512943,7.70341841 87.5841187,8.65596171 C88.0899712,9.08257976 88.3417099,10.0142662 88.1089703,10.6349954 C87.6577405,11.8247858 86.9452723,12.5476664 85.696078,12.8913309 C84.8173673,13.1330811 83.9172824,13.296618 83.0385717,13.5502188 C81.5661374,13.9720966 80.1364512,14.4864084 78.7495131,15.1287056 C78.8492587,15.1903282 78.9442545,15.256691 79.0321255,15.3325342 C80.0675793,14.99835 81.1220322,14.7091978 82.1812349,14.4627074 C83.9379143,14.0516431 85.7259034,13.773897 87.5217198,13.6001755 L88.1183167,13.5447497 C90.2712689,13.3385604 92.8602002,12.9580323 94.1815742,15.0149407 C94.6161798,15.6927894 94.6636777,16.8114768 94.1815742,17.4822151 C93.2601154,18.7715497 92.3434063,19.0275205 90.8187243,19.0512215 C92.3196573,19.2100182 93.8182154,19.4067366 95.3096489,19.6366363 C96.3376387,19.7930629 97.3656285,19.9703851 98.3891316,20.1671103 L98.9004885,20.267083 C100.147308,20.5159435 101.538996,20.6605196 102.610073,21.3810301 C104.946969,22.9547767 103.849768,26.0193163 101.261133,26.3463902 C100.009564,26.5028168 98.6202511,25.9742844 97.3924309,25.727794 C96.2002341,25.4884139 95.0032875,25.2774749 93.8015912,25.0926071 C93.179369,24.995433 92.5571467,24.9101094 91.9325496,24.8318961 C93.2031179,25.0143938 94.4641866,25.2727347 95.6920068,25.6377302 L96.033062,25.7404384 C98.4067238,26.4623943 101.61074,27.6122442 102.351209,30.1432908 C102.800064,31.6814859 101.572244,33.0229626 100.085561,33.1130264 C98.7033723,33.1959799 97.5515488,32.3735552 96.3783511,31.7668095 C95.5233893,31.3259708 94.6541781,30.9965269 93.7327193,30.714485 C92.7803868,30.4229626 91.8090551,30.1812124 90.8305988,29.9844941 C91.6574937,30.4391224 92.4627987,30.9388022 93.2358079,31.4977791 L93.5911346,31.759756 C95.6457524,33.2875786 98.7788465,35.6529681 98.0550263,38.5168551 C97.8270365,39.4198633 96.8177065,40.2825798 95.8487498,40.1901459 C93.3266124,39.9555059 91.9349245,37.2749225 90.0326344,35.8386418 C89.5362816,35.4641659 88.9924309,35.0944303 88.4224563,34.734175 C91.3055776,38.1660802 93.5997252,42.1336281 95.3452723,46.2315314 C99.18155,55.246885 100.358439,63.595831 100.386664,73.2893679 L100.387172,73.5895989 C100.391922,78.9365451 100.270802,84.3806655 99.7483257,89.7039107 C99.2638473,94.6218687 98.375637,99.4758341 96.1408617,103.92949 C92.3956539,111.397438 85.0976047,117.213665 77.0490891,119.427338 C68.0933639,121.892242 58.0831858,119.965351 50.7471383,114.27711 C48.8757218,112.826609 51.357486,109.676983 53.2692757,111.015852 C60.9045598,116.360428 70.779369,118.05268 79.5427277,114.435907 C86.4940424,111.568086 92.0916675,105.398715 94.4641866,98.2955242 C95.9743094,93.7766188 96.4139622,88.9583148 96.9526283,84.2488829 L96.9886989,83.9350866 C97.5586735,79.0100182 97.8887837,74.0517685 97.8840339,69.0935187 C97.8769092,59.8856791 96.5517184,52.3060985 92.4930246,43.9538651 C90.5836098,40.0194986 88.1065954,36.3816317 85.1474775,33.1888696 C84.2497676,33.3713674 83.2950602,33.1153965 82.3878507,33.0182224 C81.9247464,32.9684503 81.4616421,32.9210483 80.9985377,32.8783865 C81.4716166,33.1836554 81.9355759,33.5010593 82.3916316,33.8258654 L82.9897894,34.2563348 C84.8615895,35.594134 87.2363815,37.1179165 86.7552807,39.7042753 C86.6246616,40.4034549 85.9264427,41.0457521 85.249598,41.2045488 C82.7963325,41.7875934 81.1101578,39.4080128 79.4524818,37.995433 C78.0109211,36.7677211 76.5028634,35.6679945 74.966307,34.5658979 C74.6171976,34.3170374 74.2657133,34.0681768 73.9118541,33.8216864 C74.2443393,34.2084868 74.5677048,34.6013546 74.8831668,34.9978629 L75.3495615,35.5878 C76.7608383,37.3500504 78.7952678,39.6406356 77.5383172,41.9250593 C77.1820831,42.5697265 76.422117,42.9987147 75.6858999,42.9844941 C73.1542629,42.9323519 72.1473079,40.0645305 70.9598609,38.2537739 C69.9386565,36.7013582 68.829581,35.2390064 67.6825072,33.7766545 C67.3666463,33.3761076 67.0484105,32.9755606 66.7254249,32.5750137 C61.4080373,32.8499453 56.1096489,33.551495 50.9038813,34.6725524 C47.3272909,35.442835 43.8100729,36.4408842 40.3189788,37.5332634 L40.0288479,37.6253729 C38.1394944,38.2324585 36.1928032,39.0094313 34.8305988,40.3418323 C34.6361425,41.2598195 34.785415,42.2279581 34.9714324,43.1447417 L35.1164126,43.8464675 C35.7137506,46.780814 36.12076,49.6608295 35.8161798,52.673464 C35.5003189,55.7806655 34.5622358,58.5750137 33.4175369,61.4617958 C32.8760611,62.8222334 32.3155861,62.5757429 32.1232197,64.0357247 C31.9758575,65.1477758 32.067,66.2957871 32.1676655,67.4171708 L32.2517906,68.3678231 C32.4629172,70.858084 32.5689325,73.5731249 30.9333978,75.6278851 C30.6792841,75.9431085 30.1354334,75.8174932 29.9549415,75.5022698 C29.8836947,75.3766545 29.807698,75.2557794 29.7245768,75.1396445 C28.936112,73.9996263 27.7272909,73.3502188 26.3451026,73.0989881 C26.1693605,73.0681768 26.2382324,72.8335369 26.3854758,72.8145761 C27.5539237,72.6771103 28.6606243,72.9686326 29.6010823,73.5706381 C29.1550993,72.0315887 25.7024157,72.7800578 24.5673972,73.0791429 L24.5283087,73.0895077 C23.1128719,73.4687238 21.7734317,74.0849499 20.5931094,74.9571468 C18.2182154,76.711021 16.8455267,79.4461167 16.9143986,82.3921513 C16.9832706,85.2884139 18.4818287,87.9642571 21.0562137,89.3507657 C22.2982833,90.019134 23.7113452,90.3414676 25.1172824,90.327247 C26.5849669,90.3130264 27.8911586,89.6707293 29.361218,89.7607931 C30.21143,89.8129353 30.862151,90.7230538 30.3705479,91.5170374 C30.0428126,92.0479398 29.6153316,92.4650775 29.1213537,92.785041 C30.3254249,95.5556882 31.8619813,98.19835 33.6336522,100.637183 C34.6144835,101.99051 35.7259338,103.239553 36.9490042,104.379572 C37.9037116,105.270729 39.9722443,106.301723 39.8558745,107.787776 C39.8155013,108.323418 39.5376387,108.650492 39.0484105,108.849581 C37.5274018,109.470136 35.6779044,107.333365 34.6605781,106.303236 L34.5788601,106.221139 C33.3106667,104.960246 32.1540933,103.566627 31.1471383,102.087685 C29.361218,99.4616135 28.2521425,96.5013582 27.793788,93.3917867 C25.3547718,94.1241477 22.124916,93.4368186 20.1347549,92.5385506 C13.8792841,89.7181313 11.8345004,81.3113856 15.6367057,75.7132088 C16.3729228,74.6300729 17.2943817,73.7033637 18.3440848,72.954412 C18.1137201,72.8287967 17.8976047,72.6676299 17.7052383,72.4638013 C16.6411032,71.3357247 15.8887606,69.8636155 15.1420763,68.5068018 L15.0524818,68.344567 C14.3896225,67.1500365 13.7642924,65.9367792 13.1781594,64.7047952 L12.9602002,64.2419234 C11.6516336,61.4333546 10.5045598,60.2056427 9.57122646,57.2524977 C8.67351654,54.4036372 7.96579813,51.5002644 7.5074436,48.5471194 L7.38564074,47.76544 C7.12055753,46.0518568 6.86986373,44.2194743 7.06333842,42.4796627 C5.7310229,42.9133911 4.3915827,43.1812124 3.07351654,42.5294348 C2.20430534,42.1004467 1.72457676,40.8490337 2.02143851,39.9507657 C2.23755386,39.2895077 2.59853774,38.7704558 3.05689228,38.3627985 C2.78377947,38.2253327 2.52729092,38.0499453 2.301676,37.8555971 L2.1045598,37.6851869 L2.1045598,37.6851869 C1.30659542,36.9928806 1.24959796,35.6774749 1.73407634,34.8100182 C1.78157422,34.7270647 1.82907209,34.6417411 1.87419508,34.5587876 C2.33492451,33.7363628 3.287257,33.19835 4.22771501,33.2125706 C4.37970823,33.2149407 4.53170144,33.2149407 4.68606955,33.2125706 C4.24671416,33.1153965 3.81685835,32.9660802 3.40837659,32.7148496 C1.56545886,31.5843118 1.79819847,28.5197721 4.02822392,27.9793892 C4.96393215,27.7542297 5.99701103,27.8466636 7.02771501,28.0884139 C6.98971671,28.067083 6.95171841,28.0457521 6.9137201,28.022051 C6.13475488,27.5456609 5.48165903,26.6142115 5.55528075,25.6590611 C5.63602714,24.6019964 5.97801187,23.8483045 6.9137201,23.293701 C7.72593384,22.8149407 8.87538253,22.7699088 9.68284648,23.293701 C10.3834402,23.7511304 11.0697846,24.2559617 11.7300051,24.7987147 C11.0674097,23.9857703 10.4926853,23.1017229 10.2599457,22.1631632 C9.97258355,20.9947037 10.4523121,19.7219599 11.5067651,19.1057338 C12.3474775,18.6151231 13.2356879,18.6696354 14.0289025,19.0488514 C13.9861544,18.4349954 14.1357727,17.809289 14.5442545,17.2546855 C15.3802171,16.1172744 16.9001493,15.4628897 18.2229652,16.2924248 C18.3963325,16.4014494 18.6290721,16.5886873 18.854687,16.8185871 C18.4153316,15.422598 18.8119389,13.957876 20.310497,13.3274294 C21.2248312,12.941103 22.462151,13.1354512 23.2553656,13.8014494 C22.751888,11.0829444 26.7725835,9.08494986 28.3352638,11.8935187 C28.6899146,12.5297589 29.0408125,13.1997073 29.3545982,13.8850532 L29.4704631,14.1427438 L29.4823376,14.1380036 L29.4024818,13.9495807 L29.4024818,13.9495807 L29.3208448,13.7611577 C28.8862392,12.7538651 28.3328889,11.7062808 28.1808957,10.6136645 C27.9576556,8.99725615 28.6796234,7.46380128 30.4417947,7.22679125 C31.3513791,7.10354603 32.363084,7.51594348 32.9734317,8.23669098 C32.6433215,5.72888788 35.4504461,3.90628077 37.4714809,5.77865998 C38.4285632,6.66507748 38.9391654,7.96152233 39.5471383,9.09917046 C39.8914979,9.74146764 40.2429822,10.3813947 40.5873418,11.026062 C40.6752129,10.9217776 40.7702087,10.8174932 40.8699542,10.7155789 C40.359352,9.18923428 39.9627447,7.62496809 39.6278846,6.05122151 C39.3096489,4.56753874 40.0529907,3.02697356 41.5871722,2.60770283 C42.9812349,2.22350957 44.726782,3.08172288 45.0378931,4.56303555 C45.2563834,5.60564266 45.5152468,6.63687329 45.8002341,7.6628897 C45.9949754,7.61548769 46.1873418,7.58230629 46.3773333,7.55860529 C46.393166,7.36583713 46.4111096,7.1720156 46.4311643,6.97924744 L46.5059138,6.29364808 C46.6719912,4.72714546 46.8395002,2.93890563 47.6597761,1.6072835 C49.0585886,-0.668012762 52.6446785,0.275287147 52.6826768,2.96535096 C52.7040509,4.35659982 52.1364512,5.73599818 51.939335,7.11302644 C51.8538388,7.7126618 51.8039661,8.31940747 51.7754673,8.92615314 C52.1578253,6.91156791 52.6826768,4.92305378 53.2906497,2.96535096 C53.3618965,2.73071103 53.4378931,2.4960711 53.5115148,2.26143118 Z M22.5713723,79.948649 C25.7181069,79.4627785 28.5941035,81.2142826 30.4583953,83.6673364 C30.7980051,84.1152853 30.5747651,84.7481021 30.2684037,85.124948 C30.0475386,85.4022498 29.7506768,85.4354312 29.4158168,85.478093 C29.031084,85.5278651 28.5442307,85.217382 28.3756132,84.8831978 C27.1762918,82.4941367 25.0365123,80.9843829 22.5713723,80.0553036 C22.5262494,80.0387129 22.512,79.9581294 22.5713723,79.948649 Z M26.9335352,37.1435803 L27.0288346,37.0414676 C27.6655437,36.3823428 26.6593011,35.3755242 26.0211671,36.0360711 C25.3493096,36.7314585 24.9028295,37.5761623 24.4734487,38.4322425 C24.0642545,39.248505 25.2930246,39.9694895 25.7038813,39.1501459 L25.890969,38.7777417 C26.1845975,38.1986852 26.4977408,37.6266064 26.9335352,37.1435803 L26.9335352,37.1435803 Z M18.0963834,35.7907657 C18.9988431,35.6390793 18.6162477,34.2684503 17.7175878,34.4196627 C16.5534148,34.615433 15.393754,34.8379854 14.2293435,35.0339927 C13.3271213,35.1856791 13.7097167,36.5563081 14.6083766,36.4053327 C15.7725496,36.2093254 16.9322103,35.986773 18.0963834,35.7907657 Z M71.8563834,26.4333728 C70.9845598,26.1430356 70.610514,27.5160346 71.4775878,27.8047129 C72.6757218,28.2036007 73.8641187,28.612443 75.000743,29.1663355 C75.8217439,29.5664084 76.5448991,28.3403555 75.7198609,27.9383865 C74.4723291,27.3304558 73.1715997,26.8713674 71.8563834,26.4333728 Z M17.8911925,24.5903829 C17.039793,24.2505105 16.6700221,25.6254057 17.5123969,25.9617229 L20.5902595,27.1901459 L20.5902595,27.1901459 C21.441659,27.5300182 21.81143,26.1553601 20.9690551,25.8190428 L17.8911925,24.5903829 L17.8911925,24.5903829 Z M82.6037197,21.251497 L82.4913961,21.1807566 C81.7195556,20.6816135 81.004475,21.9121696 81.7720407,22.4087056 C82.2226689,22.7000383 82.7705306,22.8976372 83.1831481,23.2446872 L83.2694114,23.3214312 C83.9358066,23.9495077 84.945374,22.9460073 84.2770789,22.3157976 C83.7881476,21.8551835 83.1691769,21.5987127 82.6037197,21.251497 L82.6037197,21.251497 Z" id="ðŸ–-Ink" fill="#000000"></path>
                    </g>
                    <g id="face/Smile" transform="translate(37.760814, 44.083865)" fill="#000000">
                        <path d="M34.8127554,57.1020091 C33.2162863,56.4520445 31.7918322,55.3678606 30.7504188,53.982886 C30.3883575,53.5014119 30.2944812,52.9929828 30.3704337,52.5279595 C30.455837,52.0050735 30.76581,51.5311704 31.1885437,51.2132909 C31.6125868,50.8944267 32.1430108,50.7371707 32.6558203,50.8173353 C33.1014216,50.8869936 33.5449965,51.1304783 33.8960529,51.6354567 L33.9693973,51.7364404 C34.5885356,52.5723634 35.3953297,53.2582283 36.3146153,53.7003078 C37.2006572,54.1264007 38.1916054,54.3252746 39.2170751,54.2096253 C41.1701484,53.9894475 42.5163047,52.9353366 43.947122,51.5038717 C44.124476,51.3231456 44.3019435,51.136754 44.4802714,50.9473621 C44.592889,50.7756793 44.7491739,50.6653386 44.9226927,50.6074447 C45.1153544,50.5431638 45.3332998,50.5468008 45.5329212,50.6163236 C45.7254569,50.6833787 45.8975743,50.8104452 46.0129836,50.9795623 C46.1226707,51.1402944 46.1848601,51.3388571 46.1646812,51.5672535 C46.033716,53.0507326 45.2565672,54.3746744 44.1526598,55.4142485 C42.9266296,56.5688282 41.301437,57.3675742 39.7713893,57.6477194 C38.0857258,57.9563102 36.3680798,57.7352226 34.8127554,57.1020091 L34.8127554,57.1020091 Z M40.5665861,34.2164632 C42.3599585,35.3043501 45.0925072,37.84109 43.1632513,40.538094 C40.8923326,42.9161315 37.6227224,40.1895491 36.0115152,38.956422 C34.5175283,38.0007416 32.8389503,40.45868 34.2250722,41.574598 C45.8676895,50.1769329 50.5925102,34.5009305 41.4736488,32.937375 C40.4696294,32.7650779 40.0967341,33.8799135 40.5665861,34.2164632 Z M19.7029042,24.2097211 C19.9010483,21.7551799 23.6468906,21.1977976 24.0195115,23.6266764 C24.3531841,25.8024284 23.9603766,27.801134 22.9783579,29.7600219 C22.0400373,31.6314531 19.6816447,30.7583423 19.5032902,29.0542402 C19.2642133,26.7699622 19.5796472,25.7365862 19.7029042,24.2097211 Z M48.21676,23.1230538 C48.7389992,22.4404649 49.493028,21.9745032 50.3964377,22.2378213 C53.2189992,23.0609572 52.3870738,27.0600273 51.395793,29.0065907 C50.8571671,30.0636554 49.1161323,30.3317138 48.3293299,29.4009754 C47.0468872,27.8831632 46.4327396,24.8520419 48.0631043,23.3569827 C48.1072774,23.2797174 48.1564377,23.2017411 48.21676,23.1230538 Z M22.9386022,13.4693984 L23.3844579,13.391518 C24.7637486,13.1534545 26.4787379,12.9247019 27.4544631,14.0313491 C27.9719525,14.618186 28.1500696,15.7089061 27.4544631,16.2706199 C26.2309177,17.2589517 24.8781781,16.8759435 23.4119186,16.959608 C22.2035725,17.0288149 21.0422494,17.2283774 19.8783138,17.5604284 C17.3248278,18.2887603 15.2441832,19.6183865 13.0633181,21.0783683 C12.7771433,21.2698724 12.4850314,20.9046399 12.6215878,20.6375296 C13.8805191,18.1766545 16.3202477,16.155196 18.7640136,14.9229809 C20.0683053,14.265278 21.4956166,13.7196809 22.9386022,13.4693984 Z M45.6437704,12.3670381 L45.985026,12.4367382 C49.6987038,13.2114312 54.5236407,14.7589441 56.2822463,18.3992889 C56.3492573,18.9140465 56.2784539,19.0243694 56.220878,19.0964481 L56.2017082,19.1204334 C56.1542656,19.1819844 56.11641,19.266832 55.8928405,19.3368914 C55.8308,19.3221394 55.7681419,19.3065151 55.7048201,19.2899543 C54.8987061,19.0791278 54.2609139,18.7886846 53.6434635,18.4873151 L52.9739907,18.1581557 C52.1972684,17.7780821 51.4136883,17.4118413 50.5832732,17.1414685 C48.8110962,16.5645992 46.9882598,16.1582307 45.137182,15.9412392 C44.7359752,15.8942481 44.3496381,15.7591142 44.044846,15.5275167 C43.7555371,15.3076842 43.5345237,15.003321 43.433754,14.598756 C43.3031565,14.0751843 43.3406874,13.6787976 43.6221743,13.2064592 C43.8338352,12.8517432 44.1366879,12.6058787 44.4844395,12.4646949 C44.8389572,12.3207642 45.2425721,12.2868326 45.6437704,12.3670381 Z" id="ðŸ–-Ink"></path>
                    </g>
                    <g id="facial-hair/*-None" transform="translate(29.211196, 80.109389)"></g>
                    <g id="accessories/Glasses-5" transform="translate(11.162002, 57.119417)" fill="#000000">
                        <path d="M87.1798643,17.6412015 C86.5082443,19.4652306 85.4860899,21.364155 84.2361832,22.8992689 C79.179084,27.1730337 74.2651908,24.8067256 71.7701272,19.0144376 C70.8220696,14.9210374 73.3392197,10.5117028 76.0064631,7.50049043 C79.8585411,3.64741841 86.145123,5.66958797 87.9163189,10.2500438 C88.0239016,10.8435169 88.0889737,11.4355679 88.1200848,12.0257229 C88.083274,13.943371 87.8517218,15.5822954 87.1798643,17.4041914 M38.5705344,13.9625688 C45.2325869,6.05425524 57.6960305,5.63142935 57.3780322,17.8030793 C55.9469211,33.2096791 31.8486344,29.4281841 38.5705344,13.9625688 Z M89.2752332,7.36539471 C89.0417812,6.97077302 88.7826802,6.58894986 88.4998304,6.22371741 C88.395335,6.16162078 88.3352502,5.61080948 87.9509924,5.57004376 C82.8148092,-0.0847784868 73.7918745,3.12362625 70.53162,8.75830264 C69.9362341,9.47075479 69.4505683,10.3047931 69.0924343,11.1859964 C65.8801527,10.5979745 62.1351824,10.7122133 59.1475657,11.9230975 C56.185123,4.20320693 47.2163359,3.51398177 41.3059372,6.81245032 C37.6298388,8.61680766 35.2461578,12.3954585 31.6709924,14.4711923 C23.2664801,15.0748569 14.2463953,13.1956044 5.99363868,15.2995424 C-0.514995759,16.6500255 4.92588634,19.9390137 6.01738762,17.7440638 C13.7982528,15.4498067 23.0164037,17.3885488 31.0950806,16.8716299 C31.9350806,18.2896609 33.5459712,19.450062 35.1513995,19.4005269 C36.8853096,34.7400529 59.3005089,32.1964613 60.0737744,18.5605634 C60.9508227,17.1766618 62.0416115,15.8522498 63.6028668,14.9900073 C64.2006277,14.8665251 64.7779644,14.7060693 65.3056658,14.4576828 C66.2076506,14.3306454 67.5974385,14.7122315 68.4272265,15.4616572 C71.2697371,32.4827694 87.6458185,30.5004175 90.5724003,15.5891686 C90.6305852,15.5299161 90.7932655,15.3076007 90.9181849,14.9509006 C91.9199152,13.6290957 94.3722307,13.1377739 93.9803732,10.9063245 C93.6315013,8.67440109 90.8072774,8.70094622 89.2752332,7.36539471 Z" id="ðŸ–-Ink"></path>
                    </g>
                </g>
            </g>
        </g>
    </g>
</svg>