<?xml version="1.0" encoding="UTF-8"?>
<svg width="255px" height="688px" viewBox="0 0 255 688" version="1.1" xmlns="http://www.w3.org/2000/svg" xmlns:xlink="http://www.w3.org/1999/xlink">
    <!-- Generator: Sketch 62 (91390) - https://sketch.com -->
    <title>peep-standing-10</title>
    <desc>Created with Sketch.</desc>
    <g id="Introduction" stroke="none" stroke-width="1" fill="none" fill-rule="evenodd">
        <g id="variations-standing" transform="translate(-1320.000000, -99.000000)">
            <g id="a-person/standing" transform="translate(1325.000000, 50.000000)">
                <g id="pose/standing/crossed_arms-1" transform="translate(-28.736217, 150.264357)">
                    <path d="M273.952176,568.27276 C275.385899,562.489297 273.276485,557.876171 267.220031,554.469932 C266.698862,553.093846 254.993378,548.631677 245.692134,542.08168 C237.335984,536.197224 231.274821,528.118874 231.020709,527.671027 C229.768097,524.762937 229.070397,522.65258 228.92761,521.339956 C227.900396,511.896912 228.49455,505.706784 227.8602,502.769573 C232.134059,502.209633 242.641065,225.196352 240.941829,216.015315 C243.724967,215.404792 246.676485,214.761014 249.329717,213.194776 C249.54132,213.140445 249.193398,212.526643 249.203372,212.411189 C255.859725,199.369123 245.648631,155.021275 239.248767,142.743125 C244.33104,142.611044 251.025154,141.921131 254.171651,137.685639 C255.661184,137.196658 256.600217,136.34422 257.323135,134.974699 C258.155535,133.670048 258.928088,132.301229 259.623695,130.898219 C263.009818,123.87755 265.098775,116.081958 263.969513,108.346787 C264.184916,108.278639 265.293279,108.271613 265.348377,107.962019 C265.457147,106.060427 265.107325,104.384824 264.534975,102.58885 C258.720047,82.358906 251.720285,62.4418348 242.467698,43.3964048 C237.831193,33.2027462 228.238521,29.482932 218.299115,25.6560946 C213.517503,23.7809654 208.733754,21.6168504 203.743389,20.3887778 C203.680455,20.0403087 203.978504,18.9801476 203.324458,19.0665623 C202.516757,19.234708 202.676112,20.5309288 202.376638,21.2583113 C190.837265,11.8304417 198.155026,6.97224818 191.197062,1.80891 C183.997333,-1.92097422 175.216875,-2.07249271 167.278792,-1.26525275 C164.35031,-1.18071152 162.007003,0.13682026 161.316383,3.07890197 C158.798996,9.16633905 152.900472,13.6467902 146.465459,15.0202924 C145.93372,14.0755852 144.471735,11.3662846 143.652872,12.2215327 C134.359199,12.5381525 120.268241,15.9432204 111.569479,18.4906983 C102.836994,20.7166385 94.0028634,24.7802381 91.7182154,34.2502612 C87.572838,51.1252532 94.1679186,120.476697 104.985561,133.832573 L105.337282,133.838427 C107.255009,135.797161 109.861693,137.232957 112.815586,138.195228 C112.749327,144.439102 110.777452,150.535204 109.796146,156.64161 C107.586782,167.716043 105.888733,178.802419 103.42763,189.935867 C103.416706,191.176352 98.7341272,208.150639 103.350684,204.746976 C104.303491,205.21488 105.470751,205.724235 106.496943,206.161227 C101.592312,217.317391 99.3480373,235.317413 99.6957218,249.099273 C99.7826429,257.30633 99.4425581,264.496082 97.5979779,272.900792 C83.9511247,344.112846 71.9189618,503.392274 71.636112,505.521495 C71.3760611,507.556573 73.1029254,518.603632 71.636112,521.518034 C70.3343445,524.104507 64.7819238,522.577163 63.7197581,523.575115 C60.9613188,528.058845 62.2242312,530.915714 59.9616697,535.392184 C58.8012965,536.428458 56.2069557,538.695147 55.3557937,540.28855 C53.6328081,541.944481 25.0972146,560.633452 26.253788,563.469213 C26.253788,563.469213 26.1236438,564.829862 26.0799457,565.125406 C23.6471043,579.253159 27.6981985,579.135831 40.8052383,581.214234 C59.9521086,584.585111 74.2617947,578.099631 90.4433723,569.43474 C95.8206073,565.815392 103.463491,558.905419 100.97579,550.721313 C100.907155,550.221091 99.4315527,541.612873 98.8463788,537.241787 C99.9036334,534.908184 98.3863686,533.88689 94.2945846,534.177906 C95.3039146,533.072313 97.5212689,518.747397 96.7648651,516.852362 C96.2844241,511.971218 97.0303783,507.540649 96.7943138,502.516886 C99.365374,502.707279 144.504271,289.123809 172.817282,275.851304 C172.992312,277.270004 172.652702,279.910688 174.539318,280.175319 C183.29674,348.364263 204.35255,501.122775 205.319369,501.390216 C203.868309,509.177142 203.912244,527.228773 203.88517,534.959027 C203.663118,535.165579 202.643813,536.073753 202.479708,536.295059 C202.44551,536.237449 201.781727,536.89926 201.747766,536.916355 L201.657995,536.711208 C198.675603,543.423454 194.328831,550.336301 198.170697,556.914358 C195.319399,556.707103 195.777045,562.183384 195.649513,564.703228 C197.273574,569.63464 243.44188,582.940204 253.758894,583.572039 C257.14858,584.162422 272.935269,579.150957 275.973233,578.430834 C279.90962,577.696192 276.04802,570.394019 273.952176,568.27276 Z" id="ðŸŽ¨-Background" fill="#FFFFFF"></path>
                    <path d="M163.237411,1.42081449 C164.731688,1.37528483 165.017028,3.25190121 163.995569,4.02999475 L163.953442,4.06092981 C163.082568,4.67739289 162.674087,5.22867821 162.201483,6.21226983 C159.897123,12.2989243 153.398938,15.789845 147.043484,14.4971923 C149.250948,18.6069462 150.733357,22.5844485 152.943196,26.6247584 C163.118192,47.5435005 196.5339,54.3487694 200.530372,25.6468551 C194.40742,24.4660711 190.778819,10.7242297 194.707606,6.62443026 L194.81381,7.12341551 C195.946215,12.5058294 196.720901,18.0162201 200.809184,22.0746399 C200.933628,22.1109025 201.052611,22.1220419 201.16993,22.1220419 C201.325723,21.3851778 201.505265,20.6563719 201.728743,19.9415497 C202.272831,18.1973929 204.996122,18.5254148 204.919651,20.4122516 C213.073374,22.8918505 220.909099,26.4041021 228.708014,29.7971376 C235.191949,32.6199271 240.493425,37.6691887 243.513815,44.0632452 C251.981975,61.5534002 258.447861,80.0160073 264.085384,98.5890611 C264.462992,101.098997 268.678192,110.427238 265.277344,111.324084 C266.111644,119.008423 263.978039,126.781167 260.681686,133.681714 C259.152254,136.274366 258.072628,139.868861 254.99999,140.9501 C251.809795,144.94917 245.976343,145.9868 241.119684,146.269316 C247.651593,161.615716 256.526809,200.706253 250.524977,215.955716 C251.057666,218.457356 244.141737,219.645488 242.29122,220.217156 C243.782653,229.112142 243.457293,238.27495 242.814171,247.233929 C236.791203,323.648806 235.648166,400.483428 241.984858,476.917976 C242.357717,481.681878 242.759311,486.445779 243.18418,491.207311 L243.441428,494.062334 C243.778511,497.863974 244.06498,501.650447 243.977394,505.482425 C243.949133,506.812051 242.84457,507.610775 241.740244,507.679508 C238.031372,510.041313 233.049795,510.060985 228.759074,510.630283 C229.516902,514.75876 229.941534,521.199508 231.267912,524.673127 C234.028964,523.95309 235.808472,526.522042 233.056682,527.97278 C236.443993,529.848715 238.18669,533.439654 240.898344,535.960255 C248.346724,532.941222 249.733662,537.452233 243.647047,538.481094 C245.301873,539.859781 247.058582,541.133236 248.874663,542.342698 L249.003713,542.324655 C251.15101,541.999631 255.199091,540.22717 256.215698,542.574257 C256.671915,544.273145 254.570372,544.813054 253.048064,545.01949 C254.398904,545.869644 255.754256,546.715059 257.109846,547.559289 C258.296105,547.038104 259.472628,546.387274 260.682161,545.9699 C263.659803,545.308405 263.916767,549.164795 260.030965,549.38237 C262.465232,551.17701 265.825232,550.143172 267.381025,552.675861 C273.07412,554.969881 275.765113,561.898396 274.43636,567.435187 C276.43507,569.209444 277.838633,571.868696 278.000838,574.540747 C278.386046,577.403592 276.103298,580.096737 273.010711,580.850428 C269.527454,582.007511 265.993612,583.063865 262.469506,584.0567 L262.100184,584.183315 C259.195547,585.17133 256.023981,586.056359 253.003179,585.88381 C235.089354,584.817265 211.201245,577.47351 196.86306,568.335588 C193.286945,565.652634 192.661635,559.01825 197.583366,556.896536 C195.315342,552.792944 196.399006,549.811121 197.360363,545.341823 C198.027946,542.426837 198.934443,539.43577 200.575257,536.738833 C200.720838,536.499453 201.070897,536.571504 201.090372,536.807092 C201.305181,539.856802 201.020033,542.976813 200.792412,546.047483 L200.767386,546.388459 C200.56362,549.220966 200.103841,550.263099 200.873544,552.944157 C202.716224,559.785451 220.480431,563.201951 227.461194,566.023318 C232.941262,567.717229 238.504926,569.234567 244.146724,570.568459 L244.560514,570.657983 C249.323191,571.70389 254.227015,573.286607 259.243213,572.464777 C261.844672,570.576044 265.748997,571.107657 268.305096,568.946837 C272.160736,564.791577 269.129184,558.700656 266.427742,554.924613 C263.815312,555.75644 261.582228,553.51823 259.658903,552.334544 L259.58781,552.291194 C257.62401,551.051395 255.665198,551.919799 253.69831,550.683081 L253.254009,550.766954 C246.028225,552.141626 240.433658,553.709182 251.958226,549.595916 C250.059973,548.411814 248.15697,547.217758 246.313103,545.961841 C242.528234,546.417375 238.381432,548.400912 234.863739,548.581039 C237.231033,546.37969 240.460651,545.160747 243.503841,543.9501 C241.73217,542.607438 240.046232,541.170684 238.538175,539.589827 L237.097599,539.948494 C228.247392,542.14204 224.768421,542.775763 236.683145,537.426873 C234.339837,534.830191 233.959142,530.984941 231.382857,528.542315 C227.239617,529.408587 223.432662,531.227165 220.058175,533.575697 C218.693561,534.550757 217.665707,535.768988 216.584892,536.988879 C211.463433,543.564485 203.529388,544.579125 201.105571,536.049845 C201.063694,535.874951 201.338513,535.76623 201.415834,535.914132 L201.424757,535.934895 C202.584106,538.554415 206.324569,540.678453 209.448848,539.050396 L209.543332,538.999909 C212.598633,537.410757 214.017869,534.168459 216.424587,531.959763 C219.672492,529.033163 223.743535,527.071194 227.94401,525.598414 C226.925656,521.884704 226.582008,515.124467 226.697666,510.767748 C219.625232,511.101222 212.506487,510.760875 205.558735,509.419161 C206.671847,517.518505 205.940142,528.058578 206.451695,535.281459 C207.191237,537.704886 202.692237,539.219617 202.213934,536.805433 C201.949608,528.990738 202.715511,517.718304 203.908183,508.997284 L203.409162,508.87621 C202.938045,508.759241 202.44319,508.618225 202.039142,508.390538 C197.580516,508.894421 198.796699,497.587384 198.048132,494.407183 C193.017869,424.280182 182.421805,354.782443 173.416919,285.117612 C172.1682,284.640747 171.946623,283.110848 171.740244,281.832653 C160.393001,289.498268 158.131627,304.817411 153.052204,316.692088 C130.869031,378.176992 120.957649,443.044503 105.58306,506.359362 L105.667603,506.381619 C105.72798,506.399557 105.728514,506.408496 105.602327,506.399491 L105.573323,506.397284 L105.573323,506.402024 C106.523281,506.527639 107.27161,507.523081 106.691898,508.450027 C104.961075,511.936208 100.163077,510.702334 97.0047057,510.480966 C97.3113045,515.850191 96.1592434,527.435242 96.8892858,532.219052 C100.785299,532.290866 101.033001,536.570556 101.548828,539.114622 L101.588901,539.375886 C102.277386,543.721996 104.591176,551.871345 102.862619,555.385123 C105.534612,558.558213 103.612611,562.869189 100.840634,565.035697 C97.8722545,567.224485 94.1773944,568.50742 90.8219067,570.193984 C75.0290992,576.561495 59.7502188,588.838614 40.3972078,584.114057 L39.5546618,583.936812 C25.9907871,581.076169 22.0937764,579.8053 24.7875047,566.407511 C23.6812791,563.68474 23.6739169,560.702917 25.2304224,558.294895 C28.0061985,554.739745 32.6700153,552.79484 36.3810246,550.093874 C42.6666565,545.879125 49.3564953,542.192908 55.4958338,537.805378 C55.2676064,537.607949 55.5844173,537.535187 55.770609,537.568605 C60.1033656,534.183154 59.6979712,528.32237 62.7207362,524.140802 C63.476665,521.985907 67.2938321,521.460693 69.8076573,521.759325 C69.0222799,517.743191 72.8589211,499.461422 73.3462494,512.374676 L73.3460789,512.560009 C73.3555661,514.553668 73.6826583,521.208834 73.0945106,522.512069 C81.4384631,525.056846 83.2376828,533.056645 85.0233656,539.516591 L85.13831,539.547492 C85.7082847,539.694183 86.4717598,539.81296 86.7568007,540.371249 C89.4399559,538.669517 90.1897099,535.319143 92.7883189,533.516445 C92.059464,532.947621 92.0209907,531.861878 92.3928991,531.020018 C93.603145,526.591723 94.3286751,515.320474 96.1568685,510.374312 C87.5671145,509.089954 78.8163427,508.436518 70.4272672,506.105761 C69.3371908,507.174676 67.1000407,506.79546 67.1879118,504.866199 C69.7860458,462.829863 74.2546463,420.923646 79.8876573,379.189499 C84.5191756,340.124558 92.6669618,301.556864 98.342246,262.696463 L98.3903345,257.362903 C98.5435159,241.32972 98.9726853,225.056545 104.962975,209.961732 C104.435749,209.731832 103.913272,209.494822 103.39792,209.245962 C96.9023478,211.932944 102.020007,195.605087 102.258921,192.662607 C105.451016,175.601677 109.211186,158.544066 111.608641,141.376718 C109.095528,140.469444 106.77502,139.182479 104.839243,137.312233 C93.1029924,127.777794 86.2993961,50.5618232 90.5649432,35.0360073 C92.7914063,25.2697721 102.226623,20.4719781 111.219159,18.2644667 L112.547403,17.8898821 C122.590676,15.0702846 132.808246,12.5153445 143.264791,11.8874749 C143.637174,11.5504467 144.732237,11.6473838 144.875681,11.9284777 C145.530677,12.3221513 146.152424,13.0907748 146.678226,13.9027712 C161.192153,12.2380128 157.266453,2.76969918 163.237411,1.42081449 Z M197.960024,557.513947 C195.928064,562.119763 198.628081,565.622771 203.154867,567.559143 C218.83083,574.812835 236.331661,580.642097 254.297971,581.755333 C259.779939,580.432106 265.209659,578.245451 270.764774,576.892598 L271.004399,576.84949 C272.95983,576.491114 273.878433,576.131996 273.710592,574.104649 L273.781894,573.285018 C273.907214,571.828503 274.013104,570.374897 273.911508,568.919107 C272.202534,572.997575 267.08725,575.239453 262.602975,576.063063 C255.49278,579.430738 247.529998,576.00618 240.544485,574.563737 C229.198192,571.120693 204.650575,565.710702 197.960024,557.513947 Z M99.4774453,557.610173 L99.24278,557.681967 C97.2077891,558.310343 95.1386635,559.080118 92.8579033,558.513418 C82.6696081,561.960255 72.7527634,565.869973 62.9104902,569.940383 C52.2909143,575.014531 35.1912027,580.91371 25.9884885,568.651048 C27.311542,575.083026 25.4410755,577.282716 34.2274707,578.887274 C48.1690483,583.424357 59.3711858,581.101185 70.9397693,574.901714 C79.4155284,570.788879 88.5317964,567.519325 96.7358677,563.049553 L96.8465945,562.971765 C98.4603615,561.821883 100.407448,559.724521 99.4774453,557.610173 Z M78.316665,529.921003 C75.6565462,525.023191 68.4981408,522.333601 63.174341,524.139143 C62.6326277,528.862753 64.0359525,534.150921 61.0307617,538.252379 C63.6918304,538.717975 66.3444731,539.254332 68.9931124,539.809657 L71.4168811,540.320957 C72.6064501,540.581009 74.1201481,541.026226 73.9214487,542.285342 C73.7016215,543.677264 71.8713162,543.251995 70.6532555,542.901829 L70.1812282,542.763628 C66.7604309,541.758706 63.3453333,540.733637 59.9679966,539.585087 C58.1877761,541.540419 55.7979203,543.074111 53.4802612,544.555187 L54.4415497,544.664274 C57.8094761,545.041652 61.2099319,545.384403 64.5375301,546.065415 C65.9914402,546.495351 65.6777167,548.473437 64.1900831,548.315114 C60.2173605,547.280802 56.2550874,546.111395 52.2142053,545.369316 C50.2390059,546.672634 48.2730687,547.982589 46.2931196,549.279745 C50.1872332,549.84217 54.0984461,549.89289 57.9906599,550.224467 C60.5106599,550.4565 60.5099474,553.893619 57.9904224,553.695242 C53.4436879,553.279289 48.8998032,551.936627 44.5708465,550.411231 L42.2893578,551.908272 C39.6264961,553.654406 36.957728,555.395999 34.2623817,557.100602 C32.6405666,558.131832 30.5459101,559.112817 29.4126107,560.60598 C25.8336455,566.374804 34.7765462,571.887657 40.8197014,571.796408 C49.9979542,571.89382 57.6422629,567.137739 65.682229,564.290775 C70.129693,563.191996 92.741296,551.894439 94.7989042,554.867967 C96.0925089,554.247712 97.8917286,554.023974 98.823162,553.002224 C99.0117286,548.278377 98.0145106,543.329371 97.177598,538.564995 C97.0070806,537.733327 96.5995488,536.735989 96.5539508,535.882279 C92.787369,537.268551 91.7148668,542.515242 86.7570382,542.068715 C85.9811603,543.305907 83.591542,542.729499 82.5133401,541.747092 C81.339905,540.678414 81.1926616,539.173163 80.9126616,537.832397 L80.782901,537.216408 C80.2564671,534.746718 79.6254142,532.216427 78.316665,529.921003 Z M189.927657,129.272142 L189.32177,129.425015 C183.152448,130.965648 176.698714,132.080181 170.358531,131.666418 C169.262517,135.80485 169.833917,145.648587 165.376003,147.221623 C163.852984,147.794239 161.561211,147.329462 160.862992,145.777521 C151.641992,145.613984 142.356394,144.791559 133.134918,144.244303 C126.19334,143.699417 118.991237,143.720273 112.308997,141.617995 C113.118599,145.686746 113.397411,149.681313 112.944282,153.842498 C111.385446,171.590142 106.254136,188.881679 104.534277,206.553125 L104.454986,207.394913 L104.405113,207.366472 C104.405113,207.399654 104.402738,207.432835 104.400126,207.466016 C104.901228,207.610593 105.402331,207.762279 105.901059,207.916335 C106.079176,207.826272 106.321652,207.913965 106.449659,208.084613 C143.17407,219.484558 182.154867,224.435697 220.430321,219.418432 C227.133459,218.583446 233.788149,217.413564 240.396054,216.026819 C240.338344,215.436901 241.240092,215.28237 241.39826,215.839581 C242.864757,215.584321 244.331016,215.304886 245.789676,215.1167 C245.613696,214.621349 245.582823,214.085706 245.763552,213.602206 C248.607963,205.084066 247.308421,195.372343 246.411186,186.538268 C245.266962,172.975132 242.414952,159.671048 240.111067,146.290884 C229.204604,145.796244 218.36345,144.019617 207.404265,144.24217 C206.249829,147.228496 202.225333,149.736773 199.074561,148.029353 C196.849761,146.830082 196.190965,144.215861 195.298005,142.055515 C193.532746,137.784357 191.730202,133.528131 189.927657,129.272142 Z M143.715308,12.2922881 C132.262382,15.6689699 120.528506,18.0803099 109.179837,21.8279125 C99.7481832,24.1733637 93.3096081,30.0791796 92.9120509,40.1511577 C92.1337981,61.7268915 94.5039423,83.41165 98.0814826,104.67382 L98.2682346,105.633942 C100.253123,115.881121 102.032414,126.307571 105.780889,136.074567 C111.25312,138.613655 117.466317,139.336773 123.453187,139.630665 C132.18971,140.074348 140.925757,140.530119 149.65468,141.100602 L156.49865,141.543573 C158.484299,141.672033 161.24535,141.332634 162.737496,142.873674 C162.869748,143.090982 163.138719,143.063735 163.343244,143.198527 L163.38323,143.227767 C163.601008,143.375424 163.820448,143.73402 164.134409,143.664576 C164.644968,143.506455 164.840877,142.490532 164.960772,142.005314 L164.971796,141.961422 C165.636529,139.365925 166.118158,136.714494 166.732068,134.105014 C168.131355,128.970191 168.734103,123.542425 170.860821,118.627548 C167.816444,116.688569 164.948997,114.471814 162.490032,111.841477 L159.525079,110.799443 C152.431897,108.315493 145.25881,105.909 137.865707,104.420219 C137.688539,106.039708 135.359718,106.965706 134.49122,105.270848 C133.051559,100.952999 132.784621,96.2649407 131.791915,91.8146035 C129.538378,78.5370647 126.860923,65.307876 125.30228,51.9246308 C129.599413,63.7779763 131.825876,78.3265998 135.110117,91.1372288 C135.262348,91.0488241 135.473001,91.1002552 135.479413,91.3100091 C147.107606,86.9212944 160.01753,87.1 171.493018,91.757247 C174.367589,92.9079307 177.287047,93.9410574 180.146419,95.1277666 C181.122975,95.6781039 183.068251,95.6444485 183.396224,96.8477484 C183.747471,96.0310119 184.2196,95.2661805 184.846572,94.7502097 C185.042263,94.3477666 187.264926,93.6293892 187.481992,94.4257429 C200.518735,96.2113765 213.194494,101.87165 226.608607,100.916026 C225.021228,95.1325068 225.209082,88.8868186 225.102687,82.9139289 L225.134988,82.2414202 C225.411067,76.3573381 225.610835,69.0749661 227.609388,64.2327985 C226.330507,76.4226983 227.259091,88.6329809 228.819871,100.70959 C238.281211,99.4913582 233.924706,104.890447 227.622925,104.687803 C214.905605,105.602188 203.169116,99.9890793 191.465164,95.8985232 C185.072424,93.3480583 184.347844,95.5081677 184.632831,101.569936 C184.638768,109.46237 188.220109,116.665579 191.464214,123.66804 L192.921648,126.938594 C195.344078,132.380739 197.733221,137.787991 200.086741,143.295314 C210.36932,139.892562 221.946215,141.75949 232.598565,142.379508 C240.72664,143.398414 246.563179,143.036737 253.439447,138.344412 C255.919786,133.615114 259.187878,129.129936 260.465808,123.795552 C261.94798,118.906509 262.441483,113.785433 262.873713,108.71887 L262.484254,107.301286 C257.472648,89.1111152 251.926673,71.0099263 244.348115,53.6841933 L243.938078,52.7295802 C241.368761,46.7293309 238.758982,40.4329076 233.560872,36.2300638 C224.837174,29.8016408 214.048031,26.9504102 204.877615,21.2304102 L204.819112,21.648886 C203.888452,28.2103871 202.280906,35.0122865 198.072831,40.2914676 C190.297428,49.8197448 175.616784,50.0878031 165.66669,43.8994713 C155.315478,38.1877666 149.105367,27.5533637 146.084027,16.4373564 L146.048586,16.3151825 C145.765728,15.3245003 144.978338,12.3249336 143.715308,12.2922881 Z M171.825978,119.228842 C171.819566,122.723081 171.128709,126.167311 170.66133,129.616518 C176.042602,128.556609 181.407963,127.817375 186.700651,126.384649 C181.544994,124.440693 176.534918,122.098797 171.825978,119.228842 Z M158.868319,91.046928 C151.021432,89.5139471 142.98764,90.4309389 135.228624,91.6657612 C136.071712,95.5771376 137.034731,99.4534366 137.83982,103.370027 C140.618446,103.24299 166.976682,107.901422 164.00189,111.640966 C167.892679,113.717411 171.578514,116.158377 175.451491,118.279854 C179.346792,120.413418 183.402161,122.247165 187.586012,123.736773 L187.365313,123.246533 C183.764581,115.21857 180.400395,106.184408 183.174884,97.4106472 C179.444163,98.9049954 174.35144,95.6949316 170.736852,94.4940018 C166.899973,92.9572288 162.948149,91.7449225 158.868319,91.046928 Z M102.376763,59.9609298 C102.402887,58.4962078 106.93561,62.6957885 107.527196,63.131887 L107.884792,63.4547965 C112.234552,67.3941665 116.531505,71.7279689 118.954948,77.1334913 C119.132115,82.4460711 111.198782,69.5764266 110.098969,68.7902644 C107.699138,65.7077119 104.775644,63.0306837 102.376763,59.9609298 Z M227.806266,72.4656263 C226.579871,72.8685433 229.927047,68.7175497 231.232288,69.0204485 C231.751678,68.9448423 232.20362,69.6961641 231.626996,69.954505 L231.340656,70.0803946 C230.001289,70.6602924 228.631938,71.1554032 227.806266,72.4656263 Z" id="ðŸ–-Ink" fill="#000000"></path>
                </g>
                <g id="Head" stroke-width="1" transform="translate(95.945717, 42.661805)">
                    <g id="head/Cornrows">
                        <path d="M102.250514,75.0990684 C103.721523,64.5040091 100.580014,54.2791595 96.5101578,44.5958778 C96.2866802,44.0061969 95.9321086,43.4954403 95.4763664,43.1323409 C83.9906667,20.0293145 67.1139576,17.937227 43.5694962,19.5282753 C42.8738897,19.5128696 42.8325666,19.5251942 42.3043902,19.2893692 C42.2169941,9.90424613 31.476536,4.9329608 23.3033384,8.02949681 C-12.9451433,24.840381 -1.54707718,72.1677284 5.6661883,103.065541 C8.23962341,115.026252 10.813771,126.986252 13.3876811,138.946489 C13.4741272,139.346562 13.6562816,139.692359 13.8985208,139.983881 C13.5247125,140.125376 13.1506667,140.258102 12.7837455,140.382769 C11.9463579,140.667181 12.2790806,141.913143 13.1506667,141.711211 C14.004916,141.513307 14.8280543,141.248093 15.6424054,140.959178 C16.9120237,141.234109 17.9764512,140.406233 18.9731942,139.745923 C30.6448482,135.139871 35.5447294,120.001803 38.5385208,108.84977 C50.7100899,117.420053 70.1588092,123.838758 84.0754504,116.13214 C97.1155182,108.295167 101.811634,91.9474002 100.885187,77.5184667 C101.836807,77.0814202 102.220828,76.1286399 102.245764,75.1353309 L102.251464,75.1353309 C102.251226,75.1232434 102.250514,75.1111559 102.250514,75.0990684 L102.250514,75.0990684 Z" id="ðŸŽ¨-Background" fill="#FFFFFF"></path>
                        <path d="M19.9588227,8.91200365 C22.6498151,7.17235005 26.1036234,6.52483865 29.2741069,6.65163902 C30.9650314,6.71918687 32.5436234,7.13987967 34.1025038,7.7717484 C35.5473893,8.35763719 36.8212824,9.1992598 38.2281696,9.84060893 C38.3136658,9.87947858 38.2490687,9.99916864 38.1683223,9.98281495 C36.5022959,9.64725462 34.5462408,9.84996109 32.8569828,10.0902227 L32.6889669,10.1143555 C31.0286785,10.3549207 29.339179,10.479351 27.7026395,10.8611741 C24.6879491,11.5643829 21.8839118,13.0966527 20.2293232,15.7618304 C18.0688821,19.2425597 17.5150568,23.7481203 17.746134,27.7640182 C17.8629788,29.7959052 18.2643359,31.7948478 18.889408,33.7319307 C19.2646412,34.8944649 20.1364648,36.0641094 20.5437591,37.284 C20.8536828,36.7066436 21.173581,36.1349754 21.5048787,35.5701805 C19.9956336,34.8603355 19.5724275,32.887464 19.4942935,31.1070447 C19.2617913,30.8828332 19.112173,30.5583665 19.1071858,30.2604448 C19.0938863,29.459588 19.2826904,28.7345743 19.6037761,28.0711832 C19.7871179,26.1921677 20.1756506,24.3188405 20.8444207,22.558093 C23.469391,15.6452215 30.3943444,9.41470191 38.2474063,10.030217 C40.4057099,10.1994421 42.5058287,11.1140638 43.6217913,13.0584941 C44.5183138,14.6199161 44.5242511,16.5034348 43.9058287,18.1641641 C43.7224869,18.6571449 43.4840475,19.1022498 43.20381,19.5082479 C44.0523596,19.2935169 44.9023342,19.0875552 45.7508838,18.8834895 C48.6948024,18.1753036 51.6536828,17.6204631 54.6678982,17.311876 C58.7729025,16.8918943 62.9624529,17.5273181 66.7240475,19.1624503 C67.7557014,19.4271905 68.7823681,19.7116026 69.8028601,20.0154494 C74.2935471,21.3517119 78.9008414,23.0970538 82.528017,26.1471358 C84.196855,27.5504722 85.3911891,29.1829973 86.3606209,30.9757411 C89.9915963,34.2064248 93.4636913,37.8687037 95.9145818,42.058093 C100.964319,50.6897612 102.17029,61.3668259 102.377856,71.1797521 C102.56856,80.1941914 101.775108,89.3010647 100.082283,98.1583665 C99.3137676,102.178057 98.0714606,105.913809 95.5583478,109.210381 C92.7597727,112.881429 89.0271518,115.773663 84.8387888,117.714301 C76.311732,121.665258 65.7579406,122.240007 57.4695606,117.345039 C54.9766344,115.87297 57.2213842,112.035541 59.7394843,113.469688 C67.9221815,118.129542 78.3650653,117.06513 86.2383138,112.124893 C89.5643528,110.03802 92.4306124,107.184182 94.2514436,103.689469 C95.5811571,101.136887 96.1517252,98.2098422 96.6458489,95.3598543 L96.908475,93.8353036 C98.4338694,85.0711468 99.1235386,76.0815934 98.7566175,67.1906363 C98.3904088,58.3217211 96.9809092,48.7157046 91.947084,41.1757046 C89.2919525,37.1986764 85.9060662,33.714629 82.3496624,30.5377466 C82.0998236,30.3144831 81.8495098,30.0921677 81.5989584,29.8705634 C80.208933,29.0369991 78.7683223,28.3091413 77.3507481,27.687938 L77.0491521,27.5577952 C76.2337199,27.2109238 75.0933931,26.7628423 74.0353961,26.4045287 C72.5230636,25.89235 70.9862697,25.4372908 69.4430636,25.0272634 C68.6341747,24.8122954 67.821486,24.615103 67.0066599,24.42668 C67.2906972,24.68668 67.5730721,24.9490501 67.8504597,25.2180565 C69.164726,26.4924594 70.2073045,28.0069535 71.4534114,29.343216 C71.5942426,29.4939544 71.4166005,29.7138997 71.2375335,29.6221768 C69.3426056,28.6518578 67.2412994,28.0237812 65.2627752,27.237619 C63.3920712,26.4943555 61.5740899,25.6387493 59.7366344,24.8186946 C59.27638,24.6129699 58.8175505,24.3932616 58.3599084,24.1759234 C56.5528516,24.1944102 54.7457947,24.236835 52.9427752,24.3394603 C55.1224529,25.8878469 57.1130891,27.7178013 58.7619779,29.7245652 C58.8980594,29.8897612 58.7743274,30.1545014 58.5453876,30.0959599 C55.093693,29.2139271 51.8110884,27.9176055 48.5303305,26.5591213 L46.9606548,25.9070447 L46.9606548,25.9070447 C45.8069313,25.8487402 44.6515454,25.821484 43.495922,25.8385488 L42.9358553,25.8478505 C41.7226921,25.8709549 40.5118835,25.918911 39.3094589,26.1023409 C39.0235216,26.1457138 38.7432841,26.1869535 38.4649466,26.2248751 C36.7728346,26.9141003 35.1446073,27.7450574 33.6795352,28.8402808 L34.0611807,28.8177648 L34.0611807,28.8177648 C36.3776522,28.6862242 38.7394843,28.8853127 40.9828092,29.4821039 C45.3416896,30.642268 49.061011,33.4359052 51.7674402,36.9979289 C51.8484241,37.1045834 51.6909686,37.2529517 51.5848109,37.1804266 C48.1799254,34.8541732 44.2307142,33.6823956 40.1846073,33.0460237 C38.2288821,32.7381477 36.2147345,32.6322042 34.2402477,32.7855497 C32.6053707,32.91235 30.9142087,33.4870994 29.2876438,33.2081386 C28.8442511,33.7591869 28.4184326,34.3268259 28.0085259,34.9070264 C28.2239288,34.8932799 28.4402816,34.8807183 28.6580594,34.8705269 C30.9940051,34.7610283 33.3729364,34.9105816 35.6537846,35.4471723 C40.2095437,36.5196427 44.0164987,39.2490501 47.4990433,42.2455679 C47.5679152,42.3048204 47.4790941,42.4105269 47.4045225,42.3678651 C43.6277286,40.1925871 39.2379746,39.5424686 34.9596031,39.1499799 C32.8050992,38.9523136 30.6263715,38.8627238 28.4671179,39.0343191 C27.4779746,39.1127694 26.4997557,39.2755953 25.5134623,39.3767985 C25.4336658,39.3850939 25.350782,39.387227 25.2686107,39.3910191 C24.5537676,40.7362881 23.905659,42.105732 23.3209601,43.4711468 C25.1054555,42.9933345 27.030782,42.7425779 28.8732248,42.8662972 C32.6155827,43.1177648 36.327542,44.8301623 39.3149211,47.0203719 C39.4084919,47.0888678 39.3562443,47.2713655 39.2291874,47.2234895 C35.9774826,45.9974366 32.754039,45.9874822 29.360553,46.4605542 C27.7696115,46.6823956 26.1948193,46.9833984 24.657788,47.4555223 C23.8849975,47.6930064 23.1209941,47.9520583 22.3876268,48.2931158 C22.0546667,48.4476463 21.7304936,48.6277739 21.4027583,48.7977101 C21.14057,49.6860237 20.9061679,50.5826326 20.6948024,51.4846928 C26.2416047,51.796835 31.467084,54.4096335 36.0147684,57.4082844 C36.124726,57.4808095 36.0560916,57.682742 35.9202477,57.6315479 C33.2055064,56.6093236 30.2523257,56.1367256 27.3727668,55.861557 C24.8549042,55.6209918 22.3840645,55.7518213 19.8806887,55.8219763 C19.7465072,56.7712015 19.6379746,57.7232707 19.5593656,58.6772361 C19.9619101,58.7898159 20.356855,58.911165 20.7366005,59.0251668 C21.9855573,59.3996427 23.2321391,59.903763 24.3974996,60.4882297 C26.7647939,61.6754129 28.6829958,63.2802078 30.6130721,65.0641823 C30.7137676,65.1573273 30.6087973,65.3606819 30.4722409,65.3054585 C28.2320034,64.4017393 25.7842002,63.8229608 23.4259304,63.3107821 C22.2054724,63.0458049 20.9845394,62.8012106 19.7555318,62.5767621 C19.6365496,62.5549572 19.5156675,62.5367074 19.3950229,62.5186946 C19.3833999,64.6936102 19.5066248,66.8691556 19.7783595,69.0269543 L19.8310534,69.4313291 C19.9782969,70.5234713 19.8578897,71.579825 19.1333096,72.3342279 C20.1355148,71.6694148 21.2821137,71.2089043 22.5529194,71.0323318 C25.8993825,70.5675552 28.9981442,71.9019216 31.1039627,74.4829608 C31.2025208,74.6035989 31.0505276,74.7619216 30.9308329,74.6557411 C28.8872366,72.8409553 25.7378897,72.5198067 23.1998405,73.3742279 C20.8501204,74.1651304 19.0836743,76.0533892 18.3757184,78.4161422 C17.623352,80.9270264 17.9679491,83.6990957 19.3399254,85.9374184 C20.0234198,87.0525506 21.0106633,88.0494148 22.2460831,88.5397885 C22.3985513,88.6004631 22.5538694,88.6509462 22.7108499,88.6947931 C23.4565666,88.4227056 24.2590433,88.5459508 25.0258965,88.8908004 L25.1254046,88.9374913 L25.1254046,88.9374913 C25.6146327,88.9346472 26.1017235,88.9197156 26.5750399,88.9239818 C27.4962612,88.9327511 27.939179,89.9087584 27.5525462,90.6351942 C27.7717489,91.0359781 27.9322918,91.4862972 28.1248957,91.8790228 C28.4728176,92.5876828 28.8371264,93.2918396 29.203335,93.9914932 C29.7212994,94.5844923 30.2159898,95.1983482 30.5517998,95.9141185 C30.6895437,96.2077739 30.8196879,96.5258414 30.9194334,96.8448569 C31.2072706,97.2769262 31.4998575,97.7066253 31.7995691,98.1341914 C32.7685259,99.5154859 33.7890178,100.824018 34.9206548,102.078038 C35.6008244,102.83173 36.383352,103.504602 37.1034198,104.227008 C37.3216726,104.255923 37.5356506,104.404292 37.6030975,104.617601 L37.6619949,104.821666 L37.6619949,104.821666 C37.8940221,105.082614 38.1160746,105.351384 38.3160407,105.637692 C38.7596709,106.272642 38.6380763,106.916835 38.2483562,107.381138 C38.8655912,111.224492 38.4452349,115.313389 37.6194843,119.040135 C37.0856081,121.448157 36.4621985,123.854046 35.6255233,126.176981 C35.2001798,127.357765 34.6850653,128.492095 33.9733096,129.529251 C33.5831145,130.097601 33.0748872,130.75957 32.5049126,131.300427 C32.418229,131.929925 32.305659,132.55421 32.1444037,133.16617 C30.2323766,140.417965 22.405676,142.625714 15.8523936,143.551949 C14.587525,143.730418 13.3357184,143.425623 12.6467617,142.249816 C12.4876438,141.978439 12.3807735,141.685732 12.3233011,141.384966 C12.0378388,141.309123 11.7633011,141.175686 11.5170246,140.983945 C11.4759389,141.438294 11.4284411,141.894301 11.3683562,142.355285 C11.2185004,143.507628 9.65985751,143.854137 9.26918745,142.638749 C7.62053605,137.509378 6.72496353,132.101046 5.59522646,126.83018 C4.46786429,121.570454 3.20893299,116.338695 2.0440475,111.087026 L0.569090737,104.459105 C-3.02987473,88.229523 -6.400819,71.7924893 -5.57342494,55.1005178 C-5.1217201,45.9889043 -3.44646989,36.9009918 0.139145038,28.4809736 C3.12604919,21.4666618 8.16699915,13.5863154 16.3102731,12.1521677 C16.3663206,12.1424503 16.4161934,12.1481386 16.4627413,12.1599891 C17.4297981,10.905021 18.5851841,9.79984321 19.9588227,8.91200365 Z M24.8724784,97.1330611 C25.5291366,99.3071541 25.9979406,101.535996 26.2530042,103.810582 C26.6778728,107.601557 26.4672197,111.484966 26.2826904,115.286133 C26.1128855,118.778239 25.709866,122.300682 25.0237591,125.729743 C24.365201,129.022286 23.3330721,132.250363 21.7986531,135.245459 C21.5504767,135.729907 21.2837761,136.201557 21.0035386,136.664201 C21.8520882,136.381922 22.618229,136.053426 23.4161934,135.597892 C24.420536,135.024328 25.33962,134.284857 25.8423851,133.504857 C26.649374,132.253681 26.920112,130.863617 27.0381442,129.37235 C27.3416556,125.537054 27.4820119,121.690381 27.6755657,117.848686 L27.7185058,117.012154 C28.0315757,111.009663 28.4419335,104.853852 27.8289839,98.8449845 C26.9666599,98.6188769 26.1886446,98.1749572 25.4707142,97.6179836 C25.272648,97.4644011 25.0726819,97.3018122 24.8724784,97.1330611 Z M18.3142087,89.8644376 C18.4954131,91.6903628 18.6687803,93.5165251 18.8257608,95.3441094 C19.3826735,101.831311 19.7267956,108.354538 19.4102222,114.864255 C19.2454046,118.25421 18.9143444,121.653644 18.3419949,125.000463 C18.0840102,126.508985 17.7721628,128.017122 17.4237659,129.509325 L17.3063036,130.006115 C16.9526819,131.484109 16.7273045,133.331366 15.594955,134.406206 L15.6035047,134.629232 L15.6035047,134.629232 C16.3983817,133.425222 17.1336489,132.071657 17.6601628,130.811475 C20.0063206,125.196944 20.434989,119.08493 20.8589075,113.098294 C21.1201459,109.408758 21.3136997,105.714483 21.6160237,102.028029 L21.7628554,100.253961 C21.93131,98.189368 22.076331,96.1400681 22.0565666,94.0772908 C21.6046243,93.4048933 21.2374656,92.6978924 21.0094758,91.9721677 C20.9729025,91.8553218 20.9477286,91.7372908 20.9301544,91.6192598 C19.974497,91.1672817 19.0746497,90.5503446 18.3142087,89.8644376 Z M31.1564478,102.711092 C31.6278643,104.276543 32.0125971,105.861903 32.2866599,107.4539 C32.7231654,109.988011 32.9851162,112.538002 33.1002986,115.096525 L33.3410825,114.192574 C33.9474265,111.93182 34.5918158,109.667755 35.3904088,107.473809 C34.1272027,106.591183 33.0717998,105.205149 32.1536658,104.046644 C31.8104936,103.613863 31.477771,103.167099 31.1564478,102.711092 Z M13.0668804,33.0920036 C12.5814521,34.6557958 12.1570585,36.2373637 11.7186531,37.8139544 C10.6884241,41.5174731 10.0196539,45.3224321 9.55559966,49.1345014 C7.70389483,64.3548113 9.24615098,79.6367438 11.2631484,94.7575096 C12.0988736,101.022633 13.0075081,107.278512 13.7874232,113.550983 C13.8080848,112.935468 13.8254215,112.319953 13.8365835,111.705149 C14.073598,98.3913473 11.8281357,85.2638359 10.9290008,72.0187675 L10.8750203,71.211673 C10.4675247,65.0187599 10.218205,58.7102002 10.9558372,52.5398614 C11.3353635,49.3639271 12.0040665,46.2559227 12.8939633,43.1869824 L13.4237252,41.3843875 C13.7817526,40.17233 14.1623172,38.9280031 14.6138863,37.7212835 C14.553564,37.6056226 14.4960916,37.4890137 14.4426565,37.3721677 C13.8178219,36.0013017 13.3829788,34.5602808 13.0668804,33.0920036 Z M14.6312231,15.1505816 C9.97025615,21.1476463 6.05904326,27.5182388 3.6926989,34.8456408 C-1.72300933,51.6155223 -0.513950806,69.547938 2.62447159,86.6415752 C4.10331807,94.69565 6.01035793,102.655869 7.75044275,110.654009 C5.8878134,96.2914385 3.48584563,81.9603902 3.1034877,67.4596427 C2.89473452,59.5454038 3.30487871,51.5941914 4.765676,43.8022498 L4.85213534,43.3440985 C5.47823332,40.0510474 6.25376873,36.5621254 7.84140119,33.6027603 C8.7034877,31.9958323 9.65510772,30.4962698 10.7836573,29.0609371 C11.2595861,28.4556135 11.7939372,27.970217 12.3608244,27.5262972 C12.1945818,23.3921313 12.8210789,18.9090866 14.6312231,15.1505816 Z M22.2356336,79.047845 C24.5544801,79.1388569 26.8711891,79.7839982 28.6972451,81.2880638 C30.1257439,82.4643446 28.0885598,84.4523847 26.671698,83.3092853 C25.1308668,82.0664047 23.748916,80.654536 22.1064394,79.5239982 C21.9107481,79.3891395 21.9644207,79.0371796 22.2356336,79.047845 Z M18.3887803,72.8819581 C17.8731908,73.1471723 17.3609262,73.2007366 16.7769398,73.0575825 C16.7555657,73.0523683 16.7350097,73.046443 16.7148583,73.0401754 L16.5954979,73.0014111 C16.6465581,73.5531705 16.7002307,74.1049298 16.7534283,74.6566892 C17.2246073,73.9944831 17.7710704,73.3948478 18.3887803,72.8819581 Z M16.0806209,39.5841823 C15.87543,41.2953947 15.7417235,43.0149025 15.6704767,44.7370173 C15.6012782,46.4147521 15.5724455,48.0975677 15.5645685,49.7810184 L15.562419,50.5025232 L15.5655064,50.4887767 C16.3627583,47.0943191 17.4903579,43.7536627 18.9304936,40.5568715 C18.6825547,40.5981112 18.4308159,40.5914749 18.182877,40.5616117 C17.6157523,40.4931158 17.0719016,40.2421222 16.5852858,39.9484667 C16.4078813,39.8413382 16.2414012,39.7164339 16.0806209,39.5841823 Z M39.7333774,19.7499982 C38.7423342,20.1969991 37.7852519,20.7108368 36.7906463,21.1476463 C34.8182969,22.014155 32.888458,23.0214476 31.0631145,24.165021 C29.215922,25.3223409 27.4364139,26.5408095 25.7998745,27.9842005 C25.6082205,28.1534257 25.418229,28.3245469 25.228475,28.4954312 C25.1902392,28.868722 25.1624529,29.2434348 25.149866,29.6212288 C25.1429788,29.8243464 25.1427413,30.0367074 25.1453537,30.2549936 C28.2334283,26.4374731 31.9669992,23.4255497 36.7034877,21.5308915 C37.5244885,21.2023956 38.3590263,20.9099253 39.2011637,20.6392598 C39.4016047,20.361484 39.5813842,20.0666436 39.7333774,19.7499982 Z M39.6452689,16.0879562 C39.094531,15.3584394 37.5114266,15.4179289 36.5132587,15.5805178 C34.8992807,15.8435989 33.4776692,16.4067347 32.0942935,17.2220492 C30.459179,18.185258 29.0487294,19.4902352 27.9451162,21.0251121 C28.4882545,20.7193692 29.0416047,20.430928 29.606592,20.1631067 L29.9936818,19.9806726 C32.1336572,18.9795523 34.4516879,18.0277953 36.7923087,17.7174002 C37.8752604,17.5737721 39.0399084,17.3659143 40.1340221,17.4829973 C40.080112,16.9523318 39.921944,16.4546108 39.6452689,16.0879562 Z" id="ðŸ–-Ink" fill="#000000"></path>
                    </g>
                    <g id="face/Smile-Big" transform="translate(37.760814, 44.083865)" fill="#000000">
                        <path d="M22.1688546,44.1967986 C26.2399157,43.703704 30.1860888,44.9475399 34.165913,45.5745352 C36.2672052,45.9053903 38.3711041,46.1524099 40.4975161,46.2442748 C40.925263,46.2629311 41.353247,46.2737943 41.7812309,46.2825321 C41.8210434,45.9065711 42.0319546,45.5613104 42.48885,45.3544374 C43.4253907,44.9307728 44.1749551,44.7397222 45.2032067,44.7805773 C46.144487,44.8176539 47.089085,44.9142418 48.0159096,45.083566 C49.698934,45.3915139 51.3895417,46.0903008 52.6206472,47.3043809 C55.4698449,50.1136976 55.0361734,54.6261744 52.8346392,57.6860531 C48.2862101,64.0088909 39.9846916,64.3023432 32.8747745,64.2198561 L32.2186571,64.2112911 C25.7448667,64.1189539 16.4827822,65.0822359 13.5416367,57.7316313 C12.4600648,55.028585 12.6103095,51.8954978 13.9345477,49.3029727 C15.5140123,46.2107406 18.8388267,44.6001538 22.1688546,44.1967986 Z M42.3907407,54.7244155 L42.3326809,54.7267771 C39.3479313,54.8415491 36.3636556,54.9223146 33.3772471,54.9749775 C33.4665882,55.7403604 33.5578251,56.5059795 33.6620958,57.2697094 C33.7438535,57.8707275 33.8315357,58.4710371 33.9227726,59.0706382 C33.9614002,59.3245064 34.1031136,59.7186514 34.0630641,59.970158 L34.0486084,60.0695798 L34.0486084,60.0695798 C34.2019338,60.1387737 34.3410404,60.2502395 34.4446002,60.4120066 C34.480621,60.4679757 34.5066887,60.5244171 34.5327564,60.5806223 C36.8513582,60.5988064 39.3465094,60.5539367 41.7101372,60.1333421 L41.7148768,60.0820961 L41.7148768,60.0820961 C41.75777,59.7807605 41.8833688,59.5779022 42.050202,59.4388061 C42.2163242,58.4778856 42.2011576,57.4539114 42.2653789,56.5005479 C42.3054283,55.9082676 42.3487955,55.3164597 42.3907407,54.7244155 Z M31.0963249,55.0155964 C28.9449775,55.0521219 26.7926939,55.0802508 24.6418042,55.0540397 L23.6653766,55.0389759 L23.6653766,55.0389759 C23.8715483,56.1430071 24.0959673,57.2432599 24.2824697,58.3546119 C24.4770294,59.5129592 23.4554132,60.2492949 22.5712449,60.2195392 C22.670539,60.235834 22.7695962,60.2526011 22.8688904,60.2665343 C25.6313538,60.6564285 28.4997468,60.552992 31.3032075,60.549922 C31.1523704,59.6713729 31.213482,58.6800774 31.1909155,57.9467665 L31.1866139,57.8331786 C31.1437207,56.8935122 31.1136244,55.9545543 31.0963249,55.0155964 Z M16.4832561,54.8129742 C16.5579045,55.3870704 16.7031726,55.9488865 16.9204823,56.471973 C17.8387756,58.6819247 19.9440964,59.7132198 22.1716984,60.1475115 C21.7851857,60.0143192 21.478298,59.6943273 21.4008059,59.1462083 C21.2076681,57.7833496 21.1382333,56.3978199 21.1330197,55.0139433 C19.5805708,54.9995377 18.0176947,54.9664758 16.4832561,54.8129742 Z M50.4866519,54.3411337 C49.3813822,54.601378 48.0969564,54.482119 47.0125408,54.5312396 C45.9966121,54.5772901 44.9802095,54.6174367 43.9642808,54.6585279 C44.0121506,55.3507023 44.0588354,56.0426406 44.1095489,56.7343428 C44.1749551,57.628431 44.1811165,58.5732928 44.3526893,59.4636025 C46.3973435,58.7671772 48.2294276,57.6503935 49.6039054,55.8645787 C49.94634,55.41966 50.2529907,54.8975182 50.4866519,54.3411337 Z M21.7017692,47.8227443 C19.8618647,48.2575082 18.1205436,49.1759205 17.1847138,50.8561734 C16.6292352,51.8532258 16.3849099,53.0349525 16.4318317,54.1994398 C17.9868875,54.0187801 19.5687218,53.9502948 21.1429728,53.8936172 C21.1481864,53.6107019 21.1548745,53.3281013 21.1633881,53.0460956 L21.1876416,52.3233087 C21.2305525,50.9447585 21.2521139,49.2136404 21.7017692,47.8227443 Z M31.2250045,47.9908876 L30.4150545,47.900098 C28.1653504,47.6442883 25.9168542,47.3757508 23.6670354,47.5296741 C23.3414264,47.552109 23.0108408,47.5875325 22.6795442,47.6359445 C23.0771949,49.067997 23.0437808,50.749903 23.2099031,52.16755 C23.2741244,52.715669 23.3551712,53.2593011 23.4449862,53.8008078 L23.8352905,53.7826237 L23.8352905,53.7826237 C26.2493948,53.6520292 28.665869,53.571736 31.0818692,53.4760927 C31.0816915,53.0233809 31.0841797,52.5704033 31.0914335,52.1172598 L31.1003535,51.6640645 C31.1278431,50.5066619 31.0529578,49.2028423 31.2250045,47.9908876 Z M42.522264,47.8071579 C40.1659825,48.1866613 37.730787,48.2674268 35.4162138,48.2702607 C34.491759,48.2714414 33.5677782,48.2147639 32.6442713,48.1330538 C32.7044639,48.6237868 32.7357451,49.1201876 32.7810081,49.6040721 C32.8721976,50.5819486 32.9764304,51.5583137 33.0897026,52.5337719 L33.1907447,53.3872979 L33.1907447,53.3872979 C36.1603277,53.2529249 39.1296737,53.1076887 42.0985457,52.9572571 L42.5175245,52.9348222 L42.5175245,52.9348222 L42.6349607,51.2944885 C42.7149016,50.2006819 42.8028471,49.1071203 42.927024,48.0182818 L42.8338913,47.9847476 L42.8338913,47.9847476 C42.7244071,47.9398778 42.6206103,47.8780049 42.522264,47.8071579 Z M43.5455391,48.2142916 C43.6754035,49.76088 43.7472081,51.3138446 43.8427106,52.8630306 L45.7999108,52.7586845 C46.1260816,52.7409378 46.4522436,52.7228325 46.7784056,52.7040974 C48.0467169,52.631125 49.676421,52.2478432 50.9302765,52.605384 C51.026016,51.4678185 50.7001699,50.3595365 49.6714444,49.5953343 C47.865428,48.2530212 45.5657844,48.7310018 43.5455391,48.2142916 Z M36.8585683,34.3886618 C39.7730382,32.7229553 47.0855742,31.0205123 47.5486785,36.2548788 C47.7616567,38.6636029 45.9672866,40.6594144 43.8719708,41.5499871 L43.7932587,41.5828642 C41.8280339,42.3891723 38.3447769,43.2997648 36.6441154,41.5513418 C35.2286785,40.0961003 37.1060322,37.4868569 38.8648787,38.6790173 C39.7687683,39.2914562 41.6713373,38.8401964 42.6799344,38.548784 L42.7430806,38.530412 C43.8314945,38.2111595 45.2825547,37.1894093 44.8325123,35.8519617 C44.4342426,34.6688077 42.7395182,34.4526545 41.6781781,34.4142589 C40.0938863,34.3576135 38.5521052,34.724742 36.9823003,34.8441951 C36.7336489,34.8631559 36.6569398,34.5038487 36.8585683,34.3886618 Z M48.9313418,25.9717958 C52.8869652,25.786928 55.3475929,30.0971923 54.4380085,33.6288788 C54.2807905,34.2382315 53.597771,34.8364448 52.9385004,34.767949 L52.772387,34.7526931 C52.6879966,34.7445987 52.6032129,34.7339617 52.5252689,34.7124886 C51.8992468,34.5394713 51.3380594,33.8895898 51.3836573,33.2160073 L51.3957707,33.0197356 C51.4880628,31.3513908 51.3068941,29.4292291 49.320112,29.025196 C47.6351247,28.6824795 46.6944292,30.301021 46.6744801,31.790866 C46.6706802,32.0553692 46.3728685,32.24 46.1384665,32.097794 C44.9203834,31.3580857 44.7094928,29.8864904 45.1747345,28.6191978 C45.7644207,27.0134549 47.2401798,26.0507201 48.9313418,25.9717958 Z M19.5769398,26.8962297 C22.4555488,25.9377612 25.5611976,27.469083 26.9550229,30.0088824 C27.4440136,30.1501404 27.9322918,30.5262753 27.8643698,31.1022097 C27.7662867,31.9307967 27.6185683,32.4531668 27.042894,33.0814804 C26.1424739,34.0643854 24.4560891,33.5618267 24.081838,32.3518619 L24.0659644,32.2972142 C23.6408584,30.7331851 21.9157354,29.7012434 20.344268,30.2487366 C18.508475,30.8881896 18.5616726,32.8231395 17.2740051,33.9503592 C17.1227243,34.0828478 16.9412824,34.1039417 16.7598405,34.016485 C15.3921391,33.3568861 15.6379406,31.3716901 16.1255064,30.235464 C16.7650653,28.7444339 18.0080848,27.4183628 19.5769398,26.8962297 Z M15.6565835,18.1725305 C17.9892044,15.797216 24.0717829,13.4986928 25.6674741,17.8850374 C25.9714606,18.7204977 25.324302,19.8470064 24.4527159,20.0202607 C23.0254046,20.3037247 21.7591111,19.6853655 20.3412994,19.7962862 C19.1935131,19.8865871 17.9963291,20.2693582 17.0786701,20.9789663 C14.5370585,22.9442534 13.9780085,26.2683191 12.20705,28.7697229 C12.1208414,28.891546 11.9534114,28.8403519 11.9374996,28.6967238 C11.5342426,25.0550647 13.1016726,20.7739526 15.6565835,18.1725305 Z M46.0778355,15.8342133 C47.6257913,15.2886162 49.3787006,15.3353072 50.9347311,15.8192817 C52.5021612,16.3070483 53.9411094,17.2332835 55.0497099,18.4434567 C55.5527125,18.9928459 56.0181917,19.5991176 56.391525,20.2444959 C56.5898287,20.5865014 56.7983444,21.2930283 57.0237218,21.7137211 C58.2431094,22.416315 58.7643027,24.0173402 57.6725954,25.1563543 L57.6233825,25.2063008 L57.4773265,25.3508769 C56.8904902,25.9306035 56.0056047,26.1818341 55.204553,25.9502753 C53.411983,25.4326454 53.1942053,24.0236208 52.5736455,22.5280875 C52.1637388,21.5402297 51.4614826,20.6661367 50.6100831,20.0240766 C48.5978355,18.5072124 45.2983953,18.023949 42.8757659,18.7387712 C42.7468092,18.7769298 42.5952909,18.6129189 42.6871993,18.4939398 C43.1462663,17.9004667 43.4108295,17.4134111 44.0254521,16.9346509 C44.6493367,16.4487803 45.3302188,16.0977685 46.0778355,15.8342133 Z" id="ðŸ–-Ink"></path>
                    </g>
                    <g id="facial-hair/*-None" transform="translate(29.211196, 80.109389)"></g>
                    <g id="accessories/*-None" transform="translate(11.162002, 57.119417)"></g>
                </g>
            </g>
        </g>
    </g>
</svg>