<?xml version="1.0" encoding="UTF-8"?>
<svg width="249px" height="686px" viewBox="0 0 249 686" version="1.1" xmlns="http://www.w3.org/2000/svg" xmlns:xlink="http://www.w3.org/1999/xlink">
    <!-- Generator: Sketch 62 (91390) - https://sketch.com -->
    <title>peep-standing-7</title>
    <desc>Created with Sketch.</desc>
    <g id="Introduction" stroke="none" stroke-width="1" fill="none" fill-rule="evenodd">
        <g id="variations-standing" transform="translate(-992.000000, -86.000000)">
            <g id="a-person/standing" transform="translate(973.000000, 50.000000)">
                <g id="pose/standing/blazer-1" transform="translate(-28.736217, 150.264357)">
                    <path d="M90.4971399,142.432456 C98.3266904,159.809083 108.006283,175.172547 119.469184,190.515865 C118.66552,154.261389 117.973238,117.812091 116.788404,81.2246162 C109.529303,95.3625014 101.794748,108.15654 91.4691841,122.191799 C83.3743579,130.827971 87.1487769,134.41251 90.4971399,142.432456 Z M64.8292858,566.588919 C63.9220763,565.307169 64.4590399,563.677725 65.7139338,562.846531 C63.0419406,557.095245 71.0935437,552.655573 75.0565293,548.326348 C84.0642646,538.571015 98.2547311,524.587424 99.5179372,512.269539 C103.813645,484.323923 106.268811,456.279712 113.147691,428.66117 C117.234646,411.119347 128.581415,397.043796 133.651338,379.811982 C142.468132,334.271927 131.078314,288.602872 133.047576,242.608706 C108.19906,240.175324 111.417106,243.269083 114.07865,222.636175 C112.415511,221.483832 110.795359,220.262994 109.281126,219.033386 C105.314103,221.14633 100.63105,226.326658 96.2626701,226.052675 C94.8800068,225.729867 93.8832638,223.999457 92.9347311,222.513404 C85.9197693,211.470633 79.3987854,200.676011 73.0145954,189.547442 C37.710134,133.975464 45.6954775,121.391654 78.6267074,68.1205688 C92.4953757,47.5469134 109.530253,17.6087548 135.950711,15.5313619 C139.140193,15.533969 142.503043,15.3642698 145.250558,13.3617721 C145.270032,10.1728022 146.902297,9.14394166 151.043162,8.561134 C153.374833,8.32199088 155.204451,6.96463446 157.48055,7.51852689 C159.104502,2.1059289 158.778904,-2.24676026 160.541075,-7.60223883 C166.577344,-16.7420565 186.159769,-12.1819836 193.330524,-9.31558432 C202.241364,-6.22236645 193.764892,7.62162625 199.58077,13.9436317 C200.848489,14.6503956 202.168217,14.989083 203.857954,14.9883719 C211.06267,13.3871322 214.573713,22.0233036 217.979549,27.7198396 C227.728489,28.9198213 235.034612,30.3646345 239.519362,33.8728569 C243.632679,36.972711 246.656394,41.958691 250.676377,52.2698122 C259.094663,70.6589462 264.614392,88.9224649 267.052696,106.540368 C269.174426,118.479037 275.069625,128.811015 279.801601,139.654698 C291.41887,167.888518 296.433934,186.588846 293.652933,211.439347 C290.703552,210.911763 287.729947,209.841426 284.625249,209.441827 L283.370355,212.406111 C283.290796,212.346385 283.258022,212.280259 283.25256,212.261535 C279.609472,237.134789 289.603264,287.783358 256.998582,281.118873 C254.121873,308.491635 244.94647,332.824981 233.906063,355.71375 C229.441025,364.324799 224.95105,373.42551 225.025622,383.537068 L226.706334,383.574516 C226.992034,383.580915 227.083705,383.638983 227.084655,383.639457 C227.404553,383.717433 227.03312,386.208882 226.674511,387.618144 C221.400109,406.22035 216.838887,424.82066 212.74362,443.647552 C211.879159,446.184507 211.505825,453.013951 209.505215,454.172219 C209.592373,455.104616 206.833269,456.932201 206.620003,456.872948 C207.100682,460.465309 205.359125,462.072948 205.417785,465.720058 C205.408285,465.63355 207.864638,465.761061 207.75753,465.687114 C209.224027,465.687351 210.88574,468.7955 210.905927,470.901572 C211.039634,473.439001 208.891542,475.82427 208.140601,478.313823 C206.976427,483.776667 207.158107,489.314407 206.640142,494.811854 C211.528862,495.918928 210.431661,501.107077 206.14474,501.362574 C206.14474,501.362337 205.363922,508.611052 205.518053,512.22427 C208.459121,512.576467 209.76574,515.193057 210.737072,517.223048 C214.354511,517.26334 217.740159,518.906768 221.099209,520.618691 C228.929235,524.449247 236.618904,528.461353 243.593493,532.525364 C249.747081,536.609521 263.160007,541.100387 256.195868,549.690578 C256.30155,549.912182 254.701584,553.898454 252.543043,553.535355 C241.894256,554.568007 201.399701,545.788919 192.031457,543.841881 C188.851949,543.087242 174.938158,541.278144 180.716275,536.589612 C178.562958,530.585911 178.46801,519.194261 184.963345,517.803486 C185.594117,512.16241 190.350555,510.182191 195.094643,512.269539 C195.064719,508.211927 195.31812,504.69931 195.360631,500.639565 C193.07717,500.339274 190.548811,499.493276 189.888828,497.764525 C189.263043,496.810086 189.505757,493.561152 191.856902,493.537214 C191.925774,493.532474 193.624536,493.613768 193.692933,493.612346 C193.42077,487.044562 193.994545,481.47056 193.009439,474.891161 C192.481262,472.706877 190.753052,472.350888 189.62189,471.226986 C188.560075,467.958855 191.825316,465.319274 194.618904,464.769411 C195.330185,461.447005 193.828302,457.92788 194.618904,454.66757 C192.79736,454.607132 191.375274,454.513987 190.192102,453.409758 C189.678412,452.907296 188.837462,453.059694 188.183891,453.015136 C187.550507,446.155592 183.264061,440.297178 182.313154,433.698819 C180.973713,425.887916 183.498226,417.737615 184.402585,409.77716 C185.135003,403.156758 183.967505,396.382064 183.384231,389.879694 C159.378802,428.125054 126.963399,464.981535 121.159871,511.537178 C120.541924,515.120769 120.167165,519.129557 123.477768,522.639438 L123.619786,522.67973 C124.461449,524.366768 124.990338,527.58252 125.594036,529.32241 C128.720346,531.787789 125.850762,536.522301 123.592475,538.656102 C122.907556,539.435154 122.323569,540.33911 121.698022,541.155847 C109.901449,555.220733 108.566996,571.112492 85.9221442,570.040022 C80.3551552,569.692328 67.3283868,569.868901 64.8292858,566.588919 Z" id="ðŸŽ¨-Background" fill="#FFFFFF"></path>
                    <path d="M159.609215,-5.44615861 C161.520767,-6.73999635 158.799138,4.48574658 158.794388,5.56556427 C158.326534,7.90224613 157.497696,10.6965943 155.500411,12.2136955 C156.390758,19.4901404 157.499121,26.7440693 158.86326,33.9449079 L159.665601,34.0501853 C171.568733,35.6257186 183.549853,37.7915833 195.652506,36.6631759 C202.174677,36.7150811 206.487722,32.2581076 209.120767,26.7326928 L208.576916,24.7870775 L208.576916,24.7870775 C200.30231,19.7129298 194.026891,9.44091522 197.759274,-0.262749316 C198.001513,-0.892958979 199.010843,-0.636988149 198.789978,0.0216627165 C197.223735,4.401134 197.882293,9.3363938 200.105669,13.3558469 C201.494982,14.092948 202.974541,14.0431759 204.4636,13.9957739 C211.647179,12.9467675 215.768807,21.0901951 218.862582,26.1638687 L221.568888,26.5637653 C231.922351,28.0998387 241.907128,29.9181076 247.0198,40.5098487 L247.486991,41.5012938 C254.718662,56.878018 261.478324,72.6906635 265.417628,89.2583081 C267.379291,97.977907 268.089384,106.962957 270.967281,115.467114 C276.942751,131.258618 285.363176,146.098764 289.928909,162.447242 C292.76192,168.34571 300.734677,212.749539 292.869028,213.086804 C290.040529,212.240678 287.159783,211.555482 284.248163,211.069612 C284.697018,211.411143 284.860885,211.991818 284.775389,212.584343 C283.758935,219.701517 283.682938,226.911362 283.687688,234.088737 C284.104007,251.316521 284.046297,287.737852 258.347569,283.099329 C256.241988,304.167624 249.047247,324.551198 241.050741,344.055938 C236.298816,356.627187 227.084227,368.094917 226.62136,381.904069 C229.803481,381.951945 228.571623,385.995336 228.179291,387.945455 C227.109164,392.719074 225.715813,397.41685 224.305601,402.102064 C219.336848,418.895409 216.372506,436.251417 212.117883,453.237214 C211.887518,454.054662 211.500411,454.611872 211.006433,454.988718 C210.924024,456.751599 208.245618,457.77406 206.736373,457.181061 C206.949164,459.321624 206.890155,461.483812 206.919699,463.630673 L206.926365,464.033021 L207.389469,464.028044 C209.405992,463.509703 211.444126,466.768117 212.01315,468.443541 C213.927077,473.126385 209.4884,476.561845 209.158765,481.01953 C208.857391,485.256795 208.457696,489.453057 208.275304,493.701699 C213.812607,495.859912 211.358154,503.082082 205.938409,503.00932 C206.19181,505.642975 206.226008,508.299858 206.337391,510.937068 C208.696848,511.555191 210.463294,513.540861 211.623905,515.613513 C216.39103,515.93561 220.741123,518.751763 224.987433,520.744543 C231.554015,523.97973 238.013727,527.437706 244.350182,531.104489 C250.517544,535.210213 264.249418,539.859165 258.247824,549.34715 C259.758467,550.646905 258.703227,553.196434 257.326465,554.259844 L257.278867,554.29592 C255.910928,555.364598 254.101259,555.364598 252.419834,555.189211 C232.887518,555.677451 212.306212,549.620897 192.883617,545.666148 L190.924945,545.316467 C186.828922,544.576299 182.667936,543.71012 179.035372,541.722301 C177.438019,540.421116 177.046399,537.251107 178.681751,535.972438 C177.005313,529.915883 178.517408,519.27911 185.150962,516.938162 C185.939902,512.443504 189.574439,509.226804 194.204058,510.593641 C194.227094,507.718235 194.461021,504.8753 194.512794,501.99942 C192.218646,501.568299 190.102616,500.676904 188.996153,498.501152 C187.779257,496.334881 189.099223,492.697251 191.862412,492.817889 C191.955983,488.336266 191.702107,483.931198 191.665296,479.457634 L191.66149,479.187948 C191.646741,477.739705 191.70525,476.141487 191.090572,474.812 C190.45885,473.439712 188.777425,473.304853 188.031471,472.001298 C186.396119,468.497105 189.670623,464.384744 193.045109,463.442629 C193.468078,461.095993 193.249588,458.610943 193.674456,456.242501 C191.876662,456.13798 190.344855,455.720842 189.043413,454.701936 C188.143091,454.564707 186.552149,454.965728 186.450029,453.673313 C186.084295,448.404343 183.422039,443.709411 181.745601,438.795956 C178.283006,429.23355 181.424991,419.248317 182.628824,409.57736 C183.196424,404.643048 182.597951,399.689302 182.092098,394.74788 C159.243718,430.479274 129.940139,465.031781 123.168604,508.14035 C122.793133,512.99076 120.808434,516.98509 124.294304,521.168791 C125.467976,521.517196 126.460919,526.98715 126.913812,528.376266 C130.485415,531.675446 127.370979,537.561827 124.265805,540.115373 C122.778171,542.678162 120.788723,544.926676 118.927281,547.22117 L118.327816,548.225636 C114.385088,554.812362 110.173969,561.417593 104.827535,566.936376 C95.8316743,573.589484 80.7615471,571.697244 70.1704699,570.500295 L69.3358876,570.364433 C67.1032847,569.9953 64.6038188,569.472136 63.314151,567.480551 C62.2122002,565.781189 62.3594436,563.577232 63.7297574,562.302119 C62.3698931,558.391927 65.4681798,554.546202 68.3821747,552.146002 C79.6752706,542.146312 89.4109109,530.387533 96.9948974,517.35293 C99.9012926,496.274443 102.885584,475.203067 106.117103,454.170797 C108.724974,436.772839 112.697459,419.346676 121.085822,403.737433 L121.834151,402.315387 C125.765724,394.859289 129.705709,387.533779 131.934575,379.332747 C136.553744,362.153076 135.447281,344.173021 134.807722,326.586166 C133.984584,299.140879 132.026008,271.682556 132.281072,244.215701 C127.109028,243.674133 113.078867,244.002629 110.871165,238.695737 C110.147535,233.637943 111.843922,228.487716 112.227467,223.434425 C111.135016,222.671253 110.068689,221.868026 109.03086,221.042994 C107.107196,222.476904 105.121785,223.827861 103.081751,225.088518 C98.202056,228.597214 94.4278745,229.156558 91.4091467,223.38963 C82.6697744,209.597305 74.2412757,195.603285 66.2872807,181.344051 C58.9094351,167.66478 49.7656183,154.014188 47.8927769,138.264397 C45.1701985,109.924871 78.467637,64.5538049 95.1398677,41.5266217 C105.488468,29.0233947 118.904719,15.6979799 136.080902,14.9677521 L136.300162,14.9581425 C138.559327,14.8701393 141.710117,15.0565292 143.542819,13.571526 C143.898341,8.45590155 149.158494,8.47818049 153.066144,7.63442479 C153.875271,7.01582862 155.103566,6.86793437 156.139257,6.92126162 C157.541157,2.89706837 157.861293,-1.55374294 159.609215,-5.44615861 Z M111.341632,521.003121 C107.054236,518.77262 101.939189,518.596995 97.4271281,520.358217 C91.8340153,530.711526 84.67181,540.162064 76.5349483,548.647497 C73.5656183,552.789721 62.4055165,558.25138 67.9713181,563.840077 L69.1017091,564.046471 C77.5225314,565.568576 86.0689907,566.746659 94.6461272,566.05612 C100.333048,564.482137 104.924431,560.275209 108.541869,555.725327 C113.033981,549.911708 116.742616,543.512438 120.85047,537.423176 C124.538918,531.179147 126.483718,531.095719 123.591335,523.678964 C123.586585,523.823304 123.550962,523.97262 123.47734,524.119566 C122.456136,526.17705 119.321276,525.989812 117.55198,525.214552 C115.245958,524.202757 113.569282,522.173714 111.341632,521.003121 Z M70.8283155,565.760095 C70.9138117,565.800387 71.0016828,565.840441 71.0895539,565.8786 C71.153676,565.8786 71.2177981,565.880733 71.2819203,565.883103 L70.8283155,565.760095 L70.8283155,565.760095 Z M233.41617,528.491927 C227.058103,525.650414 215.397137,517.364543 208.902277,518.628044 C204.104041,520.091818 199.680088,522.718837 194.565042,523.093787 L194.345196,523.102166 C190.695326,523.261387 184.205996,524.472019 182.833065,520.18757 C181.016034,523.655737 180.419461,527.944434 180.446534,531.867424 C180.371013,535.20808 181.902344,537.855956 185.459698,538.122119 L188.752785,538.950049 C209.619079,544.183936 230.681135,549.177771 252.184719,550.723942 C257.828892,547.207661 257.968536,542.574115 251.982853,539.361918 C245.938748,535.503158 239.718901,531.905582 233.41617,528.491927 Z M110.517544,447.750195 C106.780411,471.104926 104.27086,494.594279 100.652234,517.959675 C113.272658,514.800569 117.004092,526.122064 121.69617,522.960824 C118.405042,518.640605 118.802124,515.376029 119.77488,510.349521 C121.705669,493.401644 128.02455,477.27643 135.860037,462.229138 C136.752997,460.508682 137.669707,458.79984 138.59829,457.097871 C128.52399,458.012492 117.679274,455.143249 110.517544,447.750195 Z M188.33332,514.350013 C187.466246,515.689356 187.125449,517.308609 186.849011,518.857943 C186.706517,519.659274 186.784889,520.839347 186.499902,521.737615 C191.91941,521.896886 197.372166,520.64097 202.254948,518.315191 C198.376984,518.037889 189.840665,518.695355 188.33332,514.350013 Z M184.963345,517.803486 C184.436119,518.177962 183.980139,518.611453 183.585907,519.092583 C183.452913,519.839402 183.84002,520.654479 184.466992,521.116649 C184.592862,520.022374 184.74533,518.890177 184.963345,517.803486 Z M195.550623,502.165327 C195.567247,505.543431 195.773388,508.878873 195.735864,512.255081 C195.730402,513.428281 196.078799,514.906986 195.360631,515.902428 L196.501107,516.02161 C199.360478,516.316581 202.276113,516.565638 205.13332,516.238983 C205.225466,511.843395 205.228078,507.427187 205.518053,503.032784 C201.99466,503.010742 199.019155,502.419639 195.550623,502.165327 Z M206.46801,515.627497 C206.46326,515.764963 206.460885,515.904799 206.465635,516.039894 C206.876492,515.961681 207.284974,515.871617 207.688706,515.762593 C207.357408,515.731307 207.016373,515.787242 206.69125,515.672766 C206.616204,515.663996 206.539257,515.654042 206.46801,515.627497 Z M194.16131,515.103705 C193.799851,515.510888 193.095932,515.58602 192.650877,515.312273 C192.560631,515.331234 192.470385,515.343085 192.375389,515.347825 L192.294643,515.345692 L192.294643,515.345692 L192.603812,515.424622 C193.248851,515.585542 193.748331,515.683905 194.410673,515.77942 C194.294304,515.570851 194.215932,515.343085 194.16131,515.103705 Z M208.990148,515.084744 C208.907026,515.2388 208.793031,515.369156 208.652913,515.473677 C208.812031,515.421298 208.973523,515.369156 209.130266,515.309903 C209.087518,515.23406 209.04002,515.158454 208.990148,515.084744 Z M190.306857,514.158035 C190.368366,514.296448 190.50136,514.511654 190.653591,514.625181 C190.518222,514.482738 190.399478,514.326549 190.306857,514.158035 Z M206.377764,511.979912 C206.380139,512.062866 206.382514,512.143449 206.387264,512.22427 C206.431199,512.182793 206.48131,512.13468 206.544007,512.110268 C206.487009,512.067843 206.430012,512.024944 206.377764,511.979912 Z M191.845788,493.557123 C189.189232,494.420077 190.119003,497.749356 192.130775,498.840077 C194.318053,500.281098 197.62153,500.055938 200.132268,500.273987 C202.830148,500.463121 209.904719,501.935191 208.655288,497.230778 C208.465296,496.891854 208.211182,496.676175 207.930945,496.503395 C207.907196,496.562647 207.881072,496.616923 207.854948,496.671672 C207.745466,499.957579 196.77298,498.179056 194.878765,496.927406 L194.759006,496.875155 C193.164008,496.189088 191.654175,495.906644 191.845788,493.557123 Z M195.094643,455.033513 C195.670555,457.609575 195.481513,460.288263 195.845109,462.871435 C196.073099,463.620387 195.780987,464.120715 195.313133,464.376686 L195.648623,464.474588 C198.557115,465.30649 201.49032,465.698973 204.518222,465.021353 C204.181462,462.313987 204.936441,459.248026 205.316187,456.510086 C205.377934,456.197232 205.404058,455.886986 205.47293,455.602337 L195.094643,455.033513 L195.094643,455.033513 Z M206.620003,455.66396 C206.670589,456.050523 206.664176,456.47169 206.707874,456.872948 C206.717374,456.85849 206.726874,456.844507 206.741123,456.835026 C207.121106,456.505345 207.465466,456.081335 207.828824,455.716339 C207.430317,455.70994 207.021835,455.686239 206.620003,455.66396 Z M189.865126,165.864926 L189.615763,165.914698 C193.958494,187.631453 197.376441,209.62551 198.559613,231.777178 L198.575674,232.102134 C198.693216,234.280788 198.988112,236.691186 197.536034,238.503522 C196.004227,240.416193 193.617459,240.657943 191.354185,241.006585 C172.20589,243.912328 152.784719,244.894498 133.428146,244.265473 C135.664346,274.041517 136.492472,303.905491 137.911946,333.729411 L137.975671,335.292566 C138.648249,352.1546 138.806621,369.474901 133.225805,385.602137 C124.306178,405.603413 113.194049,424.629156 110.667162,446.899566 C118.846534,453.083158 129.821157,456.882665 139.94248,454.656667 C151.973693,432.16726 168.127009,412.331891 181.498375,390.716339 C206.57298,347.244908 204.095254,294.665892 203.45902,246.459949 C203.369486,246.124343 203.706958,246.008208 203.687009,246.400696 C203.945873,246.377232 204.216611,246.498108 204.266721,246.79437 C205.792353,256.897634 205.248502,267.181736 205.183668,277.363686 C205.160156,284.959858 205.686195,292.849211 205.126195,300.306494 C204.333455,325.925145 201.127586,351.893149 191.56555,375.84633 C203.395372,378.489703 210.691997,390.782465 223.690741,382.593768 C223.692879,367.642228 233.634897,355.239967 238.795067,341.735847 C245.761717,325.452488 250.980773,308.451093 254.70815,291.148254 L255.103659,289.299259 C255.588715,287.038134 256.120467,284.692985 256.946382,282.521262 C255.960088,281.323176 256.808638,279.012565 256.782514,276.956029 C255.374958,276.955796 253.569131,276.371431 253.397673,274.751496 L253.390928,274.675993 C252.356187,263.290979 252.268791,251.588846 254.405245,240.326366 L254.103719,240.344551 C248.759906,240.657834 223.197557,241.726954 222.503294,237.434607 C221.550962,230.236613 223.852234,223.100478 224.322701,215.954388 C225.166738,199.807843 224.962972,183.598727 224.852064,167.431325 C219.723243,168.110833 214.798663,167.132456 209.72399,166.96963 C203.283897,166.493394 196.651301,166.926469 190.288882,165.933278 L189.865126,165.864926 Z M269.799308,210.050469 C269.542819,210.351708 269.262582,210.533969 268.977595,210.626403 C268.979969,217.468882 267.597781,224.197834 263.810063,230.123085 C262.146925,232.321827 261.253252,234.855701 260.456475,237.465418 C260.685415,238.174789 260.397578,238.992 259.862751,239.397287 C256.362395,250.028372 256.001411,261.410778 257.293116,272.452839 C261.22974,266.683067 262.791708,259.797925 263.892947,253.008536 C263.952319,252.667479 264.517544,252.671982 264.579291,253.008536 C265.885958,260.266257 263.671606,267.516394 260.812709,274.150067 C259.226042,275.487278 259.568265,278.529539 259.383023,280.423486 C288.40209,284.649375 278.31069,228.974771 282.027637,211.828044 C282.096509,211.356394 282.497866,211.012966 282.953846,210.86839 C278.601377,210.204525 274.190962,210.155701 269.799308,210.050469 Z M152.38455,8.85526345 L151.882207,8.98201233 C146.58917,10.3056468 145.182494,10.3343245 144.846161,16.5531121 C143.528095,25.3333856 138.66265,32.9918906 136.475372,41.4820638 C135.600461,44.4800036 136.526195,50.0058924 140.673947,49.1943701 C142.018137,48.7819727 143.065466,50.5924923 142.049011,51.5523829 C139.04477,54.392 136.1284,57.3188368 133.195406,60.2271869 C144.97298,99.9500675 160.272522,138.641243 178.90974,175.657943 C179.648332,177.127406 177.432556,178.41911 176.698714,176.949648 C158.170986,139.81436 142.761588,101.136178 130.801658,61.4028707 L130.440292,60.1985087 C129.911878,58.7356828 136.666076,53.493258 137.895321,51.7825196 C125.579834,45.8541878 142.731318,25.107515 143.231708,15.131052 C139.666042,16.5303592 135.711606,16.0473327 131.98896,16.6550264 C124.835779,17.9085725 118.55751,22.0379982 112.976984,26.4952088 C90.3088584,46.4962479 75.8227176,74.1882625 61.332302,100.288992 C51.4636675,117.31911 46.7069924,138.135938 56.6093503,156.251799 C68.1002748,179.478071 81.4296047,201.865327 95.5224631,223.598199 C97.0706565,225.607333 99.4503003,223.300514 101.08209,222.453203 C110.455084,216.824689 118.582684,209.167843 124.833405,200.214552 C108.443549,179.6819 93.1957795,157.250797 84.6995963,132.268281 C84.0206141,126.190633 92.5469584,119.14788 95.6578321,113.867059 C102.5284,104.40159 108.946551,94.6035953 115.074965,84.6487001 C114.882124,83.6648715 115.289656,82.5822097 116.333659,82.612784 L116.938578,81.6042473 C121.605931,73.8457265 122.131155,73.5538151 117.494982,83.0367949 C119.853014,118.117834 119.460444,153.877907 120.480224,189.179603 C123.237476,192.82695 126.075474,196.412912 128.979969,199.941991 C138.401649,193.453841 149.485042,189.222501 160.867908,187.911362 L161.302546,187.868383 C166.099247,187.383202 174.410813,186.271651 175.058137,192.675737 C174.274185,200.392073 158.31561,196.054078 153.213388,200.430232 C161.577289,203.798618 171.161649,204.747843 178.840869,209.825546 C181.303871,211.26159 186.132743,215.836831 181.415254,217.587624 C179.356696,217.763486 177.230928,216.964525 175.174032,216.788664 C177.488841,217.56819 179.617934,218.888335 180.973523,220.957907 C181.949605,222.37736 182.662073,225.323632 180.329927,225.930614 C175.013489,226.080642 169.718901,224.348335 164.48226,223.486804 L164.947465,223.675546 C168.764915,225.237235 174.698578,228.042175 169.557408,232.178436 C164.410063,234.840769 158.178816,230.311745 153.052132,229.102994 C139.242361,225.892219 129.02723,234.691216 114.870724,225.164835 C114.473167,229.360387 113.202599,233.67705 113.592794,237.876157 C116.993642,241.057068 127.601581,240.951836 132.340444,241.373714 L132.344897,241.340682 C132.392875,240.880562 132.163885,238.692699 132.872421,239.63643 C132.938918,240.226822 133.010165,240.81437 133.083786,241.404525 C150.316258,241.902111 167.615932,241.323162 184.720464,239.100863 L185.443074,239.005984 C188.069707,238.655446 190.815084,238.425309 193.393981,237.799366 C196.031301,237.445036 196.036763,234.635282 195.756526,232.566658 C192.134813,156.178326 161.079511,84.3493564 152.38455,8.85526345 Z M201.195746,15.1644704 C201.806093,16.0722188 202.482938,16.9370684 203.214405,17.75499 C204.338443,16.0124923 207.084295,15.0284266 207.859936,17.6243974 C208.737459,20.2952634 209.99354,23.0412616 210.030351,25.8702133 C227.980275,84.3737685 228.435542,146.582975 228.086195,207.265601 C228.623634,216.890815 225.637442,226.312675 225.913642,235.884562 C235.745703,237.299511 245.720258,237.420624 255.592692,236.373039 C255.884804,235.60726 256.214914,234.853805 256.589198,234.11386 C271.367688,216.100624 263.5303,193.527077 256.414405,174.015464 C252.111573,174.197251 247.783091,173.924689 243.475983,173.977542 C244.806874,178.095355 245.149808,182.452073 245.858002,186.709958 C246.340254,189.744057 246.955885,192.754408 247.662822,195.742379 L247.852748,196.538999 C248.119368,197.640818 248.473031,198.830292 248.085652,199.923267 C247.705669,201.001663 246.394728,201.437524 245.525279,200.598509 C243.958324,198.812401 244.126466,196.151015 243.620614,193.936157 L243.495549,193.006528 C242.637595,186.719953 241.548237,180.207234 243.1055,173.975172 C241.558019,173.642884 237.327858,174.862775 237.106042,172.783012 C237.171115,169.348026 234.679138,161.905674 237.453252,159.643413 C239.103803,158.384653 241.941802,158.783067 243.87734,158.704853 C246.11449,158.614789 248.349265,158.531599 250.584041,158.546057 C232.624349,115.153156 237.618849,101.796041 239.441429,58.6108371 L239.495661,57.2930027 C239.490911,57.0085907 239.949265,56.9374877 239.999138,57.2242698 C242.745466,74.9132762 239.084804,92.8227019 240.818952,110.56788 C243.898477,144.283504 265.267773,173.230961 268.839851,206.78447 C276.545907,205.890943 284.338646,206.987114 291.80745,208.920168 C291.964193,207.55736 292.085313,206.189575 292.170809,204.822264 C293.588146,179.777178 284.798663,155.453787 274.542684,132.991161 C268.396696,121.068135 264.59734,108.342593 263.007111,95.0368496 C259.919749,77.7062024 252.991471,61.3811887 246.085517,45.2820456 C241.719749,33.2445433 232.282395,30.4061112 220.57963,29.0079891 C224.526704,35.5497028 228.450029,42.1054002 232.366466,48.6658377 C233.239953,50.6498487 230.56131,52.0659836 229.392862,53.2875333 C243.769282,61.1259289 235.374982,85.332 235.672319,98.8951358 C234.605042,111.358545 234.202497,123.89282 232.321106,136.269484 C232.183362,137.12746 230.867671,136.875993 230.855321,136.072529 C231.029164,117.527679 233.240665,99.0579617 234.211522,80.5434494 L234.353367,78.9155456 C235.100539,70.162526 235.716079,57.756528 225.284295,55.3753546 C223.861734,55.1433218 223.752489,53.0291923 224.894813,52.3940055 C226.414745,51.5478797 227.74706,50.5142789 228.939257,49.2844339 C222.925075,39.6295934 217.68036,29.4583081 211.350792,20.0139325 C206.851556,14.2517448 207.273574,16.2836317 201.195746,15.1644704 Z M172.143905,192.205747 C170.980682,188.780952 159.693523,191.011453 156.680733,191.383796 C145.570979,193.481098 134.389978,198.396686 125.928231,205.967023 C125.405754,206.433933 124.788282,206.426585 124.301428,206.172985 C120.511335,211.013677 116.134643,215.40097 111.334507,219.255938 C112.213218,219.948007 113.115678,220.618746 114.044261,221.261043 C114.488366,221.308445 114.889723,221.538345 115.070215,221.950742 C128.277238,231.518363 137.99293,224.055391 151.712455,225.778928 C156.835101,226.811581 161.552115,230.069046 166.830792,230.206038 C170.704719,229.325309 167.293897,227.706294 165.484465,227.079639 C161.11466,224.99415 156.653912,223.104972 152.188731,221.232919 L149.67717,220.180514 C148.031369,219.490578 148.596594,217.004343 150.434762,217.438071 C153.652743,218.196503 156.880224,218.917014 160.11008,219.625911 C166.32114,220.892729 172.680869,222.51767 178.957238,223.133659 C177.561988,219.256412 162.758561,215.068919 158.454541,213.52788 C156.828926,212.760204 152.192658,212.906202 152.721785,210.386786 C153.149265,208.04252 158.082633,210.727132 159.727722,210.917925 C166.442022,212.621079 173.295729,213.653021 180.137561,214.691125 C172.788689,207.319876 161.397272,206.683741 152.011691,203.23169 L151.753857,203.173078 C150.084511,202.784523 147.798321,202.052067 149.155169,200.155774 C153.977391,193.047606 172.950894,196.644707 172.143905,192.205747 Z M158.257662,152.627632 C161.680835,149.820011 163.514253,155.587413 163.297187,158.268707 C163.45868,160.494232 163.632047,162.719519 163.777154,164.94528 C163.564838,166.685407 165.419868,173.028744 162.938578,173.086574 C152.093863,172.536 141.267433,172.675125 130.419155,172.022162 C130.404906,174.210002 130.298036,176.394997 130.409893,178.585207 C130.350758,181.323621 131.302616,184.058954 130.746891,186.766556 C130.407281,188.010859 128.713981,188.179136 128.053286,187.117568 C126.071437,182.456766 127.433676,176.444769 128.837476,171.730877 C120.685415,169.704204 124.572641,163.020047 124.59354,157.289619 C124.581666,157.137933 124.733659,157.059719 124.857391,157.088397 C126.888638,159.923274 124.243243,163.709036 125.403379,166.791588 C126.566127,170.060961 131.388386,169.86868 134.302095,169.906781 L134.655966,169.91301 C143.612879,170.06683 152.563854,170.435854 161.520767,170.609582 C161.138409,167.595052 161.033913,164.504441 160.803786,161.492044 C160.513812,159.326009 160.932031,156.758716 159.829842,154.817604 C154.84969,156.436146 149.664109,157.08105 144.428655,156.97961 C138.186958,157.147887 131.627026,157.70889 125.524499,156.964915 C134.271233,155.613721 143.935864,155.811624 152.850029,154.097094 C154.6217,153.638716 156.430419,152.714614 158.257662,152.627632 Z M115.200835,87.5447256 C109.803888,97.8397302 103.600427,107.635355 96.9925225,117.173349 C95.5770857,119.209265 94.1236506,121.219347 92.6469415,123.214735 L92.4648624,123.448213 C89.4863941,127.247494 86.3287925,130.368546 89.1458728,135.39231 C96.4522341,153.133459 106.23466,169.794552 117.568604,185.25685 C116.850198,152.68551 116.215864,120.1054 115.200835,87.5447256 Z M250.783532,159.067242 C237.233574,161.906148 236.979936,156.589776 239.241547,171.635883 C244.676017,171.673094 250.107162,171.55056 255.542819,171.638253 C253.989639,167.436303 252.379461,163.252839 250.783532,159.067242 Z M205.629673,17.9040693 C205.062548,17.8955369 204.193574,18.228773 203.615763,18.1932215 C204.728268,19.3798122 205.953047,20.4581625 207.242081,21.4091047 L207.46989,21.5752745 L207.366703,21.3775451 C206.820807,20.3107237 206.368192,19.0829253 205.747988,18.0878271 L205.629673,17.9040693 Z" id="ðŸ–-Ink" fill="#000000"></path>
                </g>
                <g id="Head" stroke-width="1" transform="translate(95.945717, 42.661805)">
                    <g id="head/Buns">
                        <path d="M94.3321617,41.1641898 C86.5011952,30.0945715 66.8223836,28.8475948 54.3852753,28.9177479 C29.823963,28.7136001 24.6811068,56.8881843 23.3984382,76.6310507 C20.7786413,77.075758 18.2309796,77.9872622 16.5023628,80.0418486 C14.3973053,82.5438125 13.6702209,86.8381991 15.6436675,89.6363108 C16.9545213,91.4942745 19.0242278,92.115214 21.1892386,92.218623 C28.3590456,91.5357837 29.8294567,97.913886 33.3607365,102.696431 C42.4223006,114.913258 58.1203012,118.876299 72.5181965,118.936985 C77.4085796,119.066853 83.2997785,119.433154 86.4316874,114.841163 C96.3235226,97.729886 96.5389727,75.035979 97.1487777,55.6448488 C97.2326169,50.6804883 97.2113586,45.4250777 94.3321617,41.1641898 L94.3321617,41.1641898 Z" id="ðŸŽ¨-Background" fill="#FFFFFF"></path>
                        <path d="M50.9699033,-5.25813856 C51.8552638,-6.59345305 53.7979271,-7.11108295 55.1447294,-6.12061805 C56.2661544,-6.81316135 57.6768414,-6.66716317 58.6847464,-5.82506655 C59.903542,-6.54391796 61.4170619,-6.25381768 62.3729567,-5.25150228 C63.9045259,-6.08672562 65.9260356,-5.46978851 66.7460865,-3.88727256 C68.2916675,-4.0583938 69.74819,-3.04873108 70.1602341,-1.58732726 C70.2331433,-1.52831176 70.3051026,-1.46740018 70.3770619,-1.40672562 C71.3030331,-1.36240474 72.1829313,-1.00025342 72.7018456,-0.140855059 C72.9611841,0.2883701 73.0808787,0.792727438 73.0633045,1.28689335 C73.6168923,1.58552598 74.0640848,2.07542571 74.2557388,2.71037557 C74.4352807,3.30574476 74.3675963,3.89471468 74.1315318,4.40784139 C74.9024224,5.22623701 75.1061883,6.50182498 74.5599627,7.52973747 C74.7860526,7.91653783 74.9036098,8.37373017 74.8850857,8.84893528 C74.8577744,9.55261805 74.5307515,10.119783 74.0859338,10.6039945 C74.6452214,11.6112871 74.4272061,12.9034658 73.5180967,13.6097557 C72.9958575,15.4574859 71.6739915,16.6868569 69.6486819,17.4410228 C68.6315148,17.8197648 67.5673249,18.1115242 66.4827108,18.3257812 C70.8228295,18.9085889 75.0926514,19.9329462 79.1940933,21.4602388 C79.4173333,21.5434294 79.6066124,21.510959 79.7512434,21.4140219 C79.8407769,21.4614239 79.9322103,21.5050337 80.0215064,21.5536208 C81.1519559,22.172217 82.2586565,22.8429553 83.3368584,23.5610957 C83.3368584,23.4425907 83.3392332,23.3240857 83.343983,23.2032106 C83.323084,22.2279143 83.4259169,21.2673127 83.6854928,20.3413145 C83.345883,19.879382 83.0917693,19.3527457 82.9535505,18.8099927 C82.6084784,17.4557174 83.2648991,15.5285889 84.4440339,15.0659453 C84.8572655,13.9221349 85.797011,13.0944959 86.9488346,12.7688441 C87.040268,12.6866016 87.1374012,12.6067293 87.2459338,12.5325451 C87.4884105,12.3661641 87.7536862,12.2526363 88.026324,12.1867475 C88.1681052,11.5669663 88.5146022,10.9964831 89.0893265,10.5961732 C89.9003528,10.0309043 90.8595725,9.96951869 91.7021849,10.2778687 C91.8624902,10.2240675 92.0251705,10.1773765 92.1892757,10.1368478 C93.5458151,8.98450501 95.6601832,9.0693546 96.8538049,10.4177046 C97.6731433,10.0439398 98.6387752,10.0273491 99.4775878,10.5302844 C100.148733,10.9327274 100.566477,11.5816609 100.729869,12.293876 C102.000438,12.3327457 103.162711,13.1741313 103.529157,14.4298104 C104.69998,14.562062 105.657774,15.4764467 105.861065,16.6273674 C106.607969,16.7311778 107.297876,17.0814786 107.71752,17.778051 C107.911549,18.1001477 108.016757,18.4525816 108.044068,18.8054895 C108.421676,18.9863282 108.760336,19.2600747 109.016112,19.6177229 C109.464017,20.2443774 109.550463,20.9760273 109.385883,21.6645415 C109.423644,21.7408587 109.464729,21.8152799 109.501065,21.8925451 C109.622897,22.1513601 109.720743,22.4288988 109.807902,22.7107037 C110.201659,23.2773947 110.383576,23.970175 110.347478,24.6660365 C110.431074,24.9604029 110.512058,25.2554804 110.579267,25.5519799 C110.845255,26.7156992 110.945001,27.9552616 110.762134,29.1403118 C110.671888,29.713876 110.541269,30.2779599 110.356027,30.8254531 C110.337028,30.9297375 110.306154,31.0269116 110.270531,31.1193455 C110.168411,31.5507037 110.037791,31.9749517 109.871549,32.3897192 C109.472567,32.9182516 109.054585,33.4325634 108.61523,33.9302844 C108.244746,34.4848879 107.822015,34.9968295 107.344662,35.4661094 C107.000302,35.8050337 106.622694,36.1202571 106.221337,36.4046691 C105.42456,37.0419891 104.533025,37.5389991 103.58188,37.8622808 C103.412075,37.8267293 103.24132,37.7989991 103.070327,37.7717429 C101.990226,38.365216 100.290751,38.4322899 99.2514979,38.4282607 C98.106324,38.4239945 97.0575708,38.1353163 96.1855098,37.5899562 C96.2866802,37.7907037 96.3876132,37.9916882 96.4885462,38.1931468 C96.4633723,38.2076044 96.4362986,38.2206399 96.4144495,38.2374676 C96.225883,37.9257995 96.0154673,37.6489717 95.7675284,37.4498833 C95.429106,37.1775588 94.8833554,37.1531468 94.6487159,37.5937484 L94.6487159,37.5937484 L94.6363664,37.6169754 C94.5112095,37.8518523 94.5287837,38.0772489 94.6242545,38.2611686 C94.6591654,38.3111778 94.6938388,38.3616609 94.7285123,38.411907 L94.7285123,38.411907 L94.7662731,38.4545688 C95.0842714,38.7157539 95.4034572,39.3537849 95.7060187,39.9740401 C95.9107345,40.3364284 96.1054758,40.704031 96.2881052,41.0780328 C96.3947379,41.2349335 96.584017,41.3726363 96.785408,41.412691 C96.7459847,41.7113236 96.8837286,42.0201477 97.1098185,42.1732562 C97.1691908,42.0538031 97.2413876,41.9315059 97.334246,41.8054166 C98.3549754,40.4217521 100.360336,39.8247238 101.870531,40.4570665 C102.171668,40.4063464 102.474229,40.3643956 102.77964,40.3404576 C103.776621,40.2748058 104.787138,40.3530191 105.771769,40.5589809 C106.077418,40.7419526 106.36953,40.9479143 106.641693,41.1827912 C106.872058,41.3818797 107.085798,41.5904485 107.285289,41.8061276 C107.439657,41.9215515 107.591413,42.0438487 107.740319,42.1713601 C108.344017,42.4953528 108.78741,43.1167931 109.159793,43.7353892 C109.45523,44.1522899 109.713381,44.5952616 109.936858,45.0645415 C110.972312,46.8326363 112.167121,49.0278232 111.23355,50.7662917 C111.332821,50.9537666 111.406205,51.1613874 111.446816,51.387258 C111.575773,52.1042133 111.310972,52.6524175 110.963525,53.184742 C111.009123,53.5558997 111.034534,53.9156809 111.054246,54.2320893 C111.164916,56.0087165 110.756909,58.4439945 109.187342,59.1692452 C109.16288,59.1986345 109.137944,59.2277867 109.112058,59.2569389 C108.990938,59.4536572 108.806171,59.6238304 108.56322,59.7480237 C108.502897,59.7899745 108.441863,59.8297922 108.380115,59.8639216 L108.380115,59.8639216 L108.292244,59.9300474 C108.325018,59.8956809 108.356604,59.8598924 108.38914,59.825052 C107.520879,60.1706126 106.682304,60.2419526 105.787206,60.1369572 C105.233856,60.3365196 104.679318,60.4855989 104.211226,60.6010228 C102.750429,60.961041 100.866663,61.2492452 99.4429143,60.6353892 C99.0280204,60.4566837 98.6838982,60.2199107 98.4252723,59.9376317 C98.4466463,61.0373582 98.4789449,62.1368478 98.5266802,63.2365743 C98.6240509,66.0167019 98.6193011,68.7944594 98.5979271,71.5769572 C98.5741781,74.7078596 98.486307,77.8411322 98.3176896,80.9696645 C98.2393181,82.541041 98.1134487,84.1100474 97.9448312,85.6743136 C97.8023376,87.1982881 97.636095,88.7198924 97.4437286,90.2367566 C96.9901238,93.3558086 96.2420322,96.4985615 95.3300729,99.5133291 C94.9334656,100.821624 94.4988601,102.14651 94.0048821,103.440585 C93.7958914,104.03548 93.5750263,104.623265 93.335162,105.20631 C92.0693435,108.261369 90.4924139,111.209774 88.362134,113.755262 C87.198436,115.14414 85.9136183,116.393183 84.4791824,117.443138 C83.3273588,118.339036 82.0805394,119.097468 80.7102256,119.694733 C77.7653571,120.979327 74.4785038,121.268479 71.293771,121.221077 C70.0540763,121.204487 68.7383851,120.981697 67.5129398,120.777869 C66.5724818,120.623812 65.6201493,120.417613 64.6773164,120.175863 C63.8413537,119.981515 63.0148906,119.756356 62.200302,119.493274 C61.2194707,119.234933 60.2790127,118.862828 59.3836777,118.381697 L59.3836777,118.381697 L57.7972485,117.786802 C57.1346531,117.537942 56.4910568,117.241679 55.8664597,116.902755 L55.8664597,116.902755 L54.1422867,116.099291 C53.4274436,115.755626 52.7315997,115.37878 52.05238,114.964013 C51.9811332,114.926091 51.9003868,114.862098 51.8695131,114.790995 C51.693771,114.693821 51.5156539,114.601387 51.3399118,114.501843 C51.3114131,114.487623 51.3327871,114.404669 51.3707854,114.324086 C51.3399118,114.260093 51.3446616,114.18899 51.4301578,114.124997 C51.4942799,114.075225 51.5964003,114.089446 51.7032706,114.122627 C51.693771,114.115517 51.6866463,114.108407 51.6795216,114.101296 C51.5607769,114.037304 51.4444071,113.975681 51.3280373,113.911688 C51.2092926,113.847696 51.1902935,113.681789 51.3019135,113.594095 C51.3327871,113.570394 51.3684105,113.558543 51.4040339,113.556173 C51.401659,113.556173 51.3992841,113.553803 51.3969092,113.553803 C51.3755352,113.539582 51.3921595,113.47322 51.4230331,113.399747 C51.3636607,113.323903 51.3446616,113.231469 51.4491569,113.150886 C51.603525,113.030011 51.9645089,113.2528 52.0951281,113.326273 C52.2447464,113.409227 52.3967396,113.48744 52.5463579,113.568024 C52.5558575,113.546693 52.5748567,113.527732 52.6057303,113.508771 C52.3848651,113.392636 52.1663749,113.274131 51.9478846,113.155626 C51.8125157,113.084523 51.6367735,112.935207 51.8148906,112.795371 C51.9573842,112.681606 52.3254928,112.875954 52.5012349,112.975499 C52.522609,112.958908 52.5463579,112.951798 52.5748567,112.947057 C52.4988601,112.904396 52.4181137,112.864104 52.342117,112.819072 C52.1283766,112.700567 52.2732451,112.330831 52.4941103,112.454077 C52.5202341,112.470667 52.5463579,112.484888 52.5724818,112.501479 C52.7315997,112.487258 52.9548397,112.617613 53.0569601,112.674496 C53.800302,113.141406 54.5745174,113.549063 55.3772316,113.899838 C55.9187074,114.155809 56.4625581,114.409409 57.0087837,114.6559 C57.5455098,114.921351 58.0988601,115.151251 58.6664597,115.345599 C60.093771,115.900202 61.5353316,116.416884 62.9911416,116.895644 C65.0311756,117.452618 67.1424563,117.900567 69.2608617,118.075954 C69.5363494,118.097285 69.8118372,118.116246 70.0873249,118.125727 C70.6905479,118.120986 71.293771,118.118616 71.8946192,118.113876 C73.0654419,117.993001 74.2362646,117.874496 75.4047125,117.755991 C75.8131942,117.699108 76.2121764,117.628005 76.6064088,117.545052 C76.8130246,117.49528 77.0196404,117.443138 77.2238813,117.383885 C77.2951281,117.374405 77.3663749,117.360184 77.4376217,117.348334 C77.9387243,117.215608 78.4303274,117.056811 78.9219304,116.871943 C79.2306667,116.746328 79.537028,116.613603 79.8410144,116.473767 C80.8455946,116.006857 81.8335505,115.390631 82.7645089,114.684341 C83.9305818,113.525362 85.0966548,112.368753 86.2627277,111.209774 L86.2627277,111.209774 L87.3290551,109.759273 C88.7064936,107.794459 89.79657,105.604487 90.7014046,103.369482 C91.1811332,101.990084 91.6608617,100.610686 92.1405903,99.2312871 C92.2902087,98.7335661 92.4327023,98.235845 92.5680712,97.7357539 C92.8411841,96.6170665 93.1142969,95.4983792 93.3874097,94.382062 C93.4776556,93.9720346 93.5655267,93.5643774 93.6510229,93.1567201 C94.1758745,90.6183428 94.4656115,88.0420438 94.7149754,85.4657448 C95.170955,80.7776864 95.2944495,76.0754075 95.327698,71.3683883 C95.3490721,68.5550793 95.3253232,65.7417703 95.2683257,62.9308314 C95.2350772,61.3002024 95.2113282,59.6695734 95.1875793,58.0389444 C95.1567057,56.3087712 95.1234572,54.5762279 95.0783342,52.8460547 C95.0759593,52.8081331 95.0902087,52.7749517 95.1092078,52.7465105 C95.104458,52.5426819 95.1020831,52.3388532 95.0997082,52.1326545 C95.0973333,51.9975588 95.149581,51.9383063 95.2255776,51.9264558 C95.2113282,50.6916335 95.2018287,49.4591814 95.1994538,48.2267293 C95.1994538,48.1461459 95.2374521,48.0940036 95.2873249,48.0631923 L95.2873249,48.0631923 L95.2873249,47.7503391 C95.0807091,46.8923628 94.8004716,46.0509772 94.4371128,45.2498833 C94.3136183,44.9607311 94.1758745,44.6786892 94.0238813,44.4037575 C93.8362646,43.9913601 93.5916506,43.6168842 93.2924139,43.2732197 C93.04305,42.8537119 92.7366887,42.4816062 92.3804546,42.1497922 C92.2355861,42.0455077 92.0883427,41.9412233 91.9434741,41.8369389 C91.8223545,41.7729462 91.6442375,41.6615515 91.4874945,41.5335661 C91.2048821,41.3605488 90.9246446,41.1851613 90.6420322,41.012144 C90.4781645,40.9268204 90.5850348,40.7135114 90.7014046,40.656629 L90.7014046,40.656629 C90.6752807,40.6376682 90.646782,40.6234476 90.6159084,40.5973765 C90.2739237,40.2750428 89.9176896,39.97167 89.5472061,39.687258 C89.4807091,39.7133291 89.4023376,39.7038487 89.3429652,39.6540766 C89.124475,39.4502479 88.9012349,39.2535296 88.6732451,39.0639216 C88.1626429,38.7297375 87.6282918,38.4239945 87.0701917,38.1538031 C86.1748567,37.7319253 85.2581476,37.3692999 84.3176896,37.0611869 C84.1148736,36.9945871 83.9106327,36.9350975 83.7075793,36.875134 C83.4183172,36.8613874 83.1295301,36.8457448 82.8405055,36.8331832 C72.0791484,36.3620073 61.2895301,36.5599107 50.5526344,37.4242862 C47.9074775,37.6373582 45.2656455,37.891196 42.6283257,38.1853254 C40.3075793,38.4443774 37.525866,38.435371 35.3924987,39.4962279 C35.3022528,39.5412598 35.2162816,39.5888988 35.1324478,39.6379599 C35.2989279,40.703083 35.734246,41.743083 36.1135165,42.7472944 C36.6984529,44.296392 37.222592,45.8753528 37.1705818,47.5529098 C37.1340085,48.7227912 36.8820322,49.8476408 36.5191484,50.9468933 C36.3331942,52.5142407 35.8437286,54.0280237 35.3241018,55.5152616 C32.7670534,62.8327092 31.3751281,70.3245962 31.5180967,78.0921258 C31.5218965,78.3002206 31.4739237,78.4817703 31.3912774,78.6363008 C31.4380628,78.9759362 31.4846107,79.3158086 31.5397082,79.6544959 C31.7529737,80.9635023 30.0233384,81.6145688 29.4265276,80.7468751 C29.3863919,80.7864558 29.3308193,80.8137119 29.2795216,80.8179781 C29.1275284,80.8321987 28.8781645,80.5833382 28.8069177,80.4695734 C28.7142969,80.2989262 28.6169262,80.1330191 28.5124309,79.9742224 C28.4981815,79.9671121 28.486307,79.9623719 28.4744326,79.9576317 C28.5385547,80.0903573 28.6050517,80.2254531 28.666799,80.3534385 C28.7712943,80.5620073 28.3699372,80.6639216 28.2511925,80.4719435 C28.1443223,80.3036664 28.0374521,80.1424995 27.9305818,79.988443 C27.8688346,80.0334749 27.7999627,80.0453254 27.7548397,79.9718523 C27.3724818,79.3414057 26.9307515,78.8010228 26.4462731,78.3412233 C25.6839321,77.7202571 24.8503444,77.3434111 23.9027617,77.1229918 C23.157045,77.0163373 22.3923291,77.0115971 21.6537371,77.0969207 C20.8058999,77.1964649 19.9129398,77.4074038 19.145849,77.7937302 C18.5212519,78.2227183 17.8942799,78.6517065 17.2673079,79.0806946 C17.1129398,79.2418614 16.9656964,79.4101386 16.8279525,79.585526 C16.3933469,80.1472397 16.0442375,80.7468751 15.7568753,81.3844321 C15.7450008,81.4247238 15.7331264,81.4650155 15.7212519,81.5029371 C15.5455098,82.0385798 15.4315148,82.588443 15.3816421,83.1525269 C15.3745174,83.8659271 15.3697676,84.5769572 15.3626429,85.2903573 C15.4576387,86.2170665 15.6951281,87.1177046 16.0584869,87.9733108 C16.2294792,88.4781422 16.4978422,88.9284613 16.861201,89.3266381 C17.0559423,89.6631923 17.2768075,89.9689353 17.5237964,90.2533473 C18.0248991,90.5851613 18.5711247,90.8672033 19.1529737,91.0899927 C19.2954673,91.1279143 19.437961,91.1658359 19.5828295,91.1942771 C20.3309211,91.4810593 21.1051366,91.6351158 21.9054758,91.6564467 C22.9171807,91.7251796 23.9075115,91.6374859 24.8764682,91.3933655 C25.4749415,91.286711 26.0544156,91.1136937 26.6148906,90.8743136 C27.1516166,90.6041222 27.657469,90.2794184 28.1300729,89.9002024 C28.1823206,89.867021 28.2606921,89.8859818 28.3461883,89.9286436 C28.4506836,89.8528004 28.555179,89.7793273 28.6572994,89.6963737 C28.7047973,89.6631923 28.7475454,89.703484 28.7689194,89.7461459 C28.778419,89.7390356 28.7879186,89.7319253 28.7974182,89.7248149 C28.9850348,89.5968295 29.5003868,89.9973765 29.2676472,90.2343865 C29.3673927,90.2960091 29.4671383,90.3694822 29.5573842,90.4453254 C29.9706158,90.4619161 30.8042036,91.2203482 30.6474606,91.3388532 C30.4147209,91.5403118 30.1701069,91.7251796 29.920743,91.900567 C30.1416081,92.0641039 30.4313452,92.3177046 30.2959763,92.419619 C30.0537371,92.6495187 29.7901238,92.8486071 29.5098863,93.0192543 C29.3198948,93.1638304 29.1251535,93.3012963 28.9209126,93.4269116 C28.7000475,93.5572671 28.4744326,93.6686618 28.241693,93.7729462 C28.6477998,94.5574494 29.0349075,95.3490629 29.3958914,96.154897 C29.6357557,96.7260912 29.9136183,97.2783245 30.234229,97.809227 C30.6427108,98.6174312 31.1319389,99.3758633 31.7042884,100.082153 C32.1697676,100.864286 32.7159932,101.582427 33.3405903,102.238944 C34.1124309,103.115881 34.9412689,103.940676 35.8223545,104.703849 C36.1738388,104.952709 36.5324478,105.194459 36.9053062,105.417249 C37.8576387,106.133019 38.8717184,106.746875 39.9475454,107.258817 C40.0734148,107.32755 40.1731603,107.479236 40.0259169,107.597741 C40.0211671,107.600111 40.0164173,107.600111 40.0116675,107.604851 C40.3631518,107.80394 40.717011,108.000658 41.0732451,108.195006 C41.2133639,108.27085 41.500726,108.417796 41.2869856,108.590813 C41.1492417,108.704578 40.7241357,108.500749 40.4700221,108.368024 C40.5056455,108.386985 40.5436438,108.408315 40.5816421,108.429646 C40.6600136,108.472308 41.1112434,108.699838 40.8333808,108.844414 C40.6932621,108.868115 40.560268,108.844414 40.4320237,108.775681 C40.2990297,108.725909 40.1660356,108.671397 40.0354165,108.614514 C40.0401662,108.657176 40.0164173,108.697468 39.9475454,108.730649 C39.8929228,108.740129 39.8406751,108.740129 39.7884275,108.735389 C40.0781645,108.898926 40.3679016,109.060093 40.6600136,109.21889 C40.7455098,109.263922 41.1492417,109.486711 40.8832536,109.624177 C40.7526344,109.650248 40.6267651,109.628917 40.5056455,109.562554 C40.2847803,109.479601 40.0662901,109.382427 39.8549245,109.275772 L39.8549245,109.275772 L39.7053062,109.192819 C39.6673079,109.192819 39.6293096,109.188078 39.5913113,109.180968 C39.8240509,109.306583 40.0591654,109.427459 40.2966548,109.545964 C40.4367735,109.621807 40.671888,109.775863 40.4700221,109.93229 C40.3299033,110.038944 39.9522952,109.846966 39.7290551,109.721351 C39.7148058,109.737942 39.6981815,109.756902 39.6744326,109.775863 C39.50819,109.901479 39.0807091,109.624177 38.9453401,109.550704 C37.7673927,108.920257 36.6298185,108.268479 35.5349924,107.521898 C34.8652723,107.09291 34.2121764,106.642591 33.5733299,106.15198 C32.3502595,105.20868 31.2388092,104.111324 30.2199796,102.954715 C29.5241357,102.163101 29.1465276,101.717522 28.4720577,100.757632 C27.389106,99.2123263 26.5721425,97.6006582 25.7860526,95.8918159 C25.7741781,95.8657448 25.7979271,95.799382 25.8335505,95.7330191 C25.6720577,95.3372124 25.5153147,94.9366655 25.3585717,94.5218979 C24.9500899,94.5764102 24.5392332,94.6143318 24.1331264,94.6380328 C23.1760441,94.6925451 22.2474606,94.6072215 21.3473757,94.4105032 C20.2572994,94.2706673 19.1790975,93.9625542 18.2243902,93.4790538 C17.6520407,93.1922716 17.1010653,92.8865287 16.5785886,92.5452343 C16.1107345,92.2963737 15.6595047,92.0119617 15.227274,91.6801477 C13.3867311,90.2770483 12.3869008,88.0989262 12.1422867,85.8378505 C11.9546701,84.8424084 11.9142969,83.8185251 12.0259169,82.8301933 C12.1066633,82.1120529 12.2681561,81.4010228 12.5032706,80.7160638 C12.9378762,79.1968295 13.747715,77.7913601 14.9209126,76.7271851 C15.1180288,76.5257265 15.3246446,76.3337484 15.5455098,76.1536208 C16.1986056,75.6203482 16.9395725,75.1913601 17.7280373,74.8785068 C17.8800305,74.8050337 18.0343986,74.7363008 18.1887668,74.6723081 L18.1887668,74.6723081 L18.0011501,74.2409499 C17.9346531,74.2599107 17.7042884,74.2219891 17.6757897,74.1414057 C17.599793,73.9352069 17.5285462,73.724268 17.4549245,73.5180693 C17.4121764,73.5441404 17.3575539,73.558361 17.2981815,73.5607311 L17.2981815,73.5607311 L17.2981815,73.8001112 C17.3005564,73.8688441 17.1699372,74.2954622 17.0986904,74.0726727 C17.0250687,73.8688441 16.9585717,73.6602753 16.8873249,73.4540766 C16.8279525,73.416155 16.7828295,73.3711231 16.7662053,73.3189809 C16.7590806,73.29765 16.7519559,73.2763191 16.7424563,73.2549881 C16.7377065,73.252618 16.7305818,73.252618 16.7258321,73.2502479 L16.7258321,73.2502479 L16.7258321,73.3237211 C16.728207,73.368753 16.6094623,73.7100474 16.5880882,73.6436846 C16.1772316,72.5155169 15.8423715,71.3636481 15.5811332,70.1928186 C15.4030161,69.5481513 15.2628974,68.8963737 15.1560271,68.2351158 C15.0396573,67.6402206 14.9375369,67.0429553 14.8496658,66.4409499 C14.8425411,66.3911778 14.8354165,66.3414057 14.8282918,66.2916335 C14.8259169,66.279783 14.823542,66.2703026 14.8211671,66.2584521 C14.8140424,66.1944594 14.8069177,66.1280966 14.7974182,66.0641039 C14.7024224,65.3838851 14.6240509,64.7012963 14.5646785,64.0139672 C14.4388092,62.6013874 14.3889364,61.1816974 14.4031858,59.7643774 C14.3723121,59.7762279 14.3438134,59.7928186 14.3129398,59.8070392 C13.6959423,60.0691723 13.0440339,60.2834294 12.380726,60.4540766 C11.2395895,62.0998742 9.41780831,63.2135843 7.23456828,63.3306673 C6.49526378,63.370485 5.72009839,63.2806582 5.00240543,63.0723263 C4.92783376,63.0893911 4.85088719,63.1031376 4.77109075,63.1135661 C4.18615437,63.1898833 3.77933503,62.9521623 3.23239695,62.8796372 C2.35677354,62.7639763 1.61438168,62.7070939 1.04773198,62.1996554 C0.87270229,62.2036846 0.705509754,62.1783245 0.546629347,62.1309225 C-0.955966073,62.4904667 -2.55260729,61.6979052 -3.0810212,60.0369389 C-3.98229347,59.5098286 -4.70046141,58.7279325 -5.18327735,57.8206582 C-6.11328584,56.6308678 -6.85686514,55.1720711 -7.31806955,53.6393273 C-7.32519423,53.6248696 -7.33303138,53.6108861 -7.33991858,53.5959544 C-7.57384563,53.089701 -7.68522816,52.546711 -7.69472774,52.002062 C-7.94361662,50.4505943 -7.87806955,48.8972306 -7.40475318,47.5318159 C-7.42470229,46.7916335 -7.25038507,46.0201659 -6.93119932,45.3202753 C-6.54432909,44.4715424 -5.95440543,43.4957721 -5.1889771,42.9297922 C-5.18707718,42.0599654 -4.8125564,41.1024448 -4.32166582,40.4535114 C-3.34202205,39.1573036 -1.92136047,38.4721076 -0.383854114,38.3730374 C0.397960984,36.3729098 2.76691773,35.905763 4.81027651,36.5715242 C5.65906361,35.7059635 6.90232061,35.292618 8.14320271,35.4398013 C9.19243087,35.5642315 10.0891908,36.0650337 10.8315827,36.7552069 C11.027274,36.8109043 11.2222528,36.8689717 11.4169941,36.9294093 C12.0670025,36.6447603 12.8253062,36.5802935 13.5190127,36.7587621 C14.7214215,37.0680602 15.505849,37.9772306 16.0485123,39.0200747 C16.2216421,39.1390538 16.3907345,39.261825 16.5557897,39.3900474 C16.7369941,39.4711048 16.9015742,39.5794184 17.050955,39.7069298 C17.2680204,39.8223537 17.4523121,40.0121987 17.5646446,40.2876044 C17.8710059,40.6028277 18.1559932,40.9363008 18.408207,41.293949 C18.597011,40.8580875 18.7917523,40.4253072 18.9929059,39.995608 C19.3204037,40.0939672 19.7162986,39.9666928 19.8811162,39.5301203 C20.9260696,36.7630283 22.8281221,31.6931468 24.6204546,29.3569389 C22.528648,30.7782881 19.974687,31.5274768 17.4378253,31.4521076 C17.3292926,31.4487894 17.21981,31.4442862 17.1093774,31.438361 C15.7457133,31.6730009 14.3604377,31.6948058 13.0886819,31.4402571 C12.2322952,31.1300109 11.3977574,30.7602753 10.589106,30.3419526 C10.3924648,30.2400383 10.197486,30.1329098 10.0032197,30.0248332 C9.91843596,29.9534932 9.83982697,29.8738578 9.75884309,29.7975406 C9.59165055,29.8096281 9.41662087,29.7965925 9.23042918,29.7472944 C8.53054792,29.5626636 7.88291433,29.097887 7.47680746,28.5006217 C7.40128584,28.389464 7.34048855,28.2749881 7.28634097,28.1595643 C6.84579813,27.7296281 6.46415267,27.2425725 6.18367769,26.6730374 C5.85356743,26.0070392 5.65170144,25.2580875 5.6303274,24.5091358 C5.49258355,23.7744047 5.50208312,23.0183428 5.75857167,22.3167931 C5.7870704,22.2409499 5.82031891,22.1674768 5.85119254,22.0916335 C5.8654419,22.0442315 5.87494148,21.9944594 5.89156573,21.9470574 C5.96661238,21.6970119 6.06208312,21.4742224 6.17797795,21.2632835 C6.22096353,21.0464193 6.29126039,20.8314512 6.39053096,20.6221714 C6.40169296,20.5209681 6.41546735,20.4197648 6.43185411,20.3190356 C5.67711281,18.8981604 5.94452587,17.0400018 7.07426293,15.885052 C6.91799491,15.1384704 7.07711281,14.3468569 7.53237998,13.6844139 C7.86676506,13.1975953 8.33153181,12.813402 8.8580458,12.5467657 C8.91290585,12.5190356 9.05824936,12.4713965 9.2320916,12.4166472 C9.42683291,12.2448149 9.63226124,12.0822261 9.8571637,11.939072 C9.9132112,10.4831194 11.4371807,9.67301914 12.6754504,8.95558979 C13.4786395,8.49033911 13.8296489,7.60842479 14.6568244,7.16237192 C15.561659,6.6748423 16.7194198,6.64569006 17.7194877,6.52552598 C20.077045,6.24206199 22.5875454,6.02306472 24.9569771,6.27927256 C26.2724309,6.42147858 27.3617947,7.0554804 27.8123121,8.09405834 C28.9439491,8.22749499 29.9525666,9.04233546 30.750531,9.88040292 C31.7465615,10.9263282 32.5946361,12.0398013 32.8869856,13.4142224 C33.0817269,13.5192179 33.2586565,13.6476773 33.4184869,13.7927274 C33.4125496,14.7592543 33.2862053,15.7274403 33.0187922,16.6396919 C33.0974012,17.185052 32.932821,17.705763 32.6544835,18.177887 C32.6969941,18.6248879 32.6665954,19.0650155 32.5727871,19.5037211 C33.1142629,20.4624266 32.6074606,21.9112689 31.8489194,22.8619161 L31.8489194,22.8619161 L31.8432197,23.3980328 C31.8883427,23.3745688 31.9322782,23.3468387 31.9733639,23.3119982 C35.4150602,20.3891905 38.9529398,20.8060912 43.1339406,19.1337484 C46.9047973,18.4073127 50.7535505,17.9449061 54.616078,17.7910866 C54.5650178,17.7835023 54.5139576,17.778051 54.4631349,17.7697557 C52.5166718,17.4516882 50.6471552,16.6527274 49.039352,15.5048879 C48.613771,15.3972853 48.2102765,15.2055442 47.8490551,14.8848696 C47.4980458,14.5734385 47.2550941,14.2141313 47.1154504,13.828753 C47.0518032,13.7607311 46.9888685,13.6922352 46.9268838,13.6225542 C45.7199627,13.3267657 44.8008787,12.2846326 44.9547718,10.9147147 C44.190531,10.0119435 43.9093435,8.89728532 44.1679695,7.73664722 C43.7409635,7.01684777 43.7036777,6.10933637 44.0223885,5.34924521 C43.3512434,4.5358268 43.2989958,3.38111395 43.8252723,2.46080401 C43.3448312,1.77940018 43.2386735,0.876391978 43.831447,0.069372835 C44.1112095,-0.311739289 44.4987922,-0.552067457 44.9210483,-0.66820237 C45.040268,-1.10738195 45.2827447,-1.51527621 45.6636777,-1.83026253 C45.8596064,-1.99214038 46.0647973,-2.11230447 46.2745004,-2.20189426 C46.3533469,-2.65529444 46.6100729,-3.08523063 47.1040509,-3.42344394 C47.3282409,-3.57678943 47.5576556,-3.67585962 47.7856455,-3.73084594 C48.0015233,-4.26411851 48.3781815,-4.73173929 48.9080204,-5.03534913 C49.5478168,-5.40152963 50.2918711,-5.45011668 50.9699033,-5.25813856 Z M20.4875929,80.941247 C20.9839457,80.9341367 21.4612994,80.9388769 21.9362782,80.988649 C21.9552774,80.9744284 21.9742765,80.9673181 21.9909008,80.9696882 C22.0692723,80.988649 22.1405191,81.0052397 22.2165157,81.0242005 C22.4801289,81.0621222 22.7437422,81.1166345 23.0121052,81.1948478 C23.6462019,81.3820857 24.2802986,81.6783482 24.8288991,82.0457138 C25.346626,82.3917484 25.8619779,82.7520036 26.3132078,83.1833619 C26.4723257,83.3184576 26.621944,83.4654038 26.7644377,83.6170902 C26.9948024,83.8066983 27.2180424,84.0010465 27.4317829,84.1930246 C27.6930212,84.4324047 27.9471349,84.6788952 28.189374,84.934866 C28.5693571,85.3733345 28.8662188,85.8615752 29.0799593,86.399588 C29.1654555,86.5726053 29.0609601,86.6768897 28.885218,86.6460784 C28.8068465,86.6342279 28.6999763,86.5773455 28.5907311,86.5015023 C28.6073554,86.541794 28.6263545,86.5773455 28.6429788,86.6176372 C28.7355997,86.8001349 28.6572282,86.9304904 28.4458626,86.8617575 C28.4339881,86.8546472 28.4221137,86.8475369 28.4126141,86.8404266 C28.5218592,87.0347748 28.6216047,87.2338633 28.7071009,87.4424321 C28.7997218,87.6272999 28.7166005,87.7552853 28.5076098,87.6841823 C28.3983647,87.6225597 28.2938694,87.5514567 28.1941238,87.4732434 C28.2392468,87.5727876 28.2867447,87.6699617 28.3271179,87.771876 C28.4221137,87.9591139 28.3128685,88.0562881 28.1276268,88.0136263 C27.9685089,87.9259325 27.8212655,87.8216481 27.6835216,87.700773 C27.6621476,87.6841823 27.6431484,87.6652215 27.6241493,87.6486308 C27.6858965,87.8026873 27.5695267,87.8974913 27.4151586,87.86668 C27.1966684,87.8240182 26.7858117,87.4566527 26.6860662,87.2623045 C26.6789415,87.250454 26.6741917,87.2386035 26.667067,87.226753 C26.5506972,87.1485397 26.4248278,87.039515 26.3298321,86.9352306 C26.2538355,87.0442552 26.106592,87.1248387 26.040095,86.992113 C25.8406039,86.4493601 25.5294928,85.9848204 25.1043868,85.5937539 C24.8621476,85.2406089 24.5676607,84.9396062 24.2233011,84.6907457 C24.0380594,84.5343191 23.845693,84.3850027 23.6485768,84.2427967 C23.2994673,84.084 22.9361086,83.9631249 22.5561255,83.8825415 C22.4801289,83.8588405 22.4017574,83.8446199 22.3257608,83.823289 C22.1571433,83.7924777 21.9909008,83.7616664 21.8222833,83.7379654 C21.1359389,83.6431613 20.4472197,83.6265706 19.7585004,83.6881933 C19.6350059,83.6929335 19.5162612,83.5981294 19.4640136,83.4891048 C19.3096455,83.4962151 19.1576522,83.5033254 19.0032841,83.517546 C18.7491705,83.5270264 18.803793,83.1691413 18.9961595,83.1335898 C19.2383986,83.0885579 19.4806378,83.0553765 19.7181272,83.0269353 C19.7133774,83.0056044 19.7110025,82.9819034 19.7157523,82.9629426 C19.2811467,82.9416117 18.848916,82.9510921 18.4119355,82.996124 C18.221944,83.0056044 18.4475589,82.6548295 18.5520543,82.6358687 C18.5995522,82.6263883 18.64705,82.6216481 18.6969228,82.6121677 C18.692173,82.6050574 18.6897981,82.6003172 18.6874232,82.5932069 L18.6874232,82.5932069 L18.6755488,82.5932069 C18.4143104,82.6050574 18.2361934,82.1902899 18.5496794,82.1334075 C18.6280509,82.1191869 18.7040475,82.1097065 18.7800441,82.0954859 C18.7657947,82.0551942 18.7634198,82.0196427 18.7776692,81.9864613 C18.6423003,81.9840912 18.5093062,81.9840912 18.3739372,81.9840912 C18.4475589,81.979351 18.5021815,81.6617575 18.5900526,81.649907 C18.6589245,81.6404266 18.7301713,81.6309462 18.7990433,81.6214658 C18.803793,81.5337721 18.9367871,81.3299435 18.9937846,81.318093 C19.4450144,81.2422498 19.8867447,81.1901076 20.3237252,81.1735169 C20.3664733,81.0739727 20.4282205,80.941247 20.4875929,80.941247 Z" id="ðŸ–-Ink" fill="#000000"></path>
                    </g>
                    <g id="face/Smile-Teeth-Gap" transform="translate(37.760814, 44.083865)" fill="#000000">
                        <path d="M40.5665861,34.2164632 C42.3599585,35.3043501 45.0925072,37.84109 43.1632513,40.538094 C40.8923326,42.9161315 37.6227224,40.1895491 36.0115152,38.956422 C34.5175283,38.0007416 32.8389503,40.45868 34.2250722,41.574598 C45.8676895,50.1769329 50.5925102,34.5009305 41.4736488,32.937375 C40.4696294,32.7650779 40.0967341,33.8799135 40.5665861,34.2164632 Z M24.3635386,13.4693984 L24.8093943,13.391518 L25.0379183,13.3528605 C26.3735753,13.1324728 27.9568957,12.9850645 28.8793995,14.0313491 C29.3968889,14.618186 29.5750059,15.7089061 28.8793995,16.2706199 C27.6558541,17.2589517 26.3031145,16.8759435 24.836855,16.959608 C23.6285089,17.0288149 22.4671858,17.2283774 21.3032502,17.5604284 C18.7497642,18.2887603 16.6691196,19.6183865 14.4882545,21.0783683 C14.2020797,21.2698724 13.9099678,20.9046399 14.0465242,20.6375296 C15.3054555,18.1766545 17.7451841,16.155196 20.18895,14.9229809 C21.4932417,14.265278 22.920553,13.7196809 24.3635386,13.4693984 Z M36.1755963,47.4662115 C40.0780221,47.7489644 48.5350195,45.8898578 52.0465377,48.6785178 C65.2811094,65.1713345 12.8125768,69.4116809 18.4790738,51.16499 C22.0882002,45.2650994 30.3896421,47.6363847 36.1755963,47.4662115 Z M35.5065886,57.4227657 C34.5414317,57.3443154 33.370134,58.1072507 33.0868092,58.6966946 C32.8034843,59.2863756 32.9129669,60.5323373 32.9215165,60.7482534 C34.6088787,60.9179526 36.3109652,60.9437867 38.0030772,60.833103 C37.5634843,59.3818906 37.5492349,57.642474 35.5065886,57.4227657 Z M43.2976658,59.8573327 C43.0264529,58.0560565 41.7354606,57.6294385 40.6905072,57.8998669 C39.6215674,58.1762206 38.9941204,59.4041696 39.0620424,60.4974968 C39.0665547,60.572866 39.0228567,60.6368587 38.9941204,60.6975333 C40.4470806,60.526175 41.8865038,60.2441331 43.2976658,59.8573327 Z M31.3296251,57.7488915 C30.7211773,56.8250264 29.2672672,56.3792106 28.3360712,56.5420365 C26.8154266,56.861526 26.6354097,58.7898396 26.6354097,59.1828022 C28.0373096,59.7160747 29.5256556,60.0701677 30.9486921,60.3522097 C31.2343919,60.408618 31.5208041,60.4591012 31.8076913,60.5067402 L31.8263693,60.2726198 C31.8609934,59.7708715 31.8866802,58.5945433 31.3296251,57.7488915 Z M48.5307447,57.5964941 C46.9716268,55.1891832 43.6201764,56.9127201 43.8970891,59.5425834 C44.1949008,59.4489644 44.4912875,59.3510793 44.7862494,59.248454 C46.0112197,58.8223099 47.3549347,58.3158195 48.5307447,57.5964941 Z M36.2561052,49.3020912 C34.1585988,49.1136682 32.4379881,49.1771869 31.0700492,49.4303136 L31.0285548,49.8863461 C30.8771886,51.4674518 30.681954,53.0219802 31.5139169,53.6580985 C32.1895742,54.1747803 34.4321866,54.1254822 35.9359695,53.7514804 C36.3074029,53.6580985 36.7902188,50.3788277 36.2561052,49.3020912 Z M39.4994979,49.1136682 C39.1633011,50.6719214 39.0051652,52.5639865 39.6801979,53.125952 C40.3929286,53.7193013 42.68742,53.6388953 43.2874656,53.24363 C43.8126018,52.8977095 43.7992193,51.3064483 43.6042646,49.5199034 C42.442229,49.2466308 40.4188193,49.1136682 39.4994979,49.1136682 Z M30.1424156,49.4459562 L29.4555963,49.4521185 L29.066841,49.4573006 C28.083814,49.474737 27.0232718,49.531238 26.0207871,49.7495661 C24.0291321,54.0448846 31.3023899,54.7863444 30.1790447,49.6047885 L30.1424156,49.4459562 Z M44.5295233,49.5495296 L44.5168443,49.7928569 C44.4571448,50.9994318 44.4967141,52.5882728 45.1664992,53.0172333 C46.1520653,53.6484341 48.0027812,53.5266532 49.0053324,50.607035 C48.6735597,49.7360231 45.1548329,49.6132853 44.5295233,49.5495296 Z M25.2270263,23.9380602 C25.6481418,23.9380602 26.0509118,24.0807086 26.4177179,24.3446632 C26.7787314,24.6044494 27.1055508,24.9836022 27.3777551,25.4564942 C27.892866,26.3513801 28.2148804,27.5869798 28.2148804,28.9531923 C28.2148804,30.3194048 27.892866,31.5550046 27.3777551,32.4498905 C27.1055508,32.9227824 26.7787314,33.3019352 26.4177179,33.5617215 C26.0509118,33.8256761 25.6481418,33.9683245 25.2270263,33.9683245 C24.8059107,33.9683245 24.4031408,33.8256761 24.0363347,33.5617215 C23.6753212,33.3019352 23.3485018,32.9227824 23.0762975,32.4498905 C22.5611866,31.5550046 22.2391722,30.3194048 22.2391722,28.9531923 C22.2391722,27.5869798 22.5611866,26.3513801 23.0762975,25.4564942 C23.3485018,24.9836022 23.6753212,24.6044494 24.0363347,24.3446632 C24.4031408,24.0807086 24.8059107,23.9380602 25.2270263,23.9380602 Z M51.8828838,23.9380602 C52.3039993,23.9380602 52.7067693,24.0807086 53.0735754,24.3446632 C53.4345889,24.6044494 53.7614083,24.9836022 54.0336126,25.4564942 C54.5487235,26.3513801 54.8707379,27.5869798 54.8707379,28.9531923 C54.8707379,30.3194048 54.5487235,31.5550046 54.0336126,32.4498905 C53.7614083,32.9227824 53.4345889,33.3019352 53.0735754,33.5617215 C52.7067693,33.8256761 52.3039993,33.9683245 51.8828838,33.9683245 C51.4617683,33.9683245 51.0589983,33.8256761 50.6921922,33.5617215 C50.3311787,33.3019352 50.0043593,32.9227824 49.732155,32.4498905 C49.2170441,31.5550046 48.8950297,30.3194048 48.8950297,28.9531923 C48.8950297,27.5869798 49.2170441,26.3513801 49.732155,25.4564942 C50.0043593,24.9836022 50.3311787,24.6044494 50.6921922,24.3446632 C51.0589983,24.0807086 51.4617683,23.9380602 51.8828838,23.9380602 Z M48.2561538,12.3670381 L48.5974094,12.4367382 L48.8238069,12.4846464 C52.5047827,13.2748111 57.1715515,14.8324864 58.8946297,18.3992889 C58.9616407,18.9140465 58.8908372,19.0243694 58.8332614,19.0964481 L58.8140916,19.1204334 C58.7666489,19.1819844 58.7287934,19.266832 58.5052239,19.3368914 C58.4431833,19.3221394 58.3805253,19.3065151 58.3172035,19.2899543 C57.5110894,19.0791278 56.8732973,18.7886846 56.2558469,18.4873151 L55.586374,18.1581557 C54.8096518,17.7780821 54.0260716,17.4118413 53.1956566,17.1414685 C51.4234796,16.5645992 49.6006432,16.1582307 47.7495654,15.9412392 C47.3483586,15.8942481 46.9620215,15.7591142 46.6572294,15.5275167 C46.3679205,15.3076842 46.1469071,15.003321 46.0461374,14.598756 C45.9155399,14.0751843 45.9530707,13.6787976 46.2345577,13.2064592 C46.4462185,12.8517432 46.7490713,12.6058787 47.0968229,12.4646949 C47.4513406,12.3207642 47.8549555,12.2868326 48.2561538,12.3670381 Z" id="ðŸ–-Ink"></path>
                    </g>
                    <g id="facial-hair/*-None" transform="translate(29.211196, 80.109389)"></g>
                    <g id="accessories/*-None" transform="translate(11.162002, 57.119417)"></g>
                </g>
            </g>
        </g>
    </g>
</svg>