<?xml version="1.0" encoding="UTF-8"?>
<svg width="246px" height="677px" viewBox="0 0 246 677" version="1.1" xmlns="http://www.w3.org/2000/svg" xmlns:xlink="http://www.w3.org/1999/xlink">
    <!-- Generator: Sketch 62 (91390) - https://sketch.com -->
    <title>peep-standing-26</title>
    <desc>Created with Sketch.</desc>
    <g id="Introduction" stroke="none" stroke-width="1" fill="none" fill-rule="evenodd">
        <g id="variations-standing" transform="translate(-3102.000000, -904.000000)">
            <g id="a-person/standing" transform="translate(3085.000000, 854.000000)">
                <g id="pose/standing/walking-3" transform="translate(-28.736217, 150.264357)">
                    <path d="M287.893126,562.563522 C289.564339,554.79931 281.920506,552.174538 277.101608,550.447209 C273.649943,548.212789 260.860575,540.474779 250.964712,530.922346 C242.867013,523.105672 237.354535,513.087607 235.059862,512.132658 C233.485251,511.221338 232.616181,510.427073 232.452651,509.749865 C231.015337,503.797645 232.214079,498.250257 232.452651,494.641776 C237.059471,493.434684 240.751006,491.928959 243.51182,489.823362 C244.316909,490.091183 245.52383,490.4339 245.883627,489.258804 C248.37869,472.645349 249.455705,456.228376 251.485764,439.602122 C259.169971,376.277546 260.036807,302.298184 246.81696,244.460627 C246.678029,241.593754 246.92858,239.004656 247.184831,236.541411 C248.972414,236.348722 250.053228,234.621867 251.512838,233.589688 C253.778249,231.792915 256.460692,230.412095 256.350022,227.271712 C256.888173,226.865003 256.825476,226.636288 256.5602,226.118184 C258.288173,218.70214 250.580455,210.887446 248.400539,204.773535 C252.36305,166.094921 246.971566,129.544419 249.979369,90.8565615 C253.778487,89.2700164 251.224288,79.3539909 250.964712,75.2639088 C248.860081,48.9145561 235.135332,22.8628879 210.41981,14.2549207 C209.006986,13.9690866 206.883355,12.3574184 205.714195,13.4396062 C203.454721,12.5463154 200.44858,14.3075369 198.699946,12.2799161 L198.71752,12.2666436 C197.245086,10.2290684 196.585103,7.63878578 196.101099,5.18952416 C196.182083,5.87969736 196.317215,6.56418232 196.483695,7.23326162 C192.222897,-4.7509134 191.149445,-7.95528897 177.43277,-8.51960985 C171.254008,-8.60208933 163.109072,-8.4169845 159.506358,-2.53581768 C158.030124,0.198092981 158.481116,3.33729079 157.564882,6.21506655 C155.882982,11.495887 148.622931,8.944 144.811464,11.686206 C114.306426,21.4505451 89.2847803,41.3811923 81.060285,73.3711468 C79.3788601,77.2268259 77.4718202,81.0642552 76.0661204,85.0434166 C75.8485802,85.6340456 75.2501069,87.6327511 76.6873927,88.5525871 L77.3825242,88.9974549 C68.2263579,131.706899 67.6188601,167.695449 98.3801493,196.168175 C100.688546,208.40287 94.7501238,225.110892 97.0328719,236.989834 C95.7321425,238.831639 97.3815064,240.315085 99.0444071,240.433353 C99.2047125,240.522232 99.8525835,240.805222 100.029276,240.886042 C97.3829313,278.170089 108.493635,328.417637 113.391142,348.249925 C114.057774,360.157309 109.985544,369.93895 101.608343,376.428284 C92.3526684,382.117473 74.0541103,407.812441 77.4464088,434.765222 C73.4819983,435.541429 69.546324,435.967099 65.7429313,437.4541 C49.1010992,434.52276 49.2661544,466.540208 48.2057642,477.797947 C46.4098694,496.647355 45.2936692,523.967737 63.2367057,536.033444 C67.9636947,539.455869 77.5482918,543.462286 82.45981,537.984747 C84.0692757,536.055249 84.4722952,534.191402 83.8391484,532.220901 C91.9494114,520.785404 89.7637964,505.827464 90.5088007,492.415067 C92.8606582,492.273572 95.3212858,493.374483 97.5961968,492.973462 C99.9311925,490.920007 91.4129228,491.479588 90.5294623,491.359187 C90.6199457,489.2908 90.7866633,487.112915 91.0018287,485.027701 C92.337944,485.294811 94.0495301,485.934738 95.3343478,485.983799 C96.0947888,486.16843 96.6322273,485.123453 96.1731603,484.581885 C95.1704801,483.627446 92.6139067,483.77534 91.1751959,483.63977 C91.4181476,481.894191 91.7152468,480.059023 92.0453571,478.3708 C93.805391,478.307519 95.6228974,479.42668 97.2893605,479.197728 C96.0280543,478.357765 93.6605225,478.613499 92.1230161,478.058658 C93.1228465,472.621411 95.1600305,467.460044 97.0540085,462.374283 C101.701201,464.287428 105.71026,464.362797 110.24702,463.789232 C112.102762,464.074119 113.007596,463.695139 113.30802,461.378603 L113.189513,461.232368 C116.78534,439.758786 128.388597,419.287519 149.941472,396.072387 C154.198707,391.317491 159.00953,385.719077 162.214925,379.459643 C168.655874,366.433098 169.755925,352.058676 174.718741,338.530381 C179.352159,324.932642 185.687664,311.925768 191.636061,299.035504 C192.50836,305.641922 193.680132,312.418986 194.898215,318.896707 C200.259301,341.85184 199.739674,366.343508 195.794263,389.425914 C189.956774,421.754793 192.770548,454.237017 191.472193,486.794611 C191.490005,488.672441 191.72322,490.378202 191.447257,492.333298 C191.410684,492.483799 191.48193,492.662031 191.660522,492.657291 L191.99752,492.666534 C194.80322,494.716908 198.678097,495.087355 201.974925,496.199643 C203.359488,497.293207 202.96953,499.025276 203.096349,500.376707 C203.458521,506.200281 203.921625,512.046133 203.346901,518.048649 C200.802914,522.91328 197.643593,521.908357 196.997384,528.765768 C196.431684,536.594684 195.430904,544.919898 199.251159,551.891074 L197.805798,552.139934 C195.660794,556.631985 196.97031,559.548631 202.011735,561.448503 C226.900149,571.187245 261.921761,580.029141 287.893126,572.678275 C288.365219,573.145426 289.051751,572.660763 289.588525,571.926568 C290.104321,571.221068 290.481836,570.285159 290.397927,569.741958 C289.953822,567.357637 290.564407,563.004123 287.893126,562.563522 Z" id="ðŸŽ¨-Background" fill="#FFFFFF"></path>
                    <path d="M288.960356,570.361455 C266.595742,580.384135 225.985055,567.737991 204.010161,560.421017 C198.085038,558.28769 196.111264,557.869604 197.771315,551.052248 C200.877676,557.034855 207.558253,558.479905 213.958592,559.679413 C235.638999,564.611829 257.742137,573.718228 280.928465,569.275001 C284.331688,568.740306 287.69905,566.901345 288.689381,563.507836 C289.299966,564.946013 288.922358,566.893761 289.166735,568.475329 C289.212095,569.105776 289.226107,569.787654 288.960356,570.361455 M198.507532,533.082148 C198.911264,529.064117 199.557235,524.819504 201.849008,521.269094 C201.599644,527.011373 205.055115,536.771683 212.626277,533.520142 C214.770806,532.385812 215.97274,530.101747 217.352316,528.267526 C221.938236,522.233251 227.818473,516.993433 234.461289,513.185867 C238.156387,513.819869 239.745428,520.563752 242.127209,523.386304 C239.472078,524.567562 234.660543,527.2581 234.173927,530.041072 C237.489279,528.928073 240.54078,526.85542 244.017863,526.126851 C245.13145,527.661017 246.31201,529.148729 247.551705,530.585958 C245.93179,531.297936 239.400831,534.592376 239.443817,536.236988 C242.975047,535.664372 246.397269,533.938939 249.947735,533.230042 C251.52704,534.793123 252.964088,536.47542 254.536031,538.043716 C252.161137,539.01996 249.653249,540.109969 248.356556,542.385265 C248.295047,542.488128 248.446802,542.603077 248.530161,542.50377 C250.308957,540.363333 253.370195,539.97037 256.022952,539.488766 C260.093282,543.313871 264.650941,546.688182 269.751976,549.212576 C274.855623,551.997681 282.612265,552.634764 284.642561,558.676149 C286.266989,564.71635 281.20134,565.361254 276.527549,565.787872 C271.799135,566.459085 267.037472,566.560999 262.339932,566.168985 C247.655963,565.55821 233.774707,561.243916 219.898202,557.474746 C202.932197,554.358064 197.426955,551.834381 198.507532,533.082148 M230.894198,511.250443 C224.393876,516.048 218.048159,521.393998 213.533486,528.085502 C210.545869,533.52986 206.570297,530.215985 205.582578,525.854527 C204.782002,516.11697 205.470721,507.708091 204.532875,497.912467 C213.521849,499.135438 222.755199,498.381747 231.535182,496.217845 C230.478592,500.59068 229.993876,502.250698 229.960628,506.736824 C230.017863,508.215056 229.996251,510.01965 230.894198,511.250443 M198.448397,226.278593 C197.583936,226.593342 197.215115,225.218684 198.069601,224.90749 C198.656438,224.693706 199.249686,224.502913 199.845785,224.322312 C199.919881,224.163041 200.052875,224.026286 200.258066,223.951628 C207.254741,221.407799 215.070992,221.655238 222.379254,222.263406 C226.307328,222.590479 230.226853,223.029659 234.108142,223.719595 C237.823902,224.379905 241.510925,225.190479 245.228346,225.838702 C245.987362,225.934217 246.746141,226.025466 247.504444,226.110552 C248.407142,226.211993 248.414266,227.635001 247.504444,227.532613 C247.337252,227.513889 247.170534,227.491847 247.003342,227.472412 C246.892672,227.511993 246.76894,227.529057 246.631196,227.507253 C246.052672,227.416004 245.475098,227.319067 244.898473,227.218574 C242.361137,226.894345 239.830212,226.521765 237.299525,226.151555 C230.641985,225.177444 223.963308,224.204992 217.231196,223.952339 C210.904003,223.714855 204.443579,224.095256 198.448397,226.278593 M246.37827,91.2530319 C244.832214,112.527052 245.231196,131.530516 245.563919,152.837717 C245.756047,167.169714 245.846293,181.50645 245.347566,195.833706 C232.706005,163.225867 236.574945,127.84264 234.779288,93.5686199 C238.515233,92.3266873 242.528567,91.7839344 246.37827,91.2530319 M181.852638,248.547107 C183.035098,250.801072 185.020746,252.614199 187.374266,253.747107 C187.084292,254.315931 186.984546,254.955858 186.953673,255.555493 C182.714487,256.42058 183.906684,258.428055 181.042799,259.385575 C179.16877,259.902257 177.366226,260.122676 175.746548,261.255584 C170.234419,266.379741 168.86648,266.002895 162.950619,261.494964 C163.031603,261.087307 154.980712,253.239905 152.487074,248.85285 C150.409042,245.193415 148.233401,241.507909 145.048668,238.678009 C129.45274,222.741455 112.837981,207.700799 97.7407803,191.323406 C67.4848685,161.234983 73.2579983,127.117389 80.2071756,89.5347092 C91.4235623,90.8714458 102.701934,93.5567694 112.802595,98.4865779 C109.240254,115.07491 109.012027,130.110826 107.477846,146.943278 C107.014741,149.024226 107.537218,153.032066 110.491824,152.107727 C137.648499,173.625867 140.804733,217.844828 176.442392,230.631519 C190.967243,236.523588 184.837642,241.30645 189.637303,252.431701 C186.996421,251.948201 184.640526,249.739267 183.505327,247.625138 C182.942714,246.575183 181.3038,247.499522 181.852638,248.547107 M114.814843,235.177608 C113.940882,235.279522 113.064546,235.354892 112.187498,235.425995 C112.085852,235.508237 111.959746,235.567964 111.805377,235.587161 C110.438863,235.757335 109.045513,235.980124 107.66475,236.282075 C105.616166,237.006614 103.545971,237.668583 101.485276,238.357809 C101.304784,238.44645 101.125242,238.536277 100.947837,238.630133 C100.777795,238.71996 100.613215,238.73418 100.464546,238.700999 C100.404461,238.721382 100.343902,238.741054 100.283817,238.761674 C100.26838,238.766888 100.252706,238.772339 100.237506,238.777553 C100.182884,238.775657 100.128024,238.773998 100.072214,238.771628 C99.9912299,238.76831 99.8518236,238.761911 99.6867684,238.751245 C99.6832061,238.688438 99.6843936,238.626815 99.6824936,238.564481 C99.1008821,238.581309 98.5795929,237.855821 99.1270059,237.376824 C101.133554,235.620817 103.829296,234.978757 106.405818,234.590534 C109.194894,234.170078 112.016031,234.082148 114.814843,233.755548 C115.725377,233.649367 115.71469,235.072613 114.814843,235.177608 M89.191162,476.880197 C86.693011,476.688219 76.0081255,476.320853 74.7259203,477.994144 C76.1698558,478.60326 78.1550297,478.266706 79.7082103,478.335438 C82.7245632,478.458684 85.7335539,478.724135 88.7187956,479.146013 C88.4953181,480.307362 88.2934521,481.466341 88.127447,482.63006 C85.1160814,482.916842 79.2522307,483.047198 77.3406785,485.149477 C80.7507888,485.69223 84.3012553,485.203989 87.7234775,485.881838 C87.5572349,487.474545 87.4361154,489.069623 87.3461069,490.6647 C85.9826802,490.809276 77.9652757,492.134162 77.9724003,493.392686 C80.9740288,493.790862 84.1540119,493.26707 87.2131128,493.563333 C86.5502799,503.121947 88.7971671,531.987398 75.706514,533.753123 C64.2618999,533.151118 59.241374,514.640634 57.686056,505.759869 C54.2374724,485.068893 54.8290585,463.008 61.6640034,443.063606 C64.1051569,437.517572 70.7503478,436.555311 76.3693469,436.268529 C76.5828499,437.207088 76.7942154,438.129057 77.0317048,439.058137 C74.5950636,444.57099 73.8187108,450.778283 73.7519763,456.743825 C74.2673282,465.318848 84.868855,471.694418 92.5682612,466.029878 C91.1290755,469.537626 90.0178626,473.187581 89.191162,476.880197 M74.0467006,538.566797 C51.3781001,533.703351 47.6590161,507.504263 49.2171841,488.240088 C50.4875148,474.83006 48.9606955,446.557134 61.3645293,438.678921 C45.3339949,453.283479 46.7259203,552.709185 82.2517218,535.355311 C81.3658863,538.156769 76.8108397,538.964974 74.0467006,538.566797 M78.4877523,445.090042 C78.5281255,444.744007 78.573011,444.400343 78.6205089,444.054308 C81.1355216,450.873087 85.4435793,457.352941 91.8584054,461.301528 C89.4025276,464.358957 84.6194911,465.269076 81.3920102,462.76625 C75.7635115,458.554582 78.1101442,450.934709 78.4877523,445.090042 M155.757065,9.47983227 C155.71218,9.55804558 155.664444,9.63625889 155.616947,9.7121021 C155.303461,9.733433 154.9876,9.7618742 154.666989,9.79742571 C155.030585,9.68840109 155.393944,9.58648678 155.757065,9.47983227 M291.161883,566.211646 C291.100136,564.515603 291.076149,562.324682 289.085988,561.722676 C289.988448,554.413524 283.908719,550.252813 277.525242,548.227562 C272.081985,544.904208 265.909398,542.582932 260.907871,538.576514 C263.230517,538.141127 265.553164,537.615675 267.616947,536.606961 C269.174877,535.846159 268.424411,533.313232 266.736098,533.547872 C263.745869,533.941546 261.060102,535.458647 258.250365,536.513105 C256.654436,535.204572 255.10838,533.838684 253.648058,532.392211 C255.466989,532.041437 257.780136,532.170607 258.839576,530.368383 C259.169686,529.80501 259.022205,529.220543 258.623461,528.785156 C256.780543,526.923679 253.127718,528.782549 250.838321,529.325065 C249.738982,528.060379 248.677167,526.770097 247.634589,525.464408 C249.363749,525.305612 253.861561,525.621072 252.980712,522.772923 C251.292163,520.545265 247.66095,521.881765 245.219321,522.340142 C242.12246,518.539923 241.125004,512.709477 236.28497,510.618574 C236.111603,509.696842 234.905394,509.767471 234.100305,510.041455 C232.915233,504.394454 233.005479,501.5245 233.352214,495.736715 C236.945191,494.743643 240.509907,493.440088 243.497523,491.302257 C244.87045,491.705174 246.535013,491.240634 246.820237,489.631336 C249.304377,473.149659 250.408702,456.464153 252.429737,439.923223 C259.798796,379.009276 261.404224,304.659231 247.762833,244.480015 C247.655963,242.199978 247.817693,239.917572 248.04782,237.654126 C249.674623,237.220397 250.643579,235.6348 251.990144,234.717572 C254.493282,232.681655 257.039406,231.541637 257.269771,227.988857 C257.775386,227.507727 257.834758,226.780106 257.557133,226.149659 C258.205479,222.502075 257.250534,218.880562 255.305496,215.728328 C253.173079,212.137626 251.158931,208.513743 249.380373,204.745284 C253.270212,166.762057 247.993435,129.949659 250.878694,91.7768241 C254.578779,89.8214913 252.256132,78.9569517 251.91201,75.3354385 C249.750619,51.5514822 238.624241,25.2907712 214.967922,15.3979727 C213.307871,13.9996135 210.989975,13.5255934 208.961815,12.7553108 C207.591501,12.0822024 205.361476,11.4991577 204.423393,13.065794 C203.42855,12.6036244 200.22458,12.2504795 199.127379,11.4493856 C198.923138,11.3000693 198.792519,11.1365324 198.761645,10.9540346 C198.680899,10.9564047 198.585903,10.939814 198.483783,10.9184831 C197.472316,9.49168277 196.507871,-0.446147675 195.261052,0.262512306 C193.900237,3.6754567 194.84307,7.53160985 196.14475,10.9777356 C197.042222,14.0256846 198.272655,21.8659763 203.041204,19.8608715 C203.863155,19.4532142 203.35469,18.3937794 202.618473,18.3084558 C200.357812,17.6637885 199.854097,14.3480182 198.980136,12.404536 C200.015589,13.2625123 204.732366,14.5494768 205.247718,14.8220383 C215.478762,38.2575898 153.619661,37.0275077 148.756115,20.8705342 C145.288533,15.288948 148.281137,12.2647001 154.462986,11.3688022 C149.919576,16.4076354 155.671807,17.5263227 157.858846,12.5846636 C159.951128,9.04610392 160.903461,4.74674202 160.188617,0.674909754 C160.556726,-0.754260711 160.868075,-2.66456153 158.725683,-2.28060529 C158.652299,-2.47021331 158.535691,-2.32089699 158.581052,-2.18580128 C157.799474,-0.943868733 158.343562,0.840816773 158.0657,2.27472744 C157.830585,4.62112671 157.163003,6.92012397 156.030416,8.99633181 C153.928634,9.39687876 151.836115,9.82586691 149.753571,10.2951468 C148.504139,7.76150957 140.401001,12.8145634 138.225598,13.4094585 C109.325513,21.929969 87.3482443,44.621309 79.6775742,73.2426399 C77.9652757,77.0537612 76.1173707,80.8838432 74.7161832,84.8134695 C74.0892112,86.5152015 74.0892112,88.6269608 75.8110093,89.7290574 C67.4205089,128.141273 65.3733503,168.162786 97.0712977,196.973725 C97.7906531,200.092777 97.311162,203.401437 97.289788,206.577371 C97.4973537,212.225083 93.7694826,228.572376 95.5478032,236.996186 C95.3547243,237.364263 95.2181679,237.759121 95.1647328,238.180762 C94.9158439,240.138939 96.5120102,241.399832 98.2729941,241.720744 C98.3264292,241.730461 98.3815267,241.739705 98.4359118,241.749185 C98.47581,241.768857 98.5145208,241.790662 98.5556064,241.808912 C96.4535878,273.92377 104.336098,317.621309 111.976132,348.60326 C112.54112,359.25212 109.323376,368.93872 100.6619,375.657954 C84.1943851,387.944554 77.2573198,408.453032 75.3312807,427.996879 C75.0581679,429.999613 75.326531,432.0379 75.7779983,434.005083 C72.2082952,434.668711 68.8670568,435.100069 65.401849,436.405995 C46.2910772,432.7513 47.6545038,473.727964 46.1915691,485.886578 C45.0466327,503.861418 45.7614758,525.408 62.312112,537.177918 C67.8764885,541.131245 77.69905,544.928146 83.1211705,538.941273 C84.6551145,537.109185 85.4913147,534.966614 84.8878541,532.624955 C92.6608821,521.265065 90.8250891,506.74583 91.4069381,493.819304 C93.4422222,493.890407 95.6603732,494.795785 97.6650212,494.298064 C99.2087023,493.890407 99.4058185,491.913743 98.0996268,491.12687 C96.2137235,490.060325 93.6512129,490.465612 91.542307,490.394509 C91.6066667,489.157316 91.6992875,487.920124 91.8180322,486.682932 C93.8198304,487.171172 96.6887023,488.344372 97.2848007,485.552394 C97.5249025,483.009276 94.3066836,482.814928 92.3025106,482.705903 C92.4426293,481.746013 92.5993723,480.790862 92.7774894,479.838082 C94.3116709,479.992139 95.9311111,480.96862 97.4394063,480.50171 C98.2941306,480.165156 98.5909924,479.302439 97.9663953,478.60326 C96.8053096,477.467982 94.8196607,477.695511 93.2833418,477.342366 C94.2164377,472.779923 95.9028499,468.416569 97.5272774,464.053214 C100.467396,465.072357 103.651891,465.745466 106.789364,465.489495 C108.415929,465.148201 110.192587,465.051026 111.836014,465.271446 C113.664444,464.787945 114.087176,462.837353 114.327277,461.244645 C114.291654,461.187763 114.255793,461.133251 114.21542,461.083479 C118.440356,436.52924 133.597167,415.316842 150.591671,397.040999 C155.272587,391.812558 159.863257,386.375548 163.04324,380.165885 C169.503189,367.187216 170.6619,352.585028 175.604054,339.101528 C179.767243,326.85759 185.33162,315.116113 190.786751,303.358046 C192.974029,318.844281 197.058846,334.076915 197.526938,349.7812 C198.239406,369.64975 193.85274,389.229149 191.981323,408.938902 C188.616098,434.87965 191.672824,460.981564 190.048397,486.941273 C190.060271,488.7781 190.297761,490.508273 190.036285,492.345101 C189.891654,493.361874 190.623121,493.999431 191.392587,494.020762 C194.218473,495.87181 197.769177,496.528328 201.017795,497.319942 C201.91788,498.007271 201.528634,499.699522 201.687752,500.735256 C202.036624,506.553852 202.497591,510.944937 201.929754,516.811172 C198.752146,521.500416 196.462986,520.751227 195.579288,527.879067 C195.092672,535.319285 194.021357,543.365302 197.279712,550.119376 C195.821527,550.450479 195.268176,554.891573 195.486667,556.066906 C195.85715,559.381254 198.785394,560.429787 201.616268,561.573597 C222.303969,569.309604 266.26112,582.044864 287.518796,573.28687 C289.041103,574.146742 290.738914,572.461127 291.230755,571.104481 C291.881238,569.452521 291.282765,567.85223 291.161883,566.211646" id="ðŸ–-Ink" fill="#000000"></path>
                </g>
                <g id="Head" stroke-width="1" transform="translate(95.945717, 42.661805)">
                    <g id="head/Long">
                        <path d="M102.571813,64.0052689 C101.671729,49.2627712 96.8782426,32.5485871 82.7704224,25.3103008 C51.6690483,12.8535278 10.7771739,44.223227 8.61222053,76.2698268 C7.85747922,87.2395989 13.9604818,99.226381 25.1132214,102.276226 C27.5928482,105.554786 31.3428058,107.557046 35.044078,109.294804 C79.1285225,132.120529 107.605164,113.565725 102.571813,64.0052689 L102.571813,64.0052689 Z" id="ðŸŽ¨-Background" fill="#FFFFFF"></path>
                        <path d="M112.614884,54.8346636 C111.056953,50.5163409 109.411152,46.2311996 107.679854,41.9792397 C105.993679,37.8410447 104.470642,33.6134051 102.376716,29.671309 C89.8705242,6.12673291 67.1285394,6.12673291 55.3728142,9.20312306 C49.2764614,6.58179216 37.8578098,7.3212028 31.5098796,9.68662352 C21.2332383,13.5159945 8.70591009,28.5798778 4.4227888,35.3479362 C-5.03380153,50.2911814 -10.9354131,70.1803519 -4.65381849,87.4479544 C-3.83281764,89.7047639 -2.78572689,91.7949553 -1.60682952,93.8093036 C-2.34945886,94.8137521 -3.20418321,95.7651103 -4.15105344,96.6998778 C-6.96482782,99.4781094 -9.77860221,102.164855 -12.2093062,105.298365 C-14.6248109,108.412439 -16.6273215,111.723943 -18.1180424,115.375083 C-20.9289669,122.260698 -21.0643359,130.05738 -17.3481018,136.627535 C-14.1149211,142.344217 -8.38738931,146.601154 -1.93456489,147.007152 C-1.60326718,147.053132 -1.27149449,147.09532 -0.938296862,147.128738 C-0.0833350297,148.534208 0.959243427,149.828283 2.14906531,150.95645 C5.79452757,154.416797 14.4842646,156.192002 19.4406684,156.305767 C19.694782,156.509595 19.9512706,156.713424 20.2077591,156.914882 C23.2404987,159.296833 26.4228567,161.700115 29.9044512,163.394737 C32.2627209,164.544235 35.3548329,165.504126 37.8152231,164.674591 C38.9314232,165.418802 40.7624665,165.262376 41.8691671,164.65326 C43.6883359,163.653077 45.1678948,161.851801 46.0679796,160.007863 C48.2505072,155.530744 47.7256556,150.631747 47.1651807,145.848884 C46.5477082,140.565931 45.9539847,135.280607 45.3507617,129.997654 C44.8781578,125.866569 44.3841798,121.666751 43.125486,117.687353 C42.4747651,115.625366 41.6221781,113.643962 40.5202273,111.781063 C40.548726,111.624636 40.5439763,111.46821 40.4988533,111.321263 C40.1378694,110.150434 39.3921527,109.536578 38.5086921,108.740224 C38.3946972,108.63831 38.2807023,108.534026 38.1690823,108.427371 C37.727352,107.92491 37.2547481,107.458 36.7488957,107.062193 C36.5541544,106.865475 36.361788,106.666387 36.1694215,106.467298 C34.5711179,104.796377 33.0606853,103.040133 31.7188702,101.158273 C30.4174283,99.3332963 29.2418558,97.4277356 28.1232807,95.4866235 C26.9857065,93.51233 26.2328651,91.3342078 25.0976658,89.3741349 C25.0002952,89.2058578 24.7533062,89.1726764 24.6155623,89.3125123 C24.264078,89.6751376 24.0384631,90.0780547 24.0812112,90.5023026 L23.905469,90.5283737 C23.838972,89.8884467 23.2476234,89.3670246 22.4449092,89.5068605 C21.2432129,89.7154294 20.255257,89.7936427 19.2150534,89.3954658 C19.3979203,88.1843446 19.5665377,86.9708532 19.7327803,85.7549918 C20.0367668,83.5176171 20.3193791,81.2731322 20.5616183,79.0286472 C21.1482171,79.1684831 21.7300662,79.3699417 22.3000407,79.6259125 C23.1122545,79.9885378 23.8793452,80.4767785 24.5348159,81.0764139 C25.1807871,81.6689389 25.6272672,82.4676627 26.415732,82.8800602 C27.3229415,83.3517101 28.4177676,82.5719471 28.1517795,81.5480638 C27.6126785,79.4789663 24.5609398,78.2939161 22.6728991,77.9028496 C22.024553,77.7677539 21.3619576,77.7108715 20.6993622,77.7250921 C20.8489805,76.2840711 20.9819746,74.8430501 21.0912197,73.3996591 C21.1434673,72.7170702 21.1909652,72.0344813 21.2360882,71.3495223 C22.7037727,70.9063136 24.2759525,70.773588 25.8030093,70.9821568 C26.3064869,71.3827037 26.8099644,71.7785105 27.2968176,72.1790574 C28.8428736,73.4541714 30.3818049,74.7363956 31.9017371,76.0423209 C32.0394809,76.1584558 32.1748499,76.2745907 32.3125937,76.3930957 C33.2150534,77.1681185 34.3407532,76.400206 34.18876,75.3028496 C32.9490653,66.3106892 38.4683189,59.1577265 44.9304054,53.6164321 C52.0835861,47.4802425 65.0885055,46.7657273 73.5953757,36.1369426 C77.5132621,36.9327253 86.2606853,39.2962862 89.8705242,45.0366691 C94.9242986,53.0807894 94.264078,60.2882644 94.6488109,69.4131504 C95.0335437,78.5451468 96.012,88.0705798 93.9339678,97.0745907 C92.0174283,105.377052 86.828285,112.470762 78.7773944,115.73202 C78.5779033,115.812603 78.3760373,115.890817 78.1741713,115.96666 C74.0109822,117.533296 69.46781,117.976505 65.0885055,117.15171 C60.2413469,116.236851 56.1945276,114.023178 52.1619576,111.299933 C51.929218,111.145876 51.5896081,111.463469 51.7653503,111.695739 C57.080363,118.725457 67.5203969,121.074226 75.8016522,119.218438 C76.18876,119.130744 76.5734928,119.03594 76.9558507,118.931655 C75.1034334,124.24779 75.4762918,130.082977 77.8891841,135.259276 C79.3402443,138.373588 81.5536455,141.068392 84.2491501,143.194372 C87.2201425,145.536031 90.9059779,147.427371 92.9673859,150.7147 C94.8554266,153.727098 94.2949517,157.111601 91.0627209,158.851254 C90.2481323,159.292093 89.9346463,160.716523 90.7421103,161.34223 C91.0508465,161.57924 91.3595827,161.82099 91.6754436,162.058 C93.4851128,163.420808 98.4557659,165.980516 99.260855,166.07532 C106.409286,166.921446 111.216071,161.683524 114.296309,155.504673 C117.913272,148.252166 116.972814,139.414062 112.987742,132.50759 C109.791135,126.966295 103.495291,121.505584 105.998429,114.492458 C106.891389,111.987262 108.717683,109.851801 110.491729,107.92254 C112.515138,105.725457 114.690541,103.66821 116.63083,101.392913 C118.559243,99.1342078 120.269167,96.6764139 121.223874,93.8417739 C122.617937,89.6988387 121.924468,85.2193491 120.87714,81.0835242 C118.632865,72.2051285 115.71887,63.4452379 112.614884,54.8346636 Z" id="ðŸ–-Ink" fill="#000000"></path>
                    </g>
                    <g id="face/Loving-Grin-1" transform="translate(37.760814, 44.083865)" fill="#000000">
                        <path d="M22.866476,51.8743847 C22.8914843,49.2630082 25.1590331,48.8126892 27.3130619,49.1608569 C30.9597116,49.7495898 34.6198982,50.1638833 38.3159457,50.2385415 L38.9528923,50.2496809 L38.9528923,50.2496809 C39.0554877,50.1003646 39.226955,49.9870738 39.4596947,49.9621878 C41.5085157,49.7412944 43.6015098,49.777083 45.6614928,49.7164084 C47.4585751,49.6637922 49.3052926,49.4843756 51.1021374,49.6251595 L51.2451619,49.6377191 C53.4412687,49.8499167 55.7587638,50.9685122 55.4935539,53.5405652 C55.2496522,55.9222789 52.9683291,58.0307201 51.1465479,59.3541841 C50.7782019,59.6193984 50.4015437,59.8680219 50.013961,60.0946035 C49.8923664,60.249371 49.7149618,60.3572106 49.5100085,60.3792525 C47.7160136,61.3462534 45.7365394,61.9183956 43.6874809,62.1089517 C39.3433249,62.5123428 34.2931128,62.0757703 30.1206616,60.1969918 C28.7641221,59.586217 27.4987786,58.8235187 26.3802036,57.8868551 C24.6553181,56.4418049 22.8473113,54.2506472 22.866476,51.8743847 Z M39.9828838,57.0523428 C38.241374,56.9999635 36.5027142,57.2431358 34.8440882,57.7792525 C33.7200509,58.1411668 32.6955216,58.8372653 31.6185072,59.3210027 C35.2482952,60.7025342 39.4651569,61.0037739 43.1889907,60.7523063 C44.8226802,60.6418596 46.406497,60.2659617 47.8822561,59.6193984 C47.6523664,59.4537284 47.4196268,59.2852142 47.1759627,59.138505 C46.4397455,58.6936372 45.6698049,58.3151322 44.8668533,58.0138924 C43.3027481,57.4282407 41.6524343,57.104959 39.9828838,57.0523428 Z M40.5665861,34.2164632 C40.0967341,33.8799135 40.4696294,32.7650779 41.4736488,32.937375 C50.5925102,34.5009305 45.8676895,50.1769329 34.2250722,41.574598 C32.8389503,40.45868 34.5175283,38.0007416 36.0115152,38.956422 L36.5419723,39.3645657 C38.2666575,40.6838193 41.1194245,42.6783277 43.1632513,40.538094 C45.0925072,37.84109 42.3599585,35.3043501 40.5665861,34.2164632 Z M46.7399321,22.3522498 C48.6783762,20.7016842 51.1096425,21.9181015 52.5367241,23.5898714 L52.7882836,23.8887535 C53.0737269,24.2298053 53.3898728,24.627072 53.5798643,25.051794 C55.1613062,23.7079471 57.3058355,22.7622771 59.3579813,23.3761331 C61.3481425,23.9736354 62.4831043,25.8697156 62.1413571,27.9053947 C61.7535875,30.2203222 59.9984764,31.776257 58.1126958,32.9794037 L57.5779009,33.3183213 C55.3117288,34.7600607 53.1911733,36.2124669 51.3260899,38.194237 C51.021866,38.5163336 50.3642578,38.4736718 50.1647668,38.0449207 L50.0041645,37.6998637 L50.0041645,37.6998637 L49.8417812,37.3549845 C48.5187277,34.5395424 47.1011535,31.7425871 45.937218,28.8607821 C45.0751315,26.7250848 44.7951315,24.0065798 46.7399321,22.3522498 Z M24.6431972,23.8473831 L24.9385004,23.5066071 C26.358687,21.8570173 28.7644546,20.7525506 30.6622324,22.3523683 C32.6830297,24.0564704 32.2864224,26.8745196 31.3863376,29.0479015 C30.302436,31.6692325 29.0364803,34.232754 27.8201757,36.8039834 L27.5603834,37.355103 C27.4511383,37.5850027 27.344268,37.8149025 27.2376353,38.0448022 C27.0379067,38.4737903 26.3779237,38.5164521 26.0760746,38.1941185 C24.2689962,36.2743373 22.2244284,34.8538441 20.0406857,33.4577286 L19.381486,33.0391504 C17.4647091,31.8256591 15.652665,30.2590228 15.2584326,27.9055132 C14.9211976,25.8743373 16.0492723,23.9664066 18.0418083,23.3760146 C20.0984665,22.7671358 22.238246,23.7056955 23.8223003,25.0519125 C24.0111043,24.6164066 24.3361679,24.2062311 24.6431972,23.8473831 L24.6431972,23.8473831 Z M27.2417913,12.0129717 C27.9354979,12.9117138 27.1947684,14.3804649 26.1818762,14.6127347 C24.9274572,14.9007019 23.6602137,14.7255515 22.4285937,15.0827256 C21.3000441,15.4100365 20.2189924,16.0658432 19.251698,16.7195169 C18.1485598,17.4646764 17.1325802,18.2965816 16.1990093,19.2443847 C15.6437591,19.8082315 14.9441154,21.1440201 14.0877286,21.1689061 C13.2363291,21.1937922 14.3791281,18.5366727 14.4736489,18.306773 C15.1450314,16.6702188 16.0881018,15.1642571 17.2677116,13.8450593 C19.5953452,11.2419781 24.5249126,8.49526892 27.2417913,12.0129717 Z M53.2353945,11.2936311 L53.8164512,11.4547183 C55.254212,11.8536062 56.789106,12.3437429 58.022626,13.2038523 L58.1194891,13.2723086 L58.2688009,13.3813122 C59.8174154,14.533477 62.0077029,16.8324514 60.910972,18.8380547 C60.8352129,18.9762315 60.6746701,18.9899781 60.5454758,18.9335697 C59.086341,18.2957758 58.0045768,17.0220839 56.4525835,16.4892853 L56.1662783,16.3919787 C54.6632071,15.8867116 52.8036741,15.3554653 51.1857812,15.4037794 C50.0482673,15.7727777 48.5119162,15.4671414 48.2157931,14.0852167 L48.2024394,14.0175077 L48.1767905,13.8743537 C48.0062731,12.9301057 48.2599118,11.7263318 49.2381306,11.2712726 C50.5784614,10.6478769 51.8860632,10.9252527 53.2353945,11.2936311 Z" id="ðŸ–-Ink"></path>
                    </g>
                    <g id="facial-hair/*-None" transform="translate(29.211196, 80.109389)"></g>
                    <g id="accessories/*-None" transform="translate(11.162002, 57.119417)"></g>
                </g>
            </g>
        </g>
    </g>
</svg>