<?xml version="1.0" encoding="UTF-8"?>
<svg width="249px" height="679px" viewBox="0 0 249 679" version="1.1" xmlns="http://www.w3.org/2000/svg" xmlns:xlink="http://www.w3.org/1999/xlink">
    <!-- Generator: Sketch 62 (91390) - https://sketch.com -->
    <title>peep-standing-8</title>
    <desc>Created with Sketch.</desc>
    <g id="Introduction" stroke="none" stroke-width="1" fill="none" fill-rule="evenodd">
        <g id="variations-standing" transform="translate(-992.000000, -898.000000)">
            <g id="a-person/standing" transform="translate(973.000000, 854.000000)">
                <g id="pose/standing/blazer-2" transform="translate(-28.736217, 150.264357)">
                    <path d="M90.4971399,142.432456 C98.3266904,159.809083 108.006283,175.172547 119.469184,190.515865 C118.66552,154.261389 117.973238,117.812091 116.788404,81.2246162 C109.529303,95.3625014 101.794748,108.15654 91.4691841,122.191799 C83.3743579,130.827971 87.1487769,134.41251 90.4971399,142.432456 Z M64.8292858,566.588919 C63.9220763,565.307169 64.4590399,563.677725 65.7139338,562.846531 C63.0419406,557.095245 71.0935437,552.655573 75.0565293,548.326348 C84.0642646,538.571015 98.2547311,524.587424 99.5179372,512.269539 C103.813645,484.323923 106.268811,456.279712 113.147691,428.66117 C117.234646,411.119347 128.581415,397.043796 133.651338,379.811982 C142.468132,334.271927 131.078314,288.602872 133.047576,242.608706 C108.19906,240.175324 111.417106,243.269083 114.07865,222.636175 C112.415511,221.483832 110.795359,220.262994 109.281126,219.033386 C105.314103,221.14633 100.63105,226.326658 96.2626701,226.052675 C94.8800068,225.729867 93.8832638,223.999457 92.9347311,222.513404 C85.9197693,211.470633 79.3987854,200.676011 73.0145954,189.547442 C37.710134,133.975464 45.6954775,121.391654 78.6267074,68.1205688 C92.4953757,47.5469134 109.530253,17.6087548 135.950711,15.5313619 C139.140193,15.533969 142.503043,15.3642698 145.250558,13.3617721 C145.270032,10.1728022 146.902297,9.14394166 151.043162,8.561134 C153.374833,8.32199088 155.204451,6.96463446 157.48055,7.51852689 C159.104502,2.1059289 158.778904,-2.24676026 160.541075,-7.60223883 C166.577344,-16.7420565 186.159769,-12.1819836 193.330524,-9.31558432 C202.241364,-6.22236645 193.764892,7.62162625 199.58077,13.9436317 C200.848489,14.6503956 202.168217,14.989083 203.857954,14.9883719 C211.06267,13.3871322 214.573713,22.0233036 217.979549,27.7198396 C227.728489,28.9198213 235.034612,30.3646345 239.519362,33.8728569 C243.632679,36.972711 246.656394,41.958691 250.676377,52.2698122 C259.094663,70.6589462 264.614392,88.9224649 267.052696,106.540368 C269.174426,118.479037 275.069625,128.811015 279.801601,139.654698 C291.41887,167.888518 296.433934,186.588846 293.652933,211.439347 C290.703552,210.911763 287.729947,209.841426 284.625249,209.441827 L283.370355,212.406111 C283.290796,212.346385 283.258022,212.280259 283.25256,212.261535 C279.609472,237.134789 289.603264,287.783358 256.998582,281.118873 C254.121873,308.491635 244.94647,332.824981 233.906063,355.71375 C229.441025,364.324799 224.95105,373.42551 225.025622,383.537068 L226.706334,383.574516 C226.992034,383.580915 227.083705,383.638983 227.084655,383.639457 C227.404553,383.717433 227.03312,386.208882 226.674511,387.618144 C221.400109,406.22035 216.838887,424.82066 212.74362,443.647552 C211.879159,446.184507 211.505825,453.013951 209.505215,454.172219 C209.592373,455.104616 206.833269,456.932201 206.620003,456.872948 C207.100682,460.465309 205.359125,462.072948 205.417785,465.720058 C205.408285,465.63355 207.864638,465.761061 207.75753,465.687114 C209.224027,465.687351 210.88574,468.7955 210.905927,470.901572 C211.039634,473.439001 208.891542,475.82427 208.140601,478.313823 C206.976427,483.776667 207.158107,489.314407 206.640142,494.811854 C211.528862,495.918928 210.431661,501.107077 206.14474,501.362574 C206.14474,501.362337 205.363922,508.611052 205.518053,512.22427 C208.459121,512.576467 209.76574,515.193057 210.737072,517.223048 C214.354511,517.26334 217.740159,518.906768 221.099209,520.618691 C228.929235,524.449247 236.618904,528.461353 243.593493,532.525364 C249.747081,536.609521 263.160007,541.100387 256.195868,549.690578 C256.30155,549.912182 254.701584,553.898454 252.543043,553.535355 C241.894256,554.568007 201.399701,545.788919 192.031457,543.841881 C188.851949,543.087242 174.938158,541.278144 180.716275,536.589612 C178.562958,530.585911 178.46801,519.194261 184.963345,517.803486 C185.594117,512.16241 190.350555,510.182191 195.094643,512.269539 C195.064719,508.211927 195.31812,504.69931 195.360631,500.639565 C193.07717,500.339274 190.548811,499.493276 189.888828,497.764525 C189.263043,496.810086 189.505757,493.561152 191.856902,493.537214 C191.925774,493.532474 193.624536,493.613768 193.692933,493.612346 C193.42077,487.044562 193.994545,481.47056 193.009439,474.891161 C192.481262,472.706877 190.753052,472.350888 189.62189,471.226986 C188.560075,467.958855 191.825316,465.319274 194.618904,464.769411 C195.330185,461.447005 193.828302,457.92788 194.618904,454.66757 C192.79736,454.607132 191.375274,454.513987 190.192102,453.409758 C189.678412,452.907296 188.837462,453.059694 188.183891,453.015136 C187.550507,446.155592 183.264061,440.297178 182.313154,433.698819 C180.973713,425.887916 183.498226,417.737615 184.402585,409.77716 C185.135003,403.156758 183.967505,396.382064 183.384231,389.879694 C159.378802,428.125054 126.963399,464.981535 121.159871,511.537178 C120.541924,515.120769 120.167165,519.129557 123.477768,522.639438 L123.619786,522.67973 C124.461449,524.366768 124.990338,527.58252 125.594036,529.32241 C128.720346,531.787789 125.850762,536.522301 123.592475,538.656102 C122.907556,539.435154 122.323569,540.33911 121.698022,541.155847 C109.901449,555.220733 108.566996,571.112492 85.9221442,570.040022 C80.3551552,569.692328 67.3283868,569.868901 64.8292858,566.588919 Z" id="ðŸŽ¨-Background" fill="#FFFFFF"></path>
                    <path d="M159.609357,-5.11031541 C161.520197,-6.41387056 158.799518,4.82561896 158.794293,5.89903737 L158.746275,6.13441888 C158.269885,8.42319417 157.431025,11.0831577 155.500316,12.5471686 C156.390663,19.8238505 157.499026,27.0794385 158.863165,34.278618 C171.029985,35.8627931 183.27755,38.1506509 195.652411,36.996649 C202.10983,37.0524933 206.400922,32.6805907 209.041169,27.2341424 L209.120672,27.068773 L208.576821,25.1205506 C200.301028,20.0501951 194.027508,9.77201823 197.759179,0.0733309025 C198.001418,-0.55711577 199.010748,-0.303515041 198.789883,0.355372835 C197.224115,4.73342206 197.881486,9.66891887 200.105574,13.689557 C201.494887,14.4290283 202.974446,14.3768861 204.463505,14.3318541 C211.646134,13.2830848 215.771562,21.4239052 218.862724,26.499949 L221.56885,26.899877 C231.921793,28.4359815 241.907907,30.2533345 247.019705,40.8461659 L247.486968,41.8374675 C254.719714,57.2120627 261.478462,73.0269259 265.417534,89.5920182 C267.379433,98.3116171 268.089289,107.296667 270.967186,115.803194 C276.942182,131.594224 285.362606,146.432948 289.928814,162.780715 C292.761113,168.55736 300.71962,213.271672 292.868933,213.420277 C290.040672,212.574388 287.159688,211.891799 284.248068,211.403322 C284.69716,211.744853 284.860791,212.325291 284.775532,212.920423 C283.759077,220.037597 283.682843,227.247442 283.68783,234.422447 C284.103912,251.654498 284.046914,288.066822 258.347712,283.435409 C256.240943,304.504416 249.047152,324.88633 241.050646,344.389411 C236.299433,356.961845 227.084607,368.430286 226.621503,382.240149 C229.805286,382.287789 228.570341,386.330943 228.179196,388.281535 C227.108356,393.054917 225.715481,397.754589 224.305506,402.435774 C219.338178,419.229593 216.371461,436.586786 212.117788,453.573294 C211.887661,454.390742 211.500553,454.947716 211.006575,455.322428 C210.922504,457.089812 208.248848,458.104215 206.736278,457.516904 C206.948845,459.65479 206.890244,461.81934 206.919639,463.96471 L206.92627,464.366731 L207.389374,464.361754 C209.405897,463.843413 211.444031,467.10396 212.013055,468.777251 C213.92722,473.460806 209.48878,476.89437 209.158433,481.355373 C208.857534,485.590268 208.457601,489.78819 208.275447,494.035409 C213.809425,496.192201 211.361622,503.418399 205.938314,503.342793 C206.191715,505.979767 206.226151,508.631672 206.337534,511.273149 C208.695566,511.889612 210.463912,513.874571 211.62381,515.947223 C216.390222,516.272638 220.741028,519.086184 224.987576,521.078253 C231.55392,524.31581 238.013632,527.771417 244.350087,531.440569 C250.520061,535.541553 264.249561,540.197852 258.247966,549.682994 C259.758374,550.982983 258.703364,553.530429 257.326608,554.593563 L257.279009,554.62963 C255.91107,555.698308 254.101401,555.698308 252.419976,555.525291 C232.887423,556.013057 212.306355,549.955318 192.883522,545.999858 L191.416905,545.738592 C187.165373,544.978388 182.812956,544.127593 179.035515,542.056011 C177.437686,540.756722 177.046541,537.585765 178.681656,536.306148 C177.00498,530.24983 178.517313,519.615191 185.151104,517.271872 C185.938144,512.780295 189.576482,509.558855 194.2042,510.929721 C194.226762,508.052893 194.461164,505.210906 194.512936,502.33313 C192.218551,501.901772 190.102521,501.012985 188.996058,498.837232 C187.779637,496.668591 189.097466,493.034279 191.862317,493.151362 C191.956126,488.671161 191.702249,484.266093 191.665201,479.793714 L191.661395,479.524028 C191.646646,478.075777 191.705155,476.477428 191.090477,475.14571 C190.458755,473.773422 188.77733,473.638326 188.031376,472.337378 C186.396024,468.833896 189.66934,464.719639 193.045252,463.776339 C193.468696,461.430651 193.249255,458.946786 193.674361,456.578345 C191.876567,456.47406 190.344997,456.056923 189.043318,455.037779 C188.143946,454.898892 186.552529,455.299201 186.449934,454.009156 C186.0842,448.738053 183.421944,444.045254 181.745506,439.129666 C178.282911,429.56726 181.425371,419.582027 182.628729,409.91107 C183.196329,404.978892 182.598093,400.025382 182.092241,395.08159 C159.245761,430.814407 129.939332,465.365728 123.168509,508.473823 C122.792801,513.326129 120.809052,517.318326 124.294446,521.504871 C125.464319,521.842848 126.462962,527.328208 126.913717,528.709976 C130.483657,532.009156 127.372784,537.897433 124.26571,540.449083 C122.778551,543.014242 120.789578,545.259912 118.927423,547.557488 L118.327687,548.561718 C114.383426,555.14693 110.175456,561.751303 104.82744,567.270086 C95.8394165,573.927697 80.7569398,572.033126 70.1703749,570.834005 L69.2293517,570.681167 C67.0243313,570.314221 64.5832829,569.776604 63.3142935,567.816631 C62.2121052,566.117269 62.3595861,563.913076 63.7298999,562.638199 C62.3700356,558.724926 65.4685598,554.88252 68.3820797,552.479712 C79.6770755,542.481444 89.4129534,530.721006 96.9948024,517.68664 C99.9009601,496.610286 102.885489,475.535355 106.117008,454.507114 C108.724879,437.10489 112.697839,419.684416 121.085964,404.071143 L123.142672,400.167106 C126.620056,393.554134 129.953266,386.956263 131.93448,379.666458 C136.553411,362.491052 135.447186,344.505072 134.807627,326.922246 C133.984489,299.47293 132.025676,272.018636 132.280977,244.549174 C127.107271,244.006658 113.080197,244.340842 110.87107,239.031581 C110.147678,233.971654 111.843827,228.823559 112.227372,223.770505 C111.134921,223.004963 110.068594,222.203869 109.030765,221.376704 C107.107101,222.810614 105.12169,224.163942 103.081656,225.422228 C98.2021985,228.929976 94.4289669,229.491216 91.4090517,223.725473 C82.6715793,209.931964 74.2416556,195.939603 66.2871858,181.680131 C58.9095776,168.00252 49.7652858,154.347187 47.8926819,138.600241 C45.1705785,110.255737 78.4684919,64.8903592 95.1400102,41.8600948 C105.385125,29.4819001 118.638007,16.2990406 135.566691,15.3292317 L136.080807,15.3035953 C138.351206,15.1898304 141.650171,15.438691 143.542724,13.9052361 C143.900383,8.78818961 149.157686,8.8140237 153.066049,7.9678979 C153.875888,7.35143482 155.103946,7.20543665 156.139162,7.25473473 C157.542012,3.23125251 157.860485,-1.2171887 159.609357,-5.11031541 Z M111.341774,521.336594 C107.054141,519.1087 101.937669,518.928335 97.4272706,520.694297 C91.8339203,531.046421 84.6698151,540.495537 76.5348533,548.983577 C73.5626735,553.125564 62.406134,558.586038 67.9712231,564.176157 L68.7246664,564.314031 C77.2675623,565.867334 85.9411094,567.089985 94.6460322,566.38983 C100.333666,564.817506 104.924573,560.607971 108.541774,556.061407 C113.031986,550.245655 116.742758,543.847096 120.850612,537.756886 C124.53906,531.514279 126.483623,531.43014 123.591478,524.015045 C123.58649,524.159384 123.551104,524.30633 123.477245,524.455646 C122.456041,526.51313 119.321181,526.323285 117.551885,525.548263 C115.245863,524.53623 113.569187,522.509794 111.341774,521.336594 Z M70.828458,566.095938 L70.9579788,566.155191 L70.9579788,566.155191 L71.0894589,566.214443 L71.2818253,566.216813 L70.828458,566.095938 L70.828458,566.095938 Z M233.416075,528.8254 C227.054446,525.984124 215.400129,517.703468 208.902182,518.961754 C204.103708,520.427661 199.679756,523.050177 194.564947,523.429867 L194.345031,523.438016 C190.694053,523.59368 184.204975,524.810142 182.833208,520.52128 C181.016889,523.987314 180.419366,528.279329 180.446439,532.201134 C180.370918,535.543449 181.903199,538.187059 185.459603,538.458199 L188.752819,539.285761 C209.619841,544.51746 230.68104,549.511825 252.184624,551.060022 C257.829272,547.539238 257.968204,542.910906 251.982996,539.695391 C245.938891,535.836868 239.718806,532.241663 233.416075,528.8254 Z M110.517686,448.083905 C106.780553,471.439347 104.271478,494.927278 100.652377,518.293386 C113.283725,515.140204 116.99331,526.452456 121.696075,523.296667 C118.406609,518.972419 118.800841,515.715428 119.774785,510.683231 C121.705337,493.734881 128.024692,477.611799 135.86018,462.562848 C136.75314,460.844525 137.669612,459.135683 138.598195,457.431581 C128.523182,458.349758 117.678229,455.48004 110.517686,448.083905 Z M188.333225,514.683723 C187.468051,516.024963 187.124879,517.641134 186.848916,519.191654 C186.706422,519.992747 186.784794,521.173057 186.499807,522.071325 C191.920027,522.235099 197.370646,520.973258 202.254853,518.651271 L202.016542,518.635248 C198.035958,518.390721 189.81019,518.949358 188.333225,514.683723 Z M184.963488,518.139566 C184.436261,518.514042 183.980044,518.947533 183.586049,519.428664 C183.452818,520.175245 183.839925,520.98819 184.467135,521.452729 C184.592292,520.359165 184.745235,519.22602 184.963488,518.139566 Z M195.550765,502.501407 C195.567389,505.88283 195.773293,509.214005 195.735769,512.590924 C195.730307,513.761991 196.078466,515.240933 195.360774,516.236139 L196.500988,516.356618 C199.359878,516.653965 202.276227,516.899418 205.133225,516.575063 C205.225608,512.178764 205.228221,507.760423 205.517958,503.368864 C201.994327,503.345874 199.018823,502.75406 195.550765,502.501407 Z M206.467915,515.963577 C206.463403,516.098673 206.460791,516.240879 206.465778,516.373604 C206.876397,516.297761 207.285116,516.205327 207.688611,516.098673 C207.356601,516.06478 207.018653,516.121189 206.691393,516.008609 C206.615871,515.997706 206.539399,515.987752 206.467915,515.963577 Z M194.161215,515.437415 C193.800231,515.84602 193.096312,515.919493 192.65102,515.648354 C192.560774,515.664944 192.47029,515.676795 192.375532,515.681535 C192.34917,515.683905 192.320672,515.681535 192.294785,515.681535 L192.604037,515.759025 C193.249227,515.917925 193.74868,516.020807 194.410816,516.1155 C194.294446,515.904325 194.216075,515.676795 194.161215,515.437415 Z M208.990053,515.420824 C208.906931,515.574881 208.792936,515.702866 208.653055,515.809521 L208.972118,515.702603 C209.025148,515.684432 209.077924,515.665734 209.130171,515.645984 C209.087661,515.56777 209.039925,515.494297 208.990053,515.420824 Z M190.306999,514.491745 C190.366846,514.631344 190.500553,514.845364 190.653734,514.958892 C190.518127,514.818819 190.399383,514.662629 190.306999,514.491745 Z M206.377669,512.315993 C206.380044,512.396576 206.382419,512.47716 206.387406,512.56035 C206.430867,512.513896 206.48264,512.472182 206.544149,512.443978 C206.486914,512.401553 206.429917,512.358655 206.377669,512.315993 Z M191.845693,493.893203 C189.188899,494.753787 190.11962,498.084726 192.13068,499.176157 C194.317958,500.617178 197.621435,500.392255 200.131936,500.607934 C202.702046,500.662447 205.676838,501.705765 207.990222,500.20715 C209.196906,499.394917 209.207593,497.550031 207.931087,496.839238 C207.907101,496.896357 207.881215,496.950633 207.854853,497.005382 C207.871715,497.1355 207.859841,497.282684 207.802606,497.455464 C206.345133,500.074188 197.198704,498.561116 194.878908,497.263249 L194.699616,497.185585 C193.128791,496.5186 191.65556,496.209473 191.845693,493.893203 Z M195.094785,455.367223 C195.669985,457.942574 195.481656,460.623395 195.845014,463.207515 C196.073242,463.956467 195.780892,464.454188 195.313276,464.710159 C198.331766,465.611034 201.373768,466.058746 204.518127,465.357196 C204.17733,462.337688 205.037279,458.972146 205.472835,455.936047 L195.094785,455.367223 L195.094785,455.367223 Z M206.619908,456.00004 C206.670731,456.385655 206.664081,456.806348 206.707779,457.206421 C206.714113,457.196941 206.720446,457.188514 206.728256,457.180508 L206.741265,457.168737 C207.121011,456.839056 207.465608,456.417415 207.828967,456.052419 C207.430222,456.044124 207.02174,456.021845 206.619908,456.00004 Z M190.881486,377.845984 C188.957822,382.425017 186.787169,386.878436 184.352902,391.215719 L184.452121,392.240075 C185.095694,398.955666 185.580328,405.678063 184.488984,412.380715 L184.386571,412.955217 C182.704449,422.346813 180.607837,432.125707 184.687763,441.215355 L184.873347,441.691996 C186.331087,445.424214 187.865516,449.126653 188.259603,453.134589 C194.890307,453.608609 201.542385,454.269867 208.182589,454.502137 C209.899637,454.793659 210.73465,453.813623 210.887593,452.203139 C216.067474,430.520277 220.611359,408.688335 226.224896,387.113076 L226.283257,387.002871 C226.891698,385.839825 227.347957,384.50276 226.217534,384.095701 C224.084641,383.724069 221.992835,386.002447 219.96705,386.584306 C209.094785,390.866603 200.859841,379.491781 190.881486,377.845984 Z M190.625092,386.677143 C197.227535,396.436742 193.635271,411.261008 192.876729,422.851984 C192.315779,427.120297 192.974813,431.491947 192.527383,435.738219 C192.465635,436.069796 191.940784,436.131418 191.795678,435.832786 C190.23941,431.92212 190.878256,427.424381 191.014575,423.309413 C191.985907,411.139422 194.736271,398.574572 190.625092,386.677143 Z M209.926948,253.019675 C209.902249,252.860168 209.678297,252.917524 209.664522,253.05499 C209.593513,282.327624 207.752495,311.515172 204.840875,340.641335 C204.800027,341.272255 205.834056,341.421572 205.956126,340.792073 C208.050363,329.974539 208.896172,318.951444 209.605203,307.966048 L209.684947,306.722593 C210.607355,291.966822 210.899705,277.171708 210.503335,262.392 C210.417126,259.285984 210.404777,256.093933 209.926948,253.019675 Z M269.799213,210.384179 C269.542724,210.687789 269.262724,210.870049 268.9775,210.962483 C268.979874,217.802593 267.597924,224.533914 263.810205,230.459165 C262.14683,232.655063 261.253394,235.191307 260.45638,237.801499 C260.68532,238.509685 260.397483,239.324525 259.862656,239.73313 C256.362063,250.362082 256.001316,261.7452 257.293021,272.786549 C261.229883,267.017725 262.791376,260.130687 263.892852,253.342246 C263.952224,253.000952 264.517449,253.005692 264.579196,253.342246 C265.885625,260.603048 263.671749,267.850341 260.812614,274.483778 C259.227135,275.823832 259.567457,278.860879 259.382928,280.759566 C288.402945,284.97953 278.31012,229.309429 282.027779,212.164124 C282.096651,211.690104 282.497771,211.349046 282.953751,211.2021 C278.60057,210.541316 274.191104,210.490596 269.799213,210.384179 Z M152.384455,9.19110665 L151.881873,9.31763167 C146.586435,10.6389683 145.183097,10.6690253 144.846304,16.8891923 C143.528475,25.6647256 138.66303,33.3282078 136.475515,41.8157739 C135.600841,44.8137138 136.523963,50.3374695 140.673852,49.5304503 C142.018042,49.1178159 143.065608,50.9262024 142.048916,51.8884631 C139.044675,54.7254731 136.128543,57.6525469 133.195311,60.5630301 C144.972885,100.285674 160.27409,138.977561 178.909645,175.994024 C179.648475,177.461116 177.432699,178.755191 176.698857,177.283358 C158.169247,140.147836 142.760995,101.468025 130.801548,61.7362951 L130.440197,60.5319818 C129.912258,59.0701039 136.665269,53.8281531 137.895226,52.1159927 C125.580451,46.190742 142.730511,25.4402771 143.231851,15.4671322 C139.66476,16.8607511 135.711511,16.3831759 131.988865,16.9911067 C124.835209,18.2401495 118.557415,22.3759745 112.976889,26.8286819 C90.3106633,46.8306691 75.8228601,74.5229207 61.3324444,100.622702 C51.463335,117.657087 46.7068974,138.471307 56.6094928,156.58788 C68.0992299,179.812729 81.4323596,202.200933 95.5223681,223.934279 C97.0724614,225.943176 99.4506802,223.634224 101.081995,222.786913 C110.454751,217.160295 118.582826,209.502501 124.83331,200.548263 C108.443454,180.017743 93.195922,157.584033 84.6995013,132.601991 C84.0207566,126.52458 92.5463885,119.485145 95.6579746,114.203139 C102.527593,104.73293 108.946219,94.9410975 115.07487,84.9821732 C114.882266,83.9978706 115.289561,82.9185269 116.333564,82.9462571 L116.940188,81.9357829 C121.620464,74.1619806 122.141557,73.8604492 117.495125,83.370505 C119.852682,118.452255 119.460349,154.211143 120.480129,189.515683 C123.237381,193.16066 126.075617,196.746622 128.979874,200.275701 C138.402504,193.789922 149.485659,189.55716 160.868051,188.247442 L161.452148,188.189303 C166.269928,187.697323 174.417391,186.670245 175.058042,193.009448 C174.198806,200.769393 158.341164,196.363851 153.213293,200.766312 C161.576719,204.131617 171.162029,205.083686 178.840774,210.161626 C181.304014,211.593404 186.132173,216.174334 181.415159,217.923705 C179.356601,218.101462 177.23107,217.296813 175.174175,217.124744 C177.488746,217.902374 179.617839,219.225127 180.973666,221.293987 C181.94951,222.71344 182.661978,225.657105 180.329832,226.266695 C175.012682,226.410323 169.718331,224.688919 164.482165,223.820277 L164.947551,224.009406 C168.766316,225.573879 174.698027,228.374377 169.557313,232.514279 C164.409493,235.173768 158.178958,230.646877 153.052037,229.436704 C139.236329,226.232328 129.03046,235.025163 114.870629,225.500915 C114.473072,229.695519 113.202504,234.011708 113.592699,238.212 C116.998772,241.392912 127.598636,241.287442 132.340349,241.707424 L132.335161,241.545984 C132.266049,238.967214 132.95359,239.23065 133.083691,241.738235 C145.087593,242.105838 157.119518,241.882574 169.099196,241.022465 C174.240143,240.643472 179.372675,240.132003 184.484714,239.468297 L185.442979,239.342064 C188.069849,238.991526 190.814989,238.759019 193.394124,238.133076 C196.032869,237.779931 196.036431,234.965674 195.756668,232.900131 C192.134718,156.512273 161.079891,84.6854366 152.384455,9.19110665 Z M201.195651,15.5003136 C201.805998,16.4056919 202.482843,17.2707785 203.21431,18.0884631 C204.340485,16.3483355 207.0804,15.3623737 207.860078,17.9604777 C208.738314,20.6311067 209.99297,23.3740237 210.030256,26.2036864 C227.97923,84.7062935 228.435684,146.9155 228.0861,207.599311 C228.623539,217.22571 225.637347,226.645911 225.913547,236.220642 C235.745846,237.633222 245.7204,237.754097 255.592597,236.709119 C255.884709,235.94334 256.214819,235.187278 256.589103,234.44757 C271.366168,216.437415 263.532343,193.861736 256.41431,174.351544 C252.111478,174.529539 247.782996,174.261954 243.475888,174.311253 C244.805829,178.429302 245.150188,182.785546 245.858144,187.043431 C246.340396,190.077308 246.955401,193.08827 247.662652,196.077881 L247.852689,196.874845 C248.119485,197.976687 248.47295,199.166372 248.085795,200.259347 C247.705574,201.337506 246.394633,201.773604 245.525184,200.934589 C243.958704,199.148481 244.126846,196.487096 243.620757,194.269867 L243.527332,193.573254 C242.664801,187.217013 241.528916,180.612708 243.105405,174.311253 C241.557211,173.974935 237.328,175.199329 237.105947,173.119092 C237.171494,169.685291 234.678806,162.240332 237.453157,159.977123 C239.103708,158.718363 241.941707,159.11654 243.877245,159.038563 C246.114633,158.948263 248.34917,158.865309 250.583946,158.87953 C232.624019,115.489445 237.618982,102.128409 239.441571,58.9442762 L239.495803,57.6264758 C239.490816,57.3444339 239.949408,57.2733309 239.999281,57.560113 C242.745371,75.2486454 239.084709,93.1594932 240.818857,110.90159 C243.899094,144.61911 265.266253,173.564671 268.839756,207.11818 C276.545812,206.227497 284.338789,207.319402 291.807355,209.256248 C291.964098,207.89344 292.085218,206.525655 292.170714,205.155737 C293.587813,180.114206 284.799518,155.786786 274.542589,133.327242 C268.396126,121.399238 264.597008,108.678199 263.007254,95.3703227 C259.918941,78.0410975 252.991138,61.7141878 246.085422,45.6181258 C241.721316,33.5777794 232.283013,30.7400583 220.579535,29.3416992 C224.526609,35.8831759 228.449934,42.4388733 232.366372,48.9993108 C233.240807,50.9821367 230.56264,52.4018268 229.393004,53.6210064 C243.769425,61.4641422 235.374887,85.663103 235.672224,99.231216 C234.604947,111.690122 234.202402,124.23056 232.321249,136.605327 C232.183505,137.46117 230.867813,137.212073 230.855464,136.406239 C231.029069,117.861863 233.240807,99.3897758 234.211427,80.8769225 L234.329447,79.5271543 C235.086368,70.7614181 235.825393,58.1164704 225.284438,55.7090647 C223.861876,55.479165 223.752631,53.3650356 224.894718,52.7300857 C226.414887,51.8837229 227.746965,50.8479891 228.939162,49.6202771 C222.924743,39.9614075 217.679077,29.7927293 211.350697,20.3476427 L211.086329,20.011097 C206.862022,14.6641794 207.155879,16.5968594 201.195651,15.5003136 Z M172.14381,192.53922 C170.974887,189.11561 159.696753,191.348007 156.680875,191.717506 C145.570884,193.817178 134.389883,198.732766 125.928136,206.303103 C125.405659,206.769776 124.788424,206.762665 124.301333,206.509065 C120.50839,211.349046 116.13526,215.735628 111.334412,219.592018 C112.213123,220.281717 113.115583,220.954826 114.044166,221.594753 C114.488509,221.642155 114.889628,221.872055 115.070358,222.286822 C128.276668,231.850651 137.994497,224.389812 151.71236,226.114771 C156.835243,227.145291 161.552733,230.403468 166.830935,230.539511 C170.704624,229.659019 167.293564,228.040004 165.48437,227.413349 C160.295226,224.936594 154.978076,222.739511 149.677075,220.514224 C148.031511,219.824288 148.596736,217.338053 150.434667,217.771781 C153.652885,218.530213 156.880366,219.253094 160.109985,219.959621 C166.320807,221.229995 172.680299,222.853987 178.957381,223.467369 C177.563318,219.592729 162.756092,215.40097 158.454446,213.86396 C156.827406,213.091781 152.191613,213.243705 152.721927,210.720496 C153.149645,208.379548 158.085388,211.061079 159.727864,211.254005 C166.44264,212.95313 173.295159,213.990997 180.137466,215.024835 C172.787644,207.656193 161.397415,207.016503 152.011834,203.56777 L151.701485,203.496136 C150.056758,203.105736 147.858726,202.384049 149.113398,200.549064 L149.155074,200.489484 C153.982521,193.377761 172.948187,196.983158 172.14381,192.53922 Z M158.257591,152.963665 C161.678388,150.147748 163.515369,155.925579 163.297116,158.60474 C163.458846,160.827894 163.631976,163.053418 163.777082,165.278943 C163.564529,167.021203 165.420034,173.362881 162.938507,173.420237 C152.093791,172.874403 141.2676,173.004995 130.419321,172.358195 C130.404835,174.543665 130.297964,176.728897 130.409822,178.92124 C130.350925,181.657521 131.302545,184.397356 130.746819,187.100219 C130.407447,188.346892 128.71391,188.512799 128.053215,187.451231 C126.070891,182.791139 127.434792,176.779617 128.837405,172.06454 C120.64307,169.982644 124.592044,163.386655 124.593469,157.623282 C124.581595,157.471832 124.733588,157.393619 124.85732,157.42206 C126.888567,160.258359 124.243172,164.042935 125.403308,167.127621 C126.602392,170.499397 131.693279,170.18932 134.569423,170.244873 L134.655895,170.246673 C143.613045,170.401677 152.56402,170.770702 161.520933,170.943482 C161.138338,167.928715 161.03408,164.840474 160.803715,161.825706 C160.513503,159.662042 160.932909,157.093801 159.829771,155.153637 C154.849143,156.769335 149.664037,157.416372 144.428584,157.313273 C138.1876,157.48155 131.624105,158.044686 125.524427,157.298578 C134.272112,155.949754 143.935556,156.145287 152.849958,154.433127 C154.621628,153.974512 156.429635,153.046381 158.257591,152.963665 Z M115.200977,87.8808058 C109.804268,98.1720182 103.601282,107.970013 96.992665,117.507059 C95.5772282,119.545345 94.123793,121.555191 92.6468465,123.550815 L92.3735404,123.900389 C89.4224806,127.647468 86.3574504,130.755889 89.1460153,135.72839 C96.454514,153.468591 106.234802,170.130396 117.568509,185.59293 L117.374374,176.709433 C116.731861,147.097546 116.123731,117.483789 115.200977,87.8808058 Z M250.783437,159.400952 C237.237517,162.243176 236.978416,156.922538 239.241452,171.969593 C244.675922,172.006567 250.107067,171.88427 255.542724,171.971964 C253.989544,167.770013 252.379603,163.586549 250.783437,159.400952 Z M210.111003,30.7187274 C207.055226,35.9684995 201.979366,39.3394932 195.866626,39.3885542 C185.141367,40.0038323 174.27314,39.2982534 163.821944,36.7577429 C162.285388,36.3714166 160.449832,36.0396026 159.034158,35.2008241 C167.093146,78.8643596 180.138233,121.40325 189.314564,164.816871 L189.615668,166.248408 L189.865031,166.198636 C196.111715,165.091088 202.906999,165.551362 209.329662,165.157925 C214.48247,165.083267 219.687525,165.635026 224.804472,164.868773 L224.645113,159.472686 C223.354293,116.281061 221.553812,72.5721196 210.111003,30.7187274 Z M205.629578,18.2375424 C205.062453,18.2297211 204.193954,18.5672233 203.615905,18.5269316 C204.793852,19.7856919 206.097669,20.9209699 207.47012,21.9090647 C206.841961,20.733732 206.35202,19.3237593 205.629578,18.2375424 Z" id="ðŸ–-Ink" fill="#000000"></path>
                </g>
                <g id="Head" stroke-width="1" transform="translate(95.945717, 42.661805)">
                    <g id="head/Gray-Bun">
                        <path d="M101.852482,46.1278396 C97.1727532,17.8816955 61.4400984,12.7890611 38.1556879,18.7342206 C37.7265445,13.3010027 34.2967226,8.50012762 30.0166887,5.34220602 C11.8354504,-7.71443938 -9.6891637,14.4531085 -5.37991858,33.5580128 C-4.60689059,39.3455606 0.0289024597,45.949845 6.5149754,44.9593801 C-1.63779813,60.3572106 -4.82371841,91.4062352 13.1392672,101.004193 C14.8722273,102.234986 15.159827,104.734731 16.4935674,106.33763 C18.6587583,108.922698 27.9092078,112.215479 32.9135844,109.576609 C34.4860017,111.018578 36.3001832,112.421677 38.421201,112.920583 C49.3784869,121.673838 65.3916845,123.648842 78.7343138,120.037046 C86.9547718,118.64485 95.4763664,114.944175 99.7055776,107.383318 C103.289055,101.628952 101.637791,94.8867274 99.9946022,88.7962808 C99.2847464,85.445907 98.822592,82.0687511 98.5380797,78.6631541 C99.1208787,77.9841203 99.1534148,77.0412944 99.2987583,76.1826071 C99.9297676,73.1391613 101.308631,70.3147129 101.9983,67.2800365 C103.541269,60.391103 103.273381,53.0309936 101.852482,46.1278396" id="ðŸŽ¨-Background" fill="#FFFFFF"></path>
                        <path d="M101.4777,60.5132343 C101.207437,63.9190684 99.7608889,66.983608 98.5499304,70.1576463 C98.682212,68.2795789 98.6199898,66.3251942 98.7517964,64.3750757 C97.3434843,52.163608 80.7033147,48.9554403 74.2436031,39.7217666 C74.4882171,39.2003446 74.5763257,34.5381203 73.6130687,35.8492598 C69.876648,52.1662151 47.6687769,60.3523045 32.4642307,60.3838268 C31.314307,59.4381568 29.0336964,60.4371541 29.4645021,62.3223318 C31.7382256,72.2698797 32.2360034,82.6758049 30.7759186,92.7835716 C30.0879118,96.3527056 29.9717795,100.647327 27.8260628,103.722769 C25.5485394,105.884538 28.2865547,106.058029 29.7934249,105.570026 C30.2135437,106.159469 30.6569364,106.731849 31.1019915,107.302095 C28.9375131,108.79431 25.7793791,107.980418 23.5391416,106.987108 C21.0471654,105.670755 19.622704,103.119816 17.8170721,101.07513 C16.8312536,99.0949116 15.3360204,97.9567894 13.4137812,96.8843191 C2.71987108,89.6308642 2.99607125,73.719433 4.53120271,62.2194695 C9.00455301,27.9985397 47.0636539,11.4867621 77.6074029,23.3751851 C94.102704,27.5847201 101.831084,44.6048842 101.4777,60.5132343 M1.99220356,41.1393236 C-4.53091773,34.6561513 -3.21783885,23.3223318 0.882653096,15.8484576 C9.09931128,0.23257794 32.4371569,0.740016408 35.2316947,19.6681112 C23.3303885,23.7368624 13.2879118,32.4614385 7.30887871,43.4779015 C5.36217812,43.2702808 3.48031213,42.4049572 1.99220356,41.1393236 M101.852458,46.1331249 C97.1727294,17.8869809 61.4403121,12.7943464 38.1556641,18.7397429 C37.7267583,13.3062881 34.2969364,8.50541294 30.016665,5.34725433 C11.8354266,-7.70915406 -9.68918745,14.4583938 -5.37994232,33.5632981 C-4.60691433,39.3508459 0.0288787108,45.9551304 6.51495165,44.9646655 C-1.63782188,60.3624959 -4.82350466,91.4115205 13.1392434,101.009479 C14.8722036,102.240509 15.1598032,104.740253 16.4935437,106.342678 C18.6587345,108.927984 27.9091841,112.221001 32.9135606,109.581894 C34.1033825,111.038795 40.8568685,115.46946 40.364553,111.126252 C39.8677252,109.956133 38.3325937,109.650864 37.3104394,109.07256 C35.1621103,107.888932 33.2956811,106.220855 31.8291841,104.261493 C36.4352909,91.2998888 36.0842816,76.8676372 33.5039593,63.5216026 C48.9241459,62.7475278 67.0688109,56.0022224 73.8702697,41.1902808 C78.4680645,51.9694968 92.7264529,53.3567165 96.3282171,65.4084394 C96.5455199,71.7382662 95.1854182,77.974237 96.1717116,84.3071449 C96.4612112,90.5101714 99.746877,96.6719581 97.8471993,102.834219 C92.5402612,116.272213 73.4359016,118.244137 60.8140526,117.682423 C57.8159864,117.435459 55.32781,115.818576 52.863145,114.283462 C51.385961,113.583809 49.6275895,115.047345 50.5326616,116.609479 C53.9883698,121.421967 61.09619,121.84266 66.5541713,121.669169 C80.7187515,120.831101 101.189388,116.654747 101.924655,99.199433 C101.457513,92.2799253 98.7368346,85.6578651 98.5382935,78.6684394 C99.120855,77.9894057 99.153391,77.0465798 99.2987345,76.1878924 C99.9297439,73.1442097 101.308845,70.3199982 101.998277,67.2853218 C103.541245,60.3963883 103.273595,53.036516 101.852458,46.1331249" id="ðŸ–-Ink" fill="#000000"></path>
                    </g>
                    <g id="face/Smile-Big" transform="translate(37.760814, 44.083865)" fill="#000000">
                        <path d="M22.1688546,44.1967986 C26.2399157,43.703704 30.1860888,44.9475399 34.165913,45.5745352 C36.2672052,45.9053903 38.3711041,46.1524099 40.4975161,46.2442748 C40.925263,46.2629311 41.353247,46.2737943 41.7812309,46.2825321 C41.8210434,45.9065711 42.0319546,45.5613104 42.48885,45.3544374 C43.4253907,44.9307728 44.1749551,44.7397222 45.2032067,44.7805773 C46.144487,44.8176539 47.089085,44.9142418 48.0159096,45.083566 C49.698934,45.3915139 51.3895417,46.0903008 52.6206472,47.3043809 C55.4698449,50.1136976 55.0361734,54.6261744 52.8346392,57.6860531 C48.2862101,64.0088909 39.9846916,64.3023432 32.8747745,64.2198561 L32.2186571,64.2112911 C25.7448667,64.1189539 16.4827822,65.0822359 13.5416367,57.7316313 C12.4600648,55.028585 12.6103095,51.8954978 13.9345477,49.3029727 C15.5140123,46.2107406 18.8388267,44.6001538 22.1688546,44.1967986 Z M42.3907407,54.7244155 L42.3326809,54.7267771 C39.3479313,54.8415491 36.3636556,54.9223146 33.3772471,54.9749775 C33.4665882,55.7403604 33.5578251,56.5059795 33.6620958,57.2697094 C33.7438535,57.8707275 33.8315357,58.4710371 33.9227726,59.0706382 C33.9614002,59.3245064 34.1031136,59.7186514 34.0630641,59.970158 L34.0486084,60.0695798 L34.0486084,60.0695798 C34.2019338,60.1387737 34.3410404,60.2502395 34.4446002,60.4120066 C34.480621,60.4679757 34.5066887,60.5244171 34.5327564,60.5806223 C36.8513582,60.5988064 39.3465094,60.5539367 41.7101372,60.1333421 L41.7148768,60.0820961 L41.7148768,60.0820961 C41.75777,59.7807605 41.8833688,59.5779022 42.050202,59.4388061 C42.2163242,58.4778856 42.2011576,57.4539114 42.2653789,56.5005479 C42.3054283,55.9082676 42.3487955,55.3164597 42.3907407,54.7244155 Z M31.0963249,55.0155964 C28.9449775,55.0521219 26.7926939,55.0802508 24.6418042,55.0540397 L23.6653766,55.0389759 L23.6653766,55.0389759 C23.8715483,56.1430071 24.0959673,57.2432599 24.2824697,58.3546119 C24.4770294,59.5129592 23.4554132,60.2492949 22.5712449,60.2195392 C22.670539,60.235834 22.7695962,60.2526011 22.8688904,60.2665343 C25.6313538,60.6564285 28.4997468,60.552992 31.3032075,60.549922 C31.1523704,59.6713729 31.213482,58.6800774 31.1909155,57.9467665 L31.1866139,57.8331786 C31.1437207,56.8935122 31.1136244,55.9545543 31.0963249,55.0155964 Z M16.4832561,54.8129742 C16.5579045,55.3870704 16.7031726,55.9488865 16.9204823,56.471973 C17.8387756,58.6819247 19.9440964,59.7132198 22.1716984,60.1475115 C21.7851857,60.0143192 21.478298,59.6943273 21.4008059,59.1462083 C21.2076681,57.7833496 21.1382333,56.3978199 21.1330197,55.0139433 C19.5805708,54.9995377 18.0176947,54.9664758 16.4832561,54.8129742 Z M50.4866519,54.3411337 C49.3813822,54.601378 48.0969564,54.482119 47.0125408,54.5312396 C45.9966121,54.5772901 44.9802095,54.6174367 43.9642808,54.6585279 C44.0121506,55.3507023 44.0588354,56.0426406 44.1095489,56.7343428 C44.1749551,57.628431 44.1811165,58.5732928 44.3526893,59.4636025 C46.3973435,58.7671772 48.2294276,57.6503935 49.6039054,55.8645787 C49.94634,55.41966 50.2529907,54.8975182 50.4866519,54.3411337 Z M21.7017692,47.8227443 C19.8618647,48.2575082 18.1205436,49.1759205 17.1847138,50.8561734 C16.6292352,51.8532258 16.3849099,53.0349525 16.4318317,54.1994398 C17.9868875,54.0187801 19.5687218,53.9502948 21.1429728,53.8936172 C21.1481864,53.6107019 21.1548745,53.3281013 21.1633881,53.0460956 L21.1876416,52.3233087 C21.2305525,50.9447585 21.2521139,49.2136404 21.7017692,47.8227443 Z M31.2250045,47.9908876 L30.4150545,47.900098 C28.1653504,47.6442883 25.9168542,47.3757508 23.6670354,47.5296741 C23.3414264,47.552109 23.0108408,47.5875325 22.6795442,47.6359445 C23.0771949,49.067997 23.0437808,50.749903 23.2099031,52.16755 C23.2741244,52.715669 23.3551712,53.2593011 23.4449862,53.8008078 L23.8352905,53.7826237 L23.8352905,53.7826237 C26.2493948,53.6520292 28.665869,53.571736 31.0818692,53.4760927 C31.0816915,53.0233809 31.0841797,52.5704033 31.0914335,52.1172598 L31.1003535,51.6640645 C31.1278431,50.5066619 31.0529578,49.2028423 31.2250045,47.9908876 Z M42.522264,47.8071579 C40.1659825,48.1866613 37.730787,48.2674268 35.4162138,48.2702607 C34.491759,48.2714414 33.5677782,48.2147639 32.6442713,48.1330538 C32.7044639,48.6237868 32.7357451,49.1201876 32.7810081,49.6040721 C32.8721976,50.5819486 32.9764304,51.5583137 33.0897026,52.5337719 L33.1907447,53.3872979 L33.1907447,53.3872979 C36.1603277,53.2529249 39.1296737,53.1076887 42.0985457,52.9572571 L42.5175245,52.9348222 L42.5175245,52.9348222 L42.6349607,51.2944885 C42.7149016,50.2006819 42.8028471,49.1071203 42.927024,48.0182818 L42.8338913,47.9847476 L42.8338913,47.9847476 C42.7244071,47.9398778 42.6206103,47.8780049 42.522264,47.8071579 Z M43.5455391,48.2142916 C43.6754035,49.76088 43.7472081,51.3138446 43.8427106,52.8630306 L45.7999108,52.7586845 C46.1260816,52.7409378 46.4522436,52.7228325 46.7784056,52.7040974 C48.0467169,52.631125 49.676421,52.2478432 50.9302765,52.605384 C51.026016,51.4678185 50.7001699,50.3595365 49.6714444,49.5953343 C47.865428,48.2530212 45.5657844,48.7310018 43.5455391,48.2142916 Z M36.8585683,34.3886618 C39.7730382,32.7229553 47.0855742,31.0205123 47.5486785,36.2548788 C47.7616567,38.6636029 45.9672866,40.6594144 43.8719708,41.5499871 L43.7932587,41.5828642 C41.8280339,42.3891723 38.3447769,43.2997648 36.6441154,41.5513418 C35.2286785,40.0961003 37.1060322,37.4868569 38.8648787,38.6790173 C39.7687683,39.2914562 41.6713373,38.8401964 42.6799344,38.548784 L42.7430806,38.530412 C43.8314945,38.2111595 45.2825547,37.1894093 44.8325123,35.8519617 C44.4342426,34.6688077 42.7395182,34.4526545 41.6781781,34.4142589 C40.0938863,34.3576135 38.5521052,34.724742 36.9823003,34.8441951 C36.7336489,34.8631559 36.6569398,34.5038487 36.8585683,34.3886618 Z M48.9313418,25.9717958 C52.8869652,25.786928 55.3475929,30.0971923 54.4380085,33.6288788 C54.2807905,34.2382315 53.597771,34.8364448 52.9385004,34.767949 L52.772387,34.7526931 C52.6879966,34.7445987 52.6032129,34.7339617 52.5252689,34.7124886 C51.8992468,34.5394713 51.3380594,33.8895898 51.3836573,33.2160073 L51.3957707,33.0197356 C51.4880628,31.3513908 51.3068941,29.4292291 49.320112,29.025196 C47.6351247,28.6824795 46.6944292,30.301021 46.6744801,31.790866 C46.6706802,32.0553692 46.3728685,32.24 46.1384665,32.097794 C44.9203834,31.3580857 44.7094928,29.8864904 45.1747345,28.6191978 C45.7644207,27.0134549 47.2401798,26.0507201 48.9313418,25.9717958 Z M19.5769398,26.8962297 C22.4555488,25.9377612 25.5611976,27.469083 26.9550229,30.0088824 C27.4440136,30.1501404 27.9322918,30.5262753 27.8643698,31.1022097 C27.7662867,31.9307967 27.6185683,32.4531668 27.042894,33.0814804 C26.1424739,34.0643854 24.4560891,33.5618267 24.081838,32.3518619 L24.0659644,32.2972142 C23.6408584,30.7331851 21.9157354,29.7012434 20.344268,30.2487366 C18.508475,30.8881896 18.5616726,32.8231395 17.2740051,33.9503592 C17.1227243,34.0828478 16.9412824,34.1039417 16.7598405,34.016485 C15.3921391,33.3568861 15.6379406,31.3716901 16.1255064,30.235464 C16.7650653,28.7444339 18.0080848,27.4183628 19.5769398,26.8962297 Z M15.6565835,18.1725305 C17.9892044,15.797216 24.0717829,13.4986928 25.6674741,17.8850374 C25.9714606,18.7204977 25.324302,19.8470064 24.4527159,20.0202607 C23.0254046,20.3037247 21.7591111,19.6853655 20.3412994,19.7962862 C19.1935131,19.8865871 17.9963291,20.2693582 17.0786701,20.9789663 C14.5370585,22.9442534 13.9780085,26.2683191 12.20705,28.7697229 C12.1208414,28.891546 11.9534114,28.8403519 11.9374996,28.6967238 C11.5342426,25.0550647 13.1016726,20.7739526 15.6565835,18.1725305 Z M46.0778355,15.8342133 C47.6257913,15.2886162 49.3787006,15.3353072 50.9347311,15.8192817 C52.5021612,16.3070483 53.9411094,17.2332835 55.0497099,18.4434567 C55.5527125,18.9928459 56.0181917,19.5991176 56.391525,20.2444959 C56.5898287,20.5865014 56.7983444,21.2930283 57.0237218,21.7137211 C58.2431094,22.416315 58.7643027,24.0173402 57.6725954,25.1563543 L57.6233825,25.2063008 L57.4773265,25.3508769 C56.8904902,25.9306035 56.0056047,26.1818341 55.204553,25.9502753 C53.411983,25.4326454 53.1942053,24.0236208 52.5736455,22.5280875 C52.1637388,21.5402297 51.4614826,20.6661367 50.6100831,20.0240766 C48.5978355,18.5072124 45.2983953,18.023949 42.8757659,18.7387712 C42.7468092,18.7769298 42.5952909,18.6129189 42.6871993,18.4939398 C43.1462663,17.9004667 43.4108295,17.4134111 44.0254521,16.9346509 C44.6493367,16.4487803 45.3302188,16.0977685 46.0778355,15.8342133 Z" id="ðŸ–-Ink"></path>
                    </g>
                    <g id="facial-hair/*-None" transform="translate(29.211196, 80.109389)"></g>
                    <g id="accessories/Sunglasses-2" transform="translate(11.162002, 57.119417)" fill="#000000">
                        <path d="M94.7427379,3.13595077 C94.5472841,3.1034804 94.3515929,3.07290611 94.1559016,3.04422789 C94.0031959,2.95771923 93.8238914,2.89111942 93.6153757,2.85106472 C93.1392095,2.73042662 92.6663681,2.64913218 92.1942392,2.60528532 C85.4181917,1.08344394 69.742229,3.24426436 69.0953079,9.0149845 C66.9374792,9.73383592 65.0703376,9.09011668 62.5693367,9.15410939 C60.6656217,1.21308842 27.7536285,2.33390884 26.1707617,7.12151139 C26.1648244,7.11985232 26.1588872,7.11843026 26.1527125,7.11653418 C24.6318304,6.64678031 22.389693,6.7600711 20.6488957,6.68564995 C16.9319491,6.60791067 13.2107277,6.93853965 9.57405259,7.72090975 C2.76404411,8.80096445 -6.53010348,10.0654129 -1.79385242,18.552268 C-1.79290246,18.5536901 -1.79218999,18.5553491 -1.79100254,18.5567712 L-1.79029008,18.5560602 C-0.974039016,19.3910465 0.411236641,18.718649 0.462771841,17.5883482 C-1.12959457,13.5677101 2.46694487,13.0849207 5.23417133,11.9294968 C12.1197014,9.46080036 19.1299135,9.11855789 26.2512706,9.88220419 C26.7870466,10.5117028 27.5999729,11.060618 28.4592095,11.3478742 C33.2206344,12.1366436 30.7113215,15.6614567 33.7210246,16.1741094 C33.1681493,28.4611832 48.1159695,35.168093 56.7769703,27.0910283 C60.2350534,23.7169535 61.0593791,18.718649 61.8611433,14.2133254 C62.2850619,14.1182844 62.5546124,13.8869626 62.7120679,13.5807457 C63.7316098,12.5649207 64.3721187,11.626835 66.3881662,11.3478742 C68.4042137,11.0691504 69.956207,11.6287311 70.1661476,11.8000893 C70.2191077,11.9065068 70.2758677,12.0131613 70.3418897,12.1198159 C70.4340356,12.2788496 70.55943,12.40565 70.7019237,12.5054312 C68.71105,24.7408368 78.2289126,32.4787402 87.8374962,26.1327967 C92.0125598,22.2133619 92.8948329,16.212742 93.0691501,10.8567894 C93.6350874,10.515969 93.9934589,9.85542206 93.7975301,9.02493892 C93.5275047,7.88018049 94.1606514,6.88900456 95.1690314,6.3912835 C96.4792604,5.74495716 96.2474707,3.38457429 94.7427379,3.13595077 M53.4557731,8.94057801 C52.2631171,8.67879135 51.7537784,10.5139158 52.9502372,10.7764165 C53.7974768,10.9623096 54.515543,11.3886967 55.0006815,12.1110576 L55.0517646,12.1895885 C55.702758,13.2234078 57.3488989,12.2690764 56.6933897,11.2285934 C55.9558824,10.0576931 54.8098108,9.23758687 53.4557731,8.94057801 Z M88.3871892,7.80275798 C87.9667412,7.50717704 87.3304837,7.72660186 87.0863909,8.14427058 C86.8177408,8.60420134 86.9938235,9.11628636 87.3875983,9.41716603 L87.427693,9.44654023 C87.7888838,9.70059704 88.1406558,10.1559985 88.1848318,10.622612 L88.1887301,10.6809833 C88.2360276,11.9020991 90.1376698,11.9082868 90.0901347,10.6809833 C90.043788,9.4803345 89.3471609,8.47721562 88.3871892,7.80275798 Z" id="ðŸ–-Ink"></path>
                    </g>
                </g>
            </g>
        </g>
    </g>
</svg>