<?xml version="1.0" encoding="UTF-8"?>
<svg width="260px" height="674px" viewBox="0 0 260 674" version="1.1" xmlns="http://www.w3.org/2000/svg" xmlns:xlink="http://www.w3.org/1999/xlink">
    <!-- Generator: Sketch 62 (91390) - https://sketch.com -->
    <title>peep-standing-11</title>
    <desc>Created with Sketch.</desc>
    <g id="Introduction" stroke="none" stroke-width="1" fill="none" fill-rule="evenodd">
        <g id="variations-standing" transform="translate(-1320.000000, -908.000000)">
            <g id="a-person/standing" transform="translate(1325.000000, 854.000000)">
                <g id="pose/standing/crossed_arms-2" transform="translate(-28.736217, 150.264357)">
                    <path d="M279.630751,567.323495 C280.191831,565.06017 279.278101,562.122723 278.751351,559.181259 C277.932101,554.606414 275.996957,547.976589 272.310661,545.903362 C271.656999,544.177442 253.5203,530.3539 244.060207,523.406784 C239.201529,519.838764 235.222274,513.108353 234.237406,513.187039 C232.364089,508.588558 232.123303,504.049184 230.97338,498.724725 C235.247239,498.164786 242.547257,499.171318 245.915569,496.743275 C246.519267,496.783321 246.510243,490.203768 246.598114,489.274283 C244.060207,482.413344 237.823498,314.537186 244.060207,234.574997 C244.720665,225.674749 246.440896,215.715951 244.741659,206.534914 C247.524797,205.924391 249.193398,203.046242 249.203372,202.930788 C255.859725,189.888722 245.648631,145.540874 239.248767,133.262724 C244.33104,133.130643 251.025154,132.44073 254.171651,128.205238 C255.661184,127.716257 256.600217,126.863819 257.323135,125.494298 C258.155535,124.189646 258.928088,122.820828 259.623695,121.417818 C263.009818,114.397149 265.098775,106.601557 263.969513,98.8663859 C264.184916,98.7982377 265.293279,98.7912121 265.348377,98.4816179 C265.457147,96.5800257 265.107325,94.9044231 264.534975,93.1084489 C258.720047,72.8785049 251.720285,52.9614337 242.467698,33.9160037 C237.831193,23.7223451 228.238521,20.0025309 218.299115,16.1756936 C213.517503,14.3005643 208.733754,12.1364493 203.743389,10.9083767 C203.680455,10.5599076 203.978504,9.49974646 203.324458,9.58616118 C202.516757,9.7543069 202.676112,11.0505277 202.376638,11.7779102 C190.837265,2.3500406 198.155026,-2.50815291 191.197062,-7.67149109 C183.997333,-11.4013753 179.729174,-11.5528938 171.791091,-10.7456538 C168.862609,-10.6611126 166.519301,-9.34358083 165.828682,-6.40149912 C163.311294,-0.314062044 157.41277,4.16638907 150.977757,5.53989136 C150.446019,4.59518407 148.984034,1.88588348 148.16517,2.74113162 C138.871498,3.05775142 120.911863,10.3851401 112.213101,12.932618 C103.480616,15.1585582 103.59126,17.5304309 101.306612,27.000454 C97.1612349,43.875446 97.9380628,107.254427 108.755705,120.610303 C112.677482,123.224785 115.623001,124.852784 117.592263,125.494298 C117.526004,131.738171 118.573569,141.040023 117.592263,147.146429 C115.382899,158.220862 112.689954,169.340981 110.228852,180.474428 C110.217927,181.714913 100.369004,200.100989 104.985561,196.697326 C105.938368,197.16523 107.613381,199.129508 108.639573,199.5665 C103.734941,210.722664 104.637876,224.416588 104.985561,238.198448 C105.072482,246.405505 103.151193,255.399101 101.306612,263.803811 C87.6597591,335.015865 78.4026599,415.874084 73.3353486,487.206978 C73.1287328,490.127748 72.9931264,492.357201 72.8952807,494.434199 C72.7945852,495.145657 73.7576047,495.132074 74.1150263,494.770959 L74.6082918,494.292048 C75.1576047,494.448953 76.0356031,494.687589 76.5922782,494.83817 C76.66305,497.174646 76.4312604,499.600113 76.1484105,501.729335 C75.8883596,503.764413 72.5744326,512.654646 73.3353486,514.641014 C70.8091739,514.506591 66.0667481,518.644607 63.8041866,523.121077 C62.6438134,524.157351 58.9319966,525.861202 58.0808346,527.454605 C56.9321776,528.558559 52.3687396,531.418559 44.3905208,536.034605 C39.98438,539.552551 25.8096828,553.523151 26.9662561,556.358913 C26.9662561,556.358913 26.836112,557.245542 26.7924139,557.541085 C24.3595725,571.668838 28.4106667,571.07749 41.5177065,573.155893 C60.6645768,576.52677 78.7740933,566.303145 94.9556709,557.638255 C100.332906,554.018906 105.570735,554.979431 104.985561,550.608345 C103.924221,545.211757 103.735654,525.891409 97.5979779,526.327932 C98.6073079,525.222339 98.3543817,515.082074 97.5979779,513.187039 C97.1175369,508.305896 101.542677,503.748488 101.306612,498.724725 C103.877673,498.915119 109.129988,500.118133 110.228852,497.256377 C110.179454,496.96786 108.965408,496.973715 108.755705,496.904864 L108.777791,496.743275 L108.639573,496.710489 C119.343457,459.056855 145.419052,286.138523 173.732063,272.866018 C173.907092,274.284718 177.022175,272.601388 178.908791,272.866018 C187.666212,341.054962 197.692634,405.330226 203.041133,478.264485 C203.575959,480.427663 204.813376,495.514726 205.335518,498.017181 C206.428603,498.91847 207.297418,499.458261 207.941964,499.636555 C208.234272,507.332103 207.243983,523.389688 207.210022,523.406784 L206.698005,524.656929 C203.715614,531.369175 201.493652,540.351095 205.335518,546.929152 C202.484221,546.721897 201.239301,549.147833 201.111769,551.667676 C199.431532,562.717754 243.854636,572.524059 254.171651,573.155893 C257.561337,573.746277 281.726595,569.444754 279.630751,567.323495 Z" id="ðŸŽ¨-Background" fill="#FFFFFF"></path>
                    <path d="M275.569113,568.236684 C269.969113,569.518197 264.505432,571.636593 258.975966,572.888479 C240.967145,571.564067 223.287722,565.51652 207.490402,558.052837 C202.911131,556.052472 200.226076,552.502773 202.272997,547.948625 C208.973998,556.215061 233.778816,561.965161 245.134609,565.526711 C252.196831,567.073201 260.215898,570.56981 267.347467,567.306893 C271.866416,566.5359 277.010198,564.372235 278.749333,560.311779 C278.869028,562.04219 278.691148,563.763119 278.540343,565.488789 C278.71751,567.606474 277.682293,567.89373 275.569113,568.236684 L275.569113,568.236684 Z M208.693048,498.5792 C208.544617,498.227477 208.073913,498.219418 207.895796,498.539619 C207.553099,498.511889 207.188078,498.477285 206.824244,498.46188 C207.447891,496.493748 207.535525,494.434842 207.225839,492.40177 C206.834694,486.797668 206.386789,481.197595 205.912522,475.599892 C201.021903,421.955991 195.388655,368.15116 185.783159,315.096939 C185.898578,315.015644 185.974338,314.889555 185.953913,314.728862 C185.472285,310.969409 184.454643,307.304997 183.744075,303.58394 C183.027332,299.831123 182.422684,296.058397 181.761751,292.295863 C181.564397,291.172436 181.363718,290.04806 181.154253,288.92487 C181.304821,286.195699 180.644601,283.325271 180.295966,280.681187 C180.051115,278.825398 179.697968,276.926711 179.211589,275.07116 C179.416543,274.446638 179.309673,273.705982 178.80667,273.235517 C178.799783,273.229118 178.792421,273.223192 178.785771,273.21703 C178.823294,273.093311 178.864617,272.975517 178.908791,272.866018 C179.254575,272.013019 180.002904,271.631196 180.544142,271.02445 C182.098036,270.744067 183.687552,270.666802 185.254507,270.915426 C185.488672,270.959036 185.662514,270.636228 185.426212,270.509428 C179.128943,266.832691 171.289893,270.377887 166.64555,275.171415 C152.372438,295.415863 147.209893,321.120312 139.323108,344.348005 C125.046195,394.870011 115.031505,446.549573 103.562429,497.70487 C94.4903342,497.283466 85.4393757,495.962372 76.3475691,496.189902 C76.0060594,495.420093 75.4189856,494.596483 74.7198168,494.265617 C80.3687396,416.28363 90.0746938,338.59198 104.525686,261.742664 C106.129452,241.612928 103.620377,221.09023 109.60226,201.407021 C152.056814,218.084232 199.527858,220.566912 244.060207,211.597504 C235.733829,305.849282 231.335288,401.086784 242.772777,495.319127 C239.116865,496.762044 235.191165,497.381588 231.303701,497.834277 C223.828485,498.736337 216.207925,498.850339 208.693048,498.5792 L208.693048,498.5792 Z M95.7319288,520.794624 C95.0595963,522.097942 95.7727769,523.454587 97.182039,523.825034 C92.9663647,524.934478 92.1843121,529.410412 88.8613605,531.45249 C88.5500119,530.864706 87.6696387,530.765872 87.080665,530.594514 C85.3054317,524.006346 83.2561357,516.253985 74.939257,513.831032 C75.4683834,513.15579 75.3952366,512.358963 75.3705377,511.560002 C75.9884852,508.42507 78.2135233,501.425216 76.8351349,497.829537 C84.4768312,499.567531 92.321106,500.279273 100.069435,501.405781 C98.4929805,507.126966 97.1571026,515.765982 95.7319288,520.794624 L95.7319288,520.794624 Z M101.047416,548.659181 C101.297255,548.591871 101.547094,548.522427 101.792183,548.448716 C103.011454,553.785234 94.7491976,555.526784 90.674117,557.420494 C84.5326412,559.960768 78.3985276,562.510284 72.2789008,565.079236 C59.8878914,571.283448 48.2501985,573.030686 34.4755759,568.608789 C25.7096047,566.932418 27.3772553,565.260075 26.0922002,558.51074 C34.8814453,570.308388 52.8859915,565.244906 64.062955,560.144213 C74.221564,556.261515 84.4537947,552.53311 94.9631756,549.26569 C97.0628193,549.790193 99.0636675,549.242937 101.047416,548.659181 L101.047416,548.659181 Z M190.282158,117.377486 C184.989707,118.808315 179.623159,119.549446 174.242124,120.610303 C174.711165,117.162992 175.400597,113.716866 175.412947,110.224523 C180.122599,113.092819 185.128163,115.436374 190.282158,117.377486 L190.282158,117.377486 Z M140.345262,82.5085706 C151.655695,80.1552981 163.631335,81.0146964 174.31812,85.4854166 C177.987569,86.7034111 182.944923,89.8769754 186.75544,88.4077502 C183.928841,97.359856 187.488807,106.582864 191.170368,114.730084 C182.719783,111.91796 175.279478,106.971087 167.585296,102.633092 C170.466042,98.848753 144.267162,94.2618979 141.423226,94.3614421 C140.616,90.4476955 139.654168,86.5664193 138.810843,82.657887 C139.28131,82.8332744 139.865534,82.5986345 140.345262,82.5085706 L140.345262,82.5085706 Z M198.789978,86.7427548 C198.8503,86.7870757 198.894948,86.8446691 198.91561,86.9207493 C209.985941,88.4511231 221.103294,93.4790538 232.470249,92.0214421 C240.150182,91.0323993 236.613964,95.4149517 231.498918,95.2504667 C219.95907,96.4044686 209.259698,89.5961185 198.523277,87.2750793 L198.789978,86.7427548 Z M204.831946,12.7508314 C204.805109,12.8717065 204.777798,12.9928186 204.752387,13.1144047 C204.638392,13.1144047 204.524634,13.1025542 204.40589,13.0693728 C204.332031,12.9980328 204.261971,12.9245597 204.190487,12.8520346 C204.40019,12.7927821 204.617255,12.7562826 204.831946,12.7508314 L204.831946,12.7508314 Z M282.860275,565.977741 C282.701157,563.304979 281.29522,560.626766 279.283684,558.828334 C280.626687,553.342026 277.936645,546.352363 272.197001,543.990795 C270.636221,541.437723 267.248672,540.314769 264.801581,538.493584 C266.854439,538.368206 268.736068,536.909172 267.159851,535.338981 C263.824787,536.34817 260.598494,537.711214 257.422785,539.077577 C256.564974,539.257231 254.526602,540.954222 254.366297,539.440439 C254.970232,538.235243 259.627637,537.017723 261.146619,536.181789 C260.020919,535.471469 258.892845,534.759017 257.771895,534.043958 C259.763956,533.995608 262.324329,532.502682 260.372404,530.808534 C255.112964,531.97652 249.644058,533.006091 245.009215,535.663922 C241.185635,534.717067 252.317001,531.31621 253.345092,531.154569 C251.599545,529.968334 249.908621,528.72806 248.319817,527.388954 C250.062277,527.35672 253.694677,525.607349 251.371556,524.045216 C248.446636,523.295079 244.38533,525.702153 241.482497,526.473858 C241.480122,526.471962 241.480122,526.474095 241.480122,526.474095 C239.293082,527.282536 237.127179,528.156155 234.980037,529.058689 C234.113201,529.423448 233.745092,528.229628 234.600054,527.868188 C237.93583,526.466273 241.31198,525.140439 244.762226,523.996866 C243.821768,522.973457 242.935932,521.908808 242.047959,520.840129 C242.283549,519.16518 240.550589,517.694295 239.908417,516.179327 C240.044499,515.403593 239.654304,514.186784 238.73237,514.025617 C237.999953,513.316957 236.894439,513.270503 235.873235,513.431907 C234.252845,510.323046 232.85427,505.482117 232.34058,501.624541 C236.632964,501.052873 241.613591,501.035335 245.323888,498.670923 C246.427976,498.601953 247.52874,497.802755 247.559138,496.474551 C247.668858,491.684815 247.194117,486.965471 246.767824,482.199437 C246.341768,477.438616 245.941123,472.675663 245.566365,467.910576 C239.23276,391.476027 240.373897,314.640932 246.39734,238.226529 C247.040699,229.268024 247.362972,220.105453 245.872251,211.209756 C247.723006,210.639036 254.640122,209.449956 254.107433,206.948315 C260.10974,191.692454 251.232387,152.617559 244.705228,137.262627 C249.562836,136.979163 255.393676,135.939637 258.583871,131.941752 C261.656509,130.860749 262.733523,127.265307 264.265092,124.675025 C267.559308,117.772108 269.693863,110.00363 268.860275,102.317869 C272.26136,101.418179 268.044024,92.0915971 267.668316,89.5809499 C262.028417,71.0112142 255.565856,52.5431559 247.096984,35.0565561 C244.073744,28.6632106 238.77488,23.6120529 232.289045,20.7890264 C224.492268,17.3962279 216.65773,13.8856354 208.504719,11.4031923 C208.554355,10.0171577 207.101632,9.47440474 206.110589,9.97544394 C206.047416,9.95506108 205.983769,9.93420419 205.918935,9.91879854 C204.916729,9.68131449 203.399172,10.07167 202.592896,10.9080784 C199.950114,7.04410392 199.266144,2.15506108 198.291013,-2.38391796 C194.360326,1.71943665 197.989639,15.4560638 204.111165,16.6387438 C200.123956,45.3425542 166.697323,38.5334932 156.525652,17.6166472 C154.318663,13.5758633 152.830317,9.60239015 150.628553,5.48979216 C156.981632,6.7883701 163.479342,3.28796901 165.782751,-2.79418232 C166.255355,-3.77967001 166.664075,-4.32953327 167.535661,-4.94575934 C168.6065,-5.70419143 168.333388,-7.63345305 166.82058,-7.58462612 C160.854372,-6.24765542 164.772947,3.2334567 150.260444,4.89489699 C149.735355,4.0843227 149.115746,3.31641021 148.46265,2.92060346 C148.186687,2.61746764 147.315101,2.53238104 146.845109,2.88031176 C135.925347,3.53588149 125.273947,6.29088605 114.800902,9.25801459 C105.805992,11.4648149 96.3741001,16.2614239 94.146687,26.0295552 C89.8837523,41.5634294 96.6837863,118.762335 108.421937,128.308388 C110.357476,130.178397 112.680122,131.465362 115.195135,132.37074 C112.787942,149.536191 109.03561,166.594751 105.84114,183.655207 C105.602226,186.597686 100.484804,202.925544 106.980377,200.238562 C107.156594,200.323648 107.335186,200.405654 107.513065,200.48837 C107.129282,201.26837 106.768061,202.058799 106.418714,202.85847 C105.297052,205.425052 104.404329,208.020312 103.994897,210.800439 C103.569079,213.691014 103.485008,216.61311 103.356051,219.528097 C103.308078,220.611469 103.268655,221.676356 103.255118,222.735553 C102.000461,232.965854 102.025873,243.409701 101.924465,253.689063 C96.2494182,292.549227 88.1016319,331.117158 83.4701137,370.182098 C77.8371026,411.916246 73.3685021,453.822463 70.7701306,495.858799 C70.6813096,497.787823 72.9205971,498.168224 74.009486,497.098124 C74.1655165,497.142445 74.3220221,497.184633 74.4787651,497.227768 C74.4813774,498.914095 74.3362714,500.604924 74.1403427,502.2794 C73.7679593,504.720129 70.9670093,510.86414 71.6723528,513.078525 C69.1226667,512.72538 65.0178999,513.243247 64.277883,515.327987 C61.3591383,519.035535 61.5458049,524.09167 58.0808346,527.454605 C61.4158982,528.182463 64.7286378,529.158233 67.9632434,530.182828 C68.6317761,530.541187 68.2270941,531.517194 67.3816319,531.265253 C65.5857371,530.72961 63.7850925,530.177376 61.9744733,529.677522 L61.9744733,529.675626 C60.2237014,529.190704 58.4653299,528.755553 56.6841595,528.423739 C56.6226497,528.473748 56.6437863,528.581588 56.7212078,528.624961 C55.4466022,529.610923 53.9995793,530.468662 52.5482816,531.29085 C53.4839898,531.495863 65.9160848,534.816848 62.1965259,535.857559 C58.5900119,534.365344 54.8312672,532.939491 50.9321662,532.20002 C49.2450416,533.153037 47.5944902,534.146583 45.9285021,535.124961 C46.7326412,535.294897 60.1346429,538.198744 55.4898253,539.03847 C51.8873486,537.731123 48.1533028,536.853238 44.3905208,536.034605 C39.7770517,538.770649 35.1562205,541.498634 30.6030738,544.311232 C28.6988838,545.480403 26.6286887,546.608571 25.4058558,548.368133 C23.7814283,550.708133 23.7621917,553.629045 24.8786293,556.304888 C21.6195623,570.305544 27.3708431,570.845927 40.7761696,573.786273 C59.7786463,578.63858 76.2587481,566.999254 92.7723359,560.67559 C96.2216319,559.064159 100.034287,557.852089 103.125686,555.728242 C106.044906,553.654405 107.969045,549.297449 105.295627,546.30899 C107.143294,542.862627 104.675779,534.411798 104.086093,530.373384 C103.599478,527.825763 103.27198,523.715535 99.4785615,523.584706 C100.492879,522.926529 100.46058,521.690995 100.123108,520.696738 C99.6790025,515.804614 101.202972,507.117012 101.569181,501.59136 C104.468689,501.799929 108.768672,502.647714 110.273405,499.442153 C110.854541,498.515681 110.10455,497.521661 109.154355,497.395572 C109.15483,497.393912 109.155067,497.392727 109.155542,497.391305 C109.358595,497.406711 109.301123,497.383958 109.165754,497.351488 C124.53773,434.037103 134.4522,369.168407 156.634897,307.685398 C161.712896,295.8093 163.974982,280.494186 175.322226,272.828097 C175.477069,273.785854 175.640224,274.890558 176.243447,275.579783 C176.276221,275.703739 176.310182,275.827459 176.341768,275.951415 C176.738137,277.495298 177.18438,279.024013 177.578375,280.56837 C186.456204,348.740275 196.705771,416.769737 201.631301,485.399783 C202.37773,488.577613 201.163447,499.890813 205.622548,499.382901 C206.174236,499.69291 206.894304,499.841515 207.492539,499.989646 C206.571081,504.067878 206.828519,510.228242 206.85678,513.947167 C206.792896,517.663247 206.177798,521.511579 206.59293,525.19116 C207.070283,527.610321 211.603956,526.153183 210.862989,523.721697 C210.759206,516.748862 210.336,508.147531 209.135966,500.40631 C216.083956,501.758926 223.20555,502.087185 230.28036,501.762955 C229.900852,505.849719 231.114422,510.9625 232.526772,514.314769 C228.290673,515.733985 224.187807,517.644286 220.91354,520.526802 C217.812879,523.337504 214.963481,529.782992 209.497425,527.652746 C207.982243,526.980348 206.322192,525.813548 205.799715,524.31043 C205.293625,523.934769 205.558426,524.839911 205.657221,525.055827 L205.450606,525.12693 C204.193337,524.326784 201.88399,532.626638 201.691148,533.661898 C200.725754,538.105599 199.607179,543.168133 201.893014,547.322208 C196.981259,549.357413 197.510148,555.976866 201.152047,558.748461 C215.61064,568.092108 239.719138,575.719327 257.66455,576.998944 C260.84002,577.219127 264.180784,576.290758 267.202599,575.292946 C270.753065,574.345854 274.315406,573.333584 277.8255,572.220585 C280.917612,571.512399 283.244533,568.867367 282.860275,565.977741 L282.860275,565.977741 Z" id="ðŸ–-Ink" fill="#000000"></path>
                </g>
                <g id="Head" stroke-width="1" transform="translate(95.945717, 42.661805)">
                    <g id="head/hat-beanie">
                        <path d="M58.1376602,13.9139465 C68.770425,13.9139465 81.5278196,19.0581473 82.6124864,19.1610313 L82.6417679,19.1625954 C83.2124388,19.1625954 85.4422902,20.8579802 89.3313221,24.2487497 L85.1190615,32.447876 L85.4599426,32.7727166 C87.091163,34.3335083 88.4837363,35.7561244 89.5829436,36.8775737 C98.5580595,46.0342975 100.171184,81.9862379 98.05605,94.5238664 C95.9409154,107.061495 92.0232734,119.329795 73.7844454,119.329795 C55.5456174,119.329795 35.2545067,108.385309 32.128788,104.977065 C30.0449756,102.704902 27.7043103,101.61634 25.1067922,101.711377 C25.0000351,101.576941 24.8941392,101.4429 24.7891047,101.309252 L24.4069291,101.255221 C20.8120174,100.735627 18.2361781,100.03626 16.6795091,99.1573528 C13.6388962,97.4405998 10.2968944,88.4154302 10.2968944,86.4273 C10.2968944,84.459051 5.3065834,70.1407199 5.20677718,68.6255101 L5.20525987,68.5835395 C5.20525987,67.3168784 -1.31407979,61.4941222 -1.31407979,59.6449292 C-1.31407979,57.7957362 -2.62815958,57.9079277 -1.31407979,51.3916582 L-0.932302336,49.4773687 C0.466084906,42.5394609 3.20311092,31.0512892 13.6388962,26.0593325 C25.1067922,20.5736657 47.3974937,13.9139465 58.1376602,13.9139465 Z" id="Path" fill="#FFFFFF"></path>
                        <path d="M11.8687464,25.8016226 C17.5881418,19.7432197 50.058099,10.3723111 66.4855516,12.3587208 L66.9783986,12.4224066 C68.2893401,12.5883136 69.5812824,12.8395442 70.856363,13.1808387 C74.977754,14.1414403 79.234989,15.5959708 82.6403494,18.0255606 C85.483335,20.0131267 94.4516472,23.258979 91.8083902,28.458505 C92.7885089,30.3116864 93.1542426,32.6012033 92.4918846,34.4264175 C92.4085259,35.0568642 92.2137846,35.6375387 91.9646582,36.2395442 C94.0586022,39.3232817 95.7165157,42.8106472 97.0585683,46.1276026 C99.4037761,54.4753327 100.863148,63.1626983 101.076889,71.6796536 C101.787932,87.8608022 100.010087,107.189207 85.8884919,117.652726 C77.3576353,124.283081 63.9945818,124.505871 54.4078473,116.284941 C53.8637591,115.642407 51.3052858,113.908441 52.1590602,113.604357 C52.4131739,113.872179 52.6744122,114.13289 52.9404003,114.388861 C52.9282884,114.360419 52.9259135,114.331978 52.9309008,114.301167 L52.6807231,114.075066 C52.2096097,113.640107 51.5992821,113.009256 52.2944292,113.132707 C52.3250653,113.168259 52.3585513,113.19907 52.3915623,113.234622 C52.5387909,113.32276 52.6500176,113.399171 52.7365608,113.46654 L52.7810783,113.502096 L52.7673246,113.487818 C52.3668962,113.061689 52.126831,112.627058 52.7255379,112.90464 L52.8047939,112.943099 C53.0710195,113.222771 53.3415199,113.490593 53.6170076,113.751304 C53.6124953,113.720492 53.6170076,113.689681 53.6338694,113.6565 L53.3770127,113.408866 C53.1262804,113.163666 53.1645484,113.162619 53.2871349,112.96443 C52.7542087,112.219034 53.7490517,112.661768 53.8188736,112.95258 C54.4413333,112.805634 54.9877964,113.971723 55.3886785,114.113929 C72.9626565,127.597429 98.4659304,115.6334 98.0529364,78.0613856 L98.04663,77.3262726 C97.9258426,65.3123574 96.9127783,52.9642895 91.9335471,42.0889517 C91.4493062,41.0413674 90.9075929,40.0222242 90.311732,39.0362625 C89.9008753,38.2967912 89.4615199,37.5762808 88.988916,36.8747311 C87.6658626,36.7680766 86.3596709,36.5263263 85.0727159,36.1518505 C84.6307481,36.0404558 84.1937676,35.9172106 83.7570246,35.7726345 C77.3733096,36.1200912 71.1318507,36.4981222 64.730324,36.8564813 L62.7307755,36.9807669 C57.3079194,37.328693 51.6996512,37.8859557 47.3235386,41.2333455 C43.0297303,44.2808204 43.0102561,50.2902097 39.3346327,53.6360802 C34.0932417,57.1862534 34.0550059,60.3875479 33.045676,65.6193072 C33.1204852,69.5631541 35.8606378,75.2933455 30.8322748,76.9531267 C31.6805869,78.1602188 30.4981272,77.5802552 30.4050314,77.1569553 C30.3955318,77.1593254 30.3860322,77.1616955 30.3789075,77.1616955 C31.1348363,78.5640839 30.0236234,77.6809845 29.9253028,77.2304284 C29.8659304,77.2138377 29.8065581,77.1711759 29.7471858,77.1119234 C30.5088142,78.3405834 29.2776692,77.480237 29.3505785,77.2564995 C27.8788567,74.998979 24.8499169,74.6484412 22.7148872,75.2466545 C22.6887634,75.3272379 22.5940051,75.3343482 22.5346327,75.2916864 C13.4561255,77.2550775 15.7984835,96.011103 25.1018931,94.1979763 C25.5001628,94.1169189 25.4906633,94.3077119 25.5697472,94.3259617 C25.3548193,93.7628259 25.9606548,93.9920146 25.9542426,94.1102826 L25.9911574,94.1084938 C26.0204083,94.1059198 26.0084429,94.1027246 26.0302392,94.1102826 C25.822436,92.9586509 26.9918338,94.6272015 26.8994504,94.6956974 C26.9353113,94.6743665 26.9756845,94.662516 27.0113079,94.6577758 L26.9710533,94.5484546 C26.7769789,94.032475 26.7936165,94.2469368 26.794955,93.9514859 C26.6491366,93.5862534 26.6384495,93.7459982 26.672648,93.5080401 C27.1851501,93.1117593 27.3364309,94.3138742 27.5074232,94.4018049 C27.2143613,93.9941477 27.4473384,93.6611486 27.7237761,93.882516 C29.819145,98.280948 32.5258117,102.413692 36.023793,105.669262 C36.4063885,105.970264 36.7934962,106.266527 37.1946158,106.546199 C38.6824869,107.839562 40.96476,108.671231 42.3576353,109.816937 C42.3576353,109.835898 42.3483732,109.859599 42.3341238,109.8833 L42.3660068,109.912037 L42.3660068,109.912037 L42.398246,109.942552 L42.8827243,110.174822 C43.025218,110.295697 43.1534623,110.430793 43.2672197,110.580109 C43.3885768,110.719945 43.4952095,110.874002 43.585693,111.037539 C43.6308159,111.236627 43.5310704,111.319581 43.3410789,111.234257 C43.2577201,111.205816 43.1748363,111.172634 43.091715,111.141823 C43.0964648,111.148933 43.0986022,111.153674 43.1035895,111.158414 C43.1308414,111.199552 43.3153234,111.626361 43.1027474,111.556914 L43.0774656,111.54711 C42.9608584,111.504448 42.844726,111.457046 42.7307311,111.412015 C42.8661001,111.580292 42.9893571,111.762789 43.0986022,111.916846 C43.2152095,112.037721 43.2862188,112.179927 43.314955,112.341094 C43.3099678,112.431158 43.2603325,112.469079 43.1700865,112.457229 C43.0323427,112.412197 42.8969737,112.364795 42.7613673,112.315023 L42.799932,112.388443 C42.8957415,112.576516 43.031906,112.891951 42.7901035,112.786673 C42.5832502,112.72268 42.3839966,112.649207 42.1845055,112.568624 C42.1676438,112.601805 42.1346327,112.613655 42.0681357,112.582844 C41.434039,112.357685 40.8213164,112.082753 40.2347176,111.758049 C39.7193656,111.383573 39.1990263,111.016208 38.6815369,110.644102 C38.1944461,110.35258 37.7242171,110.027876 37.2755997,109.662881 C34.2723087,107.726983 31.6430636,105.267767 29.5571942,102.528879 C26.0687125,105.543883 19.0938863,102.6635 14.7794165,100.303355 C10.9631993,98.1939654 9.46321628,94.2937284 9.0753961,90.0886964 C8.26911959,84.4274749 3.63332655,82.4896809 3.95583715,70.0679854 C3.94871247,70.0703555 3.9413503,70.0703555 3.93185072,70.0703555 C3.76323325,70.0205834 3.59960305,69.9542206 3.44523494,69.868897 C3.28611705,69.7930538 3.13649873,69.70299 2.99614249,69.5939654 L2.82277523,69.3545852 L2.82277523,69.3545852 C2.73276675,69.3048131 2.65202036,69.2526709 2.59027311,69.2005287 L2.55825066,69.2417434 C2.45688323,69.3638204 2.5250229,69.1801459 2.53090076,69.1436463 L2.22972942,68.7348989 C1.51562988,67.7618964 0.732185751,66.6701504 0.0940220526,65.7970647 L0.0739206176,65.8325402 C0.0594843087,65.8593161 0.0518507209,65.8786639 0.0586361323,65.8871285 C-1.46010857,63.7094804 -2.8883698,61.0791431 -3.28521459,58.5327074 C-3.75378117,56.5712124 -3.57067684,54.5499909 -3.16195759,52.733072 C-1.40952332,46.3705378 4.3310704,31.9726527 11.8687464,25.8016226 Z M53.0845055,113.792314 L52.9893352,113.707726 L53.0730162,113.81236 C53.1168681,113.866434 53.1617618,113.915035 53.2348872,113.964613 C53.2301374,113.948022 53.2301374,113.931431 53.2322748,113.91247 C53.183779,113.875526 53.134193,113.835123 53.0845055,113.792314 Z M66.4129364,15.5556791 C55.2727837,14.5998177 44.3157354,17.0490793 33.6852349,20.0138377 L32.9518984,20.2241885 C26.9072841,21.9454855 20.5157385,23.4943762 15.4075759,27.1786509 C8.27078202,32.6339107 4.58542154,41.3122698 1.36934012,49.3248678 C-1.43897201,55.2780857 -0.00334860052,61.9909207 4.22871247,66.1478396 C4.66901781,62.0169918 5.4197218,58.0070191 6.59291942,54.0292799 C6.83777099,53.4078396 6.65252926,53.2042479 7.1802307,53.1231905 C7.97724512,63.84268 4.05178287,71.7626071 11.8200611,84.4668186 C15.1907481,90.4612762 11.2887973,94.8473838 20.8073723,98.0017502 L21.064963,98.0999791 C23.0480188,98.8467626 25.2136517,99.4362337 27.1559389,99.0187603 L26.9819288,98.7362829 C26.8044639,98.4453858 26.7506113,98.304175 27.0086955,98.1797448 C27.0018083,98.1655242 26.9923087,98.1513036 26.9825717,98.1347129 C26.7738185,97.7412762 26.5719525,97.3430994 26.3793486,96.9401823 C26.3012146,96.9662534 26.2228431,96.9852142 26.1418592,97.0065451 C26.1943444,97.1037192 26.2012316,97.2008933 26.0542256,97.2340747 C25.530894,97.4132543 24.9934945,97.4850736 24.4433789,97.4514596 L24.3253028,97.4426436 C23.703793,97.404722 23.312173,97.2916682 22.9618762,97.1866727 C22.8457439,97.1677119 22.729374,97.1487511 22.6151416,97.1250501 C21.4882545,96.8757156 20.2953452,96.2414768 19.5232672,95.6129262 C10.7223851,90.6243391 11.6319695,73.6428077 22.4800102,72.0375387 C22.7025377,61.3455424 27.7983478,43.3071832 36.2553452,33.1188332 C43.8996539,23.7472197 64.7687973,19.6853418 79.2879491,21.1175934 C79.4995522,21.1875114 79.7111552,21.2581404 79.9227583,21.3294804 C82.1627583,21.5280948 84.2975505,22.5240109 86.5392129,22.9866545 C84.9297472,21.7828806 83.1039288,20.9810757 81.2232502,20.2996718 C77.4761425,18.0122881 73.1804343,16.7746217 69.030307,15.9017138 C68.1705954,15.6907748 67.2990093,15.5746399 66.4129364,15.5556791 Z M21.9834911,80.6267584 C22.5667651,80.3105871 22.5000305,80.615856 22.634212,80.5272142 C26.8296997,80.1856828 31.3536353,83.8515169 33.6988431,86.9075242 C33.5136014,87.0995023 33.0124987,86.5306782 32.9246277,86.4406144 C32.9127532,86.4524649 32.8985038,86.4619453 32.8842545,86.4666855 L32.9495578,86.5586661 C33.900094,87.919988 32.0157607,86.3180902 31.8393011,85.9879253 C31.8084275,86.004516 31.7775539,86.0139964 31.7419304,86.0068861 C31.8913113,86.1531212 32.3475284,86.5344704 32.4258999,86.8056098 L32.5468519,86.9060625 C33.6873719,87.8807608 33.5927166,88.6139755 32.2978931,87.2298578 C32.3285293,87.2938505 32.3404037,87.353103 32.3190297,87.400505 L32.3636136,87.4301556 C33.0003338,87.8742026 33.5239753,89.1120298 32.1931603,87.8413437 C32.3316166,88.7694749 30.8743817,86.975546 30.8275963,86.9881076 C28.3059338,85.012629 24.5932621,83.0914257 21.4301408,82.8333218 L21.3212733,82.820839 C20.740837,82.746412 20.4664088,82.5745407 20.6701747,82.1957648 C19.9553316,82.0260656 20.1227617,81.6748168 20.4611841,81.6861933 C19.9569941,81.3553273 20.4108363,81.0389189 20.7034232,81.1624011 C20.5022697,80.6066126 21.3090212,80.9768222 21.3826429,80.89932 C21.8013367,80.2548897 21.9141442,80.7924284 21.9834911,80.6267584 Z M13.1892824,46.177351 C15.20438,45.4407238 21.1565768,47.6458651 20.6804105,50.5663026 C20.3968482,51.236804 19.4625649,51.6209973 18.8059067,51.2424923 L17.9488483,50.668037 C16.4573431,49.6711814 15.1121716,48.7970727 13.5108431,47.92767 C12.639257,47.4960747 12.2640237,46.579794 13.1892824,46.177351 Z M24.6540594,41.8374129 L23.875821,41.3319877 C19.6760737,38.5889278 13.7390229,34.4325371 24.2681391,38.7328186 C25.468173,39.2464193 27.0626768,39.5502662 27.7174351,40.6907584 C28.7460017,42.7928004 26.0390975,42.9340583 24.6540594,41.8374129 Z M25.1259983,29.5297192 C24.7890008,28.2534202 28.9823511,29.7510866 30.2030466,30.1459453 L30.388975,30.216026 C31.5764259,30.6575943 32.9375946,31.067227 33.6478304,32.0899015 C34.4799932,33.5029553 32.7957184,33.7956627 31.7524275,33.1573947 C29.6133605,31.7623537 27.2681527,30.7097922 25.1259983,29.5297192 Z M35.7893435,23.5843464 C33.429029,21.0119889 39.7458998,23.4762196 40.6921331,24.1602503 L40.7191484,24.1804266 C41.4252044,24.6764886 41.2819983,25.7449298 40.6186904,26.0587311 C38.7313622,26.0945196 37.3425242,24.5245652 35.7893435,23.5843464 Z M46.530039,20.7660128 C42.7777065,18.0747639 47.7205734,19.3548551 49.4373842,20.4095497 C50.6074945,21.4393582 49.4022358,23.1778268 46.530039,20.7660128 Z" id="ðŸ–-Ink" fill="#000000"></path>
                    </g>
                    <g id="face/Loving-Grin-1" transform="translate(37.760814, 44.083865)" fill="#000000">
                        <path d="M22.866476,51.8743847 C22.8914843,49.2630082 25.1590331,48.8126892 27.3130619,49.1608569 C30.9597116,49.7495898 34.6198982,50.1638833 38.3159457,50.2385415 L38.9528923,50.2496809 L38.9528923,50.2496809 C39.0554877,50.1003646 39.226955,49.9870738 39.4596947,49.9621878 C41.5085157,49.7412944 43.6015098,49.777083 45.6614928,49.7164084 C47.4585751,49.6637922 49.3052926,49.4843756 51.1021374,49.6251595 L51.2451619,49.6377191 C53.4412687,49.8499167 55.7587638,50.9685122 55.4935539,53.5405652 C55.2496522,55.9222789 52.9683291,58.0307201 51.1465479,59.3541841 C50.7782019,59.6193984 50.4015437,59.8680219 50.013961,60.0946035 C49.8923664,60.249371 49.7149618,60.3572106 49.5100085,60.3792525 C47.7160136,61.3462534 45.7365394,61.9183956 43.6874809,62.1089517 C39.3433249,62.5123428 34.2931128,62.0757703 30.1206616,60.1969918 C28.7641221,59.586217 27.4987786,58.8235187 26.3802036,57.8868551 C24.6553181,56.4418049 22.8473113,54.2506472 22.866476,51.8743847 Z M39.9828838,57.0523428 C38.241374,56.9999635 36.5027142,57.2431358 34.8440882,57.7792525 C33.7200509,58.1411668 32.6955216,58.8372653 31.6185072,59.3210027 C35.2482952,60.7025342 39.4651569,61.0037739 43.1889907,60.7523063 C44.8226802,60.6418596 46.406497,60.2659617 47.8822561,59.6193984 C47.6523664,59.4537284 47.4196268,59.2852142 47.1759627,59.138505 C46.4397455,58.6936372 45.6698049,58.3151322 44.8668533,58.0138924 C43.3027481,57.4282407 41.6524343,57.104959 39.9828838,57.0523428 Z M40.5665861,34.2164632 C40.0967341,33.8799135 40.4696294,32.7650779 41.4736488,32.937375 C50.5925102,34.5009305 45.8676895,50.1769329 34.2250722,41.574598 C32.8389503,40.45868 34.5175283,38.0007416 36.0115152,38.956422 L36.5419723,39.3645657 C38.2666575,40.6838193 41.1194245,42.6783277 43.1632513,40.538094 C45.0925072,37.84109 42.3599585,35.3043501 40.5665861,34.2164632 Z M46.7399321,22.3522498 C48.6783762,20.7016842 51.1096425,21.9181015 52.5367241,23.5898714 L52.7882836,23.8887535 C53.0737269,24.2298053 53.3898728,24.627072 53.5798643,25.051794 C55.1613062,23.7079471 57.3058355,22.7622771 59.3579813,23.3761331 C61.3481425,23.9736354 62.4831043,25.8697156 62.1413571,27.9053947 C61.7535875,30.2203222 59.9984764,31.776257 58.1126958,32.9794037 L57.5779009,33.3183213 C55.3117288,34.7600607 53.1911733,36.2124669 51.3260899,38.194237 C51.021866,38.5163336 50.3642578,38.4736718 50.1647668,38.0449207 L50.0041645,37.6998637 L50.0041645,37.6998637 L49.8417812,37.3549845 C48.5187277,34.5395424 47.1011535,31.7425871 45.937218,28.8607821 C45.0751315,26.7250848 44.7951315,24.0065798 46.7399321,22.3522498 Z M24.6431972,23.8473831 L24.9385004,23.5066071 C26.358687,21.8570173 28.7644546,20.7525506 30.6622324,22.3523683 C32.6830297,24.0564704 32.2864224,26.8745196 31.3863376,29.0479015 C30.302436,31.6692325 29.0364803,34.232754 27.8201757,36.8039834 L27.5603834,37.355103 C27.4511383,37.5850027 27.344268,37.8149025 27.2376353,38.0448022 C27.0379067,38.4737903 26.3779237,38.5164521 26.0760746,38.1941185 C24.2689962,36.2743373 22.2244284,34.8538441 20.0406857,33.4577286 L19.381486,33.0391504 C17.4647091,31.8256591 15.652665,30.2590228 15.2584326,27.9055132 C14.9211976,25.8743373 16.0492723,23.9664066 18.0418083,23.3760146 C20.0984665,22.7671358 22.238246,23.7056955 23.8223003,25.0519125 C24.0111043,24.6164066 24.3361679,24.2062311 24.6431972,23.8473831 L24.6431972,23.8473831 Z M27.2417913,12.0129717 C27.9354979,12.9117138 27.1947684,14.3804649 26.1818762,14.6127347 C24.9274572,14.9007019 23.6602137,14.7255515 22.4285937,15.0827256 C21.3000441,15.4100365 20.2189924,16.0658432 19.251698,16.7195169 C18.1485598,17.4646764 17.1325802,18.2965816 16.1990093,19.2443847 C15.6437591,19.8082315 14.9441154,21.1440201 14.0877286,21.1689061 C13.2363291,21.1937922 14.3791281,18.5366727 14.4736489,18.306773 C15.1450314,16.6702188 16.0881018,15.1642571 17.2677116,13.8450593 C19.5953452,11.2419781 24.5249126,8.49526892 27.2417913,12.0129717 Z M53.2353945,11.2936311 L53.8164512,11.4547183 C55.254212,11.8536062 56.789106,12.3437429 58.022626,13.2038523 L58.1194891,13.2723086 L58.2688009,13.3813122 C59.8174154,14.533477 62.0077029,16.8324514 60.910972,18.8380547 C60.8352129,18.9762315 60.6746701,18.9899781 60.5454758,18.9335697 C59.086341,18.2957758 58.0045768,17.0220839 56.4525835,16.4892853 L56.1662783,16.3919787 C54.6632071,15.8867116 52.8036741,15.3554653 51.1857812,15.4037794 C50.0482673,15.7727777 48.5119162,15.4671414 48.2157931,14.0852167 L48.2024394,14.0175077 L48.1767905,13.8743537 C48.0062731,12.9301057 48.2599118,11.7263318 49.2381306,11.2712726 C50.5784614,10.6478769 51.8860632,10.9252527 53.2353945,11.2936311 Z" id="ðŸ–-Ink"></path>
                    </g>
                    <g id="facial-hair/*-None" transform="translate(29.211196, 80.109389)"></g>
                    <g id="accessories/*-None" transform="translate(11.162002, 57.119417)"></g>
                </g>
            </g>
        </g>
    </g>
</svg>