<?xml version="1.0" encoding="UTF-8"?>
<svg width="213px" height="715px" viewBox="0 0 213 715" version="1.1" xmlns="http://www.w3.org/2000/svg" xmlns:xlink="http://www.w3.org/1999/xlink">
    <!-- Generator: Sketch 62 (91390) - https://sketch.com -->
    <title>peep-standing-1</title>
    <desc>Created with Sketch.</desc>
    <g id="Introduction" stroke="none" stroke-width="1" fill="none" fill-rule="evenodd">
        <g id="variations-standing" transform="translate(-316.000000, -82.000000)">
            <g id="a-person/standing" transform="translate(269.000000, 50.000000)">
                <g id="pose/standing/shirt-1" transform="translate(-28.736217, 150.264357)">
                    <path d="M234.845996,367.804671 C234.095991,374.370734 231.679315,387.952074 230.492718,394.623338 C230.14785,396.562251 229.906305,397.921066 229.836786,398.366789 C223.122239,433.397753 220.373963,468.993965 219.099443,504.584742 C218.724812,509.215831 218.91067,513.834866 219.717518,518.411044 C219.758994,518.646286 219.802052,518.881076 219.846729,519.115278 C220.072322,519.069235 220.301219,519.027321 220.533499,518.989646 C229.976893,517.457969 236.337637,524.340547 242.484838,530.829913 C244.888165,533.367013 247.258314,535.865487 249.745017,537.859302 C255.714642,543.17534 262.176096,547.905537 268.94627,552.15205 C271.713951,553.778366 274.853796,555.700645 276.973505,558.249591 C278.416827,559.985183 279.379788,562.017573 279.354613,564.459543 L279.345975,565.297346 L280.175697,565.169571 C280.424262,565.131293 280.631052,565.144935 280.798709,565.224836 C280.976587,565.309607 281.099121,565.463858 281.197645,565.644173 C281.639197,566.45228 281.637602,567.735536 281.662238,568.707789 C281.668542,568.956604 281.674516,569.188331 281.685086,569.393663 C281.759762,572.311213 280.437864,574.236612 278.447891,575.553504 C275.349904,577.60364 270.728178,578.249254 266.98151,578.794931 C266.288285,578.895894 265.62367,578.992721 264.997597,579.092877 C241.951832,581.558221 218.61965,575.332337 197.296117,566.898825 C197.236223,566.875137 197.176329,566.851425 197.116209,566.827818 C197.058259,566.838078 196.999681,566.84712 196.940468,566.854913 C195.241445,567.078536 193.779842,566.174518 192.623896,564.867166 C191.026349,563.060371 189.986358,560.448745 189.737655,558.421997 C189.520486,557.440854 189.657344,556.527941 189.778299,555.623509 C189.939134,554.42088 190.074602,553.232418 189.699252,552.067172 C186.757763,545.392343 186.371309,538.133305 186.792317,531.021884 C186.67666,522.218 188.702931,519.73417 190.351766,517.765371 C191.735894,516.112647 192.854017,514.771049 192.494395,511.018239 C192.44938,510.464276 192.273855,506.898567 192.350151,505.127732 L192.901977,505.049024 C192.02707,492.458823 188.853778,479.989781 185.678959,467.53072 C180.508093,447.238499 175.314567,426.969504 180.296673,406.227805 C181.869151,399.833454 184.979597,394.172573 188.100235,388.476705 C190.080413,384.862432 192.066543,381.234801 193.685947,377.405888 C193.715006,377.337181 193.743936,377.268434 193.772518,377.199453 C193.756879,377.131629 193.742398,377.063398 193.72913,376.99474 C193.422513,375.408156 193.801696,373.792814 194.162158,372.165801 C194.491486,370.679321 194.813895,369.182783 194.736922,367.688175 C194.709358,364.877466 194.15468,362.187626 193.571953,359.463533 C193.542127,359.324105 193.512271,359.184788 193.481864,359.045508 C193.345562,359.007147 193.209373,358.968303 193.073293,358.928991 C190.4064,358.158554 187.79998,357.213844 185.296795,355.978787 L184.626438,355.648036 L184.327835,356.332256 C184.233123,356.549279 184.094225,356.715555 183.927202,356.829651 C183.7432,356.955346 183.528074,357.017874 183.311999,357.026471 C183.076979,357.035822 182.839425,356.981904 182.633826,356.868082 C182.471831,356.778399 182.329729,356.650567 182.228507,356.485302 C181.942996,355.319256 182.261538,354.087904 182.54674,352.8684 C182.73494,352.063664 182.919356,351.26179 182.98065,350.480162 C183.073405,350.032894 183.152598,349.51095 183.23663,348.953672 C183.471104,347.398707 183.716048,345.520953 184.558427,344.403926 C184.797557,344.086832 185.090132,343.839133 185.466931,343.716599 C185.828234,343.599103 186.256854,343.596729 186.765685,343.714058 C187.065101,343.783099 187.321339,343.877228 187.537396,343.995397 C187.5704,343.695701 187.602798,343.395934 187.634589,343.096099 C188.9805,330.402321 189.237193,317.600611 188.489914,304.859041 C188.431989,303.871382 188.368031,302.884067 188.297597,301.897665 C187.89714,302.805521 187.504639,303.714703 187.121691,304.625464 C184.827649,310.081369 182.814305,315.741748 180.802063,321.400174 C177.985977,329.319007 175.172806,337.234357 171.582875,344.572218 C171.524591,344.691351 171.466061,344.810416 171.4076,344.929426 C171.477073,345.004809 171.533834,345.094312 171.580925,345.19212 C171.665935,345.368684 171.710082,345.552888 171.67542,345.737299 C171.641974,345.915247 171.537019,346.084535 171.370734,346.24848 C170.037794,347.537769 169.343635,349.263348 168.672105,350.992974 C168.638182,351.080348 168.60427,351.167694 168.570273,351.254945 C168.065261,352.845668 167.237222,354.288218 166.113003,355.39368 C165.114406,356.375615 163.88061,357.090074 162.444043,357.360891 C162.293319,357.389305 162.142889,357.41236 161.992901,357.430249 C161.955712,357.587396 161.918978,357.742946 161.882724,357.896862 C161.703816,358.656428 161.517638,359.456834 161.323216,360.292687 C159.047969,370.074356 155.645734,384.74541 149.512925,395.543514 C145.587848,402.454441 140.548446,407.799085 133.886153,409.052976 C133.401038,409.144278 132.916022,409.212253 132.431693,409.257916 C132.836313,409.461812 133.175057,409.737854 133.410031,410.122095 C134.176776,411.375911 133.411653,413.083612 132.832868,414.64947 C132.491125,415.57403 132.165506,416.472363 132.037213,417.267442 C131.414939,419.043168 130.894088,420.8667 130.373097,422.692283 C129.417855,426.039508 128.465509,429.395425 126.847416,432.459968 C126.786678,432.575 126.725071,432.689493 126.662942,432.80324 C126.727905,432.879802 126.778221,432.960994 126.816506,433.056216 C126.881093,433.216854 126.893281,433.372255 126.875257,433.563698 C126.859145,433.73482 126.824692,433.873163 126.750903,434.004778 C126.907437,434.067217 127.061403,434.144024 127.211938,434.236221 C127.932885,434.677777 128.374088,435.349217 128.593065,436.115227 C128.858622,437.044181 128.80592,438.107875 128.521835,439.11528 C128.225645,440.165611 127.675667,441.159804 126.937453,441.881603 C126.318374,442.486916 125.564168,442.901101 124.714532,442.950658 C124.657229,442.954001 124.600164,442.955645 124.543393,442.955669 C124.497665,442.986762 124.451631,443.015469 124.405475,443.04151 C124.029805,443.253458 123.50664,443.367437 123.017046,443.376179 L122.848592,444.774745 C122.955091,444.892599 122.970851,444.954191 122.963306,445.01742 C122.242493,453.670238 120.181473,462.107483 118.131612,470.511195 C117.751076,472.071258 117.370827,473.63016 116.999303,475.188701 C116.276484,477.672546 115.742086,480.231501 115.208033,482.792358 C114.331395,486.995962 113.459234,491.206277 111.70958,495.081604 C111.666223,495.177635 111.622355,495.2734 111.57826,495.369185 C111.621261,495.460879 111.662394,495.553599 111.701571,495.647358 C112.574876,497.737356 112.396473,500.152778 111.962756,502.329463 C111.256709,503.135059 109.930562,503.066858 108.828578,503.09985 C108.405487,503.112517 107.998826,503.125431 107.633245,503.163267 C107.399736,503.187435 107.151915,503.224986 106.89478,503.268501 C106.932378,503.502224 106.967955,503.736273 107.001374,503.970667 C107.536077,507.720962 107.515616,511.540426 107.497779,515.345741 C107.487698,517.496412 107.477886,519.642696 107.564836,521.770039 C107.5751,522.021155 107.586729,522.272425 107.599886,522.52356 C107.82969,522.488875 108.068119,522.464509 108.315537,522.451034 C110.727021,522.319695 112.402333,523.309436 113.621522,524.859732 C115.505783,527.255717 116.356117,530.903327 117.10362,534.012032 C117.307236,534.858829 117.501978,535.668169 117.704049,536.407185 C119.240329,541.54321 121.206419,546.491569 123.172568,551.437624 C125.793299,558.030349 128.415421,564.618662 129.981387,571.613688 L130.220222,572.680543 L131.100615,572.030139 C131.179564,571.971814 131.272367,571.93066 131.375221,571.926767 C131.477191,571.922907 131.584112,571.955887 131.694434,572.020311 C134.841012,573.906159 134.875369,577.795509 135.007765,581.071243 C135.019446,581.360255 135.030984,581.645594 135.04407,581.925941 C135.013135,582.617511 135.063921,583.362911 135.117324,584.11964 C135.245317,585.933287 135.511364,587.915891 133.973731,589.076272 C123.110188,596.465441 108.420474,596.252978 95.8640903,594.312618 C90.8583868,593.40154 85.9716335,591.879745 81.331806,589.796844 C79.5779547,589.202966 78.2661362,588.575111 77.4637731,587.543876 C76.7823508,586.66808 76.5005093,585.504486 76.611071,583.888494 C76.3019334,580.950687 76.567056,578.15404 76.8277159,575.353847 C77.0536259,572.926961 77.2773805,570.497355 77.1570822,568.05185 C77.5252966,558.65868 79.6788112,549.373774 81.7957828,540.227897 C81.8806171,539.861391 81.9653999,539.495107 82.0500316,539.129101 C82.1737943,538.74191 82.2985728,538.346265 82.4253919,537.944144 C84.0560455,532.773625 85.9801955,526.437688 90.6634894,523.541737 C90.7932628,523.512453 91.002619,523.506111 91.2345494,523.486852 C91.8525514,523.435535 92.5826799,523.351986 93.016921,523.142849 C93.0286304,523.13721 93.0401871,523.131485 93.051592,523.125677 L92.7848886,524.025184 L94.1789453,523.429192 C94.5008519,523.29157 94.837611,523.188279 95.1828895,523.123696 C95.296774,523.102394 95.4113227,523.085352 95.5265928,523.071859 C95.5828202,522.959834 95.6383143,522.847342 95.6930536,522.73437 C97.5891389,518.821181 98.4699129,514.557533 99.3432173,510.29347 C99.8828334,507.658699 100.421122,505.024503 101.21264,502.479054 C101.280709,502.260149 101.350694,502.041761 101.422387,501.823762 C101.207902,501.757921 100.996256,501.684773 100.788321,501.604824 C98.5846973,500.757558 96.5854398,499.064804 95.9659934,496.775882 C96.1152776,496.129184 96.4241601,495.422038 96.8911194,494.89269 C97.2372007,494.500371 97.6755804,494.202428 98.2187134,494.168277 L99.1973464,494.106743 L98.8363401,493.196882 C98.4784421,492.294855 98.4270379,491.267712 98.5365522,490.300192 C100.381341,478.952351 102.838812,467.701687 105.486214,456.510771 C106.493713,452.348694 107.571713,448.201202 108.788777,444.095307 C108.967147,443.600893 109.108325,443.043267 109.251928,442.470122 C109.549456,441.282624 109.821043,439.983088 110.687614,439.235693 C110.89352,439.058105 111.125464,438.918203 111.375642,438.806219 C111.152728,438.606302 110.934743,438.400712 110.721895,438.191337 C108.871874,436.371491 107.302811,434.160199 107.258005,431.676067 C107.171256,430.631863 107.666297,429.556229 108.431003,428.887979 C108.682419,428.668276 108.964966,428.492219 109.269651,428.384753 L110.442179,429.104566 C110.722945,429.276929 110.991396,429.473351 111.260077,429.669015 C111.486476,429.833889 111.712905,429.998467 111.944861,430.151508 L114.747677,432.000762 L112.938092,429.175439 C111.514711,426.9531 112.220654,424.246931 112.7935,421.760559 C112.948167,421.089247 113.09963,420.430555 113.214698,419.795554 C113.365699,419.118141 113.514101,418.437771 113.662812,417.755974 C114.561926,413.633806 115.469155,409.457712 117.049435,405.575349 C117.113769,405.417297 117.179243,405.259671 117.24493,405.101526 C117.115121,404.992995 116.985622,404.882772 116.856438,404.770841 C110.703629,399.439772 108.295926,392.860594 107.984747,385.804695 C107.536247,375.63506 111.396166,364.488223 114.815013,354.563779 C115.684145,352.040807 116.526246,349.596064 117.265708,347.265055 C117.316392,347.105282 117.366991,346.944795 117.417309,346.783634 C117.278695,346.675946 117.140447,346.572262 117.002506,346.473239 C116.164839,345.871903 115.160331,345.314527 114.12406,344.74178 C111.55197,343.320185 108.630542,341.842397 108.242406,338.953567 C108.285355,337.401249 108.894681,335.903504 109.47757,334.430439 C109.714354,333.832042 109.949225,333.237667 110.150095,332.646138 C110.305645,331.950729 110.780751,331.047803 111.385615,330.638698 C111.516623,330.55009 111.654525,330.478459 111.802192,330.494794 C111.933391,330.509308 112.05425,330.596494 112.178714,330.727853 L113.015468,331.610963 L113.376781,330.450275 C113.561541,329.856751 113.747065,329.262685 113.932768,328.668043 C117.474649,317.32654 121.068203,305.776045 120.744647,293.796706 C120.739908,293.621227 120.734334,293.445886 120.727823,293.272556 C120.553122,293.215687 120.375423,293.165591 120.194285,293.123423 C118.961307,292.836397 117.708415,292.949203 116.471878,293.073186 C114.918074,293.228981 113.373368,293.442909 111.979228,292.401839 C99.2788896,282.706108 100.661048,257.992455 101.748496,243.565957 C101.762636,243.378371 101.776988,243.189058 101.791318,242.999596 C101.615176,242.950866 101.439355,242.896848 101.264091,242.838328 C100.674337,242.641411 100.110275,242.399984 99.5971732,242.095589 L99.1760911,241.845784 L98.7916181,242.148727 C98.6054471,242.156629 98.4963885,242.046427 98.3751831,241.917956 C97.8791357,241.392176 97.3885647,240.43628 96.9002774,239.263881 C95.1718545,235.113865 93.6253559,228.321113 93.1687573,226.32016 C93.1572874,226.269896 93.1465003,226.222624 93.1347179,226.170883 C83.8925509,184.36808 87.428431,141.263541 90.8922803,98.9086402 C91.1397952,95.8821039 91.3869978,92.8593818 91.62934,89.8416471 C92.3750956,84.2626338 92.660776,78.5513507 92.9462215,72.8279773 C93.5302864,61.1170856 94.1018223,49.3509496 98.7314547,38.5900987 C101.823232,30.7292354 110.539004,28.9040201 117.940911,27.2505923 C118.144089,27.2052066 118.346395,27.1600158 118.547698,27.1149116 C122.402678,25.9688933 126.278659,25.0843054 130.149654,24.2003426 C136.081826,22.845699 142.001843,21.4910684 147.652468,19.2684345 C147.958382,19.1481051 148.263135,19.0253782 148.566764,18.9002225 C148.349955,18.6786904 148.15011,18.4426212 147.969945,18.1922165 C146.977731,16.8131813 146.589102,15.0087005 146.691097,13.2183055 C146.796897,11.361119 147.431856,9.50872396 148.520551,8.13625564 C148.947561,7.82304197 149.449434,7.79003176 149.958228,7.87293918 C150.955789,8.0354907 151.996423,8.62556052 152.84288,9.09136919 C152.926585,9.13743257 153.008506,9.18251282 153.08844,9.22618476 L153.723924,9.5733839 L154.061151,8.93346533 C155.392418,6.40726166 156.316238,3.62308006 157.219489,0.89049262 C157.741084,-0.687478106 158.256289,-2.24753473 158.845379,-3.72627127 C160.649255,-7.53187748 163.743823,-9.35655452 167.313982,-10.0589943 C172.694854,-11.1176976 179.130616,-9.68807338 184.108388,-8.44829421 C184.287004,-8.40270541 184.466742,-8.35718866 184.647336,-8.31145544 C187.158313,-7.67558271 189.851247,-7.01368731 191.938897,-5.44927607 C195.414529,-2.67867739 196.15289,1.62924404 196.938317,5.85542762 C197.335905,7.99474867 197.73493,10.1235665 198.435341,12.0658928 C198.513958,12.2839066 198.597001,12.5013164 198.684344,12.7178979 C198.882209,12.6287315 199.076034,12.5612847 199.264544,12.5182643 C202.017254,11.8900602 208.059114,15.461095 210.141477,17.3633211 C210.685782,17.7232374 210.935024,18.0817666 211.064507,18.4855039 C211.280135,19.1578492 211.210872,19.9280866 211.161039,20.6883218 C211.138442,21.033043 211.116262,21.3766616 211.112052,21.7121007 C211.10959,21.9082989 211.113203,22.1074483 211.119641,22.3080837 C211.30982,22.3453665 211.49951,22.3823537 211.688688,22.4190049 C212.914753,22.6565414 214.166036,22.8890127 215.432883,23.1243682 C224.499425,24.8087542 234.385838,26.6194271 241.438854,31.600721 C246.370414,35.0837057 249.885901,40.1389787 250.70788,47.8225594 C253.31424,58.9276492 254.697131,70.1473825 255.978468,81.3728546 C256.15045,82.8557909 256.320528,84.3399492 256.490688,85.8248196 C258.55413,103.831103 260.634138,121.940647 266.240987,139.251132 C266.79133,140.59647 267.325131,141.891626 267.859394,143.1879 C276.242914,163.528704 284.751126,184.14397 286.763601,206.26206 C287.855439,216.83193 287.689053,227.510356 285.876897,237.987946 C285.77115,238.552727 285.322881,238.948521 284.811515,239.156554 C284.250392,239.384829 283.577251,239.405268 283.073845,239.0883 L280.391152,237.399156 L282.092339,240.070982 C285.672873,245.694447 282.674057,255.584327 280.644848,262.567395 C280.344263,263.60179 280.061345,264.575521 279.817832,265.466984 C278.259532,270.623622 275.738622,276.238952 271.779191,279.217834 C270.280694,280.345229 268.57323,281.085543 266.629116,281.250321 C264.84341,281.401674 262.864264,281.068631 260.670996,280.133345 C260.396034,280.016092 260.130253,279.894723 259.872705,279.771703 C259.812973,280.062437 259.753137,280.353166 259.693197,280.643889 C255.385987,301.535154 250.579371,322.242198 244.873443,342.805689 L244.078366,345.671056 L246.086387,343.474687 C246.406964,343.12404 246.774046,342.917856 247.157341,342.841948 C247.586602,342.756937 248.029184,342.832486 248.43582,343.015818 C248.900452,343.225299 249.3199,343.5756 249.63257,344.014836 C249.918309,344.41624 250.115115,344.893339 250.17037,345.411005 C250.00624,348.220314 249.09741,350.920915 248.199303,353.616136 C247.720172,355.05401 247.242209,356.490223 246.869168,357.938528 C246.452164,359.432988 245.572241,360.351377 244.443711,360.930491 C242.71733,361.816397 240.460207,361.959696 238.331122,362.116098 C237.220021,362.19772 236.139637,362.278333 235.169817,362.443748 C235.024675,362.468503 234.87783,362.495871 234.729481,362.525618 C234.687449,362.666049 234.646023,362.80666 234.605305,362.94748 C234.318862,363.938117 234.067561,364.938611 233.816409,365.939123 C233.615423,366.739791 233.414503,367.540462 233.194896,368.335867 L234.563568,368.73111 C234.663874,368.401052 234.757848,368.092364 234.845996,367.804671 L234.845996,367.804671 Z M128.561847,243.383129 C128.609241,237.383391 130.751965,231.72604 132.875404,226.077615 C133.760302,223.723754 134.644125,221.371608 135.382569,218.998615 C135.426424,218.857689 135.469813,218.716534 135.512767,218.575164 C135.401449,218.463598 135.289079,218.357057 135.175484,218.256292 C134.633824,217.775811 133.964735,217.338341 133.282272,216.895855 C132.329753,216.278274 131.336401,215.658153 130.745449,214.820052 C130.381879,214.30443 130.193418,213.698131 130.319389,212.870969 C130.662348,206.687683 131.084972,200.506527 131.591059,194.33507 C131.709585,193.017417 131.829284,191.699814 131.949062,190.381348 C134.060523,167.139193 136.187534,143.630519 132.005589,120.503231 C131.821303,119.450171 131.606572,118.407893 131.391677,117.365348 C131.247258,116.664713 131.10279,115.963951 130.968007,115.260871 C130.94853,115.157551 130.926897,115.020403 130.901554,114.860789 C130.781009,114.101551 130.579739,112.893237 130.173117,112.011748 C129.80571,111.215268 129.267903,110.705757 128.6236,110.593728 C128.396261,110.554199 128.16463,110.565715 127.932994,110.624655 C127.89131,110.789224 127.849996,110.957768 127.808959,111.126431 C120.805311,139.911621 122.562867,169.276826 124.327566,198.585477 C125.139453,212.06953 125.951085,225.541247 125.900806,238.938033 C125.900312,239.069678 125.899734,239.201331 125.899074,239.33299 C125.982633,239.358747 126.062769,239.402364 126.134751,239.467486 C126.31661,239.632014 126.366674,239.861665 126.330285,240.075761 C126.286085,240.335809 126.122867,240.583199 125.872347,240.715095 C125.784886,240.761143 125.691789,240.790478 125.597438,240.804459 C125.569483,240.930248 125.540739,241.055894 125.511203,241.181358 C125.376408,241.753948 125.225148,242.322605 125.05648,242.887786 C125.015086,243.026494 124.972698,243.164805 124.929327,243.302732 C125.035604,243.404022 125.142002,243.505143 125.248505,243.606152 C125.963943,244.284684 126.684154,244.958212 127.411515,245.624606 L128.709174,246.813495 L128.604547,245.058592 C128.571067,244.497032 128.55746,243.938467 128.561847,243.383129 Z" id="ðŸŽ¨-Background" fill="#FFFFFF"></path>
                    <path d="M158.30649,-3.79325068 C160.156058,-2.29771741 158.227169,8.48718687 156.736448,10.688299 C166.817002,17.167292 177.001637,23.4981198 187.400403,29.4322235 L188.476906,30.0446709 L188.472156,30.0446709 C188.906287,30.2406782 189.60973,30.3959198 190.034836,30.3150994 L190.350302,30.2111315 C190.397381,30.1967443 190.422472,30.1914855 190.407695,30.2034676 C190.571562,30.1157739 190.73068,30.023577 190.887423,29.9216627 L191.046803,29.7731247 C194.079551,26.8980734 196.030129,22.6146436 198.361215,19.0689736 C194.406779,15.5872963 196.377466,8.80098815 196.537534,4.16554603 C197.28515,4.14682224 197.373021,6.51502644 197.586999,7.20188149 L197.666909,7.6380931 C197.962122,9.24176919 198.289414,10.8862221 198.905065,12.3803136 C200.615226,10.2175971 209.273852,15.3272963 210.895668,16.9714348 C212.662589,18.0958104 212.120638,20.095701 212.097601,21.8538414 C228.52878,25.0451814 249.48152,27.2901404 251.689459,47.8796755 C254.287355,58.9248168 255.675243,70.1669134 256.959349,81.4239417 L257.098943,82.6214357 C259.372074,102.185985 261.339166,122.00988 267.741367,140.747552 L269.920275,145.934691 C275.242651,158.624924 280.458925,171.413881 283.855023,184.769794 C286.44817,190.382665 293.353174,243.954753 282.966813,239.822483 C286.518229,245.607424 283.861435,253.219001 282.626965,259.404015 C280.06683,269.731015 274.583912,286.879402 260.664183,280.919785 C256.355176,301.821462 251.54269,322.551781 245.83297,343.128044 C247.737635,341.044726 250.922368,342.888427 251.15772,345.528955 C251.131121,348.925783 249.501232,352.140113 248.70398,355.411799 L248.636815,355.703247 C247.527654,360.41109 245.804077,362.551916 240.629578,362.712182 C226.081927,364.644051 211.175905,363.99251 196.872156,360.709448 C201.890782,378.150067 185.961418,391.677652 182.605218,407.80334 C175.584081,440.588937 193.385812,471.957925 195.694209,504.382319 C196.029069,507.205108 196.316431,510.032875 196.561282,512.862775 C196.62493,515.780842 197.744455,519.370359 196.162063,521.937889 C197.647796,525.36932 200.960536,528.283358 204.659671,529.057907 C211.622623,529.949065 212.545269,520.682684 218.50744,519.046129 C216.242741,508.226385 215.290884,497.246895 216.133734,486.2155 L216.287946,483.75239 C218.826678,443.5053 222.400837,402.4842 235.701673,364.198235 C235.822792,363.83798 236.31677,363.989666 236.260723,364.349922 C229.958229,405.980022 221.629238,447.407479 220.760977,489.664233 C220.774751,499.246075 218.95677,508.927223 220.692343,518.42066 C234.01906,516.262447 241.449628,530.21499 250.466388,537.438108 C256.413598,542.737178 262.852173,547.451307 269.598534,551.682647 L270.035767,551.940362 C274.777676,554.746854 280.406064,558.502063 280.34018,564.599694 C283.507813,564.064762 282.749747,570.975026 282.187847,572.800004 C281.530002,574.845637 279.618212,576.023577 277.784794,576.935118 C251.417296,585.756394 222.37543,577.165254 197.306762,567.692438 C192.913208,568.271216 189.773123,562.470159 189.303606,558.641262 C188.825065,556.527606 189.94934,554.476995 189.294107,552.417141 C186.336651,545.721845 185.925082,538.329976 186.354463,531.112784 C186.121723,515.948882 192.201215,519.160368 192.096244,512.229721 L192.035543,510.979829 C191.901909,508.102601 191.663187,501.740321 192.464353,505.230815 C190.145744,471.472055 171.037347,438.341134 180.402266,404.319293 C183.235515,394.596904 189.383165,386.592365 193.30269,377.262228 C192.709204,374.192474 194.467338,371.014881 194.297771,367.843212 C194.276397,365.072802 193.720672,362.42777 193.148322,359.744817 C190.440943,358.962684 187.795311,358.002793 185.254175,356.74901 C184.403963,358.697232 181.231104,357.993313 181.663335,355.530541 L182.546796,350.513039 L182.546796,350.513039 L182.580226,350.34807 C183.116653,347.598891 183.211685,342.231075 187.199213,343.154115 C188.544353,330.499201 188.795854,317.735737 188.0518,305.033422 C182.542046,318.136995 178.657194,332.42396 172.496244,345.017014 C172.783606,345.588208 172.755108,346.296631 172.144285,346.886786 C168.660078,350.842009 169.268051,356.940988 162.849425,358.192401 C158.405048,375.041918 153.760468,404.836686 134.291325,409.884051 C135.588492,411.931344 133.345167,415.296649 133.004607,417.572893 C131.201825,422.688992 130.315752,428.033331 127.750867,432.923796 C127.848237,433.158673 127.890986,433.440715 127.857737,433.762811 C131.65068,436.07674 129.244913,443.551088 125.029238,443.793313 C124.562097,444.056868 123.913513,444.209028 123.30269,444.219694 C123.694548,444.347679 123.989035,444.68684 123.943912,445.234334 C123.08895,455.503978 120.343573,465.505801 117.962029,475.500514 C116.045489,482.068536 115.453666,489.285254 112.632292,495.506531 C113.571087,497.677305 113.365184,500.344142 112.946015,502.614698 C112.126677,504.228026 109.526405,503.816102 107.979874,504.00334 C107.986999,504.014954 107.994124,504.029411 107.998874,504.043632 C108.001249,504.043632 108.001249,504.043632 108.001249,504.041262 C108.820112,509.897305 108.307847,515.960259 108.549849,521.873896 C116.078263,521.463869 117.164064,530.865108 118.664522,536.352602 C122.242538,548.312839 128.205422,559.332146 130.949849,571.59149 C131.315583,571.321298 131.811936,571.238108 132.327525,571.53911 C136.817025,574.395081 135.757109,580.507807 136.12498,585.084707 C137.222419,593.190213 121.858755,595.041736 116.006779,595.887624 C102.87979,597.195209 88.7152095,595.201243 77.2981442,588.412091 C75.1350908,585.598071 76.1619949,575.366111 76.8754131,571.643395 C76.2113927,560.998563 79.2156336,550.450669 81.3615878,540.101863 L81.5771472,539.386251 C83.3124146,533.595582 85.3477618,526.302912 90.6407735,523.021025 C91.1976862,522.829534 93.5898228,522.990083 93.2784217,522.078951 L93.2626565,522.037433 C93.1225377,521.698509 93.6473893,521.414097 93.8753791,521.681918 C94.3574826,522.243632 94.3337337,522.928354 93.8516302,523.501918 C93.1914097,524.286658 92.1345818,524.127861 91.3076438,524.599037 C88.1739712,527.807916 86.9639627,532.668992 85.5062528,536.833732 C86.5963291,535.972912 87.6909177,535.151435 88.838229,534.378545 C88.614989,534.19581 88.4653707,533.909028 88.4249975,533.617743 C87.2240136,532.404963 90.4282205,528.357068 90.9495098,526.86746 C91.4268634,525.969192 92.3815708,526.066603 92.9396709,526.606986 C98.133564,519.557834 98.3534792,510.521353 100.80532,502.401152 L100.664473,502.344907 C98.3438304,501.39297 95.0693191,498.82158 95.7016726,496.20808 C96.1571773,495.017579 97.0166514,493.65406 98.44705,493.59149 C98.0504427,492.588937 97.976821,491.455792 98.1024529,490.341845 C99.9508329,478.969867 102.412885,467.694826 105.06588,456.480459 C106.087826,452.247608 107.187003,448.027256 108.427987,443.852602 L108.678093,443.01829 C109.005829,441.935154 109.388187,439.655118 110.494887,438.830086 C107.650239,436.176521 104.835752,431.00117 108.635345,428.176722 C109.996397,426.936923 113.368746,428.597889 111.088611,428.631781 C111.612512,428.95293 112.097466,429.352292 112.610918,429.691216 C110.71314,426.779785 112.216448,422.926476 112.789035,419.7887 L112.944385,419.084169 C113.950398,414.497372 114.897946,409.776165 116.662487,405.440113 C99.1782799,390.340441 111.101198,365.279475 116.859603,347.183285 C112.997075,344.662684 105.632054,342.05344 108.390731,336.221335 C109.211969,334.593076 110.253123,328.271544 112.969527,330.372164 L114.192659,326.449646 C117.486845,315.85234 120.609941,305.096585 120.305574,293.948463 C117.738314,293.343376 115.404268,294.605218 112.930816,293.718563 C98.783335,284.99612 100.238195,258.273477 101.311172,243.645455 C100.672326,243.432146 100.061978,243.169065 99.5062528,242.839621 C99.0146497,243.204616 98.268933,243.22571 97.9815708,242.552839 C97.2572282,240.853477 96.3262697,239.194407 95.6964478,237.466603 C79.3039796,181.203741 89.7717998,121.913313 93.0719525,64.5602042 C94.3581951,52.7774877 94.3676947,36.7797849 106.094209,30.2866582 C110.029408,28.4258924 114.47046,27.6271686 118.664522,26.5539872 C128.289255,23.688773 138.342182,22.4051267 147.664353,18.7392926 C145.495362,15.7316354 146.011189,11.3452908 147.818721,8.32033181 C149.251732,6.14292069 152.003047,7.80886418 153.703708,8.73509936 C155.666558,4.73081495 157.013123,0.461790337 158.30649,-3.79325068 Z M131.465201,574.174899 L131.61841,575.135168 C131.935506,577.13269 132.220049,579.11476 132.106422,581.147734 C132.681147,581.512729 133.032631,582.176357 133.073004,582.844726 C133.123352,583.688481 132.701571,584.50427 131.652818,584.786075 C115.646507,588.90128 97.7393316,589.780587 82.5236234,582.469776 C80.0670331,581.746421 78.825676,579.689174 78.1179576,577.376904 C78.3186361,579.968135 77.794497,584.888226 79.2911552,586.911818 C90.4754809,592.719511 103.48895,595.017087 116.007016,593.585783 C121.74476,592.920022 127.565625,591.374479 132.367661,588.061079 C133.905642,587.379675 133.264183,585.698089 133.296482,584.377943 C132.890612,581.06004 133.94744,576.821116 131.465201,574.174899 Z M108.590222,533.612766 C100.798195,529.709448 91.8598066,534.638071 85.0336489,538.521243 C82.8955318,549.917397 77.5508329,567.600241 82.7608753,578.182738 C96.3198575,585.451599 112.509272,584.887278 127.173768,581.714188 C127.363759,581.52458 127.568,581.368153 127.817364,581.254388 C127.795277,581.28283 127.900248,581.205327 127.914735,581.192529 C127.917109,581.185655 127.919484,581.178545 127.919484,581.173568 L127.959558,581.137279 C127.966296,581.131406 127.97284,581.126008 127.978857,581.121663 C127.957483,581.135883 127.940858,581.147734 127.924234,581.161717 L127.926609,581.147734 L127.926609,581.147734 C127.929934,581.153422 128.006405,581.083978 128.031104,581.104835 L128.117817,581.039823 C128.247837,580.938452 128.078438,581.039371 127.928984,581.142757 C127.972444,580.959311 128.036092,580.778472 128.061978,580.590523 C128.057228,580.602611 128.057228,580.612091 128.054853,580.618964 C128.330341,573.133951 125.474768,565.60509 123.186321,558.508299 C122.421605,556.351745 121.618891,554.209174 120.820926,552.064233 C118.938661,549.935614 117.916032,546.942302 116.695712,544.422426 L116.610239,544.247406 C114.651189,540.2654 112.417364,536.091891 108.590222,533.612766 Z M191.52152,556.370706 C190.792902,563.874206 198.116363,566.863376 204.046711,568.664416 C210.717788,571.031909 217.552733,572.996722 224.425676,574.695847 C238.505947,578.316649 253.185405,579.903194 267.61811,577.633112 L267.997364,577.566019 C272.184732,576.838429 279.502802,575.928394 280.439925,571.164871 L280.446502,571.095987 C280.509555,570.377163 280.642666,567.311413 280.34018,566.538199 C280.230935,566.536066 280.124064,566.512365 280.021944,566.462593 C278.815498,570.314005 274.419569,572.655665 270.182758,573.26004 C268.184522,575.263012 264.503437,574.520222 261.839756,574.634461 C244.257228,574.460496 227.354158,569.027278 210.693802,563.976831 C205.385201,562.135974 194.83426,560.821517 191.52152,556.370706 Z M193.314565,515.074078 C193.176821,515.796485 192.833174,516.481207 192.41448,517.074443 C192.732716,516.954042 194.028933,517.939293 193.136448,517.841881 C190.131257,516.211015 189.334005,525.369083 189.013157,527.294315 C188.029476,536.102082 188.053462,549.843449 195.197856,556.088664 C202.652885,559.275737 210.699026,560.738563 218.388696,563.246366 L220.208527,563.779937 C234.784125,568.03951 249.765282,572.02298 265.062487,571.394771 C266.298144,569.061881 273.481961,571.03262 276.336584,566.898928 C280.067304,560.369539 270.643488,556.187734 266.143064,553.3986 C257.54381,547.888591 249.511444,541.48221 242.268254,534.285874 C238.862656,530.903978 235.746796,527.031234 231.747474,524.312729 L231.538909,524.172844 C228.112332,521.905335 223.714205,520.498579 219.690137,521.987661 C215.771562,523.435792 214.332377,527.903431 211.045523,530.211909 C203.882368,535.071088 195.177194,526.952073 193.946287,520.188755 C193.53163,518.524707 193.403861,516.791927 193.314565,515.074078 Z M108.561723,522.85014 C108.580485,524.220532 108.618483,525.59045 108.673344,526.960131 C110.678941,527.27251 111.543878,529.699967 112.350154,531.387242 C113.659196,533.096558 114.431511,535.126549 115.93102,536.743668 C115.420417,534.307442 115.047559,531.847278 114.494209,529.410815 C113.769866,526.204069 111.972071,523.272018 108.561723,522.85014 Z M94.7612146,531.226312 C94.2268634,531.285564 93.6925123,531.332729 93.1581612,531.359037 L92.9882243,531.574629 L92.9882243,531.574629 L92.9016726,531.681371 C92.7401798,531.88283 92.5739372,532.081681 92.4076947,532.278399 C93.1752604,531.890651 93.9618253,531.544853 94.7612146,531.226312 Z M101.819399,502.794589 C101.156567,508.394188 100.687288,514.044033 99.3827583,519.536977 C98.6916641,522.272073 97.6205869,524.864726 96.1291535,527.249284 C99.1027583,528.261316 102.369662,527.97406 105.403115,527.459985 L105.386299,525.453541 C105.33335,518.262913 105.419855,510.832937 107.680638,503.995993 C105.663165,503.942191 103.739026,503.474097 101.819399,502.794589 Z M110.414141,497.442902 C110.276397,497.506895 110.133903,497.563778 109.98666,497.615683 C110.628831,498.68128 110.283522,500.270195 109.922538,501.41282 C110.162402,501.374899 110.399891,501.332237 110.637381,501.279858 C110.77275,499.964689 110.625506,498.729867 110.414141,497.442902 Z M111.594463,439.828135 C109.517856,448.163067 107.973225,456.760842 106.072835,465.190578 C104.583301,472.432972 103.126868,479.679496 101.811665,486.95308 L101.532037,488.512128 C101.308797,489.773258 100.624828,491.88004 101.631783,492.961043 C102.515243,493.906713 104.360536,494.352292 105.566982,494.664671 C108.501876,495.671964 110.936617,494.510614 111.331325,491.330414 C114.782533,476.173738 119.801368,461.29256 121.6271,445.822104 L121.694887,445.234334 C121.742385,444.715045 122.067746,444.383468 122.457228,444.241025 C118.437245,444.166129 114.603929,442.375756 111.594463,439.828135 Z M124.613632,435.633057 L124.627881,435.526403 L124.461639,435.585655 L124.461639,435.585655 L124.537635,435.610156 L124.537635,435.610156 L124.613632,435.633057 Z M117.282334,405.91674 C116.625167,410.25013 115.730462,414.548778 114.99962,418.871322 L114.796003,420.097451 C114.154786,423.835426 112.592479,428.107918 116.564879,430.508427 C122.166541,435.395573 125.935973,434.393969 127.501503,426.934789 C129.012767,422.264236 130.433725,417.562007 131.768942,412.837779 L132.075549,411.747187 C132.258416,411.093039 132.450782,410.543176 132.892512,410.116558 C127.368509,410.839438 121.747135,409.21829 117.282334,405.91674 Z M117.773937,347.690487 C116.121961,357.721699 112.719925,367.338144 110.925693,377.325747 C106.492953,394.326002 121.336753,414.851781 139.298314,404.611052 C149.943301,396.730706 152.641418,382.049593 156.696075,370.189849 C157.764777,366.333459 158.626863,362.463085 159.344081,358.540569 C144.87409,358.401444 130.462996,354.618764 117.773937,347.690487 Z M194.862996,360.216467 C195.516092,361.315956 195.998195,362.515464 196.34018,363.75716 C196.486473,362.756266 195.947372,361.469539 196.321181,360.579092 C195.834327,360.462957 195.347474,360.344452 194.862996,360.216467 Z M187.137466,343.760861 C186.769357,343.836467 186.439247,344.031052 186.128136,344.310487 C186.891427,348.040788 185.721791,351.923012 185.47979,355.689575 C204.084947,359.934899 223.297126,362.747734 242.31124,359.446184 C245.753411,359.354935 245.640604,353.401717 246.806914,350.828263 C247.158161,349.078655 248.207389,347.266476 248.020248,345.483923 C247.848237,345.226429 247.63732,345.330449 247.763988,345.213978 L247.797687,345.184106 L247.760535,345.214913 C246.754913,346.014311 245.102827,345.145818 245.317792,344.004549 L245.327118,343.959949 C245.139501,344.102155 244.918636,344.182501 244.688271,344.213313 C246.049798,345.445528 244.751444,347.679584 243.013971,347.131143 C226.491834,353.616686 203.429713,352.174954 187.510324,345.197141 C187.105167,344.935245 187.03392,344.288208 187.137466,343.760861 Z M112.774785,330.9955 C111.986321,330.310304 111.747881,334.00458 111.539603,334.590943 C111.391647,336.071781 110.682504,337.568737 110.834022,339.056686 C123.434972,349.930469 143.683793,354.909338 160.232292,355.132602 C160.678772,354.724944 161.362741,354.682283 161.956465,354.921663 C164.495226,354.577287 165.69716,352.166658 166.454514,349.998727 L166.63262,349.550474 C167.020256,348.579885 167.423946,347.616382 167.936448,346.718746 C149.346253,347.302264 130.172784,343.744507 113.947983,334.403705 C111.65431,334.62128 112.1737,332.4652 112.774785,330.9955 Z M123.20532,242.82777 C116.429035,245.171088 109.035277,245.650797 102.054514,243.870614 C103.585846,255.325309 105.123827,282.459402 114.878941,289.075537 C116.527118,288.838527 118.182419,288.722155 119.84722,288.888299 C120.83755,288.986658 121.817194,289.146166 122.799213,289.298326 C123.168179,289.349363 123.902984,289.387714 124.372218,289.354681 L124.452139,289.348098 C124.293922,289.35954 124.179984,289.353306 124.522879,289.337717 L124.561384,289.336011 L124.663984,289.328199 C128.046433,289.024916 131.099073,284.255357 134.445693,286.54427 C134.937059,285.801717 135.679925,285.325564 136.250612,284.664543 C138.790561,280.223923 136.092207,274.508901 137.789544,269.827953 C137.148322,268.953149 137.359688,267.64272 138.366643,266.893768 C139.935735,265.454407 143.253225,266.526166 144.156634,264.459438 C144.094711,264.571939 144.090333,264.442158 144.114341,264.374457 L144.120265,264.360368 L143.960876,264.228851 C137.028577,258.498554 130.325377,252.095329 125.7824,244.146028 L125.630087,243.877488 C124.761113,244.719347 123.333089,244.076339 123.20532,242.82777 Z M281.494378,238.940569 C276.518975,241.656704 271.146965,243.595683 265.575464,244.662228 C264.59297,255.086877 263.376787,265.495883 261.614141,275.819566 C264.349069,276.053495 267.149069,277.226458 269.532037,275.305254 C276.304047,268.734862 278.744726,255.520131 281.404132,246.59623 L281.50906,246.189935 C282.067787,244.001135 282.70919,240.973054 281.494378,238.940569 Z M212.083352,22.5862024 C211.372309,26.1389827 215.294446,64.8230483 208.141028,58.2064394 C203.299569,50.6157192 197.761554,43.5127657 192.811087,36.0007329 C192.129255,38.6862935 194.124641,41.8771595 193.181571,44.1541149 C205.779433,107.176503 214.919213,171.170396 218.305574,235.371435 C223.873513,239.27499 228.75582,244.007606 233.542656,248.80303 C235.034327,250.069375 236.117279,252.13942 237.969696,252.867515 C245.683589,244.158819 254.62744,236.641335 262.692343,228.268244 C262.635345,227.86035 262.575973,227.45293 262.516601,227.045273 C262.288611,225.473896 264.369018,224.691526 265.062487,225.734607 C267.932784,221.971836 268.172885,210.319712 267.582249,205.432091 C266.416176,194.470377 262.319484,183.997141 259.392665,173.433604 C250.957517,141.117287 245.120027,107.21561 247.882504,73.7614075 C247.922877,73.4509243 248.336109,73.4461841 248.372682,73.7611705 C250.66493,109.10458 254.237008,144.546348 264.881995,178.517469 L265.135306,179.357063 C269.294181,193.087378 274.43882,207.642191 270.878602,222.041991 C271.174277,223.980259 270.242131,225.912128 268.833818,227.305747 C268.050103,229.201827 267.154768,231.074443 266.029069,232.778308 C266.286507,235.74117 266.168712,238.74148 265.846202,241.713823 C271.570409,240.568591 276.908696,238.277415 281.993106,235.461499 C282.282843,233.816412 282.536957,232.166822 282.734073,230.510359 C286.522504,199.786986 274.967457,169.908317 263.407186,142.017925 C252.391478,109.515081 254.542656,74.2415898 245.336617,41.3616627 C239.512427,28.5401313 223.6042,27.5323646 212.083352,22.5862024 Z M149.64264,20.2042516 C146.864726,21.1639052 144.087288,22.3461112 141.11677,22.4297758 C132.217746,25.3859204 123.092945,27.655651 114.046591,30.1228564 L113.171393,30.3622644 C109.309815,31.4219362 105.410239,32.6328204 102.80498,35.8706144 C100.306592,38.9752088 99.2616387,42.9735679 98.4453876,46.7917995 C94.6191959,80.155464 92.4513927,113.856394 90.507542,147.419384 C89.554497,175.364762 90.0976353,203.777287 97.2524784,230.969922 C98.2627583,234.695719 99.4915284,238.433604 99.926609,242.261316 C100.446711,242.26819 100.969187,242.303978 101.494039,242.355883 C101.502114,242.105838 101.882572,242.14684 101.855023,242.391672 C108.80705,243.486658 116.032902,242.839147 122.556974,240.147187 C120.945371,191.192766 110.471138,138.060569 134.196329,92.6461294 C134.2937,92.4733491 134.588187,92.5918541 134.52169,92.7835953 L133.936843,94.4679297 C132.055105,99.8955403 130.216393,105.331454 128.893191,110.92932 C130.778857,110.649411 132.15392,115.058035 132.510392,116.138563 C142.793445,147.304908 136.460316,180.561207 135.151036,212.5687 C138.677754,215.114188 142.187847,217.681006 145.726439,220.207296 C159.992427,230.391854 174.384285,240.424489 189.132377,249.902283 C197.489154,244.481389 204.974582,237.372036 213.560536,232.456211 C211.106558,166.330651 197.590561,100.905692 190.243827,35.5978159 C187.518636,38.9782899 184.74381,42.3196572 181.972071,45.6614986 C178.407355,50.0295934 174.961384,54.5114531 171.446541,58.9219727 C170.719824,59.8370684 169.135769,59.4815533 168.618042,58.5593473 C161.695464,46.071526 157.294073,32.2792015 149.64264,20.2042516 Z M128.774446,111.427041 C118.561215,153.399621 127.046948,196.623139 126.886405,239.073531 C127.646134,239.74427 127.364472,241.016303 126.477924,241.476813 C126.347304,242.061991 126.192936,242.642665 126.012444,243.223577 C126.724913,243.898819 127.442131,244.569557 128.166473,245.233422 C127.615498,235.992401 132.27504,227.597506 134.975294,218.920569 C133.620655,217.900241 132.190969,216.975902 130.871478,215.915282 C129.933826,215.097651 129.821789,214.207585 129.87703,213.045991 L129.881147,212.964507 C131.15884,185.607624 136.085795,158.255956 132.975634,130.854516 C132.48973,125.697652 131.608645,120.591508 130.541367,115.527077 L130.517834,115.394263 C130.346469,114.379432 130.023532,111.644228 128.774446,111.427041 Z M281.952733,238.691945 L281.869612,238.736977 L282.054853,238.893404 C282.016855,238.829411 281.983606,238.760678 281.952733,238.691945 Z M220.861198,224.390737 C218.493191,222.075386 222.147915,218.403152 224.485048,220.773964 C226.849968,223.093818 223.193344,226.765577 220.861198,224.390737 Z M219.300869,196.852684 C218.777847,195.483373 220.232265,193.310658 221.770422,194.220936 L221.818019,194.250077 L221.839393,194.221635 C223.295203,195.079612 222.758477,196.857187 221.903515,197.916622 C220.95617,198.890733 219.77656,197.733887 219.300869,196.852684 Z M217.077778,165.147592 C212.959949,159.763672 221.611213,157.554975 220.193639,164.182961 C219.891315,165.422523 217.400526,167.230673 217.077778,165.147592 Z M210.98855,135.149469 C208.803172,132.483344 213.501425,130.189087 214.484394,133.371657 C215.047481,135.494793 212.393537,136.803799 210.98855,135.149469 Z M232.854412,69.0162771 C234.147779,69.2172616 240.69275,67.8819471 239.007525,70.6018742 C241.639858,83.7293856 249.042877,99.7455752 238.473174,111.216387 L238.378912,111.308818 C236.820093,112.863216 234.327089,116.557379 231.94174,115.034618 C226.646914,110.576933 219.824794,107.391519 215.778212,101.685976 C214.077313,97.2102789 215.525761,92.2088933 215.075718,87.5267603 C214.883352,81.6038797 213.895396,75.7355114 213.683615,69.8221112 C213.674531,69.5353291 213.985642,69.4431322 214.180383,69.5637703 C220.389544,69.0710264 226.631478,69.1802881 232.854412,69.0162771 Z M214.391749,69.9785378 C217.201011,79.105083 217.264183,88.8630228 217.189374,98.322567 C217.23331,99.2978633 217.405964,100.246614 217.915617,100.991774 C221.931325,105.717754 227.652919,108.679431 232.419569,112.604791 C234.349645,111.346505 235.877415,109.738392 237.245354,107.914363 C245.621605,96.974217 238.031444,83.2036974 238.040943,71.021619 L236.967373,71.0236932 C229.448834,71.0336139 221.858837,70.9350672 214.391749,69.9785378 Z M208.071003,103.873172 L208.143379,103.873389 C211.024363,103.880737 210.363668,108.753426 207.644889,108.085294 C205.352522,107.543745 205.702951,103.902704 208.071003,103.873172 L208.071003,103.873172 Z M202.419932,79.0017466 C200.423596,75.607289 207.010602,74.2940164 206.317133,78.2146363 L206.33218,78.0537842 C206.335182,78.0228857 206.338032,77.995165 206.340882,77.970516 L206.291009,78.3378815 L206.291009,78.3378815 C206.051383,80.0718469 202.620848,81.3142534 202.419932,79.0017466 Z M197.917317,50.907011 L197.997903,50.887546 C199.828472,50.4035716 201.180261,52.9684941 199.608081,54.1201258 C197.297376,55.8606848 195.304625,51.5860029 197.917317,50.907011 L197.917317,50.907011 Z M153.114735,11.1243974 L152.891425,10.9182526 C150.502903,8.72889612 148.711458,7.63401477 148.18208,12.0961386 C147.813496,14.2718906 148.129832,17.0162297 150.219976,18.3031942 C160.226355,28.1775059 164.01811,42.2767584 170.46571,54.4213892 C176.287525,47.3833765 181.706083,40.0571595 187.336957,32.8771778 C179.579603,28.1592562 171.745778,23.4775971 164.093869,18.5546618 C160.436533,16.1276791 156.501333,13.9185087 153.114735,11.1243974 Z M203.486236,16.9453637 C200.47677,21.8483902 197.698382,27.1514895 193.860791,31.4906691 C193.371562,31.9810428 192.863335,32.3699763 192.338483,32.6662388 C193.088475,32.4498487 194.082606,33.0103774 193.989035,33.8323282 C199.575023,39.3902133 204.141469,45.8553728 208.504387,52.3973236 C209.338687,41.5754458 207.748696,30.708536 208.364268,19.8700675 C206.946456,18.5688824 205.257907,17.6777247 203.486236,16.9453637 Z" id="ðŸ–-Ink" fill="#000000"></path>
                </g>
                <g id="Head" stroke-width="1" transform="translate(95.945717, 42.661805)">
                    <g id="head/Long-Curly">
                        <path d="M81.5555691,34.7736135 C65.9358914,22.1040055 40.9052214,17.9902224 24.1852553,30.7724102 C11.1936353,42.7681987 5.8173503,76.8564029 8.11648516,93.9855916 C8.75580662,104.972191 17.1664936,117.424935 29.512855,113.950131 C31.6094114,113.74417 33.6451705,112.942128 35.7609635,112.774088 C38.291888,112.483276 40.8420492,112.478299 43.3679864,112.834525 C48.8720407,113.611444 53.7512604,116.527852 59.0933469,117.891371 C69.0059169,120.421216 80.0660356,118.719484 88.5985547,113.020815 C116.794958,94.5202862 104.022779,52.6797211 81.5555691,34.7736135 L81.5555691,34.7736135 Z" id="ðŸŽ¨-Background" fill="#FFFFFF"></path>
                        <path d="M79.4754232,118.195834 C79.7653978,118.096053 80.0548974,117.992005 80.3422595,117.885351 C80.3612587,117.951714 80.3921323,118.015469 80.4279932,118.077329 C80.4683664,118.176873 80.5087396,118.27381 80.5536251,118.370985 C80.1928787,118.373592 79.8316573,118.309362 79.4754232,118.195834 M78.8961866,-4.58033728 C78.7679423,-4.86688241 78.6204614,-5.14181404 78.4542188,-5.40750228 C78.8579508,-5.27690975 79.2619203,-5.09678213 79.6276539,-4.86451231 C79.380665,-4.7815588 79.1381883,-4.68675479 78.8961866,-4.58033728 M17.1988159,32.9054057 C17.1821917,32.9025615 17.1658049,32.9001914 17.1494182,32.8973473 C17.3612587,32.3344485 17.7386293,31.803072 18.1554232,31.4193528 C18.2302324,31.3503829 18.3112163,31.2866272 18.3895878,31.2207384 C17.947145,31.7466636 17.545788,32.3076664 17.1988159,32.9054057 M130.089164,91.7666089 C129.880173,89.7899453 129.614185,87.820629 129.269825,85.8626892 C128.939715,83.9881768 128.661852,81.983072 127.70477,80.3192616 C126.754813,78.6625615 125.80248,77.0530264 124.672268,75.5956518 C124.833523,74.8514403 125.047501,74.1522607 125.232506,73.5881768 C126.301208,70.3411395 127.353523,66.217165 125.13276,63.2000273 C124.617408,62.5008478 123.988299,61.9652051 123.268468,61.4817046 C122.962107,61.2755059 122.454117,61.088268 122.218765,60.803856 C122.052522,60.6023974 122.109757,60.7114221 122.102395,60.6118778 C122.062022,60.0762352 123.320716,58.9456974 123.615203,58.5214494 C124.166416,57.7367092 124.577035,56.8528988 124.890521,55.9498906 C126.130215,52.3757794 125.287128,48.4390428 124.541649,44.8575843 C124.147416,42.959371 123.712811,41.0561805 123.57008,39.1174385 C123.437086,37.2972015 123.68645,35.5196263 123.833693,33.7088696 C123.976424,31.921577 123.938426,30.077876 123.171098,28.423309 C122.795864,27.6174749 122.228502,26.9064448 121.53717,26.3518414 C120.862938,25.8093254 120.021988,25.4941021 119.36438,24.9537192 C118.708672,24.4154695 118.896288,23.6880857 119.067518,22.9438742 C119.302395,21.9342115 119.599257,20.9316591 119.627756,19.8888149 C119.680003,18.070948 118.936662,16.3002461 117.775576,14.925825 C116.578392,13.5061349 114.868468,12.5460073 113.020801,12.3303282 C112.175338,12.230784 111.344126,12.3992981 110.503413,12.3400456 C109.6722,12.2831632 109.491946,11.8683956 109.334965,11.1099635 C108.974219,9.37268004 109.121225,7.65672744 108.264126,6.03557885 C107.504159,4.59455789 106.152607,3.61783956 104.658799,3.04214221 C101.920784,1.98507748 98.7360509,2.20312671 95.8479423,2.82622607 C94.1430059,-2.1791887 88.8208685,-5.46177758 83.5842273,-5.50206928 C82.7670263,-6.88620784 81.3824631,-7.91957156 79.8033961,-8.52655424 C77.1910127,-9.53384686 74.4240237,-8.94582498 71.7026327,-8.94582498 L71.6907583,-8.94582498 C71.417408,-8.96265269 71.1442952,-8.96952598 70.8714198,-8.96715588 C70.6146938,-8.98161349 70.3582053,-9.00294439 70.1017167,-9.03114859 C67.004855,-9.39638104 63.9412417,-10.6620146 60.8728787,-9.42221513 C59.5049398,-8.86998177 58.4172383,-8.01911577 57.7287566,-6.93360985 C56.6909279,-6.65180492 55.6671111,-6.32923428 54.6627684,-5.95475843 C50.3093503,-5.84123063 45.9965428,-3.51142206 43.7952536,0.264384686 C40.696017,-0.086390155 37.3331671,0.508505014 35.2833961,3.03503191 C34.7495199,3.69249772 34.3360509,4.4649134 34.0619881,5.28496809 C31.9720814,5.95949863 30.0382053,7.16137648 28.7726243,8.97165907 C27.6177133,10.623619 27.3958982,12.7595533 28.1770008,14.5328624 C26.3112841,15.8816864 24.8533367,17.8126071 24.1510806,20.0926436 C23.7243121,21.4779672 23.6609025,22.9092707 23.9354402,24.2727894 C22.025313,24.6956153 20.198307,25.4794075 18.5795793,26.6556882 C16.8831925,27.8879034 14.7645496,29.8491613 14.6529296,32.1064448 C14.6446175,32.2721149 14.6510297,32.4377849 14.6643291,32.6029809 C10.9298083,32.3410848 7.12190331,32.9724795 4.5976285,35.9604649 C2.70222561,38.2023428 1.87837489,41.0893619 2.38422731,43.7178031 C-2.05919932,44.6184412 -6.26062426,46.9363993 -9.19124343,50.3635643 C-11.3212858,52.8545397 -13.2140763,56.0209936 -13.1003189,59.4123701 C-13.0646955,60.4341203 -12.8245937,61.4627438 -12.4089873,62.4131541 L-12.4089873,62.4152871 C-12.5871043,62.7497083 -12.7702087,63.121814 -12.9459508,63.5176208 C-15.6984529,65.4395351 -17.6981137,68.4521696 -18.8238134,71.77268 C-19.7331603,74.4625068 -20.3055098,77.9562716 -19.3344156,80.6937375 C-19.1869347,81.1108751 -18.9993181,81.5043118 -18.7808278,81.8690702 C-18.9639321,82.0636554 -19.1370619,82.2580036 -19.3056794,82.454722 C-21.1607091,84.6183865 -23.0392502,87.3440018 -22.9107684,90.3232179 C-22.8585208,91.5227256 -22.4122782,92.7291067 -21.6829483,93.7195716 C-24.2480712,96.3150684 -26.3139915,99.5905469 -26.1099881,103.247612 C-25.934246,106.430656 -24.1837116,109.663473 -21.4409466,111.192188 C-21.8990636,113.645242 -21.286341,116.233391 -19.3724139,118.148432 C-18.417469,119.105953 -17.2920068,119.736399 -16.0995725,120.072954 C-15.8335844,122.962106 -13.2641866,125.287174 -10.5354334,125.955305 C-10.0269686,126.081158 -9.51874131,126.157001 -9.01312638,126.192315 C-6.55748601,127.394193 -3.62924173,127.25649 -1.12372858,126.154394 C-0.385136556,127.09082 0.576695505,127.853993 1.69764546,128.401486 C2.15125021,128.624275 2.63121628,128.809143 3.13208142,128.958222 C6.67067345,130.003437 10.2997489,128.586354 13.3939983,126.932024 C13.4937439,126.879881 13.6766107,126.813519 13.8381035,126.740046 C14.2655844,127.216436 15.0445496,127.688086 15.4506565,127.920356 C16.8283325,128.709599 18.5121323,129.076727 20.0938117,128.97268 C21.9486039,128.849435 23.5846684,128.237949 25.0998507,127.368122 C25.3209534,127.406044 25.5439559,127.427375 25.7674334,127.439225 C27.1923698,127.514831 28.4627006,127.064749 29.6052621,126.353719 C30.3602409,126.453263 31.1344563,126.443783 31.9181713,126.306317 C33.6449567,126.744549 35.3263817,126.047976 36.6774589,124.941139 C37.2761696,124.450529 37.7817846,123.874594 38.3234979,123.324731 C38.8861103,122.7533 39.3138287,122.620811 39.9714368,122.236855 C41.5272299,121.329107 41.714609,119.027739 41.0401391,117.363692 C41.1683834,117.072407 41.2422426,116.747703 41.2422426,116.387448 C41.2372553,113.244695 39.7864326,110.362653 38.0052621,107.847976 C37.2094351,106.726919 36.3452112,105.629325 35.397391,104.63412 C34.63505,103.83516 33.5642103,102.538952 32.4361357,102.214011 C32.3672638,102.164476 32.2957795,102.114467 32.2245327,102.067302 C32.4432604,101.303892 32.5712672,100.526737 32.5168821,99.732753 C32.4596472,98.9172015 32.1960339,98.1445488 31.7735403,97.4858979 C33.1911145,94.7436919 33.7898253,91.7360346 33.504838,88.5980219 C34.658799,86.9647858 35.5329975,85.1613765 35.9839898,83.1847129 C36.2618524,81.9617411 36.4212078,80.6747767 36.3995963,79.4207566 C36.3900967,78.8189881 36.1692316,78.057949 36.1647193,77.4348496 C36.1979678,77.6315679 36.4544563,76.8968368 36.5542019,76.7141021 C37.6986633,74.5930994 39.1687226,72.9387694 39.4135742,70.4383136 C39.5558304,68.9757247 39.2090958,67.3595533 38.3303851,66.1602826 C38.8932349,63.9466089 38.8861103,61.5691613 38.0002748,59.457639 C37.7627854,58.8935552 37.4899101,58.3413218 37.1764241,57.8175296 C37.3210551,57.376691 37.4542867,56.9311121 37.6250416,56.5303282 C37.6917761,56.3715314 37.7580356,56.2106016 37.8245327,56.0494348 C38.4681289,55.4827438 39.0668397,54.8643847 39.5703172,54.257402 C40.6862799,52.9137922 41.5391043,51.373227 41.6459746,49.5977849 C41.6982222,48.7089973 41.4892316,47.8581313 41.2303681,47.0146126 C41.1161357,46.6330264 41.0472638,46.2087785 40.9118948,45.8366727 C40.8361357,45.630237 40.6530314,45.4195351 40.5891467,45.2251869 C40.5746599,45.1825251 40.5627854,45.1469736 40.5532858,45.1185324 C40.5627854,45.0900912 40.5701476,45.0308387 40.5701476,44.9192069 C40.572285,44.0683409 40.683905,43.2364357 40.6888923,42.416618 C41.4702324,43.2034913 42.4106904,43.7910392 43.4793927,44.1349407 C45.6331841,44.8246399 47.8800712,44.5117867 49.7868736,43.4476117 C51.8390195,44.850711 54.1448041,46.1208478 56.5626836,46.6306563 C57.999257,46.9337922 59.4386802,46.8084139 60.8800034,46.9956518 C62.3120645,47.1828897 63.6968651,47.8062261 65.0455674,48.2920966 C68.0476709,49.3752325 71.0421747,50.4865725 74.0535403,51.5415041 C76.4854317,52.3923701 79.1168142,53.0678487 81.6629381,52.5890884 C82.3777812,53.6885779 83.3063647,54.6178943 84.4961866,55.3004831 C85.348536,55.7863537 86.2842443,56.1155606 87.2508261,56.2793345 C88.105788,56.4239107 89.1082307,56.3670283 89.8014623,56.952443 C90.478307,57.5212671 90.9010382,58.369526 91.509011,59.0096901 C92.1860933,59.7254603 93.0218185,60.3464266 93.8981544,60.7920055 C94.601123,61.1498906 95.3185785,61.4079945 96.0474334,61.5765087 C95.9835488,63.1952871 95.921564,64.8116955 95.9025649,66.4328441 C95.867179,69.9548131 95.8811908,73.4765451 95.8339304,76.9987511 C95.7864326,80.5086326 95.6748126,84.0189881 95.4895708,87.5243665 C95.3135912,90.8140656 95.0666022,94.1153783 94.2805123,97.3247311 C91.6728787,107.973592 81.9049398,115.598204 70.9709279,115.986901 C67.7246853,116.103036 64.5112163,115.647976 61.4072299,114.694959 C58.1918609,113.706864 55.3203766,111.673081 52.0240237,111.047612 C51.1619372,110.886208 50.3497235,111.751531 50.8437014,112.5832 C51.694151,114.012607 52.7269924,114.884804 54.1400543,115.744913 C55.6198507,116.643418 57.2677897,117.309417 58.894592,117.892461 C61.8869584,118.96351 65.0529296,119.584713 68.2281628,119.75773 C70.6503172,119.890219 73.0822087,119.724549 75.4547277,119.26949 C75.6212078,119.779061 75.9156947,120.274412 76.1386972,120.746062 C76.1719457,120.814795 76.2838032,120.767393 76.2624292,120.69629 C76.2265683,120.577785 76.2030568,120.4735 76.1935573,120.388177 C76.9912841,121.426281 78.2238541,122.144184 79.4899101,122.492826 C80.3826327,122.739316 81.3304529,122.814923 82.2495369,122.710875 C82.5463986,122.677457 82.8287735,122.627922 83.1092485,122.566299 C84.0447193,123.383984 85.2416658,123.929107 86.4433622,124.201668 C86.2369839,125.453081 86.8565937,126.818259 88.2936421,127.173774 C88.8966277,127.32309 89.4761018,127.32546 90.0558134,127.270948 C90.5236675,127.488997 91.027145,127.659644 91.5614962,127.775779 C92.2571026,127.927466 93.0883155,127.732881 93.6131671,127.230656 C93.9005293,127.432115 94.1688923,127.571951 94.4348804,127.891677 C95.529944,129.20969 97.8903511,128.159736 97.9948465,126.635761 C98.341581,126.635761 98.6906904,126.640501 99.0400373,126.652352 C99.1229211,126.690273 99.2060424,126.728195 99.2915386,126.768487 C100.818595,127.47691 102.400275,128.095743 104.089062,127.538769 C104.399936,127.436618 104.684923,127.3065 104.943786,127.154813 C106.133608,127.261468 107.306806,127.263838 108.513489,126.875141 C109.225958,126.645005 109.89544,126.280246 110.45354,125.801486 C112.315457,126.346609 114.279732,126.593099 116.132149,125.917384 C117.51885,125.412789 118.635288,124.616436 119.42114,123.566244 C120.623074,123.609143 121.843532,123.319991 122.943108,122.748797 C124.824024,121.777056 126.14209,119.93051 127.061174,118.079699 C129.084821,113.996016 130.281768,109.608961 130.751759,105.084439 C131.214863,100.628651 130.554643,96.1965634 130.089164,91.7666089" id="ðŸ–-Ink" fill="#000000"></path>
                    </g>
                    <g id="face/Smile" transform="translate(37.760814, 44.083865)" fill="#000000">
                        <path d="M34.8127554,57.1020091 C33.2162863,56.4520445 31.7918322,55.3678606 30.7504188,53.982886 C30.3883575,53.5014119 30.2944812,52.9929828 30.3704337,52.5279595 C30.455837,52.0050735 30.76581,51.5311704 31.1885437,51.2132909 C31.6125868,50.8944267 32.1430108,50.7371707 32.6558203,50.8173353 C33.1014216,50.8869936 33.5449965,51.1304783 33.8960529,51.6354567 L33.9693973,51.7364404 C34.5885356,52.5723634 35.3953297,53.2582283 36.3146153,53.7003078 C37.2006572,54.1264007 38.1916054,54.3252746 39.2170751,54.2096253 C41.1701484,53.9894475 42.5163047,52.9353366 43.947122,51.5038717 C44.124476,51.3231456 44.3019435,51.136754 44.4802714,50.9473621 C44.592889,50.7756793 44.7491739,50.6653386 44.9226927,50.6074447 C45.1153544,50.5431638 45.3332998,50.5468008 45.5329212,50.6163236 C45.7254569,50.6833787 45.8975743,50.8104452 46.0129836,50.9795623 C46.1226707,51.1402944 46.1848601,51.3388571 46.1646812,51.5672535 C46.033716,53.0507326 45.2565672,54.3746744 44.1526598,55.4142485 C42.9266296,56.5688282 41.301437,57.3675742 39.7713893,57.6477194 C38.0857258,57.9563102 36.3680798,57.7352226 34.8127554,57.1020091 L34.8127554,57.1020091 Z M40.5665861,34.2164632 C42.3599585,35.3043501 45.0925072,37.84109 43.1632513,40.538094 C40.8923326,42.9161315 37.6227224,40.1895491 36.0115152,38.956422 C34.5175283,38.0007416 32.8389503,40.45868 34.2250722,41.574598 C45.8676895,50.1769329 50.5925102,34.5009305 41.4736488,32.937375 C40.4696294,32.7650779 40.0967341,33.8799135 40.5665861,34.2164632 Z M19.7029042,24.2097211 C19.9010483,21.7551799 23.6468906,21.1977976 24.0195115,23.6266764 C24.3531841,25.8024284 23.9603766,27.801134 22.9783579,29.7600219 C22.0400373,31.6314531 19.6816447,30.7583423 19.5032902,29.0542402 C19.2642133,26.7699622 19.5796472,25.7365862 19.7029042,24.2097211 Z M48.21676,23.1230538 C48.7389992,22.4404649 49.493028,21.9745032 50.3964377,22.2378213 C53.2189992,23.0609572 52.3870738,27.0600273 51.395793,29.0065907 C50.8571671,30.0636554 49.1161323,30.3317138 48.3293299,29.4009754 C47.0468872,27.8831632 46.4327396,24.8520419 48.0631043,23.3569827 C48.1072774,23.2797174 48.1564377,23.2017411 48.21676,23.1230538 Z M22.9386022,13.4693984 L23.3844579,13.391518 C24.7637486,13.1534545 26.4787379,12.9247019 27.4544631,14.0313491 C27.9719525,14.618186 28.1500696,15.7089061 27.4544631,16.2706199 C26.2309177,17.2589517 24.8781781,16.8759435 23.4119186,16.959608 C22.2035725,17.0288149 21.0422494,17.2283774 19.8783138,17.5604284 C17.3248278,18.2887603 15.2441832,19.6183865 13.0633181,21.0783683 C12.7771433,21.2698724 12.4850314,20.9046399 12.6215878,20.6375296 C13.8805191,18.1766545 16.3202477,16.155196 18.7640136,14.9229809 C20.0683053,14.265278 21.4956166,13.7196809 22.9386022,13.4693984 Z M45.6437704,12.3670381 L45.985026,12.4367382 C49.6987038,13.2114312 54.5236407,14.7589441 56.2822463,18.3992889 C56.3492573,18.9140465 56.2784539,19.0243694 56.220878,19.0964481 L56.2017082,19.1204334 C56.1542656,19.1819844 56.11641,19.266832 55.8928405,19.3368914 C55.8308,19.3221394 55.7681419,19.3065151 55.7048201,19.2899543 C54.8987061,19.0791278 54.2609139,18.7886846 53.6434635,18.4873151 L52.9739907,18.1581557 C52.1972684,17.7780821 51.4136883,17.4118413 50.5832732,17.1414685 C48.8110962,16.5645992 46.9882598,16.1582307 45.137182,15.9412392 C44.7359752,15.8942481 44.3496381,15.7591142 44.044846,15.5275167 C43.7555371,15.3076842 43.5345237,15.003321 43.433754,14.598756 C43.3031565,14.0751843 43.3406874,13.6787976 43.6221743,13.2064592 C43.8338352,12.8517432 44.1366879,12.6058787 44.4844395,12.4646949 C44.8389572,12.3207642 45.2425721,12.2868326 45.6437704,12.3670381 Z" id="ðŸ–-Ink"></path>
                    </g>
                    <g id="facial-hair/*-None" transform="translate(29.211196, 80.109389)"></g>
                    <g id="accessories/Glasses-4" transform="translate(11.162002, 57.119417)">
                        <path d="M87.9345413,22.2981922 C85.7544571,25.0164486 77.2198878,28.0336983 72.6775641,24.7582864 C68.1352404,21.4828744 66.3401643,19.2002383 65.7330028,15.1074523 C65.6682621,14.6710451 64.8776002,14.3807714 64.5433423,14.6906161 C62.6716809,16.425577 61.4601051,18.6353194 60.2597597,20.8507154 C58.9059633,23.3493252 57.5725449,25.8632709 55.1123338,27.554712 C50.7547867,29.8857824 42.8715946,30.217769 40.5425934,29.1895193 C36.0811174,27.2197858 32.5518899,23.0071634 31.749337,17.2099631 C31.2051163,15.4956234 30.6946376,14.4580887 30.2179008,14.0973592 C29.5400109,13.5844243 25.7989333,13.1274706 25.3891007,13.0515808 C18.0033911,11.6839494 8.66240342,10.8121684 2.08420866,15.6237062 C1.19397687,16.1607381 -1.85369786,18.1783178 -1.89941779,17.6822184 C-1.93061923,15.7389723 0.276011031,11.3406385 5.29456688,9.24779136 C11.5005997,6.6597405 20.7258868,6.50838157 26.070319,7.07953496 C26.3391064,7.10825996 27.255373,6.88356781 27.3201121,6.85559534 C35.4169472,3.3571145 44.7333808,4.28626206 53.3969948,5.75668894 C54.6384397,5.99711161 65.7521467,8.74341855 70.1728654,7.07953496 C77.4818827,4.10172298 85.2746406,1.94439722 93.16753,2.7931449 C93.2335289,2.80024197 94.229931,8.8360229 93.4537381,9.24779136 C92.8360458,9.57547562 91.7849591,10.4151453 91.411566,10.8746751 C91.0777665,11.2854774 90.8674145,11.796194 90.8860715,12.5037266 C91.0361753,16.5966958 89.8659679,19.8899765 87.9345413,22.2981922 Z M57.8829014,18.6460719 C58.8096803,17.3081392 59.1021385,14.3026196 58.7141248,12.1099952 C58.5176613,10.9998007 58.1361847,10.1161084 57.6574545,9.67621804 C57.3392397,9.38382039 56.9761636,9.24617317 56.5802078,9.26660274 C56.363115,9.27780377 56.1278825,9.33942336 55.8790017,9.47342671 C52.508245,7.65375447 48.424756,6.99857641 44.5539838,7.18700106 C41.4726076,7.18642526 39.2741139,7.91227384 37.7832333,9.04215417 C35.9893126,10.4016968 35.1810942,12.3561141 35.1343323,14.4756729 C35.0788446,16.9907411 36.114103,19.7422267 37.8123383,21.9193714 C39.4377949,24.0032137 41.6613504,25.5480778 44.073595,25.9045099 C46.8119927,26.4470046 49.6025734,25.9221636 52.0288495,24.6383229 C54.5173169,23.3215742 56.6193589,21.2068321 57.8829014,18.6460719 Z M84.9042261,20.064923 C86.4660981,18.222977 87.5046423,15.826735 87.662727,13.4525279 C87.8065955,11.2918287 87.226841,9.15154527 85.6238589,7.38279655 C84.17064,6.13796745 81.6027173,6.11734191 78.9013797,6.81055104 C75.4083858,7.70691267 71.7948176,9.71007755 70.5902016,11.0037978 C70.3064512,11.1522739 70.0430824,11.4108297 69.8136436,11.9654337 L69.8120026,12.1631495 C69.4470864,13.8427329 69.6636097,15.5471518 70.2948536,17.1194858 C70.9805466,18.8274444 72.1565603,20.3779272 73.5904814,21.5609349 C75.4955599,23.1270777 77.4842385,23.6065146 79.3455877,23.3536074 C81.4539728,23.0671346 83.4145359,21.8217434 84.9042261,20.064923 Z" id="ðŸŽ¨-Background" fill="#FFFFFF"></path>
                        <path d="M69.9215335,6.41429717 C77.3228906,3.39858159 85.2343749,1.22496263 93.2439423,2.08625706 C93.9063003,1.83478943 94.7284885,2.04667639 95.0220254,2.98144394 C97.8749856,11.6548259 91.5128821,9.24277484 91.5983783,12.485072 C92.2652485,30.6644521 67.7812791,33.7690465 65.028302,15.2116354 L64.9777167,15.2414986 L64.9777167,15.2414986 C61.0168685,18.9300857 60.1825683,24.9323646 55.5166141,28.1402954 C46.1041968,35.010031 32.7615674,29.5670957 31.0478439,17.3373783 L31.0104657,17.1719292 C30.4352071,14.6760439 29.7474227,14.0571898 26.9103036,14.069484 L26.4620914,13.9806134 C19.0906394,12.5312055 9.27447396,11.2287293 2.48499406,16.2132397 C1.00828499,17.070268 0.938938083,19.2735132 -0.308831213,20.2307967 C-1.67582019,20.4957739 -2.51795759,18.8549535 -2.61057846,17.7194385 C-2.82716879,6.39912853 17.47105,5.58476208 26.5616692,6.55626618 C26.735274,6.37684959 27.1059949,6.39912853 27.2309143,6.62262899 C35.4523223,3.0703227 44.7146463,3.56188149 53.5174283,5.0557557 C58.9704224,6.10926527 64.356207,8.5089918 69.9215335,6.41429717 Z M92.5070127,4.17621149 C88.0657235,3.95460711 83.9576319,4.19706837 79.5982765,5.26242844 C77.3008041,5.81560985 75.5376828,6.51502644 73.338531,7.35617502 C59.6216183,13.4210246 58.039464,2.64062352 27.2921866,6.86651231 C27.6899813,8.56682224 27.7631281,10.2503045 27.7845021,11.8477521 C34.0625296,11.5952795 32.5844164,17.5777975 34.9364709,21.7799111 L35.0089296,21.9066946 C38.4368516,28.03767 46.5257405,30.897433 53.0507617,26.8308149 C58.4944936,23.664361 59.0255199,15.6332762 64.445503,12.4459654 C69.1437557,12.2615716 67.2671145,18.5897393 69.8239254,21.1906873 C73.4228397,25.9832671 81.0726107,26.6532944 85.5853842,22.1453637 C87.7026022,19.9762479 88.827827,17.2221914 88.8900492,14.2633582 C89.0080814,12.3729663 88.6831959,10.452 90.115257,9.12237375 C91.1191247,8.10465269 92.9026701,8.44428806 93.1073859,6.90585597 C93.2375301,5.99621149 92.858497,5.00953874 92.5070127,4.17621149 Z M44.239525,6.65398541 C48.6513656,6.43712124 53.3194572,7.20171559 57.1076506,9.36111395 C59.9116879,7.13416773 60.5987447,15.9845962 58.7375403,18.5445415 C56.0560475,24.0199471 49.8131637,27.6198924 43.8020696,26.4244139 C34.4245632,25.0682425 27.8907549,6.63763172 44.239525,6.65398541 Z M56.8383376,9.95458706 L56.5983864,9.91958933 C52.5343746,9.30074038 41.4685557,6.43371778 37.2005768,10.9587985 C33.0585242,18.4646691 43.5667176,31.0721805 54.5019169,21.0300656 C57.5453435,17.9377958 58.7249534,14.1880602 56.8383376,9.95458706 Z M69.7172689,10.9138851 C71.8218999,8.42693892 82.5481086,3.3895278 86.2869042,6.62210757 C93.110687,14.2540675 82.2890076,29.6912416 73.2249873,22.1702024 C70.2060221,19.656237 68.2198982,15.6507675 69.0891094,11.7720985 L69.0904464,11.6095096 C69.0923287,11.5505731 69.1033588,11.5640036 69.166531,11.4905305 C69.2783885,11.1973491 69.4797795,11.0101112 69.7172689,10.9138851 Z M86.1916709,15.5396098 C88.4929432,3.08307384 78.8748601,7.81853418 70.9759627,11.1433108 C71.3998813,11.5298742 71.3979813,12.0576955 71.2761493,12.4914239 C70.4430365,21.7338669 81.6993215,26.9713145 86.1916709,15.5396098 Z M26.4020763,7.16158979 C23.1073859,8.2750629 1.31512129,6.28370465 -0.698076336,16.478454 C1.4269788,13.0425196 5.82813232,11.6790009 9.78470568,10.9390556 C15.1664529,9.93247402 20.5187515,10.5152817 25.8249771,11.5744795 L25.9345681,10.4785361 C26.0522536,9.31605686 26.1763357,8.22856711 26.4020763,7.16158979 Z" id="ðŸ–-Ink" fill="#000000"></path>
                    </g>
                </g>
            </g>
        </g>
    </g>
</svg>