<?xml version="1.0" encoding="UTF-8"?>
<svg width="256px" height="687px" viewBox="0 0 256 687" version="1.1" xmlns="http://www.w3.org/2000/svg" xmlns:xlink="http://www.w3.org/1999/xlink">
    <!-- Generator: Sketch 62 (91390) - https://sketch.com -->
    <title>peep-standing-14</title>
    <desc>Created with Sketch.</desc>
    <g id="Introduction" stroke="none" stroke-width="1" fill="none" fill-rule="evenodd">
        <g id="variations-standing" transform="translate(-1668.000000, -904.000000)">
            <g id="a-person/standing" transform="translate(1677.000000, 854.000000)">
                <g id="pose/standing/easing-2" transform="translate(-28.736217, 150.264357)">
                    <path d="M270.006275,238.344632 C276.260885,238.484945 273.578924,180.126498 269.402345,169.372598 C268.817484,167.193216 268.334485,164.2153 268.43176,161.541027 C273.597511,162.057467 273.041373,158.521727 272.77465,154.25822 C272.86227,150.872833 273.097615,143.887793 267.916416,146.607612 C252.3832,115.509308 269.178345,35.1204981 228.279826,27.5489842 C223.351593,26.3520386 218.258015,25.1134643 214.108711,21.6964881 C209.71827,13.5806186 207.482136,12.5440656 200.206975,12.0190551 C198.85984,4.70857721 196.341775,-3.10119938 188.837787,-5.94590432 C181.967419,-8.63805256 173.971501,-8.85280734 166.807616,-7.41612972 C160.878143,-5.48211237 160.335765,5.53943576 159.01856,10.9734417 C151.032538,8.85576864 141.190554,4.40174969 136.891113,14.4986524 C134.808737,13.8761819 132.879154,14.2802245 130.762985,14.9729739 C113.027669,17.8306572 95.8202493,25.8539642 89.2421911,42.5950418 C85.1788184,52.6410106 88.0625723,63.5768527 89.5863974,73.9813176 C91.0076365,85.3106727 87.2599874,95.8067206 85.5227834,106.704117 C82.9361669,121.71026 82.4683746,133.746813 84.1563373,144.900103 C79.6946895,145.915107 79.36569,149.973409 81.1707215,154.22002 C81.7007896,155.656942 82.2347198,157.17198 83.4068558,157.984228 C85.7911967,159.485307 88.8728814,157.755515 91.464084,157.490806 C92.0030831,163.483125 93.0468056,169.363047 94.7736303,176.045423 C94.2734932,178.045801 93.6999769,180.279544 93.1848743,182.288248 L93.0110815,182.09945 C87.0951256,206.879507 69.5005337,230.949918 74.9689731,257.285661 C75.2904898,258.163045 75.9006957,257.980124 76.3692121,257.964942 C79.0837594,258.997087 81.5772036,258.342048 84.3146819,258.447344 C90.8077748,258.451997 97.0809714,259.28359 102.900376,260.007439 C103.964133,266.956727 107.42261,278.333588 113.590324,280.983128 C113.694117,281.018635 115.522321,280.637365 115.675113,280.626346 C99.2560368,347.20253 69.7136713,408.764423 57.9787939,476.682274 C57.9092768,477.511174 59.2578608,477.072359 59.7003084,477.173247 C59.6397222,479.058045 60.8574789,479.511062 62.5625795,480.181283 C60.3653073,484.774881 58.3860002,489.362601 56.1986244,493.967952 C55.1843502,496.247487 53.5313874,498.499107 53.2301465,500.936096 C50.8086332,502.483701 49.1776359,505.508879 49.2208427,508.332524 C42.6908189,511.092503 44.4656781,524.724901 42.9758874,531.477065 C41.4694416,541.536013 34.3041085,548.560477 29.391082,556.807599 C28.3898423,558.463195 27.3236716,560.632536 27.2763613,562.711764 C24.2306422,564.139626 23.0949544,567.258835 23.2965058,572.508696 C23.2856437,578.651368 25.0182616,580.990163 29.6901505,581.138801 C42.3799229,582.40676 57.1877952,581.890321 69.9511881,580.448256 C79.4991725,579.234169 87.9599863,580.241582 85.8252312,568.76873 C85.3859215,565.991121 86.2297822,562.251645 84.5859918,560.003944 C83.5724418,553.312753 84.1621304,546.56818 86.3475751,539.957798 C87.6761968,534.391883 89.9208193,522.894636 88.990722,515.424615 C88.5605583,511.969781 81.5080377,510.068805 80.2666259,509.900576 C80.6615218,507.300011 80.4877016,502.755512 79.088428,500.948095 C81.6579066,500.589843 82.3037542,499.910562 82.8388912,497.056797 C84.1177167,492.435039 84.2878889,487.41683 87.4547802,483.522838 C93.1505985,483.596056 98.8273479,482.150563 104.520028,481.974743 L104.803407,481.320928 C108.170402,481.27783 111.518568,480.683031 114.714425,479.516694 C115.423114,479.851682 116.329733,480.13941 116.728008,479.06686 L118.629109,473.121802 C140.759452,402.695213 165.289825,332.098682 189.208062,262.188289 C190.604198,258.789189 192.28323,255.177048 194.466743,252.147953 C195.206328,294.923333 204.167038,337.653167 204.936554,380.407977 C205.976414,409.820321 205.708725,438.923879 208.47541,468.441029 C209.187478,474.688018 209.944442,474.480119 210.876889,474.096891 C211.250543,474.155171 212.129887,474.34299 212.511507,474.423064 C211.887784,480.630873 211.170164,490.707451 208.507996,497.056797 C202.623661,497.964791 203.677521,502.480028 204.982657,506.222443 C203.578797,507.421592 203.778418,510.216493 204.195038,511.763364 C198.65853,511.769241 197.451394,516.272479 197.83229,519.114491 C198.358978,523.867011 198.064255,531.263045 201.235491,535.321592 C203.10304,540.497501 206.142966,545.382498 207.330308,550.958531 C208.076652,555.061401 207.788446,561.037822 208.507996,565.107633 C206.697413,565.943879 207.464619,567.255181 207.159275,569.792078 C205.592002,581.404753 211.108854,579.430803 220.863459,580.230318 C226.710139,581.52154 271.221135,584.090761 269.297587,576.364487 C269.62562,573.218097 268.162381,571.836779 267.535762,568.738874 C267.254314,567.916586 261.708875,558.401938 258.401259,554.799347 C247.307726,544.376272 247.792173,530.382496 248.143621,514.263399 C247.491174,509.894596 244.130455,505.711163 239.842117,506.181322 C241.073391,501.515242 238.791154,497.458381 234.021989,496.109123 C234.498471,490.826205 235.000056,483.648214 236.744019,479.078124 L235.101435,477.405878 L237.300156,477.668628 L238.030086,475.830601 L238.826154,477.844693 C242.600837,477.844693 246.859727,477.007467 250.475583,476.613954 C251.053203,476.646523 250.79541,475.8617 250.890272,475.559036 C254.304818,474.851839 254.678714,473.037565 254.075267,468.714309 C254.87061,398.519372 254.525438,328.983391 253.438268,258.658426 C258.774673,258.896444 263.978319,256.949938 269.222518,255.652839 C271.085722,256.822114 271.613617,252.658271 271.395652,251.759337 C271.099963,247.106725 270.524274,242.568469 270.006275,238.344632 Z" id="ðŸŽ¨-Background" fill="#FFFFFF"></path>
                    <path d="M160.416036,1.18514494 C161.209223,1.81132052 161.12627,3.54717767 161.20435,4.51891872 L161.209806,4.58254887 C161.459506,7.51781006 161.121881,10.4665888 160.405956,13.3164111 L160.345425,13.5536648 C159.985063,14.9520165 159.666094,16.6999562 158.54386,17.6797872 C157.328614,18.7408605 155.398,18.053994 155.353929,16.3429826 C155.332015,15.5477932 155.597417,14.7821463 155.93343,14.0361946 C153.578905,14.9446309 151.22438,15.8432196 148.860115,16.7196513 C147.349762,29.2083112 164.797108,44.4983523 174.898435,49.851233 C189.608737,57.9934315 201.985942,45.5220048 203.868831,30.8607297 C204.185365,28.9133772 204.3972,26.9118631 204.438592,24.9374298 C204.472681,23.2879656 204.136911,20.9861013 205.242345,19.5754401 C204.459289,19.556976 203.763888,19.6670223 202.997146,19.7871624 L203.033905,19.8508168 C203.468483,20.627287 204.082526,22.5599993 202.707396,22.7069603 C199.738065,22.3945468 198.357003,17.1896255 197.633114,14.6932722 C197.162453,12.9938317 196.513558,5.9402795 197.949892,5.10939267 C198.382569,6.78470671 198.212371,8.60404114 198.738791,10.284279 C199.93675,10.7668088 202.217986,10.8972888 202.746354,10.9861629 C208.916573,11.0575576 212.415002,15.4864922 214.915863,20.6709798 C222.247275,26.6878314 232.785418,25.6538389 240.702173,30.6091249 C264.927484,48.1682871 257.015842,116.525778 269.082113,145.606817 C271.497997,144.607291 273.960387,146.608558 274.283008,149.050996 C274.616586,150.929416 274.516756,152.940778 274.543539,154.843816 L274.554966,155.081476 C274.752202,158.973765 275.425296,163.348415 270.168067,163.43334 C270.176346,165.606201 270.585405,167.709637 271.110364,169.807165 C274.021502,182.503608 275.29202,195.581151 275.578605,208.596655 L275.59305,209.552976 C275.687664,216.393977 275.771411,237.55812 271.838392,240.062032 L272.021573,241.552795 C272.476962,245.280975 272.905913,249.018695 273.145677,252.765614 C273.523083,254.710505 272.238686,259.370857 269.617785,258.137205 C264.81134,259.325804 260.071124,261.079653 255.076707,261.089008 C256.28684,301.344552 255.685426,341.641455 255.864145,381.913493 C255.478461,411.599418 257.083531,441.530547 255.680556,471.102732 L255.731302,471.519993 C256.127838,474.840777 256.246937,477.728025 252.408326,478.865062 C252.353054,479.677484 251.727778,480.111515 250.986115,480.20679 C248.882382,480.489907 246.778649,480.758253 244.672482,481.016751 C242.710459,481.162495 240.611352,481.650687 238.655903,481.418039 C238.84485,481.609327 238.331578,481.638624 238.276063,481.499281 C236.493247,485.972529 235.975836,490.848789 235.534393,495.620664 C239.861654,497.269882 242.223484,500.979453 241.516883,505.630696 C245.883102,505.807214 249.071816,510.658362 249.683456,514.747063 C250.075471,517.568386 249.761372,520.370013 249.635002,523.196259 C249.030666,532.854734 250.450442,543.260145 256.68616,550.963882 L256.94614,551.271966 C260.956548,555.987012 266.041036,560.308031 267.769715,566.471307 C268.249385,566.695339 268.643835,567.128631 268.816711,567.80565 L269.937223,572.20258 L269.937223,572.20258 L270.494341,574.401045 C270.902411,576.003734 271.265008,577.643389 271.046203,579.302776 L271.023196,579.463423 C269.931641,589.973218 226.841642,584.907394 218.431824,584.152579 C215.050999,583.622535 211.341709,583.91156 208.297871,582.121522 C204.564232,579.657666 204.097223,574.659297 204.738082,570.565425 L204.791363,570.181702 C205.050877,568.351159 205.430964,566.431703 207.168088,565.407772 C206.583231,561.614497 206.809675,557.733332 206.114031,553.955074 C205.063382,548.608595 201.885138,543.969415 200.26278,538.836627 C197.896081,536.205362 197.816217,532.10312 197.32145,528.737967 C196.946479,525.473505 196.639685,522.186886 196.513315,518.902729 C196.169754,514.561437 198.054104,510.981361 202.61974,510.414143 C202.407906,509.591626 202.98765,508.880387 203.564472,508.353543 C202.203376,503.519628 201.827675,496.883366 207.73298,495.234148 C209.969413,489.688748 210.619768,483.679282 211.214852,477.764598 C211.144241,477.749827 211.073629,477.737518 211.003018,477.725208 C208.061688,478.949504 207.449803,473.146837 207.253309,470.876239 C204.468785,441.44118 204.725177,411.832805 203.679398,382.307395 L203.577124,380.172908 C202.660302,360.71884 202.114856,341.094088 198.750235,321.900076 C195.364053,300.507018 194.478733,278.76511 193.321193,257.147527 C191.957906,259.265488 191.224764,261.698079 190.121522,263.954644 C175.805426,306.011304 161.11655,347.941177 146.963347,390.054953 C136.705215,420.545423 126.904839,451.198377 117.075245,481.831636 C116.573661,483.399857 114.993426,483.724827 113.83686,483.222602 C110.892852,484.243792 107.802994,484.823567 104.693901,484.923765 C104.506416,485.354596 104.121705,485.669717 103.559249,485.60817 C101.896229,485.42599 99.9824164,485.945449 98.3193961,486.139938 C94.5141721,486.515868 90.8202218,487.099335 86.9801791,487.154235 C84.6013053,490.161676 84.4515604,494.239792 83.3548923,497.819129 C82.723529,499.643633 82.8226285,503.735782 80.6421971,504.249578 C81.4237922,505.45344 81.526057,506.898568 81.3994435,508.38801 C82.0775564,508.542124 82.7654089,508.833365 83.4033464,509.131499 C84.0247267,509.446129 84.8452799,509.419048 85.2735745,510.052245 C97.4520933,512.259327 88.5521349,535.383584 86.4352538,543.031682 C84.3575742,549.284383 83.7069754,555.81503 84.6551161,562.342723 C86.1043542,564.344237 85.6188399,567.321397 85.8406571,569.693917 C85.9575312,571.81114 86.1718003,573.960367 86.1525647,576.080052 C85.9161383,584.885483 75.0444174,583.453157 68.910965,584.595719 C65.0809052,585.04132 61.2338013,585.351518 57.3866974,585.592783 C47.6296627,586.199146 37.8178432,586.245429 28.0807745,585.302034 C21.7939249,585.102868 20.4420819,581.002103 20.4520648,575.392939 L20.4424667,575.160871 C20.3008042,571.353837 20.9147059,566.757108 24.530482,564.777529 C24.7106628,562.766168 25.7311193,560.735111 26.7730027,558.977324 C31.6179187,550.832171 38.8921105,543.694422 40.3228436,533.919993 C41.726306,527.521056 40.1360886,513.43537 46.64159,510.099021 C46.7923088,507.218121 48.5624636,504.280597 50.7540954,502.723208 C51.1770334,500.323114 52.7706596,498.116771 53.7562974,495.911167 C55.7670179,491.700109 57.6270196,487.422334 59.6270267,483.20783 C58.5797866,482.764691 57.4670483,481.949806 57.3209557,480.792719 C56.315352,480.805029 55.3219226,480.155091 55.4436664,478.931533 C55.7989635,475.379325 56.5761291,471.886109 57.3100667,468.395252 L57.4015501,467.958903 C70.4607635,404.835876 97.4282315,345.808937 113.206227,283.494641 C111.083259,283.878695 109.098592,281.451274 107.924982,279.870743 C104.13388,274.766513 101.894768,268.59087 100.910104,262.324875 L99.1281169,262.103994 C93.1852168,261.374394 87.2131767,260.735465 81.2207181,260.907189 L79.7764058,260.955492 C78.1718694,261.004492 76.5647539,260.991728 75.0395476,260.414451 C73.9755069,260.512926 72.8676383,259.941768 72.6049152,258.747753 C68.1663799,236.629423 79.0760849,215.638636 86.8900886,195.652054 C88.7308548,190.738127 90.0408181,185.752806 91.2901529,180.664086 C91.3313023,180.49914 91.5893991,180.533606 91.5820945,180.703476 C91.3386069,186.360893 89.9361184,192.065084 88.5114725,197.518164 C83.8338324,216.008166 74.0887286,234.140209 76.4712547,253.715656 C83.8774167,247.882954 92.6736494,243.831919 101.913273,242.117707 C102.446511,239.801072 103.035751,237.501669 103.478898,235.170262 C103.043055,231.585755 102.746001,227.984014 102.36616,224.382274 C101.231508,213.609057 99.4981195,202.86292 97.1874223,192.279022 C93.602798,181.629638 90.473252,170.835987 89.3541831,159.607567 L89.1504971,159.647634 C86.6652165,160.152109 83.926981,161.247145 81.6212607,159.664191 C80.1576568,158.649893 79.524589,156.968425 78.9331577,155.353427 C77.2443278,151.438042 76.9319332,146.291221 81.7111076,144.654066 C79.9295089,132.205043 81.0872924,119.208988 83.2402097,106.876412 C84.9648323,96.0665126 88.747412,85.4163898 87.3312882,74.349962 C85.7590888,63.7158415 82.8282287,52.5780189 87.0653997,42.1684225 C94.0289013,24.7958713 111.66349,16.553474 129.006137,13.9007908 L129.287112,13.8182355 C131.432618,13.1830696 133.386276,12.5135175 135.621695,12.9948164 C140.894419,3.21103168 149.445703,7.19017949 157.79611,9.37091891 C158.359783,7.71185332 158.829715,6.01462849 159.271645,4.31888079 C159.546785,3.45500467 159.455965,1.46186103 160.416036,1.18514494 Z M208.748323,570.15429 L208.72663,570.581097 C208.505774,575.16188 208.75451,579.086562 214.434002,579.056473 C218.34214,579.47379 222.250663,579.88002 226.165214,580.233665 L227.633464,580.363735 C239.251304,581.399832 251.008656,581.906656 262.604387,580.350973 L263.087448,580.284955 C264.056529,580.147089 265.851032,580.17417 266.618262,579.457761 C267.543028,578.213277 266.472656,575.84051 266.247917,574.396121 C248.154841,574.18563 230.038147,573.518213 211.93314,573.748645 C210.029068,573.758493 209.169556,572.131185 209.344867,570.649129 C209.130598,570.503878 208.928504,570.33647 208.748323,570.15429 Z M25.0491105,567.85735 C24.1596504,570.985423 24.3787892,573.942149 24.8813476,577.074408 C25.1326268,580.354872 26.6931387,580.564871 29.5171078,580.641928 C40.5412519,581.658934 51.6455035,581.445981 62.6728129,580.592937 C68.5829872,579.955554 74.6567851,579.979681 80.4571465,578.672419 C83.224383,577.446153 81.6268609,573.589853 81.7208471,571.225211 C68.6945045,579.619753 48.9936801,578.554248 34.7886141,573.697192 L34.560999,573.600091 C31.2008023,572.188366 26.9051569,571.299615 25.0491105,567.85735 Z M46.6269808,511.374278 C45.0686602,513.132066 45.0981222,518.270024 45.0275108,519.695456 C44.8592609,523.134712 44.8860445,526.581354 44.7370301,530.020364 C44.846843,544.503644 36.4832878,551.727313 30.2721628,563.371792 C28.5733499,566.197792 31.044749,566.598587 33.0549825,567.515147 C46.0720725,573.572866 61.4694973,574.499028 75.0685227,569.861079 C81.9041933,567.874583 80.4116143,563.274547 79.8313834,557.647905 C79.259918,546.149662 85.3100977,535.79078 87.0997315,524.668222 L87.16455,524.277738 C87.6998754,520.943438 88.5501481,512.764201 83.4009115,514.535341 C82.2686942,515.232055 81.2046534,514.358085 81.0707352,513.289626 C80.9360866,513.311783 80.7975422,513.324339 80.664111,513.326555 C80.0626966,517.044004 79.4393684,520.756529 78.8403889,524.473979 C79.3444082,524.794024 79.8167742,525.155921 80.2355728,525.569518 C80.7444619,526.074205 80.38897,527.132817 79.6219841,527.068807 C79.2277777,527.034341 78.837954,526.975256 78.4508088,526.901399 C78.1437709,530.132872 73.011783,528.319692 74.4941354,525.729541 C67.1150005,523.179765 58.9854369,523.383117 51.4918628,525.338101 L51.4609098,525.351442 C50.8807942,525.581829 46.7096351,526.418357 48.0513832,527.068807 C48.6106742,527.136509 47.3372341,527.86769 47.1139559,526.736207 C47.0418836,525.315452 50.2841644,524.617999 51.2775937,524.028377 C48.7721064,520.442393 47.0601452,515.794843 46.6269808,511.374278 Z M235.670746,500.020056 C228.719662,496.255831 220.1769,497.652952 212.63682,498.318892 L212.320168,498.354872 C210.401387,498.561266 207.727188,498.688733 206.846441,500.66507 C205.571297,503.831303 207.685012,510.91489 208.349003,514.436866 L208.650012,515.667849 C209.172646,517.818514 209.656726,519.95681 209.836712,522.181962 C209.841582,522.255819 209.770971,522.307518 209.705229,522.307518 C207.064119,519.485703 205.877117,515.690705 204.643366,512.070992 C204.117189,512.371343 203.60343,512.696312 203.11889,513.053285 C201.226128,519.558363 200.592586,526.48407 202.091162,533.11992 L202.144939,533.354005 C203.996419,541.55455 209.760988,548.26073 210.309078,556.830558 C210.675284,560.295172 210.593472,563.845459 211.589823,567.209873 C212.156662,567.334937 212.650942,567.752966 212.873003,568.278332 L216.122692,568.282347 C231.829849,568.309107 247.541268,568.451443 263.238411,569.098141 C262.731956,564.683978 258.836155,560.767115 256.092293,557.74121 C247.672249,549.117713 244.030405,536.730483 245.417554,524.791562 C246.147286,518.818778 249.480388,509.434804 241.326962,507.228461 C240.731879,512.096104 239.926665,516.947744 239.481326,521.834836 C241.020168,522.577341 240.925208,524.534295 239.045484,524.496136 C238.201799,527.335184 235.372717,526.187452 235.678294,523.508919 C225.330558,519.68684 219.393844,518.405674 209.313214,524.163781 C209.031012,524.122421 210.087748,522.990938 210.221423,522.789802 C213.406971,519.354731 218.299854,517.739979 222.890326,517.681633 C227.440378,517.680894 231.719429,519.396091 236.011628,520.722063 C236.657033,516.110686 237.091605,511.470787 237.60279,506.843597 L237.713607,505.852266 C237.981686,503.422384 237.884048,501.415946 235.670746,500.020056 Z M69.3784612,559.570589 C70.892954,559.233311 72.285703,558.721238 73.8245446,559.068364 C79.2397086,563.136386 57.1132608,564.283379 55.2293973,563.9946 C50.4334389,563.853372 45.6353875,563.244714 41.0197788,561.889442 L40.6647354,561.784375 C40.0560739,561.614366 35.6607566,560.374174 36.5151846,559.81407 C42.757963,560.367256 48.8695015,561.51351 55.2293973,561.21513 C58.4020406,561.148659 61.5868583,560.924627 64.7254133,560.447021 C66.2861688,560.208218 67.8396196,559.917715 69.3784612,559.570589 Z M215.665854,554.531156 C214.674372,553.045161 219.507601,555.018363 220.136286,555.035843 C224.138735,556.022813 228.211795,556.770981 232.32284,557.081671 C235.079119,557.290931 237.864618,557.335245 240.625767,557.199841 C242.670576,557.128939 244.693227,556.826865 246.725131,556.618836 L246.798218,556.615235 C248.005507,556.573335 250.424379,557.321784 248.933563,558.758462 C246.615318,560.556378 243.185065,560.008608 240.406628,560.272522 C231.968566,560.245195 223.033545,558.88648 215.665854,554.531156 Z M57.031449,543.730833 C59.4641335,543.290156 72.8532726,543.146381 71.5187171,547.256255 C71.1948786,548.036674 70.4546763,548.295172 69.675516,548.172324 C61.3886594,546.156531 52.449743,545.102104 44.18967,547.881575 C44.0557518,547.928351 43.9632265,547.709243 44.0947098,547.650404 C48.1560828,545.614915 52.5016058,544.191699 57.031449,543.730833 Z M230.827851,539.713059 C233.01376,539.547004 235.212855,539.605357 237.400083,539.769915 L238.111545,539.825396 C239.09226,539.902356 240.102056,539.991812 241.042058,540.277536 L241.217466,540.333454 C242.41859,540.720709 245.124955,542.784509 243.070407,543.777634 C240.864409,544.491581 238.999294,543.64223 236.871212,543.095445 C230.939124,541.689954 224.703651,542.165837 218.826347,543.60284 L219.654205,543.868724 L219.654205,543.868724 C219.705337,543.831795 219.771079,543.917961 219.722382,543.959814 C219.128272,544.479272 218.312588,544.29463 217.891355,543.649616 C217.818309,543.538831 217.864571,543.361575 217.981445,543.300028 C221.964902,541.209886 226.357418,540.052799 230.827851,539.713059 Z M46.0718534,539.188627 C52.7712072,536.22268 60.5330565,535.895205 67.7176544,536.755212 L68.2295086,536.817616 C70.4709213,537.080573 73.3942211,537.201485 74.6767755,539.289565 C75.1199229,540.01336 74.6621662,540.843015 73.9463127,541.103975 C71.8377102,541.874546 69.3590065,540.330943 67.3331898,539.757323 C61.3433951,538.116968 54.9457586,537.94439 48.8549166,539.077843 C48.8975269,539.303351 47.8887578,539.20463 47.669132,539.284641 C47.3937475,539.269131 45.5666167,539.873524 46.0718534,539.188627 Z M215.013332,534.557843 C220.857764,531.715102 227.615032,531.037098 233.925013,532.504629 L234.187316,532.579448 C236.983129,533.364742 241.484399,534.290913 242.486036,537.251147 C242.70274,537.918318 242.232809,538.819369 241.52913,538.954773 C239.145387,539.410222 236.980782,537.669668 234.823482,536.832626 C228.476491,534.446812 221.291903,533.876146 214.728451,535.631225 C214.684623,535.889724 214.640796,536.14576 214.594533,536.404258 C214.706537,536.330401 214.823411,536.495348 214.733321,536.586684 C213.685837,537.320326 212.59623,535.468249 215.013332,534.557843 Z M61.1315365,529.560237 C65.8604474,529.245743 70.6291439,529.847239 75.1944156,531.094691 L76.0529032,531.331339 C77.3006529,531.681328 78.9169136,532.232088 79.0984858,533.580498 C79.1690972,534.11719 79.035179,534.486473 78.5993362,534.819074 C77.0100927,536.007919 73.5532994,533.516489 71.5773976,533.223525 C64.4034762,531.068018 56.7029956,531.098435 49.436038,532.748138 L49.1884702,532.805004 L49.3637813,534.053181 C49.5361705,534.649696 47.9386484,533.242974 48.545663,532.602883 C52.38181,530.648883 56.8580858,529.912041 61.1315365,529.560237 Z M219.471492,527.329694 C223.266976,526.644624 227.182093,526.514239 231.019479,526.859173 L231.472835,526.901332 C233.764286,527.103903 241.188837,527.398922 239.432848,531.273636 C239.138228,531.921113 238.283343,532.004817 237.730626,531.724162 C235.875251,530.783721 233.846999,530.443981 231.799269,530.133783 C224.569148,529.12761 217.182465,529.539976 210.124003,531.487821 C210.277401,531.729086 209.960867,532.014664 209.661377,532.071288 C208.916305,532.209153 208.916305,531.320412 209.235274,530.84773 C209.615358,530.288882 210.372361,530.084545 210.956731,529.838356 C213.675026,528.65345 216.557432,527.852845 219.471492,527.329694 Z M75.7237478,505.770778 L75.2915336,505.668222 C68.0489077,503.963559 51.9909198,500.907143 50.3279921,510.886825 C49.7377782,515.282278 51.684705,519.569654 51.5408038,523.922516 C59.0511785,520.867068 67.3562967,520.898826 75.1591,522.918066 C75.8503613,518.400504 76.5102127,513.878017 77.2163267,509.362917 L77.3304137,508.823188 C77.6446303,507.300008 77.7515292,506.109143 75.7237478,505.770778 Z M59.592768,507.587896 C61.1710545,506.233859 63.8029119,506.253307 65.3512495,507.730686 C66.7668863,508.028082 67.7656724,509.53131 67.7885603,510.820354 C69.9409906,514.604766 67.3451694,519.83406 63.2353423,520.778686 C53.9552998,522.735148 49.8065148,509.984297 59.592768,507.587896 Z M220.377314,501.548789 C228.142134,500.16127 230.962694,510.014972 224.589893,514.011107 C215.587183,518.528423 209.588623,504.326044 220.377314,501.548789 Z M63.4349291,479.662713 C63.5491248,480.416051 63.1790236,480.952249 62.7361197,481.459891 C61.1441979,487.98783 58.74828,494.062782 56.3859634,500.320406 C64.0711622,499.046134 71.3322056,500.158168 78.1320835,502.245602 C78.2134084,500.336162 79.0833895,498.356559 79.6877257,496.556181 C80.8646473,493.137979 82.2870606,489.807356 83.9276067,486.590666 L84.1338091,486.189175 C84.7230491,485.044398 85.2903752,483.847921 85.9867497,482.752381 C78.4651745,481.725036 70.9435994,480.799366 63.4349291,479.662713 Z M214.918298,478.271747 L214.718087,479.180272 C213.854877,483.120431 213.035426,487.097647 211.750525,490.925846 L211.732988,491.005078 C211.536257,491.971038 211.093992,496.44401 210.815532,493.286795 C210.601263,493.761939 210.372385,494.23216 210.128897,494.694995 L211.457552,494.536057 C218.565747,493.692363 226.010017,492.962377 232.997252,494.751618 C232.290407,489.272935 233.33083,484.038225 234.850192,478.857676 C228.191294,478.704547 221.591563,478.753784 214.918298,478.271747 Z M88.8185104,485.081326 C88.5750228,485.310282 88.3364049,485.544161 88.1099615,485.787888 C88.4167558,485.709107 88.7237937,485.632789 89.0084307,485.566318 C88.9967433,485.386354 88.8698862,485.251196 88.8185104,485.081326 Z M238.875042,480.056615 L238.729671,480.39745 C238.705683,480.454073 238.681875,480.510423 238.658338,480.566226 C238.770343,480.499755 238.894765,480.435746 239.028439,480.379122 C238.967568,480.280647 238.916435,480.174786 238.875042,480.056615 Z M117.238382,155.848266 C116.556617,156.178159 115.845633,156.261863 114.905771,156.301253 C107.269513,156.618098 99.6576039,157.5029 92.1591601,159.011791 C92.573089,165.080342 94.4187249,170.959328 96.1750009,176.744762 L96.5392219,178.012746 C102.473527,198.742291 107.653386,220.403948 106.610149,242.085703 C106.668586,242.10786 106.724588,242.137402 106.778155,242.164483 C106.683398,242.430162 106.615356,242.702337 106.520064,242.96548 L106.459186,243.122157 L106.10285,244.007398 C105.905899,244.498967 105.714571,244.992268 105.548543,245.497878 C105.257088,245.603001 104.898918,245.680058 104.557548,245.729295 C102.825134,257.208335 104.472328,270.07908 112.27854,279.055858 C109.038937,272.276807 107.794959,263.846075 109.130489,256.443427 C109.855351,257.228769 109.906971,259.039733 110.184546,260.215038 C110.946663,264.232837 111.481605,268.307753 112.626483,272.241602 L112.75064,272.636099 C114.034232,276.664904 116.18214,281.860084 119.904814,283.940242 C120.607033,284.15098 121.693231,283.888789 122.025348,284.750203 C122.217377,285.51914 121.859667,286.469593 121.070622,286.709092 L121.014874,286.724636 C118.748005,287.367189 116.824453,285.658639 115.370832,283.856538 L115.29835,284.797613 C115.158653,286.579414 114.963845,288.28982 113.929386,289.755219 C113.807642,290.264829 113.688333,290.776902 113.564641,291.286759 C110.764534,308.568959 106.552685,326.434626 98.8842873,342.033387 L97.9924445,344.723003 C83.4141175,388.652573 68.3157742,432.553581 59.5293882,478.131419 C68.7614636,477.15922 78.0709681,477.629195 87.2845385,478.54477 C95.9729062,479.446806 105.162615,481.849853 113.486238,478.013249 C136.037085,409.099618 159.299402,340.39254 184.794014,272.529396 C187.866827,261.758395 193.638213,251.370709 196.493349,240.327915 L196.672136,239.744671 C197.343173,237.530861 197.658155,236.094725 197.165618,233.621736 L197.144647,233.319763 C197.043004,231.771893 197.00732,229.424779 198.772636,228.99585 C199.072126,228.921993 199.464141,228.978617 199.671349,229.237115 C200.762904,230.637929 199.740986,232.421073 200.055572,234.047642 C200.97206,240.269323 198.517705,246.13526 195.64869,251.499958 C195.836176,251.726452 195.965224,252.004645 195.987138,252.309919 C196.23793,255.616233 196.206277,258.957014 196.350178,262.270713 C196.758507,271.798462 197.352617,281.317594 198.10548,290.823678 C200.463414,308.234388 203.806012,325.464889 205.622186,342.951671 C209.757092,383.681621 209.013481,424.725214 212.01617,465.536406 C212.040275,469.12116 213.164944,472.847225 212.025666,476.326856 C212.743954,475.854174 213.764411,475.960035 214.3948,476.531193 C226.635408,475.683565 238.894521,476.099132 251.132208,475.371644 C251.144382,474.820182 251.185775,474.305647 251.207689,473.909283 C250.865102,473.094645 251.433645,472.189655 251.417088,471.324302 C249.923779,462.854919 251.153148,453.752584 250.845136,445.092897 C250.859501,436.897276 250.900894,428.704116 250.956897,420.508495 C251.419766,369.2946 250.797412,318.06938 251.733622,266.862133 C251.806668,264.343622 251.921351,261.832498 252.084244,259.321373 C251.410514,258.571482 251.859749,257.507701 251.860479,256.605912 L251.899904,255.805173 C252.104775,251.757243 252.33749,248.03917 250.759672,244.050288 C250.796195,243.575144 250.906008,243.129543 251.154121,242.765183 C243.772795,239.302786 236.066413,236.68063 228.446469,233.828534 C227.160854,234.146117 225.551401,233.346004 225.28113,231.962424 C222.410411,217.225569 220.148412,202.395162 218.193206,187.513056 C205.398421,195.917938 189.797927,197.24711 175.268779,200.6519 L172.51897,201.365202 C165.737765,203.133086 158.624571,205.191137 153.4669,210.009778 C152.945593,217.616516 156.819238,239.537404 145.178583,238.964276 C141.36508,240.128995 137.445173,241.063281 133.542311,241.566245 C138.086276,250.194912 146.375081,261.691431 139.821856,271.246753 C138.87128,272.254403 137.593457,271.232228 136.724694,270.606663 C136.832315,276.193176 136.981573,281.75064 136.98766,287.332722 C136.98766,288.076212 136.220674,288.748307 135.480472,288.494733 C131.28299,287.047143 130.764117,282.01997 130.114006,278.226203 C129.53207,274.838646 128.9477,271.45109 128.373069,268.061071 C128.006864,274.14464 129.469981,280.405711 128.278353,286.419116 C127.134316,289.858101 123.579756,288.833713 122.514378,285.9509 L122.482861,285.862976 C120.375719,280.016979 119.349419,273.774865 118.923316,267.583465 L118.900709,267.221188 C118.777922,265.342053 118.578316,263.354675 119.042868,261.534363 C119.985165,263.306922 119.750687,266.199639 120.189451,268.344188 C120.924784,272.927237 121.919187,277.478774 123.316076,281.904262 L123.352388,282.060012 C123.98367,284.656094 126.456481,289.71319 126.427847,283.359237 C126.522442,280.1313 126.244985,276.912785 126.069633,273.691272 L126.045328,273.231034 C125.81645,268.831642 125.840798,264.390398 127.160501,260.148567 C127.496514,259.062875 129.322671,258.858538 129.544245,260.148567 C130.430783,265.308682 131.277876,270.473721 132.125213,275.638759 C132.742941,278.793421 132.717375,282.351833 134.594177,285.07271 C134.616091,279.132423 134.286896,273.209123 134.002502,267.27573 L133.945609,267.092258 C133.714596,266.335825 133.464545,265.325764 133.995198,264.671053 C134.202162,263.317015 136.179281,263.472114 136.347288,264.890161 C136.383811,265.185588 136.410595,265.485938 136.439813,265.783826 C137.094795,266.606096 137.703514,267.4456 138.477804,268.152161 C143.647776,257.59042 126.73245,239.349808 124.39716,227.422704 C117.519367,204.196032 121.473605,179.843047 123.474099,156.190468 C121.405428,155.945511 119.319714,155.880025 117.238382,155.848266 Z M59.3199888,478.938918 C59.2415858,479.231144 59.1814444,479.552421 59.0399781,479.817812 C59.1519824,479.837507 59.2664216,479.859664 59.3808607,479.884283 C59.5196487,479.603628 59.6657412,479.330358 59.8240081,479.062013 C59.6560017,479.022623 59.4879953,478.983232 59.3199888,478.938918 Z M145.18355,370.157983 C145.400254,370.121055 145.487909,370.421405 145.276075,370.490338 C138.149193,372.861135 132.142355,377.272837 126.135516,381.650072 C125.283309,382.270467 124.487105,380.975515 125.083649,380.273877 C127.595879,377.330549 130.672562,375.298943 134.097771,373.589127 L134.299655,373.488916 C137.726012,371.761657 141.401701,370.661932 145.18355,370.157983 Z M213.430662,365.748744 C213.347876,365.588721 213.567015,365.465627 213.666845,365.608416 C215.254384,367.846272 217.355682,369.929028 219.442371,371.686815 C221.555843,373.469221 223.861671,374.877421 226.12367,376.440719 C227.343543,377.282684 226.296546,379.0774 224.971974,378.432385 C222.395875,377.179285 220.082743,375.108838 218.190845,372.954687 C216.240509,370.731603 214.796628,368.35342 213.430662,365.748744 Z M169.181565,288.172226 C161.315942,301.39502 149.702071,314.71112 141.0344,328.271193 C135.181202,336.964116 129.88632,346.029522 123.47164,354.330513 C122.18846,356.078452 119.714626,354.618553 120.593616,352.629349 C123.033362,347.119646 125.753362,341.826589 129.027783,336.777013 L130.084005,335.208597 C141.487937,318.302293 153.574595,301.361795 169.181565,288.172226 Z M201.950149,267.992114 C201.882153,267.771638 202.204766,267.674439 202.291809,267.86957 L202.300771,267.893392 C208.205589,284.093347 217.308859,298.821093 225.273826,314.012166 C225.889849,315.255419 224.248743,316.754708 223.267488,315.577926 C217.645359,308.832356 213.703295,300.897694 210.207057,292.866773 C206.520411,284.906508 204.258655,276.42777 201.950149,267.992114 Z M215.670675,22.1702689 C219.286466,29.4328353 221.94048,37.1188463 223.778812,45.0288889 C224.345286,47.4710315 221.072007,48.969732 219.749604,46.830223 L219.710134,46.764273 C218.08388,44.0493041 215.660449,41.6580733 212.592992,40.7230487 C210.502894,49.4915513 211.521403,58.7578474 212.607358,67.6117775 C214.532806,79.9471266 216.065303,92.3349912 216.294425,104.835136 L216.305447,105.504895 C216.976499,148.193275 223.245574,190.689382 230.111924,232.484344 C241.088831,234.24927 251.138051,239.226467 261.256422,243.602225 C263.014402,244.289091 264.81134,244.88733 266.65235,245.300927 C261.568573,197.916251 242.234441,153.477469 236.260229,106.265864 C234.680969,93.9869567 234.607192,81.5182381 236.788354,69.3104795 C236.82512,69.0766002 237.15602,69.1553806 237.170629,69.3621791 C237.410221,74.3767965 238.267297,79.3259278 238.775212,84.3132183 C239.120965,81.4648151 239.919604,78.5794837 240.564603,75.8492511 C241.353746,73.17835 241.645444,68.8902354 243.956872,67.1489428 L244.102721,66.6442559 L244.102721,66.6442559 C244.163593,66.4276099 244.484996,66.5186997 244.434107,66.7353458 C244.409515,66.838745 244.385166,66.9396824 244.363253,67.0430816 C245.84804,67.4382145 244.461135,69.2004331 244.092981,70.0441218 C241.709968,76.4433044 241.000932,83.3700694 239.374192,89.9657106 C241.727986,110.555948 245.967349,130.884979 251.18821,150.897412 C255.985402,149.630525 260.798421,148.411152 265.607545,147.172577 C254.880456,112.172423 261.152939,73.111879 245.081297,39.6917643 C239.059849,28.4761461 224.230968,29.9998079 215.670675,22.1702689 Z M134.170509,15.7718249 C131.920684,15.6511924 129.571028,16.8747502 127.411293,17.2957329 C124.547879,17.8521193 121.699075,18.2927971 118.899211,19.147318 C104.56607,23.0846137 90.7381665,33.8373972 88.1416149,49.3298053 C86.3568508,59.9676187 90.7761506,70.3321625 90.6208055,80.9404332 C90.1545268,91.4502284 86.6962725,101.55135 85.3488122,111.955284 C83.7276718,122.594083 83.1698418,133.729689 84.5599124,144.420187 C97.4175181,140.765024 110.845128,140.536068 124.029494,142.423597 C122.929904,126.220196 124.372812,109.936783 125.171208,93.744707 C125.745838,83.3456967 126.729528,72.8999106 126.381341,62.4812052 C126.374036,62.2497878 126.749007,62.1931644 126.785043,62.4245818 C130.739282,83.7039013 128.419819,105.305482 128.020499,126.765996 C127.766785,132.188056 128.436863,137.661815 128.166105,143.05384 C134.160282,144.347069 133.943578,151.35163 132.110604,155.968652 C131.785791,157.079702 130.682793,156.886936 129.790167,156.751779 C128.823034,157.770507 126.515503,156.441335 125.200426,156.441581 C124.170961,183.079443 117.916982,211.531963 130.732464,236.429009 C136.090387,236.458517 141.247966,234.606035 146.455254,233.555151 L146.739338,233.498641 L146.746643,233.496179 C147.511924,232.497392 147.886408,230.892241 147.988673,229.717183 C148.716457,209.203018 146.438875,188.642077 147.771482,168.125696 C149.403336,145.353488 154.472261,122.720131 152.127719,99.7935632 C150.506768,79.3030364 146.056761,59.1836556 143.911745,38.7543574 L143.802878,37.6973897 C143.669203,36.4378883 143.618801,35.0461837 142.996934,34.0858016 C139.378465,37.3901462 136.341931,41.3193177 134.168317,45.740128 C132.964515,47.8755687 129.740252,46.9252804 129.690581,44.5143545 C129.22698,40.2095694 129.158359,35.8885218 129.628017,31.5828074 L129.670858,31.202932 C130.253037,25.813123 131.878073,20.6687641 134.170509,15.7718249 Z M268.694967,163.610596 C264.034615,163.857523 259.368419,164.37575 254.699301,164.314695 L255.169385,166.082132 C260.821292,187.290171 266.839289,208.460373 270.387206,230.160323 L270.516087,228.125458 C270.644466,226.090362 270.767229,224.054228 270.847398,222.013939 C271.853975,202.512102 270.316838,183.035622 268.694967,163.610596 Z M255.059662,163.630291 L254.506946,163.60321 L254.541034,163.723842 L254.541034,163.723842 C254.654661,163.700865 254.770453,163.680076 254.886245,163.660016 L255.059662,163.630291 Z M270.248418,149.307033 C270.161006,149.279952 270.012235,149.279952 269.846664,149.287338 C269.608046,149.8388 269.12594,150.294249 268.565919,150.444424 L263.894216,151.709863 C260.000398,152.763924 256.104398,153.813517 252.203553,154.833969 C252.858535,157.364789 253.523499,159.895608 254.195281,162.423966 C259.515485,160.701876 265.406181,161.092578 270.830597,159.984236 C270.763882,157.062961 270.604884,154.126669 270.555213,151.200224 C270.543038,150.722618 270.640433,149.954509 270.396946,149.526141 C270.243792,149.252871 270.396946,149.353809 270.248418,149.307033 Z M91.5336405,159.139809 L91.3873044,159.171814 L91.3873044,159.171814 C91.4360019,159.304755 91.4798297,159.437697 91.5212226,159.573101 C91.523901,159.42785 91.5260924,159.28506 91.5336405,159.139809 Z M126.16975,145.082435 C116.146097,143.616381 105.952489,142.750043 95.8431273,143.747846 C91.2704304,144.369965 86.628583,145.033689 82.1469504,145.882548 C80.5886298,148.287565 82.3127654,154.139717 84.253118,155.991056 C84.8350534,156.212625 85.8357874,155.781795 86.393374,155.656239 C90.5769777,154.706689 94.8017309,153.941781 99.047424,153.344527 C99.1740376,153.50455 99.3590881,153.607949 99.5879665,153.585792 L100.563453,153.495178 C106.419339,152.958836 112.326994,152.565534 118.195532,152.901388 L118.239116,152.935854 L118.239116,152.935854 C122.198468,153.226357 126.144184,153.853399 130.087222,154.307125 C131.643838,150.215715 131.375515,145.520897 126.16975,145.082435 Z M199.101344,11.6407786 C199.488733,12.9593653 199.954282,14.2407774 200.533052,15.486246 C201.137388,15.3180991 201.970846,15.4530105 202.415211,15.8358339 L202.604116,15.8014587 C203.12385,15.7022538 203.747899,15.5505286 203.910224,15.5330218 C211.072168,14.53645 210.526513,24.1703059 210.552566,29.0118527 C210.596394,31.4392732 210.645091,33.8691555 210.718137,36.296576 C212.767572,35.5946921 215.508269,36.8564091 217.299607,37.973121 C215.897118,33.2783027 214.248707,28.6598028 212.410376,24.1225453 L211.992096,23.0613044 C210.561829,19.4586416 208.960684,15.8301716 205.933606,13.3222474 C203.594177,12.7070219 201.327795,12.5952522 199.101344,11.6407786 Z M147.175425,9.22369807 C140.518717,6.83640634 137.88199,12.2616665 136.035624,17.6724016 C133.858845,23.6646343 133.264735,30.2624912 133.627532,36.710173 L133.851669,36.4119587 C136.300881,33.1291169 139.832119,27.7101078 144.297158,28.5810225 C144.253573,26.0900853 144.343177,23.353698 144.818221,20.7669934 C144.540645,19.0978341 144.470034,17.4114416 144.662633,15.725049 C144.76441,13.6105344 147.054898,13.9313182 148.56306,13.6324451 C149.868154,12.7584753 151.448388,12.4064255 153.035927,13.0218972 C154.233886,12.8618745 155.431845,12.7092376 156.629804,12.5566006 C156.813637,12.1503892 156.962165,11.7422084 157.116779,11.3256571 C153.801209,10.636575 150.486612,9.9263206 147.175425,9.22369807 Z" id="ðŸ–-Ink" fill="#000000"></path>
                </g>
                <g id="Head" stroke-width="1" transform="translate(95.945717, 42.661805)">
                    <g id="head/Long">
                        <path d="M102.571813,64.0052689 C101.671729,49.2627712 96.8782426,32.5485871 82.7704224,25.3103008 C51.6690483,12.8535278 10.7771739,44.223227 8.61222053,76.2698268 C7.85747922,87.2395989 13.9604818,99.226381 25.1132214,102.276226 C27.5928482,105.554786 31.3428058,107.557046 35.044078,109.294804 C79.1285225,132.120529 107.605164,113.565725 102.571813,64.0052689 L102.571813,64.0052689 Z" id="ðŸŽ¨-Background" fill="#FFFFFF"></path>
                        <path d="M112.614884,54.8346636 C111.056953,50.5163409 109.411152,46.2311996 107.679854,41.9792397 C105.993679,37.8410447 104.470642,33.6134051 102.376716,29.671309 C89.8705242,6.12673291 67.1285394,6.12673291 55.3728142,9.20312306 C49.2764614,6.58179216 37.8578098,7.3212028 31.5098796,9.68662352 C21.2332383,13.5159945 8.70591009,28.5798778 4.4227888,35.3479362 C-5.03380153,50.2911814 -10.9354131,70.1803519 -4.65381849,87.4479544 C-3.83281764,89.7047639 -2.78572689,91.7949553 -1.60682952,93.8093036 C-2.34945886,94.8137521 -3.20418321,95.7651103 -4.15105344,96.6998778 C-6.96482782,99.4781094 -9.77860221,102.164855 -12.2093062,105.298365 C-14.6248109,108.412439 -16.6273215,111.723943 -18.1180424,115.375083 C-20.9289669,122.260698 -21.0643359,130.05738 -17.3481018,136.627535 C-14.1149211,142.344217 -8.38738931,146.601154 -1.93456489,147.007152 C-1.60326718,147.053132 -1.27149449,147.09532 -0.938296862,147.128738 C-0.0833350297,148.534208 0.959243427,149.828283 2.14906531,150.95645 C5.79452757,154.416797 14.4842646,156.192002 19.4406684,156.305767 C19.694782,156.509595 19.9512706,156.713424 20.2077591,156.914882 C23.2404987,159.296833 26.4228567,161.700115 29.9044512,163.394737 C32.2627209,164.544235 35.3548329,165.504126 37.8152231,164.674591 C38.9314232,165.418802 40.7624665,165.262376 41.8691671,164.65326 C43.6883359,163.653077 45.1678948,161.851801 46.0679796,160.007863 C48.2505072,155.530744 47.7256556,150.631747 47.1651807,145.848884 C46.5477082,140.565931 45.9539847,135.280607 45.3507617,129.997654 C44.8781578,125.866569 44.3841798,121.666751 43.125486,117.687353 C42.4747651,115.625366 41.6221781,113.643962 40.5202273,111.781063 C40.548726,111.624636 40.5439763,111.46821 40.4988533,111.321263 C40.1378694,110.150434 39.3921527,109.536578 38.5086921,108.740224 C38.3946972,108.63831 38.2807023,108.534026 38.1690823,108.427371 C37.727352,107.92491 37.2547481,107.458 36.7488957,107.062193 C36.5541544,106.865475 36.361788,106.666387 36.1694215,106.467298 C34.5711179,104.796377 33.0606853,103.040133 31.7188702,101.158273 C30.4174283,99.3332963 29.2418558,97.4277356 28.1232807,95.4866235 C26.9857065,93.51233 26.2328651,91.3342078 25.0976658,89.3741349 C25.0002952,89.2058578 24.7533062,89.1726764 24.6155623,89.3125123 C24.264078,89.6751376 24.0384631,90.0780547 24.0812112,90.5023026 L23.905469,90.5283737 C23.838972,89.8884467 23.2476234,89.3670246 22.4449092,89.5068605 C21.2432129,89.7154294 20.255257,89.7936427 19.2150534,89.3954658 C19.3979203,88.1843446 19.5665377,86.9708532 19.7327803,85.7549918 C20.0367668,83.5176171 20.3193791,81.2731322 20.5616183,79.0286472 C21.1482171,79.1684831 21.7300662,79.3699417 22.3000407,79.6259125 C23.1122545,79.9885378 23.8793452,80.4767785 24.5348159,81.0764139 C25.1807871,81.6689389 25.6272672,82.4676627 26.415732,82.8800602 C27.3229415,83.3517101 28.4177676,82.5719471 28.1517795,81.5480638 C27.6126785,79.4789663 24.5609398,78.2939161 22.6728991,77.9028496 C22.024553,77.7677539 21.3619576,77.7108715 20.6993622,77.7250921 C20.8489805,76.2840711 20.9819746,74.8430501 21.0912197,73.3996591 C21.1434673,72.7170702 21.1909652,72.0344813 21.2360882,71.3495223 C22.7037727,70.9063136 24.2759525,70.773588 25.8030093,70.9821568 C26.3064869,71.3827037 26.8099644,71.7785105 27.2968176,72.1790574 C28.8428736,73.4541714 30.3818049,74.7363956 31.9017371,76.0423209 C32.0394809,76.1584558 32.1748499,76.2745907 32.3125937,76.3930957 C33.2150534,77.1681185 34.3407532,76.400206 34.18876,75.3028496 C32.9490653,66.3106892 38.4683189,59.1577265 44.9304054,53.6164321 C52.0835861,47.4802425 65.0885055,46.7657273 73.5953757,36.1369426 C77.5132621,36.9327253 86.2606853,39.2962862 89.8705242,45.0366691 C94.9242986,53.0807894 94.264078,60.2882644 94.6488109,69.4131504 C95.0335437,78.5451468 96.012,88.0705798 93.9339678,97.0745907 C92.0174283,105.377052 86.828285,112.470762 78.7773944,115.73202 C78.5779033,115.812603 78.3760373,115.890817 78.1741713,115.96666 C74.0109822,117.533296 69.46781,117.976505 65.0885055,117.15171 C60.2413469,116.236851 56.1945276,114.023178 52.1619576,111.299933 C51.929218,111.145876 51.5896081,111.463469 51.7653503,111.695739 C57.080363,118.725457 67.5203969,121.074226 75.8016522,119.218438 C76.18876,119.130744 76.5734928,119.03594 76.9558507,118.931655 C75.1034334,124.24779 75.4762918,130.082977 77.8891841,135.259276 C79.3402443,138.373588 81.5536455,141.068392 84.2491501,143.194372 C87.2201425,145.536031 90.9059779,147.427371 92.9673859,150.7147 C94.8554266,153.727098 94.2949517,157.111601 91.0627209,158.851254 C90.2481323,159.292093 89.9346463,160.716523 90.7421103,161.34223 C91.0508465,161.57924 91.3595827,161.82099 91.6754436,162.058 C93.4851128,163.420808 98.4557659,165.980516 99.260855,166.07532 C106.409286,166.921446 111.216071,161.683524 114.296309,155.504673 C117.913272,148.252166 116.972814,139.414062 112.987742,132.50759 C109.791135,126.966295 103.495291,121.505584 105.998429,114.492458 C106.891389,111.987262 108.717683,109.851801 110.491729,107.92254 C112.515138,105.725457 114.690541,103.66821 116.63083,101.392913 C118.559243,99.1342078 120.269167,96.6764139 121.223874,93.8417739 C122.617937,89.6988387 121.924468,85.2193491 120.87714,81.0835242 C118.632865,72.2051285 115.71887,63.4452379 112.614884,54.8346636 Z" id="ðŸ–-Ink" fill="#000000"></path>
                    </g>
                    <g id="face/Smile-Big" transform="translate(37.760814, 44.083865)" fill="#000000">
                        <path d="M22.1688546,44.1967986 C26.2399157,43.703704 30.1860888,44.9475399 34.165913,45.5745352 C36.2672052,45.9053903 38.3711041,46.1524099 40.4975161,46.2442748 C40.925263,46.2629311 41.353247,46.2737943 41.7812309,46.2825321 C41.8210434,45.9065711 42.0319546,45.5613104 42.48885,45.3544374 C43.4253907,44.9307728 44.1749551,44.7397222 45.2032067,44.7805773 C46.144487,44.8176539 47.089085,44.9142418 48.0159096,45.083566 C49.698934,45.3915139 51.3895417,46.0903008 52.6206472,47.3043809 C55.4698449,50.1136976 55.0361734,54.6261744 52.8346392,57.6860531 C48.2862101,64.0088909 39.9846916,64.3023432 32.8747745,64.2198561 L32.2186571,64.2112911 C25.7448667,64.1189539 16.4827822,65.0822359 13.5416367,57.7316313 C12.4600648,55.028585 12.6103095,51.8954978 13.9345477,49.3029727 C15.5140123,46.2107406 18.8388267,44.6001538 22.1688546,44.1967986 Z M42.3907407,54.7244155 L42.3326809,54.7267771 C39.3479313,54.8415491 36.3636556,54.9223146 33.3772471,54.9749775 C33.4665882,55.7403604 33.5578251,56.5059795 33.6620958,57.2697094 C33.7438535,57.8707275 33.8315357,58.4710371 33.9227726,59.0706382 C33.9614002,59.3245064 34.1031136,59.7186514 34.0630641,59.970158 L34.0486084,60.0695798 L34.0486084,60.0695798 C34.2019338,60.1387737 34.3410404,60.2502395 34.4446002,60.4120066 C34.480621,60.4679757 34.5066887,60.5244171 34.5327564,60.5806223 C36.8513582,60.5988064 39.3465094,60.5539367 41.7101372,60.1333421 L41.7148768,60.0820961 L41.7148768,60.0820961 C41.75777,59.7807605 41.8833688,59.5779022 42.050202,59.4388061 C42.2163242,58.4778856 42.2011576,57.4539114 42.2653789,56.5005479 C42.3054283,55.9082676 42.3487955,55.3164597 42.3907407,54.7244155 Z M31.0963249,55.0155964 C28.9449775,55.0521219 26.7926939,55.0802508 24.6418042,55.0540397 L23.6653766,55.0389759 L23.6653766,55.0389759 C23.8715483,56.1430071 24.0959673,57.2432599 24.2824697,58.3546119 C24.4770294,59.5129592 23.4554132,60.2492949 22.5712449,60.2195392 C22.670539,60.235834 22.7695962,60.2526011 22.8688904,60.2665343 C25.6313538,60.6564285 28.4997468,60.552992 31.3032075,60.549922 C31.1523704,59.6713729 31.213482,58.6800774 31.1909155,57.9467665 L31.1866139,57.8331786 C31.1437207,56.8935122 31.1136244,55.9545543 31.0963249,55.0155964 Z M16.4832561,54.8129742 C16.5579045,55.3870704 16.7031726,55.9488865 16.9204823,56.471973 C17.8387756,58.6819247 19.9440964,59.7132198 22.1716984,60.1475115 C21.7851857,60.0143192 21.478298,59.6943273 21.4008059,59.1462083 C21.2076681,57.7833496 21.1382333,56.3978199 21.1330197,55.0139433 C19.5805708,54.9995377 18.0176947,54.9664758 16.4832561,54.8129742 Z M50.4866519,54.3411337 C49.3813822,54.601378 48.0969564,54.482119 47.0125408,54.5312396 C45.9966121,54.5772901 44.9802095,54.6174367 43.9642808,54.6585279 C44.0121506,55.3507023 44.0588354,56.0426406 44.1095489,56.7343428 C44.1749551,57.628431 44.1811165,58.5732928 44.3526893,59.4636025 C46.3973435,58.7671772 48.2294276,57.6503935 49.6039054,55.8645787 C49.94634,55.41966 50.2529907,54.8975182 50.4866519,54.3411337 Z M21.7017692,47.8227443 C19.8618647,48.2575082 18.1205436,49.1759205 17.1847138,50.8561734 C16.6292352,51.8532258 16.3849099,53.0349525 16.4318317,54.1994398 C17.9868875,54.0187801 19.5687218,53.9502948 21.1429728,53.8936172 C21.1481864,53.6107019 21.1548745,53.3281013 21.1633881,53.0460956 L21.1876416,52.3233087 C21.2305525,50.9447585 21.2521139,49.2136404 21.7017692,47.8227443 Z M31.2250045,47.9908876 L30.4150545,47.900098 C28.1653504,47.6442883 25.9168542,47.3757508 23.6670354,47.5296741 C23.3414264,47.552109 23.0108408,47.5875325 22.6795442,47.6359445 C23.0771949,49.067997 23.0437808,50.749903 23.2099031,52.16755 C23.2741244,52.715669 23.3551712,53.2593011 23.4449862,53.8008078 L23.8352905,53.7826237 L23.8352905,53.7826237 C26.2493948,53.6520292 28.665869,53.571736 31.0818692,53.4760927 C31.0816915,53.0233809 31.0841797,52.5704033 31.0914335,52.1172598 L31.1003535,51.6640645 C31.1278431,50.5066619 31.0529578,49.2028423 31.2250045,47.9908876 Z M42.522264,47.8071579 C40.1659825,48.1866613 37.730787,48.2674268 35.4162138,48.2702607 C34.491759,48.2714414 33.5677782,48.2147639 32.6442713,48.1330538 C32.7044639,48.6237868 32.7357451,49.1201876 32.7810081,49.6040721 C32.8721976,50.5819486 32.9764304,51.5583137 33.0897026,52.5337719 L33.1907447,53.3872979 L33.1907447,53.3872979 C36.1603277,53.2529249 39.1296737,53.1076887 42.0985457,52.9572571 L42.5175245,52.9348222 L42.5175245,52.9348222 L42.6349607,51.2944885 C42.7149016,50.2006819 42.8028471,49.1071203 42.927024,48.0182818 L42.8338913,47.9847476 L42.8338913,47.9847476 C42.7244071,47.9398778 42.6206103,47.8780049 42.522264,47.8071579 Z M43.5455391,48.2142916 C43.6754035,49.76088 43.7472081,51.3138446 43.8427106,52.8630306 L45.7999108,52.7586845 C46.1260816,52.7409378 46.4522436,52.7228325 46.7784056,52.7040974 C48.0467169,52.631125 49.676421,52.2478432 50.9302765,52.605384 C51.026016,51.4678185 50.7001699,50.3595365 49.6714444,49.5953343 C47.865428,48.2530212 45.5657844,48.7310018 43.5455391,48.2142916 Z M36.8585683,34.3886618 C39.7730382,32.7229553 47.0855742,31.0205123 47.5486785,36.2548788 C47.7616567,38.6636029 45.9672866,40.6594144 43.8719708,41.5499871 L43.7932587,41.5828642 C41.8280339,42.3891723 38.3447769,43.2997648 36.6441154,41.5513418 C35.2286785,40.0961003 37.1060322,37.4868569 38.8648787,38.6790173 C39.7687683,39.2914562 41.6713373,38.8401964 42.6799344,38.548784 L42.7430806,38.530412 C43.8314945,38.2111595 45.2825547,37.1894093 44.8325123,35.8519617 C44.4342426,34.6688077 42.7395182,34.4526545 41.6781781,34.4142589 C40.0938863,34.3576135 38.5521052,34.724742 36.9823003,34.8441951 C36.7336489,34.8631559 36.6569398,34.5038487 36.8585683,34.3886618 Z M48.9313418,25.9717958 C52.8869652,25.786928 55.3475929,30.0971923 54.4380085,33.6288788 C54.2807905,34.2382315 53.597771,34.8364448 52.9385004,34.767949 L52.772387,34.7526931 C52.6879966,34.7445987 52.6032129,34.7339617 52.5252689,34.7124886 C51.8992468,34.5394713 51.3380594,33.8895898 51.3836573,33.2160073 L51.3957707,33.0197356 C51.4880628,31.3513908 51.3068941,29.4292291 49.320112,29.025196 C47.6351247,28.6824795 46.6944292,30.301021 46.6744801,31.790866 C46.6706802,32.0553692 46.3728685,32.24 46.1384665,32.097794 C44.9203834,31.3580857 44.7094928,29.8864904 45.1747345,28.6191978 C45.7644207,27.0134549 47.2401798,26.0507201 48.9313418,25.9717958 Z M19.5769398,26.8962297 C22.4555488,25.9377612 25.5611976,27.469083 26.9550229,30.0088824 C27.4440136,30.1501404 27.9322918,30.5262753 27.8643698,31.1022097 C27.7662867,31.9307967 27.6185683,32.4531668 27.042894,33.0814804 C26.1424739,34.0643854 24.4560891,33.5618267 24.081838,32.3518619 L24.0659644,32.2972142 C23.6408584,30.7331851 21.9157354,29.7012434 20.344268,30.2487366 C18.508475,30.8881896 18.5616726,32.8231395 17.2740051,33.9503592 C17.1227243,34.0828478 16.9412824,34.1039417 16.7598405,34.016485 C15.3921391,33.3568861 15.6379406,31.3716901 16.1255064,30.235464 C16.7650653,28.7444339 18.0080848,27.4183628 19.5769398,26.8962297 Z M15.6565835,18.1725305 C17.9892044,15.797216 24.0717829,13.4986928 25.6674741,17.8850374 C25.9714606,18.7204977 25.324302,19.8470064 24.4527159,20.0202607 C23.0254046,20.3037247 21.7591111,19.6853655 20.3412994,19.7962862 C19.1935131,19.8865871 17.9963291,20.2693582 17.0786701,20.9789663 C14.5370585,22.9442534 13.9780085,26.2683191 12.20705,28.7697229 C12.1208414,28.891546 11.9534114,28.8403519 11.9374996,28.6967238 C11.5342426,25.0550647 13.1016726,20.7739526 15.6565835,18.1725305 Z M46.0778355,15.8342133 C47.6257913,15.2886162 49.3787006,15.3353072 50.9347311,15.8192817 C52.5021612,16.3070483 53.9411094,17.2332835 55.0497099,18.4434567 C55.5527125,18.9928459 56.0181917,19.5991176 56.391525,20.2444959 C56.5898287,20.5865014 56.7983444,21.2930283 57.0237218,21.7137211 C58.2431094,22.416315 58.7643027,24.0173402 57.6725954,25.1563543 L57.6233825,25.2063008 L57.4773265,25.3508769 C56.8904902,25.9306035 56.0056047,26.1818341 55.204553,25.9502753 C53.411983,25.4326454 53.1942053,24.0236208 52.5736455,22.5280875 C52.1637388,21.5402297 51.4614826,20.6661367 50.6100831,20.0240766 C48.5978355,18.5072124 45.2983953,18.023949 42.8757659,18.7387712 C42.7468092,18.7769298 42.5952909,18.6129189 42.6871993,18.4939398 C43.1462663,17.9004667 43.4108295,17.4134111 44.0254521,16.9346509 C44.6493367,16.4487803 45.3302188,16.0977685 46.0778355,15.8342133 Z" id="ðŸ–-Ink"></path>
                    </g>
                    <g id="facial-hair/*-None" transform="translate(29.211196, 80.109389)"></g>
                    <g id="accessories/Glasses-3" transform="translate(11.162002, 57.119417)" fill="#000000">
                        <path d="M87.1903376,23.302423 C85.5913215,25.4461787 82.6269788,26.1290046 79.8927634,25.8931796 C73.9956641,25.3267256 72.1396845,18.6428058 71.9463681,13.447783 C75.9008041,14.557938 71.611983,6.69536737 85.1296421,5.83075479 C89.8948668,5.43447402 88.5810755,8.30656153 90.686419,10.4050483 C90.6431959,14.8091686 89.9086412,19.5946381 87.1903376,23.302423 M59.102229,18.2417849 C55.6206344,34.5132343 36.5554606,30.6428605 34.5527125,15.975258 C36.4020424,14.6726509 35.9149517,11.4561878 38.2124241,10.2908095 C41.8536115,7.96905925 46.4053333,8.06836645 50.5402612,8.12287876 C55.8255878,8.48526709 57.3317455,10.6702625 60.0467243,13.0541094 C59.9161052,14.6463428 59.539447,16.5334166 59.102229,18.2417849 M94.7427379,3.13595077 C94.5472841,3.1034804 94.3515929,3.07290611 94.1559016,3.04422789 C94.0031959,2.95771923 93.8238914,2.89111942 93.6153757,2.85106472 C93.1392095,2.73042662 92.6663681,2.64913218 92.1942392,2.60528532 C85.4181917,1.08344394 69.742229,3.24426436 69.0953079,9.0149845 C66.9374792,9.73383592 65.0703376,9.09011668 62.5693367,9.15410939 C60.6656217,1.21308842 27.7536285,2.33390884 26.1707617,7.12151139 C26.1648244,7.11985232 26.1588872,7.11843026 26.1527125,7.11653418 C24.6318304,6.64678031 22.389693,6.7600711 20.6488957,6.68564995 C16.9319491,6.60791067 13.2107277,6.93853965 9.57405259,7.72090975 C2.76404411,8.80096445 -6.53010348,10.0654129 -1.79385242,18.552268 C-1.79290246,18.5536901 -1.79218999,18.5553491 -1.79100254,18.5567712 L-1.79029008,18.5560602 C-0.974039016,19.3910465 0.411236641,18.718649 0.462771841,17.5883482 C-1.12959457,13.5677101 2.46694487,13.0849207 5.23417133,11.9294968 C12.1197014,9.46080036 19.1299135,9.11855789 26.2512706,9.88220419 C26.7870466,10.5117028 27.5999729,11.060618 28.4592095,11.3478742 C33.2206344,12.1366436 30.7113215,15.6614567 33.7210246,16.1741094 C33.1681493,28.4611832 48.1159695,35.168093 56.7769703,27.0910283 C60.2350534,23.7169535 61.0593791,18.718649 61.8611433,14.2133254 C62.2850619,14.1182844 62.5546124,13.8869626 62.7120679,13.5807457 C63.7316098,12.5649207 64.3721187,11.626835 66.3881662,11.3478742 C68.4042137,11.0691504 69.956207,11.6287311 70.1661476,11.8000893 C70.2191077,11.9065068 70.2758677,12.0131613 70.3418897,12.1198159 C70.4340356,12.2788496 70.55943,12.40565 70.7019237,12.5054312 C68.71105,24.7408368 78.2289126,32.4787402 87.8374962,26.1327967 C92.0125598,22.2133619 92.8948329,16.212742 93.0691501,10.8567894 C93.6350874,10.515969 93.9934589,9.85542206 93.7975301,9.02493892 C93.5275047,7.88018049 94.1606514,6.88900456 95.1690314,6.3912835 C96.4792604,5.74495716 96.2474707,3.38457429 94.7427379,3.13595077" id="ðŸ–-Ink"></path>
                    </g>
                </g>
            </g>
        </g>
    </g>
</svg>