<?xml version="1.0" encoding="UTF-8"?>
<svg width="340px" height="465px" viewBox="0 0 340 465" version="1.1" xmlns="http://www.w3.org/2000/svg" xmlns:xlink="http://www.w3.org/1999/xlink">
    <!-- Generator: Sketch 62 (91390) - https://sketch.com -->
    <title>peep-sitting-4</title>
    <desc>Created with Sketch.</desc>
    <g id="Introduction" stroke="none" stroke-width="1" fill="none" fill-rule="evenodd">
        <g id="variations-sitting" transform="translate(-780.000000, -261.000000)">
            <g id="a-person/sitting" transform="translate(831.000000, 200.000000)">
                <g id="pose/sitting/mid-1" transform="translate(-20.311475, 159.504800)">
                    <path d="M53.8211327,80.8965076 C50.7890224,82.595508 48.2724376,83.7560009 45.9012771,84.5487824 L42.4141707,85.7143965 L45.6937845,87.3757552 C47.921316,88.5042397 50.0395869,89.9433328 52.1693994,91.7759999 L53.8131818,93.1907666 L54.6064754,91.1739878 C55.6482984,88.5247251 56.15536,85.5110798 56.1132972,82.2167859 L56.0799548,79.6310276 L53.8211327,80.8965076 Z M199.475533,89.4532217 C196.637835,94.5714765 193.212284,99.6103507 189.899328,104.483294 C182.587587,115.238082 175.026804,126.359301 172.698732,139.658364 C172.517657,140.760645 172.38822,143.252512 172.310421,147.133966 L174.47768,146.251817 C181.715041,143.305518 189.393805,141.113846 196.819423,138.99464 C199.689695,138.175484 202.657172,137.328672 205.565915,136.447804 C206.750341,136.13105 207.928355,135.760778 209.068154,135.402541 C211.833268,134.533708 214.44552,133.712759 217.191911,133.572947 L218.028037,133.53044 L218.446356,132.806284 C222.23021,126.256106 219.392512,120.01244 216.143163,114.177967 C214.191348,109.924961 211.680919,105.929301 209.252563,102.063979 C206.735722,98.0580764 204.133216,93.9159466 202.231671,89.5809989 L200.982868,86.7348211 L199.475533,89.4532217 Z M59.8209766,143.712663 C64.1226645,148.218407 68.1183713,152.796618 71.6972976,157.320031 L74.414963,156.071707 C73.1012708,149.390167 69.0227209,144.683155 61.5791492,141.257243 L59.8209766,143.712663 Z M203.72849,244.370821 C203.29786,244.370821 202.893903,244.537776 202.591256,244.840702 C202.284249,245.148238 202.115742,245.562553 202.117017,246.006573 L203.72849,246.001451 L203.72849,244.370821 Z M24.7252364,355.772499 C22.1978794,351.436783 21.8264959,344.62977 25.6141972,340.939342 C24.3402595,332.968764 26.8429944,324.061751 32.3857904,317.715914 L32.3986144,317.735119 C40.6282983,305.410132 41.2330789,301.018849 35.2201544,287.24171 C24.4741422,286.830979 13.4052213,286.708324 2.91286813,284.197849 L3.30528301,281.852537 C2.91697181,281.749342 0.933096584,281.228759 0.507082783,281.118651 C0.564021412,281.555244 0.859743214,283.546416 0.852561765,283.945111 C0.362427886,284.481314 -0.822254684,284.979363 -1.04257127,283.924114 C-7.64309215,255.71072 -13.5503467,228.056575 -19.9690231,199.885177 C-26.6867555,171.452078 -40.1965995,125.975457 -7.12705376,110.305475 L-7.80980435,107.392208 C-9.63594419,107.39272 -10.3697344,105.402572 -11.2068861,102.591219 C-14.9381617,92.5329321 -7.6828466,82.6710476 -0.898172857,76.4499149 C8.37564233,67.1652041 16.9310562,56.8569959 25.2074194,46.8919167 C48.8159193,18.1878999 80.9387962,-20.1160456 122.000525,-13.6086307 L121.862282,-11.9178244 C128.285575,-11.110191 134.992279,-9.41170271 141.496107,-10.5947294 C163.701403,-14.4416146 187.859284,-5.73894263 201.516347,12.1296254 L202.018023,8.79922606 C202.065215,8.48503261 202.177554,8.19439727 202.674869,8.19439727 C203.325559,8.17135129 203.6695,8.7037133 203.910078,9.19484861 C227.481645,18.512592 237.24585,48.8413501 244.778421,69.6293309 C245.739965,73.1430737 245.468866,74.1827032 245.384997,74.3893488 L244.017187,75.2044081 C258.223119,94.1059479 266.02961,116.840801 272.726568,138.397493 C274.939993,144.144135 275.170825,148.126223 271.474174,151.601812 C295.849037,166.250346 314.9758,189.079432 304.161564,215.105762 C290.047709,240.430471 252.674937,256.498636 224.603936,271.044487 C213.456788,277.084581 197.243642,280.300775 186.986225,290.192363 C186.300909,291.204849 185.317564,292.191985 184.72176,292.110812 C179.960972,292.815251 172.875447,263.075189 173.952408,260.693516 C168.926933,262.490846 163.336431,262.395333 158.080124,263.333048 C158.551022,264.367812 160.093238,265.769008 158.939333,266.920538 C159.017559,270.413283 158.48049,274.188982 157.711818,277.749073 C164.019951,276.737867 163.876835,280.047781 157.807742,278.296031 C157.642825,279.838575 157.221941,283.771242 157.060871,285.262061 C158.872391,284.465694 162.477992,283.906445 163.740644,285.152208 C163.224862,286.812543 158.756975,285.249001 157.035992,285.741161 C156.029307,293.2078 155.701012,300.548455 154.994666,307.994354 C160.365363,313.111072 168.754321,314.320217 173.547169,319.854324 C177.608022,324.06636 177.022477,331.135072 172.258356,334.523343 C175.176332,337.945926 172.841079,343.627271 168.580428,344.556023 C162.776022,345.911127 156.708724,344.037233 150.985622,342.462937 C141.472254,339.329452 131.508763,334.444986 120.528328,327.530938 C116.184321,324.824828 112.948822,320.572846 111.411479,315.554713 C100.271256,281.215444 97.2942894,257.881907 102.552649,246.170199 C105.553388,243.902987 108.898312,245.302262 111.668845,244.064066 C112.989338,243.473917 114.179349,242.680413 115.13942,239.865845 C100.686498,238.446469 79.6176662,241.083953 68.0321939,234.157613 L68.4397411,233.290316 C67.3699617,232.607387 65.0193196,229.750199 64.1249728,228.831688 C65.7369516,248.224364 67.0326901,268.118929 67.6738909,287.44349 C69.7990868,291.018433 71.6036823,294.718592 73.5847362,298.846894 C74.9625485,300.200205 77.3732069,302.51991 75.958718,304.054772 C75.9584615,304.054772 87.854275,331.91377 91.4896269,345.996141 C94.9508288,346.142354 96.3540326,352.006019 96.2222017,355.900788 C95.6959041,362.988706 86.6008557,363.740772 78.6276521,364.435224 C73.1720594,365.008045 67.5625784,365.304502 62.0364536,365.304502 C52.0519315,365.311996 27.0871636,364.624714 24.7252364,355.772499 Z" id="ðŸŽ¨-Background" fill="#FFFFFF"></path>
                    <path d="M73.325952,-3.31746798 C90.2731452,-14.5736339 112.275309,-20.5005463 131.929395,-13.1301877 C132.162792,-13.0482465 132.070203,-12.7076782 131.826547,-12.7614521 C128.720827,-13.4425887 125.565862,-13.8241276 122.393457,-13.9547214 C128.823675,-13.1696219 135.063585,-11.4831687 141.575364,-12.6198474 C163.325407,-16.2106662 186.389656,-8.83467419 200.84027,8.05930519 C201.213961,5.57699771 204.299676,5.6691816 205.305592,7.42426057 C224.523662,14.1908146 235.40843,39.6112923 242.667592,57.2522173 C243.520389,60.3967125 249.443289,73.4540493 246.598922,75.1486966 C260.137236,93.6871342 267.754701,115.638681 274.513983,137.352341 L274.707376,137.880535 C276.241716,142.130323 277.412488,146.939815 274.162862,150.721567 C287.643467,158.959735 300.107641,170.025131 305.999763,185.019098 C315.384121,207.136831 303.425983,225.875513 284.781403,237.858651 C266.303792,251.23095 246.28576,262.364716 225.593185,271.925466 C218.634874,275.136539 211.58936,278.15044 204.503065,281.069853 L203.797812,281.357793 C198.231118,283.645505 192.613924,286.334661 188.449962,290.736359 C180.353135,302.546908 172.874169,267.168777 172.791839,262.238475 C168.994648,263.379251 164.812993,263.404858 160.893461,264.000468 C161.391289,264.853169 161.429505,265.961937 160.823955,266.870972 C160.833188,269.757352 160.527207,272.666523 159.962437,275.52576 C165.978183,274.99263 165.769921,281.05705 159.498464,279.658671 L159.185302,282.590631 L159.185302,282.590631 C162.048648,281.704129 168.096197,283.120432 164.553691,286.531749 C162.698569,287.447698 160.722132,286.603191 158.744156,286.700496 C157.891872,293.402266 157.567424,300.108644 156.94392,306.840117 C162.317183,311.508207 170.293721,312.745008 175.063742,318.34774 C179.232316,322.902649 179.335934,330.02872 174.564118,334.31604 C177.127639,338.690166 174.028587,344.387899 169.288318,345.537125 C163.178187,346.987997 156.77926,345.054695 150.883034,343.422016 C140.160336,339.89461 130.013301,334.561148 120.466492,328.579199 L120.051792,328.318709 C115.327938,325.375738 111.909055,320.795735 110.284252,315.492344 L109.936795,314.417681 C104.16685,296.508491 93.9042858,261.380545 101.602907,244.787808 C105.230308,240.77115 111.077033,245.448459 113.190687,240.716096 C99.5533724,239.64958 77.5794215,242.022547 66.4676684,234.235056 C67.5587357,249.900173 69.1771265,265.555559 69.1124934,281.266768 C68.8354947,283.332968 70.232543,284.625591 69.6711075,286.710739 C71.6996103,290.175829 73.4508579,293.788158 75.1882556,297.404327 L75.2980173,297.506642 C77.1020245,299.214089 79.4209861,302.678496 77.0474814,304.709645 C85.1250724,316.528133 89.5070385,330.476837 93.0877602,344.195081 C96.8964929,345.067243 98.3353474,352.146966 98.0993855,355.531139 C97.0303756,364.624825 86.2328109,364.683464 79.1377959,365.451151 C74.9930741,365.886464 70.8355282,366.157894 66.6702879,366.270563 C58.2426012,366.498462 49.8041424,366.052907 41.4457055,364.956431 C34.6364096,364.36082 27.1087124,362.582951 23.7172732,355.99718 C20.9829366,351.269939 20.5561534,344.176132 24.3382121,339.934136 C23.2326639,331.809785 25.8243592,323.341353 30.8886452,316.935682 L31.042864,316.742204 L31.0299544,316.737291 C30.9138376,316.686304 30.9241557,316.494543 31.3980986,316.398721 L31.4506677,316.388833 L31.6781517,316.037281 C39.1193251,304.521145 40.0464951,301.363597 34.5256101,288.229213 L29.5087534,288.050021 C20.2122358,287.710052 10.8182869,287.221232 1.82180532,284.913153 C0.547354638,285.973268 -1.69453979,285.850612 -2.1946764,283.771353 C-8.73928457,255.809161 -14.7442582,227.716886 -21.1252319,199.714235 C-27.7572998,170.243812 -42.0481264,125.50543 -7.46534685,108.416841 C-10.9975937,108.417609 -11.7847318,104.186112 -12.6431714,101.515852 C-15.7904414,91.1387616 -8.85547015,81.5506121 -1.60195039,74.8132496 C23.8611587,49.2923939 43.0186993,17.1399311 73.325952,-3.31746798 Z M24.7665342,343.058146 C24.2879419,356.797131 34.7023251,360.091681 46.4239884,360.442492 C53.7282912,361.136432 61.0869679,361.348967 68.4194836,361.062429 L71.8734945,360.862738 C77.6421167,360.523722 83.4543169,360.100004 89.0684572,358.785743 C92.7656209,358.027018 93.6925408,354.725298 92.3570478,351.498094 C91.7799671,351.75416 91.097473,351.772085 90.5639939,351.398228 C89.9663948,350.98084 89.5331995,350.537845 89.2046482,350.015726 C70.2099727,358.454649 46.3088287,357.530506 27.9007236,347.820981 C25.5418742,347.705495 25.2356367,344.892605 24.7665342,343.058146 Z M70.9409416,299.570649 C64.037261,295.401632 50.0560061,293.589194 43.3872615,298.835482 C43.8443094,301.47143 42.7758124,303.909694 41.7740003,306.258847 C44.8166263,305.533667 71.2830863,301.97332 67.5448857,308.468955 C65.4520064,310.153616 62.6027666,308.993892 60.1839007,308.765736 C53.6967442,308.227229 47.1647035,308.398537 40.696783,309.132167 C40.1330392,310.710304 39.9152875,312.480235 39.2140703,313.969005 C45.7648386,311.810896 52.618227,310.778376 59.4916821,310.409279 L59.8735596,310.389453 C62.8743792,310.230436 66.3858512,309.567224 68.6197947,312.014963 C70.5236481,314.614293 66.2981349,316.402916 64.12113,316.14813 C54.8493667,315.870554 45.5586238,316.213427 36.2953243,316.611866 L35.8881245,317.282623 C29.34217,328.102337 27.9326606,332.363329 30.5783781,345.339697 C30.5632458,345.326894 30.5476005,345.316651 30.5347765,345.303848 C30.5245172,346.005726 30.299071,346.637954 29.8191964,347.109116 C49.7818286,353.577097 68.3751125,353.209641 88.2120694,346.79441 C85.3115336,332.247536 79.5556024,318.507526 75.2754589,304.363955 C74.1456631,303.732496 73.8104433,302.33719 72.9643148,301.414071 C72.1089529,301.341092 71.261542,300.666613 70.9409416,299.570649 Z M118.779906,240.877674 C110.082146,247.018146 114.010142,254.274555 116.414901,262.612332 C119.929964,274.868949 122.630445,287.355514 125.63819,299.741701 C127.409956,310.743081 134.3775,320.285139 144.401777,325.233365 C148.910957,327.605564 153.858206,329.139914 158.913689,329.770861 C160.865504,329.968801 163.028146,329.759851 164.335427,331.506992 C165.076911,332.308479 165.158728,333.624661 164.335427,334.41104 C161.750362,337.337367 154.236258,334.697323 150.750434,333.967533 C124.919532,326.150083 120.993588,307.463383 116.011201,284.034845 C113.596952,271.022832 107.664819,257.318416 111.244002,244.121779 C109.079308,245.277407 105.753528,244.881016 104.218236,247.063982 C100.673935,269.484898 108.491711,292.229738 114.516947,313.664286 C115.854748,318.167982 118.678853,322.129073 122.788181,324.493589 C131.553908,329.838463 140.741546,334.722673 150.462663,338.096092 L150.757446,338.17954 C155.690809,339.592921 166.348356,343.405956 170.134703,339.419443 C170.924662,338.254341 170.888755,337.007297 169.893611,336.233721 L169.4113,336.050625 C168.485208,335.693184 167.394744,335.189872 167.22602,334.109204 L167.215957,334.034623 L167.251608,334.021563 C166.446516,332.546877 168.008994,330.894993 169.408607,330.533939 C171.381197,330.462753 172.298627,329.151181 172.999845,327.225562 C174.257624,317.800014 161.001952,315.281345 156.607675,308.83257 C156.141906,311.186588 152.512967,310.73796 152.531946,308.363712 C152.388574,301.151859 153.95849,293.87394 155.033142,286.759392 C153.379101,286.688717 151.621441,287.356282 150.011001,286.994717 C149.773244,285.50902 154.418872,283.952136 155.697426,283.461513 C155.961601,282.232138 156.241164,281.008141 156.538682,279.789521 C146.205603,280.412787 151.005375,277.104409 157.53126,275.971571 C157.734393,275.280412 157.912463,274.570439 158.074679,273.868421 L158.154508,273.518199 C158.567184,271.759023 158.785449,270.097152 158.857264,268.378947 C154.288836,270.469217 149.149484,271.737514 144.199157,270.673302 C135.254663,268.598652 130.618268,257.75757 134.208992,249.622085 C133.392103,246.736473 134.995874,243.667517 136.445757,241.23335 C130.557226,241.212865 124.665616,241.051543 118.779906,240.877674 Z M31.3326867,316.529669 C31.2555503,316.575761 31.1828862,316.627758 31.1125304,316.684257 L31.042864,316.742204 L31.0603958,316.746936 C31.1451209,316.76446 31.2684982,316.716597 31.3429459,316.537351 C31.3273006,316.552715 31.3273006,316.545033 31.3326867,316.529669 Z M31.876425,316.347862 C31.7353608,316.35213 31.61567,316.36351 31.5114155,316.37904 L31.4506677,316.388833 L31.4313157,316.419104 C31.395069,316.473904 31.3725511,316.496856 31.3455107,316.535046 C31.4945258,316.414439 31.6966323,316.358361 31.876425,316.347862 Z M42.5537004,307.754274 C42.0720304,307.818035 41.5911298,307.87565 41.106895,307.936337 L41.0119973,308.194708 L41.0119973,308.194708 C41.5249579,308.041069 42.0379185,307.895111 42.5537004,307.754274 Z M63.9310781,286.900228 C55.3374487,287.773927 46.6766215,287.235419 38.0804273,288.211288 C39.7660159,290.535859 40.9683956,293.108814 41.9766197,295.824142 C49.0370098,289.167184 60.363437,291.203424 68.858065,293.655259 C68.2863703,291.988011 67.7598162,290.305399 67.2884054,288.608191 C66.017289,288.812788 64.5658669,288.099643 63.9310781,286.900228 Z M273.534485,151.535858 C261.787687,163.487756 244.034119,166.773344 228.840482,172.049592 C225.151526,174.356494 226.954582,178.927791 227.424711,182.399539 C228.304438,188.098296 229.002834,193.824453 229.509896,199.56879 C231.386819,197.401444 236.304059,197.118234 239.055836,196.237366 L239.422438,196.154747 C243.093339,195.313625 246.908445,194.052211 250.654133,194.869972 C252.164802,195.197737 252.267137,197.284934 251.06681,198.02727 C248.026335,199.9127 244.306478,199.966928 240.8212,200.379343 L239.929828,200.485937 C236.845545,200.852371 233.737094,201.186836 230.638153,201.056535 C230.248302,201.117991 229.855888,200.969473 229.609666,200.705724 C229.995669,206.710993 230.769727,212.802044 230.507348,218.817299 C230.363975,219.885096 230.020291,221.047638 229.260853,221.838883 L229.235763,221.930353 C228.806087,223.449531 227.408275,226.161534 225.798625,224.153723 L225.496263,223.611025 C223.132382,219.351695 220.890979,214.898099 219.748255,210.14177 C219.367895,219.760648 219.060118,229.37466 218.675911,238.990465 L218.66336,239.221271 C218.565361,240.853467 218.245968,242.816772 217.183195,244.073126 C217.277067,244.81956 216.60714,245.254361 216.008772,244.987539 L215.92932,245.024198 C215.355813,245.280569 214.432689,245.517341 214.082348,244.818279 C212.063848,240.104097 209.914543,235.464175 207.944774,230.737189 C208.048905,233.163162 207.931437,235.594256 208.008894,238.022278 C208.047623,240.792916 208.563148,244.05008 207.239453,246.613305 C206.109401,248.858495 203.294273,249.445911 201.783861,247.491869 C200.57353,245.625657 199.887445,243.319011 198.786119,241.340898 C195.682964,256.653668 187.825176,234.144665 186.382474,229.50551 C181.94793,232.094341 177.27255,234.281148 172.43764,236.030081 C173.76749,238.041483 173.445864,240.77576 173.863927,243.087527 C174.240696,246.533924 174.538213,249.983138 174.835731,253.43773 L174.9456,254.098881 C176.756672,264.902829 179.394407,275.946108 185.200357,285.351027 C190.115545,280.545173 196.564486,277.710262 202.871594,275.164706 C210.466232,272.038136 217.999059,268.768168 225.429037,265.272862 C245.513241,255.843474 264.8516,244.788832 282.878063,231.848261 L283.490783,231.420017 C293.508624,224.380877 303.948023,215.150746 304.204401,202.016784 C305.068483,180.485699 287.037404,165.797731 273.534485,151.535858 Z M52.1637613,139.331735 C35.0147181,123.266898 8.75831541,102.495562 -14.9271286,117.75763 C-37.0511205,136.454061 -19.5222299,181.283089 -15.0030468,205.425028 C-9.25660536,230.801974 -3.18315153,256.109526 2.45018209,281.510031 C22.5382332,284.156989 42.9284182,285.543589 63.1157272,283.159098 C62.8874597,265.24956 61.6771291,247.362811 61.2816365,229.446615 C60.9138437,220.215934 61.0415709,210.949148 59.6560642,201.80681 C58.4803585,194.372947 59.9902581,185.392955 55.8442538,178.899368 C54.3097321,176.534851 51.8139222,174.46481 51.2560775,171.614279 C51.2432535,171.480868 51.4174036,171.437337 51.5020421,171.511596 C52.7154505,172.576833 53.6900757,173.846922 54.9773504,174.868627 L55.9240468,175.600666 C57.4636658,176.797621 58.9972664,178.07524 59.9507601,179.777419 C60.0487356,179.051983 58.2110542,172.586563 59.3116112,173.357835 L59.5189871,173.924728 C60.9989825,177.989529 62.3331773,182.101711 62.7130531,186.450509 C64.1657576,201.273423 64.9775178,216.169317 66.2214473,231.013741 C69.221754,232.364235 71.9784044,234.349518 75.2549405,235.067272 C80.6213169,235.597407 85.9951697,235.297565 91.3708861,235.226839 L91.8748648,235.220912 C107.559918,234.987123 123.195984,235.866455 138.869496,235.618327 C154.890283,236.239032 171.26732,232.047993 184.941055,223.628787 C177.449522,189.842364 203.171676,165.745238 215.064668,136.863511 C201.364772,140.314261 187.730791,144.020566 174.068854,147.656453 C175.912691,152.157843 169.949524,164.91379 167.705321,169.434386 C155.698196,193.07341 131.415665,208.522407 109.579701,185.961422 C109.58996,186.03056 109.597398,186.099698 109.605349,186.171397 C108.872072,185.503063 108.06185,184.914879 107.245474,184.350765 C106.148764,193.339975 103.182312,202.400884 97.5838601,209.619395 L96.9731637,210.384498 C95.2268656,212.55903 92.6985795,215.418505 89.9025312,213.775352 C87.8437637,212.663512 87.4564784,210.499495 87.8558183,208.316017 C81.1293656,215.6262 73.8006971,217.277572 78.3968243,204.698055 L78.2447052,204.855477 C75.6717929,207.494051 68.8428505,213.324327 68.1476145,206.431369 C68.4507742,202.999567 70.5677627,199.935989 71.6436976,196.721331 C70.4944094,197.430635 69.2017486,197.781446 67.8860046,197.276996 C64.3570919,195.924965 66.1729725,191.894736 66.9601106,189.357118 C68.9532191,182.9424 70.9868516,176.538179 73.0545958,170.146763 C72.3379898,166.34725 74.6073277,162.566686 72.4798235,159.263942 C71.5693183,159.740225 70.343086,159.640359 69.463615,158.467575 C64.3032311,151.604996 58.3811006,145.246868 52.1637613,139.331735 Z M2.68870878,282.675133 C2.69409486,282.713799 2.69409486,282.747088 2.69640319,282.785242 C2.89414951,282.798301 3.08907455,282.81597 3.28630791,282.833894 C3.08522734,282.785242 2.88671158,282.726858 2.68870878,282.675133 Z M172.096521,258.003393 C168.931297,225.456844 177.144566,240.78421 143.78648,241.15397 C143.936265,241.969029 142.863408,241.875309 143.242486,241.648434 C142.759533,239.849824 140.02058,245.120438 139.638937,245.804135 C138.918484,247.330291 138.589933,249.230303 138.336274,250.8996 C136.548606,260.249864 143.210426,268.441427 152.924617,264.466253 C151.674276,264.362034 150.269277,264.813479 149.231557,264.015576 C149.236687,264.013015 149.239252,264.007894 149.244125,264.002773 C148.314897,262.34039 153.411674,262.268179 154.425284,261.823904 C158.375081,260.999626 162.33488,260.233732 166.261594,259.309076 C168.175193,258.858399 170.134703,258.151912 172.096521,258.003393 Z M204.167076,245.427717 C203.882383,245.261274 204.02832,245.806696 204.123474,245.530144 C204.136298,245.494295 204.153995,245.461006 204.167076,245.427717 Z M240.087144,71.6457085 C225.809911,72.6635724 216.566617,79.7053978 206.434362,88.7355787 C205.677745,89.3885479 204.910612,90.0287139 204.126039,90.6483945 C208.553146,98.400292 213.326244,105.94708 217.939812,113.591942 L218.804435,115.029845 C220.14999,117.272568 221.463897,119.555623 222.26484,122.052631 C224.993534,130.674898 215.463751,145.851441 212.000754,154.317251 C195.429561,183.521366 179.863771,203.796446 194.941222,238.385892 C195.750674,236.203182 193.96275,228.583159 196.636814,228.286634 L196.582919,227.745094 C195.72819,218.952478 195.689746,208.362577 198.357284,200.598433 C196.880983,215.621847 198.481164,231.366857 204.182465,245.392124 C205.674154,232.095621 203.697717,217.242235 204.15656,203.58391 C204.138863,201.484166 207.318962,201.507212 207.408987,203.58391 L207.517433,207.110446 C207.890045,219.06159 208.533789,231.576298 215.49299,241.686588 C216.163173,226.295974 213.352149,210.084155 218.752855,195.32833 C219.194257,194.265655 220.784179,194.347596 220.830345,195.610259 C220.929603,200.633001 223.056851,217.635297 226.726828,220.584157 C227.735052,217.5088 227.632203,214.144088 227.470364,210.922773 C226.970741,199.249475 225.285152,187.858874 223.216125,176.348946 C222.84192,174.074565 223.512103,171.275247 225.870183,170.397964 C227.621944,168.733532 230.04081,167.55281 232.041356,166.605621 C244.754829,160.332763 262.244735,161.54114 270.844263,148.621823 L271.261543,147.992996 C272.264181,146.478102 273.203983,144.98215 273.626818,143.165048 C272.46804,138.842136 270.801944,134.628819 269.387198,130.384775 C268.122468,126.635195 266.824291,122.89806 265.462749,119.182703 L265.006515,117.945071 C258.927931,101.373991 251.189151,85.4676595 240.087144,71.6457085 Z M141.642305,241.207744 C141.316895,241.313275 141.059233,241.638579 140.782375,241.880881 L140.722498,241.931328 L140.891587,241.796876 C141.071026,241.65245 141.232813,241.518061 141.48169,241.328571 L141.642305,241.207744 Z M66.3471227,232.67049 L66.4240668,233.674271 L66.4240668,233.674271 C66.916509,233.774393 67.3989484,233.899609 67.8811314,234.022521 C67.3217479,233.617936 66.8013493,233.16982 66.3471227,232.67049 Z M139.085068,209.995761 C139.028642,209.798846 139.310771,209.683616 139.416184,209.856973 C143.565523,217.146671 151.733908,220.048671 159.598363,221.203787 C160.937191,221.516444 160.773043,223.362682 159.598363,223.751647 C155.202291,225.20636 150.126545,223.247196 146.528127,220.638136 C142.83994,217.967108 140.324124,214.359132 139.085068,209.995761 Z M218.191419,205.834734 C217.412745,211.44566 217.483534,217.168232 217.416592,222.83242 C217.673073,217.168232 217.885951,211.498922 218.191419,205.834734 Z M103.634308,215.716259 C104.450172,215.997932 105.293992,216.182556 106.124731,216.253998 C105.242696,216.674203 104.234472,216.463972 103.634308,215.716259 Z M39.6552164,34.2702598 C27.1825788,48.3713232 16.2634423,63.8070045 2.84823953,77.0592078 C-5.01236913,84.1522465 -12.4492723,93.8466636 -6.31887984,104.522071 C-5.02596258,105.031643 -4.79872102,106.933192 -5.91364095,107.827888 C-5.64741438,107.793575 -3.93643421,106.965712 -4.3208982,107.64352 C-7.75747792,109.10822 -10.7790725,111.23101 -13.3823477,113.799356 C2.83746736,101.885868 24.3443676,111.423828 38.4907958,122.101028 C45.4724464,127.194188 51.9637067,132.807163 58.0422901,138.848025 C60.2174997,139.23699 62.4665755,140.396971 64.2796349,141.303446 C76.7845891,147.301288 78.7438422,155.406302 77.7120219,168.36198 C73.9589454,175.504952 72.1835887,183.673213 69.5687719,191.33139 C66.8793193,197.284678 72.1702517,193.272373 72.928664,190.675604 C74.7699541,188.387336 75.6584224,185.346639 76.7871533,182.686451 L76.8682016,182.4971 C77.188802,181.736327 77.8761693,181.17042 78.7610263,181.423926 C79.4714222,181.627177 80.1302249,182.504474 79.8544831,183.264316 L79.2879312,184.721229 C76.5445906,191.761201 73.7102076,198.83804 71.5257167,206.05239 C78.9072201,201.638062 82.5620646,193.282872 86.4372257,185.905088 C87.5018754,183.943619 90.3667606,185.672067 89.4075242,187.638657 C88.5175375,189.454168 87.6095972,191.264557 86.647796,193.044218 C84.1340324,198.392165 82.3117398,204.034843 80.8026096,209.742307 C89.0994913,204.801506 91.9913069,194.735281 94.3778562,186.240791 C94.5250759,183.817378 98.0247498,184.294174 97.6636255,186.673287 C96.7759471,191.395407 95.4219875,196.047877 93.3034601,200.372838 L92.7433071,203.642995 C92.3704988,205.823353 92.0012241,208.00447 91.6491621,210.187862 C91.8489603,210.090557 92.0646602,210.077754 92.2721528,210.128967 C99.6231351,202.738123 102.565477,192.541304 105.132076,182.740363 C103.911742,178.595161 105.405227,174.356238 105.234668,170.082746 C105.88382,164.611376 104.116414,159.512582 101.668822,154.627348 C100.202011,139.514566 85.6236701,132.959267 75.4596117,124.076068 C63.0108268,111.792564 56.4654491,92.9850002 38.9678492,86.8970221 C37.1486343,87.012508 35.3948219,86.6225189 33.6920491,86.036639 C33.6176698,86.0161537 33.6048458,85.8881205 33.6920491,85.8753172 C35.4240607,85.592876 37.1550463,85.1514175 38.8911616,84.8356877 C39.3589817,83.3120927 41.2294926,83.1259325 42.6360306,83.8070691 C57.7658043,77.1859607 70.3061528,65.5433906 82.3286675,54.4662151 C70.5895635,43.6230843 55.3905401,36.8916113 39.6552164,34.2702598 Z M109.274489,187.974053 C109.52584,188.253165 109.746157,188.555323 109.91056,188.885905 C109.955445,188.970663 109.950315,189.071553 109.964421,189.165017 C109.748721,188.760433 109.520454,188.360713 109.274489,187.974053 Z M61.2793282,142.140783 C65.4589314,146.519262 69.4720788,151.082109 73.2492644,155.855698 C71.8945354,148.966232 67.457426,144.984144 61.2793282,142.140783 Z M201.166256,89.6855849 C192.091213,106.053604 177.881434,120.431731 174.558988,139.411115 C174.292249,141.034576 174.274039,142.678778 174.240696,144.317347 C184.371412,140.193142 195.036633,137.623772 205.487693,134.458535 C209.449031,133.401749 213.29598,131.738598 217.457629,131.526831 C220.887797,125.588908 218.132942,119.776457 215.113399,114.360397 C211.179504,105.7622 204.956779,98.3262888 201.166256,89.6855849 Z M54.9186164,81.7244812 C52.2945663,83.1948143 49.5884425,84.539675 46.7343296,85.4937783 C49.191411,86.7382609 51.437922,88.3105085 53.5182339,90.1004125 C54.5633911,87.4429556 54.9547801,84.5645134 54.9186164,81.7244812 Z M121.63684,-12.6308583 C120.274417,-0.639781849 120.340589,11.7333456 123.529922,23.4363473 C128.28558,41.6746752 145.894236,58.7258793 165.817883,55.1499123 C185.920297,50.955289 195.800944,30.1683324 199.945153,11.8900582 C189.359185,-1.52065019 172.787222,-9.90964085 155.707685,-10.5848879 C144.602088,-11.0381254 132.047376,-7.46343872 121.63684,-12.6308583 Z" id="ðŸ–-Ink" fill="#000000"></path>
                </g>
                <g id="Head" stroke-width="1" transform="translate(86.511840, 45.072000)">
                    <g id="head/No-Hair-1">
                        <path d="M100.821712,56.144816 C98.5522086,46.591186 93.5903877,37.7004337 85.6466712,30.5151462 C61.7423214,6.91594784 17.8437064,19.7251598 18.0425582,55.2874686 C17.1852134,59.4411038 16.8371599,63.7119262 17.1210191,67.947943 C17.2383743,69.7553302 18.0217452,72.2776094 16.9693099,73.9042078 C14.5953749,76.947319 13.2156991,79.1904022 14.0236444,83.2383686 C14.6986876,86.7727646 17.1074781,89.2767646 20.3583172,90.607891 C22.3079681,91.1665334 24.1578169,92.3834774 24.8800027,94.2384406 C29.2196372,102.172114 32.4346177,108.771156 39.2760743,114.178043 C41.0414174,115.570017 59.1476863,123.918853 65.1135248,123.918853 C82.579195,123.918853 104.592263,117.601261 104.957618,98.1201414 C105.02081,93.8413062 104.268783,89.5126414 103.797106,85.2676102 C102.648921,75.5801208 103.054006,65.5418088 100.821712,56.144816 Z" id="ðŸŽ¨-Background" fill="#FFFFFF"></path>
                        <path d="M100.428711,51.3662798 C100.434228,51.248091 100.603741,51.2215486 100.63659,51.338235 C101.285805,53.638159 101.653668,55.9811518 102.161455,58.316883 C102.650435,60.566727 103.112083,62.8230814 103.496245,65.092707 C104.221209,69.3761649 104.832075,73.6707175 105.400242,77.9765618 L105.541435,79.0532582 C106.528924,86.629611 108.15986,94.5224694 106.733794,102.143143 C105.516861,108.645781 101.436762,113.886653 96.1785974,117.729041 C91.1997784,121.367102 85.163258,123.701832 79.1696175,125.029202 C72.7366472,126.454229 65.1115689,126.879408 59.8774772,122.168883 C57.7821354,120.28262 60.6385307,116.540141 62.9116606,118.242361 C68.2493132,122.238444 75.0394598,121.0604 81.0623725,119.470301 L81.2446478,119.421995 C86.5308974,118.015999 91.8522532,115.884845 96.0489551,112.289601 C100.688748,108.314501 102.982942,102.797689 103.247994,96.747023 C103.396703,93.3475478 103.07931,89.9520309 102.736952,86.5725961 L102.698832,86.1971702 C102.305893,82.3324966 101.893645,78.4695758 101.513243,74.6033998 C101.16616,71.0779347 100.866695,67.5319658 100.70843,63.9907374 L100.634576,62.204659 C100.480773,58.6036373 100.273709,54.9499937 100.428711,51.3662798 Z M37.8286184,21.445508 C46.5144071,16.9300448 56.4966196,15.3139632 66.1628758,16.829384 C75.4555012,18.2862112 83.9838133,23.07436 90.3583567,29.9400776 C93.4705261,33.2921824 96.2328868,37.1696264 97.9982298,41.4056432 C98.8751339,43.5100048 99.5617119,45.7052616 99.9273185,47.9598632 C100.115388,49.1189648 100.300197,50.3198832 100.335554,51.4950104 C100.368153,52.5829984 100.048184,53.6033784 100.086049,54.7093952 C100.091816,54.8824216 99.8262626,54.9157248 99.7858904,54.74996 C99.4839766,53.51674 98.7565249,52.5842504 98.3001436,51.4128792 C97.9590278,50.538232 97.5721006,49.6843371 97.1781785,48.8330509 L96.8397234,48.1035928 C95.8572498,45.983456 94.6829457,43.9504584 93.5211794,41.9247224 C91.1818491,37.8447048 88.1802644,34.1367816 84.6656269,31.0080336 C78.4946998,25.5147584 70.5779888,21.968844 62.3152304,21.330324 C53.7390234,20.6672648 45.0401952,22.7085256 37.7160276,27.2302488 C30.3923616,31.7517216 24.8546008,38.7804496 21.9793986,46.8731272 C20.528758,50.9569008 19.7275832,55.211948 19.5412693,59.5383592 C19.4469839,61.7283576 19.5350003,63.9366352 19.6887155,66.1223768 L19.7650683,67.1646823 C19.8545369,68.4146425 19.9158595,69.6597885 19.728837,70.879476 C21.0498352,70.4680688 22.4345261,70.2975464 23.8242322,70.5011216 C25.8892322,70.8036048 27.1229663,71.6489552 28.0492699,73.4913984 C28.0976664,73.587552 28.0006226,73.6837056 27.904582,73.6358792 C26.7036973,73.0374232 24.7608169,73.3524264 23.4889675,73.6661776 C22.1654617,73.9926992 20.9733537,74.5606064 19.8486998,75.3283328 C17.7681527,76.7478504 16.1372165,78.9476144 15.7370052,81.471396 C15.3500841,83.9092904 16.3523676,86.3777336 18.0359633,88.1250248 C18.9025862,89.0249624 19.9384715,89.8029552 21.0982316,90.2877296 C22.5057417,90.87642 23.8989584,90.8581408 25.1442274,91.8299432 C25.9140574,92.4306528 25.7279942,93.4585448 25.2059141,94.1256104 C27.8331157,97.0022056 30.1629171,100.149233 32.7898679,103.037096 C34.0075534,104.375679 35.2155305,105.715844 36.3822745,107.097514 L36.817809,107.617663 C37.9828352,109.021656 39.8364454,110.504775 40.3688066,112.270596 C40.7000592,113.369101 39.5219936,114.805896 38.3311393,114.305346 C36.5044511,113.53729 35.200442,111.539001 33.9660916,110.006348 L33.8856846,109.90707 C32.5912668,108.318783 31.4420386,106.642105 30.3913585,104.885048 L30.045887,104.306212 C28.145981,101.115529 26.2624117,97.8063902 25.0509451,94.3011408 C24.9709529,94.383272 24.8861964,94.4581416 24.7969262,94.5214928 C23.0516439,95.7607224 20.5144648,94.8079504 18.7714393,94.0031648 C17.125959,93.2437016 15.6173931,92.100876 14.4415844,90.7234256 C11.8843446,87.7281408 10.7055267,83.848944 11.5596117,79.961484 C12.2830513,76.6684736 14.5687192,73.4653568 17.5652887,71.799696 C16.1821023,70.209656 15.6093689,68.066232 15.2282152,65.9706344 C14.7417429,63.2956112 14.6446991,60.554232 14.7768491,57.8416488 C15.0403968,52.438768 16.4328613,47.1130104 18.5853761,42.1656072 C22.4365322,33.313216 29.2451393,25.9083872 37.8286184,21.445508 Z M19.5479645,80.5176224 C21.3709821,80.1765776 23.0698741,80.094196 24.8281959,80.8644264 C26.7354685,81.700512 28.0777812,83.0807168 29.3255577,84.6978 C30.7453073,86.5371883 27.1066423,88.5466506 26.189194,86.1047902 L26.1622335,86.0294272 C25.9164897,85.3065224 25.4764078,84.607656 24.9189706,83.9643784 C24.7517144,84.2202872 24.5280374,84.4456472 24.265242,84.5746032 C23.9470289,84.7308528 23.461058,84.62268 23.3845766,84.2167816 C23.29982,83.766312 23.3936039,83.22044 23.6538917,82.8390808 L23.6894995,82.7869976 L23.6894995,82.7869976 C22.4246713,81.770624 20.9033167,81.028188 19.5479645,80.7893064 C19.4125547,80.765268 19.4140593,80.5426624 19.5479645,80.5176224 Z" id="ðŸ–-Ink" fill="#000000"></path>
                    </g>
                    <g id="face/Smile-Teeth-Gap" transform="translate(39.870674, 46.574400)" fill="#000000">
                        <path d="M42.8332164,36.1495355 C44.7267922,37.2988829 47.6120202,39.9789369 45.5749685,42.8283092 C43.1771637,45.3406948 39.7248663,42.4600731 38.023634,41.15728 C36.4461716,40.1476081 34.6738043,42.7444087 36.1373747,43.9233709 C48.4305154,53.011698 53.4193322,36.4500738 43.7909606,34.7981847 C42.7308423,34.6161536 42.3371117,35.7939723 42.8332164,36.1495355 Z M25.7248347,14.2303572 L26.1956023,14.148077 L26.4368949,14.1072355 C27.8471808,13.8743969 29.5189681,13.7186607 30.4930162,14.8240556 C31.03942,15.444046 31.2274892,16.5963868 30.4930162,17.1898348 C29.2011061,18.2340028 27.7727831,17.8293564 26.2245973,17.9177476 C24.9487357,17.9908644 23.7225244,18.2017012 22.4935548,18.5525116 C19.7973945,19.3219908 17.6004953,20.7267348 15.2977758,22.2691988 C14.9956112,22.471522 14.6871777,22.0856556 14.8313641,21.8034548 C16.1606373,19.2035516 18.7366841,17.06789 21.3169937,15.7660604 C22.6941619,15.0712004 24.2012233,14.4947796 25.7248347,14.2303572 Z M38.196883,50.1478334 C42.3173542,50.4465606 51.2468806,48.482423 54.9546025,51.4286294 C68.9286468,68.8532142 13.5284707,73.3331206 19.5115794,54.0555758 C23.3223633,47.8223686 32.0876426,50.3276206 38.196883,50.1478334 Z M37.490495,60.666887 C36.4714106,60.5840046 35.2346675,61.3900422 34.935512,62.012787 C34.6363566,62.6357822 34.7519565,63.952135 34.7609838,64.1802494 C36.5426262,64.3595358 38.3398156,64.3868294 40.1264732,64.2698926 C39.6623183,62.7366934 39.6472728,60.8990078 37.490495,60.666887 Z M45.7168933,63.2389958 C45.4305266,61.3359558 44.0674009,60.8852358 42.9640615,61.1709422 C41.8353954,61.4629086 41.1728903,62.760231 41.2446073,63.9153262 C41.2493718,63.9949534 41.2032321,64.0625614 41.1728903,64.1266638 C42.7070336,63.9456246 44.2268836,63.6476486 45.7168933,63.2389958 Z M33.0801465,61.0114374 C32.4377021,60.0353782 30.9025557,59.5643758 29.9193299,59.7364006 C28.3137203,60.0739398 28.123645,62.1111942 28.123645,62.5263574 C29.6038751,63.0897574 31.1753815,63.463855 32.6779291,63.761831 C32.9795922,63.8214262 33.2820075,63.8747614 33.5849243,63.9250918 L33.604646,63.6777446 C33.6412046,63.1476498 33.6683267,61.9048646 33.0801465,61.0114374 Z M51.2423669,60.8504302 C49.5961344,58.3071174 46.057424,60.1280262 46.3498089,62.9064646 C46.6642607,62.8075566 46.9772078,62.7041414 47.2886505,62.5957182 C48.5820651,62.145499 50.0008593,61.6103942 51.2423669,60.8504302 Z M38.2818903,52.0874318 C36.0671872,51.8883638 34.2504386,51.955471 32.806067,52.2228982 L32.7622541,52.7046944 C32.6024304,54.3751252 32.3962872,56.0174773 33.2747355,56.6895334 C33.9881447,57.2354054 36.3560615,57.1833222 37.9438672,56.788191 C38.3360542,56.6895334 38.8458472,53.224999 38.2818903,52.0874318 Z M41.7065053,51.8883638 C41.3515238,53.5346511 41.1845522,55.5336091 41.8973018,56.1273231 C42.6498559,56.7541939 45.0725504,56.6692453 45.7061232,56.2516494 C46.260601,55.886186 46.2464707,54.2050258 46.0406231,52.3175494 C44.8136596,52.0288382 42.6771933,51.8883638 41.7065053,51.8883638 Z M31.8266025,52.2394246 L31.1014076,52.245935 L30.6909308,52.2514098 C29.6529779,52.2698313 28.5331786,52.3295244 27.4746808,52.560187 C25.3717435,57.0981711 33.0513896,57.88152 31.8652782,52.4072301 L31.8266025,52.2394246 Z M47.01758,52.3488494 L47.0041926,52.6059235 C46.9411573,53.8806643 46.9829376,55.5592675 47.6901465,56.0124623 C48.7307804,56.679323 50.6849038,56.550662 51.7434719,53.4660989 C51.3931616,52.5458789 47.6778284,52.416207 47.01758,52.3488494 Z M26.6365692,25.2904501 C27.0812142,25.2904501 27.5064887,25.4411575 27.8937898,25.7200243 C28.2749747,25.9944873 28.6200549,26.3950605 28.9074685,26.8946687 C29.4513608,27.8401115 29.7913676,29.1455169 29.7913676,30.5889141 C29.7913676,32.0323113 29.4513608,33.3377167 28.9074685,34.2831595 C28.6200549,34.7827677 28.2749747,35.1833409 27.8937898,35.4578038 C27.5064887,35.7366706 27.0812142,35.8873781 26.6365692,35.8873781 C26.1919241,35.8873781 25.7666496,35.7366706 25.3793485,35.4578038 C24.9981636,35.1833409 24.6530834,34.7827677 24.3656698,34.2831595 C23.8217775,33.3377167 23.4817707,32.0323113 23.4817707,30.5889141 C23.4817707,29.1455169 23.8217775,27.8401115 24.3656698,26.8946687 C24.6530834,26.3950605 24.9981636,25.9944873 25.3793485,25.7200243 C25.7666496,25.4411575 26.1919241,25.2904501 26.6365692,25.2904501 Z M54.7818045,25.2904501 C55.2264496,25.2904501 55.651724,25.4411575 56.0390252,25.7200243 C56.42021,25.9944873 56.7652903,26.3950605 57.0527038,26.8946687 C57.5965961,27.8401115 57.9366029,29.1455169 57.9366029,30.5889141 C57.9366029,32.0323113 57.5965961,33.3377167 57.0527038,34.2831595 C56.7652903,34.7827677 56.42021,35.1833409 56.0390252,35.4578038 C55.651724,35.7366706 55.2264496,35.8873781 54.7818045,35.8873781 C54.3371594,35.8873781 53.911885,35.7366706 53.5245838,35.4578038 C53.1433989,35.1833409 52.7983187,34.7827677 52.5109052,34.2831595 C51.9670129,33.3377167 51.6270061,32.0323113 51.6270061,30.5889141 C51.6270061,29.1455169 51.9670129,27.8401115 52.5109052,26.8946687 C52.7983187,26.3950605 53.1433989,25.9944873 53.5245838,25.7200243 C53.911885,25.4411575 54.3371594,25.2904501 54.7818045,25.2904501 Z M50.9524334,13.0657186 L51.3127564,13.1393565 L51.5518038,13.1899713 C55.4384516,14.0247767 60.3659729,15.6704535 62.1853269,19.4387638 C62.2560821,19.9826029 62.1813225,20.0991585 62.1205296,20.1753092 L62.1002888,20.2006496 C62.0501953,20.2656779 62.0102246,20.3553191 61.7741633,20.4293365 C61.7086563,20.4137511 61.6424972,20.3972441 61.5756374,20.3797477 C60.7244823,20.1570104 60.0510539,19.8501586 59.3991039,19.5317631 L58.6922247,19.1840077 C57.8721037,18.7824617 57.0447415,18.39553 56.1679276,18.1098824 C54.2967314,17.5004226 52.3720452,17.0710962 50.4175398,16.8418457 C49.9939158,16.7921997 49.5859924,16.6494314 49.2641702,16.4047497 C48.9586964,16.1724977 48.725334,15.8509394 48.6189338,15.4235184 C48.4810393,14.8703673 48.5206672,14.4515865 48.817882,13.9525632 C49.0413693,13.5778074 49.3611437,13.3180527 49.7283257,13.1688927 C50.1026518,13.0168305 50.5288184,12.9809819 50.9524334,13.0657186 Z" id="ðŸ–-Ink"></path>
                    </g>
                    <g id="facial-hair/*-None" transform="translate(30.843352, 84.635200)"></g>
                    <g id="accessories/*-None" transform="translate(11.785671, 60.346400)"></g>
                </g>
            </g>
        </g>
    </g>
</svg>