<svg xmlns="http://www.w3.org/2000/svg" width="123.019" height="105.046" viewBox="0 0 123.019 105.046">
  <g id="images" transform="translate(-1985.493 -365.847)">
    <g id="a-person_bust" data-name="a-person/bust" transform="translate(1920 324)">
      <g id="head_hat-hip" data-name="head/hat-hip" transform="translate(78.592 38.043)">
        <path id="_-Background" data-name="ðŸŽ¨-Background" d="M88.433,59.853A109.553,109.553,0,0,0,87.552,45.6,21.478,21.478,0,0,0,81.72,33.544c-6.907-7.07-16.919-8.8-26.238-10.38L39.548,20.459c-4.861-.825-10.047-2.145-14.958-.974a15.541,15.541,0,0,0-6.354,3.5,22.241,22.241,0,0,0-4.984,5.225A19.416,19.416,0,0,0,11.2,35.005q-.676,3.938-1.049,7.923a99.3,99.3,0,0,0-.2,15.991c.175,2.582.454,5.158.81,7.721q.265,1.907.6,3.8c.066.373.117.785.185,1.2a12.669,12.669,0,0,0-.765,4.386c.068,4.344,3.733,7.078,7.427,8.547,2.142.851,4.382,1.43,6.487,2.381a14.561,14.561,0,0,1,5.235,4.472,50.944,50.944,0,0,0,9.866,9.345c7.888,5.609,17.88,8.263,27.451,6.249a24.449,24.449,0,0,0,6.678-2.364,14.932,14.932,0,0,0,5.194-4.968,48.591,48.591,0,0,0,5.774-12.42,72.041,72.041,0,0,0,2.965-13.509,102.882,102.882,0,0,0,.578-13.91Z" fill="#fff" fill-rule="evenodd"/>
        <path id="_-Ink" data-name="ðŸ–-Ink" d="M37.587,3.966c6.594-.907,15.694,2.042,18.978,7.988,15.677-3.7,35.45-3.818,48.372,8.49,13.483,14.6-3.452,33.851-14.682,38.192.818,3.975-.457,29.439-9.477,40.8C73.619,109.057,56.949,113.5,49.235,102l-.06-.095c-.826-1.328-.115-1.285.734-.3,7.554,6.645,17.824,6.759,25.738-.254,14.833-12.818,13.3-44.248,6.245-62.431-20.1-2.208-41.616,3.886-55.5,19.02l.939,5.653c.16.963.342,1.925.48,2.892a2.062,2.062,0,0,1-.33,1.736c-1.416,1.655-3.8-.832-5.767-1.821a8.269,8.269,0,0,0-1.73-.073C10.551,67.55,12.41,85.859,22.78,82.65c.871-.543,1.62-.377,1.958.411,2.472,2.265,4.1,6.3,8.208,10.195a33.921,33.921,0,0,0,4.4,3.851c.957.968,3.846,1.956,2.93,3.613-1.732,3.771-11.942-8.074-13.748-11.35C20.869,91.6,14.6,90.844,8.739,90.3c-30.923-1.608-26.8-34.218-1.448-54.805A70.864,70.864,0,0,1,22.8,26.907c.747-.3.421-1.528-.337-1.223a75.655,75.655,0,0,0-10.515,5.208l-.005-1.2a32.719,32.719,0,0,1,.378-5.983,14.5,14.5,0,0,1,.926-3.682C13.808,16.867,22.621,6.026,37.587,3.966ZM19.573,70.537c.477-.454,1.369.087,1.794.074a6.808,6.808,0,0,1,2.925,1.175,7.874,7.874,0,0,1,1.216.835l.008,0-.008,0,.029.02c.453.322,2.113,2.138,1.065,1.649-.078-.1-.158-.2-.239-.3a.2.2,0,0,1-.035.038l.059.087c.891,1.341-.648-.072-.884-.447a.212.212,0,0,1-.036.022l.308.375.105.132.065.063c1.031,1.013,1.063,1.925-.135.427a.484.484,0,0,1,.09.212l.071.09c.94,1.212.175.781-.292.264l-.039-.045.008.012c.435.67-.428.2-.58-.158l-.006-.016a2.064,2.064,0,0,1-.3-.326l-.006-.006a7.784,7.784,0,0,0-2.975-1.848c-.144-.027-.29-.049-.438-.065a13.214,13.214,0,0,0-1.815-.275.339.339,0,0,1-.207-.135c-.925-.031-.639-.41-.256-.481h.007l-.076-.006c-.593-.058-1-.271-.4-.4l.076-.015c-.009-.015-.018-.029-.026-.044-.514-.056-.179-.556.107-.435-.12-.392.428-.2.5-.255a.333.333,0,0,1,.154-.112C19.568,70.531,19.488,70.541,19.573,70.537Zm3.144-6.354-.12.07a1.028,1.028,0,0,1-.3.117q.213.091.421.2c0-.085,0-.17,0-.255Z" fill-rule="evenodd"/>
      </g>
      <g id="face_Smiling" data-name="face/Smiling" transform="translate(112.183 77.354)">
        <path id="_-Ink-2" data-name="ðŸ–-Ink" d="M30.969,50.92a8.6,8.6,0,0,1-3.614-2.781,1.669,1.669,0,0,1-.338-1.3,1.872,1.872,0,0,1,.728-1.172,1.742,1.742,0,0,1,1.305-.353,1.635,1.635,0,0,1,1.1.73l.065.09a5.7,5.7,0,0,0,2.086,1.751,4.7,4.7,0,0,0,2.582.454,6.93,6.93,0,0,0,4.208-2.413c.158-.161.316-.327.474-.5a.746.746,0,0,1,.394-.3.846.846,0,0,1,.543.008.862.862,0,0,1,.427.324.792.792,0,0,1,.135.524,5.429,5.429,0,0,1-1.79,3.431,7.677,7.677,0,0,1-8.309,1.505Zm5.119-20.408c1.6.97,4.026,3.232,2.31,5.637-2.02,2.121-4.929-.311-6.362-1.41-1.329-.852-2.822,1.34-1.589,2.335,10.357,7.671,14.56-6.308,6.448-7.7C36,29.218,35.67,30.212,36.088,30.512Zm-18.56-8.923c.176-2.189,3.509-2.686,3.84-.52a8.869,8.869,0,0,1-.926,5.469,1.629,1.629,0,0,1-3.091-.629A17.647,17.647,0,0,1,17.527,21.589Zm25.366-.969a1.778,1.778,0,0,1,1.939-.789c2.511.734,1.771,4.3.889,6.036a1.747,1.747,0,0,1-2.728.352c-1.141-1.353-1.687-4.056-.237-5.39A1.833,1.833,0,0,1,42.893,20.62ZM20.406,12.011l.4-.069c1.227-.212,2.753-.416,3.621.571a1.434,1.434,0,0,1,0,2c-1.088.881-2.292.54-3.6.614a14.3,14.3,0,0,0-3.143.536A21.362,21.362,0,0,0,11.621,18.8c-.255.171-.514-.155-.393-.393a12.526,12.526,0,0,1,5.464-5.1A13.513,13.513,0,0,1,20.406,12.011Zm20.2-.983.3.062c3.3.691,7.6,2.071,9.16,5.317.06.459,0,.557-.055.622L50,17.05a.428.428,0,0,1-.275.193l-.167-.042a9.484,9.484,0,0,1-1.834-.716l-.6-.294A16.408,16.408,0,0,0,45,15.286a25.041,25.041,0,0,0-4.845-1.07,1.988,1.988,0,0,1-.972-.369,1.46,1.46,0,0,1-.544-.828,1.486,1.486,0,0,1,.168-1.242,1.573,1.573,0,0,1,.767-.661A1.8,1.8,0,0,1,40.6,11.028Z" fill-rule="evenodd"/>
      </g>
      <g id="facial-hair_Moustache-4" data-name="facial-hair/Moustache-4" transform="translate(104.577 109.479)">
        <path id="_-Ink-3" data-name="ðŸ–-Ink" d="M64.493,2.749c-.7-.94-1.959-2.174-3.232-2.108a.181.181,0,0,0-.126.3c.416.509.985.871,1.4,1.39A6.393,6.393,0,0,1,63.62,4.44a6.28,6.28,0,0,1,.13,3.429,6.537,6.537,0,0,1-4.027,4.114,6.38,6.38,0,0,1-5.688-.089c-2.521-1.564-4.66-3.82-7.829-3.864a1.757,1.757,0,0,0-1.575.814,1.813,1.813,0,0,0-1.551-.807c-3.553-.04-6.2,2.407-9.187,3.932-2.015,1.031-4.623.711-6.7.03-1.961-.642-4.09-1.932-4.83-3.969a5.225,5.225,0,0,1,.1-3.547,6.3,6.3,0,0,1,1.228-2.007c.546-.594,1.264-.968,1.823-1.531a.181.181,0,0,0-.126-.3c-2.376-.161-4.521,2.677-4.97,4.736a6.46,6.46,0,0,0,1.55,5.6c2.711,3.146,7.731,4.183,11.639,3.259,3.162-.748,6.166-2.471,9.472-2.224a1.647,1.647,0,0,0,1.559-.706,1.6,1.6,0,0,0,1.568.709c3.081-.3,5.831,1.884,8.822,2.417A10.083,10.083,0,0,0,62.021,13a7.557,7.557,0,0,0,3.733-6.059,6.67,6.67,0,0,0-1.261-4.191" fill-rule="evenodd"/>
      </g>
    </g>
  </g>
</svg>
