<?xml version="1.0" encoding="UTF-8"?>
<svg width="309px" height="652px" viewBox="0 0 309 652" version="1.1" xmlns="http://www.w3.org/2000/svg" xmlns:xlink="http://www.w3.org/1999/xlink">
    <!-- Generator: Sketch 62 (91390) - https://sketch.com -->
    <title>peep-standing-16</title>
    <desc>Created with Sketch.</desc>
    <g id="Introduction" stroke="none" stroke-width="1" fill="none" fill-rule="evenodd">
        <g id="variations-standing" transform="translate(-2062.000000, -69.000000)">
            <g id="a-person/standing" transform="translate(2029.000000, 50.000000)">
                <g id="pose/standing/pointing_finger-1" transform="translate(-28.736217, 150.264357)">
                    <path d="M193.629595,258.627766 C193.367406,268.140759 191.828712,277.62251 190.671189,287.081065 C189.745218,296.429796 187.998246,305.867523 186.595634,315.042998 C186.539349,316.646801 184.33141,317.42669 183.264607,316.234016 C183.292394,295.373928 188.87007,273.969219 186.894395,252.672441 C188.486999,251.783911 190.108339,250.80118 191.655108,249.819158 C193.741452,252.569718 193.972054,255.745607 193.629595,258.627766 M111.220061,135.641225 C108.834243,144.304505 103.779043,151.772035 101.56493,160.44786 L99.227084,160.215432 C98.0766853,141.077255 101.310578,122.274465 105.087372,103.780081 L107.43733,103.918544 C108.266405,114.576874 113.715362,124.672595 111.220061,135.641225 M368.623895,65.1486933 C368.496838,64.7922401 368.367881,64.4289229 368.246999,64.0608719 L366.878348,64.3531825 C369.428034,59.5228389 367.05029,57.9334741 364.165269,53.9400618 L363.85107,54.6655128 L362.741045,52.2394533 C362.520655,51.6233525 362.295515,51.1002704 361.68683,50.8699723 C361.092156,47.8514809 359.322148,45.0871932 356.964828,43.5856399 L356.51336,44.0928639 C355.579077,43.2762877 354.452902,42.9655154 353.380638,42.5872868 C355.682148,39.112933 357.162656,34.6054328 358.71465,30.8801889 C359.978331,26.9677242 361.954005,23.1707635 362.325201,19.203387 C362.026439,15.3905683 358.422775,17.8672792 356.665116,19.7690731 C351.296193,24.4770486 346.672275,31.9334537 343.207304,40.9886912 C337.257008,39.4407469 333.843573,41.0741358 332.190646,49.2036836 C330.669052,54.7263418 329.113734,60.3910132 328.908305,66.1167502 C328.109391,65.8426647 326.692292,64.8118853 325.926626,65.6201773 C312.702029,80.0887227 297.087101,91.2353417 281.985863,103.434516 C270.573785,95.0403498 264.635125,78.433085 258.358755,65.9662162 C247.409544,44.5678981 236.460095,13.2411979 208.296702,13.3514949 C204.564319,12.9623786 200.919094,12.5162203 197.395701,11.4324226 C196.031325,11.0617681 194.344675,10.6153731 193.881571,9.7867259 C193.047033,7.11782377 192.888865,4.22998457 191.421656,1.78238641 C187.395498,-4.76158361 178.672512,-5.27590822 171.837092,-3.85506577 C160.231698,-1.70451196 160.52381,-2.95990899 159.685947,9.24494539 C159.434684,12.1422521 157.188746,12.5571675 154.791053,13.1571734 C152.06895,14.0154068 149.295786,14.7167155 146.497924,15.2816915 C146.788373,15.2000339 147.078585,15.119323 147.369035,15.037192 C101.948237,15.7567257 71.7904088,68.43843 65.8075759,105.709094 C58.8586361,143.839649 67.8464224,186.275571 82.0556506,218.30145 C81.4455403,229.964287 83.7337506,241.680143 85.182436,253.175404 C86.0917829,256.051409 89.2399423,256.331412 90.1400271,253.000018 C90.1400271,253.000018 91.2495776,248.615122 91.2495776,248.615122 L92.4372621,252.979663 C93.190341,255.680281 94.4005869,256.001231 95.4894758,256.019693 C96.8403155,256.019693 97.5808075,255.354124 97.625218,251.84261 L99.8626056,251.304853 C100.724692,252.947236 101.580841,254.399558 102.935481,255.409509 C105.659484,275.209942 107.369408,295.797837 113.98135,314.957317 C116.617958,322.067683 120.666914,328.523368 123.640519,335.499295 C109.620095,367.141028 107.2699,402.20457 103.903488,436.083721 C104.174226,436.104787 105.565676,436.226918 105.862775,436.252244 L105.094972,438.292737 C104.046456,438.736055 103.430171,439.670502 103.112648,440.704832 C102.405405,440.64637 99.4548363,440.668382 99.619179,441.344128 C99.9604512,445.324523 101.076651,448.164314 103.191732,450.236997 C103.220706,450.875347 103.259891,451.526478 103.309289,452.130744 C99.1133265,466.770179 96.0385513,482.376487 94.1702222,498.468953 C91.7950908,500.753946 91.2006548,508.270234 94.7430466,510.275224 C104.522385,517.008072 117.658874,520.205026 130.027321,518.99105 C143.412936,517.724765 159.377211,512.392168 152.97141,497.127402 C152.888526,496.653788 152.238517,496.631065 151.726015,496.734498 C150.591291,495.633659 149.361096,494.801225 148.030443,494.333528 C145.386473,487.731096 143.008492,480.808187 140.93426,473.896403 C139.923742,470.721934 138.878789,467.439298 138.96476,463.958316 C139.464913,455.40983 140.345048,451.876777 146.286321,445.143219 C149.964319,446.911284 156.973581,434.107607 158.579959,431.41977 C161.958958,423.468449 166.265354,416.240212 169.873768,408.440134 C170.431155,407.122252 172.379043,407.094086 173.141147,408.236109 C173.484319,408.71635 173.570053,409.311622 173.376974,409.868314 C170.234514,418.933729 165.955668,427.58991 161.828339,436.046561 C163.234751,440.958799 163.790002,449.162904 167.30722,452.818325 C169.220434,465.545078 156.128831,471.375905 164.564692,485.48989 C161.709595,485.685868 161.443369,486.827182 161.493242,490.293725 C161.483742,492.78298 161.418908,495.395077 161.888424,497.721727 C162.457686,500.580217 165.096431,501.346852 169.057279,502.1897 C172.267186,502.89953 175.357873,503.710425 178.543318,504.476823 C181.764862,505.547367 185.15906,505.459555 186.483539,502.202008 C202.436651,507.607742 248.425761,506.989274 263.636482,499.82589 C267.836957,498.144927 270.799637,497.194858 266.942097,492.461793 C264.818466,478.954204 230.148577,488.612051 225.251308,473.796283 C224.552614,471.872714 223.543047,470.861343 221.578534,470.510807 C221.878008,468.982508 221.478314,467.283793 219.776702,466.843789 C219.264675,466.690888 218.718925,466.651361 218.191698,466.169226 C216.882656,463.473341 214.735752,461.838295 212.234751,460.404435 C213.256193,458.935308 212.43068,458.250804 211.970901,456.607001 C211.504472,453.461171 212.576499,450.44694 212.521639,447.389869 C213.096363,446.425835 213.540231,445.075289 214.460027,444.407117 C215.312377,443.805454 214.7823,443.545097 214.45029,442.881185 C214.703929,442.657041 215.277466,442.146977 215.536567,441.943188 C216.532835,440.848029 215.488594,439.250617 214.211138,439.128012 C214.05392,438.599723 213.867254,437.986462 213.747796,437.462907 C217.280214,426.84718 221.44839,413.063139 222.832241,398.458261 C224.171444,375.098266 222.915362,355.404581 230.034819,331.664464 C239.986813,294.074743 259.320112,258.799602 259.581113,219.022404 C259.248865,212.428256 261.077296,205.407358 259.41962,198.936525 L261.478416,197.865982 C261.774802,198.207287 262.310341,198.197819 262.417211,197.733673 C263.767813,195.542408 262.253818,192.91469 261.943182,190.515376 C262.649951,189.759156 262.297042,189.069445 261.444217,188.656897 C252.298975,156.383915 237.002521,151.669312 241.213208,111.328321 C248.083776,125.880891 263.303047,140.612635 280.079298,138.446696 C296.979043,140.971928 336.401808,99.8167284 344.015718,86.5126915 C345.411206,86.6208583 345.428305,85.6208484 345.640621,84.6785905 C352.594785,85.4961134 359.103895,80.0397281 359.233564,73.3641592 C365.335854,77.1459717 371.857313,71.7449716 368.623895,65.1486933" id="ðŸŽ¨-Background" fill="#FFFFFF"></path>
                    <path d="M319.984427,108.932321 L319.32935,109.515243 C308.616657,119.036521 297.253006,128.540469 283.841154,133.920999 C282.02436,134.582731 280.130857,134.7612 278.264665,135.155347 C262.665649,135.309641 252.072909,123.237772 242.194775,112.828766 C243.022188,95.0160401 242.337981,76.623588 235.295233,59.9778997 L235.126957,59.5495521 C233.403898,55.1955701 231.297555,50.8790095 227.928787,47.551464 C227.845666,47.4708806 227.731671,47.5917557 227.802918,47.6773163 C230.677687,51.1962871 232.351445,55.494684 233.553562,59.8308603 L233.614283,60.0513728 C237.71327,74.7358434 238.426014,90.1443729 237.886814,105.311085 L237.870093,105.770607 C237.501985,116.018921 236.616149,126.321747 237.851094,136.548729 C238.751654,147.104208 243.426158,156.648602 248.51698,165.764718 C252.954707,174.1845 256.271484,183.185192 258.282307,192.487836 C257.635623,195.232886 255.293028,197.245575 252.858049,198.773579 C248.457371,201.489477 243.358473,202.97553 238.378321,204.219832 C218.001018,209.445666 196.776828,211.871464 175.811739,209.341382 C153.444512,206.440379 131.614962,200.437152 109.953554,194.324664 C107.725903,193.642075 105.253639,193.023716 103.125734,191.961674 C102.98324,191.805247 102.814623,191.672521 102.631756,191.563734 C102.263885,186.371555 101.776556,181.225593 101.413435,176.04645 C101.903851,166.014053 104.693639,156.257535 108.967973,147.19759 C116.779237,132.343697 114.199152,123.310534 109.437489,108.176259 C108.343376,104.325083 107.562036,100.295912 107.659406,96.3259945 C108.158134,93.8253017 108.640237,91.3224758 109.084343,88.8125397 C109.269584,88.3314093 109.47145,87.8550191 109.697065,87.3809991 C109.739813,87.2909353 109.618694,87.2200693 109.561696,87.3027858 C109.461951,87.4449918 109.366955,87.5895679 109.271959,87.7365141 C109.60207,85.8214731 109.908431,83.904062 110.176794,81.9819107 C110.212417,81.7283099 109.884682,81.6290027 109.789686,81.8752562 C101.230568,104.87305 96.2618151,129.524226 96.4662935,154.099322 C96.5876506,161.335238 97.0863783,168.568784 97.6183545,175.788109 L97.568868,176.484234 C97.3803156,179.215775 97.2811149,182.000026 98.2382019,184.602512 C98.4419678,189.067781 99.2005089,193.479249 98.9649194,197.958027 C98.4125191,202.046687 97.1775742,204.940106 94.103274,207.767872 C91.0586599,210.856113 87.5739779,213.411792 83.6041052,215.184153 C67.0997795,166.994326 57.4301612,116.936387 81.2971332,69.2855205 C92.3743511,46.08532 111.443087,25.2421841 137.03447,18.6125397 C133.387207,22.6363821 136.230327,28.6555804 138.852546,32.4919969 L139.012757,32.7241167 C151.571433,51.3028587 179.226361,55.729021 199.966548,51.688 C210.013774,49.9665962 219.434504,43.4725214 220.236268,32.612485 C220.858965,25.3386472 216.711688,18.1643537 210.442443,14.5809991 L211.205988,14.6642828 C217.307634,15.341273 223.233318,16.318349 227.916913,20.677134 C245.17883,36.6229316 253.186735,59.3322844 263.383342,79.8917192 L263.789073,80.6399615 C268.156391,88.7254955 272.376576,97.4584711 279.632604,103.322294 L278.276539,104.476532 L278.276539,104.476532 C278.105547,104.623479 278.288414,104.95553 278.504529,104.867599 C279.202748,104.585557 279.896217,104.289294 280.587311,103.988529 C281.562205,104.768766 282.68173,103.979285 282.798338,102.988109 C299.206718,95.1463956 313.074911,82.7083464 325.947786,70.0911176 C329.198066,77.6057575 334.679084,85.8025123 343.45313,87.0302242 C335.1695,93.8160583 327.838202,101.660853 319.984427,108.932321 Z M188.094928,253.017116 C189.15983,252.411792 190.211196,251.783242 191.248787,251.131938 C192.961323,253.867271 192.525768,256.271974 192.341476,259.293141 C191.949856,264.333871 192.037014,269.461582 191.013673,274.422913 C189.239627,287.082093 188.189924,300.310808 185.555216,312.647654 C185.496556,313.337353 185.435284,314.026341 185.381612,314.716277 C185.31084,315.624026 183.885666,315.628766 183.956675,314.716277 C185.691535,294.237189 189.373808,273.638173 188.094928,253.017116 Z M197.753384,499.719194 C211.121425,501.935238 224.767328,500.363861 238.140831,498.939668 L240.10391,498.685489 C246.433902,497.863887 252.801111,497.001 259.018524,495.622476 C259.542426,495.189696 260.349652,494.998191 260.664326,494.358027 L261.048109,494.384809 C261.372282,494.201364 261.702867,494.029531 262.038677,493.867417 C263.015233,493.692977 263.811298,493.480616 264.819915,493.2045 C266.188567,493.668565 266.33106,494.87068 265.402239,495.721309 C265.495098,496.155511 264.974996,496.403898 264.635148,496.595876 C264.580763,496.705138 264.49598,496.809422 264.368923,496.898301 C263.759288,497.282731 263.143478,497.742294 262.445259,497.932376 C260.739256,499.703707 257.075476,500.377065 255.057151,500.736064 L254.85771,500.771519 C238.086209,503.76851 220.928312,504.574108 203.944733,503.220069 C201.016686,502.985212 198.090636,502.686825 195.175727,502.323082 L194.381035,502.222257 C191.863647,501.897316 189.087396,501.771701 187.151858,499.93274 C186.188132,499.017761 184.256673,499.59512 184.310792,501.04934 L184.313859,501.105703 C184.483142,503.494337 178.889203,501.518176 177.781825,501.209349 L177.749652,501.200507 C174.652791,500.361491 171.574928,499.434782 168.468567,498.636058 L167.706664,498.488303 C165.008253,497.953289 164.798415,497.682576 164.768482,494.343807 L164.668108,493.4357 C164.532602,492.22587 164.387046,491.020029 164.191245,489.819088 L164.115386,489.368966 C164.027515,488.864135 163.167803,485.740343 164.599864,486.15511 C164.780356,486.20749 164.956098,486.062676 164.965598,485.887289 C175.028024,492.28656 185.916913,497.640853 197.753384,499.719194 Z M144.605632,507.773032 L145.459659,507.261451 C146.890016,506.397906 148.326695,505.459775 149.34117,504.146541 C151.014758,504.209823 151.703478,502.635366 151.640068,501.231318 C153.045055,505.795894 151.302595,509.448693 147.184529,511.759304 C132.838982,519.363533 114.485089,518.243661 100.204614,511.013196 C98.8343003,510.306432 97.4948601,509.54089 96.195793,508.713725 L95.9034832,508.527825 C95.4166299,508.215872 94.9446197,507.881424 94.6853605,507.346177 C94.0605259,505.516696 94.0690755,503.713524 94.001391,501.674527 C95.0833927,503.131428 96.87905,504.14109 98.3711959,505.144354 C101.218694,507.047544 104.303681,508.557298 107.502663,509.768656 C119.348397,514.163296 133.418456,513.895001 144.605632,507.773032 Z M101.218694,132.972248 C102.36268,123.0548 104.323155,113.274819 106.222595,103.48346 C106.994673,114.006706 112.464292,124.254071 110.031925,134.899139 C107.654419,143.468237 102.559559,151.070097 100.382731,159.714089 C99.959525,150.787107 100.219813,141.85491 101.218694,132.972248 Z M115.316064,219.021108 C114.028872,219.255748 112.706056,219.251008 111.404377,219.158574 C106.1295,218.520306 105.295199,221.710698 105.313249,226.171701 C105.152745,229.055323 104.975915,231.938945 104.825224,234.824076 L104.738287,236.555347 C104.629042,238.861218 104.339067,241.439887 104.629042,243.850279 C103.673384,246.039304 103.156607,248.321473 103.004614,250.714089 C102.565259,250.595584 102.09503,250.652467 101.757795,250.882366 C99.8222561,247.436478 99.3591518,243.22955 98.9601696,239.349459 C98.7654283,237.441528 95.9583036,237.353834 95.9155556,239.349459 C95.860933,242.063223 95.8205598,244.779358 95.7730619,247.493123 L95.6994402,251.68109 L95.6994402,251.68109 L95.6996305,251.74349 C95.7114776,252.339918 95.9813838,253.84619 95.2472864,253.788215 L95.2054623,253.783369 C93.8394232,253.681218 93.7764885,248.825356 93.4810517,247.614235 L92.3413401,239.491665 L92.3413401,239.491665 C92.0852305,237.674378 89.4696184,238.267509 89.2898013,239.852588 L89.2848516,239.904062 C88.9649534,243.616113 88.6405428,247.328638 88.3657676,251.04377 C88.279084,251.686304 88.267447,252.848839 87.5654283,253.129222 C86.9453435,252.572959 86.8277863,251.636532 86.6959796,250.858665 C85.5284818,240.140598 83.3362171,229.559996 81.9844275,218.867052 C82.8607634,218.741674 83.6634775,218.196314 83.9199661,217.357535 C90.9529771,215.921728 98.3336726,211.966268 101.86704,205.539978 C102.572383,206.160944 103.123359,206.973889 103.807328,207.611446 C104.887905,208.623479 106.075352,209.536204 107.210551,210.481637 C110.392434,213.173123 113.586192,215.713871 116.703003,218.487836 C116.247023,218.637152 115.831416,218.928675 115.316064,219.021108 Z M191.835148,-0.386184139 C191.870772,-0.526020055 192.065513,-0.48572835 192.075013,-0.353002735 C192.269754,2.34914859 192.9181,5.20014221 193.906056,7.84991431 C194.259915,7.90679672 194.599525,8.10588514 194.846514,8.4924485 C195.178999,9.01161332 196.769478,9.37363135 197.599252,9.61781234 L197.717761,9.65356062 C201.162545,10.7163136 204.757897,11.1453017 208.330925,11.5242808 C225.135437,12.452649 231.251501,17.7142716 240.731603,31.0084011 C251.984791,45.9850647 258.298931,63.7596317 266.782053,80.2896591 C268.869584,84.3093491 271.123359,88.2342352 273.600373,92.0287657 L273.83657,92.3889699 C276.049177,95.7529485 278.496995,99.1608878 281.876879,101.430954 C290.055726,94.5800135 298.802014,88.4631856 306.892686,81.5061085 L307.649228,80.8513728 C313.719457,75.608711 319.516573,70.053196 325.033452,64.2322297 C325.684173,63.5449006 326.904869,63.364773 327.807328,63.7676901 C328.16,58.5281094 329.640984,53.389021 331.006548,48.3264868 C332.440271,41.8056299 334.930823,37.3981914 342.4438,39.0119927 C345.46798,31.4041807 349.51755,23.979494 355.648645,18.4249348 L356.042177,18.0708439 C357.347438,16.88662 359.060777,15.1885607 360.894351,15.3418013 C362.559152,15.4792671 363.414114,16.9845178 363.480611,18.5153655 C363.556805,20.3313561 362.764267,22.1805025 362.196394,23.8826818 L362.148295,24.0282188 C361.416828,26.2632233 360.628363,28.4795041 359.794775,30.6787201 C358.992061,32.7952197 358.132349,34.8903883 357.232265,36.9665962 C356.314843,38.7034057 355.640136,41.5790483 353.96916,42.6287657 C353.106599,43.1411814 352.218151,42.4521933 352.126243,41.571701 C351.995623,40.4174622 352.660594,39.4032963 353.149822,38.3981367 C353.601052,37.4737976 354.042782,36.5447183 354.472638,35.6108988 C356.200136,31.8514458 357.750229,28.0140164 359.082307,24.0993218 C359.477964,22.781546 361.097642,19.3560401 360.535742,18.171938 C359.97313,18.1764412 358.814894,19.3638614 358.405462,19.7170064 C351.96475,25.0466509 347.778762,32.4110264 342.990025,39.1304977 C345.995216,39.988474 349.257133,40.390917 351.753384,42.4059763 C356.88743,46.8811996 352.764614,55.7427675 345.882646,54.0929407 C347.803461,58.1704613 349.455437,64.7576809 346.051264,68.4415278 C345.027684,69.3990483 343.039898,69.0933054 342.728787,67.5671978 C342.396302,65.9460492 342.795284,64.5569335 343.161018,62.985794 C343.823613,59.7868696 344.225445,56.51068 343.77374,53.2539253 L343.631693,53.1694354 C342.465107,52.4621912 341.73156,51.668155 341.766955,50.2062133 C341.614962,49.1489116 342.743036,47.7244813 343.875861,48.5895679 C344.243969,48.8692397 344.692824,48.8905706 345.079932,49.1726126 C345.736546,49.7964452 346.552295,50.2870432 347.483132,50.2793878 L347.573571,50.2770793 C348.770517,50.2675989 349.653978,49.5470884 350.019712,48.4286381 C351.021917,45.3591212 347.552197,44.3281276 345.296047,43.7382097 L344.713287,43.558579 C338.554886,41.6780471 336.322857,41.647383 334.775267,48.87635 C333.099304,54.2697502 331.62212,59.8221841 328.788159,64.7512817 L329.140746,65.5928272 C331.989824,72.3717866 335.566829,80.1753065 343.227515,82.2544722 C343.498728,79.9900784 345.950806,79.9083099 347.725564,79.9649553 C350.016387,79.8414731 352.315522,78.680361 353.933537,77.0118104 C355.347074,75.5899872 356.058117,73.6085834 357.621747,72.3403428 C356.914029,70.7334148 358.512332,68.9605798 360.181883,69.8849189 C361.307583,70.5058851 361.986802,71.3923026 363.345242,71.5724303 C364.549313,71.7338341 365.658388,71.3140893 366.572723,70.5438067 C368.959491,68.5292215 367.824292,65.5689663 368.408516,62.9310447 C367.63905,64.2606709 366.361357,65.279814 364.993418,65.9837338 C355.859101,71.2024576 355.950772,60.9702607 360.998846,62.6513728 C366.482477,61.4051741 366.389856,59.4256664 364.340322,54.7778997 L364.303797,54.6687327 C363.970513,53.6931009 363.225793,51.9682512 363.917591,50.9172434 C363.955589,50.8648642 364.024461,50.8482735 364.074334,50.8959125 C364.701306,51.5119015 364.948295,52.5452653 365.477659,53.270516 L366.108749,54.0233311 C368.025635,56.330377 370.031376,59.0713127 368.786124,62.1512817 C368.919118,62.1228405 369.063986,62.1797229 369.109109,62.3408897 C369.698083,64.4810902 370.868906,66.5833692 370.626667,68.8728861 C370.120102,73.8903883 364.674707,76.6451559 360.165259,74.5540164 C359.297947,81.0042443 352.929907,85.6467967 346.547617,85.3593036 C346.345751,86.243351 345.69028,87.0209809 344.6762,87.1015643 C335.283494,102.130607 298.361493,140.795238 280.254826,139.179541 C278.523528,139.964044 276.319627,139.570607 274.486209,139.333834 C260.423986,137.501984 248.671824,127.229732 242.116404,115.05429 C239.706599,154.93573 253.324003,154.451756 262.435997,187.491665 C263.347956,188.062859 263.879932,189.309768 263.172214,190.364226 C263.563359,192.363169 264.363936,194.411646 264.055674,196.462731 C263.903681,197.047909 263.59732,197.581181 263.319457,198.116824 C262.747583,199.209914 261.239763,199.078374 260.533707,198.228219 C261.731128,202.554837 261.220526,207.096897 260.91369,211.507891 C260.726073,214.098647 260.740322,216.653378 260.73771,219.246268 C260.380526,258.718155 241.075725,294.307818 231.151518,331.755165 C228.344394,342.252102 226.18799,352.948602 225.340153,363.79181 C224.440068,375.326851 225.06704,386.926122 223.984088,398.44718 C222.728957,411.790607 219.160679,424.759796 214.951654,437.443387 C215.20363,438.471063 215.726582,439.640233 215.403596,440.525703 C209.39084,441.537973 203.587786,443.378356 197.748634,445.087435 C197.519695,445.15285 197.377201,445.294819 197.305242,445.463807 L195.970551,445.906304 L195.970551,445.906304 C195.104665,446.194272 195.475623,447.568219 196.349109,447.277881 L197.808094,446.79375 C202.798338,445.14443 207.846446,443.569043 213.036302,442.82944 L213.195722,442.764457 C214.233341,442.350177 215.454209,442.045908 216.00112,443.187325 C216.278507,443.766104 216.05883,444.348912 215.66246,444.807052 C215.3276,445.194089 214.901544,445.432047 214.608719,445.870516 C214.281221,446.447635 214.003834,447.055092 213.678711,447.640507 C213.681798,450.537954 212.727328,453.40625 213.097574,456.296587 C213.376149,457.495858 214.349618,458.646067 213.731671,459.929951 L214.013021,460.109143 C215.65053,461.159841 217.215384,462.312222 218.291467,463.93542 C218.526582,464.290935 218.704699,465.023296 218.973062,465.274527 C219.253299,465.535238 219.775776,465.566286 220.120136,465.689294 C221.86402,466.219012 222.961221,467.791336 222.810891,469.616788 C226.894521,470.789987 225.488109,474.931974 229.702833,477.814727 C234.02989,480.94563 239.888753,481.289531 244.999525,482.102239 L253.708261,483.488985 L253.708261,483.488985 L254.214668,483.550437 C259.726944,484.229834 266.916103,485.508104 268.02531,491.938629 L268.114169,492.042372 C269.446396,493.630676 270.727257,496.646035 269.08285,498.369896 C267.746022,499.554709 265.920441,500.111209 264.301476,500.801382 C262.056726,502.420871 258.821645,503.175274 256.358643,503.63223 C235.065818,507.569677 213.13106,508.026159 191.69503,504.971336 L191.336567,504.918984 C189.83857,504.695036 188.291631,504.39154 186.923868,503.750735 C185.011128,506.966013 181.327905,506.561437 178.227006,505.649185 C175.79274,505.047417 173.358473,504.454892 170.924207,503.862366 L170.696018,503.802482 C166.936008,502.838745 161.603874,502.545913 160.693164,497.96532 C160.222935,495.607307 160.253808,492.983369 160.277557,490.587198 L160.272173,489.800764 C160.269059,487.781977 160.428147,485.045221 162.716573,484.619285 C159.53754,478.737644 160.230297,471.505758 163.191315,465.675074 L163.348325,465.388894 C165.527238,461.398442 166.888423,458.066688 166.164919,453.352923 C164.713859,451.987745 164.037014,450.027672 163.500288,448.10078 C162.372689,444.044591 161.38782,439.945739 160.554232,435.81821 L161.847445,433.165473 C165.639901,425.381764 169.39067,417.564568 172.223986,409.375475 C172.484512,408.623442 171.261204,408.092066 170.921832,408.827271 C167.33883,416.592904 162.957388,423.971737 159.621612,431.85398 C157.409873,435.975821 154.754504,439.851646 151.777574,443.459887 L151.645874,443.643557 C150.490141,445.225579 149.522232,445.751959 147.624122,446.403789 C147.320136,446.531774 147.011399,446.534144 146.721662,446.451191 C144.910331,448.903059 142.711891,450.845356 141.760509,453.77243 C140.72268,457.009987 140.326073,460.570115 140.121595,463.954618 C140.012587,468.363953 141.851942,472.527508 143.007328,476.715238 C144.773774,482.356314 146.741374,487.936241 148.917727,493.434162 C150.08,493.903916 151.134928,494.625849 152.107922,495.515821 C152.918948,495.437371 153.773435,495.805448 154.076709,496.792357 L154.202596,497.204787 C155.274378,500.755346 156.183635,504.856307 154.79179,508.412959 C150.944936,517.030644 138.582426,519.178902 130.125903,520.211081 C117.603087,521.398501 104.466836,518.410042 94.0417642,511.282913 C92.5693299,510.25192 91.5647498,509.078957 91.3201357,507.25161 L91.2944414,507.023509 C90.9579043,503.967518 90.8797377,500.341143 93.0039355,497.97243 C94.8197795,482.4715 97.7943342,466.976496 102.078405,451.961674 C102.045157,451.537426 102.019033,451.113178 101.997659,450.68656 C99.6063783,448.199613 98.6704326,444.698975 98.4020696,441.336514 C98.3709584,439.924171 99.8020696,439.629331 100.911858,439.456551 L101.320728,439.45284 C104.937076,439.427264 108.669146,439.6046 111.89598,440.952795 L111.737096,440.959179 C111.573796,440.967223 111.403249,440.986332 111.279457,441.0713 C112.896285,441.588693 114.659644,441.81883 116.205225,442.499048 C117.349995,442.555113 118.34816,443.098018 119.507591,443.196061 L119.692044,443.207708 C119.898185,443.225721 120.054928,443.165046 120.167735,443.062658 C123.282409,443.617262 126.379033,444.363843 129.488719,444.820325 C130.385717,444.952102 130.772824,443.582184 129.867515,443.449222 C125.707413,442.83821 121.56631,441.717626 117.377235,441.198574 C116.451026,440.839504 115.555929,440.379231 114.627345,440.008784 C114.573198,439.885776 114.471552,439.775566 114.306497,439.698301 C113.287905,439.220726 112.22989,438.828 111.147888,438.499741 C108.373774,437.640343 105.459779,437.279139 102.570958,437.108492 L102.775687,435.044964 C106.09955,401.321652 108.524822,366.69442 122.314877,335.288985 C119.38497,328.526851 115.400136,322.086815 112.836675,315.131045 C111.772723,312.350917 111.126751,309.516514 110.283664,306.679267 C109.735539,305.320252 109.282646,303.943934 109.062969,302.48656 C105.686819,287.056022 103.778117,271.359796 101.786056,255.707891 C100.445191,254.600817 99.5593554,253.004791 98.7820526,251.536514 L98.7785679,251.759598 C98.7326334,254.176303 98.3910025,256.959469 95.345581,256.888201 C92.8875657,256.828948 91.8115013,254.996861 91.2607634,252.970425 C90.1901612,257.20769 85.433011,257.439486 84.0387108,253.266687 C83.4164885,251.584153 83.4426124,249.664135 83.2573707,247.89841 C82.2634775,238.207781 80.1892451,228.523789 80.785106,218.765138 C80.158134,218.551829 79.6119084,218.073068 79.3456828,217.274345 C67.4709754,181.33604 56.9031722,142.875238 64.6118405,104.952448 C72.3197964,67.7975716 93.1946395,26.2044448 132.643291,15.6688751 C140.629584,13.6526308 148.74246,12.9683829 156.928957,12.4479088 C158.110229,10.1645542 158.873757,7.56716135 159.028363,4.98209298 C159.075861,4.23551139 159.040237,3.49627712 159.037863,2.74945852 C159.035488,2.05975934 159.329975,1.23733455 159.192231,0.592904284 C159.158982,0.436240656 159.372723,0.38409845 159.42972,0.528674567 C159.603087,0.981363719 159.956947,1.20889335 160.196811,1.59047949 C160.793384,2.66911212 160.951315,3.9496773 161.10877,5.1551103 C161.700677,9.8606589 160.354361,14.7021884 157.505154,18.4803127 L157.40631,18.6101696 C156.52285,19.7907165 154.841425,21.9283099 153.103003,20.9044266 C151.588172,20.0100766 152.558311,18.1886748 153.462017,17.2131432 L153.530483,17.1407074 C154.753554,15.8703336 155.779508,14.5122662 156.613096,13.0309535 C152.909211,14.0171522 149.2343,15.1031322 145.54134,16.1310447 L145.366094,16.2272644 C142.474222,17.8008219 138.176941,19.4851916 138.556539,23.3863956 C146.246446,46.5721386 180.267752,52.5300966 201.294351,46.9944904 L201.629565,46.9036613 C205.652615,45.7952231 209.681233,44.0138506 212.418797,40.7669106 L212.532112,40.6307712 C217.392332,34.881619 217.019949,25.3832051 210.934046,20.6626764 C207.319457,17.7047912 202.325055,16.1334148 197.815131,15.1097685 C199.126785,17.2855205 202.027718,18.8220565 202.55542,21.3997776 C202.690789,22.283825 202.201561,23.1252106 201.225479,23.1441714 C198.74609,23.1915734 196.917422,20.5465415 195.61598,18.7689663 C192.900051,15.0502789 191.35922,10.5546727 191.030059,5.975165 C190.866192,3.74727074 191.277048,1.73979581 191.835148,-0.386184139 Z M355.888075,41.4436682 C355.756506,41.3538414 355.829177,41.0867311 356.006819,41.1594932 C362.746768,43.9502862 365.498083,53.9452361 360.424122,59.449557 C358.740322,61.2245251 356.21581,62.2507785 353.916913,61.3195661 C351.091501,60.8419909 349.44095,57.9914713 349.079254,55.3656372 C349.054666,55.2431727 349.192065,55.1874713 349.269694,55.2645302 L349.283494,55.2805506 C350.351009,56.5954822 352.033859,57.4755005 353.567803,58.1483719 C353.997659,57.9158651 354.467888,57.7312343 354.940492,57.6219727 C355.612587,57.4702862 356.301306,57.9964485 356.237184,58.6816445 C359.409819,58.1016146 360.681476,54.3296393 360.777796,51.4679341 L360.780356,51.3814986 C360.908601,47.4212981 359.115556,43.7592562 355.888075,41.4436682 Z" id="ðŸ–-Ink" fill="#000000"></path>
                </g>
                <g id="Head" stroke-width="1" transform="translate(95.945717, 42.661805)">
                    <g id="head/Bun-2">
                        <path d="M94.4024394,57.7727584 C93.8381645,50.4861222 94.7126005,42.848711 91.8974012,35.922804 C86.9889703,24.4313728 73.2250348,20.5998687 62.5543986,16.2249006 C58.2795506,14.9643327 43.8951785,14.7881384 38.8898388,13.1197375 C27.5615136,9.34373234 24.8549014,4.84467701 15.8535335,12.0343263 C14.3340763,13.2625123 13.3834063,14.5973528 12.6899372,16.4211449 L12.718436,16.4289663 C12.5203698,17.1892944 12.7326853,17.9479635 13.1789279,18.5274531 C9.27602714,22.5087475 7.64281255,28.477608 9.64532316,33.7773892 C16.1803189,47.5687657 15.8730076,55.0258122 13.7674266,69.8522115 C11.0177744,83.6935971 17.3010314,88.749732 27.7068668,96.2809626 C27.2831858,97.1007803 27.1953147,98.1903154 27.747715,98.91367 C39.7805903,115.788547 62.4686422,123.845555 81.9078619,115.280487 C89.7984472,111.775583 93.3211501,103.389367 95.3314979,95.8223482 C97.6733808,87.3494768 98.3929737,78.421309 96.4864088,69.7903519 C95.7174182,65.798629 94.7156879,61.8358213 94.4024394,57.7727584 Z" id="ðŸŽ¨-Background" fill="#FFFFFF"></path>
                        <path d="M24.9943342,-22.9574549 C26.4549356,-23.1763357 27.557939,-22.2719714 28.0826405,-20.9972857 L28.1101951,-20.928649 C28.2788126,-20.4949207 28.4664292,-20.0730428 28.6682952,-19.6582753 C32.323257,-21.447701 37.5385242,-20.9879015 39.8516709,-17.3640182 C41.5022222,-14.7758687 40.4952672,-11.7042188 39.873045,-8.95964266 L39.4645632,-7.15125615 C40.2541561,-6.64980219 40.8495925,-5.75180675 40.8216398,-4.82193027 L40.8182528,-4.75034458 L40.6520102,-2.22855789 C41.1792366,-2.76183045 41.6613401,-3.34250501 42.0911959,-3.96110119 C42.3880577,-4.50385415 42.7086684,-5.03712671 43.053028,-5.55380857 C45.0788126,-8.59464722 49.6267345,-5.95198541 47.9548092,-2.69546764 C47.6341985,-2.06739107 47.2732146,-1.4724959 46.8861069,-0.898931632 C46.4491264,-0.0528058341 46.0905174,0.817020966 45.8150297,1.71054877 C46.6058694,2.05421331 47.2138422,2.8173856 47.2779644,3.96925433 C47.4275827,6.65931814 46.0121459,8.9038031 43.7607464,10.3140128 C43.098151,10.7287803 42.4141815,10.8093637 41.7943342,10.6553072 C41.6850891,10.8022534 41.5758439,10.9491996 41.4713486,11.098516 C42.3690585,11.8261367 43.1788974,12.6556718 43.8747413,13.5752707 C45.9693978,13.2624175 48.0759288,13.1154713 50.1824597,13.1107311 C52.7568448,11.8522078 55.8394572,11.8782789 58.6062087,12.3499289 C60.3873791,12.6533017 62.0973028,13.2434567 63.8499746,13.6677046 C65.6976421,14.1132835 67.5738083,14.1298742 69.4428499,14.433247 C71.7987447,14.8148332 73.8649025,15.9003391 75.1639695,17.6328824 C76.5912807,17.6755442 78.0922137,18.2585889 79.3366582,19.0502024 C82.2340288,20.8941404 85.1147752,22.7641495 88.0050212,24.619938 C89.1142451,25.3324 89.5289929,26.4697961 89.3250688,27.7384219 L89.3112129,27.8195734 L89.2138422,28.3457356 L89.4425048,28.6695858 C90.3269987,29.9161262 91.2894046,31.2218049 91.861849,32.5976955 C92.9210517,34.12167 93.878134,35.7191176 94.7259712,37.3663373 C95.8682952,39.5800109 96.8111281,41.9264102 97.4499746,44.3344321 C97.6090925,44.9435479 97.7682103,45.5574038 97.8727057,46.1783701 C98.022324,47.0553072 97.7919593,47.735526 97.6660899,48.5769116 C97.5093469,49.6434567 97.4523494,50.7242224 97.2861069,51.7931376 C97.1744869,52.5017976 96.5712638,52.8502024 95.939542,52.8691632 C96.1770314,54.6728095 96.3480237,56.4883063 96.5118914,58.2895825 C96.7422561,60.8635114 96.8989992,63.4445506 97.0343681,66.0255898 C97.7325869,67.0376226 99.1598982,67.8387165 100.190602,68.1160182 C101.617913,68.4976044 103.114097,68.0828368 104.463036,67.5969663 C105.310874,67.2912233 106.006718,68.3553984 105.593486,69.0664284 C104.294419,71.2990629 101.515793,71.2895825 99.411637,70.3012507 C98.5210517,69.884113 97.7397116,69.2797375 97.1602375,68.4928642 C97.1958609,69.2418159 97.2338592,69.9907675 97.2718575,70.7420893 L97.307248,71.4226117 C97.7350974,79.3700206 98.6587956,87.590803 97.1626124,95.4598651 C94.5716031,109.090312 83.2688974,119.468859 69.461849,120.274815 C62.2165151,120.697745 56.1830008,118.562045 53.1827303,117.370663 C50.1824597,116.179282 51.3485625,113.750126 53.4313621,114.444518 C57.019333,115.640724 63.6106491,117.42286 69.5093469,116.653302 C83.4119763,114.839532 95.20095,107.904843 93.989754,78.037258 C93.8179948,73.8017461 93.2891603,69.5641495 93.1751654,65.3287803 C93.0659203,61.1882151 93.1062935,57.0452799 92.9234266,52.9070848 L92.8624482,51.4951683 C92.7910483,49.8453834 92.7146998,48.1879518 92.5909415,46.5362552 C92.4413232,45.8963282 92.3178287,45.2469207 92.1349618,44.6188441 C91.638609,42.9100018 90.9902629,41.2485615 90.1851739,39.6629644 C90.0070568,39.7980602 89.8075657,39.8952343 89.5914504,39.9331559 C87.9503986,40.2270483 86.4114673,40.1440948 84.8749109,39.4615059 C84.157693,39.1462826 83.5259712,38.7267748 82.9369975,38.2077229 C82.65676,37.9636026 82.4691433,37.7265925 82.3218999,37.4801021 C81.5785581,37.4919526 80.8352163,37.2691632 80.3697371,36.7358906 C79.8388333,36.1280746 79.7505347,35.5002816 79.9584781,34.9191015 L79.9802545,34.8611413 L79.9280068,34.8421805 C79.3010348,36.460959 78.0518405,37.8853892 76.6815267,38.84765 C74.5156234,40.3739945 71.8058694,40.8148332 69.2077354,40.8551249 C66.3388634,40.8977867 63.3132485,40.456948 60.4823749,40.006629 C59.7342833,39.888124 58.9909415,39.7530283 58.261849,39.5705305 C58.2333503,39.5989717 58.2048516,39.6321531 58.1739779,39.6605943 C55.7444614,41.9809225 52.326989,42.5781878 49.2443766,41.2533017 C47.4632061,40.4877593 45.9693978,39.2553072 44.6489567,37.8427274 C44.6299576,38.5821987 44.5919593,39.32167 44.5278372,40.054031 L44.5012834,40.344849 C44.3698064,41.7088455 44.1168222,43.1557022 43.0839016,44.1400839 C41.4143511,45.7351613 38.9919593,45.0952343 37.0659203,44.0571304 C37.0682952,44.1069025 37.0682952,44.1590447 37.0682952,44.2111869 C37.5883969,45.9745415 38.1108736,47.7402662 38.6333503,49.5059909 L38.7458874,49.8821281 C39.1258169,51.1358951 39.5425029,52.3912648 39.6569296,53.7034385 C39.8754198,56.2110046 38.2034945,58.6877593 35.4106192,57.8463737 C33.9456489,57.4066186 32.7720247,56.1773433 31.6459124,55.1927522 L30.9363189,54.5803756 C32.772112,60.569619 34.0450551,66.7721714 34.1637998,73.0221258 C34.1709245,73.3610501 33.8788126,73.617021 33.555827,73.6288715 C32.8006107,73.6596828 31.9883969,73.5103665 31.2284309,73.2093637 C31.1856828,73.2069936 31.1429347,73.2046235 31.0978117,73.1975132 C29.8011196,73.0102753 28.5970483,72.5433655 27.5354707,71.8536664 C27.7800848,72.6286892 27.8893299,73.4605943 27.8252078,74.3304211 C27.8085835,74.5413601 27.4784733,74.6148332 27.4309754,74.3825634 C26.8182528,71.3749061 23.2915352,69.1019799 20.2516709,69.6779143 C16.9885666,70.2965105 14.5851739,73.097969 13.9962002,76.2857539 C13.3644784,79.7105488 14.5732994,83.6709863 16.8128244,86.3136481 C17.8435284,87.5318797 19.1995929,88.5486527 20.809771,88.8046235 C21.5459881,88.9207584 22.310704,88.8804667 23.0255471,88.6718979 C23.3295335,88.5818341 23.6145208,88.4562188 23.9042578,88.3377138 C24.326989,88.1670665 24.8209669,88.1409954 25.2199491,87.9608678 C26.1247837,87.5555807 27.0343681,88.3874859 26.5760136,89.3141951 C26.1770314,90.1223993 25.8184224,90.6675223 25.155827,91.08466 C25.692553,91.7388077 26.1794063,92.6489262 26.3598982,92.8930465 C27.2813571,94.134979 28.2170653,95.3081787 29.2667684,96.4434567 C30.3354707,97.5953254 31.5015437,98.64765 32.7341137,99.6217612 L33.2521977,100.030307 C34.439436,100.970015 35.473257,101.840768 36.310704,103.188762 C36.9709245,104.252937 36.1159627,105.696328 34.8786429,105.679737 C31.0075657,105.625225 28.1933164,102.231242 26.1889059,99.2662461 C25.9039186,98.8419982 25.6355556,98.3940492 25.3861917,97.9342498 C25.2959457,98.0788259 25.1962002,98.2139216 25.0845802,98.3371668 L25.3054453,98.9296919 C25.960916,100.674086 23.1371671,101.814104 22.3178287,100.185845 C21.7217303,99.0055351 21.0306361,97.8821076 20.2611705,96.8203026 C19.8075657,96.7563099 19.3634606,96.4813783 19.1164716,96.1258633 C18.4918745,95.2228551 17.7912807,94.3103665 17.1999321,93.3481057 C16.8721968,93.0376226 16.5349618,92.73899 16.1906022,92.4474676 C16.0908567,92.5351613 15.9887362,92.6228551 15.8913656,92.715289 C15.4591349,93.6988806 14.9247837,94.5971486 14.2621883,95.4432744 L14.1201276,95.623786 C12.8507696,97.2203286 11.197366,98.8543658 9.15141645,99.2449152 C8.52681934,99.3634202 7.92597116,98.5883974 8.47932146,98.0930465 C9.91138253,96.8084521 11.6046819,95.9338851 12.925123,94.4999745 C13.5756743,93.7935153 14.1729844,93.0155299 14.6866296,92.2001757 L14.8036641,92.0113692 C14.8891603,91.8715333 14.9770314,91.7316974 15.0672774,91.5894913 C14.471179,91.1842042 13.8750806,90.7765469 13.2789822,90.3688897 C11.6380071,91.7680134 9.50104731,92.4080145 7.6860148,93.5669856 L7.50561493,93.68466 C5.86456319,94.7796463 4.13564037,92.3574038 5.45133164,91.0277776 C6.90167939,89.5675588 8.11240034,87.8262461 9.39721798,86.2032015 C8.79304495,85.0925725 8.50710772,83.7792999 8.4,82.4520438 C8.35772689,82.0763829 8.32471586,81.700485 8.29170483,81.3245871 C7.37024597,81.3388077 6.44403732,81.0235843 5.66032231,80.4808314 L5.36346056,80.2698924 C4.41112807,80.5732653 3.41129771,80.7202115 2.45421544,80.6941404 C0.202815946,80.6277776 -0.718642918,78.060959 0.689669211,76.4374403 C2.12648007,74.7783701 4.64149279,74.4157448 6.63402884,75.2215789 C6.69815098,75.1883974 6.76464801,75.1528459 6.82877014,75.1172944 C6.73377439,74.681196 6.75491094,74.2856263 6.86296862,73.9381696 L6.83162002,73.7262826 C6.39345208,73.0553072 6.10537744,72.2892908 5.99613232,71.4799015 C5.90968617,70.8387894 5.92726039,70.2033655 6.07592875,69.5703118 C6.12532655,69.3596098 6.22815946,69.1413236 6.30676845,68.9216153 C6.14480068,68.513484 6.04956743,68.0916062 6.02011874,67.6673582 C5.97475827,67.613557 5.92963528,67.5583336 5.88688719,67.4986071 C4.89821883,66.1132835 5.09794741,64.4440219 6.03888041,63.3229644 C6.04315522,63.2516244 6.04980492,63.1802844 6.05954198,63.1094184 C6.00444444,62.9856992 5.9538592,62.8607949 5.90778626,62.7344686 C4.9884648,61.8089444 4.31351993,60.6952343 4.43938931,59.3151249 C4.51324852,58.5031285 4.84763359,57.7721896 5.35372349,57.2258815 C5.2639525,56.9609043 5.25540288,56.6539763 5.36417303,56.3977685 C4.55647159,54.2537758 4.65859203,51.6715515 5.23996607,49.2737211 C5.1117218,48.9087256 5.04522477,48.5129189 5.05947413,48.0934111 C5.12597116,46.3134658 6.66965225,44.6780966 8.49832061,44.6994275 C8.71847328,44.7013236 8.92461408,44.7300018 9.12268024,44.7719526 L9.12529262,44.7295278 C9.19535199,44.1953072 9.34259542,43.7016153 9.55752332,43.2586436 C9.45184054,43.220485 9.35399491,43.1657356 9.26826124,43.0929736 C8.09648855,43.716784 6.8565564,44.1936481 5.55653944,44.5185889 C4.60064461,44.757495 3.62147583,43.6731741 4.2156743,42.7777502 C4.49139949,42.3622716 4.79562341,41.9892179 5.12335878,41.6483974 C4.65740458,41.6510046 4.1843257,41.6825269 3.70578456,41.7439125 C2.84607294,41.8553072 1.88661578,41.2698924 1.32851569,40.4782789 C0.63504665,41.1513874 -0.0607972858,41.8221258 -0.756641221,42.4928642 C-2.51881255,44.1969663 -5.1810687,42.9431832 -5.4589313,40.6963282 C-5.98378287,40.5564923 -6.47301103,40.3194822 -6.90286684,39.9805579 C-9.68149279,41.1845688 -12.6714843,41.8458268 -15.7279729,41.9714421 C-17.9223749,42.0615059 -19.2048176,39.511278 -18.1788634,37.7100018 C-17.4901442,36.5012507 -16.6351824,35.4157448 -15.6496014,34.4724448 C-17.1790331,34.9393546 -18.7583376,35.2759088 -20.3708906,35.491588 C-21.2424767,35.6077229 -22.4750466,34.8872124 -22.8241561,34.0884886 C-24.1588465,31.0168387 -24.0448516,27.8148332 -22.5082952,24.8261367 C-22.4489228,24.7076317 -22.3824258,24.5938669 -22.3183036,24.4801021 C-22.1591858,24.0842954 -21.9858185,23.6932288 -21.7982019,23.3092726 C-23.6886175,21.3420893 -23.8524852,18.4173856 -22.8336556,15.969072 C-23.2421374,15.307814 -23.3988804,14.5114603 -23.1210178,13.7909499 C-22.3301781,11.7171121 -21.190229,9.8020711 -19.7510433,8.15722151 C-19.8887871,7.89177028 -20.0099067,7.60972835 -20.1120271,7.30635552 C-20.921866,4.85330173 -19.9837829,1.89304649 -18.0909924,0.184204193 C-16.9011705,-0.891821331 -15.5332316,-1.53648861 -14.0726718,-1.94888605 C-13.4575742,-3.03439198 -12.6667345,-4.01324339 -11.7452757,-4.83803829 C-11.7096522,-4.9162516 -11.6740288,-4.9944649 -11.6336556,-5.07267821 C-10.1992197,-7.76985232 -7.5868363,-9.21561349 -4.7868363,-9.54979763 C-4.67759118,-10.6044923 -3.96512299,-11.6117849 -2.92966921,-11.9388587 C-2.64468193,-12.8513473 -2.21957591,-13.7235442 -1.63535199,-14.5151577 C-0.716268024,-15.7618304 0.810788804,-16.3496153 2.24997455,-15.5319307 C3.03843936,-15.0839818 3.79365564,-14.56967 4.50137405,-14.0008459 C4.81924447,-14.1496153 5.17961004,-14.2458778 5.58620659,-14.2765845 L5.68882103,-14.2828879 L8.0304665,-14.4013929 C9.01129771,-14.8351212 9.98975403,-15.2901805 10.9705852,-15.7333892 C11.5595589,-16.2192598 12.2174046,-16.6245469 12.9346226,-16.9255497 C13.7468363,-17.264474 14.5780492,-17.4564521 15.411637,-17.5204448 C16.0884818,-17.7408642 16.7700763,-17.9352124 17.4635454,-18.0868988 C19.0927226,-18.4424139 20.7978965,-18.6415023 22.488821,-18.6249116 C22.5234266,-19.0616872 22.540584,-19.5036867 22.5373021,-19.9509101 L22.533944,-20.1749572 C22.4959457,-21.6088678 23.6430195,-22.7536263 24.9943342,-22.9574549 Z M23.3532824,91.7672489 C23.1205428,91.817021 22.8854283,91.8573127 22.6503138,91.8857539 C22.7215606,92.0611413 22.7928075,92.2365287 22.8616794,92.4119161 C23.0516709,92.5185706 23.2440373,92.620485 23.4364037,92.715289 C23.3794063,92.3929553 23.3461578,92.0682516 23.3532824,91.7672489 Z M11.1517897,88.1488168 L10.9939032,88.4389522 C10.9683159,88.4864244 10.9431156,88.533326 10.9183376,88.579464 C11.2531976,88.5533929 11.5904326,88.5605032 11.9229177,88.5984248 L11.9219678,88.5631103 C11.8792197,88.5486527 11.8364716,88.5353801 11.7956234,88.5154713 C11.5662087,88.4054986 11.3529432,88.2822534 11.1517897,88.1488168 Z M17.7461578,74.9111194 C19.8472792,75.0332454 21.627396,75.3547543 23.5382717,76.272047 L23.7023919,76.3521404 C25.3909415,77.1887858 28.1838168,78.7340912 27.9487023,80.9501349 C27.8822053,81.5805816 27.4238507,82.2442097 26.701883,82.1944376 C24.7235963,82.0593418 23.5931467,80.0684576 22.2537065,78.8265251 C20.9023919,77.5751121 19.242341,76.2881477 17.606039,75.4278013 C17.3747413,75.3066722 17.4658536,74.9232873 17.71754,74.9109331 L17.7461578,74.9111194 Z M8.21808312,45.7138304 C7.7146056,45.7304211 7.88322307,46.2186618 8.14208651,45.8110046 C8.16346056,45.7778232 8.18958439,45.7446418 8.21808312,45.7138304 Z M35.3954198,13.1197375 C30.6271077,13.2448788 25.8281595,16.0546326 22.2560814,18.8947238 C19.1485327,21.3655533 16.4651399,24.3044777 14.0890585,27.4721167 C13.4777608,29.0496554 12.9529092,30.6601386 12.5095165,32.2824722 C12.2174046,33.3537575 12.0345377,34.4368933 11.7899237,35.5176591 L11.7139271,35.8489991 C11.5217981,36.2073582 11.379067,36.5929736 11.2750466,36.9913874 C11.7079898,37.4246418 12.2696522,37.7348879 12.8880746,37.8820711 C13.0873282,37.9294731 13.2528584,38.0320985 13.383715,38.1681422 C13.8814928,37.3390811 14.3165734,36.4640401 14.5697371,35.5363829 L14.5789992,35.493484 C15.5358439,33.9294549 16.5750975,32.4140128 17.6891603,30.9504758 C20.7622731,26.9094549 24.146497,23.2263191 28.2146904,20.1617794 C31.2996777,17.8390811 34.7480237,16.0188441 38.4148601,14.8361641 C37.5173876,14.1135205 36.4980831,13.5418523 35.3954198,13.1197375 Z" id="ðŸ–-Ink" fill="#000000"></path>
                    </g>
                    <g id="face/Calm" transform="translate(37.760814, 44.083865)" fill="#000000">
                        <path d="M40.6206019,56.9200604 C38.8711069,57.4257523 36.9932315,57.4709672 35.2099183,56.9487182 C33.592424,56.4749826 31.9316198,55.4324748 30.7411799,54.052985 C29.6836581,52.8275215 28.9987603,51.3382802 29.025661,49.7486221 C29.028721,49.5670701 29.093769,49.4155294 29.1938327,49.297904 C29.3015554,49.1712753 29.4520119,49.0843227 29.6131899,49.0465818 C29.7789502,49.007768 29.9541846,49.0215285 30.1033991,49.0891705 C30.2384789,49.150405 30.3542095,49.2544132 30.4265758,49.406429 C30.6095252,49.646274 30.791764,49.8825669 30.9747181,50.1123062 C32.4457189,51.9250304 33.8702684,53.2797182 36.0822204,53.7656068 C37.2823604,54.0292888 38.4809908,53.9123627 39.5807769,53.5100604 C40.7580451,53.0794151 41.8222591,52.3222388 42.656205,51.3532989 C43.0330798,50.9154075 43.4780235,50.7366756 43.913102,50.7336715 C44.4061407,50.7302672 44.893466,50.9589045 45.2605964,51.3243358 C45.6214711,51.6835402 45.8631056,52.1716647 45.8850058,52.6822795 C45.9042268,53.130427 45.7577361,53.598549 45.368016,54.0161866 C44.0843341,55.391909 42.4206727,56.3997494 40.6206019,56.9200604 Z M40.5665861,34.2164632 C42.3599585,35.3043501 45.0925072,37.84109 43.1632513,40.538094 C40.8923326,42.9161315 37.6227224,40.1895491 36.0115152,38.956422 C34.5175283,38.0007416 32.8389503,40.45868 34.2250722,41.574598 C45.8676895,50.1769329 50.5925102,34.5009305 41.4736488,32.937375 C40.4696294,32.7650779 40.0967341,33.8799135 40.5665861,34.2164632 Z M23.7904904,29.4295554 C23.2140887,29.0616779 22.5360544,28.9354036 21.7845956,29.2765915 C21.1973605,29.5430951 20.1674164,30.4315401 19.4506436,31.5994552 C18.960275,32.3984655 18.6125478,33.3358092 18.6849399,34.3121662 C18.7017521,34.538914 18.6177974,34.7061021 18.4853746,34.8297194 C18.3807902,34.9273496 18.2297212,34.9990987 18.0522815,35.021528 C17.901636,35.0405704 17.7330166,35.0233917 17.5959114,34.9806862 C17.3351013,34.899449 17.1970682,34.7306112 17.14506,34.5927708 C16.6431951,33.2626489 16.8594038,31.7783147 17.4218677,30.4391845 C18.1809468,28.6319474 19.5594554,27.1181611 20.4626124,26.6300974 C22.0081028,25.7946248 23.8313474,25.7561725 25.3790501,26.6073095 C26.6965316,27.3317244 27.5203231,28.5012649 28.3396421,29.6934221 C28.5138106,29.9468475 28.6866748,30.1984148 28.8653336,30.445557 C29.223384,30.9407763 29.2590229,31.4319284 29.1203638,31.8530948 C28.9667545,32.3196708 28.5750831,32.7134302 28.085306,32.9194976 C27.6326201,33.1099594 27.1072195,33.1367702 26.6423013,32.9410746 C26.2495562,32.7757584 25.889123,32.453494 25.6610581,31.9066931 C25.2769514,30.9858138 24.636993,29.9698198 23.7904904,29.4295554 L23.7904904,29.4295554 Z M53.064815,31.4783372 C52.6700574,31.6836115 52.3612219,31.7455028 51.9233189,31.6145683 C51.6811594,31.5419786 51.441824,31.4028565 51.2544451,31.2158558 C51.0687422,31.0305278 50.9347578,30.8000579 50.882678,30.5443835 C50.7545889,29.9133856 50.4086475,29.3227307 49.9156664,28.9376816 C49.4943067,28.6085732 48.9624553,28.4341379 48.3725317,28.5325475 C47.7359591,28.6385984 47.1294691,29.046037 46.7117586,29.5263979 C46.5721476,29.6871354 46.462712,29.8696877 46.3526918,30.0510077 C46.1468816,30.3900963 45.9468419,30.7052875 45.6629993,30.9543096 C45.5554039,31.0490551 45.393274,31.1146763 45.2362444,31.1146763 C45.1724235,31.1146763 45.1076543,31.1043123 45.0459353,31.0851156 C44.412341,30.4504747 44.2904956,29.9690345 44.3109227,29.4915098 C44.3323435,28.9907546 44.5301667,28.4837449 44.8498503,28.0106899 C45.5997493,26.9010192 47.0235564,25.9911926 47.9843525,25.7851126 C49.3001563,25.5029208 50.6069067,25.8416733 51.6545989,26.575097 C52.7326127,27.3297469 53.5314183,28.5014121 53.7804622,29.8218209 C53.8403738,30.1398302 53.8149148,30.4830853 53.6935596,30.7807022 C53.5749771,31.071519 53.3683278,31.320598 53.064815,31.4783372 Z M26.6924446,17.5986223 C25.9028034,18.3664153 24.9681939,18.4853439 24.0226832,18.5911231 C23.4973339,18.6504499 23.077948,18.6982757 22.6652541,18.791208 C21.530923,19.0467446 20.4096749,19.4316102 19.3867197,19.9858906 C18.3173848,20.5653256 17.1520527,21.2641228 16.3136834,22.1593358 C16.1143287,22.3723643 15.9264052,22.5958926 15.7382192,22.8199103 C15.5666198,23.0241865 15.401316,23.2208443 15.2271021,23.4104621 C15.0270296,23.6282626 14.837039,23.8565324 14.6480583,24.0842058 C14.5312018,24.2763159 14.5081182,24.3235653 14.4845858,24.372752 C14.4491738,24.4466621 14.407982,24.5293761 14.3609351,24.6181117 C14.2965029,24.739638 14.221032,24.872669 14.1419901,24.9932813 C14.0104822,25.2137395 13.9399176,25.2744647 13.8789422,25.3016264 C13.7777632,25.3465969 13.6818091,25.3687502 13.5887182,25.3567537 C13.5014325,25.3455053 13.4191999,25.3036676 13.337994,25.2351781 C12.9325864,24.8933425 12.8130216,24.3323472 12.8252763,23.7368492 C12.8438727,22.833187 13.1778519,21.8326683 13.4857301,21.2176248 C14.2016082,19.7885258 15.1944344,18.3028853 16.3882491,17.2362786 C17.7504996,16.0187665 19.2408469,15.0970474 20.9526639,14.4619202 C22.016458,14.0670852 23.2481446,13.7046655 24.4071075,13.7504442 C25.2413281,13.7833957 26.0377106,14.0308741 26.6953966,14.6488919 C27.0992543,15.0282755 27.2931169,15.5679098 27.2931169,16.1071619 C27.2931169,16.6571554 27.0917688,17.2103968 26.6924446,17.5986223 Z M54.6707678,24.6295088 C54.6205511,24.7116459 54.551046,24.7682494 54.4737075,24.802245 C54.3926334,24.8378826 54.3021239,24.8481473 54.215267,24.8335417 C54.1287946,24.8190007 54.0465972,24.7798814 53.9813953,24.7200968 C53.9189004,24.6627944 53.8713118,24.5867983 53.850033,24.4936966 C53.3257732,22.19576 52.3077914,20.4860609 50.1350353,19.3835453 C49.0662243,18.8411802 47.8371928,18.4965821 46.6737158,18.2218368 C46.3356154,18.1419889 45.9783613,18.0902531 45.6185845,18.0378278 C44.491018,17.8735231 43.3553156,17.6853553 42.6202379,16.7757659 C42.177317,16.2278619 41.9914291,15.5271519 42.0965294,14.8863226 C42.1954871,14.2829467 42.548783,13.7296937 43.1910166,13.398147 C44.7899106,12.5731265 46.7768483,13.3826875 48.3914734,14.0723224 C48.5112453,14.123479 48.6288179,14.1736975 48.7438567,14.2221526 C50.3228344,14.8873042 51.7629455,15.7652894 52.9467431,17.0209076 C53.8860308,18.0170339 54.7562938,19.4896248 55.1067903,21.0045136 C55.3983907,22.2648463 55.3298259,23.5514729 54.6707678,24.6295088 Z" id="ðŸ–-Ink"></path>
                    </g>
                    <g id="facial-hair/*-None" transform="translate(29.211196, 80.109389)"></g>
                    <g id="accessories/*-None" transform="translate(11.162002, 57.119417)"></g>
                </g>
            </g>
        </g>
    </g>
</svg>