<?xml version="1.0" encoding="UTF-8"?>
<svg width="213px" height="701px" viewBox="0 0 213 701" version="1.1" xmlns="http://www.w3.org/2000/svg" xmlns:xlink="http://www.w3.org/1999/xlink">
    <!-- Generator: Sketch 62 (91390) - https://sketch.com -->
    <title>peep-standing-30</title>
    <desc>Created with Sketch.</desc>
    <g id="Introduction" stroke="none" stroke-width="1" fill="none" fill-rule="evenodd">
        <g id="variations-standing" transform="translate(-3484.000000, -1704.000000)">
            <g id="a-person/standing" transform="translate(3437.000000, 1658.000000)">
                <g id="pose/standing/shirt-3" transform="translate(-28.736217, 150.264357)">
                    <path d="M124.965211,240.579991 C124.743396,241.677821 124.409011,242.86619 124.060852,243.931787 C125.795474,245.597967 128.25064,247.831076 130.012336,249.44464 C128.269639,238.70216 133.571827,228.78732 136.81712,218.626226 C135.593099,217.05959 131.330165,215.456454 131.467433,213.719644 C131.796356,207.285533 132.281785,200.104366 132.981666,192.049581 C135.351098,166.894758 137.708655,140.662252 132.116254,115.431112 C131.734134,112.688669 131.154422,109.804731 127.468587,109.740975 C116.58231,152.980374 125.403617,196.515324 125.163515,240.027521 L125.480326,240.310747 L124.965211,240.579991 Z M108.663226,594.857131 C99.7181883,594.857131 91.4953554,593.237402 83.5347108,589.952206 C81.2374758,589.145661 78.3838032,588.14382 77.985771,586.520775 C77.3312502,582.079444 77.78438,577.713482 78.2638711,573.092498 C79.0221747,565.165697 78.9466531,559.003437 81.0902324,550.467758 C83.38438,542.54072 85.3396302,536.345515 83.1008176,528.148523 C82.9212757,525.708505 84.8335403,523.226062 86.0967464,520.943892 C87.8850416,517.612479 88.7924885,514.145023 90.2129126,510.728997 C87.4224122,510.242179 84.5248041,509.574995 81.8456862,508.747356 L81.3958813,510.363528 C81.2970857,510.718806 81.0246853,510.898933 80.5867549,510.898933 C80.3157795,510.898933 79.6225479,510.768815 79.5213774,510.19051 C79.9417337,503.949088 80.5506565,497.738715 81.1902154,491.397274 C87.830894,430.31268 97.8864326,379.957293 114.772879,329.736527 C118.828723,317.974667 122.971725,305.730966 123.001174,292.95186 C120.695389,292.458405 118.127416,292.175178 115.777221,292.499644 C99.0320814,288.627138 102.342209,253.276855 103.008366,242.697201 C101.827332,242.343108 100.505703,241.842306 99.5258219,241.171331 L99.1294521,241.364731 C82.5018694,200.181395 89.3301645,132.091021 93.1335573,86.3158523 C95.6290958,69.8619052 92.1190025,40.1398997 106.737662,32.0090337 C118.540885,27.8376572 130.291861,25.4931541 142.625873,22.7421787 C144.910046,21.4336463 147.729045,20.6868277 150.277781,19.8399909 L148.96114,17.9927347 C147.234355,15.564567 147.464007,10.8020875 149.722768,9.12855971 C151.110894,9.20535096 153.061394,10.5968368 154.38801,11.2502735 C156.296237,7.31258888 158.062684,3.19382862 159.330402,-1.53760255 L159.786144,-1.37477666 C161.120122,-14.7577849 178.508383,-17.0935187 188.312421,-12.6213765 C199.01488,-6.75822242 193.440767,6.50533273 198.306687,16.0800638 L200.070283,13.7339015 C202.793812,13.6836554 208.554592,17.2468642 209.941768,18.5843118 C210.934948,19.0462443 210.216543,22.1555789 210.361174,23.4062808 C224.718595,26.650474 244.371081,27.5411577 248.934914,43.6232361 C256.52745,73.8640565 255.459936,104.86639 264.074863,134.999845 C273.093523,159.425861 286.339494,189.314248 286.450877,211.683965 C286.708078,215.876436 287.27354,239.588104 283.796221,238.63485 L281.501123,240.9201 C284.627908,245.900392 282.145432,253.354357 280.947773,259.251404 C277.996729,271.763874 272.230012,285.24619 259.912624,279.249836 C246.664753,352.251294 213.368265,425.893628 224.72667,501.189818 C224.862751,501.630182 224.587026,502.113209 224.114185,501.920757 L223.554897,501.663364 C222.110249,502.108943 220.277069,502.264421 218.768299,502.60216 C220.052166,507.403273 220.740648,512.142999 221.407043,517.45392 C222.21522,517.934813 221.838087,519.207083 221.879172,519.97618 C233.932234,519.400009 240.692132,531.995196 249.336034,538.922288 C255.043379,544.003546 261.543226,548.841632 268.656271,553.302871 C274.534134,556.635706 279.493625,560.451568 278.600665,566.747028 C278.685449,566.736363 280.499155,566.456454 280.587976,566.44887 C283.322192,575.528013 274.34438,577.405369 265.098443,578.499644 C242.504176,580.766882 223.189876,575.756253 197.031131,566.263054 C193.822887,566.642507 191.322599,561.882397 190.89583,558.654795 C190.473337,556.491841 191.674321,554.292151 190.757612,551.964239 C187.603277,545.275342 185.961276,527.568797 190.408502,519.625169 C191.96952,517.82484 193.971556,516.162926 193.71198,513.055251 C193.639308,509.942361 193.345771,506.831841 193.609859,503.773938 C188.264448,503.258204 182.972947,502.108706 178.309605,500.244385 C177.484092,500.561741 176.546483,500.171386 176.488774,499.139207 C175.593913,484.906281 174.522836,469.353209 174.291284,454.782069 C173.216645,423.070128 180.483583,392.125861 186.045109,361.369544 C186.43103,351.503054 188.256136,341.971222 188.831335,332.099991 C189.450232,322.738332 189.559478,313.573391 190.097866,304.225716 L186.888434,303.530328 C160.243074,372.085005 139.377018,440.695378 124.77237,507.830839 C125.102718,508.112881 126.041513,508.43 126.001615,509.002379 C125.99069,509.308122 125.998053,509.327794 125.788587,509.358368 C122.260207,510.066317 118.7684,510.585606 115.271606,510.989234 C116.257425,519.367065 110.99846,529.049398 115.652777,536.896089 C116.888909,538.787192 116.942107,539.182288 116.184753,540.482999 C122.96555,553.078186 127.167925,563.558769 129.891454,574.818168 L131.646263,573.337092 C134.190249,575.18103 134.242972,578.66484 134.298545,582.345843 C134.117578,584.490547 135.166806,586.737876 133.559478,588.542944 C129.690063,593.055852 116.204465,594.831768 108.663226,594.857131 L108.663226,594.857131 Z" id="ðŸŽ¨-Background" fill="#FFFFFF"></path>
                    <path d="M158.221992,-3.55460529 C160.071559,-2.05930902 158.142433,8.72630629 156.651949,10.9269444 C166.732044,17.4061665 176.917773,23.736559 187.315969,29.6708475 L188.392407,30.2833163 L188.359159,30.2738359 C188.791152,30.4672361 189.521669,30.6388314 189.950338,30.5537448 L190.244333,30.456478 C190.3049,30.4372441 190.340084,30.4284191 190.323196,30.442113 C190.496563,30.3499161 190.665181,30.252742 190.829048,30.1413473 C193.793866,27.4418031 195.953832,22.8660875 198.276716,19.307619 C194.32228,15.8257046 196.292967,9.03987056 196.452797,4.40419143 C197.200414,4.38570465 197.288522,6.75367183 197.5025,7.44052689 L197.622889,8.0956564 C197.907973,9.62959965 198.232899,11.1927808 198.820567,12.618959 C200.530728,10.4562425 209.189116,15.5659417 210.811169,17.2100802 C212.57809,18.3344558 212.036139,20.3343464 212.013103,22.0924868 C228.444282,25.2838268 249.397021,27.5287858 251.60496,48.1183209 C254.202857,59.1634622 255.590745,70.4055588 256.874612,81.6625871 L257.083702,83.4590755 C259.327958,102.829086 261.319989,122.439726 267.656631,140.986197 L270.077458,146.750235 C275.315749,159.251244 280.425676,171.854888 283.770524,185.008439 C286.363671,190.621548 293.268675,244.193398 282.882314,240.060892 C286.43373,245.845832 283.775274,253.457646 282.542466,259.642423 C279.986606,269.793088 274.885571,286.382131 261.161534,281.490481 C250.812933,336.705522 230.314748,389.901712 225.132254,446.077118 C223.449405,464.335896 223.484791,482.813672 226.342975,500.95916 C226.728896,502.68317 225.078107,504.206434 223.39122,503.450372 C222.544095,503.692122 221.647573,503.76441 220.778836,503.928895 C221.779371,507.946494 222.365409,512.141943 222.897676,516.248113 L222.956614,516.703973 L222.958989,516.706343 C223.374358,517.166142 223.578124,517.749187 223.559837,518.407838 C229.829795,518.430117 235.075936,522.471138 239.253374,526.764811 C246.497276,534.333015 254.145859,541.548549 262.814697,547.488731 C269.020058,552.524246 279.906334,555.476206 280.255681,564.838339 C283.423315,564.303407 282.665249,571.213672 282.103349,573.038649 C281.445503,575.084283 279.533713,576.262222 277.700058,577.173763 C251.333035,585.995039 222.290694,577.4039 197.222263,567.931083 C192.828709,568.511758 189.688862,562.706434 189.219108,558.87967 C188.740567,556.767437 189.864604,554.714219 189.209371,552.655787 L188.993347,552.090212 C188.204472,550.021242 187.458619,547.998559 187.009506,545.806197 L186.94384,545.349197 C185.874886,537.776061 185.014182,524.951334 189.078514,518.616407 C193.81904,514.559743 191.365299,510.672067 191.840753,505.268239 C187.159837,504.734966 182.531169,503.677902 178.151864,501.994893 C176.425179,502.362229 174.918593,500.965863 174.804622,499.29425 L174.635818,496.62021 C173.752206,482.705803 172.83199,468.776502 172.602212,454.832505 C171.520923,423.194273 178.702365,392.232232 184.356987,361.329442 C184.913187,349.416607 187.191186,337.65214 187.511321,325.709442 C187.751186,318.513581 188.04971,311.33668 188.411406,304.153143 C162.766589,370.123225 141.719566,437.934638 126.61429,507.088239 C128.003603,508.029406 128.155596,510.595987 126.087064,511.008385 C123.061449,511.610627 120.01446,512.103608 116.955596,512.475714 C117.445062,519.901475 113.020397,529.945486 117.119464,536.240472 L117.282956,536.491983 C118.060892,537.698899 118.822022,539.07676 118.026673,540.478211 C123.353798,550.459415 127.971542,560.874346 130.813103,571.868057 C134.059108,570.538193 135.908675,577.124465 135.812729,579.504283 C135.604214,582.623335 137.288489,587.881639 134.594171,590.014492 C120.442416,599.120418 101.231186,597.708549 85.8062494,592.665923 C82.9452146,591.441056 79.666436,590.607728 77.2141204,588.6505 C76.1026701,587.524702 76.1786667,585.673891 76.0881832,584.211539 L76.0604877,583.454784 C75.9150264,579.245545 75.9292132,574.956655 77.0835013,570.810992 C76.7747651,564.804921 77.672475,558.718503 78.8551722,552.843025 C79.6125259,548.100217 81.793391,543.594419 82.0869279,538.807528 C83.6351213,534.524046 80.8429584,530.519287 81.5934249,526.238649 C82.2058162,523.629896 84.1255269,521.375917 85.2369031,518.946657 L85.3148838,518.772833 C86.3206514,516.563663 87.0411942,514.27462 87.9130178,512.008567 C86.2434673,511.690974 84.5952909,511.299907 82.9708634,510.830627 C82.1937981,513.641566 77.6962239,512.847582 77.829218,509.982131 C81.5231281,463.771575 88.8636879,417.817938 100.226131,372.860691 C105.527131,346.271247 119.21697,321.479998 121.280278,294.345905 C119.637719,294.038248 117.766586,293.959361 116.157115,294.144644 L115.965265,294.168148 C114.936936,294.295896 113.94898,294.476024 112.846317,293.957209 C98.6990738,285.235477 100.153221,258.5107 101.226673,243.8841 C100.587827,243.670791 99.9774792,243.40771 99.421754,243.078266 C98.930151,243.443262 98.1844343,243.464356 97.8970721,242.791484 C97.1727294,241.092122 96.241771,239.433052 95.6119491,237.705249 C79.2197184,181.442149 89.6870636,122.151958 92.9874538,64.7988496 C94.2734589,53.0161331 94.2831959,37.0184303 106.00971,30.5250665 C109.944909,28.6645378 114.385961,27.865814 118.580024,26.7926326 C128.204757,23.9274184 138.257683,22.6437721 147.579854,18.977938 C145.410863,15.9702808 145.92669,11.5839362 147.733985,8.55897721 C149.167233,6.38156609 151.918548,8.04750957 153.619209,8.97374476 C155.582059,4.96946035 156.928624,0.700435734 158.221992,-3.55460529 Z M131.406826,574.437245 L131.49354,574.840087 C131.952838,576.995601 132.349519,579.259744 132.119294,581.452505 C138.216122,587.384866 110.121364,588.135951 107.021177,588.122441 C99.9271315,588.049679 79.0698626,585.689533 78.0382087,577.15338 L78.0500504,577.35751 C78.1880701,580.072775 77.7268066,585.143261 79.2066565,587.150463 C90.3909822,592.958157 103.404451,595.255732 115.922755,593.824665 L116.372556,593.764965 C121.362859,593.080633 130.840328,591.065665 133.302466,586.913216 C132.758141,583.047345 134.094731,577.509132 131.406826,574.437245 Z M111.175104,536.088786 C104.328047,528.649515 93.0812621,534.087473 85.8611094,538.236097 C85.5884716,541.494036 83.3004987,542.692122 83.2078779,546.109807 C81.6694215,556.547491 78.1246548,568.347273 82.6407532,578.426124 C96.1035522,585.619852 112.113425,585.132797 126.678412,582.035787 C127.05982,581.540436 127.541449,581.39183 128.229218,581.203644 C128.662399,578.145267 127.786775,575.071247 127.208014,572.102459 C125.751729,565.862933 123.867725,559.736698 122.192237,553.554055 C119.189659,551.618394 118.092221,547.552487 116.52574,544.486051 C116.100634,543.625942 115.666029,542.765595 115.210049,541.912122 C112.765571,541.112924 112.125774,538.199597 111.175104,536.088786 Z M191.439396,556.609114 C190.703179,564.111429 198.034952,567.102733 203.962212,568.903061 C210.633289,571.270554 217.468234,573.235367 224.341177,574.934492 C238.421449,578.555294 253.100668,580.14184 267.533612,577.871758 L267.784367,577.827113 C271.948667,577.095428 279.408642,576.216148 280.355427,571.403517 L280.365509,571.293125 C280.429752,570.505084 280.552668,567.536 280.255681,566.776844 C280.146436,566.774711 280.039566,566.75101 279.937445,566.701001 C278.730999,570.552414 274.33507,572.89431 270.09826,573.498686 C268.100024,575.501657 264.418938,574.758868 261.755257,574.873107 C244.172729,574.699141 227.269422,569.265923 210.609065,564.215477 C205.307827,562.376279 194.740499,561.058266 191.439396,556.609114 Z M192.949829,517.9907 C189.898327,516.917519 189.318616,525.449643 188.928658,527.532961 C187.945452,536.342624 187.968014,550.079488 195.11312,556.327309 C202.568387,559.514383 210.61429,560.977209 218.304197,563.485012 L220.124099,564.018582 C234.700155,568.278137 249.679187,572.261398 264.977988,571.633417 C266.132424,569.328968 273.457785,571.244483 276.251847,567.137573 C279.999193,560.616242 270.536427,556.41524 266.058565,553.637245 C257.459311,548.127236 249.426945,541.720855 242.183756,534.52452 C238.778158,531.142624 235.662297,527.26988 231.662975,524.551138 L231.45441,524.411253 C228.027833,522.143753 223.629707,520.737224 219.605639,522.226306 C215.687064,523.674438 214.247878,528.142077 210.961262,530.450317 C203.636975,535.189105 196.136253,527.69973 193.756584,520.921486 L193.686046,520.716315 C193.60055,520.505613 193.833289,520.377628 194.009031,520.43451 C193.992407,520.368148 193.980533,520.299415 193.966283,520.232815 C193.04245,519.991776 192.954816,518.843225 192.949829,517.9907 Z M88.7774792,512.167364 C89.734324,517.565504 87.0385818,522.408804 85.0270466,527.184319 C84.4855708,530.350062 86.475732,533.384501 86.0154775,536.605468 C92.6001086,531.445759 102.565639,526.870755 110.510134,531.583225 C110.552882,527.032159 112.121975,522.61524 113.485876,518.313271 L114.039549,516.605988 C114.470982,515.279943 114.909863,513.959705 115.395291,512.655841 C106.549286,513.57781 97.5933232,513.670007 88.7774792,512.167364 Z M218.342195,504.298868 C210.599803,505.364702 202.772865,505.977373 194.977988,505.547674 L195.863824,518.965048 L195.863824,518.965048 C195.899447,519.514675 195.666707,519.896261 195.322348,520.11431 C196.471559,524.473398 200.089235,528.353253 204.574935,529.296552 C211.502975,530.190791 212.434884,521.020162 218.318446,519.325067 C217.191796,516.799251 217.999023,513.47874 217.88859,510.72895 C217.950338,508.565048 218.061958,506.422241 218.342195,504.298868 Z M192.847708,516.440655 C192.69809,516.748768 192.522348,517.035787 192.329981,517.313088 C192.534222,517.332049 192.731338,517.393672 192.91658,517.505067 C192.895206,517.151685 192.871457,516.79617 192.847708,516.440655 Z M123.120821,243.066416 C116.344774,245.409734 108.950541,245.889442 101.970015,244.109023 C103.501347,255.563954 105.039328,282.69781 114.794443,289.314182 C116.442619,289.077172 118.09792,288.9608 119.762721,289.126944 C120.753052,289.225304 121.732696,289.384811 122.714714,289.536735 C123.083456,289.587995 123.81846,289.626359 124.287717,289.593326 L124.36764,289.586744 C124.243327,289.595734 124.146349,289.593812 124.276819,289.585013 L124.476885,289.574656 L124.579485,289.566845 C127.96193,289.263566 131.014339,284.494237 134.361194,286.782915 C134.85256,286.040363 135.595427,285.56421 136.166114,284.903189 C138.706063,280.462569 136.007708,274.747546 137.705045,270.066598 C137.063824,269.191794 137.275189,267.881366 138.282144,267.132414 C139.851237,265.693052 143.168726,266.764811 144.072136,264.698084 C144.010213,264.810444 144.005834,264.680689 144.029842,264.613032 L144.03566,264.599014 L143.876369,264.467497 C136.943848,258.737199 130.240873,252.333975 125.697901,244.384674 L125.545588,244.116133 C124.676614,244.957993 123.248353,244.314985 123.120821,243.066416 Z M281.40988,239.179214 C276.636343,241.786325 271.497072,243.675294 266.165435,244.767911 C265.070372,255.235222 263.811678,265.707273 262.094867,276.089023 L262.501665,276.16165 C264.882553,276.596543 267.390624,277.182792 269.447539,275.5439 C276.219549,268.973508 278.660227,255.758777 281.319634,246.834638 L281.424562,246.428383 C281.983289,244.23978 282.624691,241.211699 281.40988,239.179214 Z M211.998853,22.8248478 C211.287573,26.3778651 215.209947,65.0619307 208.056292,58.4450848 C203.21507,50.8546016 197.676818,43.7514111 192.726589,36.2393783 C192.044757,38.9249389 194.040142,42.1158049 193.097072,44.3927603 C205.694935,107.415149 214.834477,171.409041 218.221075,235.61008 C223.789014,239.513635 228.671559,244.246252 233.458158,249.041675 C234.949829,250.30802 236.03278,252.378066 237.885198,253.10616 C245.405062,244.617409 254.091712,237.258722 261.997496,229.139469 C261.923874,228.582496 261.840753,228.028129 261.745757,227.473526 C261.351525,225.167181 264.322517,223.998959 265.469591,225.413672 C267.867759,219.335787 268.091712,212.191593 267.497751,205.670737 C266.331678,194.709023 262.234986,184.235787 259.308166,173.67225 C250.873018,141.355933 245.035291,107.454255 247.798005,74.0000529 C247.838378,73.6893327 248.25161,73.6848295 248.288183,73.9998159 C250.580431,109.343225 254.152509,144.784994 264.797496,178.756115 L265.050821,179.595722 C269.20991,193.326251 274.354321,207.880836 270.794103,222.280636 C271.08954,224.219141 270.157632,226.150773 268.74932,227.544392 C268.122348,229.058886 267.424129,230.55916 266.595291,231.971976 C266.880991,235.251247 266.742772,238.537628 266.452797,241.800545 C271.924316,240.632086 277.0282,238.395659 281.908607,235.700144 C282.198344,234.055057 282.452458,232.405468 282.649574,230.749005 C286.437768,200.025632 274.882958,170.146963 263.322687,142.256571 C252.307216,109.753727 254.458158,74.4802352 245.252119,41.6003081 C239.427929,28.7787767 223.519464,27.77101 211.998853,22.8248478 Z M149.558141,20.442897 L149.17929,20.5750142 C146.527118,21.5077542 143.867765,22.5885595 141.032271,22.6684211 C132.133247,25.6245657 123.008447,27.8942964 113.962092,30.3615018 L113.086894,30.6009098 C109.225316,31.6605816 105.32574,32.8714658 102.720482,36.1092598 C100.222093,39.2138541 99.1771399,43.2122133 98.3606514,47.0304448 C94.5346972,80.3941094 92.366894,114.095039 90.4230433,147.658029 C89.4699983,175.603407 90.0131366,204.015933 97.1679796,231.208567 C98.1780221,234.934365 99.4070297,238.67225 99.8421103,242.499962 C100.362212,242.506835 100.884689,242.542624 101.40954,242.594529 C101.417377,242.344483 101.79831,242.385486 101.770524,242.63008 C108.722551,243.725304 115.948404,243.077555 122.472475,240.385832 C120.860872,191.431411 110.38664,138.299214 134.11183,92.8847748 C134.209201,92.7119945 134.503688,92.8304995 134.437191,93.0222407 L133.852345,94.7065749 C131.970606,100.134184 130.131894,105.570077 128.808692,111.167728 C130.694358,110.888057 132.069422,115.29668 132.425893,116.377209 C142.708947,147.543316 136.375579,180.799852 135.066538,212.807345 C152.770897,225.657792 170.648624,238.2973 189.047878,250.140928 C197.404655,244.720035 204.889846,237.610682 213.476037,232.69462 C211.022059,166.569296 197.506063,101.144337 190.159328,35.8364613 C187.434137,39.2169353 184.659311,42.5583026 181.887573,45.900144 C178.322857,50.2682388 174.876885,54.7500985 171.362042,59.160618 C170.635325,60.0757138 169.051271,59.7201987 168.533544,58.7979927 C161.610965,46.3099344 157.209337,32.5178469 149.558141,20.442897 Z M128.689947,111.665686 C118.476478,153.638266 126.96245,196.861785 126.801907,239.31194 C127.561635,239.982915 127.279973,241.254711 126.393425,241.715459 C126.262806,242.300636 126.108438,242.881311 125.927946,243.462222 C126.640414,244.137464 127.357632,244.808202 128.081975,245.47183 C127.530999,236.230809 132.190541,227.835914 134.890796,219.159214 C132.94932,217.4307 129.31217,216.359652 129.796648,213.203152 C130.171881,206.339342 130.65161,199.480035 131.232984,192.633052 L131.592181,188.799277 C133.855577,164.496898 135.778899,139.7988 130.456869,115.765723 L130.425057,115.583299 C130.251485,114.53188 129.919207,111.879426 128.689947,111.665686 Z M281.868234,238.930591 L281.785113,238.975386 L281.970355,239.131812 C281.932356,239.068057 281.899108,238.999324 281.868234,238.930591 Z M220.776461,224.629382 C218.408692,222.314031 222.063416,218.641798 224.40055,221.012609 C226.765469,223.332463 223.108607,227.004222 220.776461,224.629382 Z M219.216132,197.091329 C218.69311,195.722018 220.147761,193.549303 221.685923,194.459582 L221.73352,194.488722 L221.754894,194.460281 C223.210704,195.318257 222.673978,197.095832 221.819016,198.155267 C220.871671,199.129378 219.692061,197.972532 219.216132,197.091329 Z M216.993184,165.386237 C212.875355,160.002317 221.526857,157.793621 220.109045,164.421606 C219.806721,165.661169 217.315932,167.469318 216.993184,165.386237 Z M210.903932,135.388115 C208.718555,132.722226 213.417045,130.427732 214.399776,133.610303 C214.962863,135.733438 212.308919,137.042445 210.903932,135.388115 Z M232.769676,69.2549462 C234.063756,69.4554567 240.606114,68.1215643 238.923026,70.8405433 C241.555359,83.9680547 248.958378,99.9842443 238.388675,111.455056 L238.294413,111.547487 C236.735594,113.101885 234.24259,116.796048 231.857242,115.273287 C226.562416,110.815603 219.740295,107.630188 215.693713,101.924645 C213.992814,97.448948 215.441262,92.4475624 214.99122,87.7654294 C214.798853,81.8425488 213.810897,75.9741805 213.599116,70.0607803 C213.590032,69.7739982 213.901143,69.6815643 214.095885,69.8024394 C220.305045,69.3096955 226.546979,69.4189572 232.769676,69.2549462 Z M214.30725,70.2172069 C217.116275,79.3437521 217.179684,89.1016919 217.104875,98.5612361 C217.148573,99.5365324 217.321466,100.485284 217.831118,101.230443 C221.846826,105.956423 227.568421,108.9181 232.33507,112.84346 C234.264909,111.585174 235.792916,109.977061 237.160855,108.153032 C245.537106,97.2128861 237.946945,83.4423665 237.956444,71.2602881 L236.882846,71.2623623 C229.364139,71.272283 221.774565,71.1737363 214.30725,70.2172069 Z M207.986504,104.111841 L208.05888,104.112058 C210.939864,104.119406 210.279169,108.992095 207.560153,108.323964 C205.268021,107.782415 205.618452,104.141373 207.986504,104.111841 L207.986504,104.111841 Z M202.335315,79.240392 C200.339216,75.8456974 206.925985,74.5326618 206.232516,78.4532817 L206.247563,78.2924296 C206.250565,78.2615311 206.253415,78.2338104 206.256265,78.2091613 L206.206392,78.5765269 L206.206392,78.5765269 C205.966765,80.3104923 202.536706,81.5531358 202.335315,79.240392 Z M197.913286,51.1261914 C199.743854,50.642691 201.094456,53.2090356 199.523701,54.3587712 C197.189656,56.1166746 195.179783,51.7376773 197.913286,51.1261914 Z M153.030236,11.3630428 L152.806907,11.156898 C150.418195,8.96754131 148.627189,7.87265305 148.097581,12.3345469 C147.72876,14.510536 148.045333,17.2548751 150.13524,18.5418396 C160.141381,28.4166253 163.933849,42.5146928 170.381211,54.6597976 C176.203026,47.6220219 181.621584,40.2958049 187.252458,33.1158232 C179.495104,28.3979015 171.661279,23.7162425 164.009371,18.7930702 C160.352034,16.3663245 156.416835,14.1571541 153.030236,11.3630428 Z M203.401737,17.1840091 C200.392271,22.0870356 197.613645,27.3901349 193.776292,31.7290775 C193.287064,32.2196882 192.778836,32.6086217 192.253985,32.9048842 C193.005164,32.6882571 193.998819,33.2490228 193.904536,34.0709736 C199.490524,39.6288587 204.05697,46.0940182 208.419888,52.635969 C209.254188,41.8140912 207.664197,30.9471814 208.279769,20.1087129 C206.861958,18.8075278 205.173408,17.9163701 203.401737,17.1840091 Z" id="ðŸ–-Ink" fill="#000000"></path>
                </g>
                <g id="Head" stroke-width="1" transform="translate(95.945717, 42.661805)">
                    <g id="head/Short-4">
                        <path d="M102.216672,34.0927785 C102.136875,31.2586126 98.0062222,30.0818578 96.812838,32.8887675 C96.7387413,32.9638997 96.6582324,33.0361878 96.5827108,33.1008915 C96.9562816,32.781165 96.175179,33.3101714 96.0481221,33.3755861 C95.939352,33.4315205 95.828207,33.4820036 95.7172994,33.5341459 C94.9497337,26.3541641 92.344,18.6138906 85.6107006,15.0099161 C76.2194198,10.4650119 65.3678168,9.57788332 55.0648142,10.0293874 C49.8455098,10.3384485 43.8185038,11.1713017 39.1815233,8.53622425 C37.7366378,7.71522151 36.578402,6.42280583 34.9456624,5.91536737 C29.79143,4.52388149 27.4535844,9.80588696 28.1556031,14.1495697 C25.9571637,14.1668715 23.7762986,15.3815479 22.8275284,17.3814385 C22.2703783,18.5650665 22.2801154,19.8423136 21.7996743,21.0302078 C20.3255776,24.0426053 18.2164343,26.2079289 19.4088685,29.8602534 C17.3115997,32.2419672 18.5073588,35.8476007 20.1997082,38.1278742 C21.0354334,39.3138724 22.0307515,40.4524686 22.6429992,41.7799617 C23.2371976,43.0510465 22.3402002,44.5584303 21.8409975,45.7633892 C18.1504122,54.4969717 18.3613028,64.1150757 20.3471891,73.2247931 C16.362117,74.9504631 15.1661204,80.3448113 17.7647294,83.741402 C18.658877,84.9420948 19.7496658,85.3876737 20.9867481,86.1264339 C22.5522782,86.9863063 21.2736353,90.430536 21.7749754,92.0938724 C22.456095,96.1545652 26.1609296,98.655258 29.8242036,96.0182844 C32.1487498,95.6672726 34.0237286,102.417081 35.7118032,104.111229 C36.7517693,105.476407 37.9064427,106.702222 39.1618117,107.833471 C42.9022697,117.438303 62.0690891,122.308859 71.545391,121.752833 C81.4688855,120.715914 88.1634741,112.305376 93.7378253,104.840983 C96.600285,100.863717 98.4619644,96.4121951 99.1390466,91.5570447 C99.8192163,86.6774822 99.5216421,81.7891504 99.0618626,76.9036627 C98.0959932,66.5235716 96.5722612,51.5691869 95.5883427,41.07699 C99.1440339,40.7847566 102.324492,37.7635898 102.216672,34.0927785 L102.216672,34.0927785 Z" id="ðŸŽ¨-Background" fill="#FFFFFF"></path>
                        <path d="M24.7030534,27.8520438 C24.6997286,27.8667384 24.7047159,27.8778778 24.7080407,27.8935205 C24.7087532,27.8890173 24.7094656,27.8866472 24.7106531,27.881196 C24.7078032,27.8693455 24.7056658,27.8615242 24.7030534,27.8520438" id="Fill-4" fill="#4F66AF"></path>
                        <path d="M24.7021272,28.002948 C24.6890653,27.9892015 24.6705411,27.97901 24.652017,27.9652634 C24.651542,27.9657375 24.6513045,27.9662115 24.651067,27.9666855 C24.6684037,27.978062 24.685028,27.9910975 24.7021272,28.002948" id="Fill-6" fill="#4F66AF"></path>
                        <path d="M101.651115,35.4340182 C102.819087,34.4655953 104.658918,35.357227 104.26326,36.9515934 C103.832692,38.6879289 101.967925,39.8744011 100.428519,40.5878013 C98.8439898,41.3218213 97.3005462,41.4633163 95.5718609,41.3832069 L95.5504869,41.3784667 L95.5504869,41.3784667 C96.0304529,43.298959 96.3026158,45.2952944 96.6697744,47.2274002 C97.1357286,49.6785579 97.5940831,52.1309006 98.0455505,54.5844284 C98.4822935,56.9559508 99.0344563,59.3305542 99.3700288,61.7139271 C99.7084512,64.1198159 100.033337,66.5273637 100.365822,68.9339635 C100.920683,72.9534381 101.368577,76.9913251 101.840826,81.0223386 L102.065906,82.930349 C102.538826,86.9689702 102.919606,91.0124603 102.02326,95.0313747 C101.18326,98.797938 99.2909449,102.311375 97.0960679,105.45555 C94.9465513,108.53431 92.545296,111.494565 89.9094012,114.172541 C84.8249907,119.337227 78.5552706,123.473763 71.2035488,124.240964 C68.0380526,124.571356 64.6571535,124.203754 61.6811739,123.05544 L61.483568,122.978397 C58.4710974,121.791402 54.7819741,119.759041 53.9979169,116.4239 C53.5165259,114.378029 55.6289941,112.780819 57.4811739,113.751612 C58.3393286,114.201536 58.9845895,114.715516 59.6890464,115.36004 L59.8140322,115.475149 C60.3897065,116.008658 60.6112841,116.172669 61.275542,116.590044 C62.6380187,117.445413 63.6592231,117.850226 65.206704,118.238923 C68.0599016,118.955167 71.1391891,118.841876 74.0356098,117.994802 C80.1851603,116.19637 84.9558473,111.503572 89.0428024,106.798211 C91.2619033,104.243006 93.3681968,101.56266 94.9926243,98.584629 C96.6970857,95.4601258 97.483888,92.17967 97.4366277,88.6245196 C97.3831925,84.6131249 96.8277048,80.5860875 96.4631586,76.5936536 C96.0917252,72.5234804 95.7483155,68.4547293 95.445754,64.3788678 C95.1623314,60.5565932 95.1349305,56.7171029 95.0358673,52.882923 L95.0163732,52.164082 C94.9581883,50.1286399 94.9178151,48.0924868 94.8715047,46.0565706 C94.8256692,44.0265798 94.6646514,41.9707548 94.874117,39.9492963 C94.8890789,39.802113 95.0878575,39.7649025 95.1363053,39.9137448 C95.2597998,40.2924868 95.3678575,40.6771541 95.4699779,41.0639544 C95.4856522,41.0521039 95.5032265,41.0414385 95.5246005,41.0340912 C96.87924,40.5695515 98.1267718,39.6421313 99.1432265,38.641949 C100.113133,37.6875096 100.619698,36.2893874 101.651115,35.4340182 Z M27.5361832,6.99340747 C28.3871077,3.50556791 32.2163868,2.72651595 35.0479729,4.40620602 C36.4099746,5.21393619 37.5005259,6.37884047 38.7727566,7.30460164 C40.0376251,8.22514859 41.4354877,8.96438286 42.9105344,9.48651595 C45.840916,10.5236718 48.932078,10.9007548 52.0291773,10.9142644 C59.5670908,10.9472088 66.9508736,8.83307931 74.4999491,9.06890428 C80.3412383,9.25140201 86.5411366,10.9742279 90.7781849,15.1882662 C93.0606955,17.4583482 94.5314673,20.3768897 95.3204071,23.4753218 C95.6891368,24.9234166 95.9639725,26.4066506 96.1807781,27.8864359 L96.2337913,28.2562881 C96.3551484,29.1211376 96.5498897,30.0367074 96.5679389,30.9108004 C96.5843257,31.6957776 96.3853096,32.5172543 96.2774894,33.2941732 C96.050212,34.9319125 93.508363,34.7453856 93.1431043,33.2941732 C92.3114165,29.9900164 92.6595759,26.5799161 91.6431213,23.2871358 C90.741849,20.3671723 88.9951145,17.8141003 86.46419,16.0680474 C75.7869042,8.70177575 62.0944529,14.8704357 50.3301781,14.2973455 C47.454894,14.1572726 44.5373367,13.7138268 41.8252078,12.725732 C40.4266327,12.2161604 39.0496692,11.5947201 37.7817133,10.8130611 C36.6199449,10.0973649 35.6134722,9.19814789 34.5380401,8.37065452 L34.0636016,8.01079884 C33.3263445,7.4572431 32.0712807,6.59179204 31.327464,7.32403646 C31.0037823,7.64277409 30.9841986,8.36345648 30.9901273,8.91379004 L30.9937913,9.16252325 C31.0275148,11.4989681 31.504631,13.8311468 30.6285327,16.0884303 C30.228842,17.1180259 29.1181383,17.7671797 28.0617149,17.1841046 L28.0071247,17.1528423 C25.7725964,15.8261881 22.8367522,18.4919629 24.5533052,20.6981657 L24.6067515,20.7648751 C25.5725231,21.9362177 25.0576262,23.9989363 23.3290855,23.9937829 L23.2668363,23.9927147 C20.1870714,23.8967469 18.8206776,27.7379222 21.4752382,29.4162705 L21.5569126,29.4664613 C23.7121289,30.7536627 21.8217133,33.8483026 19.6128244,32.7857867 C19.7999661,32.8758505 19.4746056,32.8746655 19.2884139,33.124 C19.1095844,33.3633801 19.096285,33.5705269 19.1387956,33.8729517 C19.2677523,34.7892325 20.0752163,35.5614111 20.7292621,36.1411376 C22.2149958,37.4582024 24.056726,38.3676098 25.9545038,38.9212653 C33.5565394,41.1392051 41.3556913,38.4261513 48.7625106,36.787701 C56.4844784,35.0795697 65.206039,34.3915296 71.9402884,39.2386217 C72.0203223,39.2959781 71.9502629,39.4242005 71.8616794,39.3730064 C67.0287701,36.5720219 61.1095844,36.8206454 55.8266327,37.968959 C48.899067,39.4749207 42.0320611,42.2780383 34.9370653,43.0165615 C36.9288889,46.525732 37.7624767,50.6703263 37.2305004,54.6840912 C36.8642013,57.4470751 35.7623784,59.843717 34.4609995,62.2724253 L34.2126489,62.7352824 C33.0523194,64.9153124 32.1535411,66.9747893 32.1392027,69.500299 C32.1251908,72.0095242 28.3873452,72.5385305 27.7537235,70.0928241 C26.3152502,64.5384941 31.5556913,60.163526 33.6938083,55.5833072 C35.5212892,51.6679015 35.5775742,47.1028514 34.0987277,43.0938268 C32.4301272,43.2277375 30.7484648,43.2417211 29.0499406,43.0905087 C27.5910433,42.9603902 26.0901103,42.6980201 24.6271756,42.2827785 L24.0419048,44.7381607 C23.2665418,48.0087322 22.5481459,51.2771194 22.3304156,54.6741367 C22.1701103,57.1703263 22.1786599,59.6788405 22.4225615,62.1688678 C22.6334521,64.3194968 23.0785072,66.3935716 23.5313995,68.4932434 C23.9199321,69.004711 24.1184733,69.7875552 24.0092282,70.4111285 C26.5313656,71.1359052 28.5151145,73.1220492 29.2399321,75.7526235 C29.2841052,75.9128423 29.0594402,76.0029061 28.975369,75.8640182 C27.2557082,73.0165798 22.8274809,71.9687584 20.0262935,73.849907 C17.3512129,75.645969 16.2960475,79.2722224 17.8102799,82.1428879 C18.6067584,83.652265 19.7876575,84.7129691 21.3103582,85.4433911 L21.6165179,85.5868752 C22.4144784,85.9637096 23.146955,86.3743803 23.6601187,87.1312379 C24.3258287,88.1129267 24.3482461,89.1506609 24.2853336,90.2724511 L24.2581296,90.7270803 C24.2160719,91.4790352 24.2065818,92.2530483 24.4310093,92.9763792 L24.4820034,93.1371461 C24.5411985,93.3176298 24.6034266,93.4766547 24.7114843,93.6490137 C24.7437829,93.7002078 25.0468193,93.9969444 25.1456149,94.1043099 L25.2700594,94.1417575 L25.2700594,94.1417575 L25.4092282,94.1474458 L25.4092282,94.1474458 C25.5636169,94.1498262 25.7665114,94.0830525 25.6999429,94.1293307 L25.7180646,94.1189777 C25.7766354,94.0825782 25.8305158,94.0440899 25.875906,94.0098531 L25.9621035,93.9426691 C26.163732,93.6518578 26.4164207,93.4115296 26.7263444,93.2283209 L27.0224936,93.0967803 L27.0224936,93.0967803 C27.7917218,92.286206 29.109788,92.712113 29.6612383,93.5196062 C30.0580831,94.1002808 30.2715861,94.6906727 30.2891603,95.2730064 C30.351145,95.1736992 30.4888889,95.1194239 30.5765225,95.2305816 L31.0993841,95.8954973 C33.0998329,98.446375 35.0658606,101.013181 37.3390331,103.338458 C38.5913147,104.619734 39.9383545,105.823745 41.3464292,106.932715 C42.5486005,107.87957 44.8289737,108.790636 44.8638846,110.515358 C44.8748092,111.075176 44.4765394,111.471694 43.9892112,111.661776 C42.4031415,112.280026 40.4431867,110.176871 39.2975929,109.153483 L39.2040373,109.070782 C37.8018999,107.845203 36.522307,106.499934 35.3415098,105.061284 C33.0480746,102.266698 31.1303478,99.0502352 30.285123,95.5119125 C30.2454623,96.1293236 29.9799491,96.7344102 29.4631722,97.3053674 C28.7751654,98.0652215 27.8335199,98.5980201 26.8277523,98.8174913 C24.5490416,99.3145014 22.3242409,98.4961057 20.9684139,96.6012106 C19.8224484,94.9992154 19.4850352,92.8838907 19.632892,90.948557 L19.6511073,90.7163259 C19.6718853,90.4059243 19.6983625,89.8363867 19.7788295,89.5940091 L19.061374,89.2008095 L19.061374,89.2008095 C18.1817133,88.7336627 17.3664122,88.1212288 16.6347074,87.4481203 C13.6938762,84.7424139 12.2183545,80.3451668 13.562782,76.497309 C14.403732,74.0902352 16.1708906,71.9957776 18.4336896,70.9071905 C18.0554815,70.0348689 17.9290016,68.998967 17.7862888,68.0824224 L17.762307,67.9308186 C17.5203053,66.427227 17.3177269,64.9046746 17.2405428,63.3830702 C17.0961493,60.54132 17.2716539,57.6730246 17.719084,54.8642188 C18.4458015,50.3020128 19.9502969,45.4636901 22.7080237,41.6364521 C20.6041052,40.8026509 18.6676166,39.5955588 17.1728584,37.9194239 C15.6108906,36.1679198 14.6150975,33.6603537 15.8229686,31.4360146 C16.1307549,30.8690866 16.5318745,30.3924594 16.9928414,30.0139544 C16.1934521,28.5075187 15.9348261,26.7270994 16.4280916,25.0253674 C17.0175403,22.9908733 18.6179813,21.4040912 20.5513825,20.6631978 C20.081866,18.7355953 20.4656489,16.6622315 21.9003223,15.0557776 C23.3233588,13.4621222 25.5331976,12.8816846 27.5784563,13.245969 C27.6893639,11.1958323 27.0426802,9.01534002 27.5361832,6.99340747 Z M21.7996268,78.9733054 C23.6748431,78.0574986 25.8972689,78.2030228 27.7703478,79.0709535 L27.8972604,79.1310739 C29.942267,80.120725 32.65075,82.4329794 32.0007464,84.8921568 C31.6202884,86.3303336 30.0191349,86.8214184 28.7775403,86.2006892 C27.7404241,85.6818742 27.5038846,84.754454 26.9835454,83.8227675 C26.6156743,83.1638797 26.1608821,82.6488569 25.6267684,82.1191395 C24.5008312,81.0030593 23.2362002,80.1739982 21.7996268,79.5106071 C21.592536,79.4148551 21.5996607,79.0711905 21.7996268,78.9733054 Z M69.0491874,29.2653582 C68.8734453,29.1852489 69.0009771,28.9105542 69.1779067,28.9608004 C73.8899338,30.3036992 78.2832502,33.3179927 80.908458,37.5019307 C81.0685259,37.7571905 81.0929873,38.1774093 80.908458,38.430062 L80.8234988,38.5447281 C80.7030909,38.7015829 80.5842998,38.817366 80.3579576,38.8524139 C79.9323766,38.9183026 79.5626056,38.807619 79.3175165,38.430062 C76.731257,34.4421313 73.4178049,31.2595606 69.0491874,29.2653582 Z M100.593812,30.0550283 C100.993031,29.3802607 102.051522,29.5160675 102.262175,30.2726035 L102.292662,30.3384448 C102.406439,30.5963601 102.354681,30.649151 102.14248,30.5032142 C102.667807,30.9350465 102.905534,31.5782917 102.744991,32.269887 C101.877679,36.005165 97.6382561,38.6724758 93.9424461,38.3053473 C93.6199355,38.273351 93.576,37.8777812 93.8683494,37.7597502 C95.2901985,37.1852379 96.5522171,36.2521294 97.5670093,35.107134 C98.5533028,33.9941349 98.9681968,32.72068 99.4987481,31.3765962 C99.6977642,30.8720018 100.00745,30.5086655 100.443718,30.3102881 C100.501428,30.2306527 100.551776,30.1458031 100.593812,30.0550283 Z M79.5766672,27.6546143 L79.6022188,27.6562261 C81.5011841,27.9010574 83.1438982,28.836299 84.4774012,30.206691 C85.7617439,31.5263628 87.382609,33.7040109 87.2436777,35.6406199 C87.1517693,36.9245032 85.322626,37.6585232 84.6400814,36.3445397 C84.2327871,35.5605105 84.1404037,34.7011121 83.855179,33.872051 C83.5934656,33.1121969 83.2320068,32.3907384 82.7993011,31.7140747 C81.9084784,30.3199818 80.6835081,29.1389608 79.4290891,28.0733637 C79.2822909,27.9486668 79.3845755,27.6552752 79.5766672,27.6546143 L79.5766672,27.6546143 Z M30.8711518,27.0856718 C30.4500831,26.6855989 30.8880136,26.003484 31.4235522,26.1385798 C34.2480136,26.852217 37.0451637,27.7201477 39.9817201,27.8064193 C41.4484546,27.8493181 42.906877,27.7338943 44.3598372,27.5445232 L45.0954716,27.4470331 C46.2284949,27.2994528 47.3809822,27.1835654 48.5009398,27.4158268 C49.2476064,27.5705943 49.3934249,28.530485 48.9281832,29.0312871 C46.7311688,31.3964102 42.493408,31.1703026 39.5796506,30.7716518 C36.4155793,30.3383974 33.2230093,29.3216244 30.8711518,27.0856718 Z M81.8755861,19.7136408 C81.6822697,19.4460565 82.0076302,19.0237046 82.3154165,19.1424467 C85.1223036,20.2251085 88.0640848,23.0438687 88.8373503,25.9929845 C89.0415912,26.7720365 88.0571976,27.3602954 87.4791484,26.7819909 C86.4018965,25.7043063 85.6414555,24.4313254 84.7309211,23.2199672 C83.8234741,22.0124011 82.761659,20.9399307 81.8755861,19.7136408 Z M35.8850992,21.0307056 C35.6599593,20.8062571 35.8865242,20.3592562 36.2099847,20.473495 C38.0374656,21.1193473 39.8787209,21.678217 41.7985852,21.9713984 C43.7649975,22.2714531 45.7499338,22.0434494 47.7265581,22.1650356 C48.5261849,22.2140966 49.0707481,23.4555552 48.1818253,23.8418815 C44.2319016,25.5580711 38.8670161,24.0018633 35.8850992,21.0307056 Z M40.9309652,17.1812835 C40.6170042,16.9494877 40.7955963,16.3133528 41.2228397,16.4908733 C42.963162,17.2139909 44.7231959,17.3917484 46.5908126,17.3173273 C47.2807193,17.2895971 47.4258253,18.3715479 46.7534928,18.517546 C44.6889975,18.965732 42.6180899,18.4260602 40.9309652,17.1812835 Z" id="ðŸ–-Ink" fill="#000000"></path>
                    </g>
                    <g id="face/Old" transform="translate(37.760814, 44.083865)" fill="#000000">
                        <path d="M41.8051898,56.7980674 C40.2871995,56.8104551 38.5807227,56.2419644 37.4397114,55.7968589 L37.1421816,55.679258 C36.154484,55.2844758 35.1400662,54.8312551 34.3835603,54.0707406 C34.1416424,53.8235821 33.884072,53.5438994 33.7532477,53.2497807 C33.6766153,53.0774961 33.6447599,52.8991292 33.718798,52.7219233 C33.9923963,52.695086 34.2516348,52.6601559 34.497184,52.6153677 C34.6141033,52.5940417 34.7261015,52.5719273 34.8119971,52.5713553 C35.1285096,52.569342 35.4416024,52.6095321 35.7544648,52.6490001 C35.799773,52.6547158 35.845076,52.6604305 35.8903933,52.6660291 C36.1339755,52.6961103 36.3763726,52.7286072 36.6183242,52.7610401 C37.3221143,52.8553811 38.0222007,52.9489361 38.7361968,52.983011 C39.2517316,53.0077057 39.7922412,52.9787939 40.3375545,52.9491781 C41.7519382,52.8723635 43.2142079,52.7675183 44.3039652,53.7561616 C44.589356,54.0150757 44.7086633,54.3412461 44.7086633,54.6734852 C44.7086633,55.077213 44.5383752,55.4881868 44.2786532,55.8106419 C43.6903762,56.5406065 42.7850346,56.7900713 41.8051898,56.7980674 Z M50.0822957,44.0658994 C49.4219577,45.0546442 48.3217236,45.6904258 46.8141605,45.6213462 C43.8178625,45.4846174 40.2418402,44.3564313 37.7323345,42.725069 C37.078805,42.3003554 36.6550427,41.6213129 36.5790478,40.8938332 L36.4438459,39.5995796 L35.7132214,40.6773731 C35.6370985,40.7896672 35.5603149,40.9016487 35.4834945,41.0136857 C35.2719381,41.3222257 35.0605592,41.6307107 34.8610727,41.9468924 C34.0955081,43.1608848 33.393722,44.3869288 32.756419,45.6728668 C32.3052452,46.5834027 31.9753685,47.6018312 31.644544,48.6293201 C31.0860975,50.3640985 30.5466059,52.0702568 29.3533695,53.289506 C29.1729547,53.4739215 28.8956129,53.5399119 28.641781,53.5073126 C28.4180358,53.4785772 28.198768,53.3690988 28.0912998,53.1510005 C26.6656096,50.2576394 28.5831953,46.7709814 30.1387309,44.3470269 L30.3032546,44.0939059 C31.745646,41.903455 34.1013547,39.0046027 36.7992092,38.6105275 L37.1080879,39.1021237 L37.5571474,38.8032318 C38.2915848,38.3143936 39.2610407,38.3371327 40.1098104,38.7195776 L40.9586303,39.1019032 C42.538686,39.8095403 44.0972521,40.4624552 45.8068085,40.8200847 C45.9313881,40.8461461 46.0558655,40.8704545 46.1801521,40.8930549 C46.2974596,40.9143863 46.4154641,40.9343536 46.5340908,40.9528739 C46.5085162,40.8365664 46.4812062,40.7207848 46.4538335,40.6053179 C46.4248774,40.4831711 46.3957004,40.3607408 46.3644201,40.238689 C46.3321211,40.112662 46.2976601,39.9873557 46.2632401,39.8625327 C46.1262885,39.3648888 45.9715571,38.871697 45.7880969,38.3888282 C45.097852,36.5735449 43.9957569,34.8757877 42.923448,33.2564337 L42.7972523,33.0659391 C42.6435097,32.8338859 42.4751766,32.5917805 42.3009992,32.3413497 C41.4648181,31.1396755 40.5374418,29.8355131 40.4717376,28.5263932 C41.5817303,28.5961304 42.5105413,29.2843078 43.3281445,29.8834844 C44.4501602,30.7052072 45.4900072,31.6448881 46.4332777,32.6658036 C48.2629069,34.6463236 49.9050134,37.1783169 50.6251545,39.7957333 C51.0374602,41.2945243 50.8560975,42.9072618 50.0822957,44.0658994 L50.0822957,44.0658994 Z M20.8081861,29.1341924 L20.8078798,29.0807973 C20.8112047,27.569435 21.6932427,24.1186655 23.8734215,24.1186655 C25.2354178,24.1186655 26.0623238,26.4671516 26.2054742,28.8881035 L26.2104462,28.986812 C26.2736609,30.4919502 25.8597843,33.7819201 23.8734215,33.7819201 C21.8660376,33.7819201 20.8288257,30.6659089 20.8081861,29.1341924 L20.8081861,29.1341924 Z M52.9061347,28.6601724 L52.906441,28.6067773 C52.9031161,27.0954149 52.0210781,23.6446455 49.8408994,23.6446455 C48.512953,23.6446455 47.6936768,25.8771751 47.5208626,28.2326835 L47.5088466,28.4140835 C47.4228529,29.8684049 47.8098992,33.3079001 49.8408994,33.3079001 C51.8482832,33.3079001 52.8854951,30.1918888 52.9061347,28.6601724 L52.9061347,28.6601724 Z M28.1506371,18.9058393 C27.8617236,18.9396336 27.5742435,18.9839218 27.2869094,19.0294764 C26.4485608,19.1627597 25.6147516,19.3227472 24.786645,19.5092078 C23.2138262,19.8635744 21.6536351,20.3109906 20.123264,20.8165917 C18.6912114,21.2898974 17.2814385,21.8247766 15.8720084,22.3596058 C15.796797,22.3881459 15.7215865,22.4166856 15.6463439,22.4452269 C15.1487081,22.6340674 14.6527323,22.8456338 14.1552297,23.0579241 C13.3980732,23.381012 12.6374444,23.7062652 11.8612545,23.9513538 C13.9062189,21.129534 17.057398,19.0386711 20.0894479,17.5424655 C21.8194237,16.6888152 23.6547212,16.0004328 25.5009059,15.4363836 L26.5290425,15.1280617 C28.042953,14.6823158 29.6982427,14.2705756 31.1203587,15.159356 C31.6828257,15.5108905 32.0417417,16.0573258 32.1547825,16.6480654 C32.2656388,17.2273889 32.1391721,17.848535 31.7383391,18.3669236 C31.3890754,18.818514 30.953877,19.0757029 30.4906787,19.1638477 C29.9794415,19.2611341 29.4376447,19.154292 28.9444503,18.8914117 C28.5493292,18.8620413 28.4327285,18.8726554 28.3158354,18.8856274 L28.1506371,18.9058393 Z M50.9253573,19.1929354 C49.9121011,18.9731069 48.9087737,18.8848508 47.8692334,18.9164934 C47.3991333,18.9305909 46.9443394,19.0030629 46.4907528,19.0759949 C45.7862926,19.1892648 45.0845435,19.3062533 44.3255892,19.1688247 C43.9296354,19.0970587 43.5923927,18.8659323 43.3319056,18.5642197 C43.0273742,18.2114923 42.8258952,17.7606822 42.76129,17.3320335 C42.6945487,16.8892431 42.7609515,16.5020117 42.9251094,16.1600695 C43.1190454,15.7560991 43.4457612,15.4156506 43.8406117,15.1174227 C45.0354093,14.2147305 47.0854309,14.4318311 48.4955199,14.6143357 C49.8889555,14.795126 51.2746684,15.2263393 52.5064864,15.9112095 C53.7217234,16.5872406 54.7781635,17.4978686 55.6025643,18.6109694 C56.2973953,19.5491768 56.6247113,20.6289828 56.9627196,21.7284569 C55.3727387,20.3973398 52.9395344,19.6292941 50.9253573,19.1929354 Z" id="ðŸ–-Ink"></path>
                    </g>
                    <g id="facial-hair/Moustache-7" transform="translate(29.211196, 80.109389)" fill="#000000">
                        <path d="M61.4230466,9.1638505 C59.8570416,8.87019508 58.2380763,8.95267457 56.6825208,8.61090611 C55.1649635,8.27719599 53.9597048,7.284835 52.4934453,6.82290246 C51.2031654,6.41619325 49.6908329,6.69159891 48.6860153,7.47989426 C47.7524444,7.04924704 46.6915793,6.9561021 45.6295267,7.09830811 C44.0188736,7.31398724 42.5160407,7.99420602 41.0813673,8.72988514 C40.9151247,8.81520875 40.7486446,8.89650319 40.582402,8.97874567 C37.9315454,8.91261987 35.2139542,8.91783409 32.6127328,9.48476208 C30.3093232,9.98698633 28.1317829,11.1559198 26.7581442,13.1084084 C25.2208753,15.2938778 24.9432502,18.0768496 24.7062358,20.6593108 C24.55543,22.2984722 26.8367532,22.6309973 27.6097812,21.444051 C28.4113079,20.213495 29.2456081,18.9800948 30.313598,17.9604777 C31.5266938,16.8022097 33.0022154,16.3462024 34.6558541,16.2404959 C38.3055912,16.007278 41.9795522,16.2028113 45.6328516,16.0414075 C47.7505445,15.9477885 50.1083393,15.1350811 50.9618762,13.2977794 C51.8728855,14.7224467 53.9371433,15.5695205 55.634955,15.6979799 C57.4291874,15.8340237 59.2509686,15.5086089 61.0273893,15.8816627 C62.7244885,16.2381258 64.7417235,17.4994932 64.3643528,19.5169225 C64.1425377,20.7019727 65.6437082,21.4006782 66.3345649,20.3459836 C69.1557014,16.0364303 66.375888,10.0931668 61.4230466,9.1638505" id="ðŸ–-Ink"></path>
                    </g>
                    <g id="accessories/*-None" transform="translate(11.162002, 57.119417)"></g>
                </g>
            </g>
        </g>
    </g>
</svg>