<?xml version="1.0" encoding="UTF-8"?>
<svg width="321px" height="692px" viewBox="0 0 321 692" version="1.1" xmlns="http://www.w3.org/2000/svg" xmlns:xlink="http://www.w3.org/1999/xlink">
    <!-- Generator: Sketch 62 (91390) - https://sketch.com -->
    <title>peep-standing-24</title>
    <desc>Created with Sketch.</desc>
    <g id="Introduction" stroke="none" stroke-width="1" fill="none" fill-rule="evenodd">
        <g id="variations-standing" transform="translate(-2735.000000, -1712.000000)">
            <g id="a-person/standing" transform="translate(2733.000000, 1658.000000)">
                <g id="pose/standing/robot_dance-1" transform="translate(-28.736217, 150.264357)">
                    <path d="M84.3005511,214.236635 C84.3406881,216.960228 84.6141464,223.21471 85.2988517,225.851278 C77.6709066,213.645253 66.2410675,200.304544 64.5028232,185.354682 C65.044555,185.206694 67.4482024,184.985409 67.8678605,184.67105 C71.8143567,186.50136 71.0677133,180.868258 71.6510072,178.26287 C73.2260907,172.746809 76.5353323,167.32103 77.9731423,161.768437 C81.7526777,160.136841 74.1627322,159.44553 73.0600312,159.413186 C77.6444457,154.317589 79.7531862,147.312568 83.017352,141.368364 C87.8136143,131.266057 92.1092318,120.938974 95.9448167,110.449941 C96.7831829,117.022165 96.9335189,123.665592 96.4226617,130.274115 C94.8454407,158.580867 84.1936772,185.798415 84.3005511,214.236635 Z M349.041683,163.954038 C346.668608,164.352164 342.713927,164.729233 340.345602,164.922828 C343.454207,163.07274 352.641852,159.548144 346.851901,156.380586 C345.066632,155.729762 343.15091,156.658159 341.350679,156.945294 C333.874257,158.173645 324.642597,158.108829 317.079014,157.489884 C319.836123,155.230733 323.466281,151.976998 326.157127,149.638966 C327.5871,148.396654 328.973619,147.925676 327.365048,146.070701 C324.529803,143.434598 319.459428,145.375899 316.181249,146.534444 C307.138294,151.592113 296.927769,157.078392 287.222195,160.969837 C287.120546,159.612345 287.183343,157.857192 285.872356,156.945294 C282.026559,155.135926 279.195049,155.664822 275.102967,155.183161 C270.333542,154.469512 266.094211,153.657805 261.37086,152.398507 C258.281493,150.046281 256.397711,143.109497 251.457763,143.884807 C255.832942,132.89294 249.164438,121.425055 246.659314,110.899956 C243.533135,100.128675 241.890602,88.9422821 241.845952,77.7426256 C241.815315,59.8115875 231.411974,46.0533126 216.379806,36.8524314 C210.453768,32.8572078 206.474341,23.1394237 199.137567,21.1930029 C198.20444,17.6187088 198.147835,16.0486484 197.328468,12.44713 C196.917122,11.4126068 196.611463,5.79905005 195.576924,5.9900855 C194.436223,0.429581252 188.622522,-1.80048414 183.591849,-2.96507902 C177.05093,-4.31838247 167.922951,-5.95765738 162.042987,-2.13904269 C160.339893,-0.724310054 159.591776,1.64466905 159.466852,3.76095085 C158.813496,6.57901449 157.454527,9.49834081 155.870418,11.9434083 C153.166986,11.031519 154.696946,9.33216499 152.023143,8.93651048 C127.608673,5.32379216 100.508423,23.2052065 84.6677222,40.6491736 C55.9540352,70.0860833 33.0155753,110.272012 36.770411,152.226514 C35.7605716,152.077594 31.2846934,151.377209 31.3486005,152.789149 C31.5685029,158.928809 32.6999411,164.049693 33.0122503,170.184467 C32.7018411,178.311734 41.1593651,179.290878 47.2689886,181.295237 C46.8927926,204.874735 55.4733403,228.460283 68.9033497,247.843051 C72.1660906,251.657012 77.0618643,264.892119 83.017352,259.619913 C83.7191572,258.800392 78.2763551,253.123401 77.3080778,251.720768 C74.0016374,247.565223 65.2433404,226.989938 71.4331732,222.880466 C72.8092338,227.321981 86.1339036,248.678893 88.5091162,236.556869 C91.6637957,238.384852 96.876757,239.63225 100.64798,239.443308 C107.737518,243.277513 114.636109,247.418166 121.44445,251.720768 C124.615754,257.938843 129.26738,263.91097 133.164477,269.881002 C106.194022,332.077349 79.8688214,434.445991 45.1611722,493.027323 C42.1349788,496.852919 58.7826939,503.355104 61.7231506,504.758901 C56.099922,513.874619 55.3958901,524.437878 51.1178473,534.253749 C50.3029934,534.122282 49.4810145,534.295168 48.7459597,534.687942 C43.4687649,538.255954 41.4773482,551.029035 41.1764389,557.326922 C41.4201113,560.136376 40.3770222,564.384995 42.6536734,566.453809 C42.3354267,566.797719 42.0979292,567.217718 41.928831,567.646559 C40.3266728,568.891663 40.5240332,571.643178 41.3804492,573.349234 C44.3938177,579.593371 66.4195747,579.013982 73.5672999,580.349601 C98.8859599,582.490781 120.136434,582.827943 145.451769,580.487584 C148.558949,579.837924 146.209148,574.998049 144.674914,573.685233 C145.383607,573.254764 145.836752,572.468749 145.52658,571.458891 C139.771541,555.027051 118.971017,556.138826 106.384599,547.36376 C109.694127,545.452708 107.558074,546.062579 105.478783,546.805779 C103.271956,545.421295 101.125216,543.863228 99.1366497,542.141815 C100.663996,541.200366 99.9106541,540.578395 98.2583838,541.366737 C95.6542236,539.281635 93.6259948,536.05893 90.3086295,535.048373 C87.0594261,534.253749 87.0594261,532.866479 87.0594261,531.992039 C88.9931308,524.229391 91.1054094,516.268728 92.1910105,508.396253 C93.3490484,510.101378 103.340831,496.438504 105.478783,493.027323 C113.785734,479.892415 113.763272,466.949025 119.576499,452.66488 C131.513836,421.558446 155.966851,356.363282 170.87932,326.613177 C205.77103,383.377695 188.77642,460.150082 210.30082,520.680628 C211.25746,522.499071 213.056266,529.319339 215.547615,527.351744 C216.515892,527.578148 217.545444,527.699843 218.467647,527.830147 C218.201412,534.44728 217.704805,541.046728 216.603529,547.59452 C215.577777,547.865134 214.706161,548.40264 214.254441,549.342692 C212.526884,548.076181 209.219256,566.76089 208.936159,568.664264 C208.931884,571.119337 206.811981,576.586068 208.748061,578.045244 C205.958653,579.184709 205.502658,583.396796 207.464625,585.56264 C213.289964,593.379503 241.685404,591.231343 252.160944,592.5416 C265.408081,592.213512 320.826347,597.165309 324.674045,584.618864 C325.439024,581.754729 324.1278,578.139017 321.460703,577.036782 C322.528017,574.549365 319.972069,572.14781 318.408623,570.40243 C309.188494,560.827622 295.011278,559.319325 282.735506,555.152147 C283.193164,554.683982 266.711308,546.252605 263.138158,544.168434 C263.373993,541.337107 257.481259,544.175647 257.464871,544.168434 C254.655276,539.21082 252.665051,531.497334 250.781221,526.149273 C254.257947,525.073331 262.634822,524.117404 264.187343,520.680628 C269.177166,519.009708 264.171984,511.785096 263.138158,508.396253 C233.888676,435.330664 261.638758,343.169239 218.467647,274.206841 C226.381064,269.682256 235.459697,259.78009 227.642942,251.473189 C226.078546,249.476276 222.251969,243.259106 222.314905,244.344588 C220.861375,238.425057 217.614986,228.228517 216.603529,222.242905 C212.889878,200.266211 215.32394,179.684441 218.467647,157.489884 C222.832139,174.190477 237.874994,188.104336 253.177909,195.734585 C259.150259,198.194777 267.036601,203.272923 273.593433,201.670878 C279.511158,199.922938 290.258633,187.794398 291.525207,181.969097 C308.776314,184.016969 326.688139,182.373273 343.174504,176.959361 C345.290845,176.160084 347.795256,176.22774 347.14095,173.229112 C346.488307,170.684222 341.834732,171.333284 339.833815,171.805869 C342.892308,170.113309 350.832177,169.670209 350.773403,165.244749 C350.668066,164.32238 349.985974,163.795579 349.041683,163.954038 Z" id="ðŸŽ¨-Background" fill="#FFFFFF"></path>
                    <path d="M159.526758,0.236583409 C159.789184,0.342763902 159.968251,0.741177758 160.074409,1.33986509 C160.366521,1.43087694 160.616835,1.64631905 160.692119,1.97078578 C160.913494,2.92502326 160.654782,3.91991983 160.45527,4.87103157 L160.432543,4.98057612 C160.243739,5.90136007 160.012899,6.81645579 159.730762,7.71377575 L159.689519,7.94103068 C159.002827,11.6496853 157.678948,15.175899 156.124248,14.5768751 L156.483462,15.2299335 C162.58385,26.283978 180.009302,55.9644478 193.614561,51.7338851 C201.537208,48.563402 201.423925,38.257258 200.844689,31.0846235 C194.962076,34.6871759 193.86155,7.10963719 195.067522,4.06216226 C196.027691,3.35705743 196.490796,9.70086782 196.84798,10.5754348 C197.62742,14.055216 198.583315,17.4902024 199.480787,20.9410684 C201.377615,21.3160182 203.17161,22.0708952 204.757802,23.1528459 C204.833323,23.1962188 204.91122,23.2355624 204.985316,23.2805943 C205.937174,23.8588988 206.679803,24.596474 207.341924,25.4134476 C208.090253,26.249382 208.730287,27.1644777 209.334697,28.1051705 C210.663213,29.6123172 211.929744,31.1753984 213.238548,32.6986618 C213.859583,33.4215424 214.495342,34.122381 215.14535,34.8054439 L215.646558,35.2260226 C215.730287,35.2957914 215.8142,35.3652616 215.898429,35.4342315 C230.929133,44.803949 241.334731,58.8233291 241.363942,77.0840036 C241.408353,88.4920073 243.05083,99.8860273 246.17714,110.857696 C248.681941,121.578133 256.775104,132.535581 252.400075,143.731223 C257.340092,142.941269 257.798921,149.282709 260.888183,151.678881 L261.858861,151.941164 C266.198783,153.107294 270.179235,154.079915 274.619583,154.756693 C278.712,155.247304 283.443026,154.708343 287.288455,156.55157 C288.599396,157.480412 288.130355,159.15631 288.232475,160.539026 C297.937479,156.575034 306.653815,151.098917 315.696699,145.947267 L315.999557,145.839055 C319.346694,144.652734 325.317428,142.870142 328.067522,145.474906 C329.676037,147.36435 328.052085,149.05115 326.622161,150.316547 C323.931406,152.697787 321.077021,154.882071 318.320244,157.183438 C325.748743,157.802627 333.200379,157.30866 340.546907,156.105483 L340.947522,156.039154 C342.747454,155.746684 344.869897,155.04703 346.655342,155.709947 C352.444858,158.936365 345.745757,162.702454 342.637259,164.587158 C345.00574,164.389965 347.370185,164.096073 349.743416,163.690312 C350.687437,163.529145 351.369506,164.065736 351.473963,165.005243 C351.533612,169.512937 345.586877,169.755872 342.528726,171.479883 L342.773867,171.422001 C344.773277,170.959647 347.648028,170.553515 348.274545,173.041779 C348.929065,176.096365 344.805062,177.330476 342.688794,178.144368 C326.202992,183.659118 308.291779,185.333356 291.0415,183.247431 C289.775206,189.180977 279.027623,201.534888 273.1101,203.315307 C266.553493,204.947358 258.66742,199.774614 252.695274,197.268707 C237.392882,189.496675 223.21429,176.675854 218.850185,159.66517 C215.182636,186.040594 216.665045,212.631223 222.170762,238.581925 C223.062059,240.605043 224.002517,242.596875 225.060533,244.53775 C225.380193,244.588944 225.650694,244.802253 225.713154,245.234086 C225.74569,245.470385 225.793425,245.700284 225.847335,245.927103 C226.900838,247.714159 228.055511,249.431296 229.127539,251.20816 C229.349116,251.575052 229.567844,251.956164 229.76781,252.34652 C236.904366,260.750895 228.20608,271.580594 220.426402,276.111278 C263.596037,346.355125 235.713832,434.876237 264.962314,509.299519 L265.027358,509.511468 C266.137557,513.051057 269.518733,520.336981 264.628641,522.004678 C263.076173,525.505316 255.252797,525.918425 251.776427,527.014596 C253.659956,532.462035 255.754375,537.84951 258.563874,542.899482 L258.614697,542.921761 L258.614697,542.921761 C259.733747,542.100047 262.13334,541.251077 263.125096,542.146501 C263.366385,542.176839 263.606724,542.244624 263.841364,542.360995 C265.376258,543.122983 266.610965,544.578935 268.079125,545.495453 C268.873052,545.991278 269.698327,546.441597 270.548302,546.834797 C271.339379,547.20074 272.180092,547.442016 272.825588,548.045444 C273.029591,548.235763 273.081126,548.47775 273.030779,548.70054 C273.540431,548.964806 274.049608,549.229783 274.557123,549.495945 L274.832805,549.32353 C279.318973,546.532741 282.926534,545.020878 276.400516,550.382363 C278.738836,551.461943 281.137004,552.406191 283.550372,553.290713 C285.383552,552.410458 287.33999,551.76816 289.357225,551.679756 C289.719871,552.127942 286.947182,553.858352 286.489778,554.335216 C298.764892,558.579829 312.266402,561.90342 321.485978,571.656383 L321.692874,571.889413 C323.262726,573.644563 325.55911,575.989329 324.538192,578.413539 C327.20496,579.536492 328.516614,583.219391 327.751186,586.13651 C323.903858,598.916091 264.925028,593.872755 251.678582,594.206702 C241.203399,592.872098 212.80893,595.060175 206.983552,587.09806 C205.022127,584.891734 205.477632,580.601615 208.267182,579.44074 C206.331169,577.954924 208.450762,572.386374 208.455511,569.885681 L208.499976,569.596616 C208.796574,567.729447 210.081972,560.422297 211.416054,555.315964 C211.443366,554.913758 211.496801,554.501834 211.561398,554.086356 L211.603257,553.82273 C211.868562,552.195176 212.275681,550.539829 213.328556,549.230494 C214.084723,548.290986 215.132526,547.710786 216.269388,547.501032 C216.574087,545.556839 216.824163,543.607905 217.038853,541.656128 C217.190134,539.360923 217.247606,537.061688 217.22172,534.76198 C217.208183,533.600394 217.177547,532.439756 217.120787,531.279355 C217.078989,530.425881 217.127912,529.411479 216.910846,528.539045 C216.766215,528.686702 216.560312,528.7661 216.32971,528.687176 C215.839769,528.51961 215.388777,528.210549 214.938972,527.957422 C214.92211,527.947942 214.908573,527.936802 214.894087,527.926374 C212.492119,529.483767 210.753934,522.819282 209.819651,521.010184 C188.296224,459.35487 205.290253,388.398571 170.399498,330.579263 C165.582738,340.902472 161.443535,350.372682 156.807267,360.767942 C142.328014,393.231679 124.453374,450.415562 112.466097,484.790075 C109.204655,491.816711 105.371101,498.608233 100.814154,504.8826 C99.3573944,506.53219 98.379888,508.959409 96.2709822,509.845827 L96.0864529,509.874031 L96.0864529,509.874031 C95.5236031,510.924222 94.7422629,511.808981 93.5804648,511.779355 C93.2954775,511.772007 93.0047905,511.740011 92.7112536,511.689528 C91.6814996,518.84249 90.3867074,526.040248 88.6653842,533.078972 L88.8976174,532.981917 C90.0242321,532.51689 91.2090872,532.120771 92.365469,532.224314 C95.1716438,532.933448 94.1326277,535.383894 91.9144767,536.192098 C94.6755284,537.048653 96.5438575,539.464496 98.5941035,541.475763 C100.326826,540.543129 102.269014,540.059391 104.344434,540.26322 C104.662195,540.294268 104.904434,540.432919 105.072814,540.623238 C105.191796,540.624186 105.307454,540.630822 105.417174,540.649072 L105.191321,540.785116 L105.191321,540.785116 C105.559905,541.404186 105.296767,542.346775 104.344434,542.351752 C103.596818,542.356018 102.876987,542.423566 102.180906,542.552263 C101.697615,542.834304 101.216699,543.119428 100.742433,543.417349 C102.342399,544.82827 104.04591,546.129692 105.800007,547.319719 C106.726453,546.846884 107.706097,546.450366 108.725164,546.132773 C110.040617,545.722272 110.614867,547.810804 109.293476,548.189546 C109.013001,548.269892 108.735138,548.359245 108.459176,548.45476 L108.188153,548.618752 C108.124677,548.656731 108.058768,548.695847 107.989897,548.736328 C120.576122,557.67445 141.85066,556.542016 147.60574,573.279191 C147.796207,573.910585 147.698124,574.455708 147.430473,574.884459 C148.677768,576.027085 149.253204,578.081251 148.972254,579.65713 L148.996229,579.789615 C149.210205,581.065185 148.902393,582.184676 147.530694,582.475417 C138.377615,583.327231 129.24686,583.868325 120.053883,584.035417 L119.312043,584.041476 C106.141147,584.129907 42.077963,583.651849 39.188268,575.20466 C38.4176149,573.640868 38.1801255,571.214359 39.3077252,569.820029 C39.4385818,569.069655 39.6962578,568.386356 40.1543749,567.851187 C38.2988702,565.979519 39.211542,561.261123 38.9845021,558.884861 C39.3917964,550.951187 41.0033995,542.444186 45.8586327,535.952007 C45.9379542,535.849382 46.0338999,535.7861 46.132933,535.755289 C46.9807701,534.904423 48.0948329,534.366647 49.368726,534.294359 C49.4083868,534.195763 49.44876,534.096693 49.4874707,533.998097 C50.4778015,531.665444 51.418497,529.290366 52.3530178,526.903912 C53.0464869,524.192281 53.7698796,521.487996 54.4944597,518.797459 C55.2185649,516.110239 55.9269958,513.41899 56.6199898,510.723475 C57.1719152,508.574742 57.6466565,506.153211 58.6018388,504.099756 C58.5759525,504.012062 58.5510161,503.924605 58.5225174,503.836912 L57.528559,503.43516 C51.0180804,500.792137 40.7023342,496.334181 42.9688617,493.390221 C67.121296,443.265207 90.7631281,371.90528 112.927539,319.940357 C113.273798,318.921451 113.640007,317.90847 114.042076,316.90497 C115.020928,314.461989 116.01248,312.022629 117.018104,309.590045 L117.623179,308.131333 L127.27926,284.926155 L127.27926,284.926155 C128.290015,282.497276 129.429489,280.081196 130.226029,277.571497 C130.993595,275.154232 131.199735,272.749054 129.74155,270.549127 C128.436784,268.580521 126.598141,266.951314 125.127131,265.102399 C124.014731,263.703803 122.930355,262.210166 121.958548,260.640923 C121.076037,259.478388 120.338395,258.148288 119.680312,257.076292 C118.625622,255.35868 117.284519,253.456675 116.519091,251.471953 C115.531847,250.850275 114.542704,250.231679 113.549998,249.619719 C111.835562,248.659829 110.148675,247.654906 108.506673,246.567741 C106.432916,245.336 104.345859,244.126301 102.242416,242.943384 C101.483162,242.567012 100.723433,242.192062 99.9627549,241.818297 C97.6838066,242.01549 91.3879627,239.210002 89.2431959,237.311789 C88.9981069,237.26249 88.7542053,237.206793 88.5117286,237.146119 C88.4148329,238.358425 88.0182256,239.456255 87.0941544,240.270385 C80.9486412,243.316201 73.1157659,229.521743 70.9569873,224.919008 C66.6669788,229.104842 76.9032468,249.810275 80.2098117,254.043037 L80.3862139,254.305405 C81.2706515,255.629062 82.197811,257.115063 83.4522871,258.092981 L83.5788363,258.189054 C84.4387854,258.824241 84.5983783,259.817076 83.8968346,260.651825 C77.941313,266.021998 71.6896421,254.230275 68.4270127,250.345444 C54.9979372,230.602509 46.4172078,206.578461 46.793391,182.56105 C40.6842137,180.519446 32.2267413,179.522108 32.5371399,171.243821 C32.2248414,164.995052 31.0934419,158.813119 30.8728794,152.55961 C30.8098796,151.121433 35.2856047,151.834833 36.2956472,151.98652 C34.8077761,137.618024 37.0558507,123.030057 41.0653842,109.220667 C51.5918643,73.8857903 94.9391416,10.1997739 137.604349,7.90053965 C137.567064,7.83109572 137.584638,7.73747675 137.680346,7.7125907 C139.611372,7.21178851 141.745452,7.2918979 143.729913,7.35494257 C145.795359,7.42035734 147.894765,7.43457794 149.949286,7.6675588 C152.078616,7.908835 154.33334,8.69049407 155.763739,10.2372215 L156.259194,9.3443563 C156.834353,8.30201416 157.388536,7.24907809 157.807098,6.09878943 C158.019176,5.51764084 158.185181,4.91516135 158.336699,4.30628259 C158.507929,3.43787785 158.550914,2.5339216 158.962483,1.74515223 C158.973408,1.72453236 158.986945,1.70746764 158.998819,1.68826983 C159.146775,1.1912598 159.316105,0.704441203 159.526758,0.236583409 Z M211.891033,579.410403 C211.28116,580.029473 210.224095,580.299191 209.287912,580.003402 C206.176563,588.831314 223.056597,588.277659 228.474205,588.774195 C234.251135,589.388999 339.481737,594.854924 321.685469,581.911333 C300.806826,589.858279 230.974731,590.734742 211.891033,579.410403 Z M263.138158,544.405444 C261.733408,545.852153 259.61524,546.495635 258.10837,547.876219 C253.848522,551.474742 250.421788,556.537276 244.534426,557.490768 C236.799871,558.932263 229.827182,555.12043 222.908641,552.101634 C222.047267,552.060394 221.148607,551.697057 220.265622,551.427577 C220.234273,551.49157 220.203162,551.555799 220.167539,551.614815 C220.124553,551.597987 220.078718,551.583767 220.02742,551.575471 C219.950473,551.562673 219.877564,551.554614 219.80228,551.543475 C219.624638,551.401743 219.437496,551.282764 219.243705,551.182035 C219.126623,551.164259 219.010253,551.150038 218.894595,551.142928 C217.468709,551.055945 215.920991,551.386811 215.005944,552.567358 C214.927573,552.667851 214.856563,552.773794 214.787929,552.881634 C214.344536,554.45064 214.287776,556.349327 214.501754,557.677057 C214.571101,558.110549 214.390134,558.537167 214.083773,558.783183 C213.810422,565.350968 213.06993,571.946246 212.552916,578.427048 C215.140601,579.355654 217.825656,580.062655 220.513086,580.510366 C239.05792,582.787085 257.800821,583.844624 276.488149,583.272481 C287.612628,582.870986 298.721432,581.878388 309.73049,580.228088 C313.289269,579.893429 316.931881,578.518534 320.488285,579.073849 C320.639803,578.788252 320.876105,578.543894 321.204316,578.377276 C312.088522,565.911497 296.507318,562.541925 282.923637,557.076474 C280.680075,558.508726 279.298836,561.491497 276.799973,562.380047 C275.829829,562.525335 274.480889,561.95414 274.623145,560.725243 C275.026402,558.209145 277.748031,557.061542 279.580736,555.601087 C277.614087,554.683858 275.68496,553.686994 273.803094,552.578735 C271.954477,554.242545 269.766724,555.508653 268.035902,557.283147 C269.01982,559.681925 264.918141,559.474304 264.872305,556.921469 C265.156105,554.097258 269.636818,552.901542 271.638141,551.254797 C268.512305,549.355161 265.72038,546.959227 263.138158,544.405444 Z M42.9018897,569.085772 C42.7928821,569.300503 42.6150025,569.495799 42.3516268,569.64796 C41.8957006,569.911397 42.1148068,571.30385 42.1377134,571.773336 L42.1390738,571.807595 C42.1640102,572.650403 42.2167328,573.49084 42.2898796,574.330093 C43.0593452,575.02311 44.0432638,575.549747 45.1364275,575.866866 C78.4288787,581.171387 112.360176,581.602035 145.973951,579.676328 C145.819345,578.784222 145.166012,578.049491 144.587725,577.30528 C123.337649,579.109163 101.576495,577.221615 80.2907956,575.464423 C67.8468261,573.83095 54.8086582,573.15476 42.9018897,569.085772 Z M91.3718134,536.442381 C85.8848584,538.328033 80.7793113,540.944861 75.9160034,544.079792 C74.1087091,545.253703 72.3838236,546.59992 70.3062663,547.273265 C63.1127125,549.435034 52.3276064,539.050439 52.1547142,538.934067 C49.6565632,537.254614 47.0076064,538.820303 45.6484546,541.147978 C45.5228227,541.363183 43.4393282,553.26796 43.5022629,559.099355 C43.1284546,561.081706 44.1259101,564.322345 43.5951213,566.483639 C44.0123902,566.985389 44.6073011,567.221214 45.0079457,567.745954 C45.1530517,567.935799 45.1119661,568.150768 44.9865717,568.312645 C64.4122545,569.908908 83.7248923,572.937896 103.242958,573.577349 C116.601262,574.282928 129.984977,574.120576 143.345418,573.958935 C140.305791,565.047358 129.952204,562.693612 122.043807,559.759902 C116.068573,557.61662 110.567369,554.42291 105.72686,550.317896 C103.627691,551.789254 101.97239,553.851242 100.485232,555.922946 C99.8095742,556.764806 98.4219237,557.400704 97.6982935,556.233903 C96.9530517,555.023493 98.4079118,553.493356 100.204282,552.153065 C101.149014,550.755891 102.340499,549.565626 103.712475,548.584879 C102.19563,547.23487 100.73507,545.828215 99.366894,544.332919 C96.5296081,546.252226 94.4451637,549.01363 92.4041798,551.693502 C91.4233486,552.761706 89.5889805,551.349127 90.3935946,550.145116 C91.0383783,549.31487 91.7641459,548.549327 92.5412112,547.831898 C93.7125089,545.625335 95.3989211,543.588233 97.4448923,542.177076 L97.2888488,541.979245 C95.579841,539.789139 94.1023687,537.161713 91.3718134,536.442381 Z M43.0275216,567.687413 C42.9804987,567.745243 42.9311009,567.801178 42.8783783,567.854979 C42.9254012,567.950731 42.9614996,568.051223 42.9880984,568.153375 L43.4865886,568.193192 L43.4865886,568.193192 C43.3134589,568.049801 43.1609907,567.875362 43.0275216,567.687413 Z M249.951321,527.375562 C239.773713,529.294396 229.25982,530.032445 218.986979,528.447559 C220.176801,535.072226 220.921805,541.73837 220.53161,548.4659 C235.891237,552.893247 242.273052,560.275635 255.052594,545.521761 C254.435121,544.582964 254.078887,543.430385 253.664231,542.318808 C251.89826,537.494706 250.43865,532.504933 249.951321,527.375562 Z M63.0162918,505.647668 C62.8711858,505.968343 62.6094724,506.231898 62.2323393,506.34827 C62.0979203,506.941506 61.958989,507.534268 61.8107956,508.125608 C61.5614317,511.177823 60.4077082,514.203493 59.2145615,517.019409 L58.9711349,517.602691 L58.9711349,517.602691 C58.184095,519.944587 57.3590568,522.28198 56.5451807,524.621743 C55.9286582,527.052518 55.3855199,529.503201 54.8179203,531.94559 C54.7084377,533.602527 54.4728482,535.245243 54.1106768,536.868525 C54.0938151,536.944605 54.0712536,537.014286 54.0463172,537.081123 C54.6151043,537.33425 55.1641798,537.627668 55.6819067,537.924168 C71.265011,549.613739 68.5737812,541.798334 83.5358507,535.253776 C83.4498202,534.625067 83.7651137,534.057524 84.0222989,533.406794 L84.0554775,533.321433 C84.0711518,533.28043 84.0865886,533.238954 84.1022629,533.197714 C84.077564,532.949564 84.0920509,532.683165 84.1578355,532.399701 C85.6732553,526.210895 87.7833486,520.129692 89.7583104,514.074323 C90.0744088,513.162545 90.44038,512.271387 90.8144258,511.381652 C81.3276743,511.259829 71.9439932,508.737805 63.0162918,505.647668 Z M58.9122375,508.65414 C58.7286243,509.462886 58.5287842,510.260662 58.346517,511.031348 L58.0779372,512.180613 L58.0779372,512.180613 C58.4600577,511.018552 58.7614317,509.840139 58.9122375,508.65414 Z M149.157734,9.41053054 C145.855919,10.2125725 142.472407,10.5401203 139.151593,11.2054075 C116.264977,13.9303118 98.7183104,30.1335023 83.6037727,46.2217429 C54.9722884,76.2454622 38.3140696,113.187978 39.5435522,154.941324 C49.7681832,156.800904 59.887369,159.522964 70.3048414,160.117623 C68.7908465,157.828106 71.3262833,154.964314 72.1990568,152.772208 C87.2670466,123.707668 98.9014148,91.6226727 108.34898,61.0234932 L108.092227,62.3590669 C105.125768,77.7164067 101.670371,93.0084971 96.3961391,107.760448 C97.9239084,106.260886 123.021313,86.333083 121.059651,92.9224357 C113.39183,98.9057539 104.731304,103.647139 96.6968007,109.137951 C106.249812,140.997076 92.4390908,173.277604 89.8150704,205.149765 C89.1557998,212.236602 89.2130348,219.372737 88.3269618,226.432791 C87.9899644,227.231041 88.3447735,228.855034 87.8486582,229.614651 C88.2160543,231.488452 88.9888448,233.195872 90.5835861,234.658461 C91.2549686,235.274213 91.9878609,235.807486 92.7582765,236.283402 C94.6817031,236.573028 96.6136794,237.312737 98.1801595,237.997459 C101.665791,239.521433 104.733442,241.768288 107.849065,243.914651 L107.932424,243.971059 L107.932424,243.971059 C112.956037,246.548069 117.974426,249.47538 123.011338,252.528306 L123.236241,252.645863 C125.109795,253.627559 127.025384,254.513028 128.657886,255.874177 C128.732221,255.93651 128.781856,256.007613 128.814392,256.082035 L131.873828,257.968352 C156.379474,273.066723 181.646483,287.998355 210.377988,277.220959 C218.45049,273.97487 230.186029,267.397841 228.678921,257.227978 C228.381822,256.252445 227.92988,255.336401 227.418802,254.444532 C227.276784,254.253028 227.130728,254.064605 226.983722,253.879263 C225.870372,252.474742 224.624265,251.185644 223.657445,249.668306 C223.264163,249.051132 222.911491,248.415471 222.602992,247.761324 C222.384977,247.695198 222.191186,247.542089 222.069116,247.27569 C220.686215,244.264715 219.331576,241.248525 218.070032,238.183985 C202.77524,184.952244 221.340024,127.757459 226.592102,74.06734 C226.956173,70.9928459 227.492187,67.8870665 227.490762,64.7902935 C227.490762,64.6450064 227.701652,64.6497466 227.713289,64.7902935 C229.565707,78.4937393 228.160482,92.3246964 226.39926,105.966283 C224.144299,123.031953 221.181618,140.026757 219.146097,157.123238 C224.557293,174.356237 239.711491,186.808507 255.623993,194.275508 C258.331372,195.559628 261.099549,196.703912 263.92211,197.711679 L264.111485,197.777226 C267.212875,198.860523 270.713148,200.535412 273.705249,198.34023 C279.447267,194.449947 283.500974,188.513557 287.222195,182.796638 C285.71675,182.633812 284.209405,182.492791 282.700872,182.389218 C278.996987,186.618662 274.458802,190.209127 269.669591,193.143311 C267.717903,194.260102 265.500702,193.787741 264.59848,191.601798 C263.746925,189.539329 264.789624,187.129994 265.544603,185.14131 L265.653645,184.851041 C269.4758,174.561251 276.112441,165.131333 285.073154,158.687504 C278.312543,157.338206 271.290456,157.379209 264.805096,154.712372 C265.158718,155.083293 264.695376,155.498297 264.470236,155.812809 C264.55027,156.422636 264.106402,156.868452 263.560889,157.031752 C258.26915,163.933958 254.258667,172.10796 253.421279,180.861688 C253.644044,183.843274 250.971576,187.286556 248.398141,184.156128 C246.385418,175.441743 254.30284,161.823147 261.264841,156.445863 C254.283366,151.662053 256.318412,144.758425 251.935308,144.726665 C250.802721,146.896966 249.324824,148.974833 247.462195,150.586975 C246.620295,151.270275 245.597903,151.785535 244.694256,152.391807 C243.743824,153.029601 242.754443,151.626501 243.507047,150.856219 L243.70558,150.617957 C246.564296,147.204461 249.958878,143.84899 250.54932,139.231114 C251.402857,133.543821 248.842483,127.782345 246.879871,122.587322 C243.117327,112.627923 240.621788,102.265371 239.40608,91.6906946 C238.028879,82.2159818 239.703654,72.388124 236.454561,63.2196281 C235.808828,60.6663191 234.880007,58.3407767 233.741483,56.1825634 C233.714409,56.1600474 233.687573,56.1370574 233.663111,56.1088532 C232.311559,54.5481422 231.231932,52.8120438 229.971813,51.1773856 C228.653985,49.4673582 227.225249,47.8400474 225.711966,46.3001933 C223.182941,43.7272124 220.390779,41.5803756 217.480109,39.5131741 C217.426198,39.4937393 217.371813,39.4686162 217.317191,39.4363829 C216.771915,39.1147603 216.248251,38.7241677 215.742874,38.2949426 L215.693713,38.2608131 C214.001126,37.0864284 212.273866,35.8117885 210.952712,34.2174221 C209.65602,32.6519708 208.733137,30.8265196 207.674409,29.1022716 C206.227148,27.3398651 204.847573,25.4516062 203.102263,23.9830921 C202.11502,23.4204303 201.08764,22.8902388 200.206555,22.1865561 C200.062399,22.1263555 199.915868,22.0692361 199.766724,22.0151978 C200.142195,23.5434385 200.71027,24.949619 201.222059,26.5020346 C201.963501,26.1896554 202.978293,26.5359271 203.102975,27.6761823 L203.148982,28.1018408 C203.893493,35.0847403 204.270355,43.5346655 200.156682,49.580649 C191.098361,62.6918067 177.568353,51.4978232 170.725571,42.2786071 C164.584807,34.925845 159.422263,26.747103 155.609846,17.9573491 L155.546724,17.8411582 C154.836803,16.4960595 153.298283,12.3942781 152.863518,10.4232744 C151.76418,9.84544394 150.42664,9.5655351 149.157734,9.41053054 Z M120.156716,253.778771 C120.129167,253.813375 120.097818,253.843238 120.06362,253.869309 C121.348438,255.690968 122.572458,257.574724 123.834002,259.402545 C122.799735,257.715034 121.827454,256.014487 120.966555,254.295216 C120.697242,254.121725 120.426504,253.950603 120.156716,253.778771 Z M48.2563257,183.01445 C53.1661815,209.622381 60.1828058,237.61682 79.733883,257.510968 C73.6491671,248.955854 68.9174283,238.968489 67.5407023,228.507577 C67.4837048,225.700193 68.5079966,222.734487 71.6200577,222.318771 C72.1511912,222.247668 72.5546588,222.722601 72.7443643,223.144906 L72.7626192,223.186939 C73.986877,226.104058 75.5787684,228.878261 77.4637218,231.420193 L77.6485325,231.660712 C79.0709556,233.496712 85.1084224,240.981071 85.9506429,237.403511 C85.3341204,219.318935 66.6097439,211.862837 63.5432807,186.95569 C58.296665,186.401087 53.3179372,184.411861 48.2563257,183.01445 Z M88.5091162,235.793028 C88.5293028,236.076966 88.5390399,236.35806 88.5347651,236.634888 C88.8128651,236.520175 89.0988024,236.428215 89.3911518,236.356875 C89.0942901,236.173666 88.8007532,235.985006 88.5091162,235.793028 Z M88.2314911,233.844332 C88.334324,234.364095 88.4212451,234.888361 88.4746802,235.407413 C89.0090314,235.577112 89.5376828,235.762691 90.0634843,235.955617 C89.7447735,235.67002 89.4414996,235.367358 89.1572248,235.045262 C88.8259271,234.669601 88.5152909,234.266447 88.2314911,233.844332 Z M95.4675556,110.399318 C91.6323393,121.083019 87.336631,131.602235 82.5405327,141.892263 C79.3201764,147.913739 77.1716098,154.930184 72.7153588,160.155544 C72.6718982,160.197495 72.6282002,160.236128 72.5835522,160.27239 L72.6573535,160.275175 C73.9852553,160.333884 81.2003182,161.04273 77.4967328,162.671406 C76.0587345,168.327176 74.1747311,173.853776 72.599464,179.472335 L72.5643421,179.635179 C71.9879894,182.352607 71.2592258,187.826626 67.3915589,185.999592 C66.9719152,186.319792 66.4682002,186.545189 65.9264869,186.695927 C67.6649092,201.923584 77.314341,211.836766 84.9422629,224.269601 C83.2371191,217.708083 83.7354368,210.855954 84.3291507,204.156416 L84.4763087,202.507814 C87.6280305,171.789892 99.1942392,141.583438 95.4675556,110.399318 Z M127.499936,208.041572 C121.283176,200.306512 90.7054656,123.726676 112.314388,170.121626 C119.994558,186.272912 126.316288,203.563978 138.986585,216.650724 C139.862684,217.590232 138.708485,219.24148 137.569961,218.482811 C133.480156,215.757433 130.170029,212.142319 127.499936,208.041572 Z M105.369415,115.483349 C105.343766,115.359156 105.503121,115.290897 105.573181,115.397314 C113.881272,131.767834 119.813282,149.36014 129.200526,165.234835 C134.867023,175.064589 141.666582,184.227634 149.452909,192.490277 C150.037846,193.111006 149.15771,193.968272 148.524088,193.417223 C126.29698,172.950933 115.4905,143.200013 105.369415,115.483349 Z M269.192475,182.880303 L269.178938,182.882436 L269.178938,182.882436 L268.974608,183.41005 C268.905172,183.587955 268.834578,183.767668 268.763332,183.948507 C268.797293,183.933575 268.831491,183.919829 268.86569,183.905608 C268.938599,183.832372 269.011508,183.758188 269.084417,183.680211 C269.068031,183.410968 269.101517,183.141014 269.192475,182.880303 Z M36.3837557,152.629291 C35.2552061,153.071314 33.868743,153.154742 32.6212112,153.262582 C34.0178863,159.829892 35.22362,166.447212 36.4877761,173.032062 C37.0722375,175.053284 38.4463511,175.762892 40.3481662,176.403767 L41.8766869,176.89146 C49.0124223,179.173498 56.1884716,181.517448 63.5463681,182.917039 C64.06362,182.580959 64.7984122,182.597313 65.1418219,183.135799 C65.4997184,183.169218 65.8671145,183.18889 66.2302358,183.223256 C68.196173,175.977623 71.5602103,168.956438 76.0618219,162.9461 C63.4793961,163.350913 50.8060119,160.039172 38.8360712,156.336365 C38.3513554,156.571242 37.7129839,156.424295 37.5085055,155.868507 L37.3241584,155.815861 C35.3146451,155.220691 32.6501754,153.759324 36.8732214,154.50167 C36.6181578,153.908197 36.4766141,153.270166 36.3837557,152.629291 Z M325.705927,147.26765 C317.365537,145.891807 310.991796,152.635927 303.873764,155.731752 C299.612017,157.556255 288.255036,163.215107 284.126283,161.332773 C278.465723,166.770731 273.686487,173.124259 270.344536,180.253046 C271.255545,180.198771 272.166792,180.158479 273.078039,180.129564 C274.728353,179.600795 276.490049,179.573776 278.203535,180.082636 C295.367131,180.271296 312.542127,183.599865 329.636614,179.381324 L330.029975,179.308055 C333.541536,178.643125 345.530545,176.11397 346.213374,173.63549 C346.03407,172.55662 342.810388,173.696401 342.190779,173.818461 C337.263824,174.787121 332.257785,175.249054 327.265282,175.734213 C325.876682,175.868361 325.894256,173.712518 327.265282,173.575526 C333.274714,172.978735 338.968522,170.727376 344.482789,168.385006 C345.068913,168.12548 346.621856,167.588179 347.696258,166.891132 C342.601398,167.755745 337.351457,167.905772 332.196275,167.722326 C330.421517,167.493138 330.29636,164.8026 332.196275,164.85569 C335.676444,165.239646 339.001296,163.525116 341.842382,161.715307 L342.460691,161.31472 C347.196397,158.233793 346.86552,158.100269 340.880787,159.245426 C332.086317,160.843584 323.185927,160.784332 314.304774,160.174505 C313.037293,160.153174 312.162144,158.450968 313.210897,157.539191 C317.300227,154.015088 321.684282,150.872335 325.705927,147.26765 Z M285.391627,160.102691 L285.29497,160.194283 C285.090895,160.389722 284.923493,160.562611 284.829826,160.654657 L284.791966,160.691187 C284.666334,160.808981 284.544502,160.930804 284.420058,161.049783 C284.965333,161.232518 285.566894,161.242946 286.187454,161.146957 C285.812933,160.913265 285.534595,160.531442 285.391627,160.102691 Z M128.680038,131.893758 L128.726857,131.944005 C134.091798,137.737828 139.529689,147.134126 143.974456,154.543881 C144.560378,160.617335 131.418625,135.418595 128.700264,131.919119 L128.680038,131.893758 Z M263.70457,154.310403 C263.756501,154.374712 263.806638,154.440916 263.855191,154.508526 L263.92686,154.610932 L264.04228,154.539829 C264.084791,154.514469 264.129439,154.498826 264.175036,154.487212 C264.017818,154.429619 263.861313,154.369181 263.70457,154.310403 Z M239.158236,134.531229 C243.985445,135.287528 234.114436,141.272979 232.811569,142.130481 C231.977269,142.44689 224.044885,148.982915 224.526039,146.861438 L224.750543,146.575035 C228.444901,141.88281 233.479855,136.517136 239.158236,134.531229 Z M50.3237422,121.987876 C52.1091874,119.118159 61.8260662,122.896098 64.8975165,123.348551 C66.6240645,123.803373 68.3318507,124.341623 70.0769228,124.723683 C71.4405869,125.217375 77.7991281,124.738851 75.4655573,127.429152 C73.0305785,128.735314 69.8515454,127.725652 67.3579067,127.03216 C62.3965157,125.679544 57.4180254,124.101531 52.3374148,123.350921 C52.1849466,123.27484 52.1756845,123.326272 52.3091535,123.505688 C53.4020797,125.929353 55.7005021,128.203227 58.289374,128.984412 C58.4682036,129.03608 58.3929194,129.308879 58.2119525,129.262899 C55.3863036,128.703081 48.8054724,125.574075 50.3237422,121.987876 Z" id="ðŸ–-Ink" fill="#000000"></path>
                </g>
                <g id="Head" stroke-width="1" transform="translate(95.945717, 42.661805)">
                    <g id="head/Bangs-2">
                        <path d="M92.5094589,38.3210848 C78.2287464,28.8873747 49.6188736,29.911969 33.8985004,35.6916955 C18.5595352,40.5463719 13.1891874,54.0737192 10.6423511,68.6884686 C7.54667684,85.1139745 7.96275827,108.791987 30.2235895,108.505442 C33.3532248,110.015907 36.8203325,110.671003 40.0585004,111.921942 C44.4905276,113.45113 48.8361086,115.226335 53.3334453,116.565679 C62.1913249,119.412644 72.0480848,119.164968 80.4506972,114.999043 C85.0929993,112.76109 87.0144693,109.275894 90.0503768,105.562191 C98.8826368,94.7580442 103.326847,79.295925 102.928831,65.5580401 C102.230375,55.8844758 100.627084,44.6862261 92.5094589,38.3210848 Z" id="ðŸŽ¨-Background" fill="#FFFFFF"></path>
                        <path d="M110.580716,78.1410684 C109.115406,69.0635843 108.709299,59.8320438 106.790385,50.8256627 C104.985466,42.3504211 101.610741,34.3416153 95.7138796,27.880722 C90.4368651,22.1000474 83.6137947,17.8551978 76.2896217,15.165134 C62.0212587,9.9248423 45.6107413,11.1098924 31.8078575,17.2273582 C18.8884343,22.9509134 8.5837693,33.5405214 2.57766243,46.2489991 C-1.32428838,54.5064284 -3.28595081,63.2852799 -4.1575369,72.3461732 C-5.12411874,82.4119891 -5.22861408,92.5820893 -5.62284648,102.683457 C-5.67034436,103.930129 -5.73921628,105.176802 -5.75584054,106.423712 C-5.77483969,107.788653 -5.2214894,108.985553 -4.77025954,110.255927 C-4.73938592,110.345991 -4.69426293,110.431552 -4.63964037,110.512135 C-4.97925021,110.55456 -5.31886005,110.604332 -5.65846989,110.658844 C-6.03845293,110.718097 -6.02182867,111.334323 -5.65846989,111.407796 C-2.58298219,112.033502 0.578001696,112.121196 3.70573707,112.275253 C6.94746735,112.436419 10.1939474,112.52435 13.4404275,112.633138 C16.6061612,112.739792 19.7718948,112.846447 22.9376285,112.953101 C24.6000543,113.009984 26.2624801,113.066866 27.9249059,113.121378 C28.7157455,113.147449 29.5065852,113.176128 30.2997998,113.201962 C30.6940322,113.216419 31.0906395,113.227796 31.4848719,113.242253 C31.8054826,113.251734 32.3279593,113.455562 32.3612078,113.220923 C32.4205802,113.256711 32.4847023,113.287048 32.5535742,113.308616 C32.6295708,113.348908 32.7031925,113.39631 32.7744394,113.448452 C33.1615471,113.713903 33.7481459,113.680722 34.1400034,113.448452 C34.1756268,113.427121 34.2136251,113.40342 34.2516234,113.379719 C34.5437354,113.206702 34.7479763,112.955471 34.8619712,112.671059 C36.4863986,114.628762 39.3623953,112.429309 37.6999695,110.357841 C36.8070093,109.243894 27.9249059,81.9332288 31.6012417,61.1284886 L46.3445835,59.1802662 C48.1415867,58.9985585 50.7120136,58.726787 54.0558643,58.3649517 C54.8744111,55.6993789 55.4008459,53.9376044 55.6351688,53.0796281 C55.6612926,52.9848241 55.6874165,52.88765 55.7159152,52.7928459 C56.0673995,53.4116791 56.4212587,54.0276682 56.7774928,54.6438943 L58.5966616,58.3341404 C76.4970291,58.0355077 87.6416149,57.900412 92.030419,57.9288532 C92.142039,57.9288532 92.6716404,65.9160912 92.4317761,69.43332 C91.9472977,76.4962188 91.4319457,83.5543774 90.7147277,90.5983154 C90.2569621,95.1087203 89.1535819,99.5320091 87.5099315,103.68911 C84.913518,110.255927 77.3750729,116.497657 70.0246514,116.497657 C65.4492607,116.497657 55.1103172,112.799519 53.6046344,112.0527 C52.0989517,111.305881 51.2017808,113.344168 52.5739304,114.159482 C55.3534532,115.811041 63.015271,119.31445 70.0246514,119.31445 C80.2041235,119.31445 87.8886039,109.675253 88.8314368,108.293484 C98.100648,107.78652 107.581225,108.020923 116.838561,108.938151 C117.615152,109.013995 118.284872,108.080175 118.035508,107.366775 C114.710656,97.8700201 112.181394,88.0743956 110.580716,78.1410684 Z" id="ðŸ–-Ink" fill="#000000"></path>
                    </g>
                    <g id="face/Explaining" transform="translate(37.760814, 44.083865)" fill="#000000">
                        <path d="M21.2032672,51.0258177 C24.1115623,47.653165 29.0097812,47.4182881 33.0672875,48.2615697 C35.6711213,48.8029006 38.2063206,49.7044868 40.8510025,50.0386709 C42.0861849,50.1948605 43.3346667,50.2415515 44.5788736,50.2185615 C45.8009941,50.1960456 47.0250144,49.9502662 48.2428601,49.9960091 C48.4300017,50.0028824 48.5007735,50.2481878 48.3385683,50.347969 C46.6678304,51.3720893 44.4171433,51.7005852 42.4436064,51.9008587 C42.4497812,52.0466199 42.4585683,52.1888259 42.4787549,52.309464 C42.532665,52.6310866 42.5818253,52.9505761 42.621486,53.2743318 C42.7110195,54.0045597 42.81124,54.7324175 42.9112231,55.4612233 C43.1083143,56.8955581 43.1702694,58.3752019 43.516901,59.7846822 L43.5773808,60.0189262 C43.6576522,60.3151887 43.6759389,60.582299 43.6491026,60.8231012 L43.729374,60.7868387 L43.9829049,60.6642755 L44.1491366,60.5860021 C44.7556791,60.3053897 45.3344242,60.1010194 46.0475081,60.1691905 C46.5904088,60.2208587 47.046151,60.5903573 47.0494758,61.1688988 C47.0630127,63.7653437 43.5567193,64.60033 41.5511213,65.09734 L40.9629618,65.2419462 C38.4100756,65.8633419 35.8035386,66.4080732 33.1779576,66.538361 C28.9644207,66.7471668 24.2295946,65.5872397 21.4732926,62.1764284 C18.9015199,58.9940948 18.4301035,54.2415697 21.2032672,51.0258177 Z M40.3380254,61.9349152 C39.8959027,58.0258198 35.0823374,57.8108753 33.6976034,60.2898247 C33.0831248,56.8344337 23.9930551,59.991196 24.7038609,60.678051 C27.3979406,63.2818432 31.4863206,63.5162461 35.0009262,63.0346418 C36.7908838,62.7893364 38.5822663,62.3899745 40.3380254,61.9349152 Z M34.9959238,51.6890767 L33.7857515,51.515234 L33.3091158,51.4497203 C30.3089935,51.0487666 26.9350918,50.8416693 24.4685089,52.7612051 C23.5679491,53.4618067 23.0611467,54.3757174 22.8718677,55.3574129 C25.2058145,55.0121881 27.5483423,54.7488156 29.8978047,54.5295061 L30.5387379,54.4707584 C32.0087973,54.3385068 33.4781442,54.1991449 34.9467786,54.0529098 L35.9905742,53.9474699 L37.0338355,53.8393637 C37.4009941,53.8009681 39.8753961,53.6746418 40.3406378,53.7594913 C40.3902731,53.3423537 40.4551077,52.4395825 40.560078,52.0335843 C38.8021617,52.0931265 37.0518926,51.9628278 35.3042964,51.7310198 L34.9959238,51.6890767 Z M40.5665861,34.2164632 C42.3599585,35.3043501 45.0925072,37.84109 43.1632513,40.538094 C40.8923326,42.9161315 37.6227224,40.1895491 36.0115152,38.956422 C34.5175283,38.0007416 32.8389503,40.45868 34.2250722,41.574598 C45.8676895,50.1769329 50.5925102,34.5009305 41.4736488,32.937375 C40.4696294,32.7650779 40.0967341,33.8799135 40.5665861,34.2164632 Z M43.7759695,38.7994658 L43.8621768,38.7526882 L43.891307,38.7350966 C43.9417261,38.7025278 43.9096193,38.7060156 43.7949866,38.7456639 L43.7089975,38.7764758 L43.7089975,38.8371504 C43.731084,38.8236408 43.7545954,38.8134494 43.7759695,38.7994658 Z M20.8081861,29.1341924 L20.8078798,29.0807973 C20.8112047,27.569435 21.6932427,24.1186655 23.8734215,24.1186655 C25.2354178,24.1186655 26.0623238,26.4671516 26.2054742,28.8881035 L26.2104462,28.986812 C26.2736609,30.4919502 25.8597843,33.7819201 23.8734215,33.7819201 C21.8660376,33.7819201 20.8288257,30.6659089 20.8081861,29.1341924 L20.8081861,29.1341924 Z M52.9061347,28.6601724 L52.906441,28.6067773 C52.9031161,27.0954149 52.0210781,23.6446455 49.8408994,23.6446455 C48.512953,23.6446455 47.6936768,25.8771751 47.5208626,28.2326835 L47.5088466,28.4140835 C47.4228529,29.8684049 47.8098992,33.3079001 49.8408994,33.3079001 C51.8482832,33.3079001 52.8854951,30.1918888 52.9061347,28.6601724 L52.9061347,28.6601724 Z M22.0521018,13.814082 C23.8313723,13.5441276 26.1875047,14.0570173 27.0170551,15.8625597 C27.3865886,16.6669717 26.9488957,17.5564704 26.0172248,17.6010283 C23.7655878,17.7086308 21.7462154,17.2085397 19.7698287,18.6697065 C18.9192712,19.2986449 18.2041739,20.1694511 17.604088,21.0380585 L17.3770331,21.3686229 L17.1889783,21.6409603 C16.781504,22.2388188 16.395653,22.8883689 16.4559016,23.6097065 C16.4737133,23.8232525 16.2549856,24.0258961 16.0471824,24.0173637 C14.7519152,23.9642735 14.6125089,22.3435989 14.7827888,21.3701987 C15.0995997,19.5637083 15.975698,17.8679015 17.1899813,16.5020128 C18.4652994,15.0676281 20.1488617,14.1029973 22.0521018,13.814082 Z M46.5584427,16.0065433 C47.785313,15.219433 49.3546429,14.9170082 50.7919288,15.0329061 C53.6258897,15.2606727 58.38019,17.6649025 57.7544054,21.1193236 C57.5613265,22.1846837 56.0765428,22.7468715 55.2016319,22.1557685 C54.2609364,21.5203446 54.0319966,20.5327238 53.3318779,19.7022407 C52.7733028,19.0388496 52.0653469,18.5589043 51.3072807,18.150062 C50.5600891,17.7467957 49.6956659,17.5024298 48.8476887,17.413337 L48.7065344,17.3999253 C48.1961696,17.3565524 45.6189347,17.3681659 45.9972553,18.3282935 C46.071352,18.5162425 45.7911145,18.6650848 45.6623953,18.5228788 C44.872268,17.6506819 45.7671281,16.5142188 46.5584427,16.0065433 Z" id="ðŸ–-Ink"></path>
                    </g>
                    <g id="facial-hair/*-None" transform="translate(29.211196, 80.109389)"></g>
                    <g id="accessories/*-None" transform="translate(11.162002, 57.119417)"></g>
                </g>
            </g>
        </g>
    </g>
</svg>