<?xml version="1.0" encoding="UTF-8"?>
<svg width="321px" height="691px" viewBox="0 0 321 691" version="1.1" xmlns="http://www.w3.org/2000/svg" xmlns:xlink="http://www.w3.org/1999/xlink">
    <!-- Generator: Sketch 62 (91390) - https://sketch.com -->
    <title>peep-standing-22</title>
    <desc>Created with Sketch.</desc>
    <g id="Introduction" stroke="none" stroke-width="1" fill="none" fill-rule="evenodd">
        <g id="variations-standing" transform="translate(-2735.000000, -104.000000)">
            <g id="a-person/standing" transform="translate(2733.000000, 50.000000)">
                <g id="pose/standing/robot_dance-2" transform="translate(-28.736217, 150.264357)">
                    <path d="M84.3005511,214.236635 C84.3406881,216.960228 84.6141464,223.21471 85.2988517,225.851278 C77.6709066,213.645253 66.2410675,200.304544 64.5028232,185.354682 C65.044555,185.206694 67.4482024,184.985409 67.8678605,184.67105 C71.8143567,186.50136 71.0677133,180.868258 71.6510072,178.26287 C73.2260907,172.746809 76.5353323,167.32103 77.9731423,161.768437 C81.7526777,160.136841 74.1627322,159.44553 73.0600312,159.413186 C77.6444457,154.317589 79.7531862,147.312568 83.017352,141.368364 C87.8136143,131.266057 92.1092318,120.938974 95.9448167,110.449941 C96.7831829,117.022165 96.9335189,123.665592 96.4226617,130.274115 C94.8454407,158.580867 84.1936772,185.798415 84.3005511,214.236635 Z M349.041683,163.954038 C346.668608,164.352164 342.713927,164.729233 340.345602,164.922828 C343.454207,163.07274 352.641852,159.548144 346.851901,156.380586 C345.066632,155.729762 343.15091,156.658159 341.350679,156.945294 C333.874257,158.173645 324.642597,158.108829 317.079014,157.489884 C319.836123,155.230733 323.466281,151.976998 326.157127,149.638966 C327.5871,148.396654 328.973619,147.925676 327.365048,146.070701 C324.529803,143.434598 319.459428,145.375899 316.181249,146.534444 C307.138294,151.592113 296.927769,157.078392 287.222195,160.969837 C287.120546,159.612345 287.183343,157.857192 285.872356,156.945294 C282.026559,155.135926 279.195049,155.664822 275.102967,155.183161 C270.333542,154.469512 266.094211,153.657805 261.37086,152.398507 C258.281493,150.046281 256.397711,143.109497 251.457763,143.884807 C255.832942,132.89294 249.164438,121.425055 246.659314,110.899956 C243.533135,100.128675 241.890602,88.9422821 241.845952,77.7426256 C241.815315,59.8115875 231.411974,46.0533126 216.379806,36.8524314 C210.453768,32.8572078 206.474341,23.1394237 199.137567,21.1930029 C198.20444,17.6187088 198.147835,16.0486484 197.328468,12.44713 C196.917122,11.4126068 196.611463,5.79905005 195.576924,5.9900855 C194.436223,0.429581252 188.622522,-1.80048414 183.591849,-2.96507902 C177.05093,-4.31838247 167.922951,-5.95765738 162.042987,-2.13904269 C160.339893,-0.724310054 159.591776,1.64466905 159.466852,3.76095085 C158.813496,6.57901449 157.454527,9.49834081 155.870418,11.9434083 C153.166986,11.031519 154.696946,9.33216499 152.023143,8.93651048 C127.608673,5.32379216 100.508423,23.2052065 84.6677222,40.6491736 C55.9540352,70.0860833 33.0155753,110.272012 36.770411,152.226514 C35.7605716,152.077594 31.2846934,151.377209 31.3486005,152.789149 C31.5685029,158.928809 32.6999411,164.049693 33.0122503,170.184467 C32.7018411,178.311734 41.1593651,179.290878 47.2689886,181.295237 C46.8927926,204.874735 55.4733403,228.460283 68.9033497,247.843051 C72.1660906,251.657012 77.0618643,264.892119 83.017352,259.619913 C83.7191572,258.800392 78.2763551,253.123401 77.3080778,251.720768 C74.0016374,247.565223 65.2433404,226.989938 71.4331732,222.880466 C72.8092338,227.321981 86.1339036,248.678893 88.5091162,236.556869 C91.6637957,238.384852 96.876757,239.63225 100.64798,239.443308 C107.737518,243.277513 114.636109,247.418166 121.44445,251.720768 C124.615754,257.938843 129.26738,263.91097 133.164477,269.881002 C106.194022,332.077349 79.8688214,434.445991 45.1611722,493.027323 C42.1349788,496.852919 58.7826939,503.355104 61.7231506,504.758901 C56.099922,513.874619 55.3958901,524.437878 51.1178473,534.253749 C50.3029934,534.122282 49.4810145,534.295168 48.7459597,534.687942 C43.4687649,538.255954 41.4773482,551.029035 41.1764389,557.326922 C41.4201113,560.136376 40.3770222,564.384995 42.6536734,566.453809 C42.3354267,566.797719 42.0979292,567.217718 41.928831,567.646559 C40.3266728,568.891663 40.5240332,571.643178 41.3804492,573.349234 C44.3938177,579.593371 66.4195747,579.013982 73.5672999,580.349601 C98.8859599,582.490781 120.136434,582.827943 145.451769,580.487584 C148.558949,579.837924 146.209148,574.998049 144.674914,573.685233 C145.383607,573.254764 145.836752,572.468749 145.52658,571.458891 C139.771541,555.027051 118.971017,556.138826 106.384599,547.36376 C109.694127,545.452708 107.558074,546.062579 105.478783,546.805779 C103.271956,545.421295 101.125216,543.863228 99.1366497,542.141815 C100.663996,541.200366 99.9106541,540.578395 98.2583838,541.366737 C95.6542236,539.281635 93.6259948,536.05893 90.3086295,535.048373 C87.0594261,534.253749 87.0594261,532.866479 87.0594261,531.992039 C88.9931308,524.229391 91.1054094,516.268728 92.1910105,508.396253 C93.3490484,510.101378 103.340831,496.438504 105.478783,493.027323 C113.785734,479.892415 113.763272,466.949025 119.576499,452.66488 C131.513836,421.558446 155.966851,356.363282 170.87932,326.613177 C205.77103,383.377695 188.77642,460.150082 210.30082,520.680628 C211.25746,522.499071 213.056266,529.319339 215.547615,527.351744 C216.515892,527.578148 217.545444,527.699843 218.467647,527.830147 C218.201412,534.44728 217.704805,541.046728 216.603529,547.59452 C215.577777,547.865134 214.706161,548.40264 214.254441,549.342692 C212.526884,548.076181 209.219256,566.76089 208.936159,568.664264 C208.931884,571.119337 206.811981,576.586068 208.748061,578.045244 C205.958653,579.184709 205.502658,583.396796 207.464625,585.56264 C213.289964,593.379503 241.685404,591.231343 252.160944,592.5416 C265.408081,592.213512 320.826347,597.165309 324.674045,584.618864 C325.439024,581.754729 324.1278,578.139017 321.460703,577.036782 C322.528017,574.549365 319.972069,572.14781 318.408623,570.40243 C309.188494,560.827622 295.011278,559.319325 282.735506,555.152147 C283.193164,554.683982 266.711308,546.252605 263.138158,544.168434 C263.373993,541.337107 257.481259,544.175647 257.464871,544.168434 C254.655276,539.21082 252.665051,531.497334 250.781221,526.149273 C254.257947,525.073331 262.634822,524.117404 264.187343,520.680628 C269.177166,519.009708 264.171984,511.785096 263.138158,508.396253 C233.888676,435.330664 261.638758,343.169239 218.467647,274.206841 C226.381064,269.682256 235.459697,259.78009 227.642942,251.473189 C226.078546,249.476276 222.251969,243.259106 222.314905,244.344588 C220.861375,238.425057 217.614986,228.228517 216.603529,222.242905 C212.889878,200.266211 215.32394,179.684441 218.467647,157.489884 C222.832139,174.190477 237.874994,188.104336 253.177909,195.734585 C259.150259,198.194777 267.036601,203.272923 273.593433,201.670878 C279.511158,199.922938 290.258633,187.794398 291.525207,181.969097 C308.776314,184.016969 326.688139,182.373273 343.174504,176.959361 C345.290845,176.160084 347.795256,176.22774 347.14095,173.229112 C346.488307,170.684222 341.834732,171.333284 339.833815,171.805869 C342.892308,170.113309 350.832177,169.670209 350.773403,165.244749 C350.668066,164.32238 349.985974,163.795579 349.041683,163.954038 Z" id="ðŸŽ¨-Background" fill="#FFFFFF"></path>
                    <path d="M344.482789,168.147996 C338.968522,170.490366 333.274714,172.741725 327.265282,173.338516 C325.894256,173.475508 325.876682,175.631351 327.265282,175.497203 C332.257785,175.012044 337.263824,174.550111 342.190779,173.581451 C342.810388,173.459391 346.03407,172.31961 346.213374,173.398479 C345.502093,175.98023 332.522823,178.616966 329.636614,179.144314 C312.542127,183.362855 295.367131,180.034286 278.203535,179.845626 C276.490049,179.336766 274.728353,179.363785 273.078039,179.892554 C272.166792,179.921469 271.255545,179.961761 270.344536,180.016036 C273.686487,172.887249 278.465723,166.533721 284.126283,161.095763 C288.255036,162.978097 299.612017,157.319245 303.873764,155.494742 C310.991796,152.398917 317.365537,145.654797 325.705927,147.03064 C321.684282,150.635325 317.300227,153.778078 313.210897,157.30218 C312.162144,158.213958 313.037293,159.916164 314.304774,159.937495 C323.185927,160.547322 332.086317,160.606574 340.880787,159.008416 C347.114884,157.815544 347.214154,158.010129 341.842382,161.478297 C339.001296,163.288106 335.676444,165.002636 332.196275,164.61868 C330.29636,164.56559 330.421517,167.256128 332.196275,167.485316 C337.351457,167.668762 342.601398,167.518735 347.696258,166.654122 C346.621856,167.351169 345.068913,167.88847 344.482789,168.147996 M269.084417,183.443201 C269.011508,183.521178 268.938599,183.595362 268.86569,183.668598 C268.831491,183.682819 268.797293,183.696565 268.763332,183.711497 C268.905825,183.34982 269.045707,182.992645 269.178938,182.645426 C269.18345,182.644715 269.187963,182.644004 269.192475,182.643293 C269.101517,182.904004 269.068031,183.173958 269.084417,183.443201 M228.111796,297.315143 C253.867759,368.616529 233.183858,448.704587 262.870745,518.814286 C262.548234,519.083767 262.31122,519.549254 262.295545,520.048634 C258.446555,520.419555 254.69826,522.188361 250.851881,522.863129 C239.664706,525.470239 228.151932,526.010622 216.701143,526.143821 C216.698056,526.142636 216.695206,526.141214 216.691881,526.140029 C216.37982,526.040485 215.924791,526.108744 215.478073,526.14951 C213.057106,516.714851 209.398582,507.587121 207.598412,497.969965 C189.065452,374.426356 207.921635,361.789218 121.849303,254.627267 C149.645537,273.672208 186.641635,296.051169 219.745282,276.289747 C222.756173,283.203329 225.667318,290.179956 228.111796,297.315143 M253.664231,542.081798 C254.078887,543.193375 254.435121,544.345954 255.052594,545.284751 C242.273052,560.038625 235.891237,552.656237 220.53161,548.22889 C220.921805,541.50136 220.176801,534.835216 218.986979,528.210549 C229.25982,529.795435 239.773713,529.057386 249.951321,527.138552 C250.43865,532.267923 251.89826,537.257696 253.664231,542.081798 M263.138158,544.168434 C265.72038,546.722217 268.512305,549.118151 271.638141,551.017787 C269.636818,552.664532 265.156105,553.860248 264.872305,556.684459 C264.918141,559.237294 269.01982,559.444915 268.035902,557.046137 C269.766724,555.271643 271.954477,554.005535 273.803094,552.341725 C275.68496,553.449984 277.614087,554.446848 279.580736,555.364077 C277.748031,556.824532 275.026402,557.972135 274.623145,560.488233 C274.480889,561.71713 275.829829,562.288325 276.799973,562.143037 C279.298836,561.254487 280.680075,558.271716 282.923637,556.839464 C296.507318,562.304915 312.088522,565.674487 321.204316,578.140266 C320.876105,578.306884 320.639803,578.551242 320.488285,578.836839 C316.931881,578.281524 313.289269,579.656419 309.73049,579.991077 C298.721432,581.641378 287.612628,582.633976 276.488149,583.035471 C257.800821,583.607613 239.05792,582.550075 220.513086,580.273356 C217.825656,579.825644 215.140601,579.118644 212.552916,578.190038 C213.06993,571.709236 213.810422,565.113958 214.083773,558.546173 C214.390134,558.300157 214.571101,557.873539 214.501754,557.440047 C214.287776,556.112317 214.344536,554.21363 214.787929,552.644624 C214.856563,552.536784 214.927573,552.43084 215.005944,552.330348 C215.920991,551.149801 217.468709,550.818935 218.894595,550.905918 C219.010253,550.913028 219.126623,550.927249 219.243705,550.945025 C219.437496,551.045754 219.624638,551.164733 219.80228,551.306465 C219.877564,551.317604 219.950473,551.325663 220.02742,551.338461 C220.078718,551.346757 220.124553,551.360977 220.167539,551.377805 C220.203162,551.318789 220.234273,551.25456 220.265622,551.190567 C221.148607,551.460047 222.047267,551.823384 222.908641,551.864624 C229.827182,554.88342 236.799871,558.695253 244.534426,557.253758 C250.421788,556.300266 253.848522,551.237732 258.10837,547.639209 C259.61524,546.258625 261.733408,545.615143 263.138158,544.168434 M321.685469,581.674323 C339.481737,594.617914 234.251135,589.151989 228.474205,588.537185 C223.056597,588.040649 206.176563,588.594304 209.287912,579.766392 C210.224095,580.06218 211.28116,579.792463 211.891033,579.173393 C230.974731,590.497732 300.806826,589.621269 321.685469,581.674323 M167.128081,330.051442 C165.919735,332.352098 164.639193,334.613411 163.451746,336.925207 C163.173883,337.466301 162.900533,338.008817 162.629795,338.552281 C162.262161,339.100011 161.896902,339.647504 161.535919,340.194997 C154.912577,350.362253 151.30535,362.751716 145.817445,376.191843 C132.151355,409.660029 119.175647,449.643621 109.372322,478.057805 C105.749422,485.88909 101.7558,493.594997 96.7457235,500.642253 C95.6359355,502.783402 92.8637218,504.524004 92.7608889,506.965681 C92.7309652,506.99507 92.7008041,507.024459 92.6708804,507.053849 C92.5027379,507.218808 92.3350704,507.384004 92.1664529,507.548252 C89.556207,506.183074 82.1814487,506.144915 79.6025513,505.283621 C68.4965971,503.114979 57.7613639,499.112117 47.970626,493.454213 C73.9562409,439.217076 100.29429,362.502855 121.750745,305.270859 C123.19943,301.718078 124.632679,298.159136 126.078989,294.605881 C128.210219,289.369619 130.590813,284.167723 132.449405,278.829072 C133.029354,277.162655 133.457547,275.37631 133.400312,273.60466 C145.366215,291.131314 157.903518,308.378534 168.424536,326.831424 C168.154036,327.964569 167.643196,329.070695 167.128081,330.051442 M89.7583104,513.837313 C87.7833486,519.892682 85.6732553,525.973885 84.1578355,532.162691 C84.0920509,532.446155 84.077564,532.712554 84.1022629,532.960704 C84.0865886,533.001943 84.0711518,533.04342 84.0554775,533.084423 C83.7932892,533.771278 83.4460797,534.360722 83.5358507,535.016766 C68.5737812,541.561324 71.265011,549.376729 55.6819067,537.687158 C55.1641798,537.390658 54.6151043,537.09724 54.0463172,536.844113 C54.0712536,536.777276 54.0938151,536.707595 54.1106768,536.631515 C54.4728482,535.008233 54.7084377,533.365517 54.8179203,531.70858 C55.3855199,529.266191 55.9286582,526.815508 56.5451807,524.384733 C57.3590568,522.04497 58.184095,519.707577 58.9711349,517.365681 C59.0521187,517.171333 59.1326277,516.976985 59.2145615,516.782399 C60.4077082,513.966483 61.5614317,510.940813 61.8107956,507.888598 C61.958989,507.297258 62.0979203,506.704496 62.2323393,506.11126 C62.6094724,505.994888 62.8711858,505.731333 63.0162918,505.410658 C71.9439932,508.500795 81.3276743,511.022819 90.8144258,511.144642 C90.44038,512.034377 90.0744088,512.925535 89.7583104,513.837313 M91.3718134,536.205371 C94.1851128,536.946501 95.6682341,539.713119 97.4448923,541.940066 C95.3989211,543.351223 93.7125089,545.388325 92.5412112,547.594888 C91.7641459,548.312317 91.0383783,549.07786 90.3935946,549.908106 C89.5889805,551.112117 91.4233486,552.524696 92.4041798,551.456492 C94.4451637,548.77662 96.5296081,546.015216 99.366894,544.095909 C100.73507,545.591205 102.19563,546.99786 103.712475,548.347869 C102.340499,549.328616 101.149014,550.518881 100.204282,551.916055 C98.4079118,553.256346 96.9530517,554.786483 97.6982935,555.996893 C98.4219237,557.163694 99.8095742,556.527796 100.485232,555.685936 C101.97239,553.614232 103.627691,551.552244 105.72686,550.080886 C110.567369,554.1859 116.068573,557.37961 122.043807,559.522892 C129.952204,562.456602 140.305791,564.810348 143.345418,573.721925 C129.984977,573.883566 116.601262,574.045918 103.242958,573.340339 C83.7248923,572.700886 64.4122545,569.671898 44.9865717,568.075635 C45.1119661,567.913758 45.1530517,567.698789 45.0079457,567.508944 C44.6073011,566.984204 44.0123902,566.748379 43.5951213,566.246629 C44.1259101,564.085335 43.1284546,560.844696 43.5022629,558.862345 C43.4393282,553.03095 45.5228227,541.126173 45.6484546,540.910968 C47.0076064,538.583293 49.6565632,537.017604 52.1547142,538.697057 C52.3276064,538.813429 63.1127125,549.198024 70.3062663,547.036255 C72.3838236,546.36291 74.1087091,545.016693 75.9160034,543.842782 C80.7793113,540.707851 85.8848584,538.091023 91.3718134,536.205371 M145.973951,579.439318 C112.360176,581.365025 78.4288787,580.934377 45.1364275,575.629856 C44.0432638,575.312737 43.0593452,574.7861 42.2898796,574.093083 C42.2167328,573.25383 42.1640102,572.413393 42.1390738,571.570585 C42.1264869,571.13899 41.8840102,569.681141 42.3516268,569.41095 C42.6150025,569.258789 42.7928821,569.063493 42.9018897,568.848762 C54.8086582,572.91775 67.8468261,573.59394 80.2907956,575.227413 C101.576495,576.984605 123.337649,578.872153 144.587725,577.06827 C145.166012,577.812481 145.819345,578.547212 145.973951,579.439318 M43.0275216,567.450403 C43.1609907,567.638352 43.3134589,567.812791 43.4865886,567.956182 C43.3205835,567.943384 43.154341,567.9294 42.9880984,567.916365 C42.9614996,567.814213 42.9254012,567.713721 42.8783783,567.617969 C42.9311009,567.564168 42.9804987,567.508233 43.0275216,567.450403 M58.2570042,511.177349 C58.4617201,510.289273 58.6980221,509.360667 58.9122375,508.41713 C58.7614317,509.603129 58.4600577,510.781542 58.0779372,511.943603 C58.1370721,511.688106 58.1978694,511.433083 58.2570042,511.177349 M120.06362,253.632299 C120.097818,253.606228 120.129167,253.576365 120.156716,253.541761 C120.426504,253.713593 120.697242,253.884715 120.966555,254.058206 C121.827454,255.777477 122.799735,257.478024 123.834002,259.165535 C122.572458,257.337714 121.348438,255.453958 120.06362,253.632299 M88.4746802,235.170403 C88.4212451,234.651351 88.334324,234.127085 88.2314911,233.607322 C88.5152909,234.029437 88.8259271,234.432591 89.1572248,234.808252 C89.4414996,235.130348 89.7447735,235.43301 90.0634843,235.718607 C89.5376828,235.525681 89.0090314,235.340102 88.4746802,235.170403 M88.5347651,236.397878 C88.5390399,236.12105 88.5293028,235.839956 88.5091162,235.556018 C88.8007532,235.747996 89.0942901,235.936656 89.3911518,236.119865 C89.0988024,236.191205 88.8128651,236.283165 88.5347651,236.397878 M84.4763087,202.270804 C83.8322375,209.490603 83.0969703,216.93177 84.9422629,224.032591 C77.314341,211.599756 67.6649092,201.686574 65.9264869,186.458917 C66.4682002,186.308179 66.9719152,186.082782 67.3915589,185.762582 C71.3381578,187.626902 72.0164275,181.889127 72.599464,179.235325 C74.1747311,173.616766 76.0587345,168.090166 77.4967328,162.434396 C81.2759016,160.772481 73.6862154,160.068325 72.5835522,160.03538 C72.6282002,159.999118 72.6718982,159.960485 72.7153588,159.918534 C77.1716098,154.693174 79.3201764,147.676729 82.5405327,141.655253 C87.336631,131.365225 91.6323393,120.846009 95.4675556,110.162308 C99.1942392,141.346428 87.6280305,171.552882 84.4763087,202.270804 M77.4637218,231.183183 C75.5787684,228.641251 73.986877,225.867048 72.7626192,222.949929 C72.5814148,222.51786 72.1688957,222.008288 71.6200577,222.081761 C68.5079966,222.497477 67.4837048,225.463183 67.5407023,228.270567 C68.9174283,238.731479 73.6491671,248.718844 79.733883,257.273958 C60.1828058,237.37981 53.1661815,209.385371 48.2563257,182.77744 C53.3179372,184.174851 58.296665,186.164077 63.5432807,186.71868 C66.6097439,211.625827 85.3341204,219.081925 85.9506429,237.166501 C85.064095,240.932354 78.4210416,232.441232 77.4637218,231.183183 M264.175036,154.250202 C264.129439,154.261816 264.084791,154.277459 264.04228,154.302819 C264.003332,154.325809 263.965571,154.350695 263.92686,154.373922 C263.856326,154.270585 263.782466,154.169856 263.70457,154.073393 C263.861313,154.132171 264.017818,154.192609 264.175036,154.250202 M286.187454,160.909947 C285.566894,161.005936 284.965333,160.995508 284.420058,160.812773 C284.544502,160.693794 284.666334,160.571971 284.791966,160.454177 C284.883637,160.368142 285.111152,160.128525 285.391627,159.865681 C285.534595,160.294432 285.812933,160.676255 286.187454,160.909947 M351.473511,164.768233 C351.369506,163.828726 350.687437,163.292135 349.743416,163.453302 C347.370185,163.859063 345.00574,164.152955 342.637259,164.350148 C345.745757,162.465444 352.444858,158.699355 346.655342,155.472937 C344.869897,154.81002 342.747454,155.509674 340.947522,155.802144 C333.471355,157.05332 325.883807,157.576875 318.320244,156.946428 C321.077021,154.645061 323.931406,152.460777 326.622161,150.079537 C328.052085,148.81414 329.676037,147.12734 328.067522,145.237896 C325.232373,142.552572 318.97429,144.530184 315.696699,145.710257 C306.653815,150.861907 297.937479,156.338024 288.232475,160.302016 C288.130355,158.9193 288.599396,157.243402 287.288455,156.31456 C283.443026,154.471333 278.712,155.010294 274.619583,154.519683 C269.850321,153.792773 265.61161,152.724569 260.888183,151.441871 C257.798921,149.045699 257.340092,142.704259 252.400075,143.494213 C256.775104,132.298571 248.681941,121.341123 246.17714,110.620686 C243.05083,99.6490173 241.408353,88.2549973 241.363942,76.8469936 C241.334731,58.5863191 230.929133,44.5669389 215.898429,35.1972215 C215.64574,34.9903118 215.395902,34.7788988 215.14535,34.5684339 C214.495342,33.885371 213.859583,33.1845324 213.238548,32.4616518 C211.929744,30.9383883 210.663213,29.3753072 209.334697,27.8681604 C208.730287,26.9274676 208.090253,26.0123719 207.341924,25.1764376 C206.679803,24.359464 205.937174,23.6218888 204.985316,23.0435843 C204.91122,22.9985524 204.833323,22.9592088 204.757802,22.9158359 C203.17161,21.8338851 201.377615,21.0790082 199.480787,20.7040583 C198.583315,17.2531923 197.62742,13.818206 196.84798,10.3384248 C196.490796,9.46385779 196.027691,3.1200474 195.067522,3.82515223 C193.86155,6.87262716 194.962076,34.4501659 200.844689,30.8476135 C201.423925,38.0202479 201.537208,48.326392 193.614561,51.4968751 C179.731644,55.8137758 161.871016,24.8213965 156.124248,14.3398651 C157.710677,14.9511139 159.056767,11.2670301 159.730762,7.47676572 C160.012899,6.57944576 160.243739,5.66435005 160.432543,4.74356609 C160.634171,3.75950046 160.922008,2.72471468 160.692119,1.73377575 C160.616835,1.40930902 160.366521,1.19386691 160.074409,1.10285506 C159.968251,0.50416773 159.789184,0.105753874 159.526758,-0.000426618049 C159.316105,0.467431176 159.146775,0.954249772 158.998819,1.4512598 C158.986945,1.47045761 158.973408,1.48752233 158.962483,1.50814221 C158.550914,2.29691158 158.507929,3.20086782 158.336699,4.06927256 C158.185181,4.67815132 158.019176,5.28063081 157.807098,5.8617794 C157.268947,7.34072197 156.506606,8.65873473 155.763739,10.0002115 C154.33334,8.45348405 152.078616,7.67182498 149.949286,7.43054877 C147.894765,7.19756791 145.795359,7.18334731 143.729913,7.11793254 C141.745452,7.05488788 139.611372,6.97477849 137.680346,7.47558067 C137.584638,7.50046673 137.567064,7.59408569 137.604349,7.66352963 C94.9391416,9.9627639 51.5918643,73.6487803 41.0653842,108.983657 C37.0558507,122.793046 34.8077761,137.381014 36.2956472,151.74951 C35.2856047,151.597823 30.8098796,150.884423 30.873552,152.3226 C31.0934419,158.576109 32.2248414,164.758042 32.5371399,171.006811 C32.2267413,179.285098 40.6842137,180.282436 46.793391,182.32404 C46.4172078,206.341451 54.9979372,230.365499 68.4270127,250.108434 C71.6896421,253.993265 77.941313,265.784988 83.8968346,260.414815 C84.5983783,259.580066 84.4387854,258.587231 83.5788363,257.952044 C82.1745615,256.914414 81.1778185,255.234961 80.2098117,253.806027 C76.9032468,249.573265 66.6669788,228.867832 70.9569873,224.681998 C73.1157659,229.284733 80.9486412,243.079191 87.0941544,240.033375 C88.0182256,239.219245 88.4148329,238.121415 88.5117286,236.909108 C88.7542053,236.969783 88.9981069,237.02548 89.2431959,237.074778 C91.3879627,238.972992 97.6838066,241.778479 99.9627549,241.581287 C100.723433,241.955052 101.483162,242.330002 102.242416,242.706374 C104.345859,243.889291 106.432916,245.09899 108.506673,246.330731 C110.148675,247.417896 111.835562,248.422819 113.549998,249.382709 C114.542704,249.994669 115.531847,250.613265 116.519091,251.234943 C117.284519,253.219665 118.625622,255.12167 119.680312,256.839282 C120.338395,257.911278 121.076037,259.241378 121.958548,260.403912 C122.930355,261.973156 124.014731,263.466793 125.127131,264.865389 C126.598141,266.714304 128.436784,268.343511 129.74155,270.312117 C131.199735,272.512044 130.993595,274.917222 130.226029,277.334487 C129.429489,279.844186 128.290015,282.260266 127.27926,284.689145 C126.186097,287.315927 125.092933,289.942946 123.999769,292.569965 C121.874239,297.678242 119.748709,302.786046 117.623179,307.894323 C116.409608,310.81002 115.216699,313.736383 114.042076,316.66796 C113.640007,317.67146 113.273798,318.684441 112.927539,319.703347 C90.7631281,371.66827 67.121296,443.028197 42.9688617,493.153211 C40.5830433,496.252117 52.1388024,501.02858 58.5225174,503.599902 C58.5510161,503.687595 58.5759525,503.775052 58.6018388,503.862746 C57.6466565,505.916201 57.1719152,508.337732 56.6199898,510.486465 C55.9269958,513.18198 55.2185649,515.873229 54.4944597,518.560448 C53.7698796,521.250986 53.0464869,523.955271 52.3530178,526.666902 C51.418497,529.053356 50.4778015,531.428434 49.4874707,533.761087 C49.44876,533.859683 49.4083868,533.958753 49.368726,534.057349 C48.0948329,534.129637 46.9807701,534.667413 46.132933,535.518279 C46.0338999,535.54909 45.9379542,535.612372 45.8586327,535.714997 C41.0033995,542.207176 39.3917964,550.714177 38.9845021,558.647851 C39.211542,561.024113 38.2988702,565.742509 40.1543749,567.614177 C39.6962578,568.149345 39.4385818,568.832645 39.3077252,569.583019 C38.1801255,570.977349 38.4176149,573.403858 39.188268,574.96765 C42.1369364,583.587231 108.781449,583.90909 120.053883,583.798407 C129.24686,583.631314 138.377615,583.090221 147.530694,582.238407 C148.949693,581.937641 149.230168,580.749984 148.972254,579.42012 C149.253204,577.844241 148.677768,575.790075 147.430473,574.647449 C147.698124,574.218698 147.796207,573.673575 147.60574,573.04218 C141.85066,556.305006 120.576122,557.43744 107.989897,548.499318 C108.162076,548.398115 108.315732,548.305444 108.459176,548.21775 C108.735138,548.122235 109.013001,548.032882 109.293476,547.952536 C110.614867,547.573794 110.040617,545.485262 108.725164,545.895763 C107.706097,546.213356 106.726453,546.609874 105.800007,547.082709 C104.04591,545.892682 102.342399,544.59126 100.742433,543.180339 C101.216699,542.882418 101.697615,542.597294 102.180906,542.315253 C102.876987,542.186556 103.596818,542.119008 104.344434,542.114742 C105.296767,542.109765 105.559905,541.167176 105.191321,540.548106 C105.266606,540.501889 105.342127,540.45899 105.417174,540.412062 C105.307454,540.393812 105.191796,540.387176 105.072814,540.386228 C104.904434,540.195909 104.662195,540.057258 104.344434,540.02621 C102.269014,539.822381 100.326826,540.306119 98.5941035,541.238753 C96.5438575,539.227486 94.6755284,536.811643 91.9144767,535.955088 C94.1326277,535.146884 95.1716438,532.696438 92.365469,531.987304 C91.1293367,531.87662 89.8606684,532.336893 88.6653842,532.841962 C90.3867074,525.803238 91.6814996,518.60548 92.7112536,511.452518 C93.0047905,511.503001 93.2954775,511.534997 93.5804648,511.542345 C94.7422629,511.571971 95.5236031,510.687212 96.0864529,509.637021 C96.1491501,509.627778 96.2113723,509.618297 96.2709822,509.608817 C98.379888,508.722399 99.3573944,506.29518 100.814154,504.64559 C105.371101,498.371223 109.204655,491.579701 112.466097,484.553065 C124.453374,450.178552 142.328014,392.994669 156.807267,360.530932 C161.443535,350.135672 165.582738,340.665462 170.399498,330.342253 C205.290253,388.161561 188.296224,459.11786 209.819651,520.773174 C210.753934,522.582272 212.492119,529.246757 214.894087,527.689364 C214.908573,527.699792 214.92211,527.710932 214.938972,527.720412 C215.388777,527.973539 215.839769,528.2826 216.32971,528.450166 C216.560312,528.52909 216.766215,528.449692 216.910846,528.302035 C217.127912,529.174469 217.078989,530.188871 217.120787,531.042345 C217.177547,532.202746 217.208183,533.363384 217.22172,534.52497 C217.247606,536.824678 217.190134,539.123912 217.038853,541.419118 C216.824163,543.370895 216.574087,545.319829 216.269388,547.264022 C215.132526,547.473776 214.084723,548.053976 213.328556,548.993484 C212.218768,550.373593 211.826436,552.138133 211.561398,553.849345 C211.496801,554.264824 211.443366,554.676747 211.416054,555.078954 C209.996818,560.511223 208.632679,568.434232 208.455511,569.648671 C208.450762,572.149364 206.331169,577.717914 208.267182,579.20373 C205.477632,580.364605 205.022127,584.654724 206.983552,586.86105 C212.80893,594.823165 241.203399,592.635088 251.678582,593.969692 C264.925028,593.635745 323.903858,598.679081 327.751186,585.8995 C328.516614,582.982381 327.20496,579.299482 324.538192,578.176529 C325.604994,575.643366 323.049608,573.196948 321.485978,571.419373 C312.266402,561.66641 298.764892,558.342819 286.489778,554.098206 C286.947182,553.621342 289.719871,551.890932 289.357225,551.442746 C287.33999,551.53115 285.383552,552.173448 283.550372,553.053703 C281.137004,552.169181 278.738836,551.224933 276.400516,550.145353 C283.059718,544.67445 279.167505,546.360303 274.557123,549.258935 C274.049608,548.992773 273.540431,548.727796 273.030779,548.46353 C273.081126,548.24074 273.029591,547.998753 272.825588,547.808434 C272.180092,547.205006 271.339379,546.96373 270.548302,546.597787 C269.698327,546.204587 268.873052,545.754268 268.079125,545.258443 C266.610965,544.341925 265.376258,542.885973 263.841364,542.123985 C263.606724,542.007613 263.366385,541.939829 263.125096,541.909491 C262.13334,541.014067 259.733747,541.863037 258.614697,542.684751 C258.596411,542.676693 258.580261,542.669582 258.563874,542.662472 C255.754375,537.6125 253.659956,532.225025 251.776427,526.777586 C255.252797,525.681415 263.076173,525.268306 264.628641,521.767668 C269.618531,520.065936 265.996105,512.514323 264.962314,509.062509 C235.713832,434.639227 263.596037,346.118115 220.426402,275.874268 C228.20608,271.343584 236.904366,260.513885 229.76781,252.10951 C229.567844,251.719154 229.349116,251.338042 229.127539,250.97115 C228.055511,249.194286 226.900838,247.477149 225.847335,245.690093 C225.793425,245.463274 225.74569,245.233375 225.713154,244.997076 C225.650694,244.565243 225.380193,244.351934 225.060533,244.30074 C224.002517,242.359865 223.062059,240.368033 222.170762,238.344915 C216.665045,212.394213 215.182636,185.803584 218.850185,159.42816 C223.21429,176.438844 237.392882,189.259665 252.695274,197.031697 C258.66742,199.537604 266.553493,204.710348 273.1101,203.078297 C279.027623,201.297878 289.775206,188.943967 291.0415,183.010421 C308.291779,185.096346 326.202992,183.422108 342.688794,177.907358 C344.805062,177.093466 348.929065,175.859355 348.274545,172.804769 C347.621924,170.212828 344.529812,170.761506 342.528726,171.242873 C345.586877,169.518862 351.533612,169.275927 351.473511,164.768233" id="ðŸ–-Ink" fill="#000000"></path>
                </g>
                <g id="Head" stroke-width="1" transform="translate(95.945717, 42.661805)">
                    <g id="head/Medium-Bangs">
                        <path d="M70.6773365,34.4051103 C43.3447289,33.4096682 17.2273923,51.7421568 8.43386881,77.6542261 C7.79492413,79.6868241 9.78335591,81.5855114 11.7897462,81.2418469 C9.73775076,91.5532051 14.2224147,105.432512 25.9041855,106.895338 C28.29692,107.196578 30.7021781,107.023087 33.0982207,107.242321 C35.2338649,107.437617 46.8603425,113.964873 51.2140984,115.494062 C60.3800245,118.689431 83.4453276,118.104253 92.6207056,115.494062 C92.9548283,116.252494 100.080607,87.0893582 101.703252,78.0474257 C102.294992,74.1297928 96.8879107,71.2293881 97.2866267,67.1923428 C97.7987917,62.0066136 103.876769,55.6838739 102.014691,50.7469517 C97.1063477,38.1816281 82.8614729,34.6755387 70.6773365,34.4051103 Z" id="ðŸŽ¨-Background" fill="#FFFFFF"></path>
                        <path d="M57.103067,11.5631741 C58.3308872,11.6650884 59.5658321,11.8381057 60.7794029,12.0656354 C64.4676132,11.4636299 68.2840679,12.1319982 71.8606582,13.2909772 C80.2369092,16.004742 88.2996743,20.7165014 94.6121425,26.8669116 C97.8609975,30.0333655 100.518504,33.6809499 102.154806,37.9234294 C102.986019,40.0754804 103.453873,42.3721076 103.589242,44.6734749 L103.604287,44.9523678 C103.642272,45.7159211 103.659512,46.6314938 103.568105,47.5384521 C103.860455,49.3693546 104.12098,51.2151887 104.140692,53.066948 C104.149954,53.9246873 104.094144,54.7810046 103.989649,55.6316335 L104.02551,55.712454 L104.02551,55.712454 C103.873992,56.7280419 103.693025,57.7393637 103.486884,58.7454713 L103.435349,58.8120711 C103.407087,59.0166108 103.374551,59.2206764 103.343915,59.424742 C103.23182,59.9418979 103.114738,60.4578687 102.990531,60.9719435 C102.721693,62.0851796 102.424119,63.1910684 102.103508,64.2903209 C102.047461,64.48301 102.101371,64.6349335 102.206578,64.7347147 C101.972889,65.5713601 101.717588,66.4018432 101.4345,67.22332 C101.573432,67.9421714 101.713788,68.6607858 101.862694,69.3770301 C102.639284,73.1028277 103.29713,76.8523263 104.18059,80.5567931 C105.97126,88.0747511 108.692889,95.4718341 109.44098,103.200731 C110.02283,109.194715 109.056248,115.748042 105.322914,120.644669 C102.104933,124.863448 97.2648991,127.354423 92.0377574,128.018051 C89.5369941,128.338015 86.9721086,128.191068 84.5259678,127.560622 L84.2594499,127.490481 C83.0340543,127.161292 81.4753755,126.645926 80.3366548,125.816228 C79.1017099,125.3825 77.935637,124.581406 77.2326684,123.799273 C76.2732112,122.730357 75.225883,120.90301 75.4871213,119.383776 C74.05981,119.499911 72.6229992,119.533092 71.2099372,119.528352 C67.7283427,119.521242 64.2158745,119.24631 60.867274,118.236647 C57.8796573,117.336009 54.3980628,115.830995 52.6311416,113.114861 C52.5480204,112.986875 52.6857642,112.802007 52.8306327,112.851779 C54.257944,113.351871 55.5926344,114.027349 57.0650687,114.408935 C58.513754,114.783411 59.9624394,115.136556 61.4562477,115.290613 C64.3767973,115.590952 67.3411209,115.550542 70.271476,115.406336 L71.2773526,115.354209 C74.4128941,115.186531 77.6534794,114.947654 80.5860187,113.776119 C81.7366548,113.316793 82.8015573,112.675651 83.7725813,111.913655 L83.9251196,111.792345 C84.4452214,111.370467 84.9819474,111.014952 85.528173,110.678397 C85.6065445,110.578853 85.684916,110.479309 85.7632875,110.377395 C87.0053571,108.787057 88.3400475,107.253603 89.4586226,105.573201 C91.6815233,102.23847 92.5388601,98.7733838 92.6552299,94.7963555 C92.7770619,90.5984339 92.7911688,86.394753 92.8412482,82.1956795 L92.8594707,80.7961732 C92.9235929,75.99435 92.9330925,71.1759362 93.3035759,66.3859635 C93.4742516,64.1605974 93.7173352,61.9455543 94.090753,59.7466153 L94.1727871,59.2756627 L94.7760102,55.8840492 C94.9211162,55.0670757 95.0058999,54.225216 95.1913791,53.4117976 C94.9828634,53.0705032 94.7418117,52.7420073 94.4622867,52.4291541 C94.2046107,52.1407129 93.9428974,51.860804 93.681659,51.5827912 L93.4933939,51.4169365 C93.0630317,51.0336613 92.6933438,50.6678972 92.3467925,50.1406742 L92.2631349,50.0102297 L92.2631349,50.0102297 C91.890989,49.5620438 91.5399796,49.0932379 91.2298185,48.5782151 L91.1725835,48.4781969 L91.1725835,48.4781969 C91.095162,48.3812598 91.0182154,48.2840857 90.9381815,48.1883336 C90.6895301,47.889938 90.4287668,47.6081331 90.1592163,47.3381787 C89.213771,49.1607858 87.8764682,50.7395096 85.9832027,51.7264193 C85.2985208,52.0833564 84.4632706,51.7776135 84.2388431,51.0182334 C83.6724309,49.1012963 82.8122443,47.3187438 81.6739576,45.7044686 C79.7733299,48.8609681 76.7595895,51.3299015 73.2079355,52.5346235 C72.3204377,52.8356263 71.5388601,51.9065469 71.7473757,51.0767748 C72.3881221,48.5263099 72.5156539,45.9327092 72.1392332,43.3687347 C70.7986056,44.3248332 69.4159423,45.2252343 67.9962307,46.0599836 C64.8369092,48.4971577 61.4894962,50.6904485 57.8074606,52.2653801 C56.9567735,52.6294275 55.6764682,52.0177046 56.0631009,50.9272215 C56.3885971,50.0090447 56.6561423,49.0755408 56.8275167,48.1168421 L56.8653401,47.8951522 C56.8665276,47.888516 56.8670025,47.8818797 56.8679525,47.8750064 C48.3405846,59.6145112 27.66134,70.9272928 26.0740769,71.0362394 L26.0309042,71.0365743 L26.0309042,71.0365743 C27.0221849,71.9815333 27.8222867,73.1490447 28.3457133,74.4907584 C28.895398,75.8999402 26.6538064,76.5135223 26.0741061,75.1661006 L26.0556031,75.1209681 C25.1638304,72.8347694 22.9580288,71.196082 20.5581985,70.8085706 C19.1076132,71.0714148 17.7365869,71.7694093 16.8011162,72.8278961 C14.9605734,74.9112142 14.9439491,77.4235205 16.200268,79.7936208 L16.3845889,80.1389545 C17.0647459,81.4051079 17.7811558,82.6740826 18.1643053,84.0645415 C18.6321595,85.7710137 18.2783003,87.5011869 18.5846616,89.205289 L18.6013093,89.2956388 C18.7465514,90.0533501 19.0601884,90.9153163 19.964475,90.7079325 C20.0342969,90.6918159 20.1017439,90.6702479 20.1689534,90.647258 C20.3596573,90.7989444 20.5890721,90.9243227 20.8750093,91.0075132 C21.5751281,91.2111048 22.348631,91.1122716 23.0454249,90.9477867 C23.7184699,90.78899 24.3720407,90.5398924 25.0011501,90.2483701 C25.0707345,90.4199654 25.1137201,90.599382 25.1179949,90.7719253 C25.139369,91.6536026 24.7736353,92.3788532 24.2107854,92.9690082 C25.1084953,94.1019161 25.8755861,95.3485889 26.7400475,96.5051978 C27.982117,98.164268 29.2526853,99.7877867 30.604,101.359163 C32.0099372,102.996902 33.5417439,104.544578 35.1305479,106.00693 C36.2443732,107.030813 38.084916,108.125799 38.7831349,109.611852 C39.585849,109.860713 40.2674436,110.474569 40.5168075,111.484232 C40.9704122,113.313949 41.1034063,117.60146 40.7471722,119.461989 C40.393313,121.305927 39.0443732,122.455426 37.5529398,123.427167 C37.1397082,123.697358 36.6718541,123.668917 36.2918711,123.467459 C35.957011,123.792162 35.5794029,124.090795 35.1471722,124.356246 C33.5512434,125.339838 31.6964512,125.697723 29.8582833,125.903922 C27.3765191,126.695535 24.7000136,126.904104 22.0543817,126.411123 C21.1899203,126.513037 20.3254589,126.605471 19.4586226,126.681314 C10.5907684,127.451597 1.57567091,126.795079 -7.07369296,124.68806 C-11.0421408,123.721059 -14.789486,121.96363 -18.2808176,119.706109 C-24.298324,115.815116 -26.8451603,104.893694 -23.3535912,94.452691 L-23.077127,93.629385 C-21.5037665,88.9651159 -19.8070828,84.3252525 -17.532726,79.9737484 L-17.2611888,79.4560953 C-15.1706548,75.487198 -12.8710071,71.5225634 -9.8166955,68.2109407 C-8.28726378,66.5542407 -6.51084309,65.049227 -4.50405768,63.9969025 C-3.74219169,63.5977776 -2.85279389,63.3209499 -1.9835827,63.0069116 L-1.96583036,62.78984 L-1.96583036,62.78984 L-1.94700933,62.5729462 C-1.88977439,61.8775588 -1.81686514,61.1833564 -1.72281934,60.4908131 C-1.37181001,57.9007675 -0.876407125,55.3488806 -0.172726039,52.829227 C0.531905004,50.3062552 1.39826633,47.8257083 2.44060729,45.4214786 C4.17950466,41.4103209 6.36345717,37.6053619 8.88440712,34.0350428 C9.06442409,33.6662552 9.24705344,33.2988897 9.43419508,32.9343683 C11.5597252,28.7890629 14.3122273,24.8357356 17.8626938,21.7759362 C21.9380119,18.2634476 26.8469177,16.0829553 31.969564,14.5518706 C37.2822019,12.9662735 42.8252044,11.8807675 48.3610823,11.5157721 C51.2750772,11.323794 54.1938219,11.3214239 57.103067,11.5631741 Z M18.2498253,78.1583701 C20.9168312,76.4163464 24.550419,77.6106399 25.9017337,80.4407767 C26.8778151,82.4909134 23.6503342,83.6451522 23.139732,81.6021258 C22.6315047,79.5543592 20.4489771,78.0872671 18.3519457,78.4001203 C18.2070772,78.4238213 18.1168312,78.2436937 18.2498253,78.1583701 Z" id="ðŸ–-Ink" fill="#000000"></path>
                    </g>
                    <g id="face/Smile-Big" transform="translate(37.760814, 44.083865)" fill="#000000">
                        <path d="M22.1688546,44.1967986 C26.2399157,43.703704 30.1860888,44.9475399 34.165913,45.5745352 C36.2672052,45.9053903 38.3711041,46.1524099 40.4975161,46.2442748 C40.925263,46.2629311 41.353247,46.2737943 41.7812309,46.2825321 C41.8210434,45.9065711 42.0319546,45.5613104 42.48885,45.3544374 C43.4253907,44.9307728 44.1749551,44.7397222 45.2032067,44.7805773 C46.144487,44.8176539 47.089085,44.9142418 48.0159096,45.083566 C49.698934,45.3915139 51.3895417,46.0903008 52.6206472,47.3043809 C55.4698449,50.1136976 55.0361734,54.6261744 52.8346392,57.6860531 C48.2862101,64.0088909 39.9846916,64.3023432 32.8747745,64.2198561 L32.2186571,64.2112911 C25.7448667,64.1189539 16.4827822,65.0822359 13.5416367,57.7316313 C12.4600648,55.028585 12.6103095,51.8954978 13.9345477,49.3029727 C15.5140123,46.2107406 18.8388267,44.6001538 22.1688546,44.1967986 Z M42.3907407,54.7244155 L42.3326809,54.7267771 C39.3479313,54.8415491 36.3636556,54.9223146 33.3772471,54.9749775 C33.4665882,55.7403604 33.5578251,56.5059795 33.6620958,57.2697094 C33.7438535,57.8707275 33.8315357,58.4710371 33.9227726,59.0706382 C33.9614002,59.3245064 34.1031136,59.7186514 34.0630641,59.970158 L34.0486084,60.0695798 L34.0486084,60.0695798 C34.2019338,60.1387737 34.3410404,60.2502395 34.4446002,60.4120066 C34.480621,60.4679757 34.5066887,60.5244171 34.5327564,60.5806223 C36.8513582,60.5988064 39.3465094,60.5539367 41.7101372,60.1333421 L41.7148768,60.0820961 L41.7148768,60.0820961 C41.75777,59.7807605 41.8833688,59.5779022 42.050202,59.4388061 C42.2163242,58.4778856 42.2011576,57.4539114 42.2653789,56.5005479 C42.3054283,55.9082676 42.3487955,55.3164597 42.3907407,54.7244155 Z M31.0963249,55.0155964 C28.9449775,55.0521219 26.7926939,55.0802508 24.6418042,55.0540397 L23.6653766,55.0389759 L23.6653766,55.0389759 C23.8715483,56.1430071 24.0959673,57.2432599 24.2824697,58.3546119 C24.4770294,59.5129592 23.4554132,60.2492949 22.5712449,60.2195392 C22.670539,60.235834 22.7695962,60.2526011 22.8688904,60.2665343 C25.6313538,60.6564285 28.4997468,60.552992 31.3032075,60.549922 C31.1523704,59.6713729 31.213482,58.6800774 31.1909155,57.9467665 L31.1866139,57.8331786 C31.1437207,56.8935122 31.1136244,55.9545543 31.0963249,55.0155964 Z M16.4832561,54.8129742 C16.5579045,55.3870704 16.7031726,55.9488865 16.9204823,56.471973 C17.8387756,58.6819247 19.9440964,59.7132198 22.1716984,60.1475115 C21.7851857,60.0143192 21.478298,59.6943273 21.4008059,59.1462083 C21.2076681,57.7833496 21.1382333,56.3978199 21.1330197,55.0139433 C19.5805708,54.9995377 18.0176947,54.9664758 16.4832561,54.8129742 Z M50.4866519,54.3411337 C49.3813822,54.601378 48.0969564,54.482119 47.0125408,54.5312396 C45.9966121,54.5772901 44.9802095,54.6174367 43.9642808,54.6585279 C44.0121506,55.3507023 44.0588354,56.0426406 44.1095489,56.7343428 C44.1749551,57.628431 44.1811165,58.5732928 44.3526893,59.4636025 C46.3973435,58.7671772 48.2294276,57.6503935 49.6039054,55.8645787 C49.94634,55.41966 50.2529907,54.8975182 50.4866519,54.3411337 Z M21.7017692,47.8227443 C19.8618647,48.2575082 18.1205436,49.1759205 17.1847138,50.8561734 C16.6292352,51.8532258 16.3849099,53.0349525 16.4318317,54.1994398 C17.9868875,54.0187801 19.5687218,53.9502948 21.1429728,53.8936172 C21.1481864,53.6107019 21.1548745,53.3281013 21.1633881,53.0460956 L21.1876416,52.3233087 C21.2305525,50.9447585 21.2521139,49.2136404 21.7017692,47.8227443 Z M31.2250045,47.9908876 L30.4150545,47.900098 C28.1653504,47.6442883 25.9168542,47.3757508 23.6670354,47.5296741 C23.3414264,47.552109 23.0108408,47.5875325 22.6795442,47.6359445 C23.0771949,49.067997 23.0437808,50.749903 23.2099031,52.16755 C23.2741244,52.715669 23.3551712,53.2593011 23.4449862,53.8008078 L23.8352905,53.7826237 L23.8352905,53.7826237 C26.2493948,53.6520292 28.665869,53.571736 31.0818692,53.4760927 C31.0816915,53.0233809 31.0841797,52.5704033 31.0914335,52.1172598 L31.1003535,51.6640645 C31.1278431,50.5066619 31.0529578,49.2028423 31.2250045,47.9908876 Z M42.522264,47.8071579 C40.1659825,48.1866613 37.730787,48.2674268 35.4162138,48.2702607 C34.491759,48.2714414 33.5677782,48.2147639 32.6442713,48.1330538 C32.7044639,48.6237868 32.7357451,49.1201876 32.7810081,49.6040721 C32.8721976,50.5819486 32.9764304,51.5583137 33.0897026,52.5337719 L33.1907447,53.3872979 L33.1907447,53.3872979 C36.1603277,53.2529249 39.1296737,53.1076887 42.0985457,52.9572571 L42.5175245,52.9348222 L42.5175245,52.9348222 L42.6349607,51.2944885 C42.7149016,50.2006819 42.8028471,49.1071203 42.927024,48.0182818 L42.8338913,47.9847476 L42.8338913,47.9847476 C42.7244071,47.9398778 42.6206103,47.8780049 42.522264,47.8071579 Z M43.5455391,48.2142916 C43.6754035,49.76088 43.7472081,51.3138446 43.8427106,52.8630306 L45.7999108,52.7586845 C46.1260816,52.7409378 46.4522436,52.7228325 46.7784056,52.7040974 C48.0467169,52.631125 49.676421,52.2478432 50.9302765,52.605384 C51.026016,51.4678185 50.7001699,50.3595365 49.6714444,49.5953343 C47.865428,48.2530212 45.5657844,48.7310018 43.5455391,48.2142916 Z M36.8585683,34.3886618 C39.7730382,32.7229553 47.0855742,31.0205123 47.5486785,36.2548788 C47.7616567,38.6636029 45.9672866,40.6594144 43.8719708,41.5499871 L43.7932587,41.5828642 C41.8280339,42.3891723 38.3447769,43.2997648 36.6441154,41.5513418 C35.2286785,40.0961003 37.1060322,37.4868569 38.8648787,38.6790173 C39.7687683,39.2914562 41.6713373,38.8401964 42.6799344,38.548784 L42.7430806,38.530412 C43.8314945,38.2111595 45.2825547,37.1894093 44.8325123,35.8519617 C44.4342426,34.6688077 42.7395182,34.4526545 41.6781781,34.4142589 C40.0938863,34.3576135 38.5521052,34.724742 36.9823003,34.8441951 C36.7336489,34.8631559 36.6569398,34.5038487 36.8585683,34.3886618 Z M48.9313418,25.9717958 C52.8869652,25.786928 55.3475929,30.0971923 54.4380085,33.6288788 C54.2807905,34.2382315 53.597771,34.8364448 52.9385004,34.767949 L52.772387,34.7526931 C52.6879966,34.7445987 52.6032129,34.7339617 52.5252689,34.7124886 C51.8992468,34.5394713 51.3380594,33.8895898 51.3836573,33.2160073 L51.3957707,33.0197356 C51.4880628,31.3513908 51.3068941,29.4292291 49.320112,29.025196 C47.6351247,28.6824795 46.6944292,30.301021 46.6744801,31.790866 C46.6706802,32.0553692 46.3728685,32.24 46.1384665,32.097794 C44.9203834,31.3580857 44.7094928,29.8864904 45.1747345,28.6191978 C45.7644207,27.0134549 47.2401798,26.0507201 48.9313418,25.9717958 Z M19.5769398,26.8962297 C22.4555488,25.9377612 25.5611976,27.469083 26.9550229,30.0088824 C27.4440136,30.1501404 27.9322918,30.5262753 27.8643698,31.1022097 C27.7662867,31.9307967 27.6185683,32.4531668 27.042894,33.0814804 C26.1424739,34.0643854 24.4560891,33.5618267 24.081838,32.3518619 L24.0659644,32.2972142 C23.6408584,30.7331851 21.9157354,29.7012434 20.344268,30.2487366 C18.508475,30.8881896 18.5616726,32.8231395 17.2740051,33.9503592 C17.1227243,34.0828478 16.9412824,34.1039417 16.7598405,34.016485 C15.3921391,33.3568861 15.6379406,31.3716901 16.1255064,30.235464 C16.7650653,28.7444339 18.0080848,27.4183628 19.5769398,26.8962297 Z M15.6565835,18.1725305 C17.9892044,15.797216 24.0717829,13.4986928 25.6674741,17.8850374 C25.9714606,18.7204977 25.324302,19.8470064 24.4527159,20.0202607 C23.0254046,20.3037247 21.7591111,19.6853655 20.3412994,19.7962862 C19.1935131,19.8865871 17.9963291,20.2693582 17.0786701,20.9789663 C14.5370585,22.9442534 13.9780085,26.2683191 12.20705,28.7697229 C12.1208414,28.891546 11.9534114,28.8403519 11.9374996,28.6967238 C11.5342426,25.0550647 13.1016726,20.7739526 15.6565835,18.1725305 Z M46.0778355,15.8342133 C47.6257913,15.2886162 49.3787006,15.3353072 50.9347311,15.8192817 C52.5021612,16.3070483 53.9411094,17.2332835 55.0497099,18.4434567 C55.5527125,18.9928459 56.0181917,19.5991176 56.391525,20.2444959 C56.5898287,20.5865014 56.7983444,21.2930283 57.0237218,21.7137211 C58.2431094,22.416315 58.7643027,24.0173402 57.6725954,25.1563543 L57.6233825,25.2063008 L57.4773265,25.3508769 C56.8904902,25.9306035 56.0056047,26.1818341 55.204553,25.9502753 C53.411983,25.4326454 53.1942053,24.0236208 52.5736455,22.5280875 C52.1637388,21.5402297 51.4614826,20.6661367 50.6100831,20.0240766 C48.5978355,18.5072124 45.2983953,18.023949 42.8757659,18.7387712 C42.7468092,18.7769298 42.5952909,18.6129189 42.6871993,18.4939398 C43.1462663,17.9004667 43.4108295,17.4134111 44.0254521,16.9346509 C44.6493367,16.4487803 45.3302188,16.0977685 46.0778355,15.8342133 Z" id="ðŸ–-Ink"></path>
                    </g>
                    <g id="facial-hair/*-None" transform="translate(29.211196, 80.109389)"></g>
                    <g id="accessories/Glasses-5" transform="translate(11.162002, 57.119417)" fill="#000000">
                        <path d="M87.1798643,17.6412015 C86.5082443,19.4652306 85.4860899,21.364155 84.2361832,22.8992689 C79.179084,27.1730337 74.2651908,24.8067256 71.7701272,19.0144376 C70.8220696,14.9210374 73.3392197,10.5117028 76.0064631,7.50049043 C79.8585411,3.64741841 86.145123,5.66958797 87.9163189,10.2500438 C88.0239016,10.8435169 88.0889737,11.4355679 88.1200848,12.0257229 C88.083274,13.943371 87.8517218,15.5822954 87.1798643,17.4041914 M38.5705344,13.9625688 C45.2325869,6.05425524 57.6960305,5.63142935 57.3780322,17.8030793 C55.9469211,33.2096791 31.8486344,29.4281841 38.5705344,13.9625688 Z M89.2752332,7.36539471 C89.0417812,6.97077302 88.7826802,6.58894986 88.4998304,6.22371741 C88.395335,6.16162078 88.3352502,5.61080948 87.9509924,5.57004376 C82.8148092,-0.0847784868 73.7918745,3.12362625 70.53162,8.75830264 C69.9362341,9.47075479 69.4505683,10.3047931 69.0924343,11.1859964 C65.8801527,10.5979745 62.1351824,10.7122133 59.1475657,11.9230975 C56.185123,4.20320693 47.2163359,3.51398177 41.3059372,6.81245032 C37.6298388,8.61680766 35.2461578,12.3954585 31.6709924,14.4711923 C23.2664801,15.0748569 14.2463953,13.1956044 5.99363868,15.2995424 C-0.514995759,16.6500255 4.92588634,19.9390137 6.01738762,17.7440638 C13.7982528,15.4498067 23.0164037,17.3885488 31.0950806,16.8716299 C31.9350806,18.2896609 33.5459712,19.450062 35.1513995,19.4005269 C36.8853096,34.7400529 59.3005089,32.1964613 60.0737744,18.5605634 C60.9508227,17.1766618 62.0416115,15.8522498 63.6028668,14.9900073 C64.2006277,14.8665251 64.7779644,14.7060693 65.3056658,14.4576828 C66.2076506,14.3306454 67.5974385,14.7122315 68.4272265,15.4616572 C71.2697371,32.4827694 87.6458185,30.5004175 90.5724003,15.5891686 C90.6305852,15.5299161 90.7932655,15.3076007 90.9181849,14.9509006 C91.9199152,13.6290957 94.3722307,13.1377739 93.9803732,10.9063245 C93.6315013,8.67440109 90.8072774,8.70094622 89.2752332,7.36539471 Z" id="ðŸ–-Ink"></path>
                    </g>
                </g>
            </g>
        </g>
    </g>
</svg>