<?xml version="1.0" encoding="UTF-8"?>
<svg width="462px" height="603px" viewBox="0 0 462 603" version="1.1" xmlns="http://www.w3.org/2000/svg" xmlns:xlink="http://www.w3.org/1999/xlink">
    <!-- Generator: Sketch 62 (91390) - https://sketch.com -->
    <title>peep-sitting-14</title>
    <desc>Created with Sketch.</desc>
    <g id="Introduction" stroke="none" stroke-width="1" fill="none" fill-rule="evenodd">
        <g id="variations-sitting" transform="translate(-2723.000000, -955.000000)">
            <g id="a-person/sitting" transform="translate(2743.000000, 897.000000)">
                <g id="pose/sitting/wheelchair" transform="translate(-20.311475, 159.504800)">
                    <path d="M358.784002,388.026577 C353.36842,387.038673 351.418656,393.325359 351.185516,397.300021 C349.002355,396.326969 346.728914,395.221274 344.754528,393.9476 C341.508001,391.873719 338.001658,388.292886 334.167278,388.388143 L333.992102,387.416115 C333.796151,385.710969 330.320586,386.846623 329.382637,387.446587 C327.879663,387.167731 326.229212,385.658732 325.221757,384.278534 C329.277993,382.780545 331.056428,382.721394 330.415484,377.522222 C330.414458,376.717406 330.214403,375.967899 330.436002,375.25117 C325.591858,353.706769 324.645446,332.152381 324.036305,310.192641 L326.524164,309.692543 C334.402727,331.693766 341.88913,354.780967 348.605837,378.302969 C348.772549,379.360523 349.377073,379.372814 349.965183,378.801274 C352.003432,378.909078 353.973457,378.821247 356.049921,378.521649 L356.021452,378.425625 C356.645469,378.43049 357.266664,378.397969 357.838872,378.359559 C358.328236,381.514809 358.894288,384.766852 358.784002,388.026577 L358.784002,388.026577 Z M355.517725,376.021417 C355.654942,375.954072 357.219215,375.265509 357.396187,375.185873 L357.434402,375.573813 C356.761654,375.835001 356.084803,376.087482 355.401539,376.317174 L355.338702,376.103615 L355.517725,376.021417 Z M288.687932,423.140448 C286.047724,423.776517 283.250549,424.579285 280.654712,425.3334 L281.673195,422.876956 C275.818776,407.302998 271.344733,390.854831 268.088715,374.776679 C265.782701,364.309453 263.389996,353.48604 260.1922,343.113303 C256.154686,326.823896 247.441537,310.063071 229.030354,308.667765 C229.030354,308.667765 228.720526,308.13694 228.721039,308.13694 L228.358119,307.798932 C227.459412,296.375299 226.243696,284.991612 225.066195,274.058858 C234.919655,276.761382 243.404281,275.882307 252.822238,275.808815 C255.873584,275.386818 259.935206,276.271527 262.369717,274.882367 C262.369717,274.881855 263.978362,273.250968 263.978362,273.250968 C274.67077,315.467864 277.453325,358.974822 281.27206,401.726129 C281.402096,402.696876 282.141528,403.025409 282.91892,402.623385 C283.816858,403.606424 285.686086,403.228214 286.96541,403.371099 C285.891527,409.778136 287.155462,417.415572 290.272724,422.752507 L288.687932,423.140448 Z M263.59159,419.537594 C257.003893,413.999902 249.198684,411.254871 241.047227,411.565223 C238.186958,407.328605 234.144059,402.250297 229.603075,400.337737 C227.474801,393.231127 227.736155,385.436978 228.186278,378.744427 C229.23836,371.906687 226.882075,371.110064 221.301833,371.609138 C223.70095,368.715843 223.486532,368.017294 222.999733,364.218806 C224.592476,364.466166 229.413536,367.61271 230.074229,365.388261 C230.874448,361.055106 231.418443,357.288881 231.736735,353.876541 C231.906012,350.960969 229.840063,347.895854 230.095004,344.928813 C229.336079,337.298803 230.11424,328.760526 226.596356,321.73176 C240.850506,323.635357 244.32325,339.170393 248.011949,350.616048 C255.601458,374.190287 260.905471,398.260526 266.554707,422.026047 L263.59159,419.537594 Z M219.684981,365.57058 C219.347453,366.328537 219.298209,367.051924 219.179971,367.789907 C212.475063,366.560021 213.667697,376.397835 213.041115,381.780862 C211.781027,381.36245 210.893349,381.231856 209.574784,381.491763 C209.38191,379.717992 210.53838,378.929819 206.485478,378.735465 C187.597499,379.086532 180.41528,398.81619 173.917608,413.911559 C170.900887,421.171041 166.617409,422.301318 160.251055,422.17559 C155.980657,422.257275 151.613567,423.412902 147.250324,423.273858 C163.113888,392.047332 168.885464,347.196537 162.443705,308.292884 L162.447808,308.292884 C162.056163,305.82927 161.590651,303.265789 161.109751,300.78553 C174.70808,300.927903 190.527273,301.254132 203.621106,300.690017 C205.346962,302.272508 207.473184,302.978227 209.642751,302.994359 C209.652754,304.72127 209.838702,306.620003 210.00208,308.341793 C197.764378,308.037842 184.185284,308.225539 171.788821,308.40581 C184.184772,308.5848 197.827729,308.804249 210.019521,308.453182 C209.999259,311.752853 210.331401,314.751647 213.267844,316.347708 C214.389689,324.694704 212.940318,333.414789 213.953672,343.123545 C214.767997,349.726217 214.098327,362.368982 220.134078,364.467446 L219.684981,365.57058 Z M133.520933,416.323705 L133.048752,417.151055 C132.049762,416.810231 131.436517,416.885002 130.463174,417.640654 C123.381753,421.463725 113.203845,417.913877 105.461217,417.661395 C106.933414,412.831728 106.990353,405.131299 100.283392,405.034506 C102.50759,383.866523 101.009232,362.868056 101.352402,341.717485 C113.565482,339.39317 113.154857,338.138445 101.292642,335.963161 C101.21852,324.132126 101.129264,312.163071 101.136702,300.222696 C101.135163,294.476311 101.082072,288.871786 100.556287,283.314121 C101.660948,281.03257 101.414983,278.69494 101.985139,276.284843 C104.392207,274.939726 108.562577,276.505316 110.059909,274.185611 C116.539884,274.090098 123.139636,274.029666 129.6845,273.682184 C130.278252,273.700365 130.498569,273.14931 130.756331,272.748054 C131.895617,272.448456 133.817167,273.133178 134.765632,272.647932 C134.765632,272.647676 136.045468,270.998352 136.045468,270.998352 C141.376155,281.86581 145.511644,294.672201 147.954362,307.638635 C140.252515,307.721856 131.435235,307.699066 123.488962,307.6604 C131.22646,308.232196 139.578228,308.575838 148.135694,308.696445 C154.774943,341.667808 150.019798,387.929272 133.520933,416.323705 L133.520933,416.323705 Z M122.865971,431.961679 C106.821332,452.143806 80.6195596,458.870158 59.1026567,442.64656 C1.6897949,399.039992 4.26562669,251.23643 79.6705825,230.791066 C77.6241261,238.518637 70.5226991,270.591719 83.3595388,271.506132 L83.3197844,271.402169 L83.9738092,271.041372 C86.6689043,271.972429 90.4612223,270.679294 91.3440275,274.417351 C91.3783959,274.424265 92.7936542,274.547689 92.8764974,274.555883 C91.9593238,279.200159 92.2258068,284.015487 91.9513729,288.73351 C90.8677435,288.320731 89.5184006,288.075931 88.3437208,288.172981 C83.9173835,287.966847 84.028696,283.137179 84.2013072,279.777588 C84.3654546,278.133642 83.8676263,276.251554 83.9499565,274.708754 C83.9938147,273.637117 83.9222566,272.801572 83.5152224,271.914558 C82.1535684,276.262053 80.8662937,281.961835 81.6749761,286.387942 C82.8642754,290.520597 88.1339199,292.494101 91.9482951,290.46964 C91.7820959,305.345304 91.7354164,320.106763 91.6525733,334.852857 C89.1470171,333.539493 86.8610081,334.371965 84.2697875,335.073074 C80.9996635,335.760869 77.1198858,334.787048 73.840785,335.577013 C73.462733,333.959698 71.9359057,331.980305 70.3282871,333.286755 C68.2826001,333.305448 67.1581904,335.199827 66.1425283,339.341445 C65.5095349,342.624728 65.8793795,347.005768 69.0030533,348.58288 C70.7673814,349.533143 72.5332483,348.857896 73.4027166,346.914096 C73.8959282,347.111779 74.6822969,347.713535 75.2429628,347.519949 C80.4605419,346.255749 86.0864375,344.977466 91.6058939,343.785733 C91.8934083,364.616477 90.9685403,385.294861 92.6918315,406.182196 C84.8166035,406.846688 69.8127616,404.740542 66.3825939,411.658687 C63.2304508,413.017376 60.9662426,416.137544 60.974963,419.279479 C60.8716014,424.371615 66.5336608,426.083675 70.9582027,426.140778 C88.8630934,427.495625 106.598964,429.910331 124.640302,429.87525 L122.865971,431.961679 Z M155.316373,273.14931 C166.704869,274.702097 178.141839,274.69083 189.554187,275.197585 C185.830093,300.450851 191.036387,285.77876 202.614164,299.973031 C189.385166,299.957411 173.411059,299.798906 160.972021,300.108747 C159.038672,290.59204 156.429241,281.506036 153.185535,272.829483 L155.316373,273.14931 Z M243.482764,145.004219 C248.503366,152.006355 255.101322,158.121476 262.503857,162.302784 C256.109546,162.774202 249.599819,163.205162 243.295789,164.08731 C242.590982,158.023914 241.878992,151.958726 241.164951,145.896867 L243.482764,145.004219 Z M460.970888,409.995024 C460.376367,404.032775 453.620932,401.834445 448.680095,403.479159 C445.906517,396.118531 436.42367,397.012459 430.321491,393.768098 C418.071222,387.845282 405.534464,376.259303 391.35495,380.818565 C390.084346,377.331197 388.660624,373.983897 387.128924,371.060643 C387.728318,371.364594 388.497502,371.332586 389.038163,370.795359 L389.042523,370.799456 C389.569847,370.196419 390.081012,369.521684 390.149492,368.778068 C391.989482,366.715709 392.760462,363.455216 393.234694,361.025146 C390.988183,353.353397 388.260771,346.004036 385.831133,338.412948 C376.40266,309.468741 369.76931,282.577674 362.655059,254.897155 C354.743667,234.313515 352.620523,180.303482 323.96526,180.199775 C323.872671,178.760938 323.822914,177.102908 323.36407,175.793897 C322.545129,176.915468 322.205036,178.571705 322.093467,179.995178 C309.828578,179.800568 299.227477,182.076486 291.137319,185.58229 C275.644882,184.896032 262.067071,185.81864 244.245023,187.920945 C246.403818,184.20158 244.961629,180.011054 244.757727,175.909639 C270.597606,177.130563 296.861447,174.750682 322.579753,173.327978 C326.729348,172.966156 331.133628,173.194055 335.139338,172.152377 C339.484884,171.13861 343.610883,165.704113 339.179159,161.567105 C336.180648,159.707551 332.453733,160.714916 329.167194,160.550009 C312.511362,160.548985 295.466963,160.87547 279.43284,161.462374 C299.175155,151.433278 309.135312,130.488585 320.941614,112.62437 C326.937867,102.864912 331.415757,94.652863 335.038541,86.7708838 C335.658967,85.4598239 335.832348,84.0399358 335.459938,83.3183408 C335.320926,82.5962336 333.082366,82.5163409 332.476559,82.3381187 C348.89489,56.7153485 374.110496,67.996865 387.593153,53.1503924 C385.038096,53.2658784 382.485604,53.3854614 379.933112,53.5078611 L379.345259,51.061659 C384.163755,48.8945692 388.727822,45.5296009 393.714825,40.4643519 C393.712517,40.4538531 393.708413,40.4423301 393.703283,40.4310632 C385.435384,43.0132366 377.728407,44.8932759 370.145054,46.178217 L369.230701,43.8431477 C376.045127,39.411919 382.106782,33.3853968 386.763183,26.4121972 C378.077477,30.2447427 369.90704,35.6889699 360.893296,39.1773622 L359.537028,37.0563644 C364.675611,32.1496204 376.193116,24.7943698 372.916836,17.9261573 C360.113083,24.0789203 348.430661,32.0430968 336.098831,38.995043 C336.088059,33.3544128 340.061452,24.4837613 337.649511,19.7808461 C335.102918,16.6432648 333.900795,19.3127568 332.614546,21.8229755 C332.614546,21.8229755 327.259237,30.8121857 325.948109,33.0117959 C321.031382,41.7500611 314.123854,50.386924 314.282615,60.7176661 C310.008114,58.6678547 306.647453,66.1101679 303.870028,70.1739414 C296.064049,83.4202552 269.64709,104.215662 263.814215,107.04878 C240.063625,85.5589216 243.603053,49.167536 218.356926,28.8706905 C210.260612,20.6222803 204.27667,19.6666405 194.731242,16.6350707 C192.462161,16.0909296 189.895819,14.1706878 187.865264,16.0130854 C184.852646,13.5184868 181.920307,5.46340666 180.677147,2.02213059 C179.908219,-1.30698841 178.625817,-9.50111254 176.830455,-11.0375108 C175.035093,-12.5739091 145.796337,-13.854241 143.231534,-13.0860419 C140.666731,-12.3178427 141.692652,-6.17224961 141.692652,-6.17224961 C141.692652,-6.17224961 138.992427,4.97073495 138.992427,4.97073495 L138.760056,4.90569409 C138.717993,4.92182627 138.357126,5.20017042 138.311728,5.23141052 C136.389409,5.21732687 134.542494,4.31008369 132.696861,4.31110796 C130.751458,4.35233464 129.176669,5.67747816 127.684723,6.81210828 C125.01938,8.82402182 122.263499,10.9045612 119.023383,12.1603107 C81.4467087,24.1457536 76.4820192,42.1858861 65.2394611,76.8467752 C55.9877033,77.108475 48.1983961,75.9543838 40.1459402,75.5062677 C37.3118327,75.8657849 38.23311,81.3627618 38.3195439,84.5041842 C38.0520349,92.2325236 43.8379743,91.4361571 49.5767213,91.3670192 C53.372117,91.4123429 57.1918783,91.7897848 60.9464937,91.3455096 C56.9025685,109.985094 48.7682954,139.126472 57.6697012,156.517476 C64.8773109,170.143792 70.9943664,172.731599 76.8269852,173.12927 C78.3212396,186.173292 76.8333973,197.854528 77.103984,210.468614 C-8.89104397,233.60754 -12.8482787,367.918453 25.5906824,433.314989 C56.4552669,486.752202 114.502917,483.824595 143.274623,430.640888 C150.232421,434.428622 164.027471,434.167178 173.214339,433.337523 C180.444006,432.912965 182.816193,429.851435 185.398693,423.149922 C188.284096,416.632521 191.02741,410.200133 193.964366,403.686573 C196.767952,396.795058 202.369739,388.875693 212.477628,389.185022 C212.430948,393.245466 211.67587,397.821116 214.427391,401.045248 C204.174334,404.524934 210.336787,420.740082 213.316319,428.315037 C199.235806,447.492873 203.979922,481.105938 223.676071,495.017 C256.206752,516.81926 287.60738,475.584379 278.105041,443.993213 C279.66239,444.728636 282.553692,445.747012 283.797622,444.141476 C284.304427,443.767363 283.604236,442.106516 283.479586,441.565448 C305.297084,440.28614 326.701136,437.724452 348.334224,435.697943 C347.599152,455.761512 367.528698,475.536494 387.526212,475.090939 C413.622314,476.299572 429.258123,441.965168 421.364172,419.731948 C431.344334,419.454116 441.474024,418.617803 451.879174,417.208926 C457.568677,416.642251 461.194283,415.296879 460.970888,409.995024 L460.970888,409.995024 Z" id="ðŸŽ¨-Background" fill="#FFFFFF"></path>
                    <path d="M140.764629,-5.14744636 C140.146255,-4.94515392 140.215505,-6.2690171 141.079844,-6.13560651 C141.796639,-6.02401548 142.062486,-5.06208546 142.192943,-4.45166114 L142.213487,-4.35338451 C143.411763,1.25037213 142.031129,7.17011469 139.215488,12.0886377 C138.508885,13.2388879 137.776377,14.8175371 136.375995,15.125585 C137.040279,19.8653736 137.950784,24.5664963 139.079297,29.2166617 C143.103473,30.6250268 146.891687,32.7122239 150.908169,34.1566943 C158.637716,36.9009577 166.909463,37.634844 175.042967,38.217651 C180.638341,38.522114 186.394016,38.2757781 191.709058,36.3609137 C193.957107,35.7484029 195.862756,33.7431471 198.221093,33.7492927 C196.638609,29.4345742 194.886849,25.1836163 192.942728,21.0099904 C186.896974,21.0081979 182.329829,15.1509355 180.53421,9.94536211 C179.880185,7.87122443 179.69039,5.69722087 179.274892,3.57186992 L179.120715,2.77816034 C178.985472,2.07102467 178.862192,1.35945641 178.808098,0.642470546 C178.790144,0.376161511 179.185124,-1.96172453 179.092791,-2.29461083 C179.082788,-2.19756167 178.956343,-2.27463765 178.897866,-2.27950291 C178.738848,-2.47616189 178.877347,-2.87076018 179.192818,-2.85565226 C179.703214,-2.87076018 179.95713,-1.76199276 180.072546,-1.45983443 C182.52501,3.56572433 183.459368,9.74255753 187.836974,13.5156956 C190.022699,12.1385706 192.713947,13.9417901 194.935836,14.4946374 L195.57878,14.6978513 C205.965069,17.9651077 210.772147,18.7569698 219.113723,27.0559736 C233.363769,38.1561951 237.562865,52.3233236 243.171832,68.6434582 L243.50333,69.5300387 C248.895559,83.8983589 253.248913,92.8110287 263.98008,104.581606 C267.874383,102.767519 292.068331,83.4467233 300.374069,72.095907 L300.620858,71.7544087 C303.01305,68.5008293 308.45864,57.1138134 312.916781,58.1956939 C313.317146,48.1845227 319.985635,39.8977026 324.688971,31.4651806 L331.365153,20.2597159 L331.365153,20.2597159 C332.008919,19.1788597 332.624472,17.6888094 333.537541,16.8102457 C335.089247,15.3176347 337.667131,16.6901505 338.59559,18.2035028 C341.149877,22.5005527 337.935153,30.7136258 337.46169,35.7338072 C348.908407,29.1139791 360.050937,21.872678 371.881348,15.9424367 C372.876492,15.4635926 374.117857,15.8297675 374.43384,16.9795055 C376.432848,25.2335492 365.531409,32.1422201 360.26792,37.0804603 C368.878968,33.6253176 376.956652,28.7069571 385.290709,24.5891191 L385.846701,24.3158073 C386.97778,23.7294153 388.508967,24.9764586 387.708749,26.1748492 C382.992076,33.2497072 376.895539,39.3827531 369.783339,44.0073119 C377.71884,42.6629634 385.526101,40.6912523 393.233335,38.2816676 C394.48778,37.8898861 395.38264,39.5517569 394.492653,40.4426118 L394.072776,40.8664052 C389.859615,45.0893615 385.210134,48.8536572 379.724516,51.3205677 C382.286755,51.1973997 384.84925,51.0773046 387.414053,50.9618187 C388.685939,50.9057401 389.109131,52.4626237 388.386113,53.3050821 C385.53636,56.6157643 381.70198,58.7644173 377.609067,60.1761113 C360.482594,64.7748074 346.104307,64.3807212 334.550639,80.5272428 C337.441675,81.04695 337.019903,84.268156 336.107499,86.2872602 L336.051049,86.4093436 C331.925563,95.3849824 327.04346,103.994958 321.873586,112.408275 C310.801331,128.832629 301.706796,148.57253 284.18047,159.106333 C295.496894,158.721721 306.818705,158.500224 318.143593,158.407528 C321.28086,158.380897 324.418292,158.365737 327.555624,158.36205 L329.908602,158.361436 C333.019451,158.361436 337.125701,157.708466 339.808485,159.638951 C344.96297,163.779032 340.941615,171.411346 335.232876,172.501421 C331.636509,173.466279 327.75032,173.320833 324.060594,173.602506 C324.763863,174.95889 324.937244,176.630235 325.027525,178.083668 C337.991322,178.890533 345.558517,189.046894 349.093329,200.65848 C356.181419,222.893236 361.610851,245.624248 367.488097,268.201109 L368.154019,270.819566 C373.82534,293.074091 379.788104,315.264655 386.9034,337.108572 C389.324575,344.672772 392.089432,352.134547 394.318246,359.757643 C394.517019,360.435963 394.369799,361.055643 394.029962,361.549083 C393.609335,364.525599 391.705738,369.522222 388.501529,370.311419 C389.815734,372.891544 390.997596,375.686508 392.002229,378.373669 C406.457716,374.532673 418.597442,385.874365 430.74871,391.714471 C436.867817,394.913252 445.789229,394.017276 449.230681,401.076514 C454.77912,399.69017 461.538402,402.77449 462.100864,408.97104 C462.590741,415.350934 457.155667,417.195636 451.823697,417.577175 C442.234924,418.878761 432.590495,419.731206 422.918366,420.048472 C428.38114,438.441976 419.327129,465.219349 400.656388,472.782014 C376.097115,483.130937 347.567271,461.947333 346.938638,436.193457 C326.312491,438.144427 305.683266,440.576545 285.011466,441.836904 C285.867084,444.77757 281.96448,445.996958 279.722842,445.135295 C285.186642,469.91868 269.053774,501.38386 242.195668,501.283453 C207.586728,501.050718 193.597779,452.962988 211.724781,427.231134 L211.551561,426.785409 C208.668061,419.341959 203.243526,404.025784 212.407019,399.616679 C210.472901,396.665514 210.957905,392.953064 211.022025,389.617543 C202.532783,390.001387 198.145944,396.096023 194.992006,403.291488 C192.084801,409.733862 189.314557,416.237948 186.44839,422.701064 C183.748678,429.706784 181.084617,433.240756 173.142448,433.707309 L172.328673,433.767093 C163.465601,434.409206 151.684399,434.93833 143.685684,431.381714 C124.704345,466.060271 84.8773124,486.63034 50.4058453,461.770647 C-20.3570733,412.992051 -17.749951,230.191384 75.6850579,208.539947 C75.723017,205.055652 75.7727742,201.572637 75.8338165,198.087574 C75.6337619,195.867478 75.6773635,193.652504 75.8776747,191.40168 L75.9208765,190.481037 C76.1772157,184.800322 76.237043,179.059294 75.5355299,173.412761 C64.1973047,172.493739 57.3297878,158.004735 56.1861421,155.812039 C47.4455495,139.055823 55.5303219,108.050282 59.1677257,91.8507542 C55.639207,92.1307628 52.4140442,91.7014639 48.9646863,91.7416182 L47.768334,91.7619059 C41.3577344,91.8614991 37.0521054,91.5930695 36.8898457,83.6079774 C36.8977966,80.3654089 35.4540689,74.3539946 39.7239531,73.3471416 C41.6526851,72.9607374 43.9302303,73.6441786 45.861527,73.8341798 C51.9585771,74.3271076 58.063578,74.7014766 64.1793511,74.6635788 C69.4851593,59.4760258 73.6386015,43.2242609 83.7436694,30.3666559 C92.3272961,19.4879318 106.056687,15.2039413 118.399289,10.0631526 C121.749179,8.76771283 124.5779,6.52380315 127.46356,4.35492501 L127.662716,4.20044249 C129.095688,3.10081515 130.653805,2.17270616 132.515196,2.12279028 C134.324665,2.07439374 136.007689,2.89380615 137.778429,3.01338915 C138.090309,2.78113695 138.49683,2.63543518 138.849491,2.73402073 C139.792312,0.128545322 140.489939,-2.57910057 140.833622,-5.32387609 L140.80443,-5.45023627 C140.751444,-5.65933873 140.73103,-5.60653679 140.746419,-5.28828287 C140.828749,-5.28828287 140.841317,-5.17279693 140.764629,-5.14744636 Z M242.194643,414.476467 C238.296142,414.476467 234.554094,415.303562 231.073656,416.814354 C230.26523,421.298076 233.957777,427.587066 235.198629,432.103053 C235.248899,433.968752 235.588479,435.870557 236.025265,437.71526 C236.334837,443.099567 238.615973,448.036527 239.673954,453.132504 C239.870418,454.100691 241.354157,453.690985 241.157693,452.724078 C240.23026,448.154574 238.99069,443.658048 237.923732,439.120808 C238.424895,439.422454 239.273588,439.015565 239.089435,438.269643 C238.693686,436.664619 238.694199,435.041414 238.75755,433.413088 C265.154504,436.744256 263.610749,480.576162 236.681085,481.181247 C219.20503,481.618096 209.466216,457.684852 219.344811,443.355634 C217.723086,439.873131 215.966453,436.45234 214.304973,432.961643 C200.154185,456.606301 214.973874,496.90065 242.194643,496.161642 C286.090735,494.922793 286.110484,415.725815 242.194643,414.476467 Z M400.678958,419.628523 C405.889356,429.331902 405.333306,442.369522 398.724835,451.313665 C391.249972,461.480524 374.937055,460.290328 367.613516,450.533174 C364.718879,447.055281 362.488783,442.79536 362.358234,438.195896 C362.347975,437.181873 363.004821,435.386848 362.119708,434.590482 L356.459922,435.195597 C353.629881,435.497069 350.799693,435.795684 347.969689,436.085909 C356.170647,457.97856 376.325639,477.803476 400.933643,466.839737 C416.183706,458.436407 421.834224,438.365156 419.60977,421.986894 C419.484351,421.203075 419.768788,420.560605 420.230452,420.127852 C413.713288,420.277907 407.168936,420.310428 400.678958,419.628523 Z M133.345167,253.48267 C89.8494398,184.76444 32.553533,229.254949 17.8869627,292.325123 C6.87267214,335.75142 10.7816886,388.767403 33.7789959,427.20732 C60.78586,472.984818 106.36472,472.931044 133.344397,427.207832 C153.763683,393.082986 159.134432,347.454938 152.372509,307.259952 C152.374766,307.620319 152.248662,307.981194 151.988054,308.270453 C159.935609,356.521041 150.992654,416.224709 112.687832,445.541493 C84.4108773,466.387345 51.3469741,449.343055 35.473151,420.785764 C4.74988717,369.00863 7.11617455,274.067154 57.5135303,235.147881 C71.8997676,224.904714 88.7956647,222.95989 104.377613,230.28262 C104.536631,229.315458 105.136795,230.381974 105.370192,230.764281 C132.17931,244.982367 145.430109,275.520075 151.557167,305.916947 C151.926946,306.122223 152.173749,306.436341 152.291697,306.784506 C151.452873,301.871875 150.432442,297.041829 149.235918,292.325123 C145.488997,277.739582 140.141126,264.672514 133.345167,253.48267 Z M231.887981,455.729529 C229.568886,454.25049 230.672521,458.686328 231.478382,459.510862 C232.057771,460.326689 233.20629,459.636846 232.807207,458.735493 C232.312456,458.013129 233.19244,455.814543 231.887981,455.729529 Z M77.7267438,231.716848 C12.6579447,249.975917 8.39780668,369.980658 39.8756356,418.15545 C54.3665168,444.102144 83.8058402,460.440972 109.727793,441.360953 C113.975107,438.362416 117.989024,434.63665 121.74133,430.224627 C105.075753,430.088399 88.4424913,427.858061 71.8123078,426.603592 L71.4350785,426.569891 C68.9166922,426.351097 66.3332898,426.232052 64.0129979,425.146574 C56.9787688,421.704274 58.8957027,412.869216 65.2874486,409.785152 C68.7886614,402.893382 84.2487817,404.430292 91.1637475,404.064629 C89.6115286,384.251237 90.4186722,364.321335 90.1942519,344.462875 C85.2493114,345.538354 80.3197598,346.66479 75.3979026,347.855754 C74.8131275,347.998895 74.2206579,347.91465 73.7205213,347.666009 C72.5196805,349.560388 70.1639088,349.773179 68.2754443,348.816003 C64.4564524,346.887567 64.0204359,341.871483 64.7411455,338.165947 L64.8166412,337.845607 C65.4461447,335.226522 66.7049845,331.323884 69.7758541,331.121817 C71.712537,329.917024 73.8192663,331.339729 74.5258695,333.231547 C77.7682936,332.690735 80.7078145,333.543948 83.8694474,332.90916 C85.964635,332.485882 88.0780328,331.414756 90.2327239,332.153508 C90.3073597,318.551774 90.3545521,304.948248 90.4994635,291.347026 C86.4355329,292.706994 81.4762295,289.895642 80.2966766,285.836221 C79.4990228,283.134977 80.2043437,280.036574 80.5788049,277.324575 L80.649417,276.817002 C80.8900576,275.11669 81.1906271,273.339251 81.7688736,271.691114 C72.6173995,270.428963 74.4897058,251.274174 75.1847674,244.507108 C76.036795,240.068709 76.5682223,236.213374 77.7267438,231.716848 Z M228.839969,308.944365 C224.775782,308.906701 221.871655,313.301312 224.217937,316.800203 C228.939483,322.124847 235.763655,317.324883 243.080269,331.679708 C255.220252,360.406771 260.821012,391.481451 268.376153,421.628145 C272.175396,425.573872 274.483719,430.590213 277.273455,435.276739 C278.302967,437.0395 278.617412,439.525905 280.487153,440.641074 C280.848791,440.810334 281.138613,440.838501 281.423307,440.79497 C277.543785,438.646829 278.356571,428.039023 279.156021,424.181383 L279.12142,424.182892 C278.768971,424.206595 277.480372,424.487778 278.071109,423.878969 L278.699486,423.677125 L278.699486,423.677125 L279.327862,423.477201 L279.371464,423.321 C268.455918,398.008583 266.083219,369.747817 258.260826,343.387319 L257.56308,341.048212 C254.860419,332.037842 251.740399,322.615061 244.901279,315.925736 C244.640439,315.910629 244.373956,315.814604 244.129274,315.608726 L243.883292,315.394334 C239.84669,311.905947 234.886113,309.090188 229.362932,309.599104 C229.142359,309.614724 229.106452,309.276717 229.311636,309.222943 C229.440902,309.18863 229.570938,309.163023 229.700717,309.133576 C229.41269,309.076217 229.125688,309.012456 228.839969,308.944365 Z M209.426718,380.481095 C208.262297,380.944575 207.077358,380.619371 205.761614,380.650099 C204.384315,380.683387 203.045487,380.911286 201.722562,381.288216 C179.981495,387.570549 183.186986,420.205953 167.356252,423.991894 C163.39953,424.759837 159.416391,424.167812 155.448127,423.635962 C152.916154,423.726353 150.589877,423.648765 148.166395,423.12639 C147.027879,425.410502 145.834989,427.638279 144.593624,429.814844 C147.478514,429.364167 150.417009,429.481445 153.332165,429.430488 C160.187883,429.538036 167.043089,429.257899 173.850333,428.403918 C176.274072,428.129927 178.510581,427.456216 179.944818,425.356728 C183.1816,419.892527 185.397077,413.818377 188.308385,408.169809 L188.691263,407.307021 C192.8579,397.946015 198.370277,386.712898 210.093566,386.685327 C210.160251,386.009568 210.688601,385.466707 211.288765,385.300264 C211.35545,384.327212 211.422134,383.35416 211.493949,382.378547 C210.816584,381.729419 210.317474,380.891825 209.426718,380.481095 Z M64.7231919,412.33839 C63.4541273,414.469118 63.5854453,418.207944 65.8593997,419.684678 C67.4008464,420.560425 69.5988827,420.46312 71.3070416,420.586032 L74.2492196,420.802107 C75.2298362,420.874211 76.2102886,420.947274 77.1904127,421.023934 L78.6603322,421.141952 C92.6844193,422.258914 106.6944,423.478046 120.70002,424.749927 L120.763497,424.726448 C120.958341,424.65607 121.264277,424.557878 121.264277,424.557878 L121.481941,424.457692 C121.793087,424.308547 121.41625,424.444352 121.379391,424.461949 L121.377128,424.463133 C122.939094,423.459353 124.621604,424.609091 124.990936,426.13243 C126.391319,424.25828 127.748099,422.284008 129.061279,420.204749 C127.215646,420.744281 125.255111,420.824686 123.346897,420.704079 C122.034744,422.193105 119.678203,421.646659 117.924903,421.613114 C105.535109,420.62393 93.1784003,419.19636 80.8275908,417.813089 C77.6908366,417.446658 74.5515175,417.078179 71.4147633,416.709187 L70.7066818,416.645115 C67.9333307,416.382884 64.5976602,415.850904 64.7231919,412.33839 Z M334.432658,388.08345 C333.132303,389.497192 330.641879,389.881292 328.982451,390.705825 C327.066543,391.660953 325.238095,392.818373 323.596108,394.192937 C316.16177,401.071649 308.594574,412.012341 296.955754,407.178576 C294.510471,406.233435 292.23113,404.728533 290.702508,402.571173 C290.022322,402.906364 289.233902,402.264662 288.544739,402.176831 C289.141056,405.386111 289.39215,408.434325 290.297525,411.567553 C290.68994,412.940069 291.133651,414.299782 291.679954,415.618524 C292.242416,416.968505 293.256795,418.334107 293.218836,419.845923 C302.036886,417.965116 310.951372,416.755458 319.890224,415.661799 C323.246525,415.539143 328.915253,413.739252 331.693448,415.449776 C334.985373,417.496514 333.508816,421.282712 335.263654,422.688772 C337.942847,423.995735 341.404562,423.00988 344.304585,422.931523 C356.938292,421.859117 369.689211,421.148789 382.302144,420.091747 C389.87729,418.704123 384.921321,416.382882 388.183494,414.524864 C388.171183,402.892281 374.169922,404.119095 365.95691,403.090988 C363.480336,404.078124 360.976318,404.989976 358.442293,405.820144 C357.192208,406.22985 356.328895,404.558761 357.194516,403.680453 L358.954741,401.89439 L358.954741,401.89439 C357.753643,401.623216 356.560497,401.319009 355.379918,400.96871 C353.717926,401.722087 351.97119,402.283569 350.343704,403.115776 L350.039998,403.2751 C348.929695,403.873015 347.621132,402.655419 348.285416,401.52335 C348.800172,400.646578 349.207976,399.747785 349.525242,398.811351 C347.970731,398.108929 346.461529,397.306806 345.025957,396.392533 L344.739832,396.20818 L340.076507,398.809302 C339.163694,399.318362 337.790242,398.459259 338.192659,397.363807 C338.670482,395.851992 340.083176,395.211569 341.157572,394.198059 C341.037282,393.93892 340.966494,393.595535 341.024458,393.332298 C338.925423,391.498351 337.093898,389.15688 334.432658,388.08345 Z M396.577838,423.139193 L396.429079,423.162239 C396.439338,423.180164 396.447033,423.195528 396.457292,423.210636 L396.521412,423.20321 L396.459857,423.213452 C396.500894,423.274652 396.557319,423.321 396.629134,423.338669 C396.6146,423.294455 396.601662,423.250582 396.591308,423.206216 L396.577838,423.139193 Z M226.390326,274.838093 L226.765619,278.338791 C227.761191,287.667942 228.708509,296.952896 229.450136,306.293287 C229.548368,306.384959 229.628902,306.491739 229.695844,306.606713 L231.902727,307.005016 C235.754549,307.707371 238.946043,308.434957 242.438555,311.076864 C254.07558,317.293387 257.975107,330.982952 261.543517,342.726924 C269.36668,368.478496 272.058697,395.673001 282.633894,420.575969 C282.944235,421.295515 282.926281,421.938242 282.710838,422.458057 C284.542107,421.930304 286.383636,421.441473 288.235424,420.987979 C285.747052,416.203123 284.672912,409.037874 285.366178,403.688135 L285.095251,403.679937 C284.231127,403.65851 283.187792,403.655548 282.497446,403.121972 C281.135103,403.504607 279.981026,402.207672 279.851839,400.976331 L279.846466,400.917753 C276.077744,358.730305 273.341868,316.112921 263.13626,274.871638 C261.808826,276.217307 259.411438,275.907743 257.627156,275.985827 L257.532165,275.990392 C255.924034,276.067468 254.313337,276.128668 252.702641,276.180393 L252.003918,276.189273 C243.495616,276.311572 234.731575,276.925461 226.390326,274.838093 Z M163.801435,308.680082 C169.678937,345.598196 164.480081,389.915093 149.182057,421.042009 C152.881272,420.966214 156.48046,419.974469 160.172238,419.98676 C166.741725,420.094308 169.947472,418.754312 172.588963,412.505012 C178.934286,398.056723 185.272684,379.500873 203.168854,376.757634 L204.006448,376.677724 C206.505884,376.443206 210.70775,376.188175 210.709119,379.146989 C211.033054,379.109859 211.403155,379.144172 211.73504,379.234052 C211.788901,378.542672 211.842762,377.851037 211.899188,377.162475 L211.946181,375.800059 C212.10212,371.497679 212.563138,365.542669 217.931605,365.590835 C218.003419,365.117112 218.159872,364.64595 218.349668,364.179909 C212.944602,361.516051 213.134141,347.835448 212.527565,342.324644 C212.033071,334.483891 212.072056,326.615227 212.250566,318.763976 C212.271084,317.985278 212.419843,316.948466 212.117196,316.313421 C209.330025,314.490484 208.719088,312.111884 208.626499,308.856768 C193.703961,309.233698 178.735001,308.832442 163.801435,308.680082 Z M228.67813,322.686913 C229.981563,325.625531 230.070818,329.016618 230.447844,332.181854 C230.76075,335.948591 230.981323,339.715327 231.201896,343.486929 L231.250336,344.351065 C231.326286,345.667607 231.434561,346.94655 231.914912,348.206489 L232.025874,348.500592 C232.591202,350.012702 233.023062,351.417716 232.866453,353.087114 C232.502251,356.989565 231.886699,360.938109 231.17394,364.789347 C230.176744,368.05445 226.463422,365.973142 224.351307,365.211857 L224.374119,365.428761 C224.515437,366.838906 224.510219,368.248792 223.72293,369.337086 C229.55478,369.149133 229.971047,373.338635 229.309072,378.01492 L229.270242,378.631554 C228.86399,385.219168 228.728618,392.123812 230.524788,398.495365 C233.555616,399.801047 235.755961,402.2557 237.865255,404.686794 C239.10662,406.128704 240.658325,407.65998 241.635515,409.362822 C249.863404,409.21584 257.707341,412.136789 264.269903,417.64913 L263.494521,414.362571 C258.418522,392.814083 253.448655,371.210922 246.652527,350.12417 C243.212869,340.147823 240.530085,325.587377 228.67813,322.686913 Z M102.277039,305.804534 C102.294993,315.184245 102.361678,324.561396 102.420668,333.941107 C105.239387,334.33801 107.960643,335.152045 110.584437,336.324829 C112.248994,337.067678 111.484683,339.321062 110.125337,339.835499 C107.647737,340.772702 105.057286,341.313258 102.4694,341.853302 C102.20266,362.239771 103.55585,382.726874 101.533247,403.040364 C107.614651,403.950424 108.05708,410.798663 106.906509,415.608102 C113.6404,416.201663 120.428408,417.899896 127.181021,416.711748 C129.170539,416.603432 130.437552,414.362339 132.259588,414.781007 C148.167267,386.906902 153.357402,343.479068 146.920003,309.051455 C132.010033,308.810753 117.044663,307.893523 102.277039,305.804534 Z M98.1990025,342.752351 C96.7883608,343.049388 95.3802838,343.348986 93.9696421,343.648584 C93.7608671,363.796655 94.6105864,384.0323 93.0181001,404.131207 C93.6141604,404.100222 93.4902804,404.493796 92.9821929,404.528365 C92.9514153,404.871494 92.9180728,405.214623 92.8847304,405.557496 C92.7898327,406.576896 91.3945798,406.574336 91.299682,405.557496 C91.2791636,405.350082 91.26121,405.145485 91.2432564,404.938072 C88.5553427,405.526768 85.8263921,405.944156 83.1177036,406.397394 C79.1271263,407.381713 69.536558,406.741035 68.8191825,411.928428 L71.9223538,412.197954 C82.3930146,413.112553 91.5921323,413.972224 101.974393,415.068058 C102.492483,411.882592 104.960593,407.177628 101.069017,405.155472 C100.507325,405.68809 99.4249784,405.450204 99.332389,404.438486 C97.1864182,383.960858 98.4972891,363.308592 98.1990025,342.752351 Z M406.735228,384.250648 C394.332609,379.2973 387.883668,385.070829 377.947108,391.412313 C372.81468,394.31124 365.813537,395.570575 360.647511,392.201253 C358.275068,392.339273 357.166303,389.734822 357.362254,387.65838 C357.359433,387.515238 357.356868,387.374402 357.356868,387.233309 C354.467617,388.971232 356.256568,393.794242 355.641271,396.641188 C361.537241,398.489731 367.673532,398.942457 373.797256,399.384171 C381.73237,399.560611 391.30143,403.456436 392.23313,412.309231 L392.258709,412.579016 L392.866568,412.560835 C392.866568,411.665974 393.432149,410.743615 394.556088,410.653647 L394.628587,410.649043 C411.02204,409.617096 427.587334,409.671382 443.898456,408.008231 C445.858222,407.452567 446.558157,406.161992 446.032372,404.246616 C444.76818,399.63486 438.294361,399.409522 434.480499,398.336348 C429.88591,397.043981 425.76145,394.779329 421.716756,392.349772 C419.992439,392.832457 418.249398,393.238066 416.491226,393.57889 C415.638172,393.744565 414.521714,392.991986 414.913615,392.004082 L415.198507,391.282881 C415.48612,390.564661 415.8382,389.74683 416.285529,389.053429 C414.968246,388.267561 413.640704,387.502947 412.289822,386.78673 C410.000222,387.596155 407.831168,388.656526 405.771375,389.967586 C404.52662,390.759966 403.254541,389.014259 404.18442,387.991667 L404.21736,387.956697 C405.292269,386.854587 406.126343,385.615226 406.735228,384.250648 Z M324.3735,385.766305 C313.318942,391.161368 301.591636,395.184939 290.283932,400.062235 L290.512066,400.147034 C290.908198,400.297112 291.359781,400.498017 291.505548,400.856297 C295.758504,404.220497 301.738856,405.591732 306.786901,403.201865 C314.06889,399.30095 317.681672,390.898387 325.130117,387.102715 C324.824905,386.680462 324.568425,386.229529 324.3735,385.766305 Z M219.280691,370.876045 C218.916489,370.814589 217.841837,370.343427 217.554579,370.468643 C216.821558,372.296445 216.799244,374.45867 216.597651,376.40964 C215.91567,384.019676 214.514261,391.544955 213.738152,399.130409 C217.578688,398.076184 221.527715,397.44959 225.47982,397.363551 C225.158451,395.011326 224.89838,392.672927 224.761676,390.306106 C224.50776,385.701008 224.693965,381.059293 225.384923,376.496702 L225.432397,376.24897 C226.180649,372.280727 225.585993,372.102746 221.840365,370.704481 C221.035017,370.978472 220.137336,371.024564 219.280691,370.876045 Z M303.667844,191.365575 C297.266865,185.259416 287.723745,186.001241 279.509963,185.967952 C261.997488,185.964111 244.523227,187.555563 227.252099,190.377415 C226.763248,191.236006 225.389539,191.430104 224.725768,190.792242 C219.970623,191.586048 215.230867,192.456674 210.50137,193.386195 C211.80942,201.646896 212.853551,209.953434 214.02028,218.234876 L214.095271,218.745229 C214.609588,222.339226 214.8622,226.361795 212.414713,229.327672 C212.345464,238.503555 211.995111,247.712214 211.960743,256.9009 C213.308291,255.6198 215.482474,255.766526 217.216025,255.449003 C220.766738,254.6342 224.147149,254.04576 227.747106,253.846028 C231.371173,253.292924 234.99524,252.739821 238.621872,252.189278 C239.180999,252.10196 239.629839,252.342918 239.909403,252.703972 C244.549132,252.157782 249.169881,251.225957 253.827564,250.924566 L253.551549,250.09836 C252.174766,245.942684 250.91664,241.43361 252.896027,237.302859 C253.365899,236.335184 254.90119,236.391775 255.387477,237.302859 C257.094097,240.499336 257.167194,244.14316 257.822757,247.63693 C258.199014,249.640906 258.977688,251.771634 259.340351,253.884694 C261.264467,257.06299 262.225242,260.790036 263.477892,264.273051 C277.164451,307.40692 278.811055,353.077639 283.965026,397.732031 C291.959518,394.418788 300.054037,391.315263 308.076997,388.07628 C313.841136,385.261598 326.91958,383.056098 326.275558,374.929576 C326.305566,374.262523 326.266581,373.601872 326.190406,372.944037 C326.347372,372.683618 326.567432,372.466473 326.825452,372.299774 C324.178318,361.901431 323.057499,351.164055 322.380648,340.478149 C320.620936,311.105543 319.751725,281.678395 318.854556,252.268403 L318.812365,251.023069 C318.134631,230.624157 317.916413,207.428568 303.667844,191.365575 Z M325.169615,309.215517 C326.218286,328.81303 325.753923,348.686861 330.444301,367.874971 L330.588018,368.456218 C331.041475,370.297335 332.24642,372.890007 331.481082,374.815114 C331.453382,377.168108 332.283609,380.835747 330.258184,382.498642 C329.392563,383.129333 328.278413,383.520347 327.234281,383.918018 C327.74083,384.507739 328.449741,384.91386 329.14942,385.154306 L329.266424,385.098295 C331.208098,384.18899 334.619581,383.571796 335.107201,386.280998 C338.779999,386.570097 342.332251,390.081024 345.294599,391.95799 C346.810398,392.918239 348.380057,393.763002 349.993318,394.50329 C350.50551,390.610825 352.786133,385.67745 357.354303,385.801898 C357.354303,383.447112 356.952912,381.123822 356.599995,378.802068 C354.476338,379.1411 352.355246,379.282448 350.207736,379.190776 C348.782475,380.217603 347.370807,379.086814 347.185372,377.547342 C340.602805,354.680359 333.24618,331.719655 325.169615,309.215517 Z M384.880027,368.760937 C376.111991,371.508273 366.487824,371.567936 358.069884,375.35439 C360.596471,378.972864 361.569301,383.345966 362.186393,387.643272 C362.763473,388.093692 363.150759,388.805813 363.181536,389.576573 C363.197181,389.846723 363.172303,390.118921 363.091768,390.3755 C372.458429,392.332871 379.327998,384.404032 386.862364,380.396593 C385.83516,376.648549 385.342205,372.636501 384.880027,368.760937 Z M362.212041,387.991522 L362.214862,388.045296 L362.214862,388.045296 C362.201781,388.480609 362.5429,388.342077 362.212041,387.991522 Z M356.146281,376.16612 C356.003165,376.229369 355.861332,376.297995 355.718216,376.362523 C355.866205,376.340502 356.014194,376.319504 356.161926,376.294922 C356.156797,376.251903 356.150641,376.208883 356.146281,376.16612 Z M334.363408,186.311081 C324.141129,179.406763 303.752483,182.632431 291.638917,183.445442 C315.570583,185.256087 319.531408,218.0797 321.431927,236.971253 C322.960293,257.264514 323.528397,277.629473 324.645882,297.950645 C334.176177,323.368818 341.910085,349.440472 350.060003,375.326479 C356.67976,371.620942 363.917635,369.265131 371.411989,368.043695 L372.49296,367.887249 C378.77005,366.969514 385.15179,365.82309 390.322283,361.911161 C371.809021,316.766146 364.059725,268.031593 349.983829,221.445437 C345.850392,209.788271 344.485147,194.493682 334.363408,186.311081 Z M389.057835,366.901639 C388.706201,367.110333 388.344307,367.305712 387.975488,367.488799 C388.1699,367.445268 388.376623,367.438098 388.584885,367.467802 C388.745186,367.285226 388.917027,367.076276 389.057835,366.901639 Z M220.963459,269.399244 C219.273253,266.573039 215.538131,264.011863 212.225174,265.239445 C217.215512,268.282282 216.131369,277.078674 216.498393,282.223304 L216.490228,282.513637 C216.368272,287.367464 216.780849,297.613119 214.107483,301.074655 C214.294457,303.306785 214.297792,305.619577 214.525546,307.865791 C214.594796,308.687764 214.433213,310.224162 214.917961,310.951391 C220.269423,313.945575 217.674099,321.126189 217.993417,326.110521 C217.750786,335.652322 218.418917,345.176455 218.696173,354.708014 C218.678475,357.172653 218.438666,359.800406 219.260173,362.159289 C220.311742,359.916148 223.307432,360.067227 223.958892,362.338536 C224.483651,361.650229 225.538811,361.596199 226.441622,361.719111 C226.759657,358.694967 227.249535,355.673384 227.354692,352.64668 C227.405988,351.141009 226.518566,349.901648 226.192579,348.462555 C225.537272,343.001939 226.283117,337.422253 226.349289,331.930653 L226.365192,331.76673 C226.575829,329.495759 226.739952,323.875186 228.024105,322.497424 C219.71363,321.005837 217.08445,310.556793 225.195127,306.697872 C225.084071,306.187788 225.190511,305.649793 225.541376,305.264157 C224.850674,296.997566 223.95761,288.741218 223.174062,280.479492 C222.838073,276.758591 222.850897,272.738605 220.963459,269.399244 Z M70.2516251,339.835243 C70.8794889,338.985871 69.5245034,338.069153 68.9728142,338.970251 C68.4034279,339.932292 68.0723119,341.108917 68.3044265,342.217173 C68.4329232,342.830964 69.4398649,343.002016 69.7107081,342.400516 C69.9435922,341.906308 70.0259224,341.376507 70.141595,340.847474 C70.4521927,340.607283 70.4557834,340.154046 70.2516251,339.835243 Z M74.9824045,334.844766 C75.0080525,334.990723 75.0311357,335.139242 75.0516542,335.288016 C75.2824864,335.203259 75.5210131,335.134377 75.7672342,335.072921 C75.5056243,335.000966 75.2440144,334.924402 74.9824045,334.844766 Z M95.1366275,273.998529 C94.505686,274.392615 93.7593283,274.641255 92.9770633,274.756485 C94.4043762,294.284363 93.5956938,313.949749 93.9388645,333.52628 C95.345659,333.848923 96.8129829,333.579286 98.2400393,333.689906 C98.589109,316.604133 97.9361102,299.531675 99.0325635,282.458706 C98.0751225,280.01532 97.4634169,277.049047 98.1733545,274.446645 C97.1474332,274.346523 96.1317712,274.200565 95.1366275,273.998529 Z M203.035228,301.080032 C190.382028,301.575008 177.642138,301.356584 164.970985,301.200383 C164.170766,301.177337 163.347464,301.17196 162.513903,301.167095 C162.839633,302.875057 163.144845,304.595567 163.426973,306.324015 C178.425686,306.151171 193.457227,305.798567 208.446963,306.121723 L208.383203,305.42165 C208.320326,304.715374 208.263579,303.992787 208.244343,303.274521 C206.38204,303.132916 204.561286,302.336294 203.035228,301.080032 Z M135.632304,272.52333 C134.711283,273.710454 132.693553,272.948656 131.356777,273.061326 C131.015659,273.606747 130.430884,274.008515 129.605017,274.052303 C123.24687,274.390054 116.875899,274.456631 110.507493,274.548815 C108.649549,276.699773 105.347878,275.458875 102.956712,276.331037 C102.663555,277.818527 102.648423,279.362095 102.310382,280.85573 C102.166753,281.465424 101.953874,282.041574 101.715348,282.607224 C102.233438,288.258609 102.27191,293.98707 102.27191,299.653563 C105.41918,298.736589 108.823443,298.891766 112.074587,298.683072 C119.124975,298.503313 126.177158,298.574243 133.229084,298.560416 C136.34455,298.503825 139.867051,298.691778 142.906086,298.652344 C143.684247,298.371695 144.785317,298.818018 144.945104,299.715019 C145.528084,302.002204 142.934555,302.172744 141.385158,302.058282 C139.515416,302.017312 137.645675,301.976341 135.778498,301.937675 C128.129999,301.748442 120.480217,301.60863 112.838899,301.264477 C109.334095,300.976402 105.652833,301.06961 102.27191,300.019738 L102.273515,304.287424 C102.274297,304.713022 102.275424,305.10397 102.277039,305.430677 C116.931042,305.372806 131.593252,305.59712 146.250589,305.463965 C144.003052,294.062866 140.325125,282.433867 135.632304,272.52333 Z M324.889025,303.092458 C324.829522,303.841964 325.096261,304.472143 325.448152,305.117943 C325.260409,304.443464 325.071639,303.768729 324.889025,303.092458 Z M154.978768,273.506804 C157.789536,281.24513 160.090164,289.413392 161.862443,297.897127 C174.47871,297.62288 187.072919,297.757827 199.68816,297.77908 C195.039967,292.325123 190.107338,293.823111 187.792347,290.355972 C186.115478,287.668043 187.515861,278.862433 187.954186,275.509243 C178.132016,275.093136 168.264961,275.043971 158.487162,273.931618 C157.379168,273.785917 156.17371,273.685795 154.978768,273.506804 Z M85.5237454,270.559301 C85.2903483,270.754168 85.0364328,270.928293 84.7671285,271.076811 C85.4419282,272.846486 84.7504572,274.628964 85.3465175,276.431927 C85.3716526,278.560863 85.2634179,280.704395 85.3698572,282.727831 C85.3613933,284.654731 86.5601823,285.863108 88.2886032,285.9873 C88.9144151,286.023406 89.7428465,285.877448 90.596926,286.130954 C90.766716,282.36012 90.6192398,278.528087 91.2381268,274.800016 C90.8423776,274.764679 90.453297,274.697846 90.0806311,274.602589 C90.0236925,272.827281 88.2873208,271.117014 86.5052955,272.024001 C86.1493009,271.550534 85.8248533,271.051717 85.5237454,270.559301 Z M200.383478,269.219485 C199.846152,269.282989 199.324984,269.402572 198.824334,269.606913 C198.941546,274.420705 205.901652,271.040373 206.853707,276.947312 C207.011955,278.339033 206.840114,279.73818 206.793691,281.132717 C206.771377,281.846118 206.209942,282.966409 206.988359,283.383541 C207.388725,283.964299 208.485948,283.850606 208.388742,283.015317 C208.370788,282.861677 208.358477,282.704965 208.347961,282.547484 C208.690619,281.941119 208.899138,281.304794 209.010963,280.648496 C209.423896,280.435192 209.300273,279.887466 209.116889,279.50183 C209.009937,278.665262 209.359263,277.1916 208.442859,276.7463 C208.348731,271.191452 206.283808,270.309303 201.119064,269.857602 C200.768199,269.820729 200.54583,269.99383 200.446059,270.234532 C200.309612,269.937239 200.313459,269.580795 200.383478,269.219485 Z M195.805048,196.120728 C192.10891,197.296329 187.981116,197.541128 184.142888,198.274502 C159.354835,201.740104 135.53833,211.95152 110.261169,211.67676 C109.39683,211.636046 108.586353,211.508013 107.827171,211.300599 C107.829736,211.694941 107.883597,212.099526 107.968235,212.491307 C108.442724,212.895892 108.737676,213.533242 108.830009,214.178785 C127.80314,223.784603 142.125514,243.305823 151.108224,263.855663 C162.238187,262.342566 173.358404,260.625897 184.51222,259.236225 L186.536515,258.974392 L186.536515,258.974392 L190.585674,258.455223 C192.558007,258.206326 194.755274,257.581268 196.715553,257.999424 C197.609644,249.064244 197.611952,240.350817 198.285213,231.360583 C196.315444,229.786031 196.779673,226.423879 196.700421,224.101357 C196.250811,214.778748 196.211569,205.441544 195.805048,196.120728 Z M208.595721,231.862473 C207.923743,232.039415 207.231246,232.103431 206.582351,232.008687 C204.850339,232.85345 202.286306,232.415832 200.367833,232.218661 C200.590971,234.292799 200.783331,236.372058 200.865405,238.456182 C201.18857,246.583985 201.06033,254.880536 200.329361,263.002961 C202.957002,263.187585 205.585412,263.509205 208.208436,263.722252 C208.233058,253.122128 208.727809,242.476424 208.595721,231.862473 Z M108.465909,238.466502 C110.556224,247.167125 120.029068,260.478992 129.551156,261.27459 C123.754701,251.907426 117.091342,244.525032 109.727793,239.329445 C109.307165,239.032408 108.889102,238.748431 108.465909,238.466502 Z M193.512114,172.780533 C193.209467,172.788215 192.906821,172.790776 192.604174,172.785399 C194.42621,175.430052 194.101762,179.549904 191.898853,181.878572 C199.58762,186.636797 199.346015,197.280708 199.603522,205.267675 C199.909759,212.995758 200.320897,220.707197 200.644832,228.426062 C200.644832,228.285482 201.106496,228.482653 201.270644,228.51082 C202.311184,228.645767 203.364549,228.691859 204.415092,228.646535 C206.002192,228.015076 208.094046,228.002528 209.188191,226.472532 C210.485981,224.736146 210.188464,222.139889 209.965326,220.129768 C209.424153,215.264506 208.693184,210.416914 208.078144,205.561639 C206.382553,195.18839 206.595688,175.008823 193.512114,172.780533 Z M190.647229,182.995021 C184.472465,186.865465 176.349221,185.357746 169.374752,185.786145 C164.278488,185.860404 159.179659,185.88345 154.081087,185.865269 C136.908191,185.76822 119.745555,185.084523 102.587278,184.37778 L102.625399,185.089716 C102.941069,190.785566 103.524919,196.486759 105.18568,201.959041 C106.129015,205.707853 107.538374,207.097525 111.487145,206.765663 C132.58855,206.453262 152.60889,198.936946 173.17579,195.160223 C180.528055,193.936994 188.001378,192.893267 195.381856,192.026482 L195.300619,191.566934 C194.709383,188.289881 193.754214,184.586848 190.647229,182.995021 Z M195.135635,17.6119895 C195.428022,18.1607398 195.59653,18.6546918 195.466494,19.1660564 C220.181707,72.0271194 213.654796,132.153298 226.703232,187.903558 C226.959199,188.054637 227.104623,188.293291 227.239275,188.543724 C231.458377,187.698961 235.708255,186.966355 239.973523,186.331566 C239.485441,185.075048 240.237441,183.937346 241.096907,183.120494 C241.109731,182.995021 241.281573,182.600423 241.291832,182.600423 C239.683957,162.827489 237.342804,143.056092 235.328408,123.303388 C234.070372,109.537515 231.775643,95.6438655 232.397095,81.8075747 C232.420178,81.6462529 232.630492,81.6951616 232.677171,81.8075747 C236.003721,93.7653625 237.928349,111.914323 241.25336,136.050116 C265.260174,164.17952 279.404037,169.100603 302.490856,136.501049 L303.67613,134.759643 C314.466608,118.882755 324.994472,102.700992 333.183599,85.3133795 C322.939518,84.9845903 317.409546,74.2303145 313.03194,66.3414215 C312.291738,65.9417019 311.798014,65.3376413 311.393031,64.5259109 C307.924648,68.8462628 305.179283,74.1755163 301.667041,78.5629576 C292.948506,90.0106612 272.920728,104.205445 272.482146,104.660475 L272.39835,104.735661 C271.081656,105.939069 267.116271,110.486085 265.890602,110.363841 C260.5494,115.310019 248.673335,92.2709591 247.24474,87.9303779 C243.761737,79.4750661 240.953278,76.8759923 237.931683,68.2519327 L237.411127,66.6981476 C233.249381,54.2371707 229.066133,41.1101052 218.64975,32.400079 L218.241314,31.9665179 C211.574433,24.9163575 205.090631,19.4162844 195.135635,17.6119895 Z M322.511453,173.697251 C319.55167,173.879058 316.589322,174.055488 313.62954,174.23243 L310.891025,174.394469 C289.285244,175.687317 267.634034,177.284129 245.985422,176.342417 C246.189067,179.383973 247.252947,182.535382 246.080319,185.491668 C261.016194,183.746576 276.05107,182.672122 291.051577,183.394485 C299.966064,179.186034 310.785429,177.866268 320.808424,177.811982 C320.977444,176.413347 321.558372,174.832393 322.511453,173.697251 Z M170.572515,149.803953 C156.034185,143.317536 141.815429,149.920463 136.69916,165.608114 C137.057719,165.902846 137.304453,166.421381 137.366265,166.944781 C138.71253,168.740574 141.181153,168.684752 143.203501,168.939538 C147.271278,169.477021 151.216202,170.788337 154.8118,172.772851 C156.796957,173.856268 158.503321,175.423394 160.552855,176.369048 L161.655571,177.403847 C163.496066,179.124791 165.383405,180.781541 167.822533,181.690363 C170.348864,181.822237 167.085665,176.902946 166.554494,175.94705 L166.356897,175.629521 C165.29281,173.942069 163.92489,172.020577 165.381097,170.103615 C168.034642,171.374729 170.172662,173.20842 172.307091,175.254647 L172.692924,175.628523 C174.769799,177.658438 177.15813,180.205946 180.141026,180.537808 C180.643727,180.593887 181.009725,180.00263 180.88328,179.565268 C179.544196,175.130455 175.630307,172.030003 171.98726,169.367425 C172.018551,168.103481 172.897765,167.136574 174.04808,166.860791 C179.161271,169.804018 182.730964,174.464682 187.730278,177.482936 C188.2694,177.801739 188.835452,177.380254 188.888287,176.819468 C188.857253,172.894227 184.853339,169.886215 182.093611,167.561132 C181.519608,167.117881 180.932268,166.688714 180.334156,166.274399 C180.47009,165.487763 181.189774,164.799456 182.088994,164.672191 C183.728929,165.13772 193.560589,172.766962 193.588032,169.240672 L193.569577,169.144606 C193.307574,167.904056 191.882408,165.213406 190.505908,165.545378 C185.410157,159.255875 178.093031,152.716964 170.572515,149.803953 Z M132.346689,5.62552229 C127.209388,8.57310238 122.280862,11.7644577 117.137406,14.6825901 C110.581769,18.4365232 103.53882,21.3505586 97.2386376,25.5518397 C78.0546796,39.6803022 72.4941864,69.4590297 65.5174089,91.1772996 L64.5297651,95.3933225 C60.5309851,112.495548 54.5269915,139.737502 61.7712574,153.675421 L61.8223469,153.785396 C62.7269062,155.702913 67.0289294,163.478692 69.2448373,164.860144 C75.7389188,168.90881 89.3200644,170.284654 101.123032,169.492385 C112.360204,168.970778 123.423226,166.822125 134.390837,164.563363 C134.641743,160.788271 136.489548,157.634109 138.43437,154.559165 L138.635843,154.241328 L138.861164,153.907797 C141.611943,149.870595 144.714539,146.597575 149.259001,144.815524 C134.076905,140.273675 109.08136,146.118902 92.1567367,134.22974 C90.8050854,133.280246 91.9846384,131.269357 93.4511928,132.018607 C94.3334851,132.469284 95.2296273,132.882063 96.1367982,133.26565 C95.3372377,130.386419 97.4203332,128.671757 98.664598,126.171637 L98.7139124,126.071209 C109.401447,104.521175 117.810154,80.2980634 125.265524,58.3419078 C123.095957,73.7020496 119.59577,88.9149532 114.631594,103.609322 C119.180785,107.098995 122.977719,111.497959 127.07884,115.487986 C131.471578,120.145065 136.801239,124.104107 140.15395,129.635909 C140.884919,130.923923 139.446064,132.22474 138.197005,131.589696 C135.252611,130.094268 132.808353,127.723093 130.548762,125.364722 L129.630638,124.36496 C124.022938,118.246132 118.492639,111.947307 114.213531,104.815395 C111.359057,113.07861 107.83655,119.930172 104.069718,127.72179 L103.587551,128.721752 C102.75399,130.445079 101.976855,132.368137 100.604942,133.640531 C101.512626,135.458603 103.835568,135.8806 105.626826,136.411426 C120.181009,140.492614 135.634366,137.082328 150.247595,140.798272 L151.211602,141.047439 C152.174107,141.297575 153.147617,141.600315 153.720989,142.478918 C166.466778,142.944447 178.878886,148.161287 188.813395,156.202796 L189.069501,156.406477 C193.255187,159.755109 197.543933,164.174552 198.295472,169.715419 C198.436536,170.76017 198.049251,172.237673 196.800192,172.473254 C199.218801,172.772851 201.401449,174.017334 203.194246,175.7381 C186.098551,116.468976 136.016922,69.2774786 132.346689,5.62552229 Z M186.472499,174.115792 C186.709487,174.474284 186.924674,174.849166 187.08164,175.239155 C187.004696,175.185893 186.930573,175.127766 186.854142,175.073736 C186.87543,174.88015 186.731288,174.664286 186.593045,174.507829 L186.594327,174.506549 C186.528155,174.428192 186.466343,174.345483 186.401967,174.265078 C186.430949,174.217962 186.453776,174.167517 186.472499,174.115792 Z M242.291592,144.83857 C242.95485,150.472543 243.616056,156.104466 244.272133,161.738951 C248.946743,161.122087 253.655465,160.751559 258.361623,160.404589 L258.100782,160.241987 L258.100782,160.241987 C255.721414,158.756034 253.526712,157.017855 251.468201,155.116562 C249.205788,153.026805 247.049815,150.768043 245.063631,148.414025 C244.090032,147.260446 243.167985,146.066408 242.291592,144.83857 Z M130.892009,84.4826234 C131.617079,90.9372886 135.642794,96.4094271 139.383303,101.489784 C140.362802,102.820049 138.136039,104.096028 137.168596,102.782151 L136.779357,102.252237 C132.848308,96.8856882 129.087485,91.2508746 128.327206,84.4826234 C128.14331,82.8448228 130.710165,82.8632596 130.892009,84.4826234 Z M371.5351,20.3390964 C359.940394,27.6121498 347.80785,33.9884587 335.948456,40.8164687 C334.496778,41.6386979 333.027146,40.2866674 333.299015,38.7835577 C333.904308,35.4485492 334.504677,32.1133768 335.094869,28.7771228 L335.550584,26.1909434 C335.722036,25.2578158 336.431502,21.890123 335.753788,20.6258908 C332.813822,25.5983585 329.774686,30.5157434 326.721342,35.4214692 L323.388872,40.7706328 C319.820974,46.5011423 315.827576,52.3164098 314.40924,58.9897557 C315.274604,59.8107045 315.72088,61.0024375 315.827576,62.1726608 C316.824515,62.5716122 317.506239,63.6814039 317.233344,64.8534198 C321.503742,69.9565666 324.419923,77.2887713 331.252302,79.4340955 C339.001342,68.287782 351.737128,61.7665396 365.053842,60.1446151 L367.417338,59.7314388 C373.190983,58.7120711 379.208174,57.4667517 383.807683,53.8786708 C379.242333,54.0986318 374.676984,54.3088623 370.109069,54.5060334 C368.580447,54.5726107 368.257282,52.1655867 369.747689,51.8455038 C376.382578,50.418958 383.122881,47.3848274 388.426893,42.8985445 C379.575758,46.017433 370.288606,47.8685368 360.927074,48.5960214 C359.001164,48.6182992 358.665944,45.8379304 360.480798,45.2953258 C368.731457,41.9001551 376.127842,36.4993534 381.801069,29.6436247 L381.981543,29.4243316 L370.093681,35.6851546 C365.135916,38.2967756 359.831903,41.523468 354.043143,41.515786 C352.360888,41.5132253 351.986427,39.4109204 353.235486,38.5379901 L354.863689,37.3284826 C360.353307,33.2407859 370.75027,25.2762355 371.5351,20.3390964 Z" id="ðŸ–-Ink" fill="#000000"></path>
                </g>
                <g id="Head" stroke-width="1" transform="translate(86.511840, 45.072000)">
                    <g id="head/Gray-Short">
                        <path d="M72.0700547,127.571775 C66.5042089,127.60384 61.773892,126.026821 58.1644676,123.417903 C53.6603352,121.814091 48.2273917,119.34039 44.9274038,116.743491 C43.6402581,117.071515 42.1000966,115.706084 41.1151154,114.985433 C34.9903279,110.418387 30.1827772,103.733458 28.7582156,97.0372616 C26.5590596,99.8091896 23.4295878,99.9243736 20.4317645,98.5466728 C14.1477451,94.987988 14.3827062,87.494768 16.6450535,81.8963248 C11.8889084,71.240052 8.59268191,43.1086136 15.852906,31.7552272 C17.3379005,30.0565136 19.5172466,29.0403904 21.0862454,27.2983576 C22.4824712,25.7769272 23.8104906,24.2206912 25.4349072,23.016768 C30.3914087,19.2497504 38.9282466,17.2440464 44.2734245,16.3007896 C66.5864579,11.4835944 83.7303461,20.1419256 103.942019,27.4453424 C102.778749,30.3499824 101.169628,32.998964 99.3255471,35.4689096 C104.343234,37.3391472 102.038508,41.5441144 98.1457262,43.6757696 L95.828212,42.5509728 C99.4408962,55.4580912 107.75506,87.554864 104.167703,97.8620792 C101.307044,113.942767 88.7525465,127.687724 72.0700547,127.571775" id="ðŸŽ¨-Background" fill="#FFFFFF"></path>
                        <path d="M75.2940938,128.955786 C68.0672417,129.696552 59.48173,127.990499 54.6639466,122.128262 C54.5198784,121.952801 54.4568051,121.754133 54.4530441,121.562281 C54.4488618,121.348944 54.5205644,121.142842 54.644473,120.982487 C54.774699,120.813955 54.9600934,120.69646 55.1726282,120.658345 C55.3515748,120.626252 55.5555896,120.646899 55.765925,120.76472 L56.2088385,121.010992 C59.4991625,122.825702 62.9163088,124.373281 66.6451612,125.035612 C70.484496,125.717457 74.3938654,125.641198 78.1990061,124.775215 C85.1301576,123.198279 90.7395901,119.175508 94.868428,113.871181 C99.475932,107.951912 102.242667,100.437892 102.947917,92.9234407 C103.802506,83.8167196 101.820099,74.765484 99.7690803,65.9478748 C97.6139396,56.6828299 95.2582646,47.4650301 92.5218053,38.3542217 C92.4393292,38.0799634 92.4171668,37.8232513 92.4409804,37.5868232 C91.6338691,37.2710711 90.7748358,37.3587275 89.919884,37.6469703 C88.3577423,38.1736389 86.8015319,39.3612854 85.5036726,40.3416424 C85.0336191,40.6967042 84.5963171,41.0267364 84.2033617,41.2952589 C82.5940201,42.3949079 80.8346571,43.1861379 78.867637,43.3105909 C76.8216168,43.4396995 74.8157761,42.8047472 72.9576168,42.0101286 C72.0136161,41.606404 71.0847671,41.1876485 70.1596374,40.7705356 C67.5254219,39.5828479 64.9222993,38.4068705 62.077599,37.6426032 C58.2659078,36.6182665 54.3305181,36.113735 50.3829636,36.1498765 C43.3377546,36.2142192 36.2709346,38.0250641 31.9529844,43.975036 C30.2039117,46.3852916 29.0635565,49.1554963 29.9529098,52.1301363 C30.4367156,53.7483085 31.3497652,55.2173035 32.34628,56.5683911 L32.688186,57.0285021 C33.2348303,57.7701445 33.709633,58.5088035 33.8528004,59.295229 C33.972734,59.9540306 33.8791857,60.6509915 33.4080529,61.4148709 C33.1116054,61.8957431 32.7342172,62.3269556 32.3547496,62.7567643 C32.0810385,63.0667866 31.806543,63.3762366 31.5703779,63.7094498 C31.0944461,64.3811981 30.6730541,65.1047019 30.3425611,65.8592738 C29.6953877,67.3363407 29.4208681,68.9252534 29.3634504,70.5277554 C29.2939343,72.4610656 29.5661687,74.3523348 29.8361699,76.2463117 C30.0276187,77.5892664 30.2186546,78.9335682 30.2957949,80.294153 C30.3092561,80.5315778 30.2365687,80.7084677 30.1347435,80.8393832 C30.0101423,80.9995818 29.828323,81.1005544 29.6214044,81.1285262 C29.5585867,81.1370181 29.4935409,81.1383699 29.4282139,81.1325961 C29.4603098,81.2634766 29.4886473,81.3949635 29.513245,81.5268973 C29.3824541,81.3590009 29.2433074,81.1960733 29.0964408,81.0385829 C29.0870637,81.033867 29.077761,81.0289803 29.0685398,81.0239228 C28.9171092,80.9408688 28.7888478,80.8142787 28.7080055,80.6512972 C28.5000187,80.4582984 28.2798121,80.275223 28.0487963,80.1031104 C26.8466505,79.2074812 25.4428937,78.6765733 24.0347348,78.658971 C22.6772325,78.6420018 21.3164036,79.1035773 20.2700812,80.0784213 C18.1904387,82.0158128 17.5812687,85.1785004 17.5595305,87.8940239 C17.5374994,90.6659781 18.1799393,93.9926882 20.6002631,95.7137488 C21.5711449,96.4040677 22.7568867,96.8188551 23.9514105,96.8308571 C24.9416617,96.8407822 25.8891574,96.4909473 26.8220773,96.1576702 C27.109772,96.0548939 27.3960998,95.9526809 27.6817206,95.8598186 C28.0062477,95.754371 28.3019926,95.7610743 28.5597757,95.8381727 C28.8503359,95.9250743 29.0969338,96.1045301 29.2811643,96.3438839 C29.464682,96.5823116 29.5849688,96.8807982 29.6222505,97.1933813 C29.6583453,97.4960133 29.6168055,97.8102652 29.4884834,98.0935661 C29.4562703,98.164929 29.4222894,98.2341982 29.386923,98.3018424 L29.9192787,99.1758829 C31.9576067,102.514055 34.031598,105.791303 36.7512608,108.660517 C38.3123081,110.307386 39.9669817,111.861528 41.7819977,113.221949 L42.0437782,113.416016 C42.2004218,113.530841 42.3741671,113.672405 42.5594709,113.823775 C43.0888545,114.256214 43.723355,114.836174 44.3157279,114.859009 C44.4915187,114.865843 44.6449617,114.843886 44.7845482,114.825591 C45.1218666,114.781383 45.4048625,114.768443 45.6829289,114.881716 C45.9065905,114.972826 46.1386991,115.142962 46.3770574,115.494342 C46.5382929,115.732165 46.621044,116.030444 46.621044,116.333083 C46.621044,116.637109 46.5372987,116.941262 46.3882513,117.181658 C46.0799211,117.679306 45.706845,117.987496 45.3021123,118.162517 C44.8508667,118.357652 44.3521785,118.387456 43.8338195,118.290916 C42.5568658,118.053094 41.1432319,116.996895 40.2436863,116.307606 L40.0696849,116.174531 C38.0764503,114.65631 36.1874015,112.976457 34.5268019,111.097764 C31.6986894,107.898538 29.1587829,104.128512 27.8541612,100.009243 C26.9346267,100.612419 25.7985514,100.898732 24.6107724,100.943827 C22.8802618,101.009526 21.0486842,100.564943 19.6990346,99.9258028 C16.7245754,98.5173033 14.9179407,95.8532645 14.0712604,92.7896691 C13.0880233,89.2319619 13.4075892,85.1417352 14.6523219,81.9457762 C14.6884009,81.8528715 14.726092,81.7603207 14.764775,81.6663317 C10.9327227,71.9715562 9.75443681,61.2061815 10.0826669,50.8600748 C10.2362027,46.0172577 10.5664553,40.9363169 11.7106104,36.2131892 C12.223429,34.0962613 13.1144139,32.0802662 14.5371017,30.4136631 C15.3482177,29.4632909 16.3434436,28.7234208 17.3432305,27.9855797 C18.2091618,27.3465238 19.078409,26.7088709 19.8098409,25.9109564 L20.1557018,25.5320826 C20.2306749,25.4496838 20.3054493,25.3673865 20.3800979,25.2852277 C21.6431689,23.8950824 22.8728662,22.5461539 24.4056331,21.406074 C26.1832253,20.0842246 28.1448288,19.0495847 30.1830932,18.1903011 C34.5741167,16.3398196 39.3001368,15.2302581 43.9753452,14.3718487 C54.08997,12.5150985 64.4729437,12.4234792 74.4635579,15.0334408 C79.1085231,16.2467439 83.6164663,17.9075257 88.1167159,19.5663226 C88.5345529,19.7203378 88.9523253,19.8743292 89.370153,20.0279386 C92.8674027,21.3137899 96.3665226,22.5941556 99.865677,23.8745341 C101.491876,24.4695779 103.118082,25.0646244 104.74417,25.6602468 C105.096973,25.7895252 105.442387,26.0680015 105.639107,26.4139835 C105.831037,26.7515396 105.88823,27.1452016 105.733252,27.5372015 C104.735511,30.0615258 103.476607,32.4298217 101.944231,34.6414245 C102.476739,35.0031255 102.929898,35.4841096 103.272682,36.0470965 C103.706229,36.7591534 103.963065,37.602127 103.980516,38.4964115 C104.038921,41.4914746 101.309437,43.5217918 99.044927,44.9902346 C98.8338563,45.1272414 98.6249006,45.2081068 98.423,45.2452115 C100.617191,53.6229036 102.717649,62.0289601 104.502393,70.5016163 L104.625147,71.0889188 C106.463722,79.9560875 107.64995,89.0051095 105.911124,97.9900421 C104.413984,105.727073 100.935766,113.194148 95.500727,118.957934 C90.1743714,124.606813 83.0271626,128.162984 75.2940938,128.955786 Z M27.7076791,77.9464551 C26.7613923,74.9477984 26.2599231,71.6851262 26.6219839,68.6454255 C26.8498769,66.7346935 27.4251773,64.8952309 28.3618903,63.2110945 C28.898406,62.2465421 29.5522824,61.3536005 30.2658988,60.5125843 L30.5120603,60.2301241 C30.6366854,60.085853 30.760647,59.953253 30.7990625,59.7870359 C30.821387,59.6904417 30.7986608,59.584805 30.7398695,59.4585868 C30.6095963,59.1790449 30.3674938,58.9096309 30.1408489,58.6466561 C29.9968037,58.4795213 29.856114,58.3154877 29.7379927,58.1558944 C27.664038,55.3524868 26.1173777,52.0149333 26.6201304,48.4599058 C27.1105757,44.99145 29.3869788,41.7583751 31.8104217,39.3218687 C37.1467066,33.9567599 45.4198844,32.7238916 52.6674659,33.0198141 C56.8864525,33.1919364 61.098574,33.9344336 65.1163189,35.2314339 C67.0975361,35.871156 69.0346998,36.6502139 70.9171967,37.5431311 L71.3340128,37.7429662 C71.558942,37.851786 71.7836459,37.9618184 72.0085031,38.071928 C73.4799668,38.7924845 74.9569997,39.520079 76.554335,39.9118315 C79.6737684,40.6767117 81.789834,39.0657291 84.0139782,37.44105 C84.7762234,36.8842499 85.5501155,36.3197475 86.3726955,35.8243516 L86.5419913,35.7243948 C88.0259402,34.8653869 89.8008675,34.2873233 91.5059341,34.3132489 C92.9869898,34.3357684 94.4159259,34.8079861 95.5792853,35.9239155 C95.8180312,36.1532106 95.9555089,36.4033605 96.0200226,36.6523212 C96.1487283,36.8325111 96.2526356,37.0473813 96.3203127,37.3012261 C96.7370468,38.8626605 97.1519124,40.4252145 97.5653932,41.9882438 L97.9034925,41.7706983 C98.9050097,41.1211239 99.9938913,40.3787818 100.485631,39.2920493 C100.674883,38.8737738 100.648078,38.176928 100.409555,37.6645916 C100.326214,37.4855788 100.21599,37.3264179 100.06365,37.2270708 C99.9528169,37.1547914 99.8192215,37.1208655 99.663981,37.1333513 C99.286527,37.1818787 98.9399777,37.1267497 98.6460865,37.002725 C98.3072011,36.8597124 98.0369249,36.6243668 97.8615557,36.3407622 C97.6819887,36.0503688 97.6001473,35.7089428 97.6440394,35.3548605 C97.6817783,35.0504168 97.8129817,34.7324802 98.0725589,34.4337404 C99.7811829,32.4671807 101.220071,30.2978743 102.313602,27.9432281 L95.0800661,25.270825 C92.5009286,24.3184435 89.9213524,23.3672823 87.3405491,22.4197845 L85.9276271,21.9013582 C81.234832,20.1825753 76.5150331,18.5028568 71.6347534,17.3962791 C61.9359892,15.1972942 51.8222751,15.7141174 42.1503345,17.7840281 L41.5660631,17.9101058 C37.5074286,18.7938308 33.3942221,19.8630649 29.6689099,21.7216346 C27.8403912,22.6338515 26.1022773,23.7431116 24.6096356,25.1445874 C23.950461,25.7634819 23.354476,26.4411042 22.7583051,27.1178068 C21.9228181,28.0661528 21.0863379,29.0119478 20.0929868,29.8108153 L19.1708898,30.5481117 C17.7991414,31.6518376 16.5618798,32.7272055 15.7878702,34.438956 C14.9785414,36.2284933 14.5922488,38.2055385 14.2770532,40.1317251 C13.4821705,44.9840753 13.1684171,49.9141273 13.1983372,54.8291748 C13.2489467,63.0819048 14.504555,71.166524 16.0907997,79.2226592 C17.3634656,77.4039228 19.1512121,75.9939656 21.44578,75.6933126 C22.9417222,75.497369 24.4248245,75.7758495 25.710864,76.4363631 C26.4541621,76.8181232 27.1315919,77.3274706 27.7076791,77.9464551 L27.7076791,77.9464551 Z M25.3036325,87.7460029 C23.6280487,87.0977806 21.8687742,86.8855118 20.096041,87.1954745 C19.9103144,87.2277759 19.7331897,87.1891686 19.5843125,87.1027894 C19.4333856,87.015221 19.3144381,86.876709 19.2498569,86.7237713 C19.1752054,86.5469857 19.1714009,86.3556381 19.2372836,86.1856791 C19.2944369,86.0382395 19.4033598,85.8950455 19.603672,85.7994056 C21.5232299,84.8847135 23.6567891,84.4810533 25.7744557,84.7682622 L25.9837435,84.7979353 C27.0663771,84.9582726 28.5887759,85.2956991 29.7304437,85.9598985 C30.6273966,86.4817276 31.2839116,87.2010771 31.4472265,88.1408237 C31.5324098,88.6304811 31.4106781,89.141714 31.1280047,89.512302 C30.8547246,89.8705753 30.4369649,90.109415 29.8961901,90.094068 C28.9423274,90.0669685 28.377552,89.6644389 27.6980441,89.1430865 C27.6156076,89.0798371 27.5310745,89.0149632 27.4431992,88.9492889 C26.7866072,88.4587358 26.0691333,88.0420853 25.3036325,87.7460029 Z" id="ðŸ–-Ink" fill="#000000"></path>
                    </g>
                    <g id="face/Smile-Big" transform="translate(39.870674, 46.574400)" fill="#000000">
                        <path d="M23.4075242,46.6937138 C27.706053,46.1727616 31.8727159,47.4868684 36.07491,48.1492861 C38.2936105,48.498833 40.5150633,48.7598081 42.7602871,48.8568629 C43.2119341,48.8765732 43.6638314,48.8880501 44.1157287,48.8972816 C44.1577656,48.5000805 44.3804614,48.1353142 44.8628855,47.9167538 C45.8517548,47.4691541 46.6432005,47.2673101 47.728905,47.3104732 C48.7227787,47.3496444 49.7201555,47.4516892 50.6987658,47.6305794 C52.475828,47.955925 54.2608972,48.69419 55.5607899,49.9768601 C58.5691846,52.9448903 58.111282,57.7123012 55.7867385,60.9450489 C50.9841691,67.6250978 42.2188089,67.9351288 34.71163,67.8479815 L34.0188526,67.8389327 C27.1833435,67.7413789 17.4037464,68.7590819 14.2982664,60.993202 C13.1562624,58.1374461 13.3149019,54.8273539 14.7131311,52.0883631 C16.3808472,48.8214341 19.8914333,47.1198566 23.4075242,46.6937138 Z M44.7592944,57.8160924 L44.6979905,57.8185874 C41.54647,57.9398435 38.39545,58.0251719 35.242178,58.08081 C35.3365109,58.8894335 35.4328456,59.6983066 35.5429424,60.5051836 C35.6292683,61.1401565 35.7218497,61.7743808 35.8181844,62.4078566 C35.8589702,62.6760672 36.0086017,63.0924796 35.9663146,63.3581951 L35.9510512,63.4632339 L35.9510512,63.4632339 C36.1129435,63.5363368 36.2598226,63.6541 36.3691687,63.8250062 C36.4072022,63.8841373 36.4347264,63.9437673 36.4622505,64.0031479 C38.9104027,64.0223592 41.5449687,63.9749546 44.0406627,63.5305984 L44.0456671,63.4764573 L44.0456671,63.4764573 C44.0909569,63.1580976 44.2235735,62.9437787 44.3997283,62.7968243 C44.5751325,61.7816162 44.5591184,60.6997922 44.626928,59.6925681 C44.6692152,59.0668267 44.7150055,58.4415843 44.7592944,57.8160924 Z M32.8338108,58.1237237 C30.5622584,58.1623127 28.2897174,58.1920307 26.0186482,58.1643388 L24.9876633,58.148424 L24.9876633,58.148424 C25.2053547,59.3148279 25.442313,60.4772398 25.6392361,61.6513782 C25.8446667,62.8751667 24.7659684,63.653102 23.8323977,63.6216652 C23.9372399,63.6388806 24.0418319,63.6565949 24.146674,63.6713153 C27.0634882,64.0832368 30.0921506,63.9739566 33.0522528,63.9707131 C32.8929878,63.0425301 32.9575139,61.995231 32.9336866,61.2204914 L32.9291446,61.1004862 C32.8838548,60.1077331 32.8520769,59.1157284 32.8338108,58.1237237 Z M17.4042468,57.9096542 C17.4830661,58.5161843 17.6364509,59.1097404 17.8659027,59.6623788 C18.835505,61.9971827 21.0584592,63.0867411 23.4105269,63.5455683 C23.0024181,63.4048513 22.6783833,63.0667813 22.5965613,62.487696 C22.3926321,61.0478421 22.3193176,59.5840364 22.3138128,58.1219772 C20.6746218,58.1067578 19.0244211,58.071828 17.4042468,57.9096542 Z M53.3075591,57.4111569 C52.1405332,57.6861039 50.784341,57.5601073 49.6393344,57.6120029 C48.5666414,57.6606551 47.493448,57.7030698 46.420755,57.7464824 C46.4712994,58.4777616 46.5205928,59.2087912 46.5741398,59.9395713 C46.6432005,60.8841713 46.6497063,61.8824135 46.8308655,62.8230216 C48.9897634,62.0872515 50.9242139,60.9073747 52.3754897,59.0206696 C52.7370576,58.550615 53.0608422,57.9989746 53.3075591,57.4111569 Z M22.9143407,50.5245086 C20.9716329,50.9838347 19.1330166,51.9541331 18.1448979,53.7293125 C17.5583823,54.7826937 17.3004055,56.0311826 17.3499491,57.261458 C18.9918925,57.0705919 20.6621108,56.9982374 22.324322,56.9383579 C22.3298269,56.6394591 22.3368886,56.3408929 22.345878,56.0429552 L22.3714866,55.2793342 C22.4167951,53.8229022 22.4395612,51.9939839 22.9143407,50.5245086 Z M32.9696803,50.7021513 L32.1144749,50.6062324 C29.7390702,50.3359707 27.3649407,50.052262 24.9894149,50.2148814 C24.6456126,50.2385837 24.2965558,50.2760084 23.9467483,50.3271555 C24.3666174,51.8401124 24.3313364,53.6170383 24.5067406,55.1147758 C24.5745502,55.693861 24.6601254,56.2682058 24.7549588,56.8403051 L25.167071,56.8210937 L25.167071,56.8210937 C27.7160618,56.6831213 30.2675548,56.5982919 32.8185474,56.4972451 C32.8183597,56.0189571 32.820987,55.5403885 32.8286461,55.0616444 L32.8380646,54.5828457 C32.8670901,53.3600552 32.7880206,51.9825759 32.9696803,50.7021513 Z M44.8981665,50.5080417 C42.4102294,50.9089853 39.838969,50.9943136 37.3950706,50.9973076 C36.4189625,50.9985551 35.4433548,50.9386755 34.4682476,50.8523492 C34.5318035,51.3708064 34.5648325,51.8952515 34.6126246,52.4064732 C34.7089092,53.4395952 34.818966,54.4711204 34.9385671,55.5016876 L35.0452549,56.4034338 L35.0452549,56.4034338 C38.1807613,56.2614694 41.3160175,56.108028 44.4507732,55.9490977 L44.8931621,55.9253953 L44.8931621,55.9253953 L45.01716,54.1923903 C45.1015675,53.0367888 45.1944269,51.8814459 45.3255422,50.7310931 L45.2272057,50.6956643 L45.2272057,50.6956643 C45.1116041,50.6482597 45.0020078,50.5828912 44.8981665,50.5080417 Z M45.9786163,50.9381765 C46.1157368,52.57214 46.1915535,54.2128399 46.2923921,55.8495479 L48.3589496,55.7393067 C48.7033449,55.7205573 49.047731,55.7014291 49.3921171,55.6816356 C50.7312943,55.6045407 52.4520571,55.1996052 53.7759709,55.5773454 C53.8770598,54.3755127 53.5330073,53.2046179 52.4468024,52.3972418 C50.5398761,50.9790942 48.1117415,51.4840785 45.9786163,50.9381765 Z M38.9180156,36.3314625 C41.9953295,34.5716513 49.7164485,32.7730281 50.2054285,38.3031121 C50.4303066,40.847918 48.5356773,42.9564837 46.3232872,43.8973696 L46.2401771,43.9321041 C44.1651468,44.7839649 40.4872651,45.7460017 38.6915803,43.8988009 C37.1970569,42.3613449 39.1793064,39.6046913 41.0364273,40.8642033 C41.9908211,41.5112421 43.9996948,41.0344882 45.0646465,40.7266123 L45.131321,40.7072025 C46.2805493,40.3699137 47.8126865,39.2904393 47.3374983,37.8774321 C46.9169755,36.6274353 45.1275596,36.3990705 44.0069179,36.3585057 C42.3341049,36.2986601 40.7061777,36.6865297 39.048661,36.8127313 C38.7861164,36.8327633 38.7051213,36.4531569 38.9180156,36.3314625 Z M51.6653471,27.4390824 C55.8419883,27.2437704 58.4401018,31.7975448 57.479695,35.5287552 C57.3136926,36.1725336 56.5925098,36.8045432 55.896403,36.7321776 L55.7210081,36.7160599 C55.6319024,36.7075082 55.5423815,36.6962702 55.4600824,36.673584 C54.7990818,36.490792 54.2065384,35.8041952 54.2546841,35.0925584 L54.2674743,34.8851983 C54.3649232,33.1225997 54.1736318,31.0918447 52.0758395,30.6649856 C50.2967047,30.3029072 49.3034485,32.0128888 49.2823848,33.5869032 C49.2783726,33.8663496 48.9639209,34.0614112 48.7164218,33.9111712 C47.4302791,33.1296728 47.2076052,31.5749392 47.698842,30.2360504 C48.3214764,28.5395904 49.8796926,27.5224656 51.6653471,27.4390824 Z M20.6707879,28.4157426 C23.7102372,27.403125 26.9894121,29.0209594 28.4611164,31.7042458 C28.9774291,31.8534842 29.4929895,32.250869 29.4212724,32.859341 C29.317709,33.7347394 29.1617369,34.286621 28.5538972,34.9504314 C27.6031668,35.9888659 25.8225564,35.457915 25.4273943,34.1795928 L25.4106337,34.1218578 C24.9617752,32.4694682 23.1402621,31.3792266 21.4809901,31.9576506 C19.5426234,32.6332298 19.5987934,34.6774954 18.2391783,35.8683978 C18.0794449,36.0083714 17.887865,36.030657 17.6962852,35.9382594 C16.2521644,35.2413962 16.5116999,33.1440458 17.026508,31.9436282 C17.7018019,30.3683618 19.0142743,28.9673738 20.6707879,28.4157426 Z M16.5313845,19.1991946 C18.9943389,16.6896858 25.4167773,14.2613066 27.1016267,18.8954594 C27.4225982,19.7781194 26.73928,20.9682706 25.8189947,21.151313 C24.3119333,21.4507914 22.9748866,20.7974978 21.4778556,20.914685 C20.2659376,21.0100874 19.0018617,21.4144834 18.0329291,22.164181 C15.3493067,24.2404978 14.7590202,27.7523578 12.8891106,30.3950794 C12.7980851,30.523785 12.6213001,30.4696986 12.6044992,30.3179562 C12.1787105,26.4705602 13.8337196,21.947585 16.5313845,19.1991946 Z M48.652403,16.7287733 C50.2868499,16.1523525 52.1377018,16.2016813 53.7806744,16.7129981 C55.4356835,17.2283213 56.9550321,18.2068845 58.1255749,19.4854269 C58.6566823,20.0658541 59.1481699,20.7063773 59.542363,21.3882165 C59.7517467,21.7495437 59.9719131,22.4959861 60.2098833,22.9404461 C61.4974033,23.6827333 62.047718,25.3742091 60.8950123,26.5775722 L60.8430497,26.6303405 L60.6888329,26.7830845 C60.0692075,27.3955629 59.1348797,27.6609869 58.2890697,27.4163461 C56.3963411,26.8694725 56.1663951,25.3808445 55.511162,23.8008205 C55.078352,22.7571533 54.3368578,21.8336781 53.4378869,21.1553445 C51.3132063,19.5527845 47.8294121,19.0422189 45.27142,19.7974253 C45.1352579,19.8377397 44.9752737,19.6644629 45.0723174,19.5387621 C45.5570345,18.9117605 45.83638,18.3971885 46.4853441,17.8913805 C47.1440879,17.3780605 47.8630138,17.0072181 48.652403,16.7287733 Z" id="ðŸ–-Ink"></path>
                    </g>
                    <g id="facial-hair/*-None" transform="translate(30.843352, 84.635200)"></g>
                    <g id="accessories/*-None" transform="translate(11.785671, 60.346400)"></g>
                </g>
            </g>
        </g>
    </g>
</svg>