<?xml version="1.0" encoding="UTF-8"?>
<svg width="346px" height="510px" viewBox="0 0 346 510" version="1.1" xmlns="http://www.w3.org/2000/svg" xmlns:xlink="http://www.w3.org/1999/xlink">
    <!-- Generator: Sketch 62 (91390) - https://sketch.com -->
    <title>peep-sitting-1</title>
    <desc>Created with Sketch.</desc>
    <g id="Introduction" stroke="none" stroke-width="1" fill="none" fill-rule="evenodd">
        <g id="variations-sitting" transform="translate(-355.000000, -944.000000)">
            <g id="a-person/sitting" transform="translate(331.000000, 897.000000)">
                <g id="pose/sitting/closed_legs-2" transform="translate(-20.311475, 159.504800)">
                    <path d="M386.865055,368.978348 C379.25272,358.161592 363.20656,356.370917 352.898359,348.791097 C347.467902,344.633603 341.72148,341.881857 337.501353,336.28399 C344.220625,328.400986 335.910919,309.9217 334.201221,299.250133 C327.425268,271.310475 321.158171,242.924236 313.099047,215.01761 C327.065169,219.359216 323.42674,193.363613 321.432092,187.352455 C321.294106,186.526128 320.26921,186.361222 319.64109,186.100802 C319.816779,184.920592 320.300758,184.661709 318.833434,184.335737 C318.342787,177.262927 320.346667,169.34305 316.724909,163.09503 C312.642768,156.275471 302.884718,150.568263 294.822516,150.474031 C289.158918,128.014449 288.121198,117.421239 261.288997,126.941787 C261.882493,124.754211 262.066902,122.747931 261.03303,120.538078 C256.998082,108.36289 251.927466,95.0435976 247.518056,82.7052952 C242.436156,68.5066705 237.18113,53.8245926 230.384402,40.1821441 C225.650801,31.5189063 210.841372,29.2027859 200.803245,30.6370137 C198.408745,26.4183201 192.372737,14.7493752 184.737318,17.4472906 C184.679867,13.9279143 184.625236,10.4085379 184.579583,6.88890556 C184.540085,3.82942446 184.862481,0.692355246 183.684466,-2.21246176 C182.436433,-5.28961144 179.895483,-6.91358442 176.911078,-8.09148976 C167.877841,-11.0710782 157.499878,-15.857983 147.967531,-12.8960632 C139.639102,-9.1003913 140.609111,5.17223655 136.578779,12.9307918 C130.93057,4.5679199 121.298451,10.1752615 119.260715,19.1442425 C96.0582237,28.3797886 76.115084,17.8879808 74.6303194,54.1421149 C75.9096433,60.750932 76.9973763,66.950043 76.3910568,73.623645 L75.6890702,73.6953436 C69.750525,105.818615 67.4668243,140.253141 68.9023446,176.051221 C68.6148302,190.146139 63.4711175,203.301549 58.4969383,216.020878 C54.8382466,225.373447 51.0602916,235.044306 49.2692895,244.966622 C47.2833625,253.230652 39.9831633,292.97113 56.2160588,279.777566 C56.8380236,324.989158 97.1839158,330.777538 133.515635,320.791205 C172.085401,312.784266 215.504953,315.086303 239.576656,276.350629 C247.742733,290.305223 250.560169,298.920832 252.60996,313.513287 C254.859549,324.203034 258.126045,336.343599 264.130506,343.41436 C258.96037,352.707633 256.428163,364.028407 256.677701,371.406768 C256.775722,374.305043 255.448346,375.647132 257.356092,377.448709 C266.507801,386.091112 286.926521,386.18809 302.452976,390.035743 C313.099047,391.388788 351.594481,396.564931 357.477579,393.190901 C361.580495,394.336542 356.809094,383.674262 360.911753,383.446619 C362.315454,383.457022 362.503333,381.671868 363.944693,381.737462 C373.14656,382.156221 392.985785,384.857255 388.189188,377.448709 L386.865055,368.978348 Z" id="ðŸŽ¨-Background" fill="#FFFFFF"></path>
                    <path d="M384.580561,379.447765 C377.796144,380.91144 370.81834,380.502758 363.944668,381.07481 C364.16678,380.499941 364.352984,379.911757 364.498665,379.313842 C371.601374,378.454995 379.050332,378.047338 385.821925,375.70305 C385.981713,376.465616 386.101489,377.236632 386.148938,378.015073 C386.15535,378.119292 386.141243,379.283882 386.307699,379.068786 C386.101489,379.335608 384.888337,379.389894 384.580561,379.447765 M350.304788,361.863686 C337.911916,357.795816 324.764991,354.288475 315.239313,344.811458 C324.051976,341.618566 330.395504,345.688229 337.97065,337.515871 C338.25919,337.577327 338.53901,337.663621 338.811136,337.770401 C346.946435,351.594656 364.278605,354.227787 376.972072,362.237799 C382.11758,365.229423 391.70148,373.286295 379.440439,373.466822 C374.600399,374.19994 369.732402,374.742289 364.851582,375.116914 C364.475069,367.333008 356.75655,363.922972 350.304788,361.863686 M358.935864,381.800759 C356.480578,385.145242 352.047828,386.4668 348.037502,386.139803 C345.087979,385.739572 342.485216,384.703271 339.417455,384.926561 C316.161616,384.044156 293.292805,379.231645 270.614816,374.318755 C250.301062,370.511304 265.824789,355.529885 264.129967,343.410775 C266.996391,345.157148 270.246766,346.432102 273.592296,347.368537 C277.903217,359.355516 289.683871,356.226385 298.028458,350.48384 C306.191713,351.131944 307.605689,348.381535 314.280333,345.196838 C321.456395,358.040871 337.52104,360.904206 350.225279,365.783807 C357.94585,367.862297 364.267833,373.822498 358.935864,381.800759 M358.513954,392.51304 C351.987555,394.462217 345.080797,394.124209 338.346906,393.575459 C316.225223,391.660082 294.250246,387.893346 272.788999,382.195101 C267.699148,380.84307 257.824655,379.273383 257.356066,372.891697 C261.886791,378.827828 269.975154,379.527145 276.770087,381.05791 C299.074128,385.425378 321.920368,391.065752 344.730958,389.978238 C349.548428,391.347681 354.799093,390.266569 358.875078,387.60015 C358.745555,389.237182 358.628087,390.874983 358.513954,392.51304 M288.863134,349.912556 C283.949997,351.965441 279.367976,351.459709 275.373295,347.830481 C279.935567,348.943601 284.297015,349.401448 288.863134,349.912556 M260.155549,331.419186 C257.952639,325.929123 255.705615,309.464055 254.605315,303.723047 C252.430361,292.804376 247.428995,282.78706 241.568677,273.071901 C229.559499,253.166581 213.94113,234.535191 211.592283,212.038224 C211.636398,210.719994 211.685899,209.402276 211.711034,208.084047 C211.763612,205.342088 212.013424,202.369669 211.495334,199.677387 C211.477893,199.58802 211.359656,199.607737 211.332982,199.677387 C210.303213,202.37351 209.989025,205.575364 209.591994,208.436394 C209.224457,211.083864 208.92258,213.721092 208.901549,216.396729 C208.881543,218.939213 209.04646,221.526507 209.631491,224.00779 C209.655088,224.1074 209.679453,224.20701 209.703819,224.30662 C209.35834,225.295804 208.98157,226.274234 208.567098,227.2373 C207.586574,229.515522 206.493198,231.754823 205.395976,233.979015 C203.167418,238.495514 200.924754,243.005099 198.66901,247.508282 C196.370177,252.096992 194.081603,256.691079 191.733013,261.254694 C191.001787,262.675862 190.314933,264.120333 189.646545,265.57479 C183.83701,274.371438 177.51913,282.830847 170.69265,290.865954 C164.762825,297.270174 159.481896,304.93168 151.444059,308.813646 C143.464957,312.867177 134.75745,315.409916 126.575728,318.958996 C94.3897569,324.587335 65.0304553,324.618063 56.9361931,280.377475 C57.7492357,279.409544 58.4902073,278.375036 59.2239975,277.471122 C63.2097016,272.552086 67.0312583,267.502457 70.8605094,262.463071 C78.0855598,252.955326 85.3770386,243.378444 94.1899587,235.258579 C111.93301,220.219801 131.497585,206.801922 144.536788,187.08225 C145.767893,185.45879 146.775861,183.694492 147.450404,181.79448 C156.188945,185.274422 166.032659,186.101516 175.365978,186.467691 C187.907865,186.959339 200.454626,187.476593 213.001643,187.81204 C216.517988,192.836062 227.418401,193.279057 232.596739,194.121515 C233.658567,194.236745 234.545989,193.304663 234.86146,192.400749 C235.73375,189.898981 236.639125,187.412576 237.569892,184.936414 C248.629323,187.009784 259.740563,188.789189 270.82513,190.742975 C271.571487,191.364704 271.868491,192.216893 272.154211,193.285714 C272.593561,194.930429 273.016497,196.578984 273.46226,198.22165 C274.308645,201.339514 275.259161,204.435613 276.135298,207.5481 C276.62338,209.282181 277.05042,211.101277 277.62314,212.85738 C287.228585,253.578848 300.771002,298.738971 310.500326,337.016797 C310.8199,338.432845 311.099977,340.279851 310.858629,341.815225 C309.145597,343.145746 307.341258,344.227371 305.404575,345.131029 C291.733918,344.175389 267.027682,346.138394 260.155549,331.419186 M164.655104,312.088735 C160.68761,312.598308 156.650353,313.261519 152.58001,313.998991 C156.140214,312.406258 159.484717,310.411501 162.190584,307.533315 C181.546897,287.99801 197.253752,264.603786 207.39524,239.027876 C208.778951,235.589417 210.180103,232.112035 211.371454,228.582672 C211.587923,228.909413 211.829528,229.219509 212.100627,229.509121 C216.79473,244.96836 227.467902,259.068911 236.390083,273.658293 C222.430116,299.369918 191.718906,307.966067 164.655104,312.088735 M54.7648308,282.475939 C54.8517776,282.411666 54.9402633,282.35021 55.0251583,282.282609 C55.0333657,282.403984 55.0449073,282.521519 55.0533711,282.642382 C54.957191,282.58656 54.8604979,282.531761 54.7648308,282.475939 M123.601326,45.9858344 C124.82089,49.6378531 126.065332,53.2852626 127.994321,56.6271849 C131.151593,54.5801903 133.773335,51.7619237 137.055514,49.9261838 C140.444388,48.0307805 143.884302,48.5426572 147.18033,50.3942732 C148.044413,50.8795189 147.26779,52.2061989 146.403708,51.720697 C144.738894,50.7855426 142.906086,50.0337317 140.957349,50.2088811 C139.433599,50.3456205 138.061942,51.0482667 136.808779,51.8848355 C133.795649,53.8967491 131.248799,56.4891651 128.122817,58.3579376 C127.759385,58.5753379 127.285409,58.4332211 127.070222,58.0824101 C124.838587,54.4483161 123.461031,50.4173191 122.117331,46.3945163 C121.802886,45.4527042 123.289702,45.0524724 123.601326,45.9858344 M154.271498,134.023248 C155.093261,134.568669 154.321768,135.898934 153.494876,135.349928 C144.197208,129.175911 143.648084,116.902394 138.150172,108.082956 C137.624643,107.240241 138.956546,106.469737 139.47874,107.307587 C144.777366,115.807198 145.343162,128.094543 154.271498,134.023248 M186.374113,69.9395638 C188.338752,69.4248704 192.675578,68.910177 194.93004,67.4301133 C200.349469,85.9846831 207.726099,103.914451 215.399734,121.641926 C215.92834,122.85056 216.400007,124.450975 217.146621,125.718503 C213.384055,126.758133 209.947219,127.961645 207.192364,129.175399 C203.760401,130.676717 200.401791,132.440246 197.219383,134.472388 C194.425543,136.103787 191.757122,137.921859 189.23669,139.93198 C188.465197,139.77117 187.694217,139.610104 186.922724,139.446222 C184.312011,138.882876 181.667443,138.28112 179.120593,137.423297 C178.469133,135.828004 178.256511,133.953598 177.702514,132.38135 C176.740713,128.932136 175.778911,125.480361 174.81711,122.031147 C169.659291,103.724962 164.703835,85.3598812 159.471637,67.074181 C167.732867,70.8972521 177.530672,71.4298701 186.374113,69.9395638 M196.574592,54.3930057 C197.282734,51.4090642 198.726718,47.7270857 202.378228,47.8364261 C205.176172,47.9206719 207.854083,49.5594968 210.388365,50.791176 C210.269871,49.8885421 209.632004,49.1185505 209.061592,48.3477907 C208.471944,47.5511681 209.808206,46.7857857 210.390417,47.5724217 C211.436087,48.9853959 212.317097,50.3507419 211.797468,52.1467915 C211.646914,52.6673744 211.11959,52.8015532 210.667159,52.6056624 C208.199562,51.5378656 205.708882,49.8788115 203.019429,49.4386334 C199.754948,48.904479 198.672088,52.2156733 198.05833,54.8016877 C197.829806,55.7647533 196.346324,55.354535 196.574592,54.3930057 M244.323275,126.904091 C247.688297,127.615955 249.291299,130.632417 250.981248,133.326235 C255.185217,140.022371 259.216831,146.826055 263.087375,153.719362 C264.136379,155.586086 265.17256,157.460492 266.19566,159.342579 C266.472659,159.80606 266.716571,160.30795 266.967922,160.802158 C260.732629,160.246494 254.574793,159.329776 248.703959,157.040543 C249.934808,154.257101 247.844493,153.780818 245.500263,152.162478 C242.989321,150.592791 240.33475,149.151138 237.451911,148.39062 C235.802743,147.955308 232.009399,147.860563 231.56338,150.04737 C231.355374,149.455857 230.916793,148.936042 230.255074,148.685097 C225.569178,147.146138 220.591152,146.57767 215.792405,145.435614 C207.680446,143.728676 199.556175,142.088059 191.441138,140.392899 C193.62635,139.001691 195.855677,137.680132 198.125272,136.43949 C205.246448,132.866596 212.814925,130.059597 220.58833,128.358548 C228.375073,126.650585 236.369564,126.05395 244.323275,126.904091 M226.423001,72.0923139 C228.638735,83.6275921 230.469748,95.2473723 233.514169,106.605965 C233.770906,107.563909 232.285885,107.96875 232.030174,107.014391 C228.985752,95.6557982 227.154996,84.0362741 224.939006,72.5007397 C224.753314,71.5330649 226.23654,71.1223344 226.423001,72.0923139 M283.467301,127.042366 C290.335587,133.336478 289.884438,143.883852 292.83627,152.17016 C294.085586,156.482318 295.508795,160.748384 297.258247,164.886417 C297.296719,164.978601 297.334935,165.070784 297.373407,165.162968 C289.120127,162.192598 280.325417,161.782892 271.574309,161.163211 C271.507367,160.868735 271.409905,160.597305 271.284486,160.374527 C269.878974,157.675587 268.352659,155.030422 266.880462,152.364771 C262.966573,145.399765 258.865453,138.542308 254.600185,131.784716 C254.333445,131.364767 254.066706,130.932015 253.795093,130.499263 C262.810376,127.554499 275.536673,122.028587 283.467301,127.042366 M315.873588,167.272955 C316.691761,171.136997 316.165719,175.20077 315.945403,179.13395 C312.203355,174.168823 307.460778,169.930924 301.913365,167.109073 C301.544033,164.625229 299.976682,162.461468 299.253408,160.049323 C297.917145,156.646201 296.834798,153.168819 295.860173,149.658149 C304.906234,151.540237 313.711459,158.100658 315.873588,167.272955 M231.69162,151.043468 C231.696749,150.956406 231.699058,150.871904 231.696749,150.784841 C231.701879,150.78228 231.707009,150.77972 231.709317,150.777159 C231.945279,150.546699 232.207145,150.370014 232.494147,150.244541 C232.222278,150.503168 231.955538,150.769477 231.69162,151.043468 M233.040706,184.068349 C232.373857,185.76863 231.719576,187.474032 231.076067,189.181995 C227.88776,188.636573 221.101291,187.35112 218.323609,185.88642 C219.313623,185.919709 220.293635,185.405016 220.544985,184.22455 C220.655272,183.702174 220.829422,183.213087 220.965613,182.703515 C222.640173,177.251862 224.068768,171.6901 226.433773,166.463786 C228.747226,160.945555 231.49926,155.583525 233.602142,149.983353 C237.167474,149.758015 242.799782,154.177721 245.346375,155.980428 C240.804109,165.12968 236.769673,174.514512 233.055839,184.027378 C232.986589,184.027378 232.915031,184.027378 232.845781,184.029939 C232.909901,184.042742 232.976586,184.055546 233.040706,184.068349 M317.815144,190.032135 C318.066495,191.391848 318.350932,192.741317 318.543292,194.113833 C319.030605,199.478424 319.695145,205.129809 317.622784,210.276743 C316.337561,213.42892 313.703765,210.893863 311.956878,209.659623 C309.115332,207.677669 306.498976,205.4038 303.890828,203.12993 C295.878383,195.604139 286.514287,189.205041 275.275319,188.147487 C263.141236,186.46257 249.993798,184.357704 237.903573,184.050424 C241.207039,175.295515 244.789813,166.658396 248.255118,157.95726 C254.684823,161.557554 261.943216,162.873735 269.355754,163.713633 C269.529904,163.800695 269.714826,163.877515 269.914624,163.938971 C270.266002,164.01067 270.560955,163.977381 270.797173,163.869833 C280.681925,164.914584 290.763909,165.32429 299.458848,169.362457 C302.823614,170.924462 305.980886,173.029327 308.838333,175.927999 C311.964572,178.918854 314.483209,182.52939 316.17367,186.513783 C316.701763,187.742902 316.981583,189.020673 317.815144,190.032135 M331.718942,305.797184 C333.275521,313.868397 339.739082,331.851939 330.025916,336.327979 C325.688577,338.728345 320.227085,337.343282 315.929758,339.541612 C315.819728,338.163975 315.560682,336.799141 315.250341,335.534173 C302.727433,294.669052 291.150681,241.172176 276.565672,200.337783 C276.106829,198.679497 275.64106,197.023259 275.144002,195.375728 C274.72876,193.999115 274.401235,192.530319 273.791581,191.266631 C277.848843,192.010504 281.883791,192.884971 285.570183,194.79497 C293.352052,197.954829 304.249644,211.677426 312.385456,215.797534 C312.708365,218.82936 313.600916,221.848383 314.057708,224.841799 C319.830823,251.84912 325.855802,278.805227 331.718942,305.797184 M389.666565,373.392819 C389.528323,372.736265 389.165146,372.310427 388.707329,372.079967 C388.777092,358.308205 359.783531,353.831908 350.997541,345.062147 C346.977982,342.225444 344.054106,337.539429 339.385908,335.78307 C339.470034,335.665535 339.557494,335.55133 339.638798,335.431747 C344.589124,327.283714 336.771348,307.482101 335.386354,298.978137 C329.031028,272.395886 322.86755,245.749619 315.675842,219.377342 C315.529648,218.872891 315.257779,217.874232 314.91666,216.770586 C315.691487,216.957515 316.432459,217.018971 317.127521,216.929348 C327.214891,214.696449 324.95017,194.323808 322.580549,186.941414 C322.326377,186.070788 321.733907,185.520245 321.038845,185.261618 C321.128614,184.810942 321.046796,184.332097 320.726196,183.873739 C320.554354,183.627915 320.289923,183.451229 320.002665,183.361606 C319.697453,176.35563 321.449214,168.824718 317.756154,162.423058 C313.606046,155.422203 303.705906,149.629982 295.739884,149.222836 C294.598546,145.095046 293.598273,140.926285 292.495151,136.790813 C291.284821,132.460731 289.561016,127.808005 285.937206,124.904212 C281.248746,120.740573 271.240628,122.010662 262.938616,124.952865 C263.392587,122.783983 262.358714,120.822514 261.725465,118.789347 C259.660542,112.70521 257.534576,106.641558 255.364496,100.595831 C247.575446,80.212947 241.17857,59.08491 231.435139,39.5419239 C227.400704,32.9174867 219.642175,29.9317527 212.19373,29.3171934 C208.700468,28.9663825 204.984325,28.8306673 201.45772,29.2429342 C201.344869,29.0278384 201.229196,28.8153033 201.111472,28.6027682 C198.220939,23.6017918 192.354978,14.2912183 185.604672,15.8890725 C184.8914,11.1339198 184.881141,6.26097661 185.468481,1.50326329 C185.509518,1.16525567 184.95552,1.01929783 184.817021,1.32657748 C180.344004,11.3438942 181.175257,23.6709297 186.632902,33.1556284 C187.033011,33.813719 187.577006,34.1542873 188.141006,34.2515925 C189.010474,44.210014 191.183119,54.0378417 193.863338,63.6838622 C193.460408,63.6992262 193.073379,63.7837281 192.749957,63.9271252 C184.19916,67.0536957 174.796335,67.5632678 165.896725,65.7375145 C163.390656,65.2100178 160.964352,64.5007139 158.525224,63.7786067 C158.063816,62.1807525 157.601895,60.5880196 157.137666,58.9927261 C155.973245,53.9533398 155.675984,49.1111245 152.721331,45.0524724 C152.546668,44.7528748 152.367388,44.4558378 152.19529,44.1588008 C149.822847,39.8620069 147.411932,35.588259 144.98332,31.3247538 C144.393159,30.6256926 140.448748,22.8643206 137.378422,18.1706239 C137.763143,18.1603813 138.160944,18.063076 138.547973,17.8684656 C140.712666,16.7904261 140.689583,13.6638556 141.084563,11.566672 C142.29515,5.04978264 143.695789,-1.47734937 144.080509,-8.10690793 C144.100771,-8.44491555 143.582938,-8.58831272 143.431358,-8.28103307 C140.479526,-2.43759829 138.432813,3.81554269 136.247601,9.97393911 C136.203742,10.096851 136.157832,10.2223235 136.109101,10.3503567 C134.082907,7.79993555 130.525525,7.19305823 127.426986,7.87931613 C122.248905,9.22878595 119.637679,13.4308352 118.13214,18.2090339 C103.243457,25.3046332 85.5257972,18.0579547 76.4899958,36.830181 C74.226557,42.2856752 73.2470587,48.1475467 73.2757845,54.2677893 C73.5966413,55.6587418 73.8405541,57.0696676 74.0608707,58.46779 C74.5938368,61.850683 74.9464972,65.260975 75.5466612,68.6331132 C76.2027378,72.3181644 77.2502034,75.942784 78.4048778,79.4998021 C80.9524967,87.3479806 84.3323943,94.8842702 87.6248321,102.440277 C88.0162211,103.338814 86.6899614,104.119816 86.2960076,103.215646 C84.4826918,99.0543111 82.6442409,94.9032191 80.9247969,90.701938 C78.4356554,84.6201054 76.0883476,78.3426381 74.643594,71.899752 C68.1674661,106.178846 66.1528132,141.202325 67.5467837,176.043229 C67.0386962,200.19797 52.1987452,221.154443 47.9463016,244.661336 C45.8252094,253.925818 44.4940766,263.42332 44.6584805,272.941307 C44.3653235,277.466512 46.1360636,283.928091 51.1943683,283.753454 C52.0807643,284.111435 52.9645955,284.433823 53.8581729,284.74187 C54.1095236,284.836615 54.3501021,284.9183 54.5722141,284.985902 C54.8230518,285.062465 55.0538841,285.046333 55.2552211,284.971306 C59.1403849,323.347974 89.9690622,330.726271 125.385659,323.87035 C126.85247,323.895956 128.29389,323.557949 129.835593,323.125196 C130.584515,322.902419 131.328052,322.669398 132.071845,322.423574 C132.631228,322.29042 133.192664,322.154705 133.754355,322.013868 C157.979178,317.089712 183.370729,316.277981 206.266726,306.191527 C219.508805,300.406987 231.970927,291.375526 239.475797,278.869244 C243.851351,286.543553 247.501066,294.409913 249.334901,302.729509 C250.645258,308.729145 252.892283,325.271033 254.579666,331.188727 C255.367318,334.13349 256.726407,336.612213 258.50125,338.699154 C258.496634,338.708372 258.492274,338.717334 258.487401,338.726809 C260.009098,339.578486 261.361519,340.704153 262.444122,342.05772 C261.290987,351.821019 251.324418,361.211485 256.420939,371.406768 C254.016436,376.932681 259.918304,381.428694 264.775272,382.568958 C272.221152,384.946278 279.904789,386.733877 287.530718,388.430829 C302.627663,391.240902 349.878518,401.628747 361.188787,393.542682 C361.026691,391.816795 363.152144,386.209197 360.64351,386.126488 C361.755865,385.030268 362.677911,383.748656 363.376307,382.357447 C370.298454,384.606734 377.991325,383.801149 385.039404,382.971238 C390.739423,383.09415 390.530391,377.550057 389.666565,373.392819" id="ðŸ–-Ink" fill="#000000"></path>
                </g>
                <g id="Head" stroke-width="1" transform="translate(86.511840, 45.072000)">
                    <g id="head/Afro">
                        <path d="M48.997186,20.7010885 C87.0047012,18.8346736 104.155802,45.556847 105.265193,57.4923764 C106.035284,65.777498 101.133153,75.3270485 101.133153,82.7304914 C101.133153,86.5094883 105.766711,94.622548 103.609621,100.130426 C98.8084218,112.389726 88.6426423,125.995271 75.6883577,125.995271 C62.7340731,125.995271 45.8749188,129.572653 31.5609958,109.107011 C30.2179421,107.18675 13.2305876,96.2729011 11.5802528,85.9022477 C7.46940499,60.0698059 21.8772141,22.0328546 48.997186,20.7010885 Z" id="ðŸŽ¨-Background" fill="#FFFFFF"></path>
                        <path d="M47.2053483,4.07080288 C48.5644619,2.51832288 50.8589063,1.89733088 52.8975766,2.01752288 C55.8590399,2.19280288 58.4345851,4.01821888 61.3810029,4.15343488 C64.4701024,4.29616288 67.4516264,3.22695488 70.5484995,3.72274688 C72.4467448,4.02823488 74.327437,4.90713888 75.5436179,6.38950688 C79.7563684,5.18508288 84.3302117,6.78013088 87.0133325,10.2631949 C90.3233508,9.74987488 93.9242494,11.9386213 94.9373155,15.1234589 C99.1425432,15.2586749 103.112057,18.6315629 103.580977,22.8583149 C105.261313,23.3015229 106.720479,24.4586213 107.615688,25.9883149 C108.656338,27.7611469 108.829362,29.7943949 108.641292,31.7925869 C110.619781,32.8016989 111.625324,34.9701629 111.888621,37.2638269 C113.696593,38.6109789 114.481469,41.0323469 114.112853,43.3184989 C115.497042,44.0972429 116.211956,45.9101389 116.204183,47.5277229 C116.19666,49.0376349 115.795696,50.3750213 116.359904,51.8320989 C116.862511,53.1298751 117.042949,54.2114564 116.766485,55.5708453 L116.738299,55.7032829 C116.689401,55.9248869 116.648277,56.1374765 116.611415,56.3470613 C116.985798,56.6750853 117.302507,57.0862421 117.540226,57.5645061 C118.407351,59.3122981 118.27821,61.3057325 117.616959,63.0783141 C117.906585,64.2071173 117.869724,65.3995221 117.441678,66.4845053 C118.243354,67.6375973 118.66488,69.0518565 118.541005,70.5192005 C118.402085,72.1620749 117.650811,73.6331749 116.511613,74.7209125 C116.815031,76.9649973 115.901266,79.3896205 114.249015,80.9696445 C114.483475,82.3130405 114.281112,83.7210397 113.545135,84.9945741 C113.020547,85.9022741 112.31441,86.5783541 111.499694,87.0496069 C111.526525,87.7990541 111.424968,88.5655285 111.175212,89.3335053 C110.828412,90.3992077 110.241135,91.3810261 109.468296,92.1717893 C109.929441,95.1159925 108.164098,98.3829613 105.056944,99.2090309 C104.795904,99.2783917 104.5469,99.3101925 104.308428,99.3152005 C103.999744,102.146974 103.325704,104.939435 102.282045,107.591421 C99.6290156,114.344459 94.8044133,120.248891 88.5128711,123.932275 C85.4009525,125.752683 81.9053726,126.999675 78.3370727,127.520507 C75.769301,127.896107 73.2993253,127.803459 70.721774,127.548051 C67.4867327,127.225035 64.2368966,126.741763 61.0923793,125.910435 L60.5866055,125.776173 C59.283041,125.427456 57.9086375,125.025078 56.7793253,124.322899 C55.5155001,123.536643 54.8587624,122.324707 54.567882,120.897427 C54.4055835,120.103033 54.9094874,119.24862 55.7803867,119.23217 L55.8364716,119.232267 C56.0270484,119.236273 56.2160203,119.229062 56.4073675,119.217043 L56.5513854,119.207227 L56.5586574,119.207227 C56.5686877,119.204723 56.5739537,119.204723 56.5837333,119.204723 C56.6689913,119.192203 56.7517418,119.167163 56.8344922,119.154643 C57.792592,118.993586 58.6305201,119.153297 59.530198,119.452115 L59.6429925,119.490179 C61.1575766,120.011011 62.6596228,120.494283 64.2243587,120.852355 C65.8417539,121.220443 67.4792099,121.513411 69.1216811,121.743779 L69.2846744,121.763811 L69.3348262,121.771323 L69.3599021,121.773827 L69.3599021,121.773827 C69.3649172,121.773827 69.3699324,121.773827 69.3749476,121.776331 L69.8589124,121.836427 L69.8589124,121.836427 C70.2403168,121.881499 70.6212196,121.921563 71.0023732,121.961627 C71.7044983,122.031739 72.4066234,122.086827 73.1087485,122.126891 C85.2279288,122.807979 95.4062348,113.280259 98.478032,101.857011 C99.5914018,97.7229069 99.6641219,93.5988189 99.3356276,89.4722269 C99.2303089,89.1717469 99.1676191,88.8387149 99.1701267,88.4731309 C99.1701267,88.2828269 99.1804078,88.0950269 99.192695,87.9047229 C98.7842087,83.9133469 98.0745608,79.9194669 97.6304667,75.9130669 C97.1116464,71.2330909 96.8230229,66.5258213 96.9283417,61.8155469 C96.981001,59.4893309 97.2292524,57.1856509 97.555239,54.8822213 L97.6730957,54.0546493 L97.6730957,54.0546493 C96.1998869,53.7674405 94.8302415,53.0698261 93.7396908,52.0599629 C91.3730277,53.4246429 88.3100071,53.5455861 85.9739367,52.1045341 C83.3560132,53.7439029 79.698443,53.8926405 77.0622141,52.2898301 C75.4688917,53.4256445 73.4613155,53.9156773 71.4906009,53.4844885 C70.604168,53.2906789 69.7227503,52.8712589 68.9679658,52.2905813 C68.4290848,52.3854829 67.8831826,52.4222917 67.3402894,52.3939965 L67.2282002,52.4565965 L67.2282002,52.4565965 C65.976913,53.1151485 64.5907175,53.5485909 63.1641498,53.5002637 C62.1079531,53.4647069 61.01991,53.2566245 60.0126112,52.8629957 C58.9366046,53.5115317 57.7590405,53.9542389 56.4992275,54.1129925 C54.659409,54.3446125 52.6738996,53.9382133 51.1437685,52.8960485 C48.3475554,54.4865893 44.9081455,54.7314805 41.8900107,53.6627733 C41.2718899,54.7081933 40.4165511,55.6096333 39.4150199,56.3044933 C39.5943125,56.9460181 39.6514855,57.6301109 39.5897988,58.2879117 C39.4884922,59.3706413 39.2166695,60.3414421 38.7720739,61.2133349 C39.2407424,62.1868901 39.3816689,63.3822997 39.119375,64.5822165 C38.7454934,66.2934501 37.7484758,67.7820781 36.4575687,68.9414301 C36.3437242,71.6722925 34.8439349,74.2328829 32.4030472,75.6554053 C32.279423,75.7272701 32.1565511,75.7858637 32.03393,75.8386981 C31.9261036,75.9859333 31.7972135,76.1153901 31.650018,76.2245645 C30.0978201,77.6566021 27.6413854,77.5426701 25.6957466,76.7336277 C25.6581328,76.7353805 25.6207697,76.7386357 25.5826543,76.7393869 C24.8878013,76.7569149 24.4141176,76.4864829 24.1330168,76.0883469 C23.84991,76.1036213 23.5688092,76.1334189 23.2857023,76.1860029 C22.2523247,76.3788109 21.1188942,76.7494029 20.1835633,77.2304213 C17.7562166,78.4771629 16.6328165,80.6806829 16.2967995,83.3299149 C15.9309421,86.2195309 16.7632111,89.1642349 19.0027393,91.1198589 C20.0907825,92.0713789 21.4824947,92.6673309 22.8967752,92.9177309 C24.4590035,93.1956749 26.1290581,92.5120829 27.2825493,93.8517229 C27.5132475,94.1171469 27.6712257,94.4877389 27.5458462,94.8458109 C27.1546622,95.9625949 26.5102117,96.3907789 25.5021607,96.5460269 C26.9590702,98.2712829 28.4535936,99.9389469 30.1086027,101.488923 C31.8990217,103.169107 33.7496228,104.796707 35.3647612,106.649667 C37.0721789,108.610299 38.6143465,110.688619 39.6850872,113.067419 C40.2969391,114.434603 40.7884267,115.844355 41.3177788,117.244091 L41.4123109,117.487955 C42.0025092,118.975142 42.7875808,120.408715 41.8792281,121.961627 C41.5181352,122.572603 40.700661,123.163547 39.9483842,123.065891 C37.8297217,122.795459 37.1200739,121.365675 36.4678498,119.502699 C35.9763623,118.095451 35.6002239,116.648139 35.0713732,115.253411 C34.9723234,114.995248 34.8644971,114.73959 34.7514048,114.485434 C33.5297072,114.825477 32.1863914,114.555546 31.0960915,113.859935 C29.9310654,114.375508 28.640409,114.632669 27.3938863,114.610884 C25.7248347,114.581588 24.1999695,114.118598 22.8890016,113.283514 C22.7846859,113.25597 22.6798687,113.229428 22.5758037,113.19963 C20.5815177,113.962348 18.2459488,113.826131 16.4402336,112.589906 C15.2709446,111.789377 14.471525,110.72092 14.0171498,109.53127 C12.5063271,109.502474 11.0118037,108.96762 9.92927729,107.89741 C8.93526879,106.91484 8.35426029,105.647065 8.18173813,104.329711 C6.88130219,104.07255 5.66211214,103.444797 4.70596825,102.387358 C3.90755173,101.504197 3.42233315,100.3794 3.25833679,99.2115349 C1.67454323,98.7603141 0.246220219,97.7276645 -0.533890893,96.2878645 C-1.25983807,94.9474733 -1.36465531,93.4934005 -1.00958063,92.1707877 L-1.10160917,92.0385765 L-1.10160917,92.0385765 C-2.73304693,91.1859645 -3.97806515,89.7902349 -4.10595222,87.7965501 C-4.14206151,87.2288933 -4.08087632,86.6609861 -3.92665956,86.1236277 C-3.98232805,85.5229181 -3.94672028,84.9224589 -3.7889929,84.3415309 C-5.98313376,82.2106269 -6.77803965,78.7876589 -5.58693461,75.9581389 C-7.73092368,73.6544589 -8.29763892,70.0111389 -6.72538027,67.2770213 C-7.80364378,65.9746909 -8.35782107,64.3145389 -8.26504026,62.5417069 C-8.14969114,60.3284213 -7.13411736,58.3950829 -5.91793643,56.6047229 C-6.82066867,55.6081309 -7.30212587,54.2184109 -7.26676885,52.8762669 C-7.21686782,50.9306589 -6.18123333,49.2554829 -4.88455877,47.8682669 C-6.01573242,44.4427949 -4.75190729,40.7268589 -1.97600565,38.5583949 C-2.53770571,37.6344189 -2.74583564,36.4900909 -2.56253084,35.3307389 C-2.24181014,33.3050029 -0.719703279,31.9252989 0.922767881,30.8335549 C0.579228112,29.7170213 0.669501336,28.5123469 1.21615586,27.3580029 C1.94586442,25.8180429 3.32253109,24.8414829 4.7593799,24.0151629 C5.13050316,20.5997069 8.95206964,17.6825469 12.1567691,19.4453629 C11.3618632,16.9038029 13.6515432,14.1594189 16.2845123,13.8689549 C17.5731625,9.96772288 22.0191188,7.50879488 26.0162166,8.47784288 C28.0599021,5.68838688 31.8639154,4.61442128 35.0936908,5.81108288 C38.6446883,3.09424288 43.0502724,2.69109888 47.2053483,4.07080288 Z M21.9112925,80.6707921 C24.4063441,80.5355761 26.2770059,82.5688241 27.5912336,84.4292961 C28.8247169,86.1745841 25.6601389,88.0175281 24.7373459,86.0944561 C24.4063441,85.4083601 24.0302056,84.6822001 23.5261801,84.0812401 C23.441549,84.1995541 23.3667915,84.3220936 23.2923866,84.4478022 L23.2177466,84.5745281 C23.1625797,84.6671761 23.1049051,84.7623281 23.0572609,84.8599841 C23.0622761,84.8775121 22.9870484,85.1078801 22.9845408,85.1178961 C22.7789185,85.7413921 22.3300599,86.1420321 21.7184588,86.3573761 C20.9283174,86.6328161 20.1810557,86.0393681 19.9277891,85.3432561 C19.524318,84.2314801 20.4619057,83.2624321 21.437358,82.8217281 C20.4794588,82.6664801 19.5366052,82.9920001 18.8445104,83.7281761 C18.7494728,83.8308401 18.5887363,83.7482081 18.5839719,83.6205041 C18.5034783,81.8752161 20.3315111,80.7559281 21.9112925,80.6707921 Z" id="ðŸ–-Ink" fill="#000000"></path>
                    </g>
                    <g id="face/Calm" transform="translate(39.870674, 46.574400)" fill="#000000">
                        <path d="M42.8902503,60.1357811 C41.0430035,60.6700423 39.060203,60.7178116 37.1772484,60.166058 C35.4693778,59.6655585 33.7157772,58.5641538 32.4588223,57.1067292 C31.3422122,55.8120326 30.6190463,54.2386561 30.64745,52.5591897 C30.650681,52.3673808 30.7193634,52.2072787 30.8250181,52.083008 C30.9387598,51.9492254 31.0976229,51.8573604 31.2678067,51.8174873 C31.4428287,51.7764807 31.6278542,51.7910186 31.785406,51.8624821 C31.9280332,51.927176 32.0502302,52.0370603 32.12664,52.1976642 C32.3198115,52.4510593 32.5122328,52.7007017 32.7054093,52.9434202 C34.2586013,54.8585549 35.7627465,56.2897764 38.0982899,56.8031154 C39.3654868,57.0816942 40.6310899,56.9581624 41.7923258,56.5331318 C43.035373,56.0781571 44.1590493,55.2782038 45.0395914,54.2545232 C45.4375238,53.791893 45.9073284,53.6030636 46.3667165,53.5998898 C46.8873035,53.5962932 47.4018577,53.8378474 47.7895013,54.2239238 C48.1705396,54.6034217 48.4256753,55.1191229 48.4487992,55.6585852 C48.4690942,56.1320509 48.3144184,56.6266196 47.9029229,57.0678518 C46.5475161,58.5212962 44.7908988,59.586075 42.8902503,60.1357811 Z M42.8332164,36.1495355 C44.7267922,37.2988829 47.6120202,39.9789369 45.5749685,42.8283092 C43.1771637,45.3406948 39.7248663,42.4600731 38.023634,41.15728 C36.4461716,40.1476081 34.6738043,42.7444087 36.1373747,43.9233709 C48.4305154,53.011698 53.4193322,36.4500738 43.7909606,34.7981847 C42.7308423,34.6161536 42.3371117,35.7939723 42.8332164,36.1495355 Z M25.1197678,31.0921895 C24.51116,30.7035285 23.7952411,30.5701203 23.001795,30.9305838 C22.3817485,31.2121436 21.294257,32.1507816 20.537435,33.3846786 C20.0196674,34.2288293 19.6525112,35.2191285 19.7289482,36.2506452 C19.7466998,36.4902033 19.6580541,36.6668367 19.5182323,36.7974378 C19.4078043,36.9005836 19.2482945,36.9763862 19.0609404,37.0000827 C18.9018777,37.0202009 18.7238367,37.0020517 18.5790709,36.9569335 C18.3036883,36.8711068 18.1579426,36.6927305 18.1030285,36.5471027 C17.5731222,35.1418351 17.8014114,33.5736428 18.3953027,32.158858 C19.1967948,30.2495203 20.6523266,28.6502121 21.6059469,28.134575 C23.2377906,27.251902 25.1629077,27.2112774 26.7970872,28.1104997 C28.1881821,28.8758407 29.0580023,30.1114548 29.9231003,31.3709634 C30.1070003,31.6387062 30.2895231,31.9044859 30.4781644,32.1655904 C30.8562206,32.6887874 30.8938508,33.2076873 30.7474442,33.6526476 C30.5852522,34.1455831 30.1716963,34.561588 29.6545533,34.7792973 C29.1765738,34.9805193 28.6218169,35.0088448 28.1309217,34.8020932 C27.7162322,34.6274375 27.3356601,34.2869666 27.0948522,33.709274 C26.6892838,32.7363693 26.0135682,31.6629762 25.1197678,31.0921895 L25.1197678,31.0921895 Z M56.0297753,33.2567179 C55.6129609,33.4735893 55.2868694,33.5389772 54.8244989,33.4006455 C54.5688088,33.3239548 54.3161008,33.176973 54.1182522,32.9794076 C53.9221733,32.7836094 53.7807026,32.540119 53.7257129,32.2700002 C53.5904669,31.6033539 53.2251962,30.9793297 52.7046702,30.5725271 C52.2597672,30.2248255 51.6981991,30.0405355 51.0753139,30.1445048 C50.4031732,30.2565471 49.762796,30.6870041 49.3217462,31.1945031 C49.1743345,31.3643216 49.0587843,31.5571872 48.9426168,31.748751 C48.7253071,32.1069965 48.5140903,32.4399945 48.2143881,32.7030853 C48.100781,32.8031834 47.9295921,32.8725119 47.7637887,32.8725119 C47.6964018,32.8725119 47.6280137,32.8615623 47.5628462,32.8412812 C46.8938502,32.170786 46.7651968,31.6621467 46.7867653,31.1576439 C46.809383,30.6285984 47.0182594,30.092945 47.355805,29.5931646 C48.1476042,28.4208026 49.6509654,27.459575 50.6654455,27.2418525 C52.0547689,26.9437182 53.4345331,27.3016086 54.5407644,28.0764673 C55.6790114,28.8737514 56.5224497,30.1116103 56.7854088,31.5066161 C56.8486679,31.8425915 56.8217865,32.2052389 56.6936505,32.5196699 C56.5684424,32.8269164 56.3502467,33.0900672 56.0297753,33.2567179 Z M28.1838667,18.5928632 C27.3501049,19.404033 26.3632747,19.5296805 25.3649342,19.6414357 C24.8102314,19.7041143 24.3674126,19.754642 23.9316597,19.8528246 C22.7339486,20.1227978 21.5500516,20.5294065 20.4699395,21.1150012 C19.3408562,21.7271716 18.1104119,22.4654476 17.2251993,23.411236 C17.0147058,23.6362996 16.8162822,23.8724563 16.6175814,24.1091299 C16.436394,24.3249468 16.2618541,24.5327148 16.0779061,24.7330451 C15.8666547,24.9631503 15.6660484,25.2043163 15.4665086,25.4448522 C15.3431227,25.6478157 15.3187493,25.6977344 15.2939021,25.7497 C15.2565115,25.8277856 15.2130181,25.9151727 15.1633425,26.0089214 C15.0953102,26.1373134 15.0156225,26.27786 14.9321641,26.4052864 C14.7933084,26.6381994 14.718801,26.7023553 14.6544186,26.7310515 C14.5475863,26.7785627 14.4462709,26.8019675 14.3479786,26.7892932 C14.2558159,26.7774094 14.1689885,26.733208 14.0832453,26.6608492 C13.6551858,26.2997015 13.5289404,25.7070125 13.5418798,25.0778716 C13.5615153,24.1231567 13.9141553,23.0661133 14.239236,22.4163227 C14.9951133,20.9064861 16.0434131,19.3369138 17.3039313,18.2100488 C18.7422966,16.9237529 20.315916,15.9499609 22.1233797,15.2789519 C23.2466125,14.8618106 24.5471188,14.4789158 25.7708379,14.5272808 C26.65167,14.5620939 27.4925499,14.8235537 28.1869837,15.4764867 C28.6134066,15.8773037 28.8181011,16.4474248 28.8181011,17.0171422 C28.8181011,17.5982078 28.6055028,18.1827047 28.1838667,18.5928632 Z M57.7254596,26.0209623 C57.6724371,26.1077398 57.5990484,26.1675412 57.5173887,26.2034574 C57.4317847,26.2411084 57.336218,26.2519529 57.244508,26.2365222 C57.1532041,26.2211597 57.066414,26.1798303 56.9975689,26.1166682 C56.9315821,26.0561284 56.8813345,25.9758389 56.8588669,25.8774775 C56.3053144,23.449718 55.2304535,21.6434288 52.9362961,20.4786261 C51.807766,19.9056199 50.5100632,19.5415537 49.2815778,19.2512864 C48.9245863,19.1669276 48.5473709,19.1122689 48.1674917,19.0568818 C46.9769232,18.8832946 45.7777642,18.6844962 45.0016146,17.7235192 C44.5339458,17.1446612 44.3376715,16.4043643 44.4486442,15.7273311 C44.5531311,15.0898673 44.9261672,14.5053581 45.6042852,14.1550804 C47.2925162,13.2834501 49.3904727,14.1387476 51.0953139,14.8673436 C51.221778,14.9213904 51.3459198,14.974446 51.4673865,15.0256386 C53.1345884,15.7283682 54.6551647,16.6559555 55.9051062,17.9825103 C56.8968759,19.0349131 57.8157643,20.5906987 58.1858445,22.1911717 C58.4937379,23.5227074 58.4213421,24.8820224 57.7254596,26.0209623 Z" id="ðŸ–-Ink"></path>
                    </g>
                    <g id="facial-hair/*-None" transform="translate(30.843352, 84.635200)"></g>
                    <g id="accessories/*-None" transform="translate(11.785671, 60.346400)"></g>
                </g>
            </g>
        </g>
    </g>
</svg>