<?xml version="1.0" encoding="UTF-8"?>
<svg width="346px" height="521px" viewBox="0 0 346 521" version="1.1" xmlns="http://www.w3.org/2000/svg" xmlns:xlink="http://www.w3.org/1999/xlink">
    <!-- Generator: Sketch 62 (91390) - https://sketch.com -->
    <title>peep-sitting-2</title>
    <desc>Created with Sketch.</desc>
    <g id="Introduction" stroke="none" stroke-width="1" fill="none" fill-rule="evenodd">
        <g id="variations-sitting" transform="translate(-355.000000, -236.000000)">
            <g id="a-person/sitting" transform="translate(331.000000, 200.000000)">
                <g id="pose/sitting/closed_legs-1" transform="translate(-20.311475, 159.504800)">
                    <path d="M386.865055,368.978348 C379.25272,358.161592 363.20656,356.370917 352.898359,348.791097 C347.467902,344.633603 341.72148,341.881857 337.501353,336.28399 C344.220625,328.400986 335.910919,309.9217 334.201221,299.250133 C327.425268,271.310475 321.158171,242.924236 313.099047,215.01761 C327.065169,219.359216 323.42674,193.363613 321.432092,187.352455 C321.294106,186.526128 320.26921,186.361222 319.64109,186.100802 C319.816779,184.920592 320.300758,184.661709 318.833434,184.335737 C318.342787,177.262927 320.346667,169.34305 316.724909,163.09503 C312.642768,156.275471 302.884718,150.568263 294.822516,150.474031 C289.158918,128.014449 288.121198,117.421239 261.288997,126.941787 C261.882493,124.754211 262.066902,122.747931 261.03303,120.538078 C256.998082,108.36289 251.927466,95.0435976 247.518056,82.7052952 C242.436156,68.5066705 237.18113,53.8245926 230.384402,40.1821441 C225.650801,31.5189063 210.841372,29.2027859 200.803245,30.6370137 C198.408745,26.4183201 192.372737,14.7493752 184.737318,17.4472906 C184.679867,13.9279143 184.625236,10.4085379 184.579583,6.88890556 C184.540085,3.82942446 184.862481,0.692355246 183.684466,-2.21246176 C182.436433,-5.28961144 179.895483,-6.91358442 176.911078,-8.09148976 C167.877841,-11.0710782 157.499878,-15.857983 147.967531,-12.8960632 C139.639102,-9.1003913 140.609111,5.17223655 136.578779,12.9307918 C130.93057,4.5679199 121.298451,10.1752615 119.260715,19.1442425 C96.0582237,28.3797886 76.115084,17.8879808 74.6303194,54.1421149 C75.9096433,60.750932 76.9973763,66.950043 76.3910568,73.623645 L75.6890702,73.6953436 C69.750525,105.818615 67.4668243,140.253141 68.9023446,176.051221 C68.6148302,190.146139 63.4711175,203.301549 58.4969383,216.020878 C54.8382466,225.373447 51.0602916,235.044306 49.2692895,244.966622 C47.2833625,253.230652 39.9831633,292.97113 56.2160588,279.777566 C56.8380236,324.989158 97.1839158,330.777538 133.515635,320.791205 C172.085401,312.784266 215.504953,315.086303 239.576656,276.350629 C247.742733,290.305223 250.560169,298.920832 252.60996,313.513287 C254.859549,324.203034 258.126045,336.343599 264.130506,343.41436 C258.96037,352.707633 256.428163,364.028407 256.677701,371.406768 C256.775722,374.305043 255.448346,375.647132 257.356092,377.448709 C266.507801,386.091112 286.926521,386.18809 302.452976,390.035743 C313.099047,391.388788 351.594481,396.564931 357.477579,393.190901 C361.580495,394.336542 356.809094,383.674262 360.911753,383.446619 C362.315454,383.457022 362.503333,381.671868 363.944693,381.737462 C373.14656,382.156221 392.985785,384.857255 388.189188,377.448709 L386.865055,368.978348 Z" id="ðŸŽ¨-Background" fill="#FFFFFF"></path>
                    <path d="M384.580586,379.447765 C377.796169,380.91144 370.818366,380.502758 363.944693,381.07481 C364.166805,380.499941 364.35301,379.911757 364.498691,379.313842 C371.6014,378.454995 379.050358,378.047338 385.821951,375.70305 C385.981738,376.465616 386.101515,377.236632 386.148964,378.015073 C386.155376,378.119292 386.141269,379.283882 386.307725,379.068786 C386.101515,379.335608 384.888363,379.389894 384.580586,379.447765 M350.304814,361.863686 C337.957851,357.806827 324.863506,354.3233 315.346291,344.911836 C315.36527,344.859855 315.38348,344.807361 315.401434,344.754867 C317.36043,344.20074 319.515122,343.017713 321.400252,344.304191 C327.437542,344.096009 333.742854,341.982693 337.970932,337.516127 C338.259472,337.577327 338.539036,337.663621 338.811161,337.770401 C346.946461,351.594656 364.278631,354.227787 376.972098,362.237799 C382.117606,365.229423 391.701506,373.286295 379.440464,373.466822 C374.600424,374.19994 369.732428,374.742289 364.851608,375.116914 C364.475095,367.333008 356.756576,363.922972 350.304814,361.863686 M358.935889,381.800759 C356.480603,385.145242 352.047854,386.4668 348.037528,386.139803 C345.088004,385.739572 342.485242,384.703271 339.417737,384.926561 C316.161641,384.044156 293.292831,379.231645 270.614841,374.318755 C250.303139,370.511816 265.821737,355.532957 264.130506,343.41436 C266.997187,345.160477 270.247049,346.435943 273.593604,347.371098 C277.904525,359.355772 289.685948,356.225361 298.028483,350.48384 C301.247311,350.379878 305.166587,350.873317 307.799101,348.737724 C307.952732,348.863708 308.114572,348.970232 308.282053,349.061392 C310.371085,347.832017 312.28289,346.545283 314.473744,345.59707 C321.878075,358.101815 337.605704,360.956443 350.225305,365.783807 C357.945875,367.862297 364.267859,373.822498 358.935889,381.800759 M358.513979,392.51304 C351.987581,394.462217 345.080823,394.124209 338.346932,393.575459 C316.225249,391.660082 294.250272,387.893346 272.789025,382.195101 C267.699173,380.84307 257.824681,379.273383 257.356092,372.891697 C261.886816,378.827828 269.975436,379.527145 276.770112,381.05791 C299.074153,385.425378 321.920137,391.065752 344.730984,389.978238 C349.548453,391.347681 354.799118,390.266569 358.875103,387.60015 C358.745581,389.237182 358.628113,390.874983 358.513979,392.51304 M237.903599,184.050424 C241.207065,175.295515 244.789839,166.658396 248.255144,157.95726 C254.684849,161.557554 261.943242,162.873735 269.35578,163.713633 C269.52993,163.800695 269.714852,163.877515 269.91465,163.938971 C270.266028,164.01067 270.56098,163.977381 270.797199,163.869833 C280.68195,164.914584 290.763935,165.32429 299.458874,169.362457 C302.823639,170.924462 305.980912,173.029327 308.838359,175.927999 C311.964598,178.918854 314.483234,182.52939 316.173696,186.513783 C316.701789,187.742902 316.981609,189.020673 317.81517,190.032135 C318.066521,191.391848 318.350957,192.741317 318.543318,194.113833 C319.03063,199.478424 319.695171,205.129809 317.62281,210.276743 C316.337587,213.42892 313.703791,210.893863 311.956903,209.659623 C309.115358,207.677669 306.499002,205.4038 303.890854,203.12993 C295.878409,195.604139 286.514312,189.205041 275.275345,188.147487 C263.141261,186.46257 249.993824,184.357704 237.903599,184.050424 M233.040732,184.068349 C232.373883,185.76863 231.719602,187.474032 231.076093,189.181995 C227.887786,188.636573 221.101573,187.35112 218.323635,185.88642 C219.313649,185.919709 220.29366,185.405016 220.545011,184.22455 C220.655298,183.702174 220.829448,183.213087 220.965639,182.703515 C222.640455,177.251862 224.068794,171.6901 226.433799,166.463786 C228.747251,160.945555 231.499285,155.583525 233.602167,149.983353 C237.1675,149.758015 242.799808,154.177721 245.346401,155.980428 C240.804134,165.12968 236.769699,174.514512 233.055864,184.027378 C232.986615,184.027378 232.915057,184.027378 232.845807,184.029939 C232.909927,184.042742 232.976612,184.055546 233.040732,184.068349 M212.037559,183.423062 C193.750256,182.281006 175.217245,183.484518 157.140513,180.245278 C153.713936,179.664007 150.520756,178.614135 147.555587,177.182724 C138.927589,173.019085 132.22345,165.626448 127.286204,157.163455 C109.450563,130.340501 89.8246894,103.696795 81.0453683,72.2697679 C75.843691,57.0594249 74.8308503,34.3232911 93.0124832,27.7782345 C101.076224,24.7720152 110.814782,24.956383 117.755396,19.5021691 C116.970309,22.3854765 116.529163,25.4019385 116.124181,28.0727108 C115.441943,32.4283999 114.769708,36.9351682 115.323962,41.3395099 C115.329092,41.3779199 115.334221,41.4163298 115.341659,41.4521791 C114.431411,43.9309017 117.296039,46.2713484 120.107064,46.0280853 C126.037145,45.8923701 128.945375,38.7737248 134.888024,38.5560684 C137.057848,38.4766878 138.35333,39.769823 139.681898,41.308782 C142.897904,45.0396691 146.047739,48.8422548 149.933159,51.8996874 C150.210415,52.1173438 150.579746,51.8535955 150.423293,51.5207092 C148.460962,47.3340239 145.709185,43.6261827 142.980234,39.9055382 C137.322279,30.8791983 129.707378,35.032595 123.269722,40.5200975 C122.015277,41.4291331 120.740826,42.1666043 119.450474,41.8439607 C119.535112,41.5341204 119.558196,41.1756274 119.504335,40.7761639 C119.024973,37.2424478 119.494076,33.516682 119.981388,30.0111333 C121.094769,23.4686373 120.76391,14.9365055 127.080763,10.9751587 C129.837927,9.41827507 133.172171,9.22110396 135.854955,10.987962 C135.362513,12.1940346 134.775173,13.5511864 134.690534,14.826397 C134.151926,14.4474188 133.787724,14.5652093 133.690261,15.3871824 C135.780576,21.5430181 139.202279,27.1995245 142.10538,33.0045493 C144.372666,37.3602384 146.652776,41.7108062 148.979309,46.0357673 C149.66642,47.3749945 150.246065,48.7936022 151.584893,49.5361947 C151.587714,49.548998 151.590022,49.5618014 151.592587,49.5746047 C152.497962,52.557778 152.497962,55.7637291 153.195589,58.7981157 C153.624167,60.6520362 154.11661,62.5161995 154.642138,64.3701201 C155.13971,66.1088108 155.665751,67.8398195 156.19923,69.5426609 C162.549426,91.5157169 168.564146,113.5912 174.755581,135.612908 C167.425373,131.828247 163.708717,124.753133 160.353954,117.521818 C151.505384,98.887868 142.236442,78.5485155 132.33348,61.3562188 C141.543945,80.9017655 154.177908,126.688995 169.910667,138.071145 C172.311067,139.658757 174.927422,140.854587 177.658938,141.802033 C178.800019,142.83398 179.995473,143.056758 180.798,142.782767 C185.743197,144.168086 190.921535,144.964452 195.78158,145.981036 C204.20978,147.747894 212.640288,149.501949 221.07336,151.248321 C223.925422,151.837274 226.790307,152.625958 229.703923,152.764234 C229.84986,152.771916 229.991181,152.766795 230.121729,152.74887 C223.702284,160.118461 219.38059,170.179309 216.910685,179.610233 C214.899623,179.031523 212.619769,181.174799 212.037559,183.423062 M139.65625,184.234792 C125.393123,205.608653 103.040864,218.86777 84.6332714,236.121523 C73.6046179,247.72389 64.8099079,261.195543 54.7510065,273.609641 C54.4406653,273.99374 54.1275028,274.37784 53.8148533,274.759379 C53.0400263,275.711946 51.9630655,276.759257 51.3395618,277.683657 C51.3218647,277.711824 51.3039111,277.737431 51.2885223,277.757916 C49.8314576,274.718408 50.6291114,270.83132 50.5752505,267.366742 C50.7983884,261.431124 51.5755237,255.546718 52.7427656,249.72889 C56.5538066,226.370515 69.675596,205.580486 72.5299654,182.088956 C72.4350676,157.104559 71.1913946,132.048464 73.2994063,107.071749 C74.0688472,95.6716743 74.8767602,84.2664777 76.0206624,72.8945698 C83.9205126,102.201367 106.988352,133.815322 120.084237,154.054809 C125.367475,161.790574 130.097228,170.230522 137.537466,176.148216 C139.335649,177.566824 141.233604,178.7857 143.208502,179.835572 C141.871983,181.159435 140.728081,182.667666 139.65625,184.234792 M186.374139,69.9395638 C188.338778,69.4248704 192.675604,68.910177 194.930066,67.4301133 C196.096538,71.4234685 197.358165,75.3860957 198.689298,79.325677 C195.458671,78.3723418 191.962075,78.8191777 188.634243,79.1820237 C184.298187,79.6547223 179.96803,80.1689035 175.639668,80.7074111 C171.674995,81.2003389 167.712631,81.7122156 163.752062,82.238432 C162.339369,77.1795846 160.916672,72.12381 159.471662,67.074181 C167.732893,70.8972521 177.530698,71.4298701 186.374139,69.9395638 M190.869982,31.8829785 C190.862544,31.5475316 190.783035,31.1967206 190.608372,30.835667 C190.582981,30.7844538 190.559641,30.7332405 190.533993,30.6820272 C189.85945,28.2775639 189.174904,25.8756613 188.477277,23.4763193 C188.37212,23.0717344 187.73092,23.151115 187.743487,23.5761852 C187.738358,23.8732222 187.736049,24.1676985 187.733228,24.4647355 C187.687318,24.3418237 187.643716,24.2189118 187.599858,24.0934393 C186.735776,21.5916707 186.10227,19.015643 185.684207,16.3986446 C193.086229,17.9222395 199.182766,34.0544214 202.627296,45.5876511 C199.795754,44.7067828 196.081919,44.507051 194.981618,46.8500584 C193.616886,41.8593247 192.262927,36.8660303 190.869982,31.8829785 M179.38582,127.409053 C181.230683,127.288446 183.076058,127.173728 184.920408,127.045951 C188.694516,126.784508 192.467598,126.512053 196.241193,126.245232 C197.146312,126.181215 198.051431,126.11515 198.95655,126.048573 C201.519301,125.907736 204.082309,125.765876 206.645317,125.629392 C209.478911,125.478825 212.345592,125.221991 215.200474,125.117259 C215.7378,125.10548 216.275383,125.096774 216.812709,125.091141 C216.918636,125.306236 217.028153,125.517491 217.146647,125.718503 C213.384081,126.758133 209.947244,127.961645 207.192646,129.175399 C200.934526,131.912749 194.917498,135.515603 189.777633,140.045417 C188.826091,139.848246 187.874549,139.648514 186.92275,139.446222 C184.312037,138.882876 181.667725,138.28112 179.120619,137.423297 C178.469159,135.828004 178.256537,133.953598 177.702539,132.38135 C177.263189,130.805774 176.823838,129.229685 176.384487,127.653853 C177.388094,127.636953 178.414529,127.472302 179.38582,127.409053 M173.158478,114.522769 C173.192333,114.519184 173.225932,114.515087 173.259531,114.511246 C173.263635,114.511246 173.267995,114.51099 173.272098,114.51099 C173.684006,114.497931 174.095657,114.482054 174.507308,114.462849 C175.330353,114.424696 176.153142,114.375531 176.975161,114.317148 C178.621252,114.200125 180.264008,114.043925 181.904456,113.865191 C185.190739,113.506698 188.466505,113.058581 191.745606,112.641705 C193.677672,112.395882 195.60307,112.184371 197.526929,112.004356 C202.02508,111.706295 206.536826,111.477884 211.030104,111.414635 C212.468189,114.833121 213.927819,118.241365 215.400016,121.641926 C215.538772,121.959193 215.67368,122.30437 215.810641,122.662607 C209.205247,122.536878 202.57164,123.162449 195.989586,123.555767 C192.29986,123.77624 188.609621,123.990567 184.920408,124.217186 C183.075032,124.330367 181.230426,124.45584 179.38582,124.576191 C178.154201,124.65634 176.830506,124.603334 175.598888,124.835586 C175.338304,123.900688 175.07772,122.96579 174.817136,122.031147 C174.134385,119.608759 173.459329,117.184067 172.782734,114.759886 C172.914821,114.696382 173.041523,114.618026 173.158478,114.522769 M167.537455,95.8696136 C166.478704,92.0452622 165.419184,88.2209108 164.354021,84.3983519 C164.554076,84.3706968 164.754131,84.3430416 164.953929,84.3153864 C165.701825,84.2124477 166.449979,84.1102773 167.198132,84.0083628 C168.846274,83.7843048 170.494673,83.5630634 172.143585,83.3448948 C173.421626,83.175891 174.699924,83.009704 175.978479,82.844029 C177.390146,82.7249581 178.802327,82.6115207 180.21502,82.5073017 C186.603176,82.0369078 193.041601,81.6005707 199.451044,81.5644653 C200.796796,85.4576985 202.21385,89.3271176 203.682713,93.1775877 C198.231737,93.5089376 192.786403,93.9475793 187.342865,94.3841725 C184.211497,94.6353736 181.080898,94.8960492 177.951325,95.1659432 C176.428602,95.2973052 174.906391,95.4309719 173.38418,95.5666871 C172.538565,95.6419706 171.692949,95.7182784 170.847334,95.7950983 C170.358995,95.8393978 169.721385,96.0050727 169.172004,96.0086576 C169.100703,95.952323 169.026323,95.8977809 168.947327,95.8432388 C168.546705,95.5674553 167.956287,95.6158518 167.537455,95.8696136 M168.812162,99.0973303 C172.407247,98.6597129 175.99438,98.1885507 179.5869,97.7522136 C181.579496,97.5588835 183.572348,97.368114 185.565713,97.1824659 C191.899751,96.5922329 198.24097,96.0808684 204.575264,95.4985734 C206.293939,99.9318506 208.079042,104.340289 209.906208,108.730291 C202.149473,108.219439 194.250906,109.520256 186.581118,110.420586 C182.486923,110.901222 178.381699,111.334743 174.260317,111.488126 C173.607831,111.512197 172.695787,111.478396 171.913266,111.651497 C170.848359,107.825353 169.787557,103.997929 168.728037,100.169992 C168.743682,99.8140601 168.771382,99.4568475 168.812162,99.0973303 M232.494172,150.244541 C232.222303,150.503168 231.955564,150.769477 231.691645,151.043468 C231.696775,150.956406 231.699083,150.871904 231.696775,150.784841 C231.701905,150.78228 231.707034,150.77972 231.709343,150.777159 C231.945304,150.546699 232.207171,150.370014 232.494172,150.244541 M227.695426,40.7019046 C235.669655,60.014431 242.555895,79.8723787 250.024858,99.4204861 C252.420128,106.057727 254.780003,112.70777 257.011382,119.403906 C257.857767,121.61632 258.168108,124.100164 259.907045,125.838854 C259.978859,125.910553 260.058368,125.97713 260.143007,126.033465 C257.806727,127.012919 255.696151,128.101713 253.996199,129.202542 C254.777951,131.849244 255.721799,134.447038 256.849286,136.953672 C257.252217,137.849136 255.925701,138.629626 255.520718,137.729041 C254.087506,134.543063 252.931037,131.22854 252.024892,127.847951 C250.896378,126.328709 249.590637,124.965924 247.898636,124.115528 C244.633642,122.92994 240.517133,122.520234 236.079767,122.653389 C236.008209,122.525355 235.913311,122.402444 235.797895,122.287214 C234.328007,120.873727 233.746053,118.625465 233.015084,116.753619 C230.888862,111.291723 229.080419,105.701794 227.595398,100.029924 C226.133717,94.4143884 225.228085,88.6656981 223.709722,83.0629658 C223.402202,82.0822315 222.445274,77.3450035 221.552979,77.6061912 C221.570932,77.7137391 221.586321,77.8187263 221.60171,77.9262742 C221.555543,77.8955462 221.503991,77.8827429 221.452951,77.8853036 C221.093879,89.4748679 224.128041,101.148934 227.603349,112.162349 C228.56515,115.83178 230.750363,119.26563 231.450554,122.96835 C228.406133,123.283312 225.302464,123.800566 222.29395,124.453535 C222.250605,124.210272 222.188793,123.96957 222.116979,123.726307 C222.076198,123.388299 221.97335,123.12199 221.824591,122.919698 C221.445,121.992737 220.942299,121.088823 220.570659,120.254047 C219.806348,118.528159 219.046909,116.802272 218.295679,115.068703 C214.204561,105.589125 210.331965,96.0071212 206.915391,86.2612348 C202.701676,74.4437714 199.257145,62.398409 195.93316,50.3197578 C198.159409,51.5104665 202.439809,49.1316098 205.063859,54.5678991 C205.630681,55.9378542 206.889743,56.9160278 208.451964,56.4883969 C209.821569,56.1119793 210.85775,54.5166858 210.375567,53.10576 C210.306317,52.8753003 210.231938,52.6474012 210.147299,52.4246235 C207.589934,44.8527406 205.520394,37.081126 201.832207,29.9547987 C211.298639,30.9099263 222.49657,31.5885022 227.695426,40.7019046 M315.873614,167.272955 C316.691786,171.136997 316.165745,175.20077 315.945429,179.13395 C312.203381,174.168823 307.460803,169.930924 301.913391,167.109073 C301.544059,164.625229 299.976708,162.461468 299.253433,160.049323 C297.917427,156.646201 296.834824,153.168819 295.860455,149.658149 C304.906516,151.540237 313.711485,158.100658 315.873614,167.272955 M283.075681,196.87218 C286.147033,213.419958 291.025545,229.551884 294.598828,245.98776 C294.808629,246.953387 293.324891,247.362069 293.114833,246.396186 C289.54155,229.96031 284.663294,213.828384 281.591686,197.280606 C281.41215,196.312419 282.895375,195.901433 283.075681,196.87218 M281.499353,349.008898 C283.950792,349.351771 286.397101,349.651369 288.863159,349.912556 C283.95387,351.963136 279.375952,351.462014 275.381784,347.837907 C277.426446,348.334675 279.487008,348.714422 281.499353,349.008898 M389.666591,373.392819 C389.528348,372.736265 389.165172,372.310427 388.707355,372.079967 C388.777117,358.308205 359.7833,353.831908 350.997567,345.062147 C346.978264,342.225444 344.054132,337.539429 339.38619,335.78307 C342.027425,331.702396 341.317744,326.45073 340.731686,321.86535 C339.449797,313.499405 336.228661,304.149653 335.38638,298.978137 C329.031054,272.395886 322.867576,245.749619 315.675868,219.377342 C315.529674,218.872891 315.257805,217.874232 314.916686,216.770586 C315.691513,216.957515 316.432485,217.018971 317.127546,216.929348 C327.214917,214.696449 324.950196,194.323808 322.580574,186.941414 C322.326402,186.070788 321.733933,185.520245 321.038871,185.261618 C321.128639,184.810942 321.046822,184.332097 320.726222,183.873739 C320.55438,183.627915 320.289949,183.451229 320.002691,183.361606 C319.697479,176.35563 321.44924,168.824718 317.75618,162.423058 C313.606072,155.422203 303.705931,149.629982 295.739909,149.222836 C294.598572,145.095046 293.598299,140.926285 292.495177,136.790813 C291.284846,132.460731 289.561042,127.808005 285.937232,124.904212 C281.248772,120.740573 271.240653,122.010662 262.938642,124.952865 C263.392612,122.783983 262.35874,120.822514 261.72549,118.789347 C259.660567,112.70521 257.534602,106.641558 255.364522,100.595831 C247.575471,80.212947 241.178596,59.08491 231.435165,39.5419239 C227.40073,32.9174867 219.6422,29.9317527 212.194012,29.3171934 C208.700494,28.9663825 204.98435,28.8306673 201.457746,29.2429342 C201.344895,29.0278384 201.229479,28.8153033 201.111498,28.6027682 C198.220964,23.6017918 192.355003,14.2912183 185.604698,15.8890725 C184.891426,11.1339198 184.881167,6.26097661 185.468507,1.50326329 C185.5098,1.16525567 184.955546,1.01929783 184.817047,1.32657748 C180.34403,11.3438942 181.175283,23.6709297 186.632927,33.1556284 C187.033037,33.813719 187.577031,34.1542873 188.141032,34.2515925 C189.0105,44.210014 191.183145,54.0378417 193.863364,63.6838622 C193.46069,63.6992262 193.073405,63.7837281 192.749983,63.9271252 C184.199186,67.0536957 174.796361,67.5632678 165.89675,65.7375145 C163.390681,65.2100178 160.964378,64.5007139 158.52525,63.7786067 C158.063842,62.1807525 157.601921,60.5880196 157.137691,58.9927261 C155.973271,53.9533398 155.67601,49.1111245 152.721357,45.0524724 C152.546694,44.7528748 152.367414,44.4558378 152.195316,44.1588008 C149.822873,39.8620069 147.411958,35.588259 144.983346,31.3247538 C144.393185,30.6256926 140.448774,22.8643206 137.378448,18.1706239 C137.763168,18.1603813 138.160969,18.063076 138.547998,17.8684656 C140.712692,16.7904261 140.689609,13.6638556 141.084588,11.566672 C142.295176,5.04978264 143.695815,-1.47734937 144.080535,-8.10690793 C144.100797,-8.44491555 143.582963,-8.58831272 143.431383,-8.28103307 C140.479551,-2.43759829 138.432838,3.81554269 136.247626,9.97393911 C136.203768,10.096851 136.157858,10.2223235 136.109127,10.3503567 C134.082932,7.79993555 130.52555,7.19305823 127.427012,7.87931613 C122.248931,9.22878595 119.637705,13.4308352 118.132165,18.2090339 C103.243483,25.3046332 85.5258229,18.0579547 76.4900214,36.830181 C72.4199353,46.640084 72.4968794,57.7636075 75.1332405,69.3403685 C68.2672625,104.434266 66.1179575,140.334772 67.5468093,176.043229 C67.0387218,200.19797 52.1987709,221.154443 47.9463273,244.661336 C45.8252351,253.925818 44.4941023,263.42332 44.6585061,272.941307 C44.3327761,277.970451 46.5538957,285.396376 53.0066839,283.440029 C53.7427824,283.176281 54.4098877,282.771696 55.0251839,282.282609 C57.720792,323.007406 89.1552758,330.884008 125.385685,323.87035 C126.852496,323.895956 128.293915,323.557949 129.835618,323.125196 C130.584541,322.902419 131.328077,322.669398 132.07187,322.423574 C132.631254,322.29042 133.192689,322.154705 133.754381,322.013868 C134.170649,321.92911 134.587942,321.848705 135.004979,321.766508 C145.33498,314.947204 156.064834,308.735546 166.270955,301.723937 C166.990383,301.229472 167.871649,302.378186 167.203261,302.930521 C160.385502,308.559885 153.711627,314.435328 146.617638,319.726939 C166.8288,316.51894 187.395443,317.065642 206.266752,308.75219 C219.508831,302.967651 231.970952,291.375526 239.475823,278.869244 C239.589187,279.067952 239.69973,279.267427 239.812069,279.466391 C239.447354,278.431627 239.083152,277.396862 238.722797,276.360818 C232.325408,257.967314 226.537161,239.357946 219.544225,221.174672 C219.18823,220.249248 220.676585,219.852601 221.027963,220.766246 C222.988499,225.864272 224.857471,230.99661 226.668478,236.149434 C233.149992,254.59031 238.943626,273.270353 245.84705,291.563479 C245.886805,291.668466 245.900142,291.766027 245.896808,291.856419 C247.338483,295.406267 248.51778,299.022692 249.334926,302.729509 C250.182081,306.608403 251.420881,314.893174 252.6466,321.86535 C253.71997,327.615576 254.501722,334.285337 258.501276,338.699154 C258.496659,338.708372 258.492299,338.717334 258.487426,338.726809 L258.487683,338.726809 C258.346619,339.001312 258.21171,339.273254 258.080135,339.543917 C258.363546,339.825846 258.723388,340.010469 259.0563,340.221212 C259.107852,339.979485 259.157866,339.739039 259.214548,339.492959 C260.187378,340.523627 261.266903,341.449819 262.426451,342.285875 C261.118914,351.942907 251.376509,361.298036 256.421221,371.406768 C254.016718,376.932681 259.91833,381.428694 264.775298,382.568958 C272.221178,384.946278 279.905071,386.733877 287.530744,388.430829 C302.627945,391.240902 349.878543,401.628747 361.188812,393.542682 C361.026717,391.816795 363.152426,386.209197 360.643535,386.126488 C361.75589,385.030268 362.677937,383.748656 363.376333,382.357447 C370.29848,384.606734 377.991351,383.801149 385.03943,382.971238 C390.739448,383.09415 390.530417,377.550057 389.666591,373.392819" id="ðŸ–-Ink" fill="#000000"></path>
                </g>
                <g id="Head" stroke-width="1" transform="translate(86.511840, 45.072000)">
                    <g id="head/Bun">
                        <path d="M37.4850786,15.9923599 C75.4925938,14.125945 101.28083,44.0568845 102.390221,55.9924139 C103.160312,64.2775355 102.637706,75.3270485 102.637706,82.7304914 C102.637706,86.5094883 104.547312,97.9962154 102.390221,103.504094 C97.5890225,115.763393 92.1647426,125.365979 77.1349893,125.365979 C62.105236,125.365979 39.1929439,117.587227 31.3252737,107.55447 C29.8887727,105.722662 12.0385466,92.3136497 12.0385466,81.7737008 C12.0385466,59.2864304 10.3651068,17.3241259 37.4850786,15.9923599 Z" id="ðŸŽ¨-Background" fill="#FFFFFF"></path>
                        <path d="M11.5564271,-8.295126 C13.7224829,-8.971206 15.1049171,-7.9979012 16.091152,-6.4899924 C16.30856,-6.53231 16.5189468,-6.5295556 16.7531557,-6.4732156 C16.811081,-6.4591932 16.9512553,-6.4063588 17.0573263,-6.3647924 C17.1393245,-6.3304876 17.2132984,-6.2889212 17.2845139,-6.2448508 L17.3268922,-6.2671364 L17.3268922,-6.2671364 C17.489384,-6.4441692 17.6601508,-6.6056772 17.8444587,-6.7358852 C18.2587124,-7.0283524 18.6855042,-7.1134884 19.0904799,-7.0533924 L19.2780476,-7.1222524 L19.2780476,-7.1222524 C20.8814004,-7.6801436 22.6196614,-7.42123 23.7067015,-6.0420268 C23.9170883,-5.7756012 24.0871029,-5.4788772 24.2322923,-5.1658772 C24.5582789,-5.0592068 24.8642049,-4.9049604 25.1277525,-4.7151572 C25.3128126,-4.802046 25.5084046,-4.8751628 25.7177883,-4.9289988 C26.9006183,-5.2319828 28.1433797,-4.946026 29.1072971,-4.2218692 C29.5767179,-3.8695564 29.922013,-3.4283516 30.1838053,-2.9245468 C30.4819577,-2.8546852 30.7765995,-2.7289844 31.0526851,-2.5602148 C31.2899031,-2.6781532 31.5308825,-2.78883 31.77788,-2.8647012 C32.680863,-3.1416436 33.6495449,-3.2435564 34.5893894,-3.1736948 C36.6146241,-3.02371772 38.5732554,-0.713825271 37.2197557,1.2697435 L37.1777234,1.3297492 C37.0059535,1.5688812 36.8565012,1.816026 36.7180822,2.0671772 C37.2027993,2.2777636 37.6697124,2.5594636 38.1010179,2.9125276 C40.2106907,4.63909391 40.4005881,7.30078962 40.0060083,9.81168513 L39.9892328,9.9162156 L39.994248,9.9162156 C41.1151791,10.0224777 42.0829555,11.1915196 41.42071,12.2911038 L41.3884678,12.3425916 C40.4920045,13.7255508 39.7236791,15.2532412 38.8673372,16.708566 C36.4974143,17.5616788 34.212248,18.6123572 32.0604854,19.8853908 C30.7201787,21.0577636 29.4440664,22.2972436 28.3214186,23.6761964 C27.7609723,24.3647964 27.2461642,25.0937108 26.772982,25.849418 C27.1513773,26.030958 27.6192935,26.0216932 28.0144896,25.6561092 C31.5298794,22.4031628 35.7769838,20.120266 40.2991709,18.590322 C40.6249067,18.4798956 40.8385534,18.2720636 40.9584162,18.0261708 C42.9659923,17.4550084 45.0089256,17.0120508 47.0721702,16.69855 C47.6408916,16.1574356 48.2366948,15.6401092 48.8029086,15.1012484 C49.5258466,14.41365 50.4313372,14.423666 51.1078849,14.855606 C51.4439019,14.7026533 51.787581,14.5676112 52.1364552,14.4462774 L52.3529031,14.3725844 C52.4431763,14.3430372 52.5294374,14.3087324 52.6182061,14.2816892 C55.0393196,13.5426566 57.2532586,13.8170495 59.6346671,14.4242704 L59.9396153,14.5035436 C61.0497342,14.7976384 61.7483125,14.7506319 62.8234146,14.479947 L62.9444599,14.4489564 C64.0866669,14.1514812 65.3083645,13.9311292 66.4758982,14.2443796 C67.6974988,14.5722421 68.5078912,15.3013438 69.3400179,16.1822766 L69.423319,16.2708668 C69.8115586,16.6856423 70.0359297,16.7308764 70.5442526,16.7207911 L71.0886374,16.704681 C73.14343,16.6484371 75.1555072,16.7349514 76.6945764,18.3218932 C77.263441,18.9087831 77.8739282,19.739373 78.2403228,20.497425 L78.2934155,20.6105492 C78.3104672,20.647358 78.3255127,20.6781572 78.3395552,20.7057012 C78.5602231,20.6701444 78.9037628,20.5306716 79.0672577,20.4988708 C81.3065352,20.065178 83.1749401,20.7334956 84.6130427,22.4955604 C84.9274945,22.8811764 85.4026827,23.638386 85.7319292,24.0545508 C85.8472783,24.1522068 85.9561077,24.256874 86.0591696,24.3667996 C86.5990537,24.7110996 87.3641192,24.6893148 87.9694514,24.8100076 C89.6191945,25.1380316 91.3825315,25.7645324 92.2213202,27.3322868 C92.5718812,27.986582 92.7015236,28.7024756 92.8494714,29.417618 C93.4041502,29.7814492 93.8387155,30.3057868 94.176237,30.8734436 C94.5864787,31.5625444 94.7610069,32.4066428 95.2334368,33.0574324 C95.576475,33.5301876 96.100812,33.7825908 96.5995716,34.0715524 L96.7899838,34.1832741 C98.2681035,35.0621402 99.4253534,36.0374817 99.9120376,37.7594384 L99.9541918,37.9126355 C100.033101,38.1763913 100.310217,38.9292194 100.068822,38.8161316 C100.276701,38.9305644 100.62977,38.9708788 100.819343,39.0334788 C101.844697,39.37227 102.736145,39.9196444 103.282298,40.88093 C103.697828,41.6125647 103.773379,42.3752282 103.892362,43.1817699 L103.943048,43.5074069 C103.955977,43.5861655 103.971446,43.6776887 103.987417,43.7664345 L104.003481,43.8536788 L104.00649,43.855682 C104.192302,43.93581 104.374604,44.0226988 104.553896,44.1163484 C105.403719,44.6158964 105.984727,45.4830316 105.984727,46.4868852 C105.984727,46.9741636 105.832266,47.35377 105.610344,47.6925612 C105.789887,47.9639948 105.928808,48.2532068 106.033876,48.5754716 C106.24,49.2047268 106.254293,49.892826 106.185083,50.543866 C106.101831,51.325114 105.900974,52.0365004 105.664508,52.7826924 C105.573482,53.0706524 105.536621,53.4730452 105.399456,53.7479844 C105.652471,54.0702492 105.803428,54.4641284 105.756536,54.8527492 C105.689584,55.4086372 105.435565,56.0584252 104.931289,56.3701732 C104.684793,57.5846132 104.154187,58.8255956 103.631856,59.8184316 C103.571674,59.9336156 103.498953,60.0362796 103.418711,60.1214156 C103.491431,64.0852476 103.20055,68.076874 103.18049,72.0354476 C103.157921,76.3448316 103.248195,80.65697 103.39865,84.9610956 C103.651916,92.0949916 104.557156,99.4717756 102.448273,106.428138 C100.723052,112.121984 97.2673427,117.009792 92.6335679,120.715712 C87.8892085,124.506768 82.1696475,126.700522 76.0960148,127.04357 C73.0066645,127.216096 69.8646548,126.865536 66.875608,126.06676 L66.5562539,125.980308 C63.6643453,125.186965 60.3146791,123.974936 58.1868102,121.852528 C57.0634101,120.730736 58.1993481,118.35469 59.8468345,119.007984 C61.4792753,119.65677 62.9439583,120.615552 64.5636104,121.291632 C66.0104896,121.895096 67.5203093,122.358336 69.0496882,122.69888 C72.1164702,123.38748 75.3688138,123.53797 78.4857477,123.109536 C89.7398096,121.57208 98.5088503,112.239922 100.239087,101.174496 C100.71795,98.1101177 100.709035,94.9954215 100.676766,91.8989788 L100.641098,88.5061978 C100.613716,85.6679071 100.603583,82.827938 100.708006,79.990906 C100.840909,76.340074 101.09919,72.6914956 101.445238,69.055938 L101.625509,67.1641808 C101.839517,64.9506084 102.080494,62.7202894 102.495918,60.5370796 C102.155638,60.554858 99.4707616,55.9685316 97.9807519,53.4056876 C97.4368557,52.9749996 96.9777161,52.4398948 96.8004295,51.7475388 C96.7635679,51.603058 96.7445103,51.4573252 96.7329753,51.311342 C96.4094963,50.8037812 96.0682134,50.3092412 95.7081235,49.8294748 L95.6295358,49.7943954 C95.5690905,49.7668441 95.5220604,49.7438738 95.4944769,49.7283132 C94.7085983,49.2833524 94.0523621,48.6092756 93.6032528,47.8280276 C93.4517944,47.5646068 93.3276687,47.2896676 93.2268636,47.0084684 C92.5861745,46.3807156 91.9158958,45.7817588 91.2117647,45.2201116 C91.1425552,45.1650236 91.0710889,45.1134412 91.0013779,45.0591044 C90.1049146,44.7250708 89.318033,44.2217668 88.7442965,43.4968588 C88.504571,43.348622 88.2630901,43.20339 88.0196032,43.0611628 C87.2888916,43.054402 86.5506572,42.8843804 85.8324835,42.5896596 C84.5185066,42.0507988 83.4690804,40.9858476 82.1490852,40.4923092 C80.7531101,39.970726 79.2824089,41.1561196 77.7991696,40.942278 C77.4205236,40.8876908 77.0451375,40.7727572 76.696081,40.6059908 C75.8608029,41.489402 74.97437,42.3222324 73.9971624,43.0511468 C72.5786189,44.1093372 71.1282291,44.5928596 69.4840027,45.0708732 C68.6692868,45.8428564 67.7570257,46.591302 66.6569462,46.7012276 C64.1109905,48.733474 61.387999,50.4477124 58.5228272,52.0392548 C58.0619322,52.2951636 57.6037956,52.410598 57.1689796,52.4136028 C56.2702595,52.9770028 55.2892905,53.4104452 54.2529037,53.7104244 C53.9281709,53.8043244 53.5934077,53.824106 53.2641611,53.7837916 L52.3649395,54.51521 L52.3649395,54.51521 C51.7390452,55.0240228 51.0715248,55.2671612 50.4328418,55.2829364 C50.0441654,55.5801612 49.6414465,55.8613604 49.226942,56.1317924 C48.7828478,56.422006 48.2068545,56.542198 47.6281029,56.507142 C46.7441775,57.3705212 45.5979583,57.461166 44.6380531,57.0635308 C44.5061539,57.140654 44.3704933,57.2137708 44.2180318,57.2856356 C44.0109049,57.383542 43.7947507,57.466174 43.5743336,57.5330308 C42.5733038,58.6102516 41.1081192,59.175154 39.6399256,59.027418 C38.5436074,59.6979892 37.2674951,60.0467964 36.0199693,59.9684212 C35.8296432,60.922946 35.6721666,61.8809764 35.5390136,62.842262 L35.5253839,63.5464431 C35.523936,63.6605553 35.5236954,63.7495075 35.525214,63.8081032 L35.5259741,63.831342 C35.6480937,66.9185236 35.7147956,70.0072076 35.8354107,73.09489 L35.8464825,73.3385897 C35.9837691,76.0361242 36.6484339,80.9543876 32.6776032,80.847274 C31.1978746,80.807358 29.7297985,79.7193037 28.5776179,78.8246928 L28.4152024,78.6983412 C28.3269353,78.6297316 28.2364113,78.5593692 28.1453858,78.4877548 C27.2842795,78.3760764 26.4352097,78.1669924 25.5655777,78.1351916 C24.4923293,78.0976316 23.363914,78.2078076 22.3182492,78.4506956 C20.4726633,78.8788796 18.6872595,79.71797 17.4836165,81.2376476 C17.3782978,81.3703596 17.2805018,81.5105836 17.1877209,81.6508076 C17.1024629,81.9387676 16.9570227,82.2041916 16.7639383,82.4345596 C15.6254927,84.9911436 16.2827319,88.36929 17.5412911,90.7077756 C19.0409118,93.493373 21.4139097,95.4191986 24.3977942,96.3892233 L24.5474963,96.4369276 C26.5861666,97.0729436 27.366027,98.3049116 28.4743815,100.017648 C29.5125236,101.625216 30.7036287,103.122608 31.9824993,104.54488 C34.4574902,107.296776 37.9307525,109.568154 39.3698582,113.050968 C39.6607386,113.752338 38.8282188,114.413144 38.1837683,114.233106 C35.6586256,113.524474 33.8882674,111.729106 32.0527118,109.943754 C30.782367,108.707279 29.5606693,107.421224 28.4144502,106.070316 C28.1739723,106.181244 27.9094216,106.255863 27.6338375,106.289416 C26.4176566,106.437653 25.1633603,106.376055 24.0986378,105.721509 C23.6079025,105.76608 23.096605,105.596059 22.7169559,105.248754 C22.3686517,104.929244 22.0682425,104.583692 21.8144744,104.215854 C21.4288072,104.249658 21.0501611,104.259924 20.6888175,104.200079 C20.51454,104.183803 20.3457792,104.13798 20.191061,104.06286 C19.9036912,103.949428 19.6311162,103.774649 19.3808588,103.506471 C18.8738242,102.963103 18.679486,102.195376 18.7730191,101.465711 C18.6727155,101.444677 18.5731642,101.418886 18.4748667,101.385583 C17.7998236,101.157468 17.280251,100.704495 16.9482461,100.08801 C16.3541982,99.7552284 15.8193293,99.3040076 15.4143536,98.824742 C14.9211107,98.2415604 14.5489845,97.5842604 14.3303226,96.8583508 C14.1043888,96.7534332 13.8849747,96.6319892 13.6748387,96.489762 C12.1690312,95.4723868 11.3069219,93.5623356 11.8982115,91.7962644 L11.9183001,91.7407881 C11.948301,91.6612277 12.0026816,91.5257746 12.0692291,91.372838 C12.0597003,91.2483892 12.0496699,91.1239404 12.0428995,90.9992412 L12.0220865,90.6231404 L12.0220865,90.6231404 L11.7204234,90.495186 L11.7204234,90.495186 C10.2158697,89.8977316 9.19879138,89.0911932 9.01799417,87.4007428 C8.98038033,87.0511844 9.11629168,86.6946148 9.33069059,86.3966388 L9.32968755,86.3029892 L9.32968755,86.3029892 C9.23189156,86.2524084 9.13885999,86.2005756 9.05686181,86.1484924 C8.23662927,85.6254068 7.73260376,84.6879092 7.78902453,83.7183604 C7.84085381,82.8345606 8.33110665,82.1300467 8.88235638,81.4785161 L9.03984155,81.2957717 C9.05291236,81.2809668 9.06751906,81.2644404 9.0831915,81.246662 L8.71876444,81.1321457 C8.48234518,81.0570257 8.26580089,80.9822396 8.10999599,80.8951004 C7.50717146,80.5578116 6.99612471,80.1018332 6.6809207,79.5224076 C6.63503182,79.4505428 6.58839065,79.37993 6.54626315,79.3033076 C6.13928136,78.5618732 6.08612046,77.6118556 6.34866509,76.815834 C6.3797592,76.721934 6.41988063,76.6335428 6.4610051,76.5456524 C5.35265052,76.1555292 4.49931779,75.3492412 4.39650662,73.8633676 C4.35613443,73.278934 4.48427225,72.696754 4.76286545,72.1982076 C4.70117875,71.8624212 4.68839004,71.5143652 4.72826072,71.1700652 C4.33833054,70.8022276 4.03541372,70.3590196 3.90000389,69.818406 C3.64397899,68.7970244 4.11264748,67.825222 4.80925586,66.9340484 C4.55147565,66.2294228 4.53818543,65.4344028 4.83257644,64.7250196 C4.71923339,64.370954 4.65478834,63.996606 4.65127772,63.612242 C4.64350419,62.7611324 4.90604882,62.0502468 5.33008221,61.4455308 C4.73402817,60.7178684 4.45092131,59.7508236 4.80298689,58.844626 C5.05349508,58.2005972 5.33986181,57.611406 5.6698606,57.065534 C5.49658616,56.6503708 5.39578106,56.185378 5.39578106,55.6647964 C5.39578106,54.7283004 5.74734511,53.9863652 6.28522307,53.3791452 C6.05176648,52.2701236 6.52645319,50.919466 7.56108464,50.431186 C7.95101481,50.2468916 8.47309496,50.0545844 9.048336,49.9048452 C9.26423947,49.2312692 9.48967177,48.5604476 9.72764202,47.8943836 C10.1025267,46.8459588 10.5057471,45.8120572 10.9330403,44.7901748 C10.6870458,45.0052684 10.4290148,45.2058388 10.1622073,45.3876292 C9.3184034,46.4588404 8.1997677,47.3868228 7.25967237,47.9419596 C5.39603182,49.042718 3.26458069,48.3896748 2.34454608,46.5479828 C1.4799292,47.1925124 0.442288646,47.574122 -0.664812143,47.4436636 C-1.92011148,47.2956772 -3.06783522,46.4838804 -3.38128391,45.2176076 C-3.42667128,45.0343148 -3.45400401,44.8362484 -3.45676236,44.63693 C-4.17669132,45.1487476 -4.92997122,45.61975 -5.75622198,45.8894308 C-6.80865732,46.2329796 -7.88290868,45.4089132 -8.02182914,44.3822732 C-8.07674536,43.9753732 -8.00051463,43.6157988 -7.83827359,43.3120636 L-7.94104761,43.2716843 C-7.95810851,43.2645711 -7.97510439,43.2571425 -7.99198883,43.2492132 C-8.54390929,42.9910508 -8.97245634,42.5177948 -9.17607262,41.9719228 C-10.3711898,42.4336604 -11.7393307,41.892546 -12.1184782,40.5801996 C-12.5698443,39.0202076 -12.597177,37.4401836 -12.2438577,35.920506 C-13.5101904,35.001538 -14.3351874,33.45657 -14.4756124,31.84149 C-14.5781728,30.682138 -14.3010842,29.6119284 -13.8128565,28.6223476 C-15.0104812,28.1751332 -15.4222274,26.6076292 -14.8530046,25.4783252 C-15.6090429,25.0461348 -16.102035,24.1299212 -16.1130684,23.2379964 C-16.4508407,22.7271804 -16.5589178,22.0693796 -16.27882,21.332202 C-15.9094521,20.3609004 -15.1571752,19.5483524 -14.2958182,18.9110844 C-14.6714551,18.2580412 -14.9505498,17.5459036 -15.1238243,16.809978 C-15.8374843,16.6013948 -16.4134776,16.024974 -16.5308328,15.1593412 C-16.6777775,14.0741076 -15.9623622,13.154138 -14.9994478,12.91125 C-14.8926245,12.580722 -14.7622299,12.2574556 -14.6009919,11.9469596 C-15.0774339,10.8201596 -15.0072214,9.3953836 -14.3928619,8.1634156 C-13.848715,7.0741756 -12.9635359,6.4081116 -11.8978103,5.9473756 C-12.16863,5.0208956 -11.8100447,4.0969196 -10.9073124,3.4083196 C-9.80522684,2.5667252 -8.59656867,1.9234476 -7.32647456,1.4689716 C-7.43931609,-0.0391876 -6.80790504,-1.5836548 -5.31563849,-2.1094948 C-4.916681,-2.2499692 -4.50142417,-2.301802 -4.07939684,-2.3000492 C-3.7729694,-2.965362 -3.26167189,-3.506226 -2.59440231,-3.9849908 C-1.58465868,-4.70914343 0.302341327,-4.26674797 0.862323346,-3.13112241 L0.889642623,-3.0727836 C0.918229144,-3.0084308 0.949072495,-2.9495868 0.978411293,-2.8872372 C1.09125282,-3.438618 1.35505124,-3.95945 1.77908464,-4.386382 C2.83904274,-5.4538372 3.95817996,-5.4738692 5.03518968,-5.01739 C5.23278774,-5.5066716 5.47201178,-5.9719148 5.76289217,-6.3973444 C6.81883813,-7.94081 8.56336818,-8.137374 9.8407343,-7.3015388 C10.3527841,-7.7510068 10.9242638,-8.0975604 11.5564271,-8.295126 Z M19.1062025,84.5204166 C21.2323877,83.6890886 23.8126973,83.934731 25.9140574,84.7332566 L26.0680612,84.7930383 C27.9241047,85.5258419 30.939473,87.1557566 31.3028673,89.2404566 C31.4909366,90.319931 30.4630756,91.2536726 29.4196676,90.685515 C28.5119202,90.1919766 28.0028795,89.1978886 27.2806937,88.4767366 C26.5662814,87.763347 25.7661096,87.189931 24.8937192,86.6863766 C23.0732092,85.6372006 21.1596676,85.2290486 19.1062025,84.926315 C18.8755043,84.893763 18.938194,84.5855206 19.1062025,84.5204166 Z" id="ðŸ–-Ink" fill="#000000"></path>
                    </g>
                    <g id="face/Smile" transform="translate(39.870674, 46.574400)" fill="#000000">
                        <path d="M36.7578944,60.328009 C35.0722236,59.6413244 33.5681791,58.4958892 32.4685774,57.0326699 C32.0862863,56.5239948 31.9871646,55.9868418 32.067361,55.4955467 C32.1575361,54.9431201 32.4848286,54.4424437 32.9311823,54.1066054 C33.3789185,53.7697269 33.9389796,53.6035867 34.4804419,53.6882802 C34.9509409,53.7618739 35.4193003,54.0191143 35.7899717,54.5526217 L35.8674142,54.6593105 C36.5211464,55.5424593 37.3730196,56.2670723 38.3436696,56.7341274 C39.2792185,57.1842925 40.3255353,57.3944019 41.4083024,57.2722189 C43.4705023,57.0396021 44.8918742,55.9259388 46.4026374,54.4136027 C46.5899009,54.2226665 46.7772844,54.0257446 46.9655762,53.8256529 C47.0844862,53.6442708 47.2495035,53.5276964 47.4327174,53.4665318 C47.6361441,53.3986193 47.866267,53.4024617 48.0770421,53.4759123 C48.2803356,53.5467557 48.4620699,53.6810008 48.5839276,53.8596723 C48.6997435,54.029485 48.7654076,54.2392656 48.7441012,54.4805653 C48.6058184,56.0478541 47.785247,57.4465926 46.6196595,58.5448977 C45.3251257,59.7647059 43.6091266,60.6085773 41.9935885,60.9045495 C40.2137398,61.2305742 38.4001214,60.9969962 36.7578944,60.328009 L36.7578944,60.328009 Z M42.8332164,36.1495355 C44.7267922,37.2988829 47.6120202,39.9789369 45.5749685,42.8283092 C43.1771637,45.3406948 39.7248663,42.4600731 38.023634,41.15728 C36.4461716,40.1476081 34.6738043,42.7444087 36.1373747,43.9233709 C48.4305154,53.011698 53.4193322,36.4500738 43.7909606,34.7981847 C42.7308423,34.6161536 42.3371117,35.7939723 42.8332164,36.1495355 Z M20.8037905,25.5774586 C21.0130058,22.9842471 24.9681444,22.3953754 25.3615852,24.9614746 C25.7139016,27.2601466 25.2991463,29.3717698 24.262258,31.4413258 C23.2715094,33.4184842 20.7813432,32.4960467 20.5930232,30.6956707 C20.3405881,28.2823415 20.6736466,27.1905845 20.8037905,25.5774586 Z M50.9108385,24.4293996 C51.4622574,23.7082476 52.2584171,23.2159612 53.2123042,23.4941556 C56.1925744,24.3637948 55.3141658,28.588794 54.2674979,30.6453292 C53.6987766,31.7621132 51.8604627,32.0453156 51.0296982,31.0619948 C49.6755999,29.4584332 49.0271372,26.2560676 50.7485974,24.6765444 C50.7952386,24.594914 50.8471457,24.5125324 50.9108385,24.4293996 Z M24.2202809,14.2303572 L24.6910485,14.148077 C26.1474061,13.896564 27.9582193,13.6548879 28.9884625,14.8240556 C29.5348662,15.444046 29.7229355,16.5963868 28.9884625,17.1898348 C27.6965523,18.2340028 26.2682293,17.8293564 24.7200435,17.9177476 C23.444182,17.9908644 22.2179707,18.2017012 20.989001,18.5525116 C18.2928407,19.3219908 16.0959415,20.7267348 13.793222,22.2691988 C13.4910575,22.471522 13.182624,22.0856556 13.3268104,21.8034548 C14.6560836,19.2035516 17.2321304,17.06789 19.81244,15.7660604 C21.1896082,15.0712004 22.6966695,14.4947796 24.2202809,14.2303572 Z M48.1940849,13.0657186 L48.5544079,13.1393565 C52.475585,13.9578161 57.5701119,15.5927563 59.4269784,19.4387638 C59.4977336,19.9826029 59.422974,20.0991585 59.3621811,20.1753092 L59.3419403,20.2006496 C59.2918468,20.2656779 59.2518761,20.3553191 59.0158148,20.4293365 C58.9503078,20.4137511 58.8841487,20.3972441 58.8172889,20.3797477 C57.9661338,20.1570104 57.2927054,19.8501586 56.6407554,19.5317631 L55.9338762,19.1840077 C55.1137551,18.7824617 54.286393,18.39553 53.409579,18.1098824 C51.5383829,17.5004226 49.6136967,17.0710962 47.6591912,16.8418457 C47.2355672,16.7921997 46.8276439,16.6494314 46.5058217,16.4047497 C46.2003479,16.1724977 45.9669855,15.8509394 45.8605853,15.4235184 C45.7226908,14.8703673 45.7623187,14.4515865 46.0595335,13.9525632 C46.2830208,13.5778074 46.6027952,13.3180527 46.9699772,13.1688927 C47.3443033,13.0168305 47.7704699,12.9809819 48.1940849,13.0657186 Z" id="ðŸ–-Ink"></path>
                    </g>
                    <g id="facial-hair/*-None" transform="translate(30.843352, 84.635200)"></g>
                    <g id="accessories/*-None" transform="translate(11.785671, 60.346400)"></g>
                </g>
            </g>
        </g>
    </g>
</svg>