<?xml version="1.0" encoding="UTF-8"?>
<svg width="365px" height="577px" viewBox="0 0 365 577" version="1.1" xmlns="http://www.w3.org/2000/svg" xmlns:xlink="http://www.w3.org/1999/xlink">
    <!-- Generator: Sketch 62 (91390) - https://sketch.com -->
    <title>peep-sitting-6</title>
    <desc>Created with Sketch.</desc>
    <g id="Introduction" stroke="none" stroke-width="1" fill="none" fill-rule="evenodd">
        <g id="variations-sitting" transform="translate(-1293.000000, -955.000000)">
            <g id="a-person/sitting" transform="translate(1243.000000, 897.000000)">
                <g id="pose/sitting/crossed_legs" transform="translate(-20.311475, 159.504800)">
                    <path d="M430.359498,186.492174 C428.401646,185.930559 425.95559,185.786189 423.813635,185.683597 C416.242886,185.238853 408.523265,188.842812 401.100064,190.467106 C397.850576,191.269073 394.409832,192.213558 390.932533,192.917163 C387.845427,193.335466 384.653951,193.649325 381.445257,193.848957 C378.851653,193.926431 375.833684,193.72812 374.948134,196.450524 C369.734967,197.459791 365.120201,197.879416 360.150738,197.021658 C360.616162,195.440728 360.881323,193.788142 360.400006,192.085318 C360.642916,191.681822 360.973507,191.136072 361.150193,190.768273 L360.552851,190.768273 C351.830332,187.282242 342.398154,184.901461 333.629807,181.289569 C322.185208,177.171326 305.329829,169.214323 292.106184,163.780885 C293.002595,158.879184 293.334776,153.898951 292.954649,149.057271 L293.486032,148.628392 C293.660599,147.677031 293.931853,146.538466 294.423501,145.676213 C295.047333,144.023627 295.061902,141.767913 295.309581,139.900095 C295.826129,136.24669 296.171025,130.745827 295.230906,126.40812 C294.820316,120.525707 290.84872,115.991012 286.566399,112.353472 C281.308464,107.161708 276.043906,102.096335 270.911002,96.7041453 C242.502682,67.7891817 240.256093,31.3706851 195.784435,20.3023262 L195.762713,20.1304573 C195.412255,19.7401826 195.268945,19.4305542 194.869746,20.0474314 C193.401424,19.4855522 191.570457,19.5326179 190.340807,18.5828437 C188.157793,16.5947169 186.608942,14.2996057 185.596241,11.5758798 C184.81612,6.42721564 185.368165,-1.50810488 180.850351,-4.80243557 C175.832413,-7.80353143 149.171086,-9.9402588 146.871783,-3.37883204 C145.445314,-2.04116296 144.796317,-0.341775907 144.350496,1.73889575 C142.864955,4.54432545 141.92775,7.65515301 140.431348,10.5036821 C137.249939,16.8927112 135.187718,15.4767756 129.570847,16.9368683 C128.961055,15.5801614 127.110221,15.8535652 125.761367,16.0505534 C109.426775,18.3424917 89.5115739,24.5971985 82.5177704,39.9263202 L83.1129934,39.8504335 C71.0408546,62.4958831 78.8698775,91.2947692 81.0290508,115.292695 C82.7755149,136.624273 80.7781936,158.057386 76.0317739,177.954783 C70.2059001,199.063196 69.8716004,222.674549 81.4306342,241.78135 C82.6054512,243.968316 84.0358936,247.059048 86.5669819,245.687005 C87.9539811,246.734083 89.5121037,247.457255 91.6641248,248.087089 C92.2574935,248.516761 92.871789,249.23861 93.4929718,249.546917 C93.5221105,249.588694 94.5220956,249.013065 94.5745452,248.997729 C96.4645834,251.690783 200.225958,260.689047 210.993745,262.085945 C220.480492,263.227948 233.01567,266.144167 240.746681,259.31198 C247.135461,257.489376 253.82066,252.744736 258.926279,248.033677 C262.024512,292.894904 263.737864,384.770479 266.502326,385.410625 C267.712109,385.819937 269.345198,386.310425 270.714449,386.702286 C270.722661,389.925225 270.962922,393.587355 270.709151,396.755825 C270.284786,400.334665 269.209306,404.559996 268.72269,408.32181 C266.631331,408.1822 266.01624,410.276621 265.7728,411.699431 C263.967529,423.452357 264.021038,432.927888 264.150573,445.846085 C285.379397,458.330644 310.259558,465.196411 334.14662,473.264996 C336.434534,474.98157 341.392341,473.124857 344.034156,472.660811 C353.20594,470.857773 363.627773,465.524548 361.312575,455.746 C359.617501,448.383399 352.500255,444.146962 346.509086,439.815337 C339.954481,435.074134 333.04465,430.336633 327.01666,424.6914 C322.180705,420.142691 318.569103,416.614089 314.53605,411.481026 C312.747203,409.093898 310.839681,405.17185 308.43336,403.412176 C310.975573,400.401297 305.838961,403.223385 303.894354,403.397369 C302.750265,398.021045 301.333862,392.85916 299.635344,387.70177 L301.286446,387.776334 C306.707292,382.721802 309.746188,358.456289 310.123666,351.257625 C312.840976,304.328947 312.776341,250.239945 301.875841,210.718025 C310.155718,215.808782 319.235318,220.060819 327.469633,225.095521 C332.661874,228.132577 337.93014,232.349448 343.750451,233.821968 C344.129519,234.909237 345.517313,235.33177 346.274652,234.26724 C347.316491,234.395481 348.658723,233.963958 348.773423,233.489864 C349.838838,231.314532 351.382656,228.97024 351.196964,226.606381 C351.196699,226.606381 349.767316,223.295393 349.767316,223.295393 C352.969917,224.595515 356.451985,227.330611 359.870742,227.581275 C366.77607,250.603514 380.381431,237.706734 393.473422,228.746811 C401.374497,223.234577 410.017283,217.147509 418.332391,211.270385 C425.387121,205.667193 439.160162,200.350362 432.408474,189.25186" id="ðŸŽ¨-Background" fill="#FFFFFF"></path>
                    <path d="M133.583067,15.530625 C140.251987,13.9123277 141.391493,-2.05226436 145.41842,0.221177721 C147.746148,2.2426614 143.938438,6.05640743 143.264636,8.33804543 L142.969016,8.91757064 C141.602792,11.5750359 140.057746,14.2236381 137.365096,15.7558806 C135.634391,17.5753745 130.461074,15.7889287 131.221716,18.6868469 C133.878005,27.4205236 147.975161,33.468054 156.283445,36.1875127 C169.197145,41.0313006 190.087921,39.3923813 193.122015,23.1554732 C186.038754,21.8605181 180.801896,9.09788641 185.167445,3.78428727 C185.316237,8.94586534 186.728442,14.2726837 190.785815,17.7696971 L191.009703,17.9749408 C191.723627,18.6254977 192.648181,19.402239 193.569717,19.2576529 C194.468296,18.0079075 196.212768,18.7188374 196.726393,20.0378515 C237.056026,26.9996235 246.040495,70.435613 271.438463,96.0023847 C276.511702,101.336077 281.815279,106.442928 287.050549,111.614552 C292.39728,115.850785 296.180897,121.756605 296.444593,128.690881 C296.922477,132.547722 296.685785,136.407999 296.174543,140.270921 L296.139059,140.619918 C295.902149,143.013887 295.761463,145.58535 294.62043,147.7107 C294.423452,148.430883 294.503143,149.341159 293.879115,149.84957 C294.151813,154.25686 293.892353,158.743464 293.145743,163.137534 L295.091604,164.004719 C316.503435,173.527572 338.162447,182.503487 360.488881,189.642077 C362.396972,189.295998 362.241296,191.51154 361.317565,192.518581 C361.56114,193.703023 361.587615,194.935055 361.30168,196.106278 C365.39003,196.692947 369.542715,196.205158 373.578379,195.46118 C374.855029,192.653681 378.247073,192.803587 380.869738,192.7248 C384.12808,192.520696 387.380598,192.20317 390.615378,191.751866 C398.585569,189.97388 406.412263,187.634342 414.305675,185.578488 C419.587806,184.094498 425.284015,184.164824 430.582826,185.530899 C431.482993,186.538204 432.314325,187.614249 433.015926,188.756389 C437.859623,196.255919 433.08688,203.128329 426.325562,207.067658 C415.478011,214.745648 404.627548,222.413855 393.731546,230.021254 L392.939959,230.585112 C379.97634,239.850169 365.392232,251.57818 358.468799,229.027432 C356.141865,228.754852 354.10272,227.195248 351.93464,226.27519 C352.517896,228.98143 350.776336,231.714901 349.575671,234.034874 C349.058604,235.356268 347.645341,235.792238 346.340362,235.779812 C345.223095,236.874364 343.126234,236.443417 342.395509,235.145289 C336.469228,233.451378 331.57311,229.496186 326.327515,226.42351 C318.869096,221.900156 311.045049,218.043844 303.47914,213.71164 C316.047864,265.674029 312.973791,319.800404 309.629139,372.693955 L309.605432,373.171862 C309.190942,380.893919 307.417522,384.547205 301.003149,389.280644 C302.120416,392.68433 303.120131,396.101499 303.882362,399.602742 C304.151618,400.414932 305.390407,399.650596 305.400468,400.76577 C307.679216,400.233299 312.310579,400.803048 310.694778,403.95081 C315.270013,407.784649 318.367649,412.978482 322.378161,417.34955 C329.441566,425.803508 338.674639,432.095594 347.727679,438.29541 C368.539028,448.884273 369.731751,467.234406 345.382478,473.503226 L345.138375,473.560272 C341.785301,474.366047 337.747082,476.208125 334.496537,474.657264 C329.634043,473.722401 324.80835,471.829937 320.050963,470.388248 C300.895129,464.058884 282.159461,456.64713 264.005725,448.129191 C263.347543,447.820125 262.975033,447.112897 262.957824,446.405404 C263.160361,440.560921 261.571036,408.533914 267.64002,407.8444 C268.995302,401.301413 269.208165,394.546918 268.961943,387.869095 C266.993223,387.2507 265.002528,386.654249 262.963383,386.267718 C260.983544,385.645093 257.887496,385.505498 256.561867,383.903857 C256.085308,383.732007 255.735831,383.306348 255.807315,382.634811 C256.879573,372.598777 257.692372,362.536304 258.285424,352.460611 C260.316361,318.670425 259.626938,284.774749 257.313772,251.021577 C252.547119,255.137514 247.115401,258.741339 241.068392,260.658391 C237.730622,263.997831 232.37886,264.714049 227.822688,265.118557 C221.963655,265.480764 216.207876,264.312184 210.425622,263.585127 C200.607062,262.350922 190.856782,263.443493 181.109652,264.653887 L177.778656,265.068853 C153.915209,267.682293 128.125668,268.222695 105.884376,258.038341 C101.696743,258.409801 96.4980094,253.890677 93.8856697,250.870878 C92.7321312,251.582072 91.5987141,250.192731 90.679484,249.461708 C89.1624365,249.001679 87.4415276,248.340718 86.0648005,247.375715 C82.5721496,248.516798 80.6881515,243.989214 79.3614631,241.527266 C58.3046862,205.522066 81.7548503,169.682107 79.991051,131.501288 C81.0590735,101.567678 67.3852607,70.3819429 80.6007822,41.6726974 C83.2742805,29.523702 98.910459,21.1273799 110.679888,18.0396337 C114.472506,17.4143644 128.830446,12.2308424 130.411565,16.5897492 C131.159763,15.6086184 132.437207,15.5351196 133.583067,15.530625 Z M308.248475,405.353078 C306.275248,405.564638 304.350973,405.68602 302.400767,406.043026 C295.281588,407.209511 288.490795,409.961633 282.372916,413.785567 C280.391749,415.018958 278.623333,416.57339 276.349768,417.260693 C271.677476,418.954754 267.085627,414.748691 267.428037,410.201224 C266.125606,421.629128 266.348941,433.388122 267.02503,444.87394 C285.300077,453.128984 303.984483,460.489396 323.008388,466.883775 C327.292492,468.676211 332.365145,469.25033 336.299428,471.674271 C343.008456,471.251681 349.761673,468.899671 355.396632,465.221977 C364.743598,458.746147 358.538396,448.474944 350.789964,443.955773 C333.732936,436.269824 319.214086,420.715985 308.248475,405.353078 Z M270.877214,388.452697 C270.520364,391.840455 273.098177,397.117427 272.734429,403.869354 C272.454785,405.977758 271.79627,408.186347 272.024973,410.302967 C273.074564,418.15402 281.588831,408.176805 285.107191,407.08351 C290.101771,404.340333 295.529612,402.472852 301.107888,401.451648 C301.073928,399.640886 299.873372,398.918118 299.715774,397.129089 C299.489459,394.492988 299.500867,391.960519 299.38174,389.298974 C292.1264,392.593438 278.57298,390.26399 270.877214,388.452697 Z M309.968782,404.840946 C309.842303,404.925342 309.708781,404.996797 309.571739,405.06097 C310.580056,406.280274 311.453497,407.633319 312.649503,408.681941 L312.140321,407.892542 C311.459196,406.839116 310.762436,405.790072 309.968782,404.840946 Z M84.6324299,123.936128 C84.2668991,125.419612 83.601092,126.814574 82.6037076,128.001044 C87.7542961,169.699271 61.2549067,204.461006 85.6186733,243.230844 C85.9266423,243.374066 86.2075545,243.552168 86.4781216,243.775193 C86.6213629,243.680064 86.7646043,243.57965 86.9051931,243.479236 C98.3247139,223.302368 114.580488,205.897718 127.532692,186.589431 C130.018725,181.742871 134.111185,176.864601 135.678086,171.264936 C109.649271,161.002627 99.2520692,146.028789 84.6324299,123.936128 Z M427.17816,187.184523 C426.074512,187.578831 424.846471,187.253329 423.668717,187.232158 C419.487292,187.142975 415.400881,188.232482 411.401545,189.333368 C399.769566,192.51006 388.076185,195.322348 376.158898,197.203645 C375.918054,197.452403 375.687796,197.706454 375.478712,197.973736 C375.68515,198.323056 375.716909,198.759706 375.41731,199.193444 C373.619448,202.622599 375.072717,206.82105 373.766601,210.491553 C371.874254,217.922534 366.840611,226.304088 359.32892,228.941451 C361.834493,231.325028 363.629444,234.392955 366.210181,236.693171 C372.552587,241.033997 379.537597,234.564439 384.715482,231.095589 C394.573684,224.141747 404.457822,217.236597 414.368956,210.359235 C418.809223,206.684763 428.631695,202.053366 430.756417,197.185121 C432.117583,193.452694 429.640064,189.816594 427.17816,187.184523 Z M359.239071,196.658979 C354.99576,205.300219 352.546092,214.487333 350.095628,223.765073 C352.644323,224.464986 354.992043,225.561753 357.497463,226.298921 C361.026078,227.091574 366.00798,220.282684 367.777199,217.579737 C369.601108,214.557086 370.878111,211.23587 371.470417,207.756123 C371.970333,204.348243 371.437762,200.809047 372.922376,197.652438 C368.325434,198.121424 363.662119,198.219713 359.239071,196.658979 Z M106.968897,178.829734 C110.953722,177.715097 101.888824,186.716202 101.366707,187.676868 C95.4725761,194.625702 90.0723108,201.964825 84.7133491,209.326686 L83.0887744,211.56119 C82.9327164,211.787592 81.856866,213.375201 82.6348151,213.173328 C82.7060249,213.154778 82.7392384,213.248062 82.6826426,213.287018 C77.7266545,214.16235 104.579119,179.441645 106.968897,178.829734 Z M204.113981,174.58082 C204.436344,173.611477 202.906444,173.196799 202.584082,174.16086 L201.568291,177.215297 C197.734997,188.756459 193.925222,200.313413 189.343451,211.584888 C188.960316,212.530459 190.492857,212.942496 190.87335,212.007489 C195.856753,199.741473 199.928557,187.137375 204.113981,174.58082 Z M248.67293,170.540209 C247.275636,177.16132 243.744838,183.130928 241.604456,189.459931 C245.624386,188.575163 248.721076,184.834758 251.06436,181.617614 L251.134686,181.510509 C252.240128,179.811495 253.525077,177.157274 256.035571,178.356138 C259.846516,180.566606 257.116476,188.406284 257.045315,192.122149 C256.562003,197.215698 254.90361,201.980459 253.773236,206.928349 C256.6784,204.945869 257.513284,201.037112 258.929095,197.990958 L264.378593,184.936877 L264.378593,184.936877 C268.384767,179.455963 266.524266,195.869152 266.317397,197.418352 C265.991485,200.820736 264.555834,204.243701 265.119301,207.669834 C267.378462,205.242198 268.80168,202.191822 269.997395,199.096587 C271.656317,194.791757 273.170272,190.431513 274.74851,186.098184 C275.294253,184.709946 277.363211,185.197056 277.063224,186.726202 C276.961429,191.644169 276.880628,196.561967 276.801995,201.479866 L276.743132,205.168314 C276.73255,205.867578 276.386005,207.909958 277.59574,207.345533 C283.948372,200.68748 285.577137,187.374539 284.750718,178.430023 C272.262904,178.731103 259.522191,177.113823 248.67293,170.540209 Z M359.798279,195.378647 C359.746983,195.541151 359.687992,195.703655 359.629002,195.866158 C359.664909,195.873545 359.703381,195.880931 359.739288,195.89078 C359.762371,195.718428 359.78289,195.548538 359.798279,195.378647 Z M82.6461418,195.378647 C81.2609731,194.356952 104.543144,164.507348 103.034796,173.124169 C96.5394175,180.798173 88.9648312,187.522985 82.6461418,195.378647 Z M288.259852,129.418833 C266.486254,124.311585 247.312062,143.391606 225.446196,140.509007 C225.699402,147.342745 226.050974,154.22278 225.912837,161.059693 C254.9504,163.451277 251.646525,175.792006 285.073433,174.549652 C289.393049,171.660704 291.167082,153.95505 290.802253,148.609967 C291.081443,142.290261 285.635259,139.45343 280.210287,138.344942 C278.249862,139.526712 274.732817,136.000714 277.643759,134.760212 C281.474991,133.609395 285.059646,131.799834 288.259852,129.418833 Z M127.629361,17.4125138 C119.883203,18.1749023 112.210892,20.2832263 105.0915,23.5409448 C78.774257,31.1275826 74.9795239,61.8901983 78.1440513,85.2019584 C79.4552815,102.929738 84.5181017,120.267869 95.1625172,134.683775 C123.500865,177.839564 170.437295,171.006069 214.896045,165.297929 C216.49869,164.184461 219.214318,164.975115 220.758732,163.504229 C220.597277,163.448753 220.451702,163.372145 220.327302,163.277044 C221.069468,162.698781 221.643561,161.684376 221.81481,160.606307 L222.135074,160.638007 L222.135074,160.638007 C222.44925,153.945049 222.198068,147.383383 222.299441,140.742994 C207.690896,136.742436 192.023892,134.697776 177.21869,130.713068 C175.535847,131.885181 173.59547,130.536339 171.951536,129.899431 C167.690088,128.089352 163.390753,126.369985 159.059773,124.733018 L157.976373,124.325488 C155.153108,123.268816 152.331934,122.185011 149.535159,121.055517 L148.487555,120.629779 C146.885441,119.975435 142.839525,117.553544 141.091836,119.065641 L141.232875,119.369174 C142.269165,121.627294 145.839236,129.982062 141.450479,128.329745 C137.886812,125.830717 136.039073,108.404881 132.509286,108.250872 C131.295459,111.495117 130.425717,114.862466 130.226941,118.330462 C130.155477,119.110814 129.12825,119.768856 128.511013,119.039753 C124.324552,113.534229 130.648313,107.537354 130.81718,101.726189 C131.216054,94.969038 128.222246,88.6467078 126.730768,82.1790852 L126.639034,81.7330367 C125.764533,77.5371398 124.403619,72.4498453 124.764717,68.6867099 L125.633227,71.9533482 C126.504664,75.221943 127.397169,78.4911693 128.421287,81.7138855 C130.962755,89.7630813 135.551531,98.0558399 133.001593,106.668506 C138.117085,106.83863 138.982063,114.901827 140.903648,118.584327 C144.012592,114.555503 165.890074,124.215594 170.882224,125.765203 L171.845055,124.674296 C187.480157,106.970125 198.767035,94.98856 223.000052,108.992919 C218.813855,95.5068839 218.409422,81.182908 217.695313,67.1788395 C217.940143,64.5147063 216.398111,57.4870478 218.572731,56.0328035 C218.949901,56.0877504 219.317014,56.2016068 219.663482,56.3532392 L219.663062,57.7336266 C219.673476,60.4075782 219.798391,64.8415901 220.921246,65.8487542 L221.436419,71.1434657 C222.785862,84.911008 224.31607,98.6681451 228.432896,111.935485 C238.315295,117.452896 247.332715,124.361415 255.815745,131.814648 L256.782046,131.462487 C267.263788,127.630135 279.875583,122.717757 290.592196,127.500786 C290.413006,124.800462 289.369369,122.216107 287.913623,119.932376 C285.485703,119.330866 283.896822,116.773985 282.159455,115.071687 C276.650912,109.162251 270.996,103.388069 265.614239,97.3594933 C242.650242,72.6883252 232.880333,32.1768575 196.818326,22.6076396 C194.434343,42.5433341 168.895528,45.7244439 153.505645,38.9017796 L152.921543,38.6783388 C143.354607,34.9908555 132.54315,29.4254696 129.183303,19.2862567 L129.043676,18.9927545 C128.6982,18.2776996 128.286219,17.5487844 127.629361,17.4125138 Z M133.30544,130.860745 C133.333471,130.829917 133.3877,130.871284 133.36386,130.905538 C128.879912,136.524701 125.231399,144.1888 129.687578,150.901178 C130.511224,152.412287 128.586239,153.86411 127.353913,152.712137 C121.168967,145.697537 128.031116,136.19007 133.30544,130.860745 Z M289.303061,132.130252 C286.837373,133.88825 284.193695,135.34846 281.392967,136.500432 C281.401866,136.822514 281.244554,137.167061 281.102424,137.41992 C284.789177,137.712484 288.62853,138.66358 291.216455,141.348641 C291.342095,140.366461 291.465118,139.381668 291.559348,138.396876 C291.797541,135.86306 291.363035,133.595686 289.303061,132.130252 Z M119.757384,107.290349 L119.785983,107.154957 C119.805976,107.001359 120.039579,106.990748 120.032787,107.154957 C119.94698,109.16367 118.483538,110.592476 117.243967,112.022874 C115.404603,114.144862 113.564975,116.266318 111.724822,118.38751 C108.648254,122.084208 104.115873,125.800538 105.134995,131.156042 C105.154199,133.058111 102.767129,133.465849 101.79878,132.067019 C97.9472162,124.731453 110.071183,118.490174 114.157928,113.75755 C116.076942,111.709255 119.101035,110.202069 119.757384,107.290349 L119.757384,107.290349 Z M177.484377,129.313522 C177.541829,129.404793 177.582866,129.50367 177.604752,129.605082 C178.250398,129.673536 178.893309,129.74706 179.53622,129.825654 L177.484377,129.313522 L177.484377,129.313522 Z M81.0477792,112.157074 C81.1628402,112.923543 81.2705767,113.69178 81.3736855,114.460901 L81.4753025,115.229871 L81.4911369,115.162784 C81.5437479,114.963163 81.6430548,114.789751 81.7728486,114.651159 L81.8172201,114.606263 C81.5499282,113.793884 81.2935268,112.977575 81.0477792,112.157074 Z M258.05336,104.222968 C259.598359,104.058409 252.598047,109.085003 252.211341,109.707045 C251.646918,110.197076 250.987381,109.326373 251.589589,108.901957 C253.764418,107.369373 255.907977,105.796431 258.05336,104.222968 Z M244.434257,89.4361032 C245.509253,88.9964445 246.239264,90.7842497 245.219688,91.2822492 C241.505729,93.0968596 237.578574,94.3803581 234.156567,96.7676023 C234.006481,96.8721953 233.818211,96.6283201 233.960607,96.5161059 L234.371797,96.1913726 C237.523717,93.6914314 240.672258,90.974383 244.434257,89.4361032 Z M82.3301807,66.833325 C83.3681376,71.7149178 88.9841642,73.3182016 93.3426305,74.618578 L94.7044347,75.136545 C98.5532453,76.6076326 102.540482,78.2625055 105.309429,81.3710228 C106.394746,84.8773095 98.6506832,78.7694729 97.5695994,78.4601885 C92.2813904,75.1853338 82.7262606,74.6289406 82.3301807,66.833325 Z M196.976881,21.2535095 C197.006054,21.5017371 197.020641,21.7551906 197.027934,22.008644 C197.3537,22.008644 197.677036,22.0112569 198.002802,22.0217086 C197.623552,21.7996102 197.275905,21.5461568 196.976881,21.2535095 Z" id="ðŸ–-Ink" fill="#000000"></path>
                </g>
                <g id="Head" stroke-width="1" transform="translate(86.511840, 45.072000)">
                    <g id="head/Gray-Short">
                        <path d="M72.0700547,127.571775 C66.5042089,127.60384 61.773892,126.026821 58.1644676,123.417903 C53.6603352,121.814091 48.2273917,119.34039 44.9274038,116.743491 C43.6402581,117.071515 42.1000966,115.706084 41.1151154,114.985433 C34.9903279,110.418387 30.1827772,103.733458 28.7582156,97.0372616 C26.5590596,99.8091896 23.4295878,99.9243736 20.4317645,98.5466728 C14.1477451,94.987988 14.3827062,87.494768 16.6450535,81.8963248 C11.8889084,71.240052 8.59268191,43.1086136 15.852906,31.7552272 C17.3379005,30.0565136 19.5172466,29.0403904 21.0862454,27.2983576 C22.4824712,25.7769272 23.8104906,24.2206912 25.4349072,23.016768 C30.3914087,19.2497504 38.9282466,17.2440464 44.2734245,16.3007896 C66.5864579,11.4835944 83.7303461,20.1419256 103.942019,27.4453424 C102.778749,30.3499824 101.169628,32.998964 99.3255471,35.4689096 C104.343234,37.3391472 102.038508,41.5441144 98.1457262,43.6757696 L95.828212,42.5509728 C99.4408962,55.4580912 107.75506,87.554864 104.167703,97.8620792 C101.307044,113.942767 88.7525465,127.687724 72.0700547,127.571775" id="ðŸŽ¨-Background" fill="#FFFFFF"></path>
                        <path d="M75.2940938,128.955786 C68.0672417,129.696552 59.48173,127.990499 54.6639466,122.128262 C54.5198784,121.952801 54.4568051,121.754133 54.4530441,121.562281 C54.4488618,121.348944 54.5205644,121.142842 54.644473,120.982487 C54.774699,120.813955 54.9600934,120.69646 55.1726282,120.658345 C55.3515748,120.626252 55.5555896,120.646899 55.765925,120.76472 L56.2088385,121.010992 C59.4991625,122.825702 62.9163088,124.373281 66.6451612,125.035612 C70.484496,125.717457 74.3938654,125.641198 78.1990061,124.775215 C85.1301576,123.198279 90.7395901,119.175508 94.868428,113.871181 C99.475932,107.951912 102.242667,100.437892 102.947917,92.9234407 C103.802506,83.8167196 101.820099,74.765484 99.7690803,65.9478748 C97.6139396,56.6828299 95.2582646,47.4650301 92.5218053,38.3542217 C92.4393292,38.0799634 92.4171668,37.8232513 92.4409804,37.5868232 C91.6338691,37.2710711 90.7748358,37.3587275 89.919884,37.6469703 C88.3577423,38.1736389 86.8015319,39.3612854 85.5036726,40.3416424 C85.0336191,40.6967042 84.5963171,41.0267364 84.2033617,41.2952589 C82.5940201,42.3949079 80.8346571,43.1861379 78.867637,43.3105909 C76.8216168,43.4396995 74.8157761,42.8047472 72.9576168,42.0101286 C72.0136161,41.606404 71.0847671,41.1876485 70.1596374,40.7705356 C67.5254219,39.5828479 64.9222993,38.4068705 62.077599,37.6426032 C58.2659078,36.6182665 54.3305181,36.113735 50.3829636,36.1498765 C43.3377546,36.2142192 36.2709346,38.0250641 31.9529844,43.975036 C30.2039117,46.3852916 29.0635565,49.1554963 29.9529098,52.1301363 C30.4367156,53.7483085 31.3497652,55.2173035 32.34628,56.5683911 L32.688186,57.0285021 C33.2348303,57.7701445 33.709633,58.5088035 33.8528004,59.295229 C33.972734,59.9540306 33.8791857,60.6509915 33.4080529,61.4148709 C33.1116054,61.8957431 32.7342172,62.3269556 32.3547496,62.7567643 C32.0810385,63.0667866 31.806543,63.3762366 31.5703779,63.7094498 C31.0944461,64.3811981 30.6730541,65.1047019 30.3425611,65.8592738 C29.6953877,67.3363407 29.4208681,68.9252534 29.3634504,70.5277554 C29.2939343,72.4610656 29.5661687,74.3523348 29.8361699,76.2463117 C30.0276187,77.5892664 30.2186546,78.9335682 30.2957949,80.294153 C30.3092561,80.5315778 30.2365687,80.7084677 30.1347435,80.8393832 C30.0101423,80.9995818 29.828323,81.1005544 29.6214044,81.1285262 C29.5585867,81.1370181 29.4935409,81.1383699 29.4282139,81.1325961 C29.4603098,81.2634766 29.4886473,81.3949635 29.513245,81.5268973 C29.3824541,81.3590009 29.2433074,81.1960733 29.0964408,81.0385829 C29.0870637,81.033867 29.077761,81.0289803 29.0685398,81.0239228 C28.9171092,80.9408688 28.7888478,80.8142787 28.7080055,80.6512972 C28.5000187,80.4582984 28.2798121,80.275223 28.0487963,80.1031104 C26.8466505,79.2074812 25.4428937,78.6765733 24.0347348,78.658971 C22.6772325,78.6420018 21.3164036,79.1035773 20.2700812,80.0784213 C18.1904387,82.0158128 17.5812687,85.1785004 17.5595305,87.8940239 C17.5374994,90.6659781 18.1799393,93.9926882 20.6002631,95.7137488 C21.5711449,96.4040677 22.7568867,96.8188551 23.9514105,96.8308571 C24.9416617,96.8407822 25.8891574,96.4909473 26.8220773,96.1576702 C27.109772,96.0548939 27.3960998,95.9526809 27.6817206,95.8598186 C28.0062477,95.754371 28.3019926,95.7610743 28.5597757,95.8381727 C28.8503359,95.9250743 29.0969338,96.1045301 29.2811643,96.3438839 C29.464682,96.5823116 29.5849688,96.8807982 29.6222505,97.1933813 C29.6583453,97.4960133 29.6168055,97.8102652 29.4884834,98.0935661 C29.4562703,98.164929 29.4222894,98.2341982 29.386923,98.3018424 L29.9192787,99.1758829 C31.9576067,102.514055 34.031598,105.791303 36.7512608,108.660517 C38.3123081,110.307386 39.9669817,111.861528 41.7819977,113.221949 L42.0437782,113.416016 C42.2004218,113.530841 42.3741671,113.672405 42.5594709,113.823775 C43.0888545,114.256214 43.723355,114.836174 44.3157279,114.859009 C44.4915187,114.865843 44.6449617,114.843886 44.7845482,114.825591 C45.1218666,114.781383 45.4048625,114.768443 45.6829289,114.881716 C45.9065905,114.972826 46.1386991,115.142962 46.3770574,115.494342 C46.5382929,115.732165 46.621044,116.030444 46.621044,116.333083 C46.621044,116.637109 46.5372987,116.941262 46.3882513,117.181658 C46.0799211,117.679306 45.706845,117.987496 45.3021123,118.162517 C44.8508667,118.357652 44.3521785,118.387456 43.8338195,118.290916 C42.5568658,118.053094 41.1432319,116.996895 40.2436863,116.307606 L40.0696849,116.174531 C38.0764503,114.65631 36.1874015,112.976457 34.5268019,111.097764 C31.6986894,107.898538 29.1587829,104.128512 27.8541612,100.009243 C26.9346267,100.612419 25.7985514,100.898732 24.6107724,100.943827 C22.8802618,101.009526 21.0486842,100.564943 19.6990346,99.9258028 C16.7245754,98.5173033 14.9179407,95.8532645 14.0712604,92.7896691 C13.0880233,89.2319619 13.4075892,85.1417352 14.6523219,81.9457762 C14.6884009,81.8528715 14.726092,81.7603207 14.764775,81.6663317 C10.9327227,71.9715562 9.75443681,61.2061815 10.0826669,50.8600748 C10.2362027,46.0172577 10.5664553,40.9363169 11.7106104,36.2131892 C12.223429,34.0962613 13.1144139,32.0802662 14.5371017,30.4136631 C15.3482177,29.4632909 16.3434436,28.7234208 17.3432305,27.9855797 C18.2091618,27.3465238 19.078409,26.7088709 19.8098409,25.9109564 L20.1557018,25.5320826 C20.2306749,25.4496838 20.3054493,25.3673865 20.3800979,25.2852277 C21.6431689,23.8950824 22.8728662,22.5461539 24.4056331,21.406074 C26.1832253,20.0842246 28.1448288,19.0495847 30.1830932,18.1903011 C34.5741167,16.3398196 39.3001368,15.2302581 43.9753452,14.3718487 C54.08997,12.5150985 64.4729437,12.4234792 74.4635579,15.0334408 C79.1085231,16.2467439 83.6164663,17.9075257 88.1167159,19.5663226 C88.5345529,19.7203378 88.9523253,19.8743292 89.370153,20.0279386 C92.8674027,21.3137899 96.3665226,22.5941556 99.865677,23.8745341 C101.491876,24.4695779 103.118082,25.0646244 104.74417,25.6602468 C105.096973,25.7895252 105.442387,26.0680015 105.639107,26.4139835 C105.831037,26.7515396 105.88823,27.1452016 105.733252,27.5372015 C104.735511,30.0615258 103.476607,32.4298217 101.944231,34.6414245 C102.476739,35.0031255 102.929898,35.4841096 103.272682,36.0470965 C103.706229,36.7591534 103.963065,37.602127 103.980516,38.4964115 C104.038921,41.4914746 101.309437,43.5217918 99.044927,44.9902346 C98.8338563,45.1272414 98.6249006,45.2081068 98.423,45.2452115 C100.617191,53.6229036 102.717649,62.0289601 104.502393,70.5016163 L104.625147,71.0889188 C106.463722,79.9560875 107.64995,89.0051095 105.911124,97.9900421 C104.413984,105.727073 100.935766,113.194148 95.500727,118.957934 C90.1743714,124.606813 83.0271626,128.162984 75.2940938,128.955786 Z M27.7076791,77.9464551 C26.7613923,74.9477984 26.2599231,71.6851262 26.6219839,68.6454255 C26.8498769,66.7346935 27.4251773,64.8952309 28.3618903,63.2110945 C28.898406,62.2465421 29.5522824,61.3536005 30.2658988,60.5125843 L30.5120603,60.2301241 C30.6366854,60.085853 30.760647,59.953253 30.7990625,59.7870359 C30.821387,59.6904417 30.7986608,59.584805 30.7398695,59.4585868 C30.6095963,59.1790449 30.3674938,58.9096309 30.1408489,58.6466561 C29.9968037,58.4795213 29.856114,58.3154877 29.7379927,58.1558944 C27.664038,55.3524868 26.1173777,52.0149333 26.6201304,48.4599058 C27.1105757,44.99145 29.3869788,41.7583751 31.8104217,39.3218687 C37.1467066,33.9567599 45.4198844,32.7238916 52.6674659,33.0198141 C56.8864525,33.1919364 61.098574,33.9344336 65.1163189,35.2314339 C67.0975361,35.871156 69.0346998,36.6502139 70.9171967,37.5431311 L71.3340128,37.7429662 C71.558942,37.851786 71.7836459,37.9618184 72.0085031,38.071928 C73.4799668,38.7924845 74.9569997,39.520079 76.554335,39.9118315 C79.6737684,40.6767117 81.789834,39.0657291 84.0139782,37.44105 C84.7762234,36.8842499 85.5501155,36.3197475 86.3726955,35.8243516 L86.5419913,35.7243948 C88.0259402,34.8653869 89.8008675,34.2873233 91.5059341,34.3132489 C92.9869898,34.3357684 94.4159259,34.8079861 95.5792853,35.9239155 C95.8180312,36.1532106 95.9555089,36.4033605 96.0200226,36.6523212 C96.1487283,36.8325111 96.2526356,37.0473813 96.3203127,37.3012261 C96.7370468,38.8626605 97.1519124,40.4252145 97.5653932,41.9882438 L97.9034925,41.7706983 C98.9050097,41.1211239 99.9938913,40.3787818 100.485631,39.2920493 C100.674883,38.8737738 100.648078,38.176928 100.409555,37.6645916 C100.326214,37.4855788 100.21599,37.3264179 100.06365,37.2270708 C99.9528169,37.1547914 99.8192215,37.1208655 99.663981,37.1333513 C99.286527,37.1818787 98.9399777,37.1267497 98.6460865,37.002725 C98.3072011,36.8597124 98.0369249,36.6243668 97.8615557,36.3407622 C97.6819887,36.0503688 97.6001473,35.7089428 97.6440394,35.3548605 C97.6817783,35.0504168 97.8129817,34.7324802 98.0725589,34.4337404 C99.7811829,32.4671807 101.220071,30.2978743 102.313602,27.9432281 L95.0800661,25.270825 C92.5009286,24.3184435 89.9213524,23.3672823 87.3405491,22.4197845 L85.9276271,21.9013582 C81.234832,20.1825753 76.5150331,18.5028568 71.6347534,17.3962791 C61.9359892,15.1972942 51.8222751,15.7141174 42.1503345,17.7840281 L41.5660631,17.9101058 C37.5074286,18.7938308 33.3942221,19.8630649 29.6689099,21.7216346 C27.8403912,22.6338515 26.1022773,23.7431116 24.6096356,25.1445874 C23.950461,25.7634819 23.354476,26.4411042 22.7583051,27.1178068 C21.9228181,28.0661528 21.0863379,29.0119478 20.0929868,29.8108153 L19.1708898,30.5481117 C17.7991414,31.6518376 16.5618798,32.7272055 15.7878702,34.438956 C14.9785414,36.2284933 14.5922488,38.2055385 14.2770532,40.1317251 C13.4821705,44.9840753 13.1684171,49.9141273 13.1983372,54.8291748 C13.2489467,63.0819048 14.504555,71.166524 16.0907997,79.2226592 C17.3634656,77.4039228 19.1512121,75.9939656 21.44578,75.6933126 C22.9417222,75.497369 24.4248245,75.7758495 25.710864,76.4363631 C26.4541621,76.8181232 27.1315919,77.3274706 27.7076791,77.9464551 L27.7076791,77.9464551 Z M25.3036325,87.7460029 C23.6280487,87.0977806 21.8687742,86.8855118 20.096041,87.1954745 C19.9103144,87.2277759 19.7331897,87.1891686 19.5843125,87.1027894 C19.4333856,87.015221 19.3144381,86.876709 19.2498569,86.7237713 C19.1752054,86.5469857 19.1714009,86.3556381 19.2372836,86.1856791 C19.2944369,86.0382395 19.4033598,85.8950455 19.603672,85.7994056 C21.5232299,84.8847135 23.6567891,84.4810533 25.7744557,84.7682622 L25.9837435,84.7979353 C27.0663771,84.9582726 28.5887759,85.2956991 29.7304437,85.9598985 C30.6273966,86.4817276 31.2839116,87.2010771 31.4472265,88.1408237 C31.5324098,88.6304811 31.4106781,89.141714 31.1280047,89.512302 C30.8547246,89.8705753 30.4369649,90.109415 29.8961901,90.094068 C28.9423274,90.0669685 28.377552,89.6644389 27.6980441,89.1430865 C27.6156076,89.0798371 27.5310745,89.0149632 27.4431992,88.9492889 C26.7866072,88.4587358 26.0691333,88.0420853 25.3036325,87.7460029 Z" id="ðŸ–-Ink" fill="#000000"></path>
                    </g>
                    <g id="face/Smile-Big" transform="translate(39.870674, 46.574400)" fill="#000000">
                        <path d="M23.4075242,46.6937138 C27.706053,46.1727616 31.8727159,47.4868684 36.07491,48.1492861 C38.2936105,48.498833 40.5150633,48.7598081 42.7602871,48.8568629 C43.2119341,48.8765732 43.6638314,48.8880501 44.1157287,48.8972816 C44.1577656,48.5000805 44.3804614,48.1353142 44.8628855,47.9167538 C45.8517548,47.4691541 46.6432005,47.2673101 47.728905,47.3104732 C48.7227787,47.3496444 49.7201555,47.4516892 50.6987658,47.6305794 C52.475828,47.955925 54.2608972,48.69419 55.5607899,49.9768601 C58.5691846,52.9448903 58.111282,57.7123012 55.7867385,60.9450489 C50.9841691,67.6250978 42.2188089,67.9351288 34.71163,67.8479815 L34.0188526,67.8389327 C27.1833435,67.7413789 17.4037464,68.7590819 14.2982664,60.993202 C13.1562624,58.1374461 13.3149019,54.8273539 14.7131311,52.0883631 C16.3808472,48.8214341 19.8914333,47.1198566 23.4075242,46.6937138 Z M44.7592944,57.8160924 L44.6979905,57.8185874 C41.54647,57.9398435 38.39545,58.0251719 35.242178,58.08081 C35.3365109,58.8894335 35.4328456,59.6983066 35.5429424,60.5051836 C35.6292683,61.1401565 35.7218497,61.7743808 35.8181844,62.4078566 C35.8589702,62.6760672 36.0086017,63.0924796 35.9663146,63.3581951 L35.9510512,63.4632339 L35.9510512,63.4632339 C36.1129435,63.5363368 36.2598226,63.6541 36.3691687,63.8250062 C36.4072022,63.8841373 36.4347264,63.9437673 36.4622505,64.0031479 C38.9104027,64.0223592 41.5449687,63.9749546 44.0406627,63.5305984 L44.0456671,63.4764573 L44.0456671,63.4764573 C44.0909569,63.1580976 44.2235735,62.9437787 44.3997283,62.7968243 C44.5751325,61.7816162 44.5591184,60.6997922 44.626928,59.6925681 C44.6692152,59.0668267 44.7150055,58.4415843 44.7592944,57.8160924 Z M32.8338108,58.1237237 C30.5622584,58.1623127 28.2897174,58.1920307 26.0186482,58.1643388 L24.9876633,58.148424 L24.9876633,58.148424 C25.2053547,59.3148279 25.442313,60.4772398 25.6392361,61.6513782 C25.8446667,62.8751667 24.7659684,63.653102 23.8323977,63.6216652 C23.9372399,63.6388806 24.0418319,63.6565949 24.146674,63.6713153 C27.0634882,64.0832368 30.0921506,63.9739566 33.0522528,63.9707131 C32.8929878,63.0425301 32.9575139,61.995231 32.9336866,61.2204914 L32.9291446,61.1004862 C32.8838548,60.1077331 32.8520769,59.1157284 32.8338108,58.1237237 Z M17.4042468,57.9096542 C17.4830661,58.5161843 17.6364509,59.1097404 17.8659027,59.6623788 C18.835505,61.9971827 21.0584592,63.0867411 23.4105269,63.5455683 C23.0024181,63.4048513 22.6783833,63.0667813 22.5965613,62.487696 C22.3926321,61.0478421 22.3193176,59.5840364 22.3138128,58.1219772 C20.6746218,58.1067578 19.0244211,58.071828 17.4042468,57.9096542 Z M53.3075591,57.4111569 C52.1405332,57.6861039 50.784341,57.5601073 49.6393344,57.6120029 C48.5666414,57.6606551 47.493448,57.7030698 46.420755,57.7464824 C46.4712994,58.4777616 46.5205928,59.2087912 46.5741398,59.9395713 C46.6432005,60.8841713 46.6497063,61.8824135 46.8308655,62.8230216 C48.9897634,62.0872515 50.9242139,60.9073747 52.3754897,59.0206696 C52.7370576,58.550615 53.0608422,57.9989746 53.3075591,57.4111569 Z M22.9143407,50.5245086 C20.9716329,50.9838347 19.1330166,51.9541331 18.1448979,53.7293125 C17.5583823,54.7826937 17.3004055,56.0311826 17.3499491,57.261458 C18.9918925,57.0705919 20.6621108,56.9982374 22.324322,56.9383579 C22.3298269,56.6394591 22.3368886,56.3408929 22.345878,56.0429552 L22.3714866,55.2793342 C22.4167951,53.8229022 22.4395612,51.9939839 22.9143407,50.5245086 Z M32.9696803,50.7021513 L32.1144749,50.6062324 C29.7390702,50.3359707 27.3649407,50.052262 24.9894149,50.2148814 C24.6456126,50.2385837 24.2965558,50.2760084 23.9467483,50.3271555 C24.3666174,51.8401124 24.3313364,53.6170383 24.5067406,55.1147758 C24.5745502,55.693861 24.6601254,56.2682058 24.7549588,56.8403051 L25.167071,56.8210937 L25.167071,56.8210937 C27.7160618,56.6831213 30.2675548,56.5982919 32.8185474,56.4972451 C32.8183597,56.0189571 32.820987,55.5403885 32.8286461,55.0616444 L32.8380646,54.5828457 C32.8670901,53.3600552 32.7880206,51.9825759 32.9696803,50.7021513 Z M44.8981665,50.5080417 C42.4102294,50.9089853 39.838969,50.9943136 37.3950706,50.9973076 C36.4189625,50.9985551 35.4433548,50.9386755 34.4682476,50.8523492 C34.5318035,51.3708064 34.5648325,51.8952515 34.6126246,52.4064732 C34.7089092,53.4395952 34.818966,54.4711204 34.9385671,55.5016876 L35.0452549,56.4034338 L35.0452549,56.4034338 C38.1807613,56.2614694 41.3160175,56.108028 44.4507732,55.9490977 L44.8931621,55.9253953 L44.8931621,55.9253953 L45.01716,54.1923903 C45.1015675,53.0367888 45.1944269,51.8814459 45.3255422,50.7310931 L45.2272057,50.6956643 L45.2272057,50.6956643 C45.1116041,50.6482597 45.0020078,50.5828912 44.8981665,50.5080417 Z M45.9786163,50.9381765 C46.1157368,52.57214 46.1915535,54.2128399 46.2923921,55.8495479 L48.3589496,55.7393067 C48.7033449,55.7205573 49.047731,55.7014291 49.3921171,55.6816356 C50.7312943,55.6045407 52.4520571,55.1996052 53.7759709,55.5773454 C53.8770598,54.3755127 53.5330073,53.2046179 52.4468024,52.3972418 C50.5398761,50.9790942 48.1117415,51.4840785 45.9786163,50.9381765 Z M38.9180156,36.3314625 C41.9953295,34.5716513 49.7164485,32.7730281 50.2054285,38.3031121 C50.4303066,40.847918 48.5356773,42.9564837 46.3232872,43.8973696 L46.2401771,43.9321041 C44.1651468,44.7839649 40.4872651,45.7460017 38.6915803,43.8988009 C37.1970569,42.3613449 39.1793064,39.6046913 41.0364273,40.8642033 C41.9908211,41.5112421 43.9996948,41.0344882 45.0646465,40.7266123 L45.131321,40.7072025 C46.2805493,40.3699137 47.8126865,39.2904393 47.3374983,37.8774321 C46.9169755,36.6274353 45.1275596,36.3990705 44.0069179,36.3585057 C42.3341049,36.2986601 40.7061777,36.6865297 39.048661,36.8127313 C38.7861164,36.8327633 38.7051213,36.4531569 38.9180156,36.3314625 Z M51.6653471,27.4390824 C55.8419883,27.2437704 58.4401018,31.7975448 57.479695,35.5287552 C57.3136926,36.1725336 56.5925098,36.8045432 55.896403,36.7321776 L55.7210081,36.7160599 C55.6319024,36.7075082 55.5423815,36.6962702 55.4600824,36.673584 C54.7990818,36.490792 54.2065384,35.8041952 54.2546841,35.0925584 L54.2674743,34.8851983 C54.3649232,33.1225997 54.1736318,31.0918447 52.0758395,30.6649856 C50.2967047,30.3029072 49.3034485,32.0128888 49.2823848,33.5869032 C49.2783726,33.8663496 48.9639209,34.0614112 48.7164218,33.9111712 C47.4302791,33.1296728 47.2076052,31.5749392 47.698842,30.2360504 C48.3214764,28.5395904 49.8796926,27.5224656 51.6653471,27.4390824 Z M20.6707879,28.4157426 C23.7102372,27.403125 26.9894121,29.0209594 28.4611164,31.7042458 C28.9774291,31.8534842 29.4929895,32.250869 29.4212724,32.859341 C29.317709,33.7347394 29.1617369,34.286621 28.5538972,34.9504314 C27.6031668,35.9888659 25.8225564,35.457915 25.4273943,34.1795928 L25.4106337,34.1218578 C24.9617752,32.4694682 23.1402621,31.3792266 21.4809901,31.9576506 C19.5426234,32.6332298 19.5987934,34.6774954 18.2391783,35.8683978 C18.0794449,36.0083714 17.887865,36.030657 17.6962852,35.9382594 C16.2521644,35.2413962 16.5116999,33.1440458 17.026508,31.9436282 C17.7018019,30.3683618 19.0142743,28.9673738 20.6707879,28.4157426 Z M16.5313845,19.1991946 C18.9943389,16.6896858 25.4167773,14.2613066 27.1016267,18.8954594 C27.4225982,19.7781194 26.73928,20.9682706 25.8189947,21.151313 C24.3119333,21.4507914 22.9748866,20.7974978 21.4778556,20.914685 C20.2659376,21.0100874 19.0018617,21.4144834 18.0329291,22.164181 C15.3493067,24.2404978 14.7590202,27.7523578 12.8891106,30.3950794 C12.7980851,30.523785 12.6213001,30.4696986 12.6044992,30.3179562 C12.1787105,26.4705602 13.8337196,21.947585 16.5313845,19.1991946 Z M48.652403,16.7287733 C50.2868499,16.1523525 52.1377018,16.2016813 53.7806744,16.7129981 C55.4356835,17.2283213 56.9550321,18.2068845 58.1255749,19.4854269 C58.6566823,20.0658541 59.1481699,20.7063773 59.542363,21.3882165 C59.7517467,21.7495437 59.9719131,22.4959861 60.2098833,22.9404461 C61.4974033,23.6827333 62.047718,25.3742091 60.8950123,26.5775722 L60.8430497,26.6303405 L60.6888329,26.7830845 C60.0692075,27.3955629 59.1348797,27.6609869 58.2890697,27.4163461 C56.3963411,26.8694725 56.1663951,25.3808445 55.511162,23.8008205 C55.078352,22.7571533 54.3368578,21.8336781 53.4378869,21.1553445 C51.3132063,19.5527845 47.8294121,19.0422189 45.27142,19.7974253 C45.1352579,19.8377397 44.9752737,19.6644629 45.0723174,19.5387621 C45.5570345,18.9117605 45.83638,18.3971885 46.4853441,17.8913805 C47.1440879,17.3780605 47.8630138,17.0072181 48.652403,16.7287733 Z" id="ðŸ–-Ink"></path>
                    </g>
                    <g id="facial-hair/*-None" transform="translate(30.843352, 84.635200)"></g>
                    <g id="accessories/*-None" transform="translate(11.785671, 60.346400)"></g>
                </g>
            </g>
        </g>
    </g>
</svg>