<?xml version="1.0" encoding="UTF-8"?>
<svg width="324px" height="467px" viewBox="0 0 324 467" version="1.1" xmlns="http://www.w3.org/2000/svg" xmlns:xlink="http://www.w3.org/1999/xlink">
    <!-- Generator: Sketch 62 (91390) - https://sketch.com -->
    <title>peep-sitting-9</title>
    <desc>Created with Sketch.</desc>
    <g id="Introduction" stroke="none" stroke-width="1" fill="none" fill-rule="evenodd">
        <g id="variations-sitting" transform="translate(-1741.000000, -950.000000)">
            <g id="a-person/sitting" transform="translate(1743.000000, 897.000000)">
                <g id="pose/sitting/hands_back-2" transform="translate(-20.311475, 159.504800)">
                    <path d="M90.9082418,211.970443 C85.817877,224.66519 79.7246742,239.075325 74.1190404,251.441283 C74.567881,255.359354 76.2527002,259.366025 74.9343914,263.28973 C80.7444399,259.516592 87.276737,257.147722 93.9444557,255.35705 L94.31943,257.864452 C95.061684,257.840382 96.3989723,257.827578 97.1507161,257.817336 C97.0335046,256.819957 96.8749998,255.041832 96.8031853,254.037028 L96.800877,254.037796 C95.8708794,243.232563 97.608277,232.170239 99.7301387,221.610574 C100.247716,217.800562 98.9845504,211.881588 94.1747751,211.784027 C93.459708,211.892599 92.2822068,209.961858 91.8484986,209.587745 L90.9082418,211.970443 Z M158.176103,358.009452 C133.942817,359.365836 120.086468,339.569344 108.370447,321.048063 C107.137034,321.86389 105.770507,322.776255 104.525038,323.513726 C102.608617,326.588059 98.7078081,327.52014 95.3402216,327.860965 C83.3374559,328.473732 80.7664972,317.712542 77.7867089,308.455486 C77.219118,308.852901 75.9497969,310.876594 74.9951772,310.432575 C69.6052434,309.239818 64.3576562,307.813784 58.6432748,308.169972 C52.0848167,306.772106 18.0986103,321.717164 21.2353645,308.683642 C22.7673214,303.015612 31.1991118,300.329988 35.5418364,296.417294 C41.8568947,289.244106 40.3190388,280.015218 43.3357602,271.473356 C45.8438812,262.904094 48.7744253,254.831089 54.1977015,246.953976 C54.6873224,217.510695 55.7917267,181.474986 63.4258632,155.289894 C68.2933466,136.91329 74.3234553,117.914445 72.0056427,98.6311102 L70.6891292,98.5960291 C70.1133309,98.2700566 69.2282173,98.0242329 68.5216141,98.132549 C67.9255538,97.4747145 66.8206366,97.6747023 66.0106718,97.4083933 C64.5507859,83.7884786 63.9878116,72.1313128 65.8403689,59.7753418 C67.5610953,39.3735091 80.4564125,31.0283058 99.2910444,26.5847859 C119.989519,19.8064528 134.033868,12.8980379 144.758079,-3.95701937 C146.786325,-7.37755406 148.01897,-11.4274999 150.721246,-14.3115755 C157.431541,-22.7909576 176.729889,-21.3930913 181.713815,-12.4648248 C183.890306,-7.24183888 184.077537,-1.14592265 185.733118,4.28396492 C192.241818,27.3463273 222.177431,24.6299752 238.025863,37.2397079 C245.002384,42.4050789 247.250434,50.3800103 248.154783,58.4975705 C249.294582,68.7056568 251.471587,78.5350208 251.19228,88.6808829 C251.920427,88.8186466 253.587036,88.3008804 253.869421,89.3428145 C253.20642,91.5344866 244.707944,91.5268046 242.33781,91.9144891 C245.455328,108.396202 242.628146,124.94654 245.133702,141.480746 C248.996039,160.057338 256.59555,177.309554 262.563847,195.255966 C264.860885,201.186975 266.398997,207.544848 269.815828,212.946056 L269.754273,212.993172 C270.294677,213.888892 270.887147,214.760286 271.502443,215.599672 C272.135436,215.827571 272.795617,216.198867 273.420659,216.427022 L273.559671,216.192977 L273.897199,216.645447 L274.888752,216.22729 C276.345304,216.954263 277.927275,217.796209 279.481032,218.681431 C298.577531,230.251534 311.074277,241.991921 326.046572,256.53009 L324.060132,258.138699 C324.78315,259.143503 325.65903,260.473256 326.36153,261.532347 C326.947844,261.015349 328.199468,260.145491 328.920691,259.846662 C341.686742,274.998109 343.247681,301.261814 337.030085,317.227808 C335.052366,322.012153 331.923562,325.939955 328.144838,329.248845 C326.584411,331.590828 323.779799,334.825458 320.196,336.378757 C320.196,336.378757 319.744081,337.017386 319.728949,337.038896 C319.537615,337.064759 318.363961,337.333628 318.295224,337.606595 C308.755695,339.212387 299.189749,343.404194 289.304485,343.464882 C273.181619,343.324557 259.327579,330.255442 246.396098,321.624468 C238.216171,315.799982 228.684593,311.798945 219.851411,307.904944 C220.510053,311.261974 220.322822,312.413504 216.666952,313.682825 C213.410421,314.976729 209.492941,313.965011 206.463395,312.54333 C206.542391,318.107652 206.986615,323.664293 206.83324,329.598631 C206.832214,336.782317 207.07228,345.615071 199.319136,348.931387 C186.116812,354.123645 171.199404,357.853252 158.176103,358.009452 L158.176103,358.009452 Z" id="ðŸŽ¨-Background" fill="#FFFFFF"></path>
                    <path d="M326.310337,259.459464 C325.851237,258.768084 325.381878,258.084387 324.899695,257.408372 C325.469081,258.025492 326.030773,258.652855 326.577076,259.287899 C326.482178,259.336552 326.39241,259.395447 326.310337,259.459464 M273.185569,215.014022 C273.095801,214.947445 272.995774,214.88855 272.880358,214.842458 C272.613618,214.732349 272.346879,214.617119 272.080139,214.507011 C271.574873,213.80795 271.100384,213.090964 270.656673,212.358614 C271.585132,213.326545 272.526415,214.266308 273.542077,215.147177 C273.424096,215.103645 273.30355,215.060114 273.185569,215.014022 M264.442155,211.278014 C260.112768,208.975977 255.750037,206.735396 251.377048,204.538347 C251.000022,204.348858 250.633255,204.353979 250.322914,204.479451 C248.442913,203.514081 246.552653,202.561514 244.641875,201.6576 C243.480019,201.109618 242.307904,200.592364 241.140919,200.069988 C241.051151,199.936834 240.969077,199.798558 240.899827,199.650039 C240.199636,198.157172 240.86392,196.303252 241.315325,194.835992 C241.430742,194.467256 241.38201,194.147173 241.235816,193.896228 C241.482038,191.752952 241.389705,189.596873 240.966512,187.65333 C239.961109,183.023649 237.475815,178.803676 235.111067,174.755266 C232.682198,170.599309 230.553411,166.425427 229.176112,161.798307 C226.40869,152.51078 226.195811,142.787939 226.395866,133.177768 C226.616439,122.502361 227.234556,111.829514 227.662878,101.161789 C227.791118,97.9814442 227.916794,94.8010998 228.019386,91.6181947 C228.268172,91.7667132 228.468226,91.920353 228.840123,92.0304616 C229.445416,92.2071474 230.063534,92.3531052 230.676522,92.4965024 C231.899933,92.7832967 233.141298,92.9830285 234.385227,93.154593 C236.724328,93.4772366 239.055734,93.6231945 241.415353,93.5899058 C241.705175,93.5847845 241.994998,93.5771025 242.282256,93.5668599 C240.917781,100.478091 241.004984,107.796469 240.879309,114.781959 C240.73055,122.860854 240.335571,131.019128 241.235816,139.069855 C242.115544,146.938775 244.444385,154.451763 246.986105,161.921219 C249.602204,169.608332 252.295248,177.272399 254.836968,184.982557 C256.270692,189.333125 257.709547,193.683693 259.150966,198.0317 C259.843463,200.126323 260.538525,202.220946 261.231022,204.313008 C261.990203,206.604802 262.369794,209.301181 264.293397,210.904157 C264.506275,211.080843 264.744802,211.216558 265.001282,211.311302 C265.044884,211.400926 265.085921,211.487988 265.132087,211.577611 C264.901255,211.477746 264.672988,211.37788 264.442155,211.278014 M235.793304,194.06011 C235.490657,195.476157 234.977697,196.876841 234.277506,197.965123 C234.277506,198.088035 234.251858,198.218628 234.190302,198.351783 C233.492676,199.870257 231.825554,200.753686 230.384134,201.437383 C228.647763,202.261917 226.854965,202.97122 225.103205,203.765026 C222.481976,204.950614 219.794062,205.872452 217.039464,206.530543 C216.988168,206.551028 216.936872,206.574074 216.883011,206.59456 C212.39717,208.392146 207.803608,209.910619 203.145925,211.203755 C193.70745,213.828435 184.020188,215.50567 174.289325,216.601634 C164.863673,217.661749 155.368772,218.268626 145.88926,218.55542 C137.284345,218.819169 128.543496,218.62968 120.059127,217.059993 C113.983109,215.935861 108.012247,214.076819 102.536392,211.252407 C102.095246,210.561028 101.477129,209.969515 100.959038,209.321667 C101.023159,208.279476 100.392217,207.116935 99.4381102,206.7482 C99.0687785,205.926226 98.7789558,205.070965 98.5737715,204.192657 C98.7969094,202.041699 99.0969914,199.900985 99.5355727,197.750027 C100.399911,193.535174 101.528425,189.379217 102.662068,185.230942 C105.026816,176.573337 106.917076,167.9439 107.232547,158.943167 C107.553147,149.827204 106.634948,140.741969 105.378194,131.725872 C104.103487,122.571499 102.5723,113.450414 100.928261,104.357497 C99.9946725,99.1875169 99.0944266,94.007294 98.1069774,88.8449958 C97.1092689,83.6238023 96.3218744,78.3001823 95.0215192,73.1430054 C94.9804823,72.9765623 94.7086132,73.0072903 94.7163076,73.1865367 C94.8958438,77.8213382 95.5370446,82.4663823 95.9858852,87.0832591 C96.3013559,90.3224988 96.6424748,93.5566172 96.9887232,96.7907356 C96.2859671,96.6294137 95.5267854,96.7241583 94.7060484,96.7395223 C93.3595267,96.7676896 92.0130051,96.7523256 90.6664834,96.7600076 C87.976005,96.7702503 85.2829617,96.7830536 82.5899184,96.7958569 C77.9604487,96.8163422 73.3130254,96.8854801 68.6912502,97.2183664 C68.406557,97.1492285 68.1192991,97.0800906 67.8294763,96.993028 C66.7240461,96.6601417 66.3701033,95.8714573 66.2982888,94.7678112 C66.1110582,91.9971729 66.5086027,89.1241082 66.5573339,86.3432273 C66.60863,83.3882213 66.5906764,80.4332153 66.4983435,77.4807699 C66.439353,75.5474687 66.6291484,73.1762941 65.5108943,71.4964986 C65.618616,69.9652217 65.749421,68.4339447 65.9110036,66.9077891 C66.5162971,61.1770235 67.5499128,55.4206513 69.3273213,49.9280275 C70.6122877,45.9589986 72.7205559,42.3177347 75.7521532,39.4241846 C81.6999317,33.754875 89.9252553,31.5117335 97.6094055,29.2634707 C106.896558,26.5440457 116.150367,23.1946975 124.52445,18.2884657 C124.421858,18.5112434 124.485978,18.8031591 124.788624,18.864615 C125.275937,18.9644809 125.635009,19.2282293 125.901749,19.5892829 C126.01973,20.1884782 126.194137,20.7799915 126.430098,21.3587016 C126.47883,21.4764921 126.540385,21.5814793 126.609635,21.6736632 C126.727616,22.5366069 126.74044,23.4200359 126.801995,24.0422772 C127.007179,26.1522642 127.389335,28.2135985 127.96898,30.2518869 C129.135966,34.3515096 130.96467,38.2923712 133.380715,41.8081626 C138.233322,48.8602307 145.478891,54.2453066 153.801678,56.4218709 C162.203973,58.6163597 171.521902,57.6970814 179.075248,53.3029824 C186.061771,49.2392089 191.476071,42.5123451 193.061119,34.5128315 C193.904939,30.2621296 193.769005,25.9346077 192.973916,21.6890272 C192.845676,21.0078906 192.704612,20.3088294 192.545594,19.6046469 C197.87269,24.1754317 204.705325,26.9793586 211.296869,29.1431195 C218.342384,31.4553989 225.564869,33.3554114 231.984572,37.1887251 C234.94179,38.9530225 237.747684,41.150072 239.802092,43.9437562 C242.351506,47.410895 243.451806,51.4465011 244.141738,55.6408684 C245.067632,61.2743288 245.742176,66.9590024 246.378247,72.6308727 C246.696282,75.4834521 246.991235,78.3411529 247.260539,81.1988537 C247.401603,82.712206 247.537538,84.2255583 247.663213,85.7414713 C247.755546,86.8118288 247.858138,87.6645298 248.206951,88.4762602 C246.191016,89.0139996 244.149433,89.4185845 242.092461,89.7821988 C239.663592,90.2149509 237.191122,90.465896 234.728911,90.6169752 C233.459333,90.6937951 232.187191,90.7194017 230.915049,90.739887 C230.281542,90.7501297 229.648036,90.7347657 229.01453,90.739887 C228.652892,90.7424477 228.35794,90.8397529 228.042469,90.9037695 C228.324597,81.8979149 228.41693,72.8843784 227.870627,63.8913272 C227.857803,63.6634281 227.488472,63.5814868 227.447435,63.8349926 C225.641813,74.410534 224.687707,85.142276 223.954173,95.8381686 C223.233463,106.326648 222.476846,116.815126 221.840775,127.311287 C221.258565,136.954747 221.040557,146.692952 222.689725,156.25191 C223.495073,160.917439 224.823641,165.442132 226.708772,169.787578 C228.565689,174.071569 231.189483,177.943292 233.325964,182.083886 C235.280344,185.876229 236.667902,190.00914 235.793304,194.06011 M222.407084,291.353299 C218.596299,290.249397 214.999676,288.665115 211.449475,286.905426 C208.024694,285.207706 204.392932,283.399622 201.490601,280.892988 C201.42802,280.838958 201.494448,280.724752 201.572675,280.752663 C205.151345,282.028642 208.54304,283.921997 212.029377,285.447384 C215.651136,287.031923 219.355481,288.418779 222.990833,289.971309 C223.795668,290.31495 223.207559,291.58504 222.407084,291.353299 M214.777307,310.042816 C213.841154,310.67274 212.812668,311.243768 211.74571,311.61532 C210.296596,312.124636 208.829529,312.255486 207.370156,312.106967 C207.152148,309.482287 206.885408,306.857607 206.564808,304.240352 C209.85032,305.894541 213.287157,307.269617 216.718863,308.647254 C216.03919,309.054656 215.454415,309.584457 214.777307,310.042816 M201.318246,296.519439 C201.220014,297.57981 199.8045,297.556251 199.683184,296.519439 C199.133291,291.826766 198.858087,287.095428 198.385907,282.393537 C197.549012,274.055759 196.164531,265.849344 194.260678,257.689789 C193.780033,255.629223 193.278614,253.575058 192.724104,251.532929 C192.43659,250.474094 191.459143,248.61454 192.116759,247.531636 C192.925698,246.199322 194.044208,248.084483 193.180639,248.191775 C193.092666,248.20253 193.093436,248.077057 193.161403,248.05017 C192.489937,248.316735 192.956475,248.920028 193.132677,249.397335 C193.302211,249.856462 193.476361,250.314053 193.644868,250.773692 C193.981627,251.692202 194.310178,252.613785 194.629496,253.538441 C195.321224,255.540624 195.970119,257.553562 196.544122,259.592362 C197.666223,263.579572 198.652646,267.614154 199.411572,271.686377 C200.924806,279.80573 202.082558,288.251055 201.318246,296.519439 M104.65492,320.682374 C104.113746,320.403262 103.462286,320.303396 102.88777,320.418626 C100.994946,320.795044 100.243458,321.888447 98.619938,322.71042 C97.6658312,323.194385 96.0166628,323.59641 95.0163896,323.657866 C93.3518323,323.757988 92.3900312,323.642502 90.8639733,323.158536 C89.7534135,322.805165 88.5428264,322.149635 87.7169598,321.389374 C85.5189235,319.368754 84.4340118,316.572509 83.4722106,313.732733 C82.4129469,310.601041 81.5024418,307.361801 79.871227,304.465691 C79.05049,303.011233 78.00918,301.605429 76.7678152,300.481298 C75.5880058,299.413501 73.6874867,298.63762 72.8847033,297.221573 C72.0562719,295.761994 71.9870222,293.646886 71.7408011,292.0055 C71.49458,290.358994 71.3150438,288.702244 71.1970628,287.042934 C70.7379631,280.58494 71.16885,273.502144 74.7698336,267.904533 C79.2915815,260.880632 87.4784331,258.842344 95.0676856,256.875754 C95.1831018,258.084387 95.3216011,259.29046 95.4883133,260.493972 C95.6909328,261.968914 95.9371539,263.438735 96.221847,264.900874 C94.854807,265.991717 93.6519143,267.384718 92.8132237,268.403862 C90.7742052,270.885146 89.2532769,273.714679 88.2042724,276.746505 C87.19374,279.668222 86.6961682,282.766626 86.7859363,285.857347 C86.8321028,287.393745 87.0680646,288.891733 87.5015164,290.366676 C87.6220621,290.773821 87.7656911,291.214255 87.9375329,291.65725 C87.4014891,292.586771 87.3014617,293.787722 87.9247089,294.696758 C93.4928965,302.816623 99.0610841,310.934183 104.629272,319.053792 C104.885752,319.427649 105.142232,319.804067 105.398713,320.180484 C105.147362,320.339245 104.901141,320.508249 104.65492,320.682374 M95.0292136,256.463487 C94.6419283,256.468608 94.254643,256.478851 93.864793,256.489094 C94.2443838,256.384106 94.6239747,256.279119 95.0035656,256.174132 C95.01126,256.271437 95.0189544,256.366182 95.0292136,256.463487 M94.8060757,253.572498 C91.3564155,254.514822 87.9118849,255.485313 84.5699464,256.763085 C82.6155664,257.510799 80.3098084,258.314847 78.3554284,259.495313 C77.7783477,259.769304 77.2166558,260.066341 76.6677879,260.391545 C76.744732,259.98696 76.7421672,259.55933 76.6447047,259.129138 C76.1932993,257.113896 75.8573101,255.075607 75.4802841,253.045001 C75.4392472,252.827344 75.390516,252.38691 75.3084423,251.879899 C75.6777739,251.211566 75.9547726,250.484337 76.2676786,249.759669 C76.8370649,248.446049 77.4064512,247.129868 77.9784023,245.816247 C79.05049,243.340085 80.1225777,240.863923 81.1946655,238.390322 C83.3927017,233.317647 85.5804788,228.232169 87.688747,223.121084 C89.1173423,219.653945 90.5485025,216.184246 91.9258018,212.694061 C92.3079575,213.142177 92.900427,213.449457 93.7057752,213.480185 C97.5914519,213.61846 98.1069774,218.750031 97.786377,221.60005 C97.5427207,223.768932 96.9605103,225.901965 96.5527066,228.04524 C96.1372085,230.234608 95.7935249,232.434218 95.4960078,234.64151 C94.6573171,240.917697 94.4162256,247.263022 94.8060757,253.572498 M62.2792423,304.568117 C57.5728285,304.294126 52.8330723,304.745059 48.2369451,305.779311 C43.7947061,306.77797 39.4781424,308.270837 35.0307738,309.264374 C32.8635151,309.74834 30.6706084,310.081226 28.4443593,310.132439 C27.3748364,310.155485 26.2950543,310.127318 25.230661,310.006967 C25.0972912,309.991603 24.9280142,309.945511 24.7561724,309.90198 C25.061384,308.967337 25.607687,308.18147 26.389952,307.39509 C27.4774285,306.301943 28.3930632,305.69737 29.7447145,304.831865 C32.4659706,303.090614 35.3000781,301.513245 37.5545401,299.157434 C40.4399436,296.138412 41.8069837,292.266688 42.5199989,288.2234 C43.2843103,283.890757 43.7767525,279.512022 44.5102862,275.174257 C45.1130149,271.591889 45.8055117,268.00952 46.6544616,264.470683 C47.6496052,261.354355 48.9473956,258.337893 50.4221574,255.403372 C51.5532356,253.155109 52.8048595,250.978545 54.0257058,248.781496 C55.0464975,249.726381 56.5699905,249.552255 57.4343292,248.330819 C57.8344385,247.764912 58.308927,247.21693 58.4961577,246.535794 C58.6756939,245.887946 58.6167034,245.140232 58.621833,244.47702 C58.6320922,243.229977 58.6423515,241.982933 58.6526107,240.733329 C58.6756939,238.154741 58.7039067,235.573592 58.739814,232.995003 C58.8090637,228.001709 58.9116558,223.008415 59.0809328,218.01512 C59.4220516,207.974757 59.9683547,197.939516 61.1019977,187.952927 C63.325682,168.345925 68.9733785,149.356042 71.4073767,129.782328 C71.7074586,127.375304 71.9690686,124.940113 72.1614288,122.486997 C73.2206925,114.961206 73.4027935,107.322746 72.6897782,99.7406203 C80.9561388,99.6689217 89.2199345,100.083749 97.4401285,100.982542 C98.4327073,110.203493 99.5663503,119.398836 100.738465,128.59418 C101.887497,137.589792 102.872382,146.662224 102.767225,155.742337 C102.715929,160.210696 102.410717,164.689297 101.674619,169.09876 C100.964168,173.359704 99.8843859,177.54639 98.7353541,181.707468 C97.5811927,185.87879 96.339828,190.029626 95.3216011,194.236796 C93.7775897,198.103399 92.0976436,201.913666 90.3689663,205.700888 C86.0088009,215.254725 81.499877,224.736863 77.2294798,234.33167 C75.9983743,237.102308 74.7800928,239.878068 73.5541169,242.651267 C72.941129,244.039146 72.328141,245.427026 71.7151531,246.812345 C71.025221,248.37435 70.1326695,249.897945 70.1403639,251.644318 C70.1454935,252.686508 70.7661759,253.441904 71.5740889,253.777351 C71.2304053,255.792593 71.1175539,257.836003 71.0944707,259.879413 C71.0816467,261.098289 71.8844301,262.102069 72.9462586,262.49385 C72.9436938,262.757599 72.9359993,263.018786 72.9231753,263.282535 C72.9077865,263.297899 72.8923977,263.313263 72.8770089,263.326066 C67.3036917,268.954405 65.787893,277.115241 65.8340595,284.748579 C65.8571427,288.740654 66.2649464,292.766018 66.947184,296.696637 C67.3652469,299.108782 68.419381,301.098418 70.3532426,302.624573 C71.7202827,303.702613 73.2745534,304.745059 74.1645401,306.055863 C74.3466411,306.327293 74.5184829,306.60154 74.6826303,306.880396 C70.8610736,305.279982 66.2982888,304.801137 62.2792423,304.568117 M125.735037,17.5586765 C125.729907,17.7430443 125.729907,17.9299727 125.735037,18.1143405 C125.50164,18.0503239 125.255419,18.0144746 124.983549,18.0170353 C125.237465,17.8685168 125.483686,17.7097556 125.735037,17.5586765 M341.063084,288.886612 C340.450096,283.258273 339.524202,277.594085 337.515962,272.278147 C335.669303,267.389839 332.90701,262.977816 329.616368,258.934528 C326.305207,254.865633 322.509298,251.224369 318.623622,247.708578 C314.525066,244.000736 310.370085,240.346669 306.176632,236.746376 C297.920531,229.658458 289.307922,222.872699 279.825845,217.505548 C279.82328,217.500427 279.820715,217.495305 279.815585,217.490184 C279.800196,217.482502 279.784808,217.477381 279.766854,217.469699 C278.225407,216.599073 276.660877,215.759175 275.0707,214.96793 C274.683414,214.77588 274.311518,214.788684 273.996047,214.921838 C273.988353,214.911596 273.983223,214.898792 273.972964,214.89111 C272.836756,213.828435 271.641558,212.880989 270.405323,211.938665 C269.381966,210.189732 268.525322,208.348614 267.871297,206.410192 C267.807177,206.220703 267.704585,206.067063 267.584039,205.936469 C267.327559,205.234847 267.040301,204.538347 266.786385,203.839285 C266.093889,201.921348 265.41678,199.99829 264.731978,198.077792 C263.362373,194.236796 261.995333,190.39324 260.620599,186.554805 C257.873694,178.880495 255.234512,171.167776 252.572246,163.462739 C250.071563,156.226303 247.50676,148.959139 246.237183,141.387256 C244.921439,133.551625 245.221521,125.488095 245.116364,117.575644 C245.057373,113.007419 245.02916,108.426392 244.793198,103.86585 C244.613662,100.378226 244.38283,96.9008441 243.749324,93.4823579 C245.536991,93.3517641 247.316965,93.1136224 249.081549,92.8089034 C251.023105,92.4708957 255.078059,92.225072 254.993421,89.4544338 C254.960078,88.409683 254.15986,87.6824545 253.190364,87.4161454 C252.964661,87.3521288 252.736394,87.3265222 252.505561,87.3239615 C252.710746,85.5775888 252.282424,83.6826976 252.115711,81.9568102 C251.864361,79.3500545 251.592492,76.7432987 251.297539,74.1416643 C250.70507,68.8974249 250.022832,63.6608674 249.26365,58.4371133 C248.573718,53.6947639 247.868397,48.9242473 245.647278,44.6095288 C243.959637,41.3293185 241.453825,38.4741783 238.565856,36.1951876 C226.557448,26.7181709 210.31455,26.4825898 197.690589,18.2321311 C194.425594,16.0965375 191.504284,13.4257651 189.393451,10.1276302 C188.187993,8.24042094 187.38008,6.20725389 186.805564,4.04861431 C186.433668,2.65561321 186.084855,1.29334007 185.638579,-0.0766150607 C185.199998,-1.41584222 185.076887,-2.51436699 184.248456,-3.694833 C184.158687,-3.82286619 183.966327,-3.77677424 183.956068,-3.61801309 C183.876559,-2.39913712 184.097132,-1.32877966 184.158687,-0.115025018 C184.220243,1.1499429 184.179206,2.39698616 184.307446,3.66963607 C184.338224,3.98971904 184.376696,4.30980202 184.415168,4.62732433 C184.371566,4.70414424 184.335659,4.78864615 184.307446,4.88083004 C183.720106,6.75011461 184.040707,8.77559967 185.038415,10.3913785 C185.025591,10.5603823 185.038415,10.7319468 185.084581,10.9035113 C185.587283,12.7702352 186.500353,14.4961226 187.18259,16.3065119 C187.828921,18.0247173 188.377789,19.7813327 188.803546,21.568676 C189.606329,24.9410702 189.919235,28.408209 189.583246,31.8651051 C188.859972,39.2756661 184.456205,45.590263 178.290418,49.6130658 C171.444958,54.0788635 162.7631,55.1901916 154.884024,53.2543298 C146.848496,51.280058 140.203091,46.1587304 135.509502,39.4472306 C132.901097,35.7189041 130.90568,31.5322188 129.66175,27.158605 C129.184697,25.4813703 128.902569,23.7196336 128.446034,22.0295955 C128.892309,21.7863324 129.161614,21.3074883 128.902569,20.677565 C128.225461,19.0284975 128.117739,17.402476 128.617875,15.7124379 C133.175531,12.6293987 137.410021,9.02398406 141.018699,4.87058739 C144.606858,0.740236689 148.325823,-4.27610368 149.874964,-9.58179906 C150.482822,-11.6661794 147.351198,-13.0591805 146.315017,-11.0797874 C145.181374,-8.91602647 144.252915,-6.68568831 143.014116,-4.57058002 C141.770186,-2.44010774 140.34672,-0.417183345 138.769366,1.48026853 C135.630047,5.25980828 131.980332,8.63476316 127.994628,11.5129493 C119.107585,17.9299727 108.835549,22.0526414 98.4198833,25.2765172 C90.3535775,27.7731644 81.9153751,29.9497286 75.2186741,35.3578505 C67.8346059,41.3216365 65.292886,50.6987873 63.9053275,59.7020812 C63.3179876,63.5097882 62.9768688,67.3405413 62.8229806,71.1840976 C62.661398,71.4913773 62.6229259,71.8524309 62.7870733,72.1904385 C62.5588058,79.4012677 62.974304,86.642825 63.664236,93.8229262 C63.6616712,94.5834434 63.7180969,95.3337179 63.8873739,96.0455824 C63.9694476,96.8368275 64.0540861,97.6280726 64.1412894,98.4167571 C64.1618078,98.6164889 64.2592703,98.752204 64.4490658,98.821342 C65.1774699,99.0825297 65.9058739,99.2387302 66.6419724,99.2873828 C66.7676478,99.3309141 66.895888,99.369324 67.0241281,99.4051733 C67.2293124,99.6689217 67.5524776,99.8456075 67.9961885,99.8328042 C68.250104,99.8251222 68.5040195,99.8200008 68.7553702,99.8123188 C69.045193,99.8942601 69.3273213,99.994126 69.5940609,100.134962 C69.7941155,100.23995 69.9916053,100.286042 70.178836,100.291163 C70.5020012,103.955473 70.6148525,107.630025 70.5199548,111.294335 C70.2352616,116.454073 69.5966257,121.590764 68.588658,126.735138 C66.7189165,136.281293 64.00279,145.658443 61.5226254,155.05864 C56.4032783,174.445426 54.035965,194.277767 53.1203303,214.276551 C52.8612852,219.927936 52.7381746,225.589564 52.6458417,231.24607 C52.5996753,233.993662 52.5663328,236.738694 52.53812,239.486286 C52.525296,240.899773 52.512472,242.313259 52.4996479,243.729306 C52.4919535,244.389957 52.4457871,245.065973 52.4893887,245.724063 C52.4996479,245.887946 52.5227312,246.039025 52.550944,246.187543 C52.5483792,246.192665 52.5458144,246.197786 52.5432496,246.205468 C49.8604655,249.854414 47.8163174,254.064145 46.0260848,258.204738 C44.1948154,262.434955 42.6379799,266.782962 41.4350872,271.233396 C40.2296297,275.691511 39.3550319,280.193158 38.5137764,284.730655 C37.8110204,288.512755 36.995413,292.704562 34.0715374,295.459836 C31.8632419,297.539095 28.7854781,298.940034 26.1770733,300.627512 C23.2019017,302.552875 20.5370712,304.906125 19.3649562,308.347657 C18.5493488,310.734195 18.9443285,313.471801 21.360373,314.721149 C23.4404284,315.796628 26.389952,315.714687 28.6751916,315.609699 C33.5047159,315.384361 38.2034352,314.078422 42.8303401,312.767619 C47.9163447,311.325709 52.9561829,310.009528 58.270455,309.866387 C60.9327207,309.794432 63.6231992,309.919904 66.2546872,310.334988 C68.9887673,310.762619 71.6099961,311.673959 74.3312523,312.109272 C75.2366278,312.25779 76.1420033,312.065741 76.744732,311.451181 C78.4759741,316.336928 79.4685529,321.660548 83.4363034,325.427284 C86.4884191,328.320834 90.828066,329.798337 95.0163896,329.555074 C97.2759811,329.42192 99.4201566,328.871377 101.45661,327.882961 C102.431235,327.409238 103.310963,326.797239 104.154783,326.118664 C104.672873,325.703836 105.034511,325.25572 105.285861,324.758951 C106.045043,324.298032 106.793966,323.822004 107.532629,323.332661 C111.710693,329.534589 115.863109,335.78773 120.528486,341.618618 C125.806851,348.214631 132.180387,353.610206 140.123582,356.687868 C147.528169,359.555811 155.72015,360.121718 163.576142,359.453385 C171.865586,358.746642 180.011401,356.864554 187.959726,354.462651 C191.842838,353.290123 195.874708,352.206706 199.557765,350.48338 C203.489609,348.644823 206.210865,345.408144 207.134194,341.147199 C208.042134,336.957953 207.934413,332.479352 207.96519,328.215847 C207.995968,323.816627 207.888246,319.407164 207.590729,315.018186 C207.588164,315.005383 207.588164,314.99514 207.588164,314.982337 C209.034713,315.566168 210.606937,315.876008 212.158643,315.955389 C213.718044,316.03477 215.338999,315.837598 216.800937,315.279374 C218.545003,314.616162 220.955918,313.522758 221.273954,311.451181 C221.322685,311.149023 221.32525,310.82894 221.286778,310.513978 C222.348606,310.962095 223.405305,311.42327 224.446615,311.906979 C227.709045,313.417771 230.961215,314.959291 234.162089,316.595555 C235.762527,317.412407 237.334751,318.3112 238.960836,319.076838 C239.396853,319.281691 239.835434,319.50959 240.279145,319.74005 C241.897536,320.818089 243.500538,321.919175 245.095845,323.040746 C249.607334,326.213408 254.064962,329.46033 258.596969,332.599704 C263.257216,335.828701 268.007232,339.016727 273.17531,341.383036 C278.479323,343.81285 284.11676,345.359491 289.992724,345.141835 C296.263668,344.911375 302.375594,343.141956 308.41314,341.587634 C311.429349,340.814313 314.445557,340.038688 317.461766,339.262551 C317.882393,339.449479 318.392789,339.421568 318.818547,339.003924 C318.859583,338.962953 318.90062,338.921983 318.941657,338.881012 C319.375109,338.770903 319.808561,338.658234 320.242012,338.548126 C320.431808,338.286938 320.616474,338.020629 320.803704,337.757137 C324.119995,336.194876 326.897677,333.385827 329.005945,330.2695 C329.164962,330.133784 329.326545,330.003191 329.482998,329.864915 C333.212222,326.597508 336.095061,322.543977 338.031487,317.988556 C341.901775,308.882836 342.117218,298.586406 341.063084,288.886612" id="ðŸ–-Ink" fill="#000000"></path>
                </g>
                <g id="Head" stroke-width="1" transform="translate(86.511840, 45.072000)">
                    <g id="head/Long">
                        <path d="M108.302943,67.6212712 C107.352567,52.0458904 102.291248,34.387432 87.3951632,26.740216 C54.5560211,13.5796928 11.3793411,46.7216352 9.09342247,80.57872 C8.2965105,92.1682336 14.7405141,104.832214 26.5164055,108.054361 C29.1345797,111.518144 33.0940636,113.633523 37.002142,115.469456 C83.5497746,139.584729 113.617529,119.981664 108.302943,67.6212712 L108.302943,67.6212712 Z" id="ðŸŽ¨-Background" fill="#FFFFFF"></path>
                        <path d="M118.907164,57.932569 C117.262185,53.370281 115.524425,48.843049 113.696392,44.350873 C111.916004,39.978889 110.307868,35.5124073 108.096945,31.347601 C94.8919783,6.47286504 70.8793007,6.47286504 58.4667324,9.72305704 C52.02975,6.95363304 39.9730891,7.73481696 33.2704726,10.233873 C22.419631,14.2795858 9.19234687,30.194509 4.66990911,37.3449314 C-5.31506175,53.132401 -11.5464218,74.1452178 -4.91384742,92.3883602 C-4.04697371,94.772669 -2.94137747,96.9809466 -1.69661002,99.1090962 C-2.48073327,100.170291 -3.38321475,101.175397 -4.38299071,102.162975 C-7.35398282,105.098163 -10.3249749,107.936698 -12.8914928,111.247236 C-15.4419622,114.537242 -17.5563617,118.035831 -19.1303757,121.893243 C-22.0983587,129.167863 -22.2412913,137.405022 -18.3174151,144.34636 C-14.9035827,150.386008 -8.85602896,154.883443 -2.04265738,155.312378 C-1.69284863,155.360955 -1.34253837,155.405527 -0.990723558,155.440833 C-0.0879913175,156.925705 1.0128405,158.292889 2.26914287,159.484793 C6.11829284,163.140633 15.293563,165.016129 20.5269024,165.136321 C20.7952145,165.351665 21.0660342,165.567009 21.3368539,165.779849 C24.5390457,168.296369 27.8992157,170.835425 31.575342,172.625785 C34.0653784,173.840225 37.33026,174.854345 39.9281228,173.977945 C41.1066899,174.764201 43.0400415,174.598937 44.2085782,173.955409 C46.1293918,172.898721 47.6916201,170.995681 48.6419965,169.047569 C50.9464713,164.317513 50.392294,159.141745 49.8005029,154.088673 C49.1485296,148.507257 48.5216322,142.923337 47.8847045,137.341921 C47.3856942,132.977449 46.8641155,128.540361 45.5350931,124.336145 C44.8480135,122.157665 43.9477889,120.064321 42.7842673,118.096177 C42.8143584,117.930913 42.8093432,117.765649 42.761699,117.610401 C42.3805454,116.373425 41.5931623,115.724889 40.660339,114.883545 C40.5399747,114.775873 40.4196104,114.665697 40.3017537,114.553017 C39.835342,114.022169 39.3363317,113.528881 38.8022151,113.110713 C38.5965928,112.902881 38.393478,112.692545 38.1903633,112.482209 C36.5027555,110.716889 34.9079285,108.861425 33.4911404,106.873249 C32.1169814,104.945169 30.8757245,102.931953 29.6946498,100.881177 C28.4935145,98.795345 27.6986086,96.494169 26.4999808,94.423361 C26.3971696,94.245577 26.1363803,94.210521 25.9909401,94.358257 C25.6198168,94.741369 25.3815958,95.167049 25.4267324,95.615265 L25.2411708,95.642809 C25.1709583,94.966729 24.5465685,94.415849 23.6990032,94.563585 C22.4301629,94.783937 21.3870056,94.866569 20.2886814,94.445897 C20.4817658,93.166353 20.6598047,91.884305 20.8353359,90.599753 C21.1563074,88.235977 21.4547106,85.864689 21.7104847,83.493401 C22.3298593,83.641137 22.9442188,83.853977 23.5460403,84.124409 C24.4036359,84.507521 25.2135873,85.023345 25.905682,85.656857 C26.5877464,86.282857 27.0591732,87.126705 27.891693,87.562401 C28.8495922,88.060697 30.005591,87.236881 29.7247409,86.155153 C29.1555181,83.969161 25.9332655,82.717161 23.9397318,82.304001 C23.2551599,82.161273 22.5555424,82.101177 21.8559249,82.116201 C22.013903,80.593769 22.1543281,79.071337 22.2696772,77.546401 C22.3248441,76.825249 22.3749959,76.104097 22.4226401,75.380441 C23.9723305,74.912193 25.6323548,74.771969 27.2447349,74.992321 C27.7763438,75.415497 28.3079528,75.833665 28.8220087,76.256841 C30.4544495,77.603993 32.0793675,78.958657 33.6842248,80.338361 C33.829665,80.461057 33.9725976,80.583753 34.1180378,80.708953 C35.0709219,81.527761 36.2595193,80.716465 36.0990336,79.557113 C34.7900718,70.056937 40.61771,62.499865 47.4408611,56.645513 C54.9937209,50.162657 68.7252813,49.4077751 77.7074671,38.178513 C81.8442627,39.0192538 91.0804422,41.516345 94.8919783,47.581033 C100.228129,56.079609 99.531019,63.694273 99.9372485,73.334673 C100.343478,82.982585 101.376605,93.046161 99.1824641,102.558857 C97.1588393,111.330369 91.6797561,118.824841 83.1790275,122.270345 C82.96839,122.355481 82.7552449,122.438113 82.5420998,122.518241 C78.1462953,124.173385 73.3492764,124.641633 68.7252813,123.770241 C63.607291,122.803697 59.3343584,120.464961 55.0764713,117.587865 C54.8307276,117.425105 54.4721423,117.760641 54.6577039,118.006033 C60.2696893,125.432897 71.293053,127.914361 80.0370178,125.953729 C80.4457549,125.861081 80.8519844,125.760921 81.2557063,125.650745 C79.2997865,131.267217 79.693478,137.432065 82.241189,142.900801 C83.7733262,146.191057 86.1103997,149.038105 88.9565138,151.284193 C92.0935084,153.758145 95.9852874,155.756337 98.1618751,159.229385 C100.155409,162.411969 99.5636177,165.987681 96.1507883,167.825617 C95.2906851,168.291361 94.9596832,169.796265 95.8122637,170.457321 C96.1382503,170.707721 96.464237,170.963129 96.7977464,171.213529 C98.7085296,172.653329 103.956915,175.357649 104.806987,175.457809 C112.354832,176.351737 117.430193,170.817897 120.682537,164.289969 C124.501596,156.627729 123.50859,147.290313 119.300855,139.993657 C115.92564,134.139305 109.27802,128.370089 111.921019,120.960753 C112.863873,118.314025 114.792209,116.057921 116.665378,114.019665 C118.801845,111.698457 121.098797,109.524985 123.147497,107.121145 C125.18366,104.734833 126.989125,102.138185 127.997176,99.143401 C129.469131,94.766409 128.736915,90.033849 127.631068,85.664369 C125.261395,76.284385 122.184583,67.029601 118.907164,57.932569 Z" id="ðŸ–-Ink" fill="#000000"></path>
                    </g>
                    <g id="face/Smile" transform="translate(39.870674, 46.574400)" fill="#000000">
                        <path d="M36.7578944,60.328009 C35.0722236,59.6413244 33.5681791,58.4958892 32.4685774,57.0326699 C32.0862863,56.5239948 31.9871646,55.9868418 32.067361,55.4955467 C32.1575361,54.9431201 32.4848286,54.4424437 32.9311823,54.1066054 C33.3789185,53.7697269 33.9389796,53.6035867 34.4804419,53.6882802 C34.9509409,53.7618739 35.4193003,54.0191143 35.7899717,54.5526217 L35.8674142,54.6593105 C36.5211464,55.5424593 37.3730196,56.2670723 38.3436696,56.7341274 C39.2792185,57.1842925 40.3255353,57.3944019 41.4083024,57.2722189 C43.4705023,57.0396021 44.8918742,55.9259388 46.4026374,54.4136027 C46.5899009,54.2226665 46.7772844,54.0257446 46.9655762,53.8256529 C47.0844862,53.6442708 47.2495035,53.5276964 47.4327174,53.4665318 C47.6361441,53.3986193 47.866267,53.4024617 48.0770421,53.4759123 C48.2803356,53.5467557 48.4620699,53.6810008 48.5839276,53.8596723 C48.6997435,54.029485 48.7654076,54.2392656 48.7441012,54.4805653 C48.6058184,56.0478541 47.785247,57.4465926 46.6196595,58.5448977 C45.3251257,59.7647059 43.6091266,60.6085773 41.9935885,60.9045495 C40.2137398,61.2305742 38.4001214,60.9969962 36.7578944,60.328009 L36.7578944,60.328009 Z M42.8332164,36.1495355 C44.7267922,37.2988829 47.6120202,39.9789369 45.5749685,42.8283092 C43.1771637,45.3406948 39.7248663,42.4600731 38.023634,41.15728 C36.4461716,40.1476081 34.6738043,42.7444087 36.1373747,43.9233709 C48.4305154,53.011698 53.4193322,36.4500738 43.7909606,34.7981847 C42.7308423,34.6161536 42.3371117,35.7939723 42.8332164,36.1495355 Z M20.8037905,25.5774586 C21.0130058,22.9842471 24.9681444,22.3953754 25.3615852,24.9614746 C25.7139016,27.2601466 25.2991463,29.3717698 24.262258,31.4413258 C23.2715094,33.4184842 20.7813432,32.4960467 20.5930232,30.6956707 C20.3405881,28.2823415 20.6736466,27.1905845 20.8037905,25.5774586 Z M50.9108385,24.4293996 C51.4622574,23.7082476 52.2584171,23.2159612 53.2123042,23.4941556 C56.1925744,24.3637948 55.3141658,28.588794 54.2674979,30.6453292 C53.6987766,31.7621132 51.8604627,32.0453156 51.0296982,31.0619948 C49.6755999,29.4584332 49.0271372,26.2560676 50.7485974,24.6765444 C50.7952386,24.594914 50.8471457,24.5125324 50.9108385,24.4293996 Z M24.2202809,14.2303572 L24.6910485,14.148077 C26.1474061,13.896564 27.9582193,13.6548879 28.9884625,14.8240556 C29.5348662,15.444046 29.7229355,16.5963868 28.9884625,17.1898348 C27.6965523,18.2340028 26.2682293,17.8293564 24.7200435,17.9177476 C23.444182,17.9908644 22.2179707,18.2017012 20.989001,18.5525116 C18.2928407,19.3219908 16.0959415,20.7267348 13.793222,22.2691988 C13.4910575,22.471522 13.182624,22.0856556 13.3268104,21.8034548 C14.6560836,19.2035516 17.2321304,17.06789 19.81244,15.7660604 C21.1896082,15.0712004 22.6966695,14.4947796 24.2202809,14.2303572 Z M48.1940849,13.0657186 L48.5544079,13.1393565 C52.475585,13.9578161 57.5701119,15.5927563 59.4269784,19.4387638 C59.4977336,19.9826029 59.422974,20.0991585 59.3621811,20.1753092 L59.3419403,20.2006496 C59.2918468,20.2656779 59.2518761,20.3553191 59.0158148,20.4293365 C58.9503078,20.4137511 58.8841487,20.3972441 58.8172889,20.3797477 C57.9661338,20.1570104 57.2927054,19.8501586 56.6407554,19.5317631 L55.9338762,19.1840077 C55.1137551,18.7824617 54.286393,18.39553 53.409579,18.1098824 C51.5383829,17.5004226 49.6136967,17.0710962 47.6591912,16.8418457 C47.2355672,16.7921997 46.8276439,16.6494314 46.5058217,16.4047497 C46.2003479,16.1724977 45.9669855,15.8509394 45.8605853,15.4235184 C45.7226908,14.8703673 45.7623187,14.4515865 46.0595335,13.9525632 C46.2830208,13.5778074 46.6027952,13.3180527 46.9699772,13.1688927 C47.3443033,13.0168305 47.7704699,12.9809819 48.1940849,13.0657186 Z" id="ðŸ–-Ink"></path>
                    </g>
                    <g id="facial-hair/*-None" transform="translate(30.843352, 84.635200)"></g>
                    <g id="accessories/*-None" transform="translate(11.785671, 60.346400)"></g>
                </g>
            </g>
        </g>
    </g>
</svg>